<svg xmlns="http://www.w3.org/2000/svg" width="1084" height="322" viewBox="0 0 1084 322" preserveAspectRatio="xMidYMid slice"><defs><pattern id="b" width="496.6" height="496.6" x="0" y="0" patternUnits="userSpaceOnUse"><g transform="scale(2)"><defs><filter id="a" width="300%" height="300%" x="-100%" y="-100%" color-interpolation-filters="sRGB"><feGaussianBlur in="SourceGraphic" stdDeviation="9.6"/><feComponentTransfer result="cutoff"><feFuncA intercept="-40" slope="60" type="linear"/></feComponentTransfer></filter></defs><g filter="url(#a)" style="isolation:isolate"><g fill="#eee"><circle cx="-190.5" cy="-31.1" r="32.8"/><circle cx="65.5" cy="-31.1" r="32.8"/><circle cx="321.5" cy="-31.1" r="32.8"/><circle cx="-190.5" cy="224.9" r="32.8"/><circle cx="65.5" cy="224.9" r="32.8"/><circle cx="321.5" cy="224.9" r="32.8"/><circle cx="-190.5" cy="480.9" r="32.8"/><circle cx="65.5" cy="480.9" r="32.8"/><circle cx="321.5" cy="480.9" r="32.8"/><circle cx="-190.5" cy="736.9" r="32.8"/><circle cx="65.5" cy="736.9" r="32.8"/><circle cx="321.5" cy="736.9" r="32.8"/><circle cx="-173.5" cy="89" r="18.8"/><circle cx="82.5" cy="89" r="18.8"/><circle cx="338.5" cy="89" r="18.8"/><circle cx="-173.5" cy="345.1" r="18.8"/><circle cx="82.5" cy="345.1" r="18.8"/><circle cx="338.5" cy="345.1" r="18.8"/><circle cx="-173.5" cy="601" r="18.8"/><circle cx="82.5" cy="601" r="18.8"/><circle cx="338.5" cy="601" r="18.8"/><circle cx="-90.9" cy="-4.1" r="29"/><circle cx="165.1" cy="-4.1" r="29"/><circle cx="421.1" cy="-4.1" r="29"/><circle cx="-90.9" cy="251.9" r="29"/><circle cx="165.1" cy="251.9" r="29"/><circle cx="421.1" cy="251.9" r="29"/><circle cx="-90.9" cy="507.9" r="29"/><circle cx="165.1" cy="507.9" r="29"/><circle cx="421.1" cy="507.9" r="29"/><circle cx="-90.9" cy="763.9" r="29"/><circle cx="165.1" cy="763.9" r="29"/><circle cx="421.1" cy="763.9" r="29"/><circle cx="-74.8" cy="56.1" r="31.2"/><circle cx="181.2" cy="56.1" r="31.2"/><circle cx="437.2" cy="56.1" r="31.2"/><circle cx="-74.8" cy="312.1" r="31.2"/><circle cx="181.2" cy="312.1" r="31.2"/><circle cx="437.2" cy="312.1" r="31.2"/><circle cx="-74.8" cy="568.1" r="31.2"/><circle cx="181.2" cy="568.1" r="31.2"/><circle cx="437.2" cy="568.1" r="31.2"/><circle cx="-104.9" cy="-17.9" r="21.6"/><circle cx="151.1" cy="-17.9" r="21.6"/><circle cx="407.1" cy="-17.9" r="21.6"/><circle cx="-104.9" cy="238.1" r="21.6"/><circle cx="151.1" cy="238.1" r="21.6"/><circle cx="407.1" cy="238.1" r="21.6"/><circle cx="-104.9" cy="494.1" r="21.6"/><circle cx="151.1" cy="494.1" r="21.6"/><circle cx="407.1" cy="494.1" r="21.6"/><circle cx="-104.9" cy="750.1" r="21.6"/><circle cx="151.1" cy="750.1" r="21.6"/><circle cx="407.1" cy="750.1" r="21.6"/><circle cx="-157.3" cy="180.8" r="26.4"/><circle cx="98.7" cy="180.8" r="26.4"/><circle cx="354.7" cy="180.8" r="26.4"/><circle cx="-157.3" cy="436.8" r="26.4"/><circle cx="98.7" cy="436.8" r="26.4"/><circle cx="354.7" cy="436.8" r="26.4"/><circle cx="-157.3" cy="692.8" r="26.4"/><circle cx="98.7" cy="692.8" r="26.4"/><circle cx="354.7" cy="692.8" r="26.4"/><circle cx="-214" cy="48.7" r="28.3"/><circle cx="42" cy="48.7" r="28.3"/><circle cx="298" cy="48.7" r="28.3"/><circle cx="-214" cy="304.7" r="28.3"/><circle cx="42" cy="304.7" r="28.3"/><circle cx="298" cy="304.7" r="28.3"/><circle cx="-214" cy="560.7" r="28.3"/><circle cx="42" cy="560.7" r="28.3"/><circle cx="298" cy="560.7" r="28.3"/><circle cx="-187.1" cy="129.7" r="31.9"/><circle cx="68.9" cy="129.7" r="31.9"/><circle cx="324.9" cy="129.7" r="31.9"/><circle cx="-187.1" cy="385.7" r="31.9"/><circle cx="68.9" cy="385.7" r="31.9"/><circle cx="324.9" cy="385.7" r="31.9"/><circle cx="-187.1" cy="641.7" r="31.9"/><circle cx="68.9" cy="641.7" r="31.9"/><circle cx="324.9" cy="641.7" r="31.9"/><circle cx="-131.9" cy="214.4" r="24.6"/><circle cx="124.1" cy="214.4" r="24.6"/><circle cx="380.1" cy="214.4" r="24.6"/><circle cx="-131.9" cy="470.4" r="24.6"/><circle cx="124.1" cy="470.4" r="24.6"/><circle cx="380.1" cy="470.4" r="24.6"/><circle cx="-131.9" cy="726.4" r="24.6"/><circle cx="124.1" cy="726.4" r="24.6"/><circle cx="380.1" cy="726.4" r="24.6"/><circle cx="-186.8" cy="210.5" r="32.3"/><circle cx="69.2" cy="210.5" r="32.3"/><circle cx="325.2" cy="210.5" r="32.3"/><circle cx="-186.8" cy="466.5" r="32.3"/><circle cx="69.2" cy="466.5" r="32.3"/><circle cx="325.2" cy="466.5" r="32.3"/><circle cx="-186.8" cy="722.5" r="32.3"/><circle cx="69.2" cy="722.5" r="32.3"/><circle cx="325.2" cy="722.5" r="32.3"/><circle cx="-66.4" cy="197.1" r="33.4"/><circle cx="189.6" cy="197.1" r="33.4"/><circle cx="445.6" cy="197.1" r="33.4"/><circle cx="-66.4" cy="453.1" r="33.4"/><circle cx="189.6" cy="453.1" r="33.4"/><circle cx="445.6" cy="453.1" r="33.4"/><circle cx="-66.4" cy="709.1" r="33.4"/><circle cx="189.6" cy="709.1" r="33.4"/><circle cx="445.6" cy="709.1" r="33.4"/><circle cx="-137.2" cy="36.4" r="32"/><circle cx="118.8" cy="36.4" r="32"/><circle cx="374.8" cy="36.4" r="32"/><circle cx="-137.2" cy="292.4" r="32"/><circle cx="118.8" cy="292.4" r="32"/><circle cx="374.8" cy="292.4" r="32"/><circle cx="-137.2" cy="548.4" r="32"/><circle cx="118.8" cy="548.4" r="32"/><circle cx="374.8" cy="548.4" r="32"/><circle cx="-226.9" cy="7" r="30.8"/><circle cx="29.1" cy="7" r="30.8"/><circle cx="285.1" cy="7" r="30.8"/><circle cx="-226.9" cy="263" r="30.8"/><circle cx="29.1" cy="263" r="30.8"/><circle cx="285.1" cy="263" r="30.8"/><circle cx="-226.9" cy="519" r="30.8"/><circle cx="29.1" cy="519" r="30.8"/><circle cx="285.1" cy="519" r="30.8"/><circle cx="-23.7" cy="117.7" r="25.6"/><circle cx="232.3" cy="117.7" r="25.6"/><circle cx="488.3" cy="117.7" r="25.6"/><circle cx="-23.7" cy="373.7" r="25.6"/><circle cx="232.3" cy="373.7" r="25.6"/><circle cx="488.3" cy="373.7" r="25.6"/><circle cx="-23.7" cy="629.7" r="25.6"/><circle cx="232.3" cy="629.7" r="25.6"/><circle cx="488.3" cy="629.7" r="25.6"/><animateTransform attributeName="transform" dur="33.33s" keyTimes="0;1" repeatCount="indefinite" type="translate" values="0 0;0 -256"/></g><g fill="#fff"><circle cx="-16.4" cy="209.1" r="27.9"/><circle cx="239.6" cy="209.1" r="27.9"/><circle cx="495.6" cy="209.1" r="27.9"/><circle cx="-16.4" cy="465.1" r="27.9"/><circle cx="239.6" cy="465.1" r="27.9"/><circle cx="495.6" cy="465.1" r="27.9"/><circle cx="-16.4" cy="721.1" r="27.9"/><circle cx="239.6" cy="721.1" r="27.9"/><circle cx="495.6" cy="721.1" r="27.9"/><circle cx="-185.2" cy="169.4" r="23.4"/><circle cx="70.8" cy="169.4" r="23.4"/><circle cx="326.8" cy="169.4" r="23.4"/><circle cx="-185.2" cy="425.4" r="23.4"/><circle cx="70.8" cy="425.4" r="23.4"/><circle cx="326.8" cy="425.4" r="23.4"/><circle cx="-185.2" cy="681.4" r="23.4"/><circle cx="70.8" cy="681.4" r="23.4"/><circle cx="326.8" cy="681.4" r="23.4"/><circle cx="-141.9" cy="89.8" r="16.9"/><circle cx="114.1" cy="89.8" r="16.9"/><circle cx="370.1" cy="89.8" r="16.9"/><circle cx="-141.9" cy="345.8" r="16.9"/><circle cx="114.1" cy="345.8" r="16.9"/><circle cx="370.1" cy="345.8" r="16.9"/><circle cx="-141.9" cy="601.8" r="16.9"/><circle cx="114.1" cy="601.8" r="16.9"/><circle cx="370.1" cy="601.8" r="16.9"/><circle cx="-175.4" cy="-33.9" r="33.9"/><circle cx="80.6" cy="-33.9" r="33.9"/><circle cx="336.6" cy="-33.9" r="33.9"/><circle cx="-175.4" cy="222.1" r="33.9"/><circle cx="80.6" cy="222.1" r="33.9"/><circle cx="336.6" cy="222.1" r="33.9"/><circle cx="-175.4" cy="478.1" r="33.9"/><circle cx="80.6" cy="478.1" r="33.9"/><circle cx="336.6" cy="478.1" r="33.9"/><circle cx="-175.4" cy="734.1" r="33.9"/><circle cx="80.6" cy="734.1" r="33.9"/><circle cx="336.6" cy="734.1" r="33.9"/><circle cx="-210.2" cy="134.8" r="22.6"/><circle cx="45.8" cy="134.8" r="22.6"/><circle cx="301.8" cy="134.8" r="22.6"/><circle cx="-210.2" cy="390.8" r="22.6"/><circle cx="45.8" cy="390.8" r="22.6"/><circle cx="301.8" cy="390.8" r="22.6"/><circle cx="-210.2" cy="646.8" r="22.6"/><circle cx="45.8" cy="646.8" r="22.6"/><circle cx="301.8" cy="646.8" r="22.6"/><circle cx="-204.9" cy="55.3" r="21.6"/><circle cx="51.1" cy="55.3" r="21.6"/><circle cx="307.1" cy="55.3" r="21.6"/><circle cx="-204.9" cy="311.3" r="21.6"/><circle cx="51.1" cy="311.3" r="21.6"/><circle cx="307.1" cy="311.3" r="21.6"/><circle cx="-204.9" cy="567.3" r="21.6"/><circle cx="51.1" cy="567.3" r="21.6"/><circle cx="307.1" cy="567.3" r="21.6"/><circle cx="-3" cy="216.3" r="25.3"/><circle cx="253" cy="216.3" r="25.3"/><circle cx="509" cy="216.3" r="25.3"/><circle cx="-3" cy="472.3" r="25.3"/><circle cx="253" cy="472.3" r="25.3"/><circle cx="509" cy="472.3" r="25.3"/><circle cx="-3" cy="728.3" r="25.3"/><circle cx="253" cy="728.3" r="25.3"/><circle cx="509" cy="728.3" r="25.3"/><circle cx="-30" cy="59.9" r="18.3"/><circle cx="226" cy="59.9" r="18.3"/><circle cx="482" cy="59.9" r="18.3"/><circle cx="-30" cy="315.9" r="18.3"/><circle cx="226" cy="315.9" r="18.3"/><circle cx="482" cy="315.9" r="18.3"/><circle cx="-30" cy="571.9" r="18.3"/><circle cx="226" cy="571.9" r="18.3"/><circle cx="482" cy="571.9" r="18.3"/><circle cx="-187.3" cy="186.4" r="18.5"/><circle cx="68.7" cy="186.4" r="18.5"/><circle cx="324.7" cy="186.4" r="18.5"/><circle cx="-187.3" cy="442.4" r="18.5"/><circle cx="68.7" cy="442.4" r="18.5"/><circle cx="324.7" cy="442.4" r="18.5"/><circle cx="-187.3" cy="698.4" r="18.5"/><circle cx="68.7" cy="698.4" r="18.5"/><circle cx="324.7" cy="698.4" r="18.5"/><circle cx="-237.1" cy="229.9" r="19.4"/><circle cx="18.9" cy="229.9" r="19.4"/><circle cx="274.9" cy="229.9" r="19.4"/><circle cx="-237.1" cy="485.9" r="19.4"/><circle cx="18.9" cy="485.9" r="19.4"/><circle cx="274.9" cy="485.9" r="19.4"/><circle cx="-237.1" cy="741.9" r="19.4"/><circle cx="18.9" cy="741.9" r="19.4"/><circle cx="274.9" cy="741.9" r="19.4"/><circle cx="-161.3" cy="190.9" r="18.4"/><circle cx="94.7" cy="190.9" r="18.4"/><circle cx="350.7" cy="190.9" r="18.4"/><circle cx="-161.3" cy="446.9" r="18.4"/><circle cx="94.7" cy="446.9" r="18.4"/><circle cx="350.7" cy="446.9" r="18.4"/><circle cx="-161.3" cy="702.9" r="18.4"/><circle cx="94.7" cy="702.9" r="18.4"/><circle cx="350.7" cy="702.9" r="18.4"/><circle cx="-145.8" cy="100.2" r="29"/><circle cx="110.2" cy="100.2" r="29"/><circle cx="366.2" cy="100.2" r="29"/><circle cx="-145.8" cy="356.2" r="29"/><circle cx="110.2" cy="356.2" r="29"/><circle cx="366.2" cy="356.2" r="29"/><circle cx="-145.8" cy="612.2" r="29"/><circle cx="110.2" cy="612.2" r="29"/><circle cx="366.2" cy="612.2" r="29"/><circle cx="-51.8" cy="150.8" r="22.5"/><circle cx="204.2" cy="150.8" r="22.5"/><circle cx="460.2" cy="150.8" r="22.5"/><circle cx="-51.8" cy="406.8" r="22.5"/><circle cx="204.2" cy="406.8" r="22.5"/><circle cx="460.2" cy="406.8" r="22.5"/><circle cx="-51.8" cy="662.8" r="22.5"/><circle cx="204.2" cy="662.8" r="22.5"/><circle cx="460.2" cy="662.8" r="22.5"/><animateTransform attributeName="transform" dur="16.66s" keyTimes="0;1" repeatCount="indefinite" type="translate" values="0 0;0 -256"/></g><g fill="#fee8c2"><circle cx="-137.7" cy="168.4" r="34.2"/><circle cx="118.3" cy="168.4" r="34.2"/><circle cx="374.3" cy="168.4" r="34.2"/><circle cx="-137.7" cy="424.4" r="34.2"/><circle cx="118.3" cy="424.4" r="34.2"/><circle cx="374.3" cy="424.4" r="34.2"/><circle cx="-137.7" cy="680.4" r="34.2"/><circle cx="118.3" cy="680.4" r="34.2"/><circle cx="374.3" cy="680.4" r="34.2"/><circle cx="-41.6" cy="65" r="19.6"/><circle cx="214.4" cy="65" r="19.6"/><circle cx="470.4" cy="65" r="19.6"/><circle cx="-41.6" cy="321" r="19.6"/><circle cx="214.4" cy="321" r="19.6"/><circle cx="470.4" cy="321" r="19.6"/><circle cx="-41.6" cy="577" r="19.6"/><circle cx="214.4" cy="577" r="19.6"/><circle cx="470.4" cy="577" r="19.6"/><circle cx="-41.7" cy="138.6" r="26.1"/><circle cx="214.3" cy="138.6" r="26.1"/><circle cx="470.3" cy="138.6" r="26.1"/><circle cx="-41.7" cy="394.6" r="26.1"/><circle cx="214.3" cy="394.6" r="26.1"/><circle cx="470.3" cy="394.6" r="26.1"/><circle cx="-41.7" cy="650.6" r="26.1"/><circle cx="214.3" cy="650.6" r="26.1"/><circle cx="470.3" cy="650.6" r="26.1"/><circle cx="-58" cy="56.8" r="23.5"/><circle cx="198" cy="56.8" r="23.5"/><circle cx="454" cy="56.8" r="23.5"/><circle cx="-58" cy="312.8" r="23.5"/><circle cx="198" cy="312.8" r="23.5"/><circle cx="454" cy="312.8" r="23.5"/><circle cx="-58" cy="568.8" r="23.5"/><circle cx="198" cy="568.8" r="23.5"/><circle cx="454" cy="568.8" r="23.5"/><circle cx="-238.2" cy="74.3" r="23.3"/><circle cx="17.8" cy="74.3" r="23.3"/><circle cx="273.8" cy="74.3" r="23.3"/><circle cx="-238.2" cy="330.3" r="23.3"/><circle cx="17.8" cy="330.3" r="23.3"/><circle cx="273.8" cy="330.3" r="23.3"/><circle cx="-238.2" cy="586.3" r="23.3"/><circle cx="17.8" cy="586.3" r="23.3"/><circle cx="273.8" cy="586.3" r="23.3"/><circle cx="-76.8" cy="48.2" r="28.5"/><circle cx="179.2" cy="48.2" r="28.5"/><circle cx="435.1" cy="48.2" r="28.5"/><circle cx="-76.8" cy="304.2" r="28.5"/><circle cx="179.2" cy="304.2" r="28.5"/><circle cx="435.1" cy="304.2" r="28.5"/><circle cx="-76.8" cy="560.2" r="28.5"/><circle cx="179.2" cy="560.2" r="28.5"/><circle cx="435.1" cy="560.2" r="28.5"/><circle cx="-79" cy="96.6" r="26.9"/><circle cx="177" cy="96.6" r="26.9"/><circle cx="433" cy="96.6" r="26.9"/><circle cx="-79" cy="352.6" r="26.9"/><circle cx="177" cy="352.6" r="26.9"/><circle cx="433" cy="352.6" r="26.9"/><circle cx="-79" cy="608.6" r="26.9"/><circle cx="177" cy="608.6" r="26.9"/><circle cx="433" cy="608.6" r="26.9"/><circle cx="-201.9" cy="82.7" r="32.4"/><circle cx="54.1" cy="82.7" r="32.4"/><circle cx="310.1" cy="82.7" r="32.4"/><circle cx="-201.9" cy="338.7" r="32.4"/><circle cx="54.1" cy="338.7" r="32.4"/><circle cx="310.1" cy="338.7" r="32.4"/><circle cx="-201.9" cy="594.7" r="32.4"/><circle cx="54.1" cy="594.7" r="32.4"/><circle cx="310.1" cy="594.7" r="32.4"/><circle cx="-183.5" cy="59.8" r="21.4"/><circle cx="72.5" cy="59.8" r="21.4"/><circle cx="328.5" cy="59.8" r="21.4"/><circle cx="-183.5" cy="315.8" r="21.4"/><circle cx="72.5" cy="315.8" r="21.4"/><circle cx="328.5" cy="315.8" r="21.4"/><circle cx="-183.5" cy="571.8" r="21.4"/><circle cx="72.5" cy="571.8" r="21.4"/><circle cx="328.5" cy="571.8" r="21.4"/><circle cx="-200" cy="144" r="19.4"/><circle cx="56" cy="144" r="19.4"/><circle cx="312" cy="144" r="19.4"/><circle cx="-200" cy="400" r="19.4"/><circle cx="56" cy="400" r="19.4"/><circle cx="312" cy="400" r="19.4"/><circle cx="-200" cy="656" r="19.4"/><circle cx="56" cy="656" r="19.4"/><circle cx="312" cy="656" r="19.4"/><circle cx="-85.3" cy="184.6" r="18.6"/><circle cx="170.7" cy="184.6" r="18.6"/><circle cx="426.7" cy="184.6" r="18.6"/><circle cx="-85.3" cy="440.6" r="18.6"/><circle cx="170.7" cy="440.6" r="18.6"/><circle cx="426.7" cy="440.6" r="18.6"/><circle cx="-85.3" cy="696.6" r="18.6"/><circle cx="170.7" cy="696.6" r="18.6"/><circle cx="426.7" cy="696.6" r="18.6"/><circle cx="-114.9" cy="182.2" r="17.6"/><circle cx="141.1" cy="182.2" r="17.6"/><circle cx="397.1" cy="182.2" r="17.6"/><circle cx="-114.9" cy="438.2" r="17.6"/><circle cx="141.1" cy="438.2" r="17.6"/><circle cx="397.1" cy="438.2" r="17.6"/><circle cx="-114.9" cy="694.2" r="17.6"/><circle cx="141.1" cy="694.2" r="17.6"/><circle cx="397.1" cy="694.2" r="17.6"/><circle cx="-250.7" cy="61.5" r="19.4"/><circle cx="5.3" cy="61.5" r="19.4"/><circle cx="261.3" cy="61.5" r="19.4"/><circle cx="-250.7" cy="317.6" r="19.4"/><circle cx="5.3" cy="317.6" r="19.4"/><circle cx="261.3" cy="317.6" r="19.4"/><circle cx="-250.7" cy="573.5" r="19.4"/><circle cx="5.3" cy="573.5" r="19.4"/><circle cx="261.3" cy="573.5" r="19.4"/><animateTransform attributeName="transform" dur="11.11s" keyTimes="0;1" repeatCount="indefinite" type="translate" values="0 0;0 -256"/></g></g></g></pattern></defs><path fill="url(#b)" d="M0 0h1084v322H0z"/></svg>