<svg xmlns="http://www.w3.org/2000/svg" xmlns:xlink="http://www.w3.org/1999/xlink" width="1440" height="789" preserveAspectRatio="xMidYMid slice" viewBox="0 0 1440 789">
  <g transform="translate(720,394.5) scale(1,1) translate(-720,-394.5)">
    <defs>
      <linearGradient id="ldbk-photon-hntfonimsym-lg" x1="695" x2="1440" y1="0" y2="0" gradientUnits="userSpaceOnUse">
        <stop stop-color="#1d3f72" offset="0"></stop>
        <stop stop-color="#34ffef" offset="1"></stop>
      </linearGradient>
      <mask id="ldbk-photon-hntfonimsym-mask">
        <g>
          <path d="M1740 -0.5 L709.0537305732436 -0.5 A15.5 15.5 0 0 1 709.0537305732436 31.5 L1740 31.5" fill="#fff">
            <animateTransform attributeName="transform" type="translate" dur="10s" repeatCount="indefinite" keyTimes="0;0.5;1" calcMode="spline" keySplines="0.5 0 0.5 1;0.5 0 0.5 1" values="46.759975817523674;0;46.759975817523674" begin="0s"></animateTransform>
          </path>
          <path d="M1507.9055572613956 -0.5 L1544.8111145227913 -0.5 A15.5 15.5 0 0 1 1544.8111145227913 31.5 L1507.9055572613956 31.5 A15.5 15.5 0 0 1 1507.9055572613956 -0.5" fill="#000">
            <animateTransform attributeName="transform" type="translate" dur="10s" repeatCount="indefinite" keyTimes="0;1" values="0;-1598.2858977298245" begin="0s"></animateTransform>
            <animate attributeName="opacity" dur="10s" repeatCount="indefinite" keyTimes="0;0.3;1" values="1;1;0" begin="0s"></animate>
          </path>
          <path d="M1740 30.5 L677.1468546015609 30.5 A15.5 15.5 0 0 0 677.1468546015609 62.5 L1740 62.5" fill="#fff">
            <animateTransform attributeName="transform" type="translate" dur="3.3333333333333335s" repeatCount="indefinite" keyTimes="0;0.5;1" calcMode="spline" keySplines="0.5 0 0.5 1;0.5 0 0.5 1" values="-41.084118273494525;0;-41.084118273494525" begin="-1.153846153846154s"></animateTransform>
          </path>
          <path d="M732.7112611957039 30.5 L767.2686030257432 30.5 A15.5 15.5 0 0 1 767.2686030257432 62.5 L732.7112611957039 62.5 A15.5 15.5 0 0 1 732.7112611957039 30.5" fill="#fff">
            <animateTransform attributeName="transform" type="translate" dur="3.3333333333333335s" repeatCount="indefinite" keyTimes="0;1" values="0;0" begin="-1.153846153846154s"></animateTransform>
            <animate attributeName="opacity" dur="3.3333333333333335s" repeatCount="indefinite" keyTimes="0;0.3;1" values="1;1;0" begin="-1.153846153846154s"></animate>
          </path>
          <path d="M1740 61.5 L698.3495742820337 61.5 A15.5 15.5 0 0 1 698.3495742820337 93.5 L1740 93.5" fill="#fff">
            <animateTransform attributeName="transform" type="translate" dur="10s" repeatCount="indefinite" keyTimes="0;0.5;1" calcMode="spline" keySplines="0.5 0 0.5 1;0.5 0 0.5 1" values="40.043897320117054;0;40.043897320117054" begin="-2.307692307692308s"></animateTransform>
          </path>
          <path d="M1486.3248369322525 61.5 L1501.649673864505 61.5 A15.5 15.5 0 0 1 1501.649673864505 93.5 L1486.3248369322525 93.5 A15.5 15.5 0 0 1 1486.3248369322525 61.5" fill="#000">
            <animateTransform attributeName="transform" type="translate" dur="10s" repeatCount="indefinite" keyTimes="0;1" values="0;-1241.9315792614589" begin="-2.307692307692308s"></animateTransform>
            <animate attributeName="opacity" dur="10s" repeatCount="indefinite" keyTimes="0;0.3;1" values="1;1;0" begin="-2.307692307692308s"></animate>
          </path>
          <path d="M1740 92.5 L670.982334340296 92.5 A15.5 15.5 0 0 0 670.982334340296 124.5 L1740 124.5" fill="#fff">
            <animateTransform attributeName="transform" type="translate" dur="3.3333333333333335s" repeatCount="indefinite" keyTimes="0;0.5;1" calcMode="spline" keySplines="0.5 0 0.5 1;0.5 0 0.5 1" values="-42.35273105646166;0;-42.35273105646166" begin="-3.4615384615384617s"></animateTransform>
          </path>
          <path d="M747.8011284288222 92.5 L779.0297384932903 92.5 A15.5 15.5 0 0 1 779.0297384932903 124.5 L747.8011284288222 124.5 A15.5 15.5 0 0 1 747.8011284288222 92.5" fill="#fff">
            <animateTransform attributeName="transform" type="translate" dur="10s" repeatCount="indefinite" keyTimes="0;1" values="0;0" begin="-3.4615384615384617s"></animateTransform>
            <animate attributeName="opacity" dur="10s" repeatCount="indefinite" keyTimes="0;0.3;1" values="1;1;0" begin="-3.4615384615384617s"></animate>
          </path>
          <path d="M1740 123.5 L694.896857330628 123.5 A15.5 15.5 0 0 1 694.896857330628 155.5 L1740 155.5" fill="#fff">
            <animateTransform attributeName="transform" type="translate" dur="10s" repeatCount="indefinite" keyTimes="0;0.5;1" calcMode="spline" keySplines="0.5 0 0.5 1;0.5 0 0.5 1" values="49.24436813592058;0;49.24436813592058" begin="-4.615384615384616s"></animateTransform>
          </path>
          <path d="M1501.8576782256905 123.5 L1532.715356451381 123.5 A15.5 15.5 0 0 1 1532.715356451381 155.5 L1501.8576782256905 155.5 A15.5 15.5 0 0 1 1501.8576782256905 123.5" fill="#000">
            <animateTransform attributeName="transform" type="translate" dur="10s" repeatCount="indefinite" keyTimes="0;1" values="0;-1082.708875807553" begin="-4.615384615384616s"></animateTransform>
            <animate attributeName="opacity" dur="10s" repeatCount="indefinite" keyTimes="0;0.3;1" values="1;1;0" begin="-4.615384615384616s"></animate>
          </path>
          <path d="M1740 154.5 L643.6925427373912 154.5 A15.5 15.5 0 0 0 643.6925427373912 186.5 L1740 186.5" fill="#fff">
            <animateTransform attributeName="transform" type="translate" dur="5s" repeatCount="indefinite" keyTimes="0;0.5;1" calcMode="spline" keySplines="0.5 0 0.5 1;0.5 0 0.5 1" values="-40.675874071189526;0;-40.675874071189526" begin="-5.76923076923077s"></animateTransform>
          </path>
          <path d="M725.3113699528917 154.5 L752.9381723922143 154.5 A15.5 15.5 0 0 1 752.9381723922143 186.5 L725.3113699528917 186.5 A15.5 15.5 0 0 1 725.3113699528917 154.5" fill="#fff">
            <animateTransform attributeName="transform" type="translate" dur="10s" repeatCount="indefinite" keyTimes="0;1" values="0;0" begin="-5.76923076923077s"></animateTransform>
            <animate attributeName="opacity" dur="10s" repeatCount="indefinite" keyTimes="0;0.3;1" values="1;1;0" begin="-5.76923076923077s"></animate>
          </path>
          <path d="M1740 185.5 L669.4454545793469 185.5 A15.5 15.5 0 0 1 669.4454545793469 217.5 L1740 217.5" fill="#fff">
            <animateTransform attributeName="transform" type="translate" dur="5s" repeatCount="indefinite" keyTimes="0;0.5;1" calcMode="spline" keySplines="0.5 0 0.5 1;0.5 0 0.5 1" values="31.63308597108002;0;31.63308597108002" begin="-6.923076923076923s"></animateTransform>
          </path>
          <path d="M1483.1018059139421 185.5 L1495.2036118278843 185.5 A15.5 15.5 0 0 1 1495.2036118278843 217.5 L1483.1018059139421 217.5 A15.5 15.5 0 0 1 1483.1018059139421 185.5" fill="#000">
            <animateTransform attributeName="transform" type="translate" dur="3.3333333333333335s" repeatCount="indefinite" keyTimes="0;1" values="0;-1362.8235879045787" begin="-6.923076923076923s"></animateTransform>
            <animate attributeName="opacity" dur="3.3333333333333335s" repeatCount="indefinite" keyTimes="0;0.3;1" values="1;1;0" begin="-6.923076923076923s"></animate>
          </path>
          <path d="M1740 216.5 L636.5073331339645 216.5 A15.5 15.5 0 0 0 636.5073331339645 248.5 L1740 248.5" fill="#fff">
            <animateTransform attributeName="transform" type="translate" dur="10s" repeatCount="indefinite" keyTimes="0;0.5;1" calcMode="spline" keySplines="0.5 0 0.5 1;0.5 0 0.5 1" values="-41.48526099164506;0;-41.48526099164506" begin="-8.076923076923077s"></animateTransform>
          </path>
          <path d="M739.4094053390725 216.5 L752.4336877696468 216.5 A15.5 15.5 0 0 1 752.4336877696468 248.5 L739.4094053390725 248.5 A15.5 15.5 0 0 1 739.4094053390725 216.5" fill="#fff">
            <animateTransform attributeName="transform" type="translate" dur="5s" repeatCount="indefinite" keyTimes="0;1" values="0;0" begin="-8.076923076923077s"></animateTransform>
            <animate attributeName="opacity" dur="5s" repeatCount="indefinite" keyTimes="0;0.3;1" values="1;1;0" begin="-8.076923076923077s"></animate>
          </path>
          <path d="M1740 247.5 L687.8835694406523 247.5 A15.5 15.5 0 0 1 687.8835694406523 279.5 L1740 279.5" fill="#fff">
            <animateTransform attributeName="transform" type="translate" dur="3.3333333333333335s" repeatCount="indefinite" keyTimes="0;0.5;1" calcMode="spline" keySplines="0.5 0 0.5 1;0.5 0 0.5 1" values="31.289690509445705;0;31.289690509445705" begin="-9.230769230769232s"></animateTransform>
          </path>
          <path d="M1505.6268853703466 247.5 L1540.2537707406932 247.5 A15.5 15.5 0 0 1 1540.2537707406932 279.5 L1505.6268853703466 279.5 A15.5 15.5 0 0 1 1505.6268853703466 247.5" fill="#000">
            <animateTransform attributeName="transform" type="translate" dur="10s" repeatCount="indefinite" keyTimes="0;1" values="0;-1586.4813355291005" begin="-9.230769230769232s"></animateTransform>
            <animate attributeName="opacity" dur="10s" repeatCount="indefinite" keyTimes="0;0.3;1" values="1;1;0" begin="-9.230769230769232s"></animate>
          </path>
          <path d="M1740 278.5 L662.6848931028693 278.5 A15.5 15.5 0 0 0 662.6848931028693 310.5 L1740 310.5" fill="#fff">
            <animateTransform attributeName="transform" type="translate" dur="10s" repeatCount="indefinite" keyTimes="0;0.5;1" calcMode="spline" keySplines="0.5 0 0.5 1;0.5 0 0.5 1" values="-44.368613474226144;0;-44.368613474226144" begin="-10.384615384615383s"></animateTransform>
          </path>
          <path d="M735.5881402635135 278.5 L750.7595354934487 278.5 A15.5 15.5 0 0 1 750.7595354934487 310.5 L735.5881402635135 310.5 A15.5 15.5 0 0 1 735.5881402635135 278.5" fill="#fff">
            <animateTransform attributeName="transform" type="translate" dur="3.3333333333333335s" repeatCount="indefinite" keyTimes="0;1" values="0;0" begin="-10.384615384615383s"></animateTransform>
            <animate attributeName="opacity" dur="3.3333333333333335s" repeatCount="indefinite" keyTimes="0;0.3;1" values="1;1;0" begin="-10.384615384615383s"></animate>
          </path>
          <path d="M1740 309.5 L699.3612198699733 309.5 A15.5 15.5 0 0 1 699.3612198699733 341.5 L1740 341.5" fill="#fff">
            <animateTransform attributeName="transform" type="translate" dur="10s" repeatCount="indefinite" keyTimes="0;0.5;1" calcMode="spline" keySplines="0.5 0 0.5 1;0.5 0 0.5 1" values="29.260036991374996;0;29.260036991374996" begin="-11.53846153846154s"></animateTransform>
          </path>
          <path d="M1505.2883140191323 309.5 L1539.5766280382645 309.5 A15.5 15.5 0 0 1 1539.5766280382645 341.5 L1505.2883140191323 341.5 A15.5 15.5 0 0 1 1505.2883140191323 309.5" fill="#000">
            <animateTransform attributeName="transform" type="translate" dur="10s" repeatCount="indefinite" keyTimes="0;1" values="0;-1210.1502406330137" begin="-11.53846153846154s"></animateTransform>
            <animate attributeName="opacity" dur="10s" repeatCount="indefinite" keyTimes="0;0.3;1" values="1;1;0" begin="-11.53846153846154s"></animate>
          </path>
          <path d="M1740 340.5 L649.7741455841115 340.5 A15.5 15.5 0 0 0 649.7741455841115 372.5 L1740 372.5" fill="#fff">
            <animateTransform attributeName="transform" type="translate" dur="5s" repeatCount="indefinite" keyTimes="0;0.5;1" calcMode="spline" keySplines="0.5 0 0.5 1;0.5 0 0.5 1" values="-40.172863559276976;0;-40.172863559276976" begin="-12.692307692307692s"></animateTransform>
          </path>
          <path d="M749.8180831401776 340.5 L761.1624306932946 340.5 A15.5 15.5 0 0 1 761.1624306932946 372.5 L749.8180831401776 372.5 A15.5 15.5 0 0 1 749.8180831401776 340.5" fill="#fff">
            <animateTransform attributeName="transform" type="translate" dur="3.3333333333333335s" repeatCount="indefinite" keyTimes="0;1" values="0;0" begin="-12.692307692307692s"></animateTransform>
            <animate attributeName="opacity" dur="3.3333333333333335s" repeatCount="indefinite" keyTimes="0;0.3;1" values="1;1;0" begin="-12.692307692307692s"></animate>
          </path>
          <path d="M1740 371.5 L699.7583684706593 371.5 A15.5 15.5 0 0 1 699.7583684706593 403.5 L1740 403.5" fill="#fff">
            <animateTransform attributeName="transform" type="translate" dur="10s" repeatCount="indefinite" keyTimes="0;0.5;1" calcMode="spline" keySplines="0.5 0 0.5 1;0.5 0 0.5 1" values="32.38065917087714;0;32.38065917087714" begin="-13.846153846153847s"></animateTransform>
          </path>
          <path d="M1500.3185451631746 371.5 L1529.6370903263492 371.5 A15.5 15.5 0 0 1 1529.6370903263492 403.5 L1500.3185451631746 403.5 A15.5 15.5 0 0 1 1500.3185451631746 371.5" fill="#000">
            <animateTransform attributeName="transform" type="translate" dur="3.3333333333333335s" repeatCount="indefinite" keyTimes="0;1" values="0;-1602.559628405219" begin="-13.846153846153847s"></animateTransform>
            <animate attributeName="opacity" dur="3.3333333333333335s" repeatCount="indefinite" keyTimes="0;0.3;1" values="1;1;0" begin="-13.846153846153847s"></animate>
          </path>
          <path d="M1740 402.5 L675.2765449146136 402.5 A15.5 15.5 0 0 0 675.2765449146136 434.5 L1740 434.5" fill="#fff">
            <animateTransform attributeName="transform" type="translate" dur="5s" repeatCount="indefinite" keyTimes="0;0.5;1" calcMode="spline" keySplines="0.5 0 0.5 1;0.5 0 0.5 1" values="-26.78308445246088;0;-26.78308445246088" begin="-15s"></animateTransform>
          </path>
          <path d="M758.1460726701146 402.5 L771.3701484246882 402.5 A15.5 15.5 0 0 1 771.3701484246882 434.5 L758.1460726701146 434.5 A15.5 15.5 0 0 1 758.1460726701146 402.5" fill="#fff">
            <animateTransform attributeName="transform" type="translate" dur="5s" repeatCount="indefinite" keyTimes="0;1" values="0;0" begin="-15s"></animateTransform>
            <animate attributeName="opacity" dur="5s" repeatCount="indefinite" keyTimes="0;0.3;1" values="1;1;0" begin="-15s"></animate>
          </path>
          <path d="M1740 433.5 L710.455158836303 433.5 A15.5 15.5 0 0 1 710.455158836303 465.5 L1740 465.5" fill="#fff">
            <animateTransform attributeName="transform" type="translate" dur="10s" repeatCount="indefinite" keyTimes="0;0.5;1" calcMode="spline" keySplines="0.5 0 0.5 1;0.5 0 0.5 1" values="25.92239393369722;0;25.92239393369722" begin="-16.153846153846153s"></animateTransform>
          </path>
          <path d="M1484.258472500811 433.5 L1497.516945001622 433.5 A15.5 15.5 0 0 1 1497.516945001622 465.5 L1484.258472500811 465.5 A15.5 15.5 0 0 1 1484.258472500811 433.5" fill="#000">
            <animateTransform attributeName="transform" type="translate" dur="10s" repeatCount="indefinite" keyTimes="0;1" values="0;-1699.417739171377" begin="-16.153846153846153s"></animateTransform>
            <animate attributeName="opacity" dur="10s" repeatCount="indefinite" keyTimes="0;0.3;1" values="1;1;0" begin="-16.153846153846153s"></animate>
          </path>
          <path d="M1740 464.5 L686.8873672948013 464.5 A15.5 15.5 0 0 0 686.8873672948013 496.5 L1740 496.5" fill="#fff">
            <animateTransform attributeName="transform" type="translate" dur="3.3333333333333335s" repeatCount="indefinite" keyTimes="0;0.5;1" calcMode="spline" keySplines="0.5 0 0.5 1;0.5 0 0.5 1" values="-44.77424687105781;0;-44.77424687105781" begin="-17.307692307692307s"></animateTransform>
          </path>
          <path d="M777.9696971609293 464.5 L790.382000637225 464.5 A15.5 15.5 0 0 1 790.382000637225 496.5 L777.9696971609293 496.5 A15.5 15.5 0 0 1 777.9696971609293 464.5" fill="#fff">
            <animateTransform attributeName="transform" type="translate" dur="5s" repeatCount="indefinite" keyTimes="0;1" values="0;0" begin="-17.307692307692307s"></animateTransform>
            <animate attributeName="opacity" dur="5s" repeatCount="indefinite" keyTimes="0;0.3;1" values="1;1;0" begin="-17.307692307692307s"></animate>
          </path>
          <path d="M1740 495.5 L726.8372617632141 495.5 A15.5 15.5 0 0 1 726.8372617632141 527.5 L1740 527.5" fill="#fff">
            <animateTransform attributeName="transform" type="translate" dur="5s" repeatCount="indefinite" keyTimes="0;0.5;1" calcMode="spline" keySplines="0.5 0 0.5 1;0.5 0 0.5 1" values="25.66092695567387;0;25.66092695567387" begin="-18.461538461538463s"></animateTransform>
          </path>
          <path d="M1486.7313849885968 495.5 L1502.4627699771936 495.5 A15.5 15.5 0 0 1 1502.4627699771936 527.5 L1486.7313849885968 527.5 A15.5 15.5 0 0 1 1486.7313849885968 495.5" fill="#000">
            <animateTransform attributeName="transform" type="translate" dur="10s" repeatCount="indefinite" keyTimes="0;1" values="0;-1424.5692002921678" begin="-18.461538461538463s"></animateTransform>
            <animate attributeName="opacity" dur="10s" repeatCount="indefinite" keyTimes="0;0.3;1" values="1;1;0" begin="-18.461538461538463s"></animate>
          </path>
          <path d="M1740 526.5 L691.943423881745 526.5 A15.5 15.5 0 0 0 691.943423881745 558.5 L1740 558.5" fill="#fff">
            <animateTransform attributeName="transform" type="translate" dur="10s" repeatCount="indefinite" keyTimes="0;0.5;1" calcMode="spline" keySplines="0.5 0 0.5 1;0.5 0 0.5 1" values="-43.96867144141561;0;-43.96867144141561" begin="-19.615384615384617s"></animateTransform>
          </path>
          <path d="M801.5019884535056 526.5 L831.7255512284823 526.5 A15.5 15.5 0 0 1 831.7255512284823 558.5 L801.5019884535056 558.5 A15.5 15.5 0 0 1 801.5019884535056 526.5" fill="#fff">
            <animateTransform attributeName="transform" type="translate" dur="5s" repeatCount="indefinite" keyTimes="0;1" values="0;0" begin="-19.615384615384617s"></animateTransform>
            <animate attributeName="opacity" dur="5s" repeatCount="indefinite" keyTimes="0;0.3;1" values="1;1;0" begin="-19.615384615384617s"></animate>
          </path>
          <path d="M1740 557.5 L719.2609021830013 557.5 A15.5 15.5 0 0 1 719.2609021830013 589.5 L1740 589.5" fill="#fff">
            <animateTransform attributeName="transform" type="translate" dur="3.3333333333333335s" repeatCount="indefinite" keyTimes="0;0.5;1" calcMode="spline" keySplines="0.5 0 0.5 1;0.5 0 0.5 1" values="42.85144100533638;0;42.85144100533638" begin="-20.769230769230766s"></animateTransform>
          </path>
          <path d="M1495.4110592889713 557.5 L1519.8221185779425 557.5 A15.5 15.5 0 0 1 1519.8221185779425 589.5 L1495.4110592889713 589.5 A15.5 15.5 0 0 1 1495.4110592889713 557.5" fill="#000">
            <animateTransform attributeName="transform" type="translate" dur="3.3333333333333335s" repeatCount="indefinite" keyTimes="0;1" values="0;-1599.668487617902" begin="-20.769230769230766s"></animateTransform>
            <animate attributeName="opacity" dur="3.3333333333333335s" repeatCount="indefinite" keyTimes="0;0.3;1" values="1;1;0" begin="-20.769230769230766s"></animate>
          </path>
          <path d="M1740 588.5 L699.0496066713688 588.5 A15.5 15.5 0 0 0 699.0496066713688 620.5 L1740 620.5" fill="#fff">
            <animateTransform attributeName="transform" type="translate" dur="10s" repeatCount="indefinite" keyTimes="0;0.5;1" calcMode="spline" keySplines="0.5 0 0.5 1;0.5 0 0.5 1" values="-43.90174323314983;0;-43.90174323314983" begin="-21.92307692307692s"></animateTransform>
          </path>
          <path d="M830.7665571258383 588.5 L861.3741517041241 588.5 A15.5 15.5 0 0 1 861.3741517041241 620.5 L830.7665571258383 620.5 A15.5 15.5 0 0 1 830.7665571258383 588.5" fill="#fff">
            <animateTransform attributeName="transform" type="translate" dur="5s" repeatCount="indefinite" keyTimes="0;1" values="0;0" begin="-21.92307692307692s"></animateTransform>
            <animate attributeName="opacity" dur="5s" repeatCount="indefinite" keyTimes="0;0.3;1" values="1;1;0" begin="-21.92307692307692s"></animate>
          </path>
          <path d="M1740 619.5 L740.5476641493971 619.5 A15.5 15.5 0 0 1 740.5476641493971 651.5 L1740 651.5" fill="#fff">
            <animateTransform attributeName="transform" type="translate" dur="3.3333333333333335s" repeatCount="indefinite" keyTimes="0;0.5;1" calcMode="spline" keySplines="0.5 0 0.5 1;0.5 0 0.5 1" values="40.76158083868589;0;40.76158083868589" begin="-23.07692307692308s"></animateTransform>
          </path>
          <path d="M1497.112072568575 619.5 L1523.2241451371501 619.5 A15.5 15.5 0 0 1 1523.2241451371501 651.5 L1497.112072568575 651.5 A15.5 15.5 0 0 1 1497.112072568575 619.5" fill="#000">
            <animateTransform attributeName="transform" type="translate" dur="10s" repeatCount="indefinite" keyTimes="0;1" values="0;-1615.1707353551897" begin="-23.07692307692308s"></animateTransform>
            <animate attributeName="opacity" dur="10s" repeatCount="indefinite" keyTimes="0;0.3;1" values="1;1;0" begin="-23.07692307692308s"></animate>
          </path>
          <path d="M1740 650.5 L691.6869182294171 650.5 A15.5 15.5 0 0 0 691.6869182294171 682.5 L1740 682.5" fill="#fff">
            <animateTransform attributeName="transform" type="translate" dur="10s" repeatCount="indefinite" keyTimes="0;0.5;1" calcMode="spline" keySplines="0.5 0 0.5 1;0.5 0 0.5 1" values="-35.93034737892751;0;-35.93034737892751" begin="-24.230769230769234s"></animateTransform>
          </path>
          <path d="M796.1863961168111 650.5 L824.7287770473058 650.5 A15.5 15.5 0 0 1 824.7287770473058 682.5 L796.1863961168111 682.5 A15.5 15.5 0 0 1 796.1863961168111 650.5" fill="#fff">
            <animateTransform attributeName="transform" type="translate" dur="3.3333333333333335s" repeatCount="indefinite" keyTimes="0;1" values="0;0" begin="-24.230769230769234s"></animateTransform>
            <animate attributeName="opacity" dur="3.3333333333333335s" repeatCount="indefinite" keyTimes="0;0.3;1" values="1;1;0" begin="-24.230769230769234s"></animate>
          </path>
          <path d="M1740 681.5 L717.3067634338047 681.5 A15.5 15.5 0 0 1 717.3067634338047 713.5 L1740 713.5" fill="#fff">
            <animateTransform attributeName="transform" type="translate" dur="5s" repeatCount="indefinite" keyTimes="0;0.5;1" calcMode="spline" keySplines="0.5 0 0.5 1;0.5 0 0.5 1" values="27.330949666821617;0;27.330949666821617" begin="-25.384615384615383s"></animateTransform>
          </path>
          <path d="M1508.9841352978299 681.5 L1546.9682705956598 681.5 A15.5 15.5 0 0 1 1546.9682705956598 713.5 L1508.9841352978299 713.5 A15.5 15.5 0 0 1 1508.9841352978299 681.5" fill="#000">
            <animateTransform attributeName="transform" type="translate" dur="5s" repeatCount="indefinite" keyTimes="0;1" values="0;-1230.6276442151095" begin="-25.384615384615383s"></animateTransform>
            <animate attributeName="opacity" dur="5s" repeatCount="indefinite" keyTimes="0;0.3;1" values="1;1;0" begin="-25.384615384615383s"></animate>
          </path>
          <path d="M1740 712.5 L698.4152205472061 712.5 A15.5 15.5 0 0 0 698.4152205472061 744.5 L1740 744.5" fill="#fff">
            <animateTransform attributeName="transform" type="translate" dur="10s" repeatCount="indefinite" keyTimes="0;0.5;1" calcMode="spline" keySplines="0.5 0 0.5 1;0.5 0 0.5 1" values="-36.23650325018791;0;-36.23650325018791" begin="-26.538461538461537s"></animateTransform>
          </path>
          <path d="M809.8471871979399 712.5 L831.9645894254016 712.5 A15.5 15.5 0 0 1 831.9645894254016 744.5 L809.8471871979399 744.5 A15.5 15.5 0 0 1 809.8471871979399 712.5" fill="#fff">
            <animateTransform attributeName="transform" type="translate" dur="5s" repeatCount="indefinite" keyTimes="0;1" values="0;0" begin="-26.538461538461537s"></animateTransform>
            <animate attributeName="opacity" dur="5s" repeatCount="indefinite" keyTimes="0;0.3;1" values="1;1;0" begin="-26.538461538461537s"></animate>
          </path>
          <path d="M1740 743.5 L729.979919611399 743.5 A15.5 15.5 0 0 1 729.979919611399 775.5 L1740 775.5" fill="#fff">
            <animateTransform attributeName="transform" type="translate" dur="10s" repeatCount="indefinite" keyTimes="0;0.5;1" calcMode="spline" keySplines="0.5 0 0.5 1;0.5 0 0.5 1" values="49.20546311820608;0;49.20546311820608" begin="-27.692307692307693s"></animateTransform>
          </path>
          <path d="M1496.9589350328122 743.5 L1522.9178700656244 743.5 A15.5 15.5 0 0 1 1522.9178700656244 775.5 L1496.9589350328122 775.5 A15.5 15.5 0 0 1 1496.9589350328122 743.5" fill="#000">
            <animateTransform attributeName="transform" type="translate" dur="10s" repeatCount="indefinite" keyTimes="0;1" values="0;-1176.2658054971223" begin="-27.692307692307693s"></animateTransform>
            <animate attributeName="opacity" dur="10s" repeatCount="indefinite" keyTimes="0;0.3;1" values="1;1;0" begin="-27.692307692307693s"></animate>
          </path>
          <path d="M1740 774.5 L675.9492178868059 774.5 A15.5 15.5 0 0 0 675.9492178868059 806.5 L1740 806.5" fill="#fff">
            <animateTransform attributeName="transform" type="translate" dur="5s" repeatCount="indefinite" keyTimes="0;0.5;1" calcMode="spline" keySplines="0.5 0 0.5 1;0.5 0 0.5 1" values="-29.79346264005669;0;-29.79346264005669" begin="-28.846153846153847s"></animateTransform>
          </path>
          <path d="M795.2995383868949 774.5 L822.3011891322524 774.5 A15.5 15.5 0 0 1 822.3011891322524 806.5 L795.2995383868949 806.5 A15.5 15.5 0 0 1 795.2995383868949 774.5" fill="#fff">
            <animateTransform attributeName="transform" type="translate" dur="5s" repeatCount="indefinite" keyTimes="0;1" values="0;0" begin="-28.846153846153847s"></animateTransform>
            <animate attributeName="opacity" dur="5s" repeatCount="indefinite" keyTimes="0;0.3;1" values="1;1;0" begin="-28.846153846153847s"></animate>
          </path>
        </g>
      </mask>
    </defs>
    <rect x="0" y="0" width="1440" height="789" fill="url(#ldbk-photon-hntfonimsym-lg)" mask="url(#ldbk-photon-hntfonimsym-mask)"></rect>
  </g>
</svg>