<svg xmlns="http://www.w3.org/2000/svg" viewBox="0 0 1024 1024" width="1024" height="1024"><circle cx="512" cy="512" r="512" fill="#fff845"/><path d="M207 224c-3.3 0-6.2.2-6.8.7-.5.5-.7 3.1-.7 7.3 0 5.2.2 6.9 1.1 8.3.7 1 101.3 101.9 223.5 224.2A84498.2 84498.2 0 0 1 652.8 694c3.8 4 6.8 6.9 7.4 6.7.8-.2 1-1.3 1.2-5.7l.2-5.6 2-.4c1-.2 5.4-.4 9.6-.4 6 0 7.7-.2 7.7-1 0-.4-14.4-15-32-32.2a788.8 788.8 0 0 1-31.7-32.2c.1-.4 2.1-1.7 4.5-2.9 4-1.9 8.6-5.7 11.6-9.7.7-1 1.8-1.4 3.3-1.4 3.4 0 4.2.5 6.3 4.7 1.1 2.1 3.1 4.7 4.4 5.7 3 2.5 9 5.4 13.5 6.4 3 .7 3.6.6 4.5-.3 1-1 1-1.1-.2-2-.7-.5-1.9-1-2.7-1-2.2 0-8.6-2.4-11-4.3-3.5-2.5-5-4.5-6.3-7.9-.6-1.8-1.4-3.4-1.9-3.7-.4-.3-2.4-.6-4.6-.8-3.5-.3-3.8-.5-4-1.9-.3-1.5-.2-1.5 3.4-1 3 .3 3.8.2 4.9-.7 2.4-2.2 1.2-6.6-2.8-10.4a25.5 25.5 0 0 0-9.9-5.4c-.5 0-1.8-.5-2.7-1.2-1.2-.8-4-1.4-8-2-11.3-1.2-18.6-3.9-23-8.2-2.2-2.3-4.7-7-4.7-9.2 0-1.9 3.8-5.8 6.6-7 2-.7 2.5-1.2 2.3-2.3a2 2 0 0 0-1.4-1.6c-.8 0-1.8-.6-2.3-1a29 29 0 0 0-7.7-1.6C577 551 568.9 548 564 543c-4.6-4.6-3.9-9.3 2.2-13.5 2.4-1.6 3.7-3 3.7-3.7 0-1.2-.3-1.3-8.8-.8-8.8.4-12.5-.2-12.5-1.7 0-.8 4.3-3.5 7.4-4.6 3.2-1 4.5-2.4 3.4-3.6-.9-1.1-2.6-.7-7.9 1.7-6 2.7-7.8 5.6-5.5 8.6 1.6 2 3.8 2.9 8.5 3.4 2.1.2 4 .6 4.1 1 .2.3 0 2-.5 3.6-1.2 4.4-.4 7.8 2.8 11.4a48.6 48.6 0 0 0 26 11l5.1.9 1.8.3-2.2 2.5c-2.7 3-3.3 4.8-2.7 8.6 1.5 9.7 14 17.3 31.3 18.8 2.7.2 5.9 1 7.1 1.6l6 2.9c2.5 1.1 4.3 2.5 5.3 4 3.2 4.7 1.9 5-5.3 1.8-3.6-1.7-5-2-5.7-1.6-.7.6-.6 1.3.7 3.7 2 3.6 2.1 6.3.5 6.9l-4.4.7c-4 .5-11.3 2-15.5 3-1.8.6-3.7.8-4.3.6-1-.4-211.9-210.7-326.7-326-55.2-55.5-59-59.2-61.8-59.9-2-.5-5.7-.8-9-.8zm621.2 0c-6 0-7.3.1-9.2 1.3-3.3 2-226 225.5-227.4 228.3-5.9 10.4 7 21.6 15.9 15.6L824.2 255c.8.2.9 174.8.9 174.8 0 96 0 204 .3 215.6 0 4.5 10.7 10.2 12 7.6 0 0 .3-97.8.3-214.9 0-209.9 0-212.9-1.2-213.6-.7-.3-4.4-.7-8.3-.7zM285 247c-4 0-7 1.9-8.9 5.4-2.6 5-.7 10.6 4.9 14.7 6.4 5 15.3 7 27.2 6.3 12.2-.7 23.1-3.4 42.2-10.7l9-3.3.1.9c0 .4-2 2.2-4.4 4-6.6 5-19.5 14.2-29.3 21.2-13.9 9.8-12.1 10.7 12.4 5.8 5.4-1 17.1-3.8 20.7-4.8a266 266 0 0 1 9.4-2.2l8.2-2c.5-.2 1.1 0 1.3.3.5.7.4.8-9 6.3-17.4 10.1-28.7 18.8-32.6 25-1.1 2-1.7 6.9-.8 7.8 1.2 1 2.5-.1 2.9-2.6.4-3.5 1.2-4.7 5.8-9 5.1-4.8 27.3-19.4 40-26.3l7.9-4.4c2.7-1.4 5.2-3.1 5.4-3.6.6-1.7-.8-2.4-3.5-1.6a899 899 0 0 1-61.6 14.5c-4.5.7-4-.6 2-5l11.7-8.5c9.7-7.2 28.4-22.3 28.8-23.3.2-.5 0-1.2-.4-1.7-.8-.8-2-.5-14.2 4.7-21.2 9-32.8 12.5-47.4 14.7-8.3 1.1-15.6.7-22.7-1.4-7.9-2.4-12.9-8.1-11.4-13.2 1.8-6 9.4-6.1 18-.3 4 2.7 6 3.2 6 1.4 0-1.3-.7-2-3.9-4.1a25 25 0 0 0-13.8-5zm72.8 69.7c-.8 0-1.6 0-2.3.2-7 1.3-11.5 4.9-11.5 9 0 3.2 2 4.2 8.8 4.2 3.3 0 6.2.3 6.5.5.2.3.4 1.8.3 3.4 0 1.7.4 4.5 1 6.3 2 6.3 10.3 12.5 19.6 14.7l5.4 1.3c1 .3 2.8.6 3.9.6 4.1 0 4 1-.9 4.2-7 4.7-6.4 5.5 4.2 5.8 5.8.2 7.9.5 9.5 1.4l2 1.2v7.1c0 6.8.1 7.3 2 10.4 3.4 5.5 11.7 10 21.5 11.5 1.5.3 2.7.6 2.7.8 0 .2-.8 1.3-2 2.6-1 1.1-1.9 2.6-1.9 3.1 0 2.5 5.3 5.5 10 5.5 1.1 0 2.6.3 3.3.9 1 .7 1.1 1 .4 2.5-1.2 2.7-1 7.3.7 10.2 3.2 5.8 12.9 10.8 25.6 13.2 7.7 1.4 13 1 13-1 0-1-3.5-2-6.4-2-3.7 0-11.6-1.5-16-3-9.8-3.2-15.2-8.6-14.1-14.1.4-2.2 4.2-6.3 6.6-7 1.6-.5 2.5-2.8 1.5-3.8-.4-.5-1.9-.5-4.8 0-7.2 1.4-15.9.7-15.9-1.2 0-1.1 3-3.1 6.7-4.6 3-1.1 4-1.8 4-2.7 0-1-.6-1.4-2-1.5-5-.4-15.5-2.1-18.6-3-4.6-1.4-10-5.2-11.6-8.3-1.4-2.7-1.6-5.8-.8-11.9.5-3.9.5-4-1.4-6-2-1.9-7.3-3.9-10.6-3.9-1 0-1.8-.1-1.8-.4 0-.3 1.2-1.6 2.7-2.8 2-1.7 2.6-2.6 2.2-3.5-.4-.9-.9-1-2.1-.7-1.3.3-2 0-3-.9-.6-.8-2.3-1.4-4.2-1.7-5.9-.7-12.2-2.3-16-4-10.2-4.9-13-11.8-8.4-21.1 2.3-4.7 1.7-5.5-2.7-4.3a58.8 58.8 0 0 1-12.1 2.9c-2.2 0-2.6-.1-2.8-1.3-.1-1 .5-2 2.2-3.3 2.3-1.6 2.9-1.8 8-1.8 4.4 0 6 .4 8.2 1.5 3 1.6 4.7 1.3 4.7-.6 0-2.3-7.5-4.8-13.3-4.6zm-158.3 93.1v448.6l1.4.6c2.4.9 9.3.7 10.1-.3 1.5-1.9-.2-405 1.6-405a14 14 0 0 1 4 2.5c6 5 192.8 193 196.8 195.1 3 1.5 9.4 1.9 12 .5 6-3.1 8.1-9.5 5.1-15.5-1.7-3.5-220-221.7-224.5-224.7-1.6-1-3.8-1.8-4.7-1.8zM530 436.4h-3.3c-6.5.6-12.2 3.5-14.1 7.3-1.7 3.2 1.4 4 3.6 1 3-4.2 9.5-5.8 18.2-4.6 23.8 3.4 53.5 23.2 53.5 35.8 0 4.3-3.2 7-10.7 9.5-3.3 1.1-17.7 1-22 0-10.4-2.8-24.1-9-24.1-11 0-.6 2.2-2.4 4.9-4.2 9.7-6.3 13.9-8.3 18-8.5 4-.2 5-1.2 3-3-.9-.6-2-1.1-2.7-1.1-3.5 0-12.6 4.4-22 10.7a12 12 0 0 1-2.6 1.5c-.4 0-.6-1.3-.6-2.8 0-5-3-6.4-6.5-3-2.2 2.2-2.3 3.2-.4 7l1.3 2.9-1.5 1.2c-3.6 3-12.2 7-15.8 7.5-3.8.5-4.6 1-3.6 2.6 1.4 2.2 9 .4 16.3-3.9 1.7-1 3.2-1.5 3.3-1.3.2.3 0 2.8-.6 5.6-2.3 14.5.6 24.2 8.7 28.4 2.6 1.5 3.7 1.6 8.5 1.5 6.1-.2 9.4-1.4 9.4-3.4 0-1.5-1.9-1.6-7-.3-5 1.2-8.4.4-11.7-2.8-3.4-3.3-4.9-7.6-4.9-14.3 0-5.3 1.6-15 2.7-16.2.5-.7 1.8-.4 6.7 2.4 12 6.4 21.1 9 32.8 9 9.6 0 16.5-2 20.8-5.7 6.3-5.4 5.2-13.3-3-22-13.6-14-38-25.5-54.6-25.8zm74.2 113h-.5c-3 .1-3.8 1.7-1.5 2.9 2.3 1.1 5.7 1 6.1-.3.6-1.5-1.4-2.7-4-2.7zm18.3 61.6c3.3-.2 3.8 0 4 1.1.1 1.6-4.4 4.8-9.1 6.4-1.7.6-3.3 1-3.7 1-.3 0-1.8-1.1-3.3-2.5-2.3-2.1-2.7-2.7-1.9-3.2 1.5-1 9.8-2.7 14-2.8zm270 91.3-86 .1c-105.6.2-129.8.4-130.6 1.1-.9.7-1 2-.8 7l.2 6 73 72.6c40 40 73.8 73.2 74.8 73.8a9.7 9.7 0 0 0 8.2.5c.7-.4 33.9-33.3 73.8-73 39.8-39.8 75.6-75.5 79.6-79.3 4-3.7 7.1-7 7.1-7.4 0-1-28.2-1.3-99.3-1.4zm43 5.3c19.5 0 26.3.2 26.4.6.1.4-28 29.3-63.4 64.7-35.1 35.2-64.4 64.1-65.2 64.3-.7.2-2.2-.2-3.2-.8-2.2-1.6-127.4-127.3-127.2-128a22114 22114 0 0 1 232.6-.9z"/></svg>