<svg xmlns="http://www.w3.org/2000/svg" viewBox="0 0 1024 604"><g><path fill="#A95502" d="M660.1,188.1c-0.7,13-0.4,23.8-4.7,33.9c-8,18.9-18.5,36.2-33.5,50.5c-7.3,7-14.6,13.9-22.2,20.7 c-2.6,2.3-5.8,3.9-8.8,5.7c-11.1,6.6-22.9,11.4-35.6,13.9c-5.9,1.2-11.6,3.5-17.5,4.5c-10.1,1.6-20.3,3.3-30.6,3.7 c-20.4,0.9-40-3.4-58-13.2c-6.9-3.8-13.5-8.5-19.6-13.6c-8.2-6.9-16.2-14.2-23.5-22c-7.3-7.8-14.9-15.5-19-25.8 c-3.4-8.5-7.4-16.9-10.7-25.4c-3.7-9.3-7.4-18.6-10.2-28.2c-1.6-5.7-2-11.9-2-17.9c0-8.3,0.3-16.7,1.4-24.9 c2.3-17.5,7.4-34.3,16.2-49.8c4.7-8.4,9.1-17.1,15-24.5c6.4-7.9,14.1-14.9,21.8-21.7c10.2-9.1,22.5-15,34.8-20.7 c2.5-1.2,5.3-1.5,8-2.4c9.4-3.1,18.6-6.5,28.1-9.3c4.7-1.4,9.8-1.9,14.7-2.5c8.8-1.1,17.6-2.4,26.4-2.6c6-0.2,12,0.9,17.9,2.1 c10.9,2.3,21.8,4.5,32.3,7.8c7.2,2.3,13.8,6.5,20.8,9.8c12.6,6,22.4,15.6,32.4,24.9c2.1,1.9,3.3,5,4.5,7.7c0.8,2-0.6,3.2-2.5,2.3 c-4.2-2.1-8.3-4.3-12.3-6.8c-4.8-3-9.2-6.4-14-9.4c-3.9-2.4-8-4.7-12.3-6.5c-6.6-2.8-13.2-5.7-20.1-7.6c-9.8-2.7-20-3.7-30.2-4 c-6.1-0.1-12.2-1-18.3-0.8c-6.8,0.1-13.7,0.9-20.5,1.6c-11.8,1.3-22.7,5.7-33.7,9.6c-12.4,4.3-23.2,11.1-33.3,19 c-3,2.3-5,5.9-7.3,9c-5.7,7.7-11.5,15.4-17,23.3c-3.9,5.7-8,11.4-11,17.6c-4.3,8.8-8,17.8-11.3,27c-2.2,6.1-4,12.6-4.6,19 c-0.5,6.1,0.8,12.4,1.5,18.6c0.5,4.2,0.7,8.6,2.3,12.5c3.9,9.6,8.2,19.1,12.9,28.4c2.9,5.8,6.7,11.2,10,16.8 c4.2,7.2,10.6,12.4,17.1,17.3c8.8,6.7,17.8,13.4,27.4,18.8c8.8,4.9,18.4,8.9,28.1,11.9c8.7,2.7,17.9,4.4,27,4.9 c9.4,0.5,19-0.3,28.1-4.5c8-3.7,17.1-5.3,24.7-9.6c13.1-7.5,25.6-16.3,35.3-28c7.7-9.3,16.6-17.9,20.9-29.6 c4.4-12.1,6.3-24.3,4.9-37.4c-1.1-10.2-3.9-19.6-8.8-28.2c-3.7-6.5-8.9-12.2-13.7-18c-6.4-7.7-13.6-14.7-22.3-20.1 c-3.2-2-5.9-5-9.3-6.6c-9.7-4.8-19.5-9.2-29.4-13.6c-5.7-2.5-11.8-2.9-17.8-1.7c-7.4,1.5-14.6,4.1-22,5.4 c-9.9,1.8-18.2,6.9-25.9,12.7c-9.5,7.2-18.1,15.7-22.1,27.4c-4,11.4-7.6,23-6.6,35.4c1.1,13.5,3.5,26.6,13,37.2 c2.5,2.7,5.1,5.4,8.1,7.4c12.6,8.6,26,15.4,41.7,14.8c14.6-0.5,28.3-4.9,39.7-14.2c6.1-4.9,9.7-12.1,12-19.6 c1.1-3.6,1.6-7.5,2.1-11.2c1-7-1.9-12.9-5.2-18.7c-1.2-2.1-1.9-4.4-2.6-6.8c-3.1-10.8-11.4-15.4-23.1-12.5c-2.5,0.6-4.9,2-7.3,3.2 c-4.7,2.2-14.9,2.3-19.4-3.1c-2.8-3.5-2.1-11.6,1.2-16.2c4.9-6.7,12.3-9,19.6-11c9-2.4,18.1-1.6,27.1,0.6 c10.1,2.5,16.7,9.5,22.7,17.2c6.2,8.1,10,17.6,12,27.4c1.7,8.2,1,16.9,1.1,25.3c0.1,3.7-0.2,7.4-0.9,11 c-2.7,13-10.6,22.5-20.4,31.1c-11.5,10.1-25.4,14.9-39.6,19.5c-9.1,3-18.4,4.3-27.7,4c-12.8-0.5-25.4-2.2-37-9.3 c-10.2-6.3-18-14.5-24.7-24.2c-6.2-8.9-12.2-17.9-15.7-28.3c-4.2-12.2-6.2-24.5-5.2-37.5c0.7-9.2,3.1-18,7.1-25.8 c5.3-10.3,11-20.6,19.5-28.8c4.4-4.2,8.4-8.6,12.9-12.7c2.2-2.1,4.8-4,7.6-5.3c10.6-4.9,21.3-9.9,32.2-14 c5.1-1.9,10.9-1.6,16.4-2.4c13.7-1.8,27.4-1.5,40.9,1.6c6.4,1.5,12.5,4.5,18.6,7.1c4.9,2,9.6,4.4,14.4,6.7 c14.6,6.9,27.1,16.4,38.2,28.1c8.7,9.2,16.4,19,22.2,30.2c1.9,3.7,2.7,8.2,3.2,12.5C658.4,168.6,659.2,179.5,660.1,188.1z"/></g><g><path d="M16,407.6c0-1.1,0.3-2,0.9-2.6c0.6-0.7,1.5-1,2.6-1h78.2c1.2,0,2.1,0.3,2.7,1c0.6,0.7,0.9,1.6,0.9,2.8v19.5 c0,0.9-0.3,1.7-0.9,2.6c-0.6,0.8-1.6,1.2-2.8,1.2H46.5v19.6h39.4c1,0,1.8,0.2,2.5,0.7c0.7,0.5,1,1.3,1,2.4v17 c0,0.7-0.3,1.4-0.9,2.1c-0.6,0.7-1.4,1-2.5,1H46.5v20.2h53c2.4,0,3.5,1.2,3.5,3.6v19.8c0,0.5-0.2,1-0.6,1.4 c-0.2,1.5-1.3,2.2-3.2,2.2H19.5c-1,0-1.9-0.3-2.5-0.8c-0.6-0.6-0.9-1.4-0.9-2.6V407.6z"/><path d="M119.7,407.4c0-0.9,0.3-1.8,0.9-2.4c0.6-0.7,1.5-1,2.6-1h23.3c0.9,0,1.7,0.3,2.4,0.9c0.7,0.6,1.1,1.5,1.2,2.5v85.8h43.4 c0.9,0,1.8,0.3,2.4,0.9c0.7,0.6,1,1.5,1,2.6v20.7c0,0.9-0.3,1.7-0.9,2.4c-0.6,0.7-1.5,1.1-2.6,1.2h-70.4c-2.3,0-3.5-1.2-3.5-3.5 V407.4z"/><path d="M264.8,407.6c0-1.1,0.3-2,0.9-2.6c0.6-0.7,1.5-1,2.6-1h52.4c4.6,0,9,0.9,13.1,2.6c4.1,1.8,7.7,4.2,10.8,7.3 c3.1,3.1,5.5,6.7,7.3,10.8c1.8,4.1,2.7,8.6,2.7,13.3c0,3.9-0.6,7.6-1.9,11c-1.2,3.4-3,6.4-5.2,9.1c3.8,3.5,6.8,7.6,9,12.4 c2.2,4.8,3.3,9.9,3.3,15.2c0,4.8-0.9,9.3-2.8,13.6c-1.8,4.3-4.3,8-7.5,11.3c-3.1,3.2-6.8,5.8-11,7.7c-4.2,1.9-8.6,2.8-13.2,2.8 h-57c-1.1,0-1.9-0.3-2.5-0.8c-0.6-0.6-0.9-1.4-0.9-2.6V407.6z M324.2,438.7c0-1.6-0.3-3-0.9-4.4c-0.6-1.4-1.4-2.6-2.5-3.6 c-1.1-1.1-2.3-1.9-3.8-2.5c-1.5-0.6-3.1-0.9-4.8-0.9h-16.9v22.9H312c1.8,0,3.4-0.3,4.9-0.8c1.5-0.6,2.8-1.3,3.8-2.4 c1.1-1,1.9-2.2,2.5-3.6C323.9,441.9,324.2,440.4,324.2,438.7z M328.3,484.5c0-1.6-0.3-3.2-0.9-4.7c-0.6-1.6-1.5-3-2.5-4.2 c-1.1-1.2-2.4-2.2-3.9-3c-1.5-0.8-3.1-1.2-4.9-1.2h-20.9v26.3h20.9c1.7,0,3.3-0.4,4.8-1.1c1.5-0.7,2.8-1.7,3.9-3 c1.1-1.2,2-2.6,2.6-4.2C328,487.8,328.3,486.2,328.3,484.5z"/><path d="M370.6,462.7c0-5.6,0.7-10.9,2.1-16c1.4-5.1,3.4-9.9,6.1-14.4c2.6-4.5,5.8-8.6,9.4-12.3c3.7-3.7,7.7-6.8,12.2-9.4 c4.5-2.6,9.3-4.6,14.4-6.1c5.1-1.4,10.5-2.2,16.1-2.2c5.5,0,10.9,0.7,16,2.2c5.2,1.4,10,3.5,14.4,6.1c4.5,2.6,8.5,5.7,12.2,9.4 c3.7,3.7,6.8,7.8,9.4,12.3c2.6,4.5,4.6,9.3,6.1,14.4c1.4,5.1,2.2,10.5,2.2,16c0,5.6-0.7,10.9-2.2,16c-1.4,5.1-3.5,9.9-6.1,14.4 c-2.6,4.4-5.7,8.5-9.4,12.1c-3.7,3.7-7.8,6.8-12.2,9.4c-4.5,2.6-9.3,4.7-14.4,6.1c-5.2,1.4-10.5,2.1-16,2.1 c-5.6,0-10.9-0.7-16.1-2.1c-5.1-1.4-9.9-3.4-14.4-6.1c-4.5-2.6-8.5-5.8-12.2-9.4c-3.7-3.7-6.8-7.7-9.4-12.1 c-2.6-4.4-4.7-9.2-6.1-14.4C371.3,473.6,370.6,468.3,370.6,462.7z M401.1,462.6c0,4.4,0.7,8.4,2.2,12.2c1.5,3.8,3.5,7.1,6.2,9.9 c2.7,2.8,5.8,5,9.4,6.6c3.6,1.6,7.6,2.4,12,2.4c4.4,0,8.4-0.8,12-2.4c3.6-1.6,6.8-3.8,9.5-6.6c2.7-2.8,4.7-6.1,6.2-9.9 c1.5-3.8,2.2-7.9,2.2-12.2c0-4.3-0.7-8.4-2.2-12.2c-1.5-3.8-3.5-7.1-6.2-10c-2.7-2.8-5.8-5.1-9.5-6.7c-3.6-1.6-7.7-2.4-12-2.4 c-4.4,0-8.3,0.8-12,2.4c-3.6,1.6-6.8,3.9-9.4,6.7c-2.7,2.8-4.7,6.2-6.2,10C401.9,454.2,401.1,458.3,401.1,462.6z"/><path d="M510.7,407.6c0-1.1,0.3-2,0.9-2.6c0.6-0.7,1.4-1,2.6-1h50.9c5.4,0,10.5,1,15.2,3c4.7,2,8.9,4.8,12.4,8.2 c3.5,3.5,6.3,7.5,8.3,12.2c2,4.7,3,9.6,3,14.9c0,3.6-0.5,7-1.5,10.2c-1,3.2-2.3,6.3-4.1,9.1c-1.7,2.8-3.8,5.4-6.2,7.6 c-2.4,2.3-5,4.2-7.8,5.9l20.3,38.2c0.4,0.7,0.8,1.6,1.4,2.6c0.6,1,0.9,1.9,0.9,2.6c0,0.8-0.3,1.5-0.8,1.9 c-0.6,0.4-1.3,0.7-2.2,0.7h-27c-0.9,0-1.7-0.3-2.4-0.8c-0.7-0.5-1.2-1.2-1.4-2.1l-19.2-36h-12.8v35.6c0,2.3-1.2,3.4-3.6,3.4h-23.4 c-1.1,0-1.9-0.3-2.5-0.8c-0.6-0.6-0.9-1.4-0.9-2.6V407.6z M572.4,442.6c0-1.6-0.3-3.2-0.9-4.7c-0.6-1.6-1.4-3-2.4-4.3 c-1.1-1.3-2.3-2.4-3.8-3.3c-1.5-0.9-3.1-1.5-4.9-1.7c-1.5-0.1-2.9-0.2-4.1-0.3c-1.3-0.1-2.7-0.1-4.2-0.1h-10.9v28.9h14.5 c0.9,0,1.8,0,2.5-0.1c0.7-0.1,1.5-0.1,2.4-0.2c1.8-0.2,3.5-0.7,5-1.6c1.5-0.9,2.7-1.9,3.7-3.2c1-1.3,1.8-2.7,2.3-4.3 C572.1,446,572.4,444.3,572.4,442.6z"/><path d="M621.6,407.6c0-1.1,0.3-2,0.9-2.6c0.6-0.7,1.4-1,2.6-1H676c5.4,0,10.5,1,15.2,3c4.7,2,8.9,4.8,12.4,8.2 c3.5,3.5,6.3,7.5,8.3,12.2c2,4.7,3,9.6,3,14.9c0,3.6-0.5,7-1.5,10.2c-1,3.2-2.3,6.3-4.1,9.1c-1.7,2.8-3.8,5.4-6.2,7.6 c-2.4,2.3-5,4.2-7.8,5.9l20.3,38.2c0.4,0.7,0.8,1.6,1.4,2.6c0.6,1,0.9,1.9,0.9,2.6c0,0.8-0.3,1.5-0.8,1.9 c-0.6,0.4-1.3,0.7-2.2,0.7h-27c-0.9,0-1.7-0.3-2.4-0.8c-0.7-0.5-1.2-1.2-1.4-2.1l-19.2-36h-12.8v35.6c0,2.3-1.2,3.4-3.6,3.4h-23.4 c-1.1,0-1.9-0.3-2.5-0.8c-0.6-0.6-0.9-1.4-0.9-2.6V407.6z M683.4,442.6c0-1.6-0.3-3.2-0.9-4.7c-0.6-1.6-1.4-3-2.4-4.3 c-1.1-1.3-2.3-2.4-3.8-3.3c-1.5-0.9-3.1-1.5-4.9-1.7c-1.5-0.1-2.9-0.2-4.1-0.3c-1.3-0.1-2.7-0.1-4.2-0.1h-10.9v28.9h14.5 c0.9,0,1.8,0,2.5-0.1c0.7-0.1,1.5-0.1,2.4-0.2c1.8-0.2,3.5-0.7,5-1.6c1.5-0.9,2.7-1.9,3.7-3.2c1-1.3,1.8-2.7,2.3-4.3 C683.1,446,683.4,444.3,683.4,442.6z"/><path d="M732.7,407.5c0-0.9,0.3-1.8,0.9-2.4c0.6-0.7,1.4-1,2.6-1h23.2c0.8,0,1.6,0.3,2.5,0.9c0.9,0.6,1.3,1.5,1.3,2.5v110.2 c0,2.3-1.3,3.5-3.9,3.5h-23.2c-2.3,0-3.5-1.2-3.5-3.5V407.5z"/><path d="M878,412.5c0.9,0.5,1.6,1.2,2,2.1c0.4,0.8,0.3,1.8-0.2,3l-13.3,18.9c-0.6,0.9-1.2,1.4-1.9,1.5c-0.7,0.1-1.5-0.1-2.4-0.7 c-2.6-1.9-5.4-3.4-8.5-4.5c-3.1-1.1-6.4-1.6-9.9-1.6c-4.3,0-8.3,0.8-11.9,2.4c-3.6,1.6-6.8,3.9-9.4,6.7c-2.6,2.8-4.7,6.2-6.2,9.9 c-1.5,3.8-2.2,7.8-2.2,12.1c0,4.3,0.7,8.3,2.2,12.1c1.5,3.8,3.5,7,6.2,9.9c2.6,2.8,5.8,5,9.4,6.7c3.6,1.6,7.6,2.4,11.9,2.4 c3.5,0,6.8-0.5,9.9-1.6c3.2-1.1,6-2.6,8.6-4.5c0.9-0.6,1.7-0.8,2.4-0.7c0.6,0.1,1.3,0.6,1.9,1.4l13.5,19.4 c0.6,1.2,0.7,2.1,0.2,2.9c-0.4,0.8-1.1,1.4-2,2c-4.9,3.3-10.3,5.9-16,7.7c-5.7,1.8-11.7,2.7-18,2.7c-5.6,0-10.9-0.7-16-2.1 c-5.1-1.4-9.9-3.4-14.4-6.1c-4.5-2.6-8.5-5.8-12.2-9.4c-3.7-3.7-6.8-7.7-9.4-12.1c-2.6-4.4-4.7-9.2-6.1-14.4 c-1.4-5.1-2.1-10.5-2.1-16c0-5.6,0.7-10.9,2.1-16c1.4-5.1,3.4-9.9,6.1-14.4c2.6-4.5,5.8-8.6,9.4-12.3c3.7-3.7,7.7-6.8,12.2-9.4 c4.5-2.6,9.3-4.6,14.4-6.1c5.1-1.4,10.5-2.2,16-2.2c6.3,0,12.3,0.9,17.9,2.6C867.8,406.7,873,409.2,878,412.5z"/><path d="M887.4,462.7c0-5.6,0.7-10.9,2.1-16c1.4-5.1,3.4-9.9,6.1-14.4c2.6-4.5,5.8-8.6,9.4-12.3c3.7-3.7,7.7-6.8,12.2-9.4 c4.5-2.6,9.3-4.6,14.4-6.1c5.1-1.4,10.5-2.2,16.1-2.2c5.5,0,10.9,0.7,16,2.2c5.2,1.4,10,3.5,14.4,6.1c4.5,2.6,8.5,5.7,12.2,9.4 c3.7,3.7,6.8,7.8,9.4,12.3c2.6,4.5,4.6,9.3,6.1,14.4c1.4,5.1,2.2,10.5,2.2,16c0,5.6-0.7,10.9-2.2,16s-3.5,9.9-6.1,14.4 c-2.6,4.4-5.7,8.5-9.4,12.1c-3.7,3.7-7.8,6.8-12.2,9.4c-4.5,2.6-9.3,4.7-14.4,6.1c-5.2,1.4-10.5,2.1-16,2.1 c-5.6,0-10.9-0.7-16.1-2.1c-5.1-1.4-9.9-3.4-14.4-6.1c-4.5-2.6-8.5-5.8-12.2-9.4c-3.7-3.7-6.8-7.7-9.4-12.1 c-2.6-4.4-4.7-9.2-6.1-14.4C888.1,473.6,887.4,468.3,887.4,462.7z M917.9,462.6c0,4.4,0.7,8.4,2.2,12.2c1.5,3.8,3.5,7.1,6.2,9.9 c2.7,2.8,5.8,5,9.4,6.6c3.6,1.6,7.6,2.4,12,2.4c4.4,0,8.4-0.8,12-2.4c3.6-1.6,6.8-3.8,9.5-6.6c2.7-2.8,4.7-6.1,6.2-9.9 c1.5-3.8,2.2-7.9,2.2-12.2c0-4.3-0.7-8.4-2.2-12.2c-1.5-3.8-3.5-7.1-6.2-10c-2.7-2.8-5.8-5.1-9.5-6.7c-3.6-1.6-7.7-2.4-12-2.4 c-4.4,0-8.3,0.8-12,2.4c-3.6,1.6-6.8,3.9-9.4,6.7c-2.7,2.8-4.7,6.2-6.2,10C918.6,454.2,917.9,458.3,917.9,462.6z"/></g><g><path d="M260.1,576.9l4.3,1c-0.9,3.2-2.5,5.6-4.9,7.2c-2.4,1.7-5.2,2.5-8.6,2.5c-3.5,0-6.4-0.6-8.6-1.9c-2.2-1.3-3.9-3.1-5-5.6 c-1.2-2.4-1.7-5-1.7-7.8c0-3,0.7-5.7,2-7.9c1.3-2.3,3.2-4,5.6-5.1c2.4-1.2,5-1.8,7.9-1.8c3.3,0,6,0.7,8.3,2.2 c2.2,1.5,3.8,3.6,4.7,6.3l-4.3,0.9c-0.8-2.1-1.9-3.7-3.3-4.6c-1.4-1-3.3-1.4-5.4-1.4c-2.5,0-4.6,0.5-6.3,1.6 c-1.7,1.1-2.9,2.5-3.6,4.3c-0.7,1.8-1,3.7-1,5.6c0,2.5,0.4,4.6,1.2,6.5c0.8,1.8,2.1,3.2,3.8,4.1c1.7,0.9,3.6,1.4,5.6,1.4 c2.4,0,4.5-0.6,6.2-1.9C258.4,581.2,259.5,579.4,260.1,576.9z"/><path d="M269.8,587.1V558h23.7v3.4h-19.3v8.9h18.1v3.4h-18.1v9.9h20.1v3.4H269.8z"/><path d="M300.2,587.1V558h4.4l17.2,22.9V558h4.1v29.1h-4.4l-17.2-22.9v22.9H300.2z"/><path d="M341.6,587.1v-25.7h-10.8V558h25.9v3.4h-10.8v25.7H341.6z"/><path d="M361.2,587.1V558h14.5c2.9,0,5.1,0.3,6.6,0.8c1.5,0.5,2.7,1.4,3.6,2.8c0.9,1.3,1.4,2.8,1.4,4.4c0,2.1-0.8,3.8-2.3,5.2 c-1.5,1.4-3.8,2.3-7,2.7c1.1,0.5,2,1,2.6,1.4c1.3,1,2.5,2.3,3.6,3.9l5.7,7.9h-5.4l-4.3-6.1c-1.3-1.7-2.3-3.1-3.1-4 c-0.8-0.9-1.6-1.6-2.2-1.9c-0.6-0.4-1.3-0.6-2-0.8c-0.5-0.1-1.3-0.1-2.4-0.1h-5v12.9H361.2z M365.6,570.9h9.3c2,0,3.5-0.2,4.6-0.5 c1.1-0.4,2-0.9,2.5-1.7c0.6-0.8,0.9-1.7,0.9-2.6c0-1.4-0.6-2.5-1.7-3.4c-1.1-0.9-2.9-1.3-5.3-1.3h-10.4V570.9z"/><path d="M392.8,573c0-4.8,1.5-8.6,4.4-11.3c2.9-2.7,6.7-4.1,11.3-4.1c3,0,5.7,0.6,8.2,1.9c2.4,1.3,4.3,3.1,5.5,5.4 c1.3,2.3,1.9,4.9,1.9,7.8c0,3-0.7,5.6-2,7.9c-1.3,2.3-3.2,4.1-5.7,5.3c-2.5,1.2-5.1,1.8-7.9,1.8c-3.1,0-5.8-0.7-8.3-2 c-2.4-1.3-4.3-3.1-5.5-5.4C393.5,577.9,392.8,575.5,392.8,573z M397.3,573c0,3.5,1.1,6.3,3.2,8.3c2.1,2,4.8,3,8,3 c3.3,0,5.9-1,8-3.1c2.1-2,3.2-4.9,3.2-8.7c0-2.4-0.5-4.4-1.4-6.2s-2.2-3.1-3.9-4.1c-1.7-1-3.7-1.5-5.8-1.5c-3.1,0-5.7,0.9-7.9,2.8 C398.4,565.5,397.3,568.6,397.3,573z"/><path d="M442.4,587.1V558h11.3c2.5,0,4.5,0.1,5.8,0.4c1.9,0.4,3.5,1.1,4.8,2.1c1.7,1.3,3,3,3.9,5c0.9,2,1.3,4.3,1.3,6.9 c0,2.2-0.3,4.2-0.9,5.9s-1.3,3.1-2.2,4.2c-0.9,1.1-1.9,2-3,2.6c-1.1,0.6-2.4,1.1-3.9,1.5c-1.5,0.3-3.3,0.5-5.3,0.5H442.4z  M446.7,583.7h7c2.2,0,3.8-0.2,5.1-0.5c1.2-0.4,2.2-0.9,2.9-1.5c1-0.9,1.8-2.1,2.4-3.7c0.6-1.5,0.9-3.4,0.9-5.6c0-3-0.6-5.4-1.7-7 c-1.1-1.6-2.5-2.7-4.1-3.3c-1.2-0.4-3-0.6-5.6-0.6h-6.9V583.7z"/><path d="M475.5,587.1V558h23.7v3.4h-19.3v8.9h18.1v3.4h-18.1v9.9h20.1v3.4H475.5z"/><path d="M518.8,587.1V558h22.1v3.4h-17.7v9h15.4v3.4h-15.4v13.2H518.8z"/><path d="M545.2,573c0-4.8,1.5-8.6,4.4-11.3c2.9-2.7,6.7-4.1,11.3-4.1c3,0,5.7,0.6,8.2,1.9c2.4,1.3,4.3,3.1,5.5,5.4 c1.3,2.3,1.9,4.9,1.9,7.8c0,3-0.7,5.6-2,7.9c-1.3,2.3-3.2,4.1-5.7,5.3c-2.5,1.2-5.1,1.8-7.9,1.8c-3.1,0-5.8-0.7-8.3-2 c-2.4-1.3-4.3-3.1-5.5-5.4C545.8,577.9,545.2,575.5,545.2,573z M549.7,573c0,3.5,1.1,6.3,3.2,8.3c2.1,2,4.8,3,8,3 c3.3,0,5.9-1,8-3.1c2.1-2,3.2-4.9,3.2-8.7c0-2.4-0.5-4.4-1.4-6.2s-2.2-3.1-3.9-4.1c-1.7-1-3.7-1.5-5.8-1.5c-3.1,0-5.7,0.9-7.9,2.8 C550.8,565.5,549.7,568.6,549.7,573z"/><path d="M582.1,587.1V558h14.5c2.9,0,5.1,0.3,6.6,0.8c1.5,0.5,2.7,1.4,3.6,2.8c0.9,1.3,1.4,2.8,1.4,4.4c0,2.1-0.8,3.8-2.3,5.2 c-1.5,1.4-3.8,2.3-7,2.7c1.1,0.5,2,1,2.6,1.4c1.3,1,2.5,2.3,3.6,3.9l5.7,7.9h-5.4l-4.3-6.1c-1.3-1.7-2.3-3.1-3.1-4 c-0.8-0.9-1.6-1.6-2.2-1.9c-0.6-0.4-1.3-0.6-2-0.8c-0.5-0.1-1.3-0.1-2.4-0.1h-5v12.9H582.1z M586.4,570.9h9.3c2,0,3.5-0.2,4.6-0.5 c1.1-0.4,2-0.9,2.5-1.7c0.6-0.8,0.9-1.7,0.9-2.6c0-1.4-0.6-2.5-1.7-3.4c-1.1-0.9-2.9-1.3-5.3-1.3h-10.4V570.9z"/><path d="M614.9,587.1V558h6.5l7.7,20.6c0.7,1.9,1.2,3.4,1.6,4.3c0.4-1.1,1-2.6,1.7-4.7l7.8-20.3h5.8v29.1H642v-24.4l-9.5,24.4 h-3.9l-9.5-24.8v24.8H614.9z"/><path d="M649.5,587.1l12.6-29.1h4.7l13.4,29.1h-4.9l-3.8-8.8h-13.7l-3.6,8.8H649.5z M659,575.2h11.1l-3.4-8.1 c-1-2.4-1.8-4.5-2.3-6c-0.4,1.9-1,3.7-1.8,5.6L659,575.2z"/><path d="M706.9,576.9l4.3,1c-0.9,3.2-2.5,5.6-4.9,7.2c-2.4,1.7-5.2,2.5-8.6,2.5c-3.5,0-6.4-0.6-8.6-1.9c-2.2-1.3-3.9-3.1-5-5.6 c-1.2-2.4-1.7-5-1.7-7.8c0-3,0.7-5.7,2-7.9c1.3-2.3,3.2-4,5.6-5.1c2.4-1.2,5-1.8,7.9-1.8c3.3,0,6,0.7,8.3,2.2 c2.2,1.5,3.8,3.6,4.7,6.3l-4.3,0.9c-0.8-2.1-1.9-3.7-3.3-4.6c-1.4-1-3.3-1.4-5.4-1.4c-2.5,0-4.6,0.5-6.3,1.6 c-1.7,1.1-2.9,2.5-3.6,4.3c-0.7,1.8-1,3.7-1,5.6c0,2.5,0.4,4.6,1.2,6.5c0.8,1.8,2.1,3.2,3.8,4.1c1.7,0.9,3.6,1.4,5.6,1.4 c2.4,0,4.5-0.6,6.2-1.9C705.2,581.2,706.3,579.4,706.9,576.9z"/><path d="M717.3,587.1V558h4.3v29.1H717.3z"/><path d="M728,573c0-4.8,1.5-8.6,4.4-11.3c2.9-2.7,6.7-4.1,11.3-4.1c3,0,5.7,0.6,8.2,1.9c2.4,1.3,4.3,3.1,5.5,5.4 c1.3,2.3,1.9,4.9,1.9,7.8c0,3-0.7,5.6-2,7.9c-1.3,2.3-3.2,4.1-5.7,5.3c-2.5,1.2-5.1,1.8-7.9,1.8c-3.1,0-5.8-0.7-8.3-2 c-2.4-1.3-4.3-3.1-5.5-5.4C728.6,577.9,728,575.5,728,573z M732.5,573c0,3.5,1.1,6.3,3.2,8.3c2.1,2,4.8,3,8,3c3.3,0,5.9-1,8-3.1 c2.1-2,3.2-4.9,3.2-8.7c0-2.4-0.5-4.4-1.4-6.2s-2.2-3.1-3.9-4.1c-1.7-1-3.7-1.5-5.8-1.5c-3.1,0-5.7,0.9-7.9,2.8 C733.6,565.5,732.5,568.6,732.5,573z M740.9,556.3l3-5.6h5.3l-4.9,5.6H740.9z"/><path d="M764.8,587.1V558h4.4l17.2,22.9V558h4.1v29.1h-4.4L769,564.3v22.9H764.8z"/></g></svg>