<svg xmlns="http://www.w3.org/2000/svg" width="1024" height="1024" viewBox="0 0 1024 1024"><g fill="#010101"><path id="logo-icon" d="M413.4 540.9H223.5l51.9 14.8-13.9 37.5H394zm-233.8 87.4 42.1-145.5h210.6l21-51.4H229.1l48.9-81.8 252.6.6h10c148 0 292.6.9 367.4 1.2L845.5 432l-101.1-.5h-54.8l49.6 14.3-83.3 228.7H534.3l88.5-243H501.3l63 14.9c-11.7 34.4-25 63.5-55 65.7 20.6 0 23.3 17.4 17.8 34-20 60.6-35.3 128.4-103.2 128.4h-308Z"/><g id="logo-circle"><path d="m72.5 420.6 12.2-47.7c.6-2 .3-4-.6-5.7-1-1.8-2.3-3-4.2-3.3a6.4 6.4 0 0 0-5.3 1 7.3 7.3 0 0 0-3.2 4.5L59 417.1zm-26.2-6.8 11.1-43c.5-2 .3-3.9-.6-5.6a6.4 6.4 0 0 0-4.2-3.3 6.3 6.3 0 0 0-5.3.9 7.5 7.5 0 0 0-3.3 4.6l-11 43ZM31 357.6a21.7 21.7 0 0 1 9.3-13.2c4.7-3.2 9.7-4 14.8-2.6 2.7.7 5 2 7.2 3.7 2 1.9 3.7 4 4.8 6.6a21 21 0 0 1 9.1-6.2A18.4 18.4 0 0 1 99 355a22 22 0 0 1 1.7 16.3L82 443l-68.5-17.6Z"/><path d="m80.6 308.8 22.6-42.7c1-2 1.3-4 .8-5.7-.5-2-1.7-3.4-3.4-4.2a6 6 0 0 0-5.4-.5 6.8 6.8 0 0 0-4.2 4l-22.6 42.6zm-2.7-58.2c3.2-6 8-10.2 14-12.4 6.2-2.3 12-2 17.6 1 5 2.7 8.5 6.9 10.3 12.6a26 26 0 0 1-.9 17.2l33.7-8.2-10.5 19.9-32.6 6.8L94.4 316l22.7 12-9 17.1-62.6-33z"/><path d="m157.2 208 19.1-21.5-26.5-4.3zM143 163.4l82.8 13.4-13.8 15.6-18.1-3-31.8 35.8 5 17.7-13.8 15.5-23-80.6z"/><path d="m252.8 159-76.1-32.7 18.2-13 56.8 24.8-5.2-61.8 18.2-13L271 146z"/><path d="M309.4 63.1c-1 2.1-1.2 4.2-.3 6.4l8.3 21.2a7.8 7.8 0 0 0 4.6 4.5c2.2.8 4.5.8 7-.1L369.7 79c2.4-1 4.1-2.6 5.2-4.7 1-2.1 1.1-4.3.3-6.4L367 46.8a7.5 7.5 0 0 0-4.7-4.5c-2.2-1-4.5-1-6.8.1l-41 16.1c-2.3 1-4 2.5-5 4.6M355 25.7a23 23 0 0 1 17.2-.3c5.6 2.1 9.4 5.9 11.5 11.2L394.5 64a18.9 18.9 0 0 1-.8 16 23 23 0 0 1-12.8 11.6l-51.5 20.2a23.1 23.1 0 0 1-17.2.3 19 19 0 0 1-11.5-11.2l-10.8-27.4a19 19 0 0 1 .8-16c2.7-5.4 7-9.3 12.8-11.6z"/><path d="m547.6 0 .4 15.8-36.7.8 1.3 55-19.3.5-1.3-55-36.6.9-.4-15.8z"/><path d="m582.2 34.5 47.4 9.8c2.2.5 4 .2 5.7-.8 1.6-1 2.7-2.5 3-4.4a6 6 0 0 0-1-5.3 6.8 6.8 0 0 0-5-3L585 21.1zm55.1-18.7c6.8 1.4 12 4.7 16 10 3.8 5.3 5 11 3.8 17.1a20.6 20.6 0 0 1-9.2 13.4 26 26 0 0 1-16.8 4l17.3 30-22-4.5-15.7-29.5-31.6-6.5-5.2 25.2-19-4 14.4-69.3Z"/><path d="m700.3 80.1 26 12.4-3.1-26.7zm39-26 10.1 83.2-18.8-9-2.1-18.1-43.2-20.7-15.6 9.8-18.7-9 71-44.5z"/><path d="M806.8 94.8 766.7 153l-16-11 40.1-58.3Z"/><path d="m836.4 116.6 10.5 78 34-36.2 14.2 13.3-48.5 51.6-14-13.3-10.7-78-34 36.2-14-13.3 48.4-51.6z"/><path d="m916.6 201.9-55.7 43.7-12-15.3 55.8-43.6z"/><path d="M938.3 231.6 925 309.3l43.3-24.4 9.5 16.9-61.7 34.7-9.5-16.9 13.3-77.7-43.3 24.4-9.4-16.9 61.7-34.7z"/><path d="m1012.5 417.6-15.2 4.2-18.5-67.4c-.6-2.5-2-4.4-4-5.6-2-1.3-4-1.6-6.3-1l-22 6c-2.2.6-3.8 2-5 4.1a9.6 9.6 0 0 0-.5 6.9l14 51.1 10.6-2.9-6.4-23.2 14.4-4 11.5 41.9-40.2 11-20.6-75.3c-1.7-6-1.2-11.7 1.5-17a19 19 0 0 1 12.4-10.3l28.4-7.8c5.5-1.5 10.8-.7 15.8 2.5 5.1 3.2 8.5 7.8 10.1 14z"/><path d="M60.6 583.4 4 592.2l-2.4-15.5 56.6-8.7Z"/><path d="m79.6 661.3-12.3 3.3-7.7-28.6-43 11.6-4.1-15.1 43-11.6-7.7-28.6 12.3-3.4Z"/><path d="m87.2 677-16.9 31.2-10.5-6.5 14.4-32.8Z"/><path d="M124.6 750.6a19 19 0 0 1 2.4 14.1 16 16 0 0 1-7.8 11h-.2l-7.7-13c.2-.1.3-.1.2-.2a4 4 0 0 0 2-2.8c.4-1.2.2-2.4-.6-3.6l-16.4-28.2c-.6-1.2-1.5-2-2.8-2.3a4 4 0 0 0-3.4.4c-1 .6-1.7 1.6-2 2.8-.3 1.2-.1 2.4.6 3.6a5370.7 5370.7 0 0 0 18 30.7c2.7 4.7 3.5 9.5 2.3 14.6-1 5-3.7 8.8-8 11.2-4.2 2.5-8.8 3-13.8 1.4A19.5 19.5 0 0 1 76 781l-19-32.8a20 20 0 0 1-2.5-14.5c1.1-5 3.8-8.8 8-11.3l7.4 12.7c-1.3.7-2 1.8-2.4 3.2-.3 1.5 0 2.9.7 4.2l18 30.9c.8 1.3 2 2.2 3.2 2.7a4.7 4.7 0 0 0 6.2-3.7c.3-1.4 0-2.8-.7-4l-18.5-32a19.3 19.3 0 0 1-2.4-14.1 16 16 0 0 1 7.8-11c4.1-2.3 8.5-2.8 13.2-1.2 4.7 1.5 8.5 4.4 11.3 9z"/><path d="m173.4 815.1 7 63.4 28.3-28.6 11.2 11-40.2 40.8-11.2-11-7-63.4-28.3 28.6-11.1-11 40.2-40.8z"/><path d="M229.4 885.5a6 6 0 0 0-4.4 2.8l-10.3 15.2a6.3 6.3 0 0 0-1 5.1 7.8 7.8 0 0 0 3.3 4.6l29.5 19.9a8.1 8.1 0 0 0 5.4 1.3c2-.3 3.4-1.2 4.4-2.7l10.3-15.3a6 6 0 0 0 1-5.1c-.5-2-1.5-3.4-3.3-4.5l-29.5-20a7.2 7.2 0 0 0-5.4-1.3m45.8 13.3c4.3 2.8 7 6.6 8.1 11.3 1.2 4.7.4 9-2.2 12.8l-13.3 19.8a15.3 15.3 0 0 1-11 6.8c-4.9.7-9.4-.4-13.6-3.3l-37.1-25c-4.3-2.9-7-6.7-8.1-11.4-1.2-4.7-.4-9 2.2-12.8l13.3-19.7c2.6-3.9 6.3-6.2 11-6.9 4.9-.6 9.4.4 13.6 3.3z"/><path d="m362.7 941-5.1 11.7-27.2-12-18 40.7-14.3-6.3 18-40.7-27.1-12 5.1-11.6z"/><path d="m479.2 965-2 12.6L448 973l-6.9 44-15.4-2.4 6.8-44-29.2-4.6 2-12.6z"/><path d="m500.3 964.6-2.6 57.2-15.7-.7 2.6-57.2z"/><path d="m596.4 959.6 4.5 57.1-15.6 1.3-2.9-36.2-20.7 33-13.4 1-25.8-29.2 3 36.2-15.7 1.2-4.5-57.1 16.2-1.3 32.5 37.7 26.1-42.4z"/><path d="m668.4 939.5 3.3 12.4-53.2 14.4 2.4 9 46.1-12.5 3.3 12.1-46 12.5 2.5 9.5 53.2-14.4 3.3 12.3-68.3 18.5-15-55.3z"/><path d="m774.4 885.6 6.3 11-25.8 14.8 22.2 38.7-13.6 7.7-22.1-38.6-25.7 14.7-6.4-11z"/><path d="M800.9 883.4a6 6 0 0 0 1.4 5l11.8 14a6.3 6.3 0 0 0 4.7 2.4c2 0 3.7-.6 5.3-2l27.2-22.8c1.6-1.4 2.5-3 2.8-4.9.2-2-.3-3.6-1.5-5l-11.8-14a6 6 0 0 0-4.7-2.3c-2-.2-3.7.4-5.2 1.8l-27.3 23a7.2 7.2 0 0 0-2.7 4.8m25.3-40.5c4-3.3 8.3-4.8 13.1-4.6 4.9.2 8.8 2 11.8 5.6l15.3 18.3c3 3.5 4.1 7.7 3.5 12.5-.7 4.8-3 8.8-6.9 12l-34.3 28.9c-3.9 3.3-8.2 4.8-13.1 4.6-4.8-.2-8.7-2-11.7-5.6l-15.3-18.2c-3-3.6-4.2-7.8-3.5-12.6.6-4.8 2.9-8.8 6.8-12z"/><path d="M892.1 792.1a6 6 0 0 0 2.7 4.4L910 807c1.5 1 3.2 1.4 5.1 1a7.8 7.8 0 0 0 4.6-3.2l20.1-29.4a8.2 8.2 0 0 0 1.4-5.4c-.3-2-1.2-3.4-2.7-4.4L923.3 755a6 6 0 0 0-5.1-1c-2 .4-3.5 1.5-4.6 3.2l-20.1 29.4a7.2 7.2 0 0 0-1.4 5.4m13.6-45.8c3-4.2 6.7-6.9 11.4-8 4.7-1 9-.3 12.8 2.3l19.7 13.5c3.8 2.6 6 6.3 6.7 11.1.7 4.8-.5 9.3-3.4 13.5l-2.2 3.2 13.2.5-9.5 14-13.2-.6-13.6 19.9a18.7 18.7 0 0 1-11.4 8c-4.7 1-9 .3-12.8-2.3l-19.7-13.5c-3.8-2.6-6-6.3-6.7-11.1-.6-4.8.5-9.3 3.4-13.5z"/><path d="m924.3 713.4 34.5 15.4c1.7.7 3.5.7 5.3 0 1.7-.8 3-2.2 3.8-4l13-29.2c.8-2 1-3.8.4-5.5a6.3 6.3 0 0 0-3.5-4l-34.5-15.3 6.3-14.3 37 16.5c4.3 1.9 7.2 5.1 8.7 9.7 1.5 4.6 1.3 9.2-.8 14l-16.8 37.5c-2 4.6-5.3 8-9.8 9.9-4.4 2-8.7 2-13 0l-37-16.5z"/><path d="m954.5 636 54.7 17.3-4.7 14.9-54.7-17.2z"/><path d="m972 557.8 12.5 2.5-5.8 29.1 43.7 8.6-3 15.4-43.7-8.6-5.8 29-12.5-2.4z"/><path d="M55.7 496.3a22.7 22.7 0 1 1-45.5 0 22.7 22.7 0 0 1 45.5 0"/><path d="M1012 496.3a22.7 22.7 0 1 1-45.5 0 22.7 22.7 0 0 1 45.4 0"/></g></g></svg>