<svg xmlns="http://www.w3.org/2000/svg" viewBox="0 0 512 84"><g fill="#292927"><path d="M79.8.5V22.2c-.1,24.3,0,23.1-2.5,28.2a20.2,20.2,0,0,1-8.8,8.8c-8.8,4.3-23.1,4.1-31.8-.4C31,55.9,27.2,50.1,26.2,43c-.2-1.3-.4-10.8-.4-22.4V.5H0V23.6C.2,45.5.3,46.8.9,49.8c4.3,19.8,18,30.8,41.3,33.4a172,172,0,0,0,22.7-.1C84.7,80.6,97.7,71,103.2,54.6c2.1-6.2,2.2-6.4,2.3-31.4V.5H79.8Z"/><path d="M214.3,25.5c1-3.3,1-9.1-.1-11.9-2.5-6.4-9.4-10.1-22.6-12.3-3.1-.5-7-.6-39.9-.7H115.2V82.4H141V54.1h.8l4.8-.7c15.7-2,32.1-4.6,36.1-5.6C199.7,43.3,211.1,35.3,214.3,25.5Zm-26.1-1.2c-.5,3.6-3.4,6.2-8.3,7.4-2.4.6-4.7.9-22.3,2.5l-15.3,1.5-1.3.2V18.5l18-.9,18.3-1.1c.7-.3,5.4.3,7,.9A6.2,6.2,0,0,1,188.2,24.3Z"/><path d="M302,9.1,280.1,2.8l-8-2.3H241.4L233,13.6c-4.6,7.3-13,20.3-18.5,29.1L202.2,61.8a19.5,19.5,0,0,0-1.9,3.4l13-5L226.2,55l4.2-6.1,4.1-6.2,8.8-3.4,28.2-11L291,20.7l2.5,1.2,2.7,1.2c.5.2,20.5-9.5,20.1-9.7S309.7,11.3,302,9.1ZM244.7,28c0-.1,3-4.6,6.7-9.9a99.9,99.9,0,0,1,6.9-9.6l12.2,4.3,11.7,4.1C282,17.2,244.6,28.2,244.7,28Z"/><path d="M312.1,72.1c0-7.4-.3-9.1-2.1-11.4s-7-4.6-11.6-4.6h-1.3l2.3-1.3c8.1-4.3,12-9,12.3-14.8s-.8-6.6-3.7-8.1-9-1.1-16.3,1.4-7.5,2.5-50,22.3L209.9,70.4v5.9c0,4.8,0,5.9.4,6s6.1.2,13,.3h12.4V74.7l.9-.2,8.7-1.5L263,70c14.4-2.5,19.2-2.5,21.7.3,1.2,1.2,1.6,2.9,1.6,7.2s-1.4,5,14.3,5.1,13.1.2,12-2.5C312.2,79.1,312.1,77.2,312.1,72.1ZM284.7,51.5c-.8,2.5-4.1,4.5-11,6.5l-13.5,4-16.7,5-7.7,2.3a18,18,0,0,1-.1-3.2V62.9L256,55.7,278.2,48c2.6-.6,3.9-.6,5.3-.1S285.2,49.6,284.7,51.5Z"/><path d="M403.1.7l-6.8.6c-21.3,2-47.9,8.7-73.9,18.6l-4.2,1.6v6.9c0,5.3,0,6.8.4,6.8l3.4-.8c6.3-1.7,30.5-7.8,31.3-7.8s.3,10.2.3,27.9V82.4h25.7V52.2c.1-24.9.2-30.2.5-30.2l6.4-.7c6-.6,14-1.1,23.4-1.5l5.2-.2V.5H403.1Z"/><polygon points="468.3 0.5 424.6 0.5 424.6 41.5 424.6 82.5 468.3 82.6 512 82.6 512 73 512 63.4 481 63.3 449.9 63.2 449.9 56.6 449.9 50 481 49.9 512 49.8 511.9 40.4 511.8 31.1 480.9 31 449.9 31 449.8 25 449.8 19 480.9 19 512 19 512 9.8 512 0.5 468.3 0.5"/></g></svg>