<svg xmlns="http://www.w3.org/2000/svg" viewBox="0 0 512 233"><g id="logo-clinica" fill="#154854"><path d="M222.4,105.9a25.9,25.9,0,0,1-12.7-3,20.5,20.5,0,0,1-8.3-8.7,27.4,27.4,0,0,1-3-13.2V79.3a27.9,27.9,0,0,1,2.9-12.9,21.8,21.8,0,0,1,8.1-8.9,23.9,23.9,0,0,1,12.5-3.2,30.2,30.2,0,0,1,9.6,1.5,22.4,22.4,0,0,1,8,4.4V72.3H232l-1-7.6a12.3,12.3,0,0,0-2.5-1.4,14,14,0,0,0-2.9-.9,18.7,18.7,0,0,0-3.4-.3,12.9,12.9,0,0,0-7.4,2.1,13.9,13.9,0,0,0-4.7,5.9,23.1,23.1,0,0,0-1.6,9.1V81a23.1,23.1,0,0,0,1.7,9.1,14,14,0,0,0,4.9,6,13.2,13.2,0,0,0,7.5,2.1,22,22,0,0,0,4.4-.5,23.4,23.4,0,0,0,4-1.3l1-7h7.5v11.9a29.1,29.1,0,0,1-7.3,3.3A33.7,33.7,0,0,1,222.4,105.9Z"/><path d="M243.8,105.2v-6l4.8-1.1V58.6l-5.3-1.1v-6h15.4V98.1l4.8,1.1v6Z"/><path d="M266.5,105.2v-6l4.9-1.1V75L266,74V67.9h15.4V98.1l4.9,1.1v6Zm3.7-44.3,6.9-9.4h10.6v.2l-9.5,9.2h-8.1Z"/><path d="M289.2,105.2v-6l4.8-1.1V75l-5.3-1V67.9h14.7l.5,5.4a13.2,13.2,0,0,1,4.6-4.5,12.7,12.7,0,0,1,6.2-1.6,11,11,0,0,1,8.7,3.6c2.1,2.4,3.1,6.1,3.1,11.1V98.1l4.9,1.1v6H312.1v-6l4.3-1.1V81.9c0-2.5-.5-4.2-1.4-5.3a6.1,6.1,0,0,0-4.5-1.5,7.2,7.2,0,0,0-3.7.9,6.7,6.7,0,0,0-2.7,2.6V98.1l4.1,1.1v6Z"/><path d="M334.3,105.2v-6l4.9-1.1V75l-5.4-1V67.9h15.4V98.1l4.9,1.1v6ZM338.8,60V51.5h10.4V60Z"/><path d="M374.9,105.9a17.3,17.3,0,0,1-9.2-2.4,15.2,15.2,0,0,1-6.1-6.7,21.3,21.3,0,0,1-2.1-9.7v-1a20.8,20.8,0,0,1,2.2-9.8,16,16,0,0,1,6-6.6,16.5,16.5,0,0,1,9.2-2.5,22.4,22.4,0,0,1,8.6,1.6,20.5,20.5,0,0,1,5.9,3.6V83.1h-7.6l-1.4-6.6a5.5,5.5,0,0,0-2.1-1.4,7.6,7.6,0,0,0-7.1.9,8.1,8.1,0,0,0-2.7,3.9,18.9,18.9,0,0,0-.9,6.2v1a16,16,0,0,0,1,6.3,8,8,0,0,0,2.7,3.6,6.1,6.1,0,0,0,3.7,1.2,6.5,6.5,0,0,0,4.3-1.4,7.4,7.4,0,0,0,2.2-3.9h8.6v.2a17.7,17.7,0,0,1-2.4,6.8,11.3,11.3,0,0,1-4.9,4.5A18.4,18.4,0,0,1,374.9,105.9Z"/><path d="M407.2,105.9a12.8,12.8,0,0,1-8.9-3c-2.2-1.9-3.2-4.6-3.2-8.1a9.8,9.8,0,0,1,1.9-6.1,11.7,11.7,0,0,1,5.6-4.2,25,25,0,0,1,9.2-1.5h5V80.2a5.7,5.7,0,0,0-6.3-6,8.5,8.5,0,0,0-2.9.4,7,7,0,0,0-2.3,1.1l-.8,4.9h-7.3V71a32.3,32.3,0,0,1,6.3-2.7,25.8,25.8,0,0,1,7.6-1.1c4.9,0,8.8,1.2,11.6,3.4s4.2,5.5,4.2,9.7V97.2c.1.5.1,1,.2,1.4l3.9.6v6H418.4c-.3-.6-.5-1.3-.8-2.1a14.2,14.2,0,0,1-.5-2.2,14.7,14.7,0,0,1-4.2,3.7A12,12,0,0,1,407.2,105.9Zm2.6-7.4a7.9,7.9,0,0,0,4-1,6.8,6.8,0,0,0,3-2.5V89.1h-5a7.3,7.3,0,0,0-5,1.6,4.8,4.8,0,0,0-1.7,3.6,3.9,3.9,0,0,0,1.2,3.1A5.4,5.4,0,0,0,409.8,98.5Z"/></g><g fill="#00a79d"><g id="logo-martinez"><path d="M198.4,165v-6l5.4-1V122l-5.4-1.1v-6h20.3l13.6,35h.2l13.3-35H266v6l-5.3,1.1v36l5.3,1v6H245.3v-6l5.6-1V125.7h-.2l-15,38.7h-7.6L212.9,126h-.2l.6,21.3V158l5.9,1v6Z"/><path d="M282.3,165.8a12.5,12.5,0,0,1-8.8-3,10.4,10.4,0,0,1-3.3-8.1,10.8,10.8,0,0,1,1.9-6.2,12.5,12.5,0,0,1,5.7-4.2,25,25,0,0,1,9.2-1.5h4.9v-2.7a6.3,6.3,0,0,0-1.5-4.4,6.3,6.3,0,0,0-4.7-1.7,11.9,11.9,0,0,0-2.9.4,9,9,0,0,0-2.4,1.2l-.8,4.9h-7.2v-9.7a29.9,29.9,0,0,1,6.3-2.7,25.9,25.9,0,0,1,7.6-1c4.9,0,8.7,1.1,11.6,3.4s4.2,5.5,4.2,9.7V157c0,.5.1,1,.1,1.5l3.9.5v6H293.6c-.3-.6-.5-1.3-.8-2s-.4-1.5-.6-2.2a13.2,13.2,0,0,1-4.2,3.6A11.5,11.5,0,0,1,282.3,165.8Zm2.7-7.5a9.3,9.3,0,0,0,4-.9,8,8,0,0,0,2.9-2.5V149H287a7.3,7.3,0,0,0-5,1.5,4.5,4.5,0,0,0-1.7,3.7,3.8,3.8,0,0,0,1.2,3A4.9,4.9,0,0,0,285,158.3Z"/><path d="M310.4,165v-6l4.8-1V134.9l-5.3-1.1v-6h14.7l.3,4.6v.8a12.8,12.8,0,0,1,3.4-4.6,8.1,8.1,0,0,1,4.9-1.5h1.9l1.9.4-1,9.3-5-.3a7.3,7.3,0,0,0-3.5.7,7.6,7.6,0,0,0-2.3,2.4V158l4.8,1v6Z"/><path d="M355.6,165.8c-3.5,0-6.1-1-8-2.9s-2.8-4.9-2.8-9.1v-19h-5.1v-7h5.1v-9.2h10v9.2h6.9v7h-6.9v19a4.3,4.3,0,0,0,.9,3.1,3.5,3.5,0,0,0,2.5.9H360l1.7-.2.8,7.2-3.3.8Z"/><path d="M366,165v-6l4.8-1V134.9l-5.3-1.1v-6h15.4V158l4.8,1v6Zm3.7-44.3,6.9-9.4h10.6v.2l-9.5,9.2h-8.1Z"/><path d="M388.7,165v-6l4.8-1V134.9l-5.3-1.1v-6h14.7l.4,5.3a13.7,13.7,0,0,1,4.6-4.4,12.1,12.1,0,0,1,6.3-1.6,11.2,11.2,0,0,1,8.7,3.5c2.1,2.4,3.1,6.1,3.1,11.2V158l4.8,1v6H411.6v-6l4.3-1V141.8c0-2.5-.5-4.3-1.5-5.3a5.5,5.5,0,0,0-4.4-1.6,7.9,7.9,0,0,0-3.8.9,8.1,8.1,0,0,0-2.6,2.6V158l4,1v6Z"/><path d="M451.6,165.8a17.4,17.4,0,0,1-9.3-2.4,15.5,15.5,0,0,1-6.2-6.5,19.2,19.2,0,0,1-2.2-9.4v-1.4a21.7,21.7,0,0,1,2.1-9.8,15.5,15.5,0,0,1,5.8-6.8,16.2,16.2,0,0,1,8.9-2.4,16,16,0,0,1,8.5,2,12,12,0,0,1,5.2,5.7,21.1,21.1,0,0,1,1.8,9.1v5.5H444.3v.2a10.7,10.7,0,0,0,1.2,4.4,8.3,8.3,0,0,0,2.9,3,8.8,8.8,0,0,0,4.5,1.1,17,17,0,0,0,5.1-.8,17.5,17.5,0,0,0,4.7-2l2.7,6.2a19.7,19.7,0,0,1-5.8,3A22,22,0,0,1,451.6,165.8Zm-7.2-23h12.4v-.9a11.6,11.6,0,0,0-.6-4,5.3,5.3,0,0,0-1.9-2.5,5.9,5.9,0,0,0-3.4-.9,5.3,5.3,0,0,0-3.4,1.1,7.8,7.8,0,0,0-2.2,2.8,17.2,17.2,0,0,0-1,4.2Z"/><path d="M471.8,165v-5.9l19.3-24.3h-10l-1.1,6.4h-7.4V127.8h30.6v6.4l-18.3,23.6h10.6l1.4-6.8H504v14Z"/></g><g id="logo-marcos"><path d="M198.4,224.1v-6l5.4-1v-36l-5.4-1.1v-6h20.3l13.6,34.9h.2L245.8,174H266v6l-5.3,1.1v36l5.3,1v6H245.3v-6l5.6-1V184.8h-.2l-15,38.6h-7.6l-15.3-38.3h-.2l.6,21.3v10.7l5.9,1v6Z"/><path d="M282.3,224.8c-3.7,0-6.6-.9-8.8-2.9a10.4,10.4,0,0,1-3.3-8.1,10.8,10.8,0,0,1,1.9-6.2,12.5,12.5,0,0,1,5.7-4.2,25,25,0,0,1,9.2-1.5h4.9v-2.8a5.6,5.6,0,0,0-6.2-6,8.5,8.5,0,0,0-2.9.4,8.8,8.8,0,0,0-2.4,1.1l-.8,5h-7.2v-9.7a29.9,29.9,0,0,1,6.3-2.7,25.9,25.9,0,0,1,7.6-1c4.9,0,8.7,1.1,11.6,3.3s4.2,5.5,4.2,9.7v16.9c0,.5.1,1,.1,1.4l3.9.6v6H293.6a11.9,11.9,0,0,1-.8-2c-.3-.8-.4-1.5-.6-2.2a13.2,13.2,0,0,1-4.2,3.6A11.4,11.4,0,0,1,282.3,224.8Zm2.7-7.4a9.3,9.3,0,0,0,4-.9,8,8,0,0,0,2.9-2.5v-5.9H287a7.3,7.3,0,0,0-5,1.5,4.4,4.4,0,0,0-1.7,3.6,3.9,3.9,0,0,0,1.2,3.1A5.4,5.4,0,0,0,285,217.4Z"/><path d="M310.4,224.1v-6l4.8-1V193.9l-5.3-1v-6.1h14.7l.3,4.7v.8a12,12,0,0,1,3.4-4.6,8.1,8.1,0,0,1,4.9-1.5h1.9l1.9.4-1,9.3-5-.3a6.3,6.3,0,0,0-3.5.7,7.6,7.6,0,0,0-2.3,2.4v18.3l4.8,1v6Z"/><path d="M357,224.8a17.4,17.4,0,0,1-9.3-2.4,16,16,0,0,1-6-6.6,22.1,22.1,0,0,1-2.1-9.8v-1a20.8,20.8,0,0,1,2.2-9.8,16,16,0,0,1,6-6.6,17,17,0,0,1,9.2-2.4,22.4,22.4,0,0,1,8.6,1.5,22.1,22.1,0,0,1,5.9,3.7V202h-7.6l-1.4-6.6a5.5,5.5,0,0,0-2.1-1.4,7.5,7.5,0,0,0-2.6-.5,7.3,7.3,0,0,0-4.5,1.4,8.1,8.1,0,0,0-2.7,3.9,18.9,18.9,0,0,0-.9,6.2v1a16,16,0,0,0,1,6.3,7.5,7.5,0,0,0,2.6,3.7,7.3,7.3,0,0,0,3.8,1.1,5.6,5.6,0,0,0,4.2-1.4,6.9,6.9,0,0,0,2.3-3.9h8.5v.2a17.1,17.1,0,0,1-2.3,6.9,11.1,11.1,0,0,1-4.9,4.4A18.4,18.4,0,0,1,357,224.8Z"/><path d="M394.5,224.8a17.8,17.8,0,0,1-9.4-2.4,15.2,15.2,0,0,1-6.1-6.7,21.7,21.7,0,0,1-2.1-9.8v-.8a22.1,22.1,0,0,1,2.1-9.8,15.6,15.6,0,0,1,6-6.7,18.1,18.1,0,0,1,9.5-2.4,17.5,17.5,0,0,1,9.4,2.4,15.2,15.2,0,0,1,6.1,6.7,21.7,21.7,0,0,1,2.1,9.8v.8a21.7,21.7,0,0,1-2.1,9.8,15.2,15.2,0,0,1-6.1,6.7A17.5,17.5,0,0,1,394.5,224.8Zm0-7.7a6,6,0,0,0,4.3-1.4,8.5,8.5,0,0,0,2.5-3.9,21,21,0,0,0,.8-5.9v-.8a20.3,20.3,0,0,0-.8-5.8,9.5,9.5,0,0,0-2.5-4,6.7,6.7,0,0,0-4.3-1.4,6.5,6.5,0,0,0-4.3,1.4,9.5,9.5,0,0,0-2.5,4,20.5,20.5,0,0,0-.7,5.8v.8a21.2,21.2,0,0,0,.7,5.9,8.5,8.5,0,0,0,2.5,3.9A6.2,6.2,0,0,0,394.5,217.1Z"/><path d="M432.5,224.8a38,38,0,0,1-7.7-.7,39.9,39.9,0,0,1-6.9-2.3V211.2h7l1.3,5.4a10,10,0,0,0,2.6.9,10.4,10.4,0,0,0,3.2.4,7.9,7.9,0,0,0,4.7-1.1A3.7,3.7,0,0,0,438,214a3.4,3.4,0,0,0-1.5-2.7c-1-.8-2.9-1.5-5.8-2.1s-7.7-2.3-9.8-4.3a9.5,9.5,0,0,1-3.1-7.4,10.1,10.1,0,0,1,1.6-5.6,10.3,10.3,0,0,1,4.8-4.1,17.9,17.9,0,0,1,8.2-1.6,36.4,36.4,0,0,1,7.7.8,25.1,25.1,0,0,1,5.9,2.2v10.1h-7l-1-4.8a9.1,9.1,0,0,0-2.2-1.1,12.9,12.9,0,0,0-2.9-.3,6.6,6.6,0,0,0-4,1,3.5,3.5,0,0,0-1.5,2.8,4.1,4.1,0,0,0,.5,1.8,4.7,4.7,0,0,0,2,1.5,19.7,19.7,0,0,0,4.3,1.4c4.7,1.1,8,2.5,10.1,4.2a9.3,9.3,0,0,1,3.2,7.4,10.5,10.5,0,0,1-3.8,8.4C441.3,223.8,437.5,224.8,432.5,224.8Z"/></g></g><g id="logo-check"><path d="M145.9,224.8H45.1C24.7,224.8,8,208.3,8,188.1V88.2C8,68,24.7,51.5,45.1,51.5H145.9A36.9,36.9,0,0,1,183,88.2v99.9A36.9,36.9,0,0,1,145.9,224.8Z" fill="#00a79d"/><path d="M45.1,62.6A25.8,25.8,0,0,0,19.2,88.2v99.9a25.8,25.8,0,0,0,25.9,25.6H145.9a25.8,25.8,0,0,0,25.9-25.6V88.2a25.8,25.8,0,0,0-25.9-25.6Z" fill="#fff"/><path id="logo-mark" d="M232,8.2,222.4,13C172,38.4,116.2,97.1,85.6,146.8c-3-5.5-3.9-7.3-6.7-13.4C67.1,112.2,50.9,93.3,43,86L28.7,89.9l.3.9c8.1,11.3,21.5,36,39.8,88.9a59.2,59.2,0,0,0,4.2,6.8c4.2,5.8,9,7.6,12.3,8,9.5,1.2,16.1-5.5,21-13.7,36.8-88,103.8-143.3,132-161.5Z" fill="#154854"/></g></svg>