<svg xmlns="http://www.w3.org/2000/svg" viewBox="0 0 512 130"><g id="logo-lopez" fill="#1d1d1b"><path d="M20,22.8H48.8V24h-8V83.9H55.2c7.6,0,16.2-4.9,19.2-18.5h1.1V85.1H20V83.9h8.1V24H20Z"/><path d="M120.1,66.3c0,10.9-9.3,20.1-21.4,20.1S77.4,77.2,77.4,66.3s9.3-19.9,21.3-19.9S120.1,55.5,120.1,66.3Zm-11.8,0c0-9.4-.5-18.7-9.6-18.7s-9.5,9.3-9.5,18.7.4,18.8,9.5,18.8S108.3,75.8,108.3,66.3Zm-5.6-42.9c.6-1.2,1.4-2.7,3.7-2.7s2.8.9,2.8,2.6a3.4,3.4,0,0,1-.7,2.4L96.1,38.8H95Z"/><path d="M124.2,48.8h-5.8V47.6h16.3v6.5h.2c1.8-5.1,5.3-7.7,10.3-7.7,13.5,0,19.1,11.8,19.1,19.9,0,10.4-7.7,20.1-19.1,20.1-5.3,0-8.5-3.4-10.1-7.6h-.2v29.6h6v1.3H118.4v-1.3h5.8Zm21,36.3c6.5,0,7.3-7.3,7.3-18.7,0-14.1-2-18.8-8-18.8-8.6,0-9.6,11-9.6,18.8S135.4,85.1,145.2,85.1Z"/><path d="M179.4,63.2v3.9c0,8.3.7,18,11.1,18a13.4,13.4,0,0,0,13-10.1l1.2.4c-1.2,4.3-5.4,11-15.5,11-12.2,0-21.6-7.7-21.6-20.2,0-10,9-19.8,20.4-19.8,8,0,17.2,4.9,17.2,16.8Zm14-1.3V56.1c0-2.5,0-8.5-5.7-8.5-7.9,0-8.1,8.4-8.3,14.3Z"/><path d="M228.6,48.8h-7.8c-6.3,0-8.5,3.1-11.2,9.2h-1l1.3-10.4h31.3L220,83.9h10.7c7.3,0,9.1-5.5,10.8-10.8h1l-1,12H207.3Z"/></g><g id="logo-del" fill="#1d1d1b"><path d="M269.3,78.4a21.5,21.5,0,0,0-1.2,5,1.3,1.3,0,0,0,1.2,1.4h.2c2.8,0,4.5-3.8,4.9-4.7l.7.4c-.7,1.6-2.8,5.3-6.8,5.3-2.3,0-3.5-1.1-3.5-3.2a15.9,15.9,0,0,1,.6-3h-.1c-1.9,2.4-5.1,6.2-9.7,6.2-2.9,0-5.7-2.1-5.7-6.8,0-8.6,11.1-17.4,16.6-17.4,2.2,0,3.9,1.3,3.9,3.3h.1l6.9-19.5h-4.7l.2-.7h8.5Zm-.4-9.1a12,12,0,0,0,1-3.7,3,3,0,0,0-2.8-3.2h-.3c-7.1,0-13.2,12.9-13.2,18.9,0,2.2.8,3.8,2.9,3.8,4.1,0,8.9-6,9.6-8Z"/><path d="M294.5,79.9c-.7,1-3.3,5.9-9.3,5.9s-8.3-4.5-8.3-8c0-7.1,7.5-16.2,14.9-16.2,2.8,0,5.9,1.2,5.9,4,0,5.8-10.3,7.1-12.5,7.1l-3.2-.2a18.1,18.1,0,0,0-1.4,6.9c0,3.8,2.2,5.7,5.3,5.7s6.9-4.1,8-5.6Zm-2.8-17.5c-4.6,0-8.2,5.6-9.5,9.3l2.7.2c5.1,0,9.5-3.3,9.5-7a2.4,2.4,0,0,0-2.3-2.5Z"/><path d="M315.1,44.7,302.5,80.3a11.6,11.6,0,0,0-.8,3.2c0,.9.4,1.6,1.5,1.6s4.5-3.6,5-4.8l.6.3c-.5,1.1-2.3,5.2-6.6,5.2-2.3,0-3.8-.9-3.8-3.2a13.7,13.7,0,0,1,.9-4l11.9-33.2h-4.7l.2-.7Z"/></g><g id="logo-amo" fill="#1d1d1b"><path d="M313.5,83.9H321l26.1-63.6h2.3L377,83.9h7.5v1.2H355.1V83.9h8.2L353.1,60.4h-21l-9.7,23.5h7.8v1.2H313.5Zm28.8-48.6-9.8,23.9h20.2Z"/><path d="M383.7,47.6H400v6.2h.1a13.2,13.2,0,0,1,12.2-7c8.2,0,10.5,3.8,12.3,7a13,13,0,0,1,11.8-7c13.3,0,13.3,9,13.3,13.2V83.9h5.8v1.2H433.8V83.9H439V56.8c0-4.9-1.7-7.6-5.9-7.6a8.9,8.9,0,0,0-8.2,8.9V83.9h5.2v1.2H409V83.9h5.2V56.1c0-5.1-2.6-6.9-5.3-6.9a8.4,8.4,0,0,0-6.1,3c-2,2.3-2.7,4.6-2.7,10.3V83.9h5.2v1.2H383.7V83.9h5.7V48.8h-5.7Z"/><path d="M496,66.3c0,10.9-9.3,20.1-21.4,20.1s-21.3-9.2-21.3-20.1,9.3-19.9,21.3-19.9S496,55.5,496,66.3Zm-11.8,0c0-9.4-.5-18.7-9.6-18.7s-9.5,9.3-9.5,18.7.4,18.8,9.5,18.8S484.2,75.8,484.2,66.3Z"/></g></svg>