<svg xmlns="http://www.w3.org/2000/svg" viewBox="0 0 512 232"><g class="animation" fill="#53552b"><g class="logo-myc"><path d="m10.947 229.055-9.604-19.171H0v21.893h1.69v-17.452l8.725 17.452h1.033l8.72-17.452v17.452h1.725v-21.893h-1.379zM36.37 209.884l-9.317 21.893h1.814l1.97-4.566H43.03l1.97 4.566h1.85l-9.353-21.893zm-4.817 15.638 5.384-12.606 5.378 12.606zM71.965 231.777l-8.637-10.07h1.725c3.247 0 5.909-2.661 5.909-5.914 0-3.253-2.662-5.91-5.909-5.91H52.041v21.894h1.69v-10.07h7.377l8.6 10.07zM53.73 211.603h11.323c2.31 0 4.22 1.88 4.22 4.19 0 2.316-1.91 4.196-4.22 4.196H53.73ZM94.822 231.777h2.256l-9.352-10.947 9.352-10.946h-2.256l-15.978 18.765v-18.765h-1.689v21.893h1.218l8.224-9.634zM121.19 211.603v-1.72h-18.921v21.894h18.92v-1.69h-17.231v-8.38h11.131v-1.718h-11.131v-8.386zM135.014 231.777h1.689v-20.174h8.63v-1.72h-18.92v1.72h8.6zM152.246 231.777v-21.893h-1.689v21.893zM157.469 209.884v21.893h1.689V213.04l15.978 18.736h1.254v-21.893h-1.69v18.765l-16.014-18.765zM192.524 231.777c2.286 0 4.476-.686 6.32-1.97v1.97h1.69v-11.788h-9.449v1.719h7.76v5.909c-3.63 3.378-9.323 3.283-12.857-.221-3.593-3.623-3.593-9.472 0-13.101 3.63-3.6 9.478-3.6 13.077 0l1.218-1.188a10.908 10.908 0 0 0-7.76-3.223c-2.906 0-5.657 1.158-7.723 3.223-4.285 4.25-4.285 11.197 0 15.483a10.878 10.878 0 0 0 7.724 3.187zM226.865 223.206l-8.13-13.322h-1.969l9.257 15.166v6.727h1.72v-6.727L237 209.884h-1.97zM256.42 228.59a10.878 10.878 0 0 0 7.723 3.187c2.943 0 5.694-1.128 7.76-3.187l-1.188-1.194a9.305 9.305 0 0 1-13.107 0c-1.75-1.749-2.686-4.095-2.686-6.566 0-2.47.937-4.786 2.686-6.535a9.305 9.305 0 0 1 13.107 0l1.187-1.188a10.908 10.908 0 0 0-7.759-3.223c-2.907 0-5.658 1.158-7.723 3.223a10.853 10.853 0 0 0-3.188 7.723c0 2.943 1.123 5.694 3.188 7.76zM288.006 231.777c6.04 0 10.946-4.912 10.946-10.947 0-6.034-4.906-10.946-10.946-10.946-6.005 0-10.91 4.912-10.91 10.946 0 6.035 4.905 10.947 10.91 10.947zm0-20.174c5.133 0 9.257 4.13 9.257 9.227a9.235 9.235 0 0 1-9.257 9.258c-5.097 0-9.222-4.13-9.222-9.258 0-5.097 4.125-9.227 9.222-9.227zM315.094 229.055l-9.603-19.171h-1.343v21.893h1.69v-17.452l8.725 17.452h1.033l8.72-17.452v17.452h1.725v-21.893h-1.379zM340.643 231.777c5.223 0 9.478-4.22 9.478-9.443v-12.45h-1.689v12.45c0 4.28-3.503 7.754-7.789 7.754a7.753 7.753 0 0 1-7.753-7.754v-12.45h-1.69v12.45a9.433 9.433 0 0 0 9.443 9.443zM355.345 209.884v21.893h1.689V213.04l15.978 18.736h1.254v-21.893h-1.69v18.765l-16.013-18.765zM381.178 231.777v-21.893h-1.689v21.893zM389.588 228.59a10.878 10.878 0 0 0 7.723 3.187c2.943 0 5.695-1.128 7.76-3.187l-1.188-1.194a9.305 9.305 0 0 1-13.107 0c-1.749-1.749-2.686-4.095-2.686-6.566 0-2.47.937-4.786 2.686-6.535a9.305 9.305 0 0 1 13.107 0l1.188-1.188a10.908 10.908 0 0 0-7.76-3.223c-2.906 0-5.658 1.158-7.723 3.223a10.853 10.853 0 0 0-3.187 7.723c0 2.943 1.122 5.694 3.187 7.76zM419.58 209.884l-9.316 21.893h1.814l1.97-4.566h12.194l1.97 4.566h1.85l-9.353-21.893zm-4.816 15.638 5.384-12.606 5.377 12.606zM438.44 228.59a10.878 10.878 0 0 0 7.723 3.187c2.942 0 5.694-1.128 7.76-3.187l-1.189-1.194a9.305 9.305 0 0 1-13.107 0c-1.749-1.749-2.686-4.095-2.686-6.566 0-2.47.937-4.786 2.686-6.535a9.305 9.305 0 0 1 13.107 0l1.188-1.188a10.908 10.908 0 0 0-7.76-3.223c-2.906 0-5.657 1.158-7.723 3.223a10.853 10.853 0 0 0-3.187 7.723c0 2.943 1.122 5.694 3.187 7.76zM460.804 231.777v-21.893h-1.69v21.893zM478.752 202.817l-1.528-.722-2.036 4.536 1.534.686zm-1.815 7.067c-6.004 0-10.91 4.912-10.91 10.946 0 6.035 4.906 10.947 10.91 10.947 6.04 0 10.947-4.912 10.947-10.947 0-6.034-4.906-10.946-10.947-10.946zm0 20.204c-5.097 0-9.221-4.13-9.221-9.258 0-5.097 4.124-9.227 9.221-9.227 5.133 0 9.258 4.13 9.258 9.227a9.235 9.235 0 0 1-9.258 9.258zM493.08 209.884v21.893h1.688V213.04l15.979 18.736H512v-21.893h-1.69v18.765l-16.013-18.765zm0 0"/></g><g class="logo-limon"><path d="m125.581 167.213 5.133-1.29v-54.887l-5.133-1.29v-1.265h11.15c5.139 0 7.711 2.572 7.711 7.711v49.731l5.133 1.29v1.289h-23.994zM154.736 167.213l5.133-1.29v-37.722l-5.133-1.289v-1.289h11.15c5.138 0 7.71 2.572 7.71 7.712v32.588l5.134 1.29v1.289h-23.994zm11.15-46.747c-1.72 0-3.152-.561-4.298-1.695-1.146-1.146-1.72-2.579-1.72-4.297 0-1.72.574-3.14 1.72-4.274 1.146-1.146 2.578-1.719 4.297-1.719 1.701 0 3.128.573 4.274 1.719 1.146 1.134 1.719 2.555 1.719 4.274 0 1.718-.573 3.151-1.72 4.297-1.145 1.134-2.572 1.695-4.273 1.695zM183.89 167.213l5.133-1.29v-37.722l-5.133-1.289v-1.289h7.712c3.372 0 6.028 1.086 7.974 3.247.746.86 1.373 1.922 1.886 3.175.86-1.587 1.773-2.87 2.746-3.844 2.578-2.578 5.52-3.867 8.833-3.867 3.307 0 6.22.734 8.738 2.196 2.513 1.45 4.465 3.432 5.85 5.945.841-1.653 1.754-2.99 2.745-4.01 2.626-2.752 5.569-4.131 8.834-4.131 3.02 0 5.742.632 8.165 1.886 2.435 1.26 4.321 2.978 5.658 5.157a13.203 13.203 0 0 1 2.03 7.114v27.432l5.157 1.29v1.289h-11.15c-5.157 0-7.735-2.567-7.735-7.712v-22.299c0-3.724-.573-6.505-1.72-8.356-1.133-1.862-2.41-2.793-3.843-2.793-1.66 0-3.343 1.146-5.061 3.438a25.891 25.891 0 0 0-1.815 3.414v31.73l5.157 1.289v1.289h-24.018v-1.29l5.157-1.289v-27.432c0-3.724-.573-6.505-1.719-8.356-1.146-1.862-2.435-2.793-3.868-2.793-1.659 0-3.342 1.146-5.061 3.438a23.804 23.804 0 0 0-1.79 3.414v31.73l5.132 1.289v1.289H183.89Zm0 0"/><g class="logo-o"><path d="M288.08 169.791c-7.102 0-12.665-2.011-16.688-6.04-4.029-4.041-6.04-9.604-6.04-16.689 0-7.078 2.011-12.635 6.04-16.664 4.023-4.04 9.586-6.064 16.688-6.064 7.08 0 12.636 2.023 16.665 6.064 4.023 4.029 6.04 9.586 6.04 16.664 0 7.085-2.017 12.648-6.04 16.689-4.03 4.029-9.586 6.04-16.665 6.04zm0-1.719c2.274 0 4.202-1.6 5.778-4.799 1.576-3.199 2.364-8.6 2.364-16.21 0-7.605-.788-13.012-2.364-16.211-1.576-3.2-3.504-4.8-5.778-4.8-2.292 0-4.226 1.6-5.801 4.8-1.576 3.199-2.364 8.606-2.364 16.21 0 7.61.788 13.012 2.364 16.211 1.575 3.2 3.51 4.8 5.801 4.8zm0 0"/><path d="M291.49 123.363s1.236-12.176 15.525-18.061c.017-.006.023-.012.023-.012-.006.006-.012.006-.023.012-.472.203-9.855 4.393-13.639 18.455 23.421 4.047 23.391-27.957 23.391-27.957-34.266 6.064-25.277 27.563-25.277 27.563" class="logo-hoja"/></g><path d="m317.658 167.213 5.133-1.29v-37.722l-5.133-1.289v-1.289h7.712c3.372 0 6.028 1.086 7.974 3.247.746.86 1.373 1.922 1.886 3.175.794-1.48 1.743-2.757 2.841-3.844 2.56-2.578 5.76-3.867 9.598-3.867 3.199 0 6.07.68 8.619 2.03 2.542 1.336 4.524 3.097 5.944 5.275 1.433 2.167 2.149 4.453 2.149 6.852v27.432l5.157 1.29v1.289h-11.15c-5.145 0-7.711-2.567-7.711-7.712v-22.299c0-3.593-.645-6.35-1.934-8.26-1.29-1.922-2.793-2.889-4.512-2.889-2.167 0-4.107 1.146-5.826 3.438-.752.973-1.378 2.113-1.886 3.414v31.73l5.133 1.289v1.289h-23.994zm0 0"/></g><g class="logo-con-mas"><path d="M94.075 61.533c-7.324 0-13.012-2.011-17.07-6.04-4.06-4.04-6.089-9.604-6.089-16.688 0-7.08 2.03-12.636 6.088-16.665 4.059-4.04 9.747-6.064 17.07-6.064 5.253 0 9.204.919 11.866 2.745 2.656 1.833 3.987 4.06 3.987 6.685 0 1.946-.59 3.504-1.766 4.68-1.164 1.182-2.716 1.767-4.656 1.767-.812 0-1.617-.06-2.411-.191l-1.027-.24V18.655l-1.194-.43c-.859-.286-1.898-.43-3.103-.43-3.247 0-5.778 1.547-7.592 4.633-1.803 3.091-2.698 8.547-2.698 16.378 0 7.61.895 12.94 2.698 15.996 1.814 3.056 4.345 4.584 7.592 4.584 2.226 0 4.297-.526 6.207-1.576 1.922-1.063 3.444-2.465 4.56-4.202 1.11-1.749 1.671-3.54 1.671-5.372h2.15c0 2.292-.687 4.465-2.054 6.518-1.373 2.053-3.289 3.7-5.754 4.942-2.453 1.223-5.276 1.838-8.475 1.838zM139.092 61.533c-7.103 0-12.666-2.011-16.689-6.04-4.028-4.04-6.04-9.604-6.04-16.688 0-7.08 2.012-12.636 6.04-16.665 4.023-4.04 9.586-6.064 16.689-6.064 7.079 0 12.635 2.023 16.664 6.064 4.023 4.029 6.04 9.586 6.04 16.665 0 7.084-2.017 12.647-6.04 16.688-4.029 4.029-9.585 6.04-16.664 6.04zm0-1.719c2.274 0 4.202-1.6 5.777-4.799 1.576-3.199 2.364-8.6 2.364-16.21 0-7.605-.788-13.012-2.364-16.211-1.575-3.2-3.503-4.8-5.777-4.8-2.292 0-4.226 1.6-5.802 4.8-1.575 3.199-2.363 8.606-2.363 16.21 0 7.61.788 13.012 2.363 16.211 1.576 3.2 3.51 4.8 5.802 4.8zM168.67 58.955l5.133-1.29V19.945l-5.133-1.29v-1.289h7.711c3.373 0 6.029 1.086 7.975 3.247.746.86 1.372 1.922 1.886 3.175.793-1.48 1.742-2.757 2.84-3.843 2.561-2.579 5.76-3.868 9.598-3.868 3.2 0 6.07.68 8.619 2.03 2.543 1.336 4.524 3.097 5.945 5.276 1.432 2.166 2.149 4.452 2.149 6.852v27.432l5.156 1.289v1.289H209.4c-5.145 0-7.711-2.567-7.711-7.712V30.234c0-3.594-.645-6.351-1.934-8.261-1.29-1.922-2.794-2.889-4.513-2.889-2.166 0-4.106 1.146-5.825 3.438-.752.973-1.379 2.113-1.886 3.414v31.73l5.133 1.289v1.289H168.67zM249.702 58.955l5.133-1.29V19.945l-5.133-1.29v-1.289h7.712c3.372 0 6.028 1.086 7.974 3.247.746.86 1.373 1.922 1.886 3.175.86-1.587 1.773-2.87 2.746-3.843 2.578-2.579 5.52-3.868 8.833-3.868 3.307 0 6.22.734 8.738 2.196 2.513 1.45 4.465 3.432 5.85 5.945.841-1.653 1.755-2.99 2.745-4.01 2.627-2.752 5.57-4.131 8.834-4.131 3.02 0 5.742.633 8.165 1.886 2.435 1.26 4.321 2.978 5.658 5.157a13.203 13.203 0 0 1 2.03 7.115v27.432l5.157 1.289v1.289h-11.15c-5.157 0-7.735-2.567-7.735-7.712V30.234c0-3.725-.573-6.506-1.72-8.357-1.133-1.862-2.41-2.793-3.843-2.793-1.66 0-3.342 1.146-5.061 3.438a25.892 25.892 0 0 0-1.815 3.414v31.73l5.157 1.289v1.289h-24.018v-1.29l5.157-1.288V30.234c0-3.725-.573-6.506-1.719-8.357-1.146-1.862-2.435-2.793-3.868-2.793-1.659 0-3.342 1.146-5.061 3.438a23.804 23.804 0 0 0-1.79 3.414v31.73l5.132 1.289v1.289h-23.994zM347.876 61.533c-5.097 0-9.013-1.086-11.746-3.247-2.74-2.178-4.107-4.954-4.107-8.332 0-2.226.484-4.429 1.457-6.613a12.576 12.576 0 0 1 1.527-2.817c2.352-.573 4.9-1.087 7.64-1.552 6.172-1.015 11.633-1.648 16.378-1.886v-2.579c0-6.333-.776-10.702-2.315-13.107-1.546-2.4-3.916-3.605-7.115-3.605-1.194 0-2.22.143-3.08.43l-1.218.43v12.868l-1.098.239c-.925.13-1.695.19-2.316.19-1.945 0-3.503-.584-4.679-1.766-1.182-1.176-1.767-2.734-1.767-4.68 0-2.626 1.325-4.852 3.987-6.685 2.656-1.826 6.62-2.745 11.89-2.745 4.453 0 8.296.788 11.531 2.363 3.23 1.576 5.689 3.749 7.378 6.518 1.683 2.77 2.53 5.957 2.53 9.55v23.159l5.133 1.289v1.289h-7.711c-3.426 0-6.082-1.056-7.974-3.175-.8-.86-1.427-1.94-1.886-3.247a18.962 18.962 0 0 1-2.841 3.844c-2.567 2.578-5.766 3.867-9.598 3.867zm3.438-3.008c2.113 0 4.023-1.146 5.73-3.438.632-.842 1.295-1.982 1.981-3.414V39.234c-2.626 0-5.145.144-7.544.43-1.767.227-2.972.37-3.605.43-.287.62-.573 1.48-.86 2.578a25.055 25.055 0 0 0-.859 6.423c0 3.199.483 5.574 1.456 7.114.967 1.546 2.203 2.316 3.7 2.316zm0-45.457L354.728.223h11.15l-11.58 12.845ZM403.192 61.533c-3.551 0-6.727-.776-9.526-2.316-1.373-.746-2.483-1.551-3.343-2.411-.907 1.26-1.91 2.232-3.008 2.913-.513.352-1.086.668-1.719.955h-2.125V46.086h3.414a24.08 24.08 0 0 0 3.271 6.685c3.02 4.411 6.793 6.614 11.317 6.614 2.4 0 4.214-.58 5.443-1.743 1.224-1.176 1.839-2.877 1.839-5.11 0-1.892-.848-3.473-2.531-4.75-1.69-1.29-4.333-2.877-7.926-4.776-3.092-1.54-5.599-2.924-7.52-4.154a17.718 17.718 0 0 1-4.871-4.631c-1.337-1.863-2.006-4.047-2.006-6.566 0-3.42 1.468-6.207 4.417-8.356 2.943-2.149 7.473-3.223 13.585-3.223 3.02 0 5.825.806 8.404 2.411 1.253.734 2.34 1.504 3.246 2.316.747-1.033 1.75-2.005 3.009-2.913.967-.573 1.54-.889 1.719-.955h2.148v14.588h-3.438c-.859-2.465-1.921-4.668-3.175-6.614-2.853-4.452-6.25-6.684-10.194-6.684-1.546 0-2.865.573-3.964 1.719-1.086 1.146-1.623 2.572-1.623 4.273 0 2.185.913 4.005 2.746 5.467 1.826 1.45 4.607 3.122 8.332 5.014 3.02 1.546 5.431 2.907 7.234 4.083a17.928 17.928 0 0 1 4.631 4.321c1.29 1.707 1.934 3.7 1.934 5.993 0 8.296-6.577 12.438-19.72 12.438zm0 0"/></g></g></svg>