<svg xmlns="http://www.w3.org/2000/svg" viewBox="0 0 901 1440"><g fill="#f4bc20" transform="matrix(1.900618 0 0 -1.900618 -575.833491 1745.43863)"><path d="M551.273 869.737l37.665-62.592 1.698 1.884 10.205 11.307 4.883 5.411-37.662 62.586-16.788 27.9c-1.702 2.828-5.802 2.827-7.503-.001l-16.782-27.899-23.588-39.197h27.971l12.399 20.601c1.701 2.828 5.801 2.827 7.502 0M663.29 730.08l-1.192 1.979-5.575 9.267-17.204-7v35.594 57.292l-20.677-22.93-10.212-11.315v-18.218-44.739l-26.512-10.792v49.935l-42.731-.596v-74.975l-9.458-3.87-3.843-1.568v14.465h-14.013v114.117 8.438h-22.896-23.108v-38.402-46.491-21.129h-4.442v17.253h2.107-13.671v-17.253h-3.404v-11.129-2.884h-1.733-9.766v30.266 43.045l-17.568 16.664-17.649-16.664V676.871l-3.761-6.247-7.472-12.417-6.079-10.105c-.836-1.389-.836-3.126 0-4.514l2.764-4.592 3.315-5.507.61-1.013 10.492-17.451 2.014-3.343 267.41 108.851z"/><path d="M634.682 514.058l-10.424-17.328v-.007l-.021-.007-10.205-16.951-45.97-76.4-16.768-27.867c-1.702-2.827-5.801-2.827-7.502 0l-16.782 27.888-31.451 52.264-12.506 20.794-65.729 109.233 36.92 15.118v17.324l23.14 9.419v-38.664h10.436v51.2l23.245-16.643V604.32h17.958v-60.488h10.561v49.324h7.938v39.457h17.513v7.096h17.743v-40.69h14.906v78.072h39.744l.103-71.385h24.875l22.26 37.92c.821 1.366.821 3.073 0 4.438l-9.938 16.513-.11.185-13.218-5.404v25.677l.849.343 22.444 9.136 12.513-20.787 9.335-15.519 6.08-10.105a4.38 4.38 0 0 0-.001-4.515l-6.079-10.098-2.13-3.541-23.971-39.833-26.56-44.135z"/><path d="M349.298 316.603l-25.076 41.044h-21.116v-92.382h21.116v53.714l23.888-39.198h2.375l23.887 39.198v-53.714h21.117v92.382h-21.117zm88.157-17.024l10.823 33.917 10.821-33.917zm24.284 58.068h-26.924l-31.409-92.382h23.095l4.62 14.517h34.313l4.62-14.517h23.096zm86.707-77.866l23.888 39.198v-53.715h21.116v92.383h-21.116l-25.075-41.044-25.076 41.044h-21.116v-92.383h21.116v53.715l23.888-39.198zm81.956 22.965h17.685c5.278 0 8.71-3.695 8.71-8.842s-3.432-8.843-8.71-8.843h-17.685zm0 35.105h15.045c4.884 0 8.051-3.431 8.051-8.182s-3.3-8.182-8.051-8.182h-15.045zm47.512-45.532c0 9.371-4.488 16.497-11.351 20.854 5.016 4.355 8.051 10.425 8.051 18.079 0 15.97-13.066 26.395-29.167 26.395h-36.162v-92.382h38.802c16.497 0 29.827 10.69 29.827 27.054m52.788-7.258c-14.466 0-25.887 10.532-25.887 26.395s11.421 26.395 25.887 26.395 25.888-10.533 25.888-26.395-11.422-26.395-25.888-26.395m0 72.586c-25.506 0-46.191-20.05-46.191-46.191s20.685-46.191 46.191-46.191 46.192 20.049 46.192 46.191-20.685 46.191-46.192 46.191"/><path d="M401.045 179.681h6.182v67.337h-6.182zm21.749 26.238c1.234 9.251 8.231 15.4 17.675 15.4 8.818 0 15.389-6.149 16.596-15.4zm17.675 21.405c-13.986 0-24.136-10.227-24.136-24.317s10.302-24.317 24.495-24.317c8.869 0 16.278 3.853 20.327 10.572l.439.728-5.438 3.215-.419-.765c-2.654-4.85-8.193-7.746-14.819-7.746-9.558 0-16.725 6.041-18.107 15.132h40.625v.843c0 .342.023.685.043 1.027.024.377.046.754.046 1.131 0 11.875-8.08 24.497-23.056 24.497m71.823-24.317c0-10.269-8.005-18.313-18.224-18.313s-18.221 8.044-18.221 18.313 8.004 18.311 18.221 18.311 18.224-8.042 18.224-18.311m0 15.026c-4.209 5.942-10.8 9.289-18.494 9.289-13.534 0-24.135-10.679-24.135-24.315s10.601-24.315 24.135-24.315c7.694 0 14.285 3.347 18.494 9.289v-5.299c0-10.002-6.376-15.974-17.055-15.974-8.269 0-13.824 2.777-16.509 8.252l-.395.805-5.427-3.085.351-.713c3.53-7.158 11.541-11.262 21.98-11.262 13.9 0 23.237 8.832 23.237 21.977v43.651h-6.182zm39.785-33.339c-10.218 0-18.221 8.044-18.221 18.313s8.003 18.312 18.221 18.312c10.168 0 18.132-8.044 18.132-18.312s-7.964-18.313-18.132-18.313m18.132 33.506c-4.276 5.834-10.87 9.123-18.491 9.123-13.535 0-24.136-10.681-24.136-24.316s10.601-24.317 24.136-24.317c7.621 0 14.215 3.29 18.491 9.125v-8.134h6.274v46.652h-6.274zm55.319-24.6c-2.968-5.576-8.742-8.906-15.444-8.906-10.217 0-18.222 8.044-18.222 18.313s8.005 18.312 18.222 18.312c6.831 0 12.637-3.396 15.152-8.863l.39-.845 5.151 3.015-.32.696c-3.418 7.402-11.223 12.001-20.373 12.001-13.965 0-24.495-10.454-24.495-24.316s10.53-24.317 24.495-24.317c8.971 0 16.91 4.551 20.715 11.877l.366.705-5.221 3.11zm31.623-5.962l-17.565 38.695h-6.707l21.073-46.636-.848-2.081c-1.701-4.006-5.605-10.638-12.548-10.012l-.918.081v-5.926l.774-.063a14.66 14.66 0 0 1 1.2-.049c7.281 0 13.895 5.421 17.461 14.429l19.882 50.257h-6.674z"/></g></svg>