<svg xmlns="http://www.w3.org/2000/svg" viewBox="0 0 512 282.8"><g fill="#e4b9c4"><path d="M244.5 123.8a3.2 3.2 0 0 1-2.1-.8c-.3-.3-.3-.5-.1-.7a13.7 13.7 0 0 0-.3-5.7 8.8 8.8 0 0 0-.2-1.6 9.7 9.7 0 0 1 1-6.7 5.8 5.8 0 0 1 5-3.5h.6a4.9 4.9 0 0 1 4.5 4.3 6.2 6.2 0 0 1-.5 3.3 21.3 21.3 0 0 1 4.2-1h1c1.8 0 4.1.6 5 2.5s-1.6 5-3.2 6.2a11.7 11.7 0 0 1-6.7 2.7h-2.1a24.2 24.2 0 0 0-4.7.7h-.8zm4.8-17a2.8 2.8 0 0 0-1.3.3 5.3 5.3 0 0 0-2.4 2.5c-1.3 2.4-1 4.9-.6 7.5a19.9 19.9 0 0 1 .4 4.2 21.9 21.9 0 0 1 3.6-.3h2a12.1 12.1 0 0 0 6.9-3.3h0a5.2 5.2 0 0 0 2-2.6 1.8 1.8 0 0 0-.2-1.4H258a31.2 31.2 0 0 0-7.9 2.9h-.3a3 3 0 0 1-2.2-1 .6.6 0 0 1 0-.6l.7-1.3c1.1-1.7 2.2-3.6 1.6-5.6s-.6-1.1-.6-1.1zm62.6 85.1l-5.4 3.8c-5.5 4-11.2 7.7-18.2 8.8-3 .5-6.2 1.2-8.1-2s-.4-6.1 1.7-8.4 5.4-6.3 8.8-8.3A64.7 64.7 0 0 0 306 173l31.2-35.4a34.3 34.3 0 0 0 2.8-4.9c-3.3-1.6-5.7-.5-8.1.9a62.1 62.1 0 0 0-17 14.1c-1.4 1.5-2.7 3.5-4.4 4.5-4 2.4-4 6.2-3.5 10.2.2 1.9 1.1 3.7-1 5.5s-5.7-2.8-7-5.5-1.5-6.6-2.1-10-.3-3.7-.5-6.7a38.5 38.5 0 0 0-3.5 3.5 175.8 175.8 0 0 1-29.8 29.3 62.8 62.8 0 0 1-20.5 10.7c-12.4 3.7-24.5-5.6-25.3-19.6-.1-2.9.8-5.8-1.1-9.1a20.4 20.4 0 0 0-2.7 2.3c-8.5 8.8-17.2 17.4-28.2 23.2a56.6 56.6 0 0 1-23.8 6.3c-7.3.4-13-2.9-17.3-8.7a40.1 40.1 0 0 1-7.8-24.6c.1-4.9 0-9.7 0-15.5-1.6 1.3-2.6 1.8-3.4 2.5-15.2 15.1-32.2 27.4-52.1 35.5-15 6.1-30.4 9.3-46.5 6.4-23.8-4.2-37.1-24.1-33.9-47.1a94.3 94.3 0 0 1 26-54.6C43 69.1 62.9 58.6 87.1 57.9l7-.8a47.6 47.6 0 0 0-1.2-4.8C88 39.8 90.6 28.6 99.7 19 111.6 6.5 126.4.3 143.5 0c11.5-.1 20.6 4 26.1 14.6 2.3 4.6 2.1 9.3 1.2 14-1.5 6.8-5.4 12.4-10.5 17.2a14.3 14.3 0 0 1-2.8 1.3c-.2-1.3-.7-2.4-.3-3.1a47.2 47.2 0 0 0 3.1-5.3c2.4-4.8 5.1-9.5 6.8-14.5 2.8-9-3.8-17.2-13.1-17.6s-17 3.1-24.3 7.7c-10.8 6.9-19.5 15.6-24.4 27.6a31.4 31.4 0 0 0-1.8 9.6 9.7 9.7 0 0 0 4 9 25.4 25.4 0 0 1 2 2.4c-1.9 2.3-4.3 2-6.4 1.8a64 64 0 0 0-32.7 7 97.4 97.4 0 0 0-32.9 27.6c-6 7.7-11.6 15.7-14.7 24.8-4.3 12.2-7.5 24.6-4.1 37.5A32.5 32.5 0 0 0 30.6 180a22.9 22.9 0 0 0 13.3 4.7c16.5.8 31.3-4.6 45.5-12.1a163.4 163.4 0 0 0 44-33.9 34 34 0 0 0 7.5-12.5 182.9 182.9 0 0 1 36.6-66.1c9.6-10.8 20.2-20.4 33.8-25.8 4.7-1.9 10.1-2 15.3-1.9 9.2.3 12.7 9.6 11.2 16.4-2.3 10.9-8 20-14.7 28.8a230.2 230.2 0 0 1-47.9 45.6c-4.1 2.9-8.5 5.5-12.6 8.4a8.8 8.8 0 0 0-3.4 4c-3.9 10.8-7.5 21.9-9.1 33.4-.7 5.9-.2 11.5 4.2 15.8a10.5 10.5 0 0 0 6.5 3.1c11.1 0 21.5-2.8 30.1-10.3 6.6-5.9 13-12.2 19.4-18.5s8.7-10.8 11.9-17a67.6 67.6 0 0 1 7.5-11.6c4.1-5.2 11.7-4.4 15.6 1.1 1.6 2.3.7 4.5-.3 6.7l-12 26a51.6 51.6 0 0 0-3.9 13.4c-.8 7.3 3.8 10.4 10.8 8.4s16.2-7.4 23-13.2c13.5-12 24.9-26 35.2-40.7a44.6 44.6 0 0 1 7.2-7.2c2.2-2 4.8-2.4 8.2.1a43.5 43.5 0 0 1-.6 5.2c-.9 2.6-2.2 5.3-3.2 7.9s-.3 2.5-.6 3.7l.8.7 3.7-2.8 16.3-11.5a5.6 5.6 0 0 1 2-.8c5.7-1.5 11.3-2.8 16 2s5.5 11.1 3.5 17.4a42.9 42.9 0 0 1-10.6 17.4c-4.5 4.7-9.1 9.3-13.7 13.9l-4.3 4.5c1.2 5.4 2.5 9.7 2.8 14.2s-.6 9-1 14.5l4.1-2.6c17.5-14.1 34.4-28.8 48.6-46.3 2.5-3 4.2-6.9 5.9-10.5 6.6-14.3 15.3-26.4 31.2-31.5 5.2-1.8 10.6-3.1 16.2-2.3a18.2 18.2 0 0 1 12.7 7.5l3.9-3.2c2.6-2.1 5.2-4.4 8-6.4s4.4-1 6.6.6a5 5 0 0 1 1.5 6.4c-1.5 3.2-3.5 6.2-5.3 9.3l-19.7 35c-2.2 4.2-4 8.9-3.3 14.1.1.7.5 1.3.6 2 2.5 2.7 5.5 2.3 8.5 1.7 8.7-2 16.2-6.6 23.3-11.8 15.6-11.5 28.2-25.9 39.4-41.6a23.1 23.1 0 0 1 3.4-3.6c2.8 2 1.7 3.9.8 5.5a52.4 52.4 0 0 1-4.2 6.2c-12.4 16.4-26.3 30.8-43.9 41.4a99 99 0 0 1-16.2 7.5c-11.4 3.8-21.1-2.8-22.1-14.8-.2-3.1-.1-6.3-.1-9.4a40 40 0 0 0-.3-5.3l-4.5 3.6c-6.6 5.8-12.9 12-21.2 15.4s-12.9 1.5-16.9-5.9l-1.5-2.3a23.5 23.5 0 0 0-3.3 3c-14.4 16.7-31.6 30.2-49.2 43a27.2 27.2 0 0 0-9.5 11.5c-5.4 12.6-11.4 24.9-19.7 35.9a59.6 59.6 0 0 1-18.3 16.7 21.6 21.6 0 0 1-7.1 2.5c-4.5.8-7.8-2.1-8.2-6.7a19.7 19.7 0 0 1 4.2-13c4.7-6.3 9.3-13.1 15.3-18.3a80.9 80.9 0 0 0 21.6-31.3l6.3-16.6a14.3 14.3 0 0 0 .9-4.1zM232 40.7a32.5 32.5 0 0 0-4.2 1.1c-10.8 4.7-19 13.1-26.7 21.7-14.5 15.9-24.8 34.4-34.3 53.5-.7 1.5-1.1 3.2-1.7 4.7l1 .8c1.3-.8 3-1.5 4.3-2.4a233.2 233.2 0 0 0 43.6-40c7.8-9.4 14.6-19.5 18.7-31.2 1-2.5 1.6-5-.7-8.2zm158.3 133.5c4.6 1.4 5.7 1.3 9.6-1.3 14.4-9.5 25.7-22.1 36.1-35.6a16.5 16.5 0 0 0 2.9-7.7c.7-5.1-3.1-8-7.9-6.1a36.9 36.9 0 0 0-9.4 5c-13.5 10.1-22.7 23.7-29.7 38.9-.8 2-1 4.3-1.6 6.8zm-118.7 102c6-8.2 10.1-16.3 14.6-25.3-8.4 5.6-16.1 18.6-14.6 25.3z"/><path d="M259.1 119.7c1.4-1.1 4.1-3.3 3.1-5.6s-3.7-2.5-5.6-2.1a22.3 22.3 0 0 0-5.2 1.5 7.9 7.9 0 0 0 1-4.2 4.4 4.4 0 0 0-4.1-3.9c-2.2-.4-4 1.2-5.2 3.1a11.1 11.1 0 0 0-.8 6.5c.3 2.5 1 5 .5 7.5-.2.5 1.8 1.1 1.8.8v-.3a1.7 1.7 0 0 0 1 .1 55.6 55.6 0 0 1 7-.8 12 12 0 0 0 6.5-2.6zm-8.1 1.6a42.2 42.2 0 0 0-6.1.7c.4-4.3-2-8.6.2-12.6a5.3 5.3 0 0 1 2.7-2.6 1.3 1.3 0 0 1 1.9-.4 1.7 1.7 0 0 1 .6 1.4c.8 2.6-1 4.9-2.3 7.2-.1.4 1.6 1 1.9.9a31.9 31.9 0 0 1 8-2.9c.6-.1 1.7-.4 2.2.1a3.2 3.2 0 0 1 .3 1.9 7.3 7.3 0 0 1-2.2 3 12.9 12.9 0 0 1-7.2 3.3zM17.9 211.4h1.8v10.7h6.6v1.5h-8.4zm22.8 10.7v1.5h-8.9v-12.2h8.7v1.5h-7v3.7h6.2v1.5h-6.2v4zm16.9-10.7v12.2h-1.5l-7.4-9.1v9.1H47v-12.2h1.5l7.3 9.1v-9.1zm6.2 6.1a6 6 0 0 1 6-6.2h.5a6.1 6.1 0 0 1 4.6 1.8l-1.1 1.2a4.7 4.7 0 1 0-3.5 7.9 4.4 4.4 0 0 0 3.5-1.5l1.1 1.2a6.1 6.1 0 0 1-4.6 1.8 6.1 6.1 0 0 1-6.5-5.7zm26.1 4.6v1.5h-9v-12.2h8.7v1.5h-7v3.7h6.3v1.5h-6.3v4zm14.4 1.5l-2.6-3.7h-3.8v3.7h-1.8v-12.2h4.9c3.1 0 5.1 1.6 5.1 4.2a3.9 3.9 0 0 1-2.8 3.9l2.9 4.1zm0-8c0-1.7-1.2-2.7-3.5-2.7h-2.9v5.5h2.9c2.3 0 3.5-1 3.5-2.8zm10-7.4h2.1l-2.8 2.2h-1.7zm-1.9 3.2h1.8v12.2h-1.8zm16.8 9.2h-6.5l-1.4 3h-1.9l5.6-12.2h1.8l5.5 12.2h-1.8zm-.7-1.5l-2.6-6-2.7 6zm26.2 3v1.5h-8.8v-12.2h8.6v1.5h-6.9v3.7h6.1v1.5h-6.1v4zm14 1.5l-3.8-5-3.6 5h-2l4.7-6.2-4.4-6h2l3.5 4.7 3.3-4.7h1.9l-4.2 5.9 4.6 6.3zm6.1-6.1a6 6 0 0 1 6-6.2h.5a6.2 6.2 0 0 1 4.7 1.8l-1.2 1.2a4.2 4.2 0 0 0-3.4-1.5 4.7 4.7 0 0 0 0 9.4 4.2 4.2 0 0 0 3.4-1.5l1.2 1.2a6.2 6.2 0 0 1-4.7 1.8 6.1 6.1 0 0 1-6.5-5.7zm17.2-6.1h1.8v10.7h6.6v1.5H192zm13.6 7v-7h1.8v6.9c0 2.7 1.2 3.9 3.3 3.9s3.5-1.2 3.5-3.9v-6.9h1.8v7c0 3.5-2 5.3-5.3 5.3s-5.1-1.8-5.1-5.3zm16.3 3.8l.7-1.3a5.7 5.7 0 0 0 4 1.3c2.1 0 3.1-.7 3.1-1.8s-7.5-1.1-7.5-5.6c0-1.9 1.5-3.5 4.7-3.5a6 6 0 0 1 3.9 1.1l-.5 1.4a5.9 5.9 0 0 0-3.4-1c-2.1 0-3 .8-3 1.8 0 3 7.4 1.2 7.4 5.6 0 1.9-1.5 3.5-4.7 3.5a6.8 6.8 0 0 1-4.7-1.5zm15.5-10.8h1.8v12.2h-1.8zm19.5 0l-5.4 12.2h-1.7l-5.4-12.2h1.9l4.3 10.1 4.5-10.1zm12.4 9.2h-6.4l-1.4 3h-1.8l5.5-12.2h1.8l5.6 12.2h-1.9zm-.6-1.5l-2.6-6-2.6 6z"/></g></svg>