<svg xmlns="http://www.w3.org/2000/svg" width="1024" height="540" viewBox="0 0 1024 540"><g fill="#282525"><path d="M1.7.4C1 .4.6 1 .3 2.4-.2 5.8 0 38.9.5 41.3a8.4 8.4 0 0 0 2.2 3.6c1.3 1.3 1.7 2.1 2 4.6 3.1 95.5-.7 192 2.2 287.5 0 9-.7 13.3-2.2 13.3-1.5 0-2 2.2-2 10.7-.2 10.9.5 35 1 36.9.1.8.5 1.4.7 1.4.9 0 55-21.6 55.5-21.8a7 7 0 0 0 1.2-2.9c.9-3.8 4.2-18.5 6.4-20.9l.8-25.8-.2-1.5-1-35.9c-.4-22-.7-24.9-2.8-24.5-.6.2-3.7.6-6.9 1-3 .3-6.4.6-6.4 1l-.7 60.9c0 6.9-.6 9-3 9.6L31 341.9c-2 0-2.6-2.5-2.7-11 0-36.7-.9-110.3-.9-110.3.5-2 8.3-1.6 9.5-.4 2.2 2.9 1 20.7.8 26.2-.4 1.4-.2 1.4 1.5 1.5l13.6 1.1c1 0 1.9-.2 2-.6.3-.4 1.2-103.8-.9-105.5-1-.7-14.4-2-15.7-1.6-1.8.7 0 25.2-1 28-.5 1.4-1.6 1.6-5.8 1.4-5-.3-4.6 3.8-4.8-61.4-.1-44.8 0-56.7.6-57.3 1-1 18.2 3.2 20.2 5l1.4 1.1c.3 38.2.5 63.4.8 63.7a72 72 0 0 0 15.7 1.6c1-1 0-57.2.9-59.9.2-.8.4-1.2.9-1.4l-2.5-39.7c-21.2-6.5-42-14-62.8-22Z"/><path d="M64.5 22.4 67 62a6 6 0 0 1 2.2-.2c2.2 0 5 .4 5 2.5l.2 45.8c.1 62.7.6 125.3 1 188 .2 29.7 1 31.5-3.4 32.2-2.1.4-3.3-.4-3.7-2.6l-.8 25.8c1.2 0 1.5 1.4 2 10.8.2 4.8.7 9 1 9.4a695 695 0 0 0 46.4-14l17.8-48.4-1.8-70.5-15.5.5.8 74.3-17.4 5.8-2.3-179.7c-.1-78.9-.4-73.7 3.4-72.5 1.1.4 2.3.6 2.6.3.7-.3.9-31.1.3-34.1-.4-1.7-.6-1.8-8.3-4.2a627.2 627.2 0 0 1-32-9Z"/><path d="M143.3 349c-.3-1.9-.4-6.8-.7-33l2.8-1.7 2.8-1.7.7-4.6c.5-3.7.6-15.4.4-49.3-.2-24.4-.3-74.1-.3-110.4 0-62.2 0-66-1-67.8-.7-1.5-1.4-2-3.1-2.3-1.2-.3-2.4-.8-2.6-1.2-.3-.4-.5-8-.5-16.9 0-12.5.2-16.3.7-16.8.5-.4 2.4-.1 6.8 1l17 4.5c17.7 4.5 21.3 5.5 22.5 6.3 1.2.9 2.3 3 8.6 16.2 2.2 4.6 5 10.5 6.4 13.1a48 48 0 0 1 3 7.1c.5 1.5.7 13.3.7 35.5 0 18.3.3 37.1.5 41.8a43 43 0 0 1-.2 10.3c-1 3-18.1 34.8-18.8 35.2-.3.2-3.7.3-7.5.3l-7-.1-.8 2c-.8 2-.9 6.6-.5 45.1.1 24.4.5 43.5.8 44.3 1 3.5 4.8.4 6 2.1 1.5 1.8.6 32.7.2 33.3l-34.6 10c-2 .6-2 0-2.3-2.3zm42.2-165.7c.5-4.2 0-96.6-.6-97.2-.7-.7-10-2.3-11-2-.6.2-1 1.4-1.3 2.9-.6 4.4.2 90 1 94.3.8 4.2.5 4 7 4.2l4.5.2z"/><path d="M213.5 60c-.8 0-1 .3-1.4 1.2-.9 1.8-1 24.2-.2 27.1.5 2 .7 2 3.3 2.4a9 9 0 0 1 4.2 1.6l1.4 1.3c-.1 68.3 0 136.5.5 204.8 12.4 24 3.7 6.1 13.7 26.1 1.6 3 2.4 4 3.2 4 1.7 0 17.6-3.3 19.7-3.3 2.4 0 3.3-1 6-7l13.6-30.3c-.4-115.9-.5-184.1-.1-186 .4-1.6.7-1.7 3.3-1.8 1.8-.1 2.7 0 3.5.5l1.6-15.8c-.6-.6-1.6-4.2-1.6-6.5 0-5.6-.9-6.3-10.5-7.3-2.6-.3-7.4-1-10.5-1.7-3.2-.6-6.2-1-6.6-.8-.7.3-.8 2.5-.7 14.3l.2 14 2.4.3c1.7 0 2.6.5 3.2 1.4.8 1.3 2 192 0 195.3-.7 1.1-15 2.2-15.1 1.5a12 12 0 0 0-.8-2c-1-65.7-.7-131.2-.8-197 .3-.6 1-.8 3.1-.7 2 0 3-.2 3.3-.7.3-.5.5-6.6.5-13.7 0-13 0-13-1.2-13.5a734 734 0 0 0-30.8-6.5l-5.6-1a5 5 0 0 0-.8-.2z"/><path d="m285.8 84.8-1.6 15.8.5.4c1.1 1.1 1.2 1.8 1.2 28.2l.1 27.3 6.8.6c5.3.2 6.6.1 7-.5.3-.4.5-12.3.5-26.4 0-19.9.2-25.8.7-26.6.6-.7 1.4-1 3.8-.8 2.5.2 3 .4 3.7 1.6.6 1.1.7 8.6.5 36.2l-.2 35.5.2 54.8c.1 36.3-.3 54.5-.5 55.8-.4 3.1-6.6 3.4-11.4 4.5a80 80 0 0 0 .8 26.5c0 1 1.3 2 1.3 2 16.2-4.5 41-7 42-8.1.7-.5.8-3 .8-12.7 0-6.6 0-12.4-.3-12.6-.2-.4-2-.5-4.7-.3l-4.4.4-1-1.9c-1.2-1.8-1.2-2.3-1.3-89.8 0-98.7-.4-89.6 4.3-89 4.6.6 4.4-.9 4.5 25.6 0 14.4 0 24-.4 25-.5 1.4-.4 1.8.6 2.7 1 .9 2 1 7.5.8 3.5-.1 6.5-.3 6.6-.4.2-.2.4-15.3.4-33.6V92.4l-2.3-4.5c-2.8-5.3-4.6-7.4-6.3-7.5-.7 0-1.7 0-2.3-.2l-5.8-.5a949 949 0 0 1-38.4-4.8 36 36 0 0 0-7.9-.7l-2.4 5.6A36.7 36.7 0 0 1 286 85h-.2z"/><path d="M396.3 309.2c-1 0-2-.6-2.3-1-.7-.9-2-1-11.2-.5-4.7.3-6.8.2-6.8-.2a41.3 41.3 0 0 1-5.7-9c-2.7-5-6.5-11.2-8-13-2.5-3-2.6-4.4-2.9-21.2-.4-31.3.4-151 .7-152.6.2-1 1.5-3.6 3-5.7a402 402 0 0 0 4.8-7.4 85 85 0 0 1 9.9-14c1.1-.7 2.3-.7 9.8 0 15.6 1.6 14.3 1.3 15 3.1.4.9 1.4 2.4 2.2 3.3.9 1 2.4 3.4 3.5 5.4 1 2.1 3.4 6.2 5.3 9.1l4.2 7c1.7 55.3.6 111.2.4 166.5l-1.9 2.7-3.2 4.6a106.7 106.7 0 0 0-10.9 21.4c-.3.5-4 2-4.2 1.9 0 0-.8-.3-1.7-.4zm-1.2-27.8c.5 0 1-.6 1.2-1.1.2-.7 1.4-168 0-169.4-1.1-1-12.8-1.8-14-.9-1.5 1.2-1.4 168.2-.5 170.7l.8 1.8 6-.3c3.2-.3 6.2-.6 6.5-.8z"/><path d="M439.6 304c-6.2-5.5-12.5-19-17.5-27 0-54.6.1-109.2.7-163.8 3.8-7.6 9.6-16.7 15.8-23.9.8-.6 13.2-.3 16.2.5 2.4.5 7.7 11 10.4 10 1.7-2.7 2.7-5.9 3.9-8.9.6-1.8 9.2-.8 9.5-.5.4.8.4 76.4 0 77.6-4 2.2-11.5.7-16.2.6l-.1-27.2c-.1-24.9-.3-27.3-1-28-.9-.6-13-1.6-14.2.5-.7 1.3-1.8 163.8.5 165.1 1 .5 12.6.5 13.4-1 .7-1.3 1-57.4 1.6-58 .5-.4 6.2-.5 15.4-.8 1 19 .5 38.1.1 57.1-6 9.7-15.8 26.6-16.2 26.8-.5.3-21 1.2-22.3.9z"/><path d="M520 302.6c-.2-.1-.3-5.2-.4-11.1-.3-11.4 0-12.5 2.2-12.5.6 0 1.3-.6 1.9-2 .7-1.7.8-3.4.2-11.7-.8-13.5-1.3-10.4-2-21.6-.1-3.6-.6-7-.9-7.3-.4-.5-2.4-.7-6.9-.7-7.5 0-7.2-.3-7.7 7.2-.2 2.5-3.8 30.2-2.5 33.7 1.2 2.7 4.2 2.4 6.6 2.4l-.3 23.4c-4.1.2-27 .1-27.2 0-1-1.1-.8-9.4-.2-23.3 8 .4 6.2-3 6.6-9 .4-5.7 14.4-141.3 14.5-147 0-5 .2-6 2.8-13.9 3.5-10.7 5-12.7 5.8-15.4.8-2.8 1.4-3.2 6.6-3.6 3.5-.2 5.1-.1 5.7.4 2.2 1.8 4.8 12.9 6.6 16.9 2.2 5 3.2 11.2 4 21.7l11.2 148.6c.4.8 1.6 1.5 3.1 1.8 3.1.8 3.2 1.1 3 11.9 0 9.7-.3 12.1-1.7 12.3zm-1.9-96.6c1-.8 1-1.5 1-5.7-.2-6.7-.7-7.5-1-17.6-.4-8-1.2-9.7-2.3-10.1-1-.4-1.2.1-1.9 5.5-1 6.5-2.1 13-2.6 19.6-.4 7.6.1 9 3.6 9 1.2 0 2.6-.3 3.2-.7z"/><path d="M616 308.2c-4.8-8.2-7.2-18.2-10.6-27.2v-36.8c0-36.1 0-37-1.1-38-1.5-1.4-12.2-2-13.4-.7-.8.8-.9 1.9-1 63-.1 8.5 0 11.8.6 12.3 1.6 1 3.6 1 5.4 1.3.3 7.3.2 16.2-.2 23.9-1 1-36.6-2.2-36.7-2.2-.4-.4-.2-22.4.2-23 .2-.4 1.3-.7 2.5-.7 4.3 0 4 5 4.2-66.2.2-35 .4-71.3.6-80.9.2-11.7.2-17.7-.3-18.7-.8-2.3-4.1-1.6-6.2-1.6v-11.3c0-9.4.2-11.5.9-12 15.6-1.8 31.5-2 47.3-2.9 4.3 6.7 13.7 17 19.8 26.7 0 24-.2 48-1 71.8l-4 3.8c-6.3 6-6.7 8.3-2.1 14.5 2 3 4.1 5.8 6.2 8.7v35.4c0 32.6 0 35.5 1 36.5.7.9.9 2.5 1 12.7 0 6.5 0 12-.3 12.4-3.4 1.4-9 0-12.9-.8zm-11.4-127c2.4-3 2-68.6.8-69.6-1.4-1-13.2-.2-14 1-1.3 1.6-.5 36.3-1.1 55.2-.3 11.9-.1 13.7 1.6 14.5.8.4 11 .8 12.7-1z"/><path d="M688.1 317.1c-1.2-.2-2-.8-2.6-1.8-12-23.3-22.9-132-25.7-134-.9-.6-1-.5-1.5.5-1.1 2.5-1.6 103.4-.6 104.5.3.3 1.7.7 3 1l2.5.4v12.6c0 6.9-.2 12.7-.3 12.9-.5.4-24.9-2.4-26.5-3l-1.3-.6.1-12 .2-12.2 2.8-.2c2.3-.3 2.9-.6 3.4-1.7.7-1.5 1-26.9 1.6-127.8.3-50.8.7-46.6-4.1-46.6h-2.6v-12c0-10.3-.1-12.7 1-13 1.9-.6 20-2.2 27.3-2.9 3.2 4.7 5.5 10 8 15.1 3.2 30.1 12.7 84.4 14 87.7l.5 1.3.6-1.5c1.2-3.2 1.7-14.4 1.8-40.5v-30.8c.2-5.5-.3-7-2-7-1 0-1.6-.4-2-1.5-.7-2-.5-24.3.3-25.1.4-.4 6-1.4 12.5-2.4 9.8-1.4 12-1.5 12.3-1 .6 1 .7 25.6.2 26.9-.2.5-.9.9-1.6.9-2.5 0-2.7 1-2.9 13.3l-.4 52.3-.7 80.7c-.2 31.1-.4 40.3-1 42.5 0 0-3.8 20.5-5.2 24-1.6 4.2-7.5 1.6-11 1z"/><path d="m748.6 328-33.8-6.9c-.6-.5-.8-3.6-.7-13.7 0-7.2.2-13.2.4-13.4 1.7-1.3 8 3.3 8.7-3.5 0-.2 2-186.1 1-187.5-2.2-1.5-5.6-.7-8.1-.5l-.2-12c-.2-15-.1-15.4 2.5-16 .8-.3 24.4-4.2 37.1-4.9V82c.1 6.7 0 13.1-.2 14.1-.8 4-7.1 2-8.4 4-.6 1-3.5 193-.8 196.7 1.9 2.6 6 2 7.4 3.2.4.3.4 5.7.3 14.6-.4 15.9.1 14.5-5.2 13.4z"/><path d="M774.5 333.3a315.5 315.5 0 0 1-16.8-39.2c1-65.3.8-130.5 1.8-195.8C762.7 88 769 75.7 776.4 66c1.5-2 16.6-4 17-2.5.4 1 7.5 9.1 8 9.1 2.5-4 3.6-8.9 5.3-13.3 3-.7 6.1-1.7 9.3-1.7l-.3 52.4c-.3 39.7-.6 52.6-1.1 53-1 1-15.2 1.5-15.9.6-.4-.5-.5-12-.3-35.2.3-31.4.2-34.6-.6-35.2-.8-.6-1.9-.7-6.6 0-8.8 1-8-1.2-8.1 25.2-.8 55-.5 110.2-1.5 165.3-.3 14.8 0 18.2 1.7 19.9.8.8 4.2 1.5 10.4 2.4 2.4.3 2.6.2 2.9-1 .2-.7.5-17.7.7-37.6.4-37.2.5-40.4 2.6-40.2a51 51 0 0 1 13.6 3c.3 0 .8 1 1 2 .4 2.6-.2 71.4-.6 73.3-4.8 8.8-12.2 26.8-17.2 32.9l-22.2-5.2z"/><path d="M889.2 40.1a1211.4 1211.4 0 0 1-58.4 13.7c-3.3.7-6.4 1.5-7 2-1.2.9-2 14.7-1.4 25l.4 7.8 1.5-.2c1.3-.2 1.7 0 2 1.1.8 1.9-1 217.5-1.6 219.7-.5 2-2 3.1-3.2 2.4-1-.6-1.2 1.8-1.2 17V344l1.3.5c1.9.8 51 14.5 53.4 16 .7.5 7.7 2 8 .8l1.2-17 .3-.5 2-20.8-.2-.2c-.5-10.9-.4-21.4-.3-32.6.1-26.7.2-25-1.5-25.5-1.8-.4-2.3-.5-9.1-1-4.7-.2-4.7-.2-5.5 1.2-.5 1-.6 6.3-.6 19.4 0 8.9-.9 34.7-1 34.8-1.1 2-11.5-.7-16.9-1.8-5-1-5-4.4-5-6.7l1.6-89.1c.6-.7 1.6-.8 4.4-.7 2 .1 4 .6 4.4 1 1.5 1 1.9 4.4 1.6 13.6-.2 5.4 0 9.7.2 10.1.4.5 2.4.9 6.3 1.2l7.5.8c1.5.2 1.8 0 2.1-1 .5-2.1 1-90.9.6-91.1-.7-.4-15.3.5-15.7.8-.2.3-.4 5-.5 10.6-.2 11.2-.4 12.1-1.6 13.4-1.2 1.1-6.8 1.2-8.4 0-2.1-1.5-.3-91.2-.1-92.2.2-1.6.8-3 1.2-3.3 1-.7 4.4-1.5 6.2-1.5 1 0 4-.5 6.7-1 6-1.2 6.7-1 7.2.9.2.8.4 13.1.3 27.4 0 20.1 0 26 .6 26.4.8.5 14.5.5 15.3 0 1-.5 1.3-8.3 1.6-34.4.1-15.5.2-21.4 1.2-23.7z"/><path d="M889.2 40.1 889 79c.6-1.6 1.7-1.7 3.5-2 1.4 0 2.8 0 3 .3 1.5 1.7-.8 243.5-1.5 247.7-.4 2-1.1 2.4-2.7 1.2-1.3-1-3.5-1.8-4.8-3l-2 20.8c.3-.7.5-.8 1.1-.2 2.8 2.6.7 20.4 2.7 20.4 2.8 0 33.6 12 34.3 11.8 1.3-.1 1.6-.5 1.9-2 1-6.3 1-16.9.7-32.3 0-5.5-1.6-9.2-6.7-9.6-1-1.3-1-1.8-.5-6.7 1-8.7 1-107.7 1.6-109.4.6-1.7 1.2-1.8 7.4-1.6 8.5.3 7.9-1 7.6 18.5-.6 35.7-.4 71.4-.4 107 3.5 15.3 6.3 30.8 11.3 45.6l11.5 1.8c.4-.3.3-22.6 1.2-34.8.1-6.6-2.3-10-2.7-13.4.7-37-.2-74 .8-111.1.1-5-6.8-18.7-8.4-22.8-3.4-8.7 8.4-16.2 8.5-22.7 0 0 1.6-109.3.4-115.5-.8-4.2-16.7-38.7-18.4-40l-.6-.2h-.8l-9.4 2.8c-4.8 1.5-11.3 3.3-14.5 4-3.2.8-11.3 3-18 5l-6 1.6zM933.6 69c.8 0 1.2.2 1.6.5 1.5 1.2.8 107.3-1 109.4l-1 1.1-9.5.1c-1.5 0-2.8-.1-2.9-.3-.7-1.2-1.4-7.3-1.2-10.4.4-6.5.7-95 1.4-96.8 2.6-3.2 8.6-3.5 12.6-3.6z"/><path d="m980.6 396.8-.9-2.6c-8.6-27 .8 2-14.5-49.8-1.2-3.7-1.4-5.2-1.2-9.5L966.3 72l.2-8.7a727 727 0 0 1 16.8-48.2c.7-1.4 2.1-2 12.5-5.6 6.4-2.3 12.2-4 12.7-4 .8.1 1.4 1 2 2.7 4.4 12.7 9 25.4 13.5 38l-.4 112.4c-.5 157.6-1 197.7-2 201.6a759.4 759.4 0 0 1-16.2 46.7c-1.7 0-5.4-2.5-24.8-10.1zm19.7-45c.9-2.7.6-10.7.6-12l2.3-284.2c-.3-1-.7-2-1-2-.4-.3-6.4.7-10.7 2-3.7 1-3.8 1.2-3.8 26.4 0 98.9-3.8 267.3-.6 271 2.5 3 11.9 2.5 13.2-1.2z"/></g><g fill="#69101f"><path d="M313 539.6c-1-5-2-31.4-3.8-31.4-.3 0-.5.1-.6.4.2 4.2-1 30.2-1.5 30.2-.7 0-.7-5.2-.7-5.3 0-2.3-1.5 4.3-1.3 2 .4-7.3 1.2-14.6.8-18.6 0 .6-1.1 6-1.6 7.5-.4-1.8.5-15.7-.6-16.2-1.5 0-1 9.2-2.3 16.3-.6-2.8-.3-31-1-32.5-3.3-.7-5.1-1.3-12-.7-1.2 0-22.2.8-23.1.5-1.5-.4 8.9-2.2 8.9-2.5 0-.4-5.2-1.2-8-1.2-3.9 0 4-3.4 6-4.5 0 0-1.1-.8-2.2-1.1l6.4-.8c-4.6-1.4-7.4-2 .2-2.2 6.2-.2 17.7-.7 23.6-.7 2.1 0 1.8-.3 1.7-10.4l1.5-53.5v-17.5l-2-1.7c-2.5-2-2.7-2.5-1-2.8 1 0 1.4-.5 1.4-1.5l.7-5.6c.8-6 .8-22.2 0-23.2-.5-.5-.5-.7 0-.7 1 0 .7-5.4-.3-7.3-1-1.4-1-1.8-.2-3.4.6-1.4.8-4.3.8-12 0-9.7 0-10.3-1-10.9l-1.4-.7c-.1-.1.2-.7.7-1.3 1.2-1.2 2.6-1.4 4.2-.5.8.4 1.6.3 3-.3 2.9-1.1 8-1.2 10.4-.2 1.5.7 2.5 1.7 4 4.4 2.7 5 3 5.9 4.3 15.5.2 1.7.7 3.8 1.2 4.7.9 1.6.8 1.8-.2 4.2-1 2-1.4 3.8-1.3 9 0 6.2-.8 9.4-2 13.8-1 4-1.1 8.3-2.5 12.2-.7 1.7-1.1 3.7-2.6 4.9-1.3 1-1.4 1.6-1.7 8.2L317 414c-.4 3.7-.4 20.9-.2 58l.1 6.6c4-.4 9-.7 12.3-.6 1 0 12.4-.2 13.1.4 1.1.9.3 1.4-1.8 1.5-1.2 0-3.3.4-4.1 1 0 .7 6 2.1 9.9 2.3 1.9 0-.3 1-3 1.4-12.7 2.3 2.6 1.6 6.1 3.3-5 .8-14.9.6-8.3 2.2 1.6.4 1.8 1.3.4 1.7-.6.2-17 .1-24.9-.5-.5 12.4-.5 30.8-.6 42.2 0 2.7-2-1.9-2.4-1.6-.9.5-.6 7.8-.6 7.8zm1.2-152.1c1.2-.6 1.7-2.6 2.2-4 .5-1 1.7-6.4 1.5-17.1 0-9.6-.2-11.1-1.1-12.7-1-1.7-1-1.7.3-4.4 1.2-2.6 1.3-3 1-10-.2-6-.4-7.6-1.3-8.4-.8-.8-3.6-.7-4.5 1a37.4 37.4 0 0 0-.6 16.4 6.6 6.6 0 0 1 .4 6.8c-1.2 2.2-1.2 4.5-.6 18.5l-.3 6.2c-.4 3.4-.3 4.5.5 6.2 1 2.2 1.2 2.3 2.5 1.5z"/><path d="m330.1 380-1-3.3c1.2 0 3-.2 3-2a47.1 47.1 0 0 0 2.4-14.6c0-2.4.2-4.3.4-4.3.8 0 1-2.9.1-4.5-.8-1.7-.8-1.9.2-3.2 2-2.7 2.4-3.9 3.2-9.9l.8-6.1-.8-1c-.7-.6-.7-1.1-.2-2.6.6-1.7.7-1.7 3.5-1.3l4.3.3c1.6 0 3.5 1.5 4 3.3.3 1.3-.5 1.5-1 .2-.4-1.2-1.8-.7-1.7.8l.2 3.9c1 15.9 1.2 19.7 3 20.3.5.1.5.3 0 1-.6.7-.6 1.4-.2 3 .3 1.2.6 3.6.7 5.2 0 4.9.8 8.5 2 9.4 1 1 1 1 0 2-.7.6-1.6.9-2.5.7-.7-.1-1.6 0-2 .5-.4.3-1.2.8-1.9 1-1.5.5-2.2-2-.9-3.4.9-1 .9-3.2 0-9.9-.8-4.8-.6-4.6-3.6-4.6-3.3 0-3.2-.3-4 7.3-.4 3.7-.4 6.2 0 7.3.3 1 .5 2.4.4 3.2 0 1.3-.3 1.4-1.6 1.4-1.6-.4-1.8-.8-3.4.1-2.4 1.5-3 1.5-3.4-.2zm13.5-26.5v-7.2c-.4-4-.8-5.2-1.6-4.7-.6.4-1.8 9-1.4 10.2.3.8 1.8 2 3 2.3v-.6z"/><path d="M370 374.7c-1.2-1-3-6-3-8.2 0-1.9-2.2-11.5-4-17.4-.6-1.9-.6-1.9-1-.5-.6 2-.6 17 0 19.6a7.2 7.2 0 0 0 1.9 3.4c2 1.7 2.3 3 .6 3-.7 0-1.3-.3-1.3-.6 0-.2-.6-.3-1.3 0-2 .6-4 .6-5.5-.2-1.9-1-2-1-.5-2.8 1.4-1.7 1.5-6 .4-9.2-.4-1.2-.6-2.2-.4-2.4.3-.3.5-3.3.6-6.9 0-1-.5-2.6-1-3.3-1-1.6-1-2.7.2-4 .4-.5.8-3 1-6.7.2-4.7.1-6.1-.5-7-1.1-1.6-.8-2.1 2-3.5 4.2-2 4 .4 5 1.8.4.6 2.7 6.3 4.7 14.1.8 3.5 1.8 6.2 2 6 .3-.2.5-4.3.5-9.1 0-8.3 0-9-1.2-10l-1.1-1 1.2-.7c.6-.4 1.7-.5 2.4-.3.6.1 1.4 0 1.7-.2.3-.3 1.4-.6 2.3-.8 1.5-.3 1.8-.1 2.4 1.4.4 1.2.4 2 0 2.4-.2.4-.4.8-.2 1 .2.2 0 .2-.4-.2-1-.9-1.1-.6-1.3.9l-1 8.5c0 2.5.1 3.6.9 4.3.9 1 .9 1-.1 2.7-1.3 2-1.3 2.5-1.2 13.6.1 7.1.2 8 1.2 8.6 1.5 1 1.3 1.8-.8 3.4-2.2 1.7-3.6 1.8-5.2.3z"/><path d="M388 373.5c-3-1.4-6.5-11.5-6.5-19.2 0-2.2-.3-3.2-1-4-.7-.6-1-1.2-.8-1.4.1-.2-.1-.5-.6-.7-.5-.1-1-1-1-1.7 0-1.2.2-1.3.9-.8.6.6 1 .4 1.7-1 .5-1 .8-2.5.7-3.4-.2-.9 0-1.5.2-1.3.2.2.5-.7.5-1.8 0-2.3 1-5.8 1.8-5.8.2 0 .4-.5.3-1.2-.1-1 0-1.2.9-1.1.5.1 1.5-.3 2.3-1 .6-.6 2-1.3 3.1-1.5 1.6-.2 2.3 0 3.5 1.2 1.9 1.7 1.9 1.7 3.1.5 1-.8 1-.5 1.2 5.6.2 7.3-.1 8.7-1.8 8.7-1.4 0-1.5-.5-1.8-5.3-.3-4.6-1-6.3-3-6.8-1-.2-1.7 0-2.6.9-1.7 1.6-2 10.2-.6 13.4.8 1.9.9 2.3.2 3-.6.8-.8 3.2-1 8.6-.1 8.7.3 10.3 3 10.3 1.4 0 1.8-.2 2.3-1.8.3-1.1.5-4 .5-6.3-.1-3.8-.3-4.5-1.4-5.3-1.7-1.2-1.4-1.7 1.3-2a32 32 0 0 0 5-1.4c2.6-.9 2.7-.9 3.5.2.8 1 .7 1-.7 1.4-2.2.3-2.6 2.2-2.6 11.7 0 4.4-.1 8.3-.3 8.7-.5.8-8.9 1.3-10.4.6z"/><path d="M410.5 371.6c-1-.7-1.4-.7-2-.2-.7.5-1.2.5-2.3 0-1.2-.5-1.4-.9-1-1.9a154.6 154.6 0 0 0 .2-22.3l.4-8.4c.2-6.4.1-7.3-.7-7.9-1-.6-1-.8 0-1.6.7-.9 1.2-1 2.6-.4 1.5.6 2 .6 3 0 1.5-1.2 6.6-1.1 8.7 0 1.4.7 2 .7 2.8.2.5-.3 1-.3 1.2-.1.2.3.1 6.9-.1 10.5 0 .4-.7.7-1.5.7-1.3 0-1.4-.2-1.4-3 0-3.5-1-4.7-4.2-5.2-3-.3-3.5.5-4 6.1-.2 4 0 4.8.7 5.6 1.4 1.4 3 1.2 3.7-.4.7-1.9 1.4-1.8 2.1.3.4 1 .4 1.6 0 1.6-.7 0-.6 2.7.1 3 .4 0 0 .8-.7 1.7-1.2 1.4-1.5 1.6-1.5.7 0-.8-.4-1-2.1-.8l-2.1.1v8c0 7.3 0 8 1 8.8 1.4 1 3 .5 5-1.4 1.3-1.3 1.6-2.1 1.8-5.3.4-4.4.5-4.8 2-4.8 1 0 1 .5 1 4.8 0 4.4 0 5-1.7 7.4-1 1.5-2.6 3.2-3.5 3.9-2.1 1.4-5.6 1.6-7.5.3z"/><path d="m426.2 370.5-1.5-1.5 1.5-.8 1.5-.7v-9c0-7.2-.2-9.3-1-10-.6-.8-.6-1 .1-2.5 1.1-2 1.3-14 .2-15.1-.4-.5-.4-.9.1-1.5.9-1 2.3-1.1 3.2-.3.4.5 1 .4 2.3-.2 2.3-1.3 6.6-1.1 8.8.1 2.6 1.6 3.7 4.5 3.4 9-.2 3-.5 4.3-1.5 5.6-1.5 2-1.2 3 1.2 4.3.9.4 1.5 1.2 1.5 1.8 0 .5.3 1.2.6 1.4.4.2.3.7-.2 1.3-.5.5-.9 1.9-1 3.1v3.3c-.3 3.4.1 5.9 1.2 7 1.5 1.3 1 3-1.3 4.4-2.5 1.6-2.9 1.5-4.3-.8-1-1.7-1.2-2.9-1.4-9.6-.1-8.2-.6-10-2.7-10.5-3-.7-3-.3-3 8.2 0 7.9.5 10.5 2 10.5.6 0 .6.4-.2 1.7-.8 1.8-2.8 2.2-4 1-.5-.5-1-.5-1.7.3-1.4 1.3-2.2 1.1-3.8-.5zm11.7-27.2c1.3-2 1.8-9.4.6-10.5-1.1-1.2-4-1.2-4.4 0-.4 1.1-.4 11 0 11.5 1 .9 3 .3 3.8-1z"/><path d="M457.4 370.1c-3.6-2-7-10-6-14.6.2-1.3 0-2.3-.4-2.9-1.3-1.5-2-5.4-1.3-6.5.4-.5 1-2.5 1.3-4.4 1.3-7.5 3.2-11.4 6.5-13.1 4-2 8.9 1.4 10.8 7.6.6 2 1 4.3 1 5.2 0 .9.5 2.5 1 3.7.5 1.5.6 2.4.3 3.5-.3.7-.9 3.4-1.2 5.8-1 7-2.6 11-5.3 13.9-2.4 2.6-4.3 3.2-6.7 1.8zm4.8-6c1.4-2.5 1.6-11.5.2-15-.9-2-.9-2.4 0-4.1 1.7-3.6 1-12.6-1.1-13.3-1.3-.5-3.5.6-3.9 1.8-.6 2-.1 9.1.8 11 .7 1.8.7 2.1-.1 3.4a35 35 0 0 0-.2 16.5c1.3 2 3 1.8 4.3-.4z"/><path d="M479.4 369.2c-3.2-1.6-4.3-4.6-4.7-13a46 46 0 0 0-1-8.4c-.5-1.2-.5-1.7.1-2.7.6-.9.9-3.2 1-6.8 0-6.3-.1-7.5-1.2-7.5-1.6 0-1.4-1.2.3-2 1.3-.7 2-.8 3-.4.8.4 1.5.4 2.2 0 .6-.4 1.3-.3 2.3.4 1.6 1 1.6 1.2.5 2.3-1 1-1.2 11.6-.2 13.8.5 1.1.5 1.7 0 2.7-.5 1-.7 3.6-.5 9 .1 6.8.3 7.7 1.2 8.4 1.5 1 1.8 1 3.4-.6 1.3-1.3 1.4-1.6 1.4-8.6 0-4.8-.2-7.6-.7-8.4-.5-.8-.5-1.3 0-2.2 1-1.5 1-13.1 0-14.3-.5-.7-.4-1 .6-2 1-.6 1.5-.8 2-.4.3.3 1.4.6 2.3.6 2.1 0 3 1 1.7 1.8-1.4.8-1.4 12.4 0 13.9 1 1 1 1.1 0 2.8-.7 1.2-1 3-1 7.5 0 5.9-.5 8.5-2.6 12.2-1.6 2.8-6.5 3.8-10.1 2z"/><path d="M501.7 369c-1-.6-2.7-2.4-3.6-3.6-1.6-2.3-1.7-3-1.9-7.4l-.2-4.8 1.8-.7 1.9-.6.4 4.6c.3 5.2 1.4 7.7 4 8.8 1.3.6 1.7.5 2.9-.7 1.9-1.9 2.4-6.2 1-8.9-1.4-2.9-2.5-3.8-4.1-3.8-1.3 0-1.6-.3-2-1.5-.1-.8-1.3-2.7-2.5-4a11.8 11.8 0 0 1-2.8-10.6c.7-3.7 1.9-5.3 4.7-6.7 3.1-1.5 4.5-1.4 7.5.3 2 1.2 2.7 1.4 3.5 1 .5-.5 1-.5 1.2-.3.2.2.2 2.8.2 5.7v5.3h-4v-3.5c0-2.5-.3-3.8-1-4.6-1-1.2-3.2-1.5-4.8-.6-1.2.6-2 3.8-1.5 5.8.6 2.2 3 4.8 4.6 4.8.8 0 1.5.4 1.7 1a25 25 0 0 0 3.4 6c1.6 2.4 1.8 3 1.8 6.8 0 7.7-3 12.7-8 13.3-1.8.2-2.7 0-4.2-1z"/><path d="M540.7 370.1c-.9-1-1.3-1-2-.5-.5.5-1.2.5-2.2.1-1.9-.7-2.3-1.5-1-2.2.8-.4.9-1.4.7-9.5 0-4.9-.3-9.4-.6-10-.4-.6-.3-1.2 0-1.6a54 54 0 0 0 .9-14.7c-.3-1.1-.8-1.5-2.2-1.6l-1.8-.2 2-1c2.6-1.1 3-1.1 4.1 0 .8.8 1.1.8 2.4.1 1.9-1 6.2-.8 8.4.4 2 1 3.7 4 4.3 7.9a13 13 0 0 1-2.9 8.5c-.7.9-.7 1.3.8 3.8 2.3 3.9 2.8 5.8 2.2 10-.6 4.1-2 7.4-4.5 10-1.5 1.5-2 1.8-4.5 1.8-2.2 0-3.2-.3-4-1.3zm6-4.5c.8-1 1.4-10 .9-12.8-.5-2.6-2.3-3.7-3.7-2.2-1 1-1.2 2-1.2 7.1-.1 6.5.4 8.7 2.3 8.7.5 0 1.3-.4 1.6-.8zm-.2-21.5c1.5-1.8 1.9-9.6.5-11.2-2.5-2.7-4.2-.2-4.2 6.2 0 6 1.2 7.7 3.7 5z"/><path d="M575.1 372.5c-.4-.2-1.7-.4-2.8-.2-1.5.2-2.2 0-2.4-.5-.2-.5 0-1 .5-1.2 1.6-.6.5-11-1.4-12.4-1.3-1.1-4.8-1-5.3.3-.3.5-.5 3.6-.6 6.9-.2 6.7-.4 7.4-2 6.5a5 5 0 0 0-2.8-.3c-1 .3-2 .2-2.5-.3-.8-.6-.7-.8.3-1.6 1.3-1 2.7-6 4-14.3.6-3.6.6-4.9 0-6-.6-1.3-.5-1.7.6-2.8 2.2-2.4 4.3-14.3 2.6-15.3-.6-.4-.5-.7.3-1.6 1.3-1.4 2.2-1.4 4-.3 1.3.9 1.5.9 2.5 0 .6-.6 1.4-.8 2.1-.6 1.4.4 1.5 1.3.4 1.7-1.1.5-1.1 2 0 8.8.4 3.1 1.2 6.3 1.9 7.4.8 1.5 1 2 .5 3.4a68.1 68.1 0 0 0 2.3 20.2c.7.3.7.7.2 1.5-.7 1.1-1.4 1.3-2.4.7zm-6.1-19.8c.3-.2-.3-7-.9-10-.4-2.2-1.3-2.5-1.6-.6l-1.2 5.2c-.5 2.2-.8 4.4-.6 4.9.3.8 3.7 1.2 4.3.5z"/><path d="M589 328.6c-1 0-2.2.4-3.6 1-2.8 1.4-4.2 3.6-4.6 7.2-.5 4.6.2 7.5 2.7 10.6 1.2 1.5 2.3 3.6 2.5 4.5.2 1.2.6 1.7 1.4 1.7 1.9 0 3.3 1 4.4 3.5 2.8 6.1-.7 14-4.6 10.5-2-1.7-2.6-3.8-2.8-8.8-.1-2.8-.4-4.9-.8-5-.3-.2-1.2 0-2 .3-1.4.5-1.5.6-1.4 5.7.1 4.8.3 5.4 2 8.1 2 3.2 4.5 5.5 6.4 6 2 .5 5.1-1 6.7-3.5 3.7-5.5 3.9-13.9.5-19.5-1.1-1.7-2.3-4-2.7-5-.6-1.3-1.2-1.8-2.2-1.8-3.7 0-6.1-8.2-3.1-10.6 1.7-1.4 3.7-1.3 5 0 1 1 1.2 1.9 1.2 5v4h3.9V339c0-1.6 0-2.6.3-3l-2.5-4.6c-.4.2-1-.2-2.5-1.3a6.8 6.8 0 0 0-4.2-1.6z"/><path d="m595.7 331.5 2.5 4.6c.2-.5.6-.3 1.2.3.4.4.7.3 1-.6.3-1 .6-1 4-.8l4.5.5c1 .3 1 13.7-.1 15.8-.8 1.3-.8 1.9 0 3.7 1 3 .5 16.4-.6 17.3-1.1.7-1.1 1.2 0 2.4.6.7 1.7 1 4.1.9 4.3-.1 5-.8 3.4-3-1.3-1.6-1.3-2-1-9 .2-5.4.5-7.5 1.2-8.8 1-1.5 1-1.7.1-3-.7-1-.9-2.7-.9-9v-7.6h4.7c4.3 0 4.7.1 5 1.2.8 2.3 1.9-.2 1.6-3.5-.4-4.4-.6-4.7-1.8-3.2-1 1.3-1.1 1.3-12.3 1.1-9.3 0-11.5-.3-11.8-1-.6-1-2.5-.5-4 1-.3.4-.5.7-.8.7z"/><path d="M645 329.4a4 4 0 0 0-2 .6c-1.5.8-1.8.8-2.9 0-1.3-1-2.6-.7-3.7.7-.5.7-.5 1 .1 1.7 1.3 1.5-.4 11.7-2.4 15.1-1.5 2.4-1.5 2.7-.9 4.3.6 1.5.6 2.5 0 6.1l-1.8 9.8c-.7 4.2-1.3 6-2.3 6.9-1.8 1.8-.7 3.1 2 2.7 1.1-.2 2.3-.1 2.7.2 1.7 1.4 2 .3 2.2-7 .1-9 .5-10 3.7-9.5a8 8 0 0 1 2.9 1c.3.2.5 2.7.7 5.5.1 3.3-.1 4.3-1.4 6.7l-2 2.7c-.2.4.7 2.4.7 2.4-1.4.6 7.3-.2 9 1.2.8.8 1 .7 2.5 0 .5-.3 1-.4 1.3-.5l-2-5.6h-.4c-.5-.3-.9-.8-.9-1.3s-.2-1.2-.5-1.5a52 52 0 0 1-1.4-9c-.7-6.5-.8-8.8-.3-10.3.5-1.6.5-2.2-.5-3.8-1-1.7-1.6-5.5-2.5-13.3-.3-2-.1-2.9.5-3.5 1.3-1.3.8-2.3-.4-2.3zm-4.8 13.2h.1a6.4 6.4 0 0 1 .5 1.3 11.3 11.3 0 0 1 .5 2.3 28 28 0 0 1 .2 2.6l.2 3.5a36.6 36.6 0 0 0 .4 3.2l-1.1.1a18.7 18.7 0 0 1-1.8.1 4 4 0 0 1-1-.2 2.6 2.6 0 0 1-.6-.3V354.6a5.6 5.6 0 0 1 0-1 27.6 27.6 0 0 1 .5-2.9l.7-3.3a97.8 97.8 0 0 0 1-4.5l.1-.1.1-.2h.2z"/><path d="M665.6 329.7c-1.7 0-3.4.3-4.3.9-1 .7-1.5.8-2.3.3-1.3-1-2.2-.9-3.5.1-1 .9-1 .9 0 1.7 1 .7 1 1.3.8 7.8 0 4.2-.4 8-.9 9-.5 1.3-.5 1.8 0 2.7 1.8 2.3.6 13.8 0 18.7-.3 2.2-.4 2.3-2.9 2.3-1.1 0-1.7 0-1.4.2.4.1.7.5.7.8l-.4.2 2 5.6c.4 0 .7 0 .9.3.1.1 9.1 1.5 9 1.1l.6-1.9c.8-1.9.9-2.6.2-2.6-1.3 0-1.7-3.4-1.6-13l.2-10c1.6-.2 3.4-.6 4.9.2.3.4.6 4.7.6 11.9.1 10.9.2 11.4 1.6 14.4.8 1.8 1.6 3.2 1.8 3.2.2 0 1-.7 1.7-1.7.8-.9 2-1.6 2.6-1.6.8 0 1-.2.6-.7-.4-.3-.5-.9-.4-1.3.1-.4-.2-1.4-.8-2.3-1.4-2-1.9-7.8-1.2-15 .3-4.3.2-5.2-.7-7.3-.6-1.2-1.5-2.6-1.9-3-1-.8-1-1.5 0-2.7 1.4-1.4 2.7-7.6 2.3-10.4-.5-3-2-5.8-4-7-.8-.6-2.5-1-4.2-1zm-.9 3.8c1.5.1 3.3 1.8 3.3 4 0 5.2-.5 8.3-1.4 9.6-1 1.6-2.1 1.8-3.3.6-.6-.6-.9-2.2-.9-6.5 0-3.1.3-6.1.6-6.7.4-.7 1-1 1.7-1z"/><path d="M687.8 534.3c-.2-.6-.2-1.8 0-2.7.1-.9 0-1.8-.4-2-.3-.2-.4-.6-.3-.9.3-.3 0-.5-.2-.5-.3 0-.6.4-.6.8 0 .5-.2.9-.5.9s-.4-.9-.3-1.8l.8-11.3c0-1.3.1-1.5.6-.8.5.6.6.6.3-.3a2 2 0 0 1 .3-1.7c.4-.6.4-.8 0-.8s-.6.3-.6.5c0 .4-.4.6-.9.6-.8 0-1 1.4-1 4.3 0 .4-.2.7-.4.7-.3 0-.5-4.3-.5-9.6 0-10.9 0-11.5-.7-11.5-.2 0-.4.4-.5 1l-.2 7.8c0 3.7-.4 7-.5 7.1-.2.3-.4-.2-.4-1s-.1-1.6-.3-1.8c-.7-.6-.6-2.6 0-2.6.3 0 .3-.2-.1-.4-.4-.3-.7-1.3-.6-2.4v-10c-.2-7.2-.3-8.3-1.1-8.4H648c1.5-1.8 9.6-1.8 6.8-3.3-.6-.4-2.5-.7-4.2-.8-5.3-.2-5.7-.2-5.4-.6a8 8 0 0 1 2.5-.4c2.6 0 3.5-.8 2.3-1.5-.6-.5-.3-.5.9-.3l1.6.4-1.3-1.2-1.4-1.1 6.2.2c3.4.1 6.4 0 6.6-.2.3-.5-3.7-1.2-8.3-1.4-5.3-.3-3.8-1.1 2.7-1.4l5.2-.4c-1.1-.1-1.4-1.7-.3-2 .3-.2 4.7-.4 9.6-.6 4.8-.2 9-.5 9.2-.8l1.8-74-2-2.2c-2.4-2.6-2.6-3.4-1-3.4 1.7 0 2.3-1.9 2.2-6.8 0-2.5.1-9.6.4-15.7.4-10.9.3-11.2-.9-13.6l-1.2-2.4 1.2-2.2c1.1-2 1.2-3 1.2-11.2-.1-8.9-.1-9-1.5-10.2-1.7-1.5-1.7-1.6 0-2.7 1.2-.8 1.5-.8 3 0 1.5.7 1.9.7 4.6-.3 3.7-1.5 8.7-1.3 10.5.3 1.5 1.4 4.8 8.4 5.5 11.8 1 2.9 1.3 5.8 1.6 8.7 0 2.7.5 5 1 6 .9 1.4.9 1.6-.2 4.5a31 31 0 0 0-1.5 8.6c-.5 8.6-3 21-5.4 27.8-1.5 4.2-3 6.3-5 7-.7.3-.7 68.7.3 69.8.2.2 6.2.3 13.3.3 11.9-.1 12.9.5 10.7.7-1.8.2-2.7 1-4 1.4-2.3.6-6.5-.2-8 2.2 1.3.4 4-.1 5.5-.1 1.7 0 5.6-1 5.4-.6-.4.7 0 .8 3.9.9.6 0 1 .3 1 .6s-.5.2-1 .4c-4.8.6-.4 1.3 1.1 1.6.5 0 .8.2.8.5 0 .6-1.4 1-4.3 1.3-2.7.3-3 1-.4 1 2 0 2 .1.8.5l-3.6.5h-2.2l1.4 1c3.5.7 6 1.4 6 1.8 0 .3-.7.5-1.7.5s-5.6 0-10.2.3l-10.3.6c-2.4 0-3.2.6-3.3 2.1l-.3 6c-.4 10.3-.4 11.6 0 12 0 .3.4 3.6.5 7.2.3 4.9 0 7.4-.5 9.2-.4 1.5-.8 2-.8 1.2 0-.7-.2-1.2-.6-1.2-.2 0-.5.1-.5.4.3 1.3 0 3.4-.6 3.4-.3 0-.4-.3-.2-.7.2-.5-.2-1.4-.8-2-.7-.6-1.2-1.3-1.2-1.5 0-.3-.3-.5-.7-.5-.4 0-.7.9-.8 2l-.4 4.4c-.8 6.2-1 7-1.6 5zm6.6-143.1c1.6-1.6 3.1-11.3 2.2-13.6a5 5 0 0 1 .1-4.6c1.1-2.3.7-13.5-.6-16.2-1-2-1-2.1.2-4.2.9-2 1-3.3 1-9.7 0-9.6-1-11.6-5.5-11-1.3.3-1.3.3-1.5 9.3-.1 8.2 0 9.2 1 11.3l1.2 2.3-1.1 2.2c-1.2 2-1.3 3-1.5 17.4-.3 13.6-.2 15.5.6 16.8 1 1.4 2.5 1.4 4 0z"/></g></svg>