<svg xmlns="http://www.w3.org/2000/svg" viewBox="0 0 512 512" xmlns:v="https://vecta.io/nano"><g fill="none" stroke="#304022" stroke-linecap="round"><g stroke-linejoin="bevel"><g stroke-width="10.85"><path d="M260.1 142.5c-.4-66.4-78.4-100.4-126.2-53.3-45.4 47.1-14.1 128 52.3 128.6m0 .3c-40.1-.7-74.7 35.5-73.8 75.3-.9 39.8 33.7 76 73.8 75.3m148-150.9c66.5-.6 97.8-81.5 52.3-128.6-47.6-47.2-125.9-13-126.2 53.3"/><path d="M186.2 218.1c-66.5.6-97.7 81.4-52.3 128.6 47.6 47.2 125.9 13 126.2-53.3m74.1-75.6c66.5.7 97.8 81.5 52.3 128.7-47.6 47.1-125.9 13-126.2-53.3"/></g><path d="M429.1 141.6C427.4 40.1 294.3 9.4 250.8 102.1m10.5-19.3C204 10.3 91.7 51.2 91.1 142.5" stroke-width="5.43"/></g><path d="M90.8,142.5V368.7M429.1,142.5V368.7" stroke-linejoin="round" stroke-width="5.43"/><g stroke-linejoin="bevel" stroke-width="4.07"><path d="M88.6,368.5c0-24.2-31.1-34.7-48-18.9s-4.2,45.1,19.7,45"/><path d="M60.3 394.6c-23.9-.4-38.2 27.3-20.2 44.8s47.9 5.8 48.2-18.3m178.4 26.3c-15.3-.7-19.8-21.9-11-32.3 11.1-12.8 26.9-1.2 26.4 13.4"/><path d="M282.1,428.5c-.4-14.6,15.4-26.2,26.5-13.4,8.8,10.4,4.3,31.6-11,32.3"/></g></g><path d="M84.8 420.4c0-4.1-.1-7.5-.3-10.8h6.2l.4 6.6h.2a14.2 14.2 0 0 1 12.9-7.5c5.3 0 13.7 3.3 13.7 16.9v23.6h-7.1v-22.8c0-6.4-2.3-11.7-9-11.7a10.2 10.2 0 0 0-9.5 7.4 11.1 11.1 0 0 0-.4 3.3v23.8h-7.1zm52.8-22.1v11.3h10.1v5.5h-10.1v21.4c0 4.9 1.4 7.7 5.3 7.7a17.3 17.3 0 0 0 4.1-.5l.3 5.4a18.5 18.5 0 0 1-6.2.9c-3.3 0-6-1-7.7-3s-2.7-5.6-2.7-10.3v-21.6h-6v-5.5h6v-9.4zm18.1 23.7c0-4.7-.1-8.7-.3-12.4h6.2l.2 7.8h.3c1.8-5.3 6-8.7 10.8-8.7a6 6 0 0 1 2 .3v6.8a8.3 8.3 0 0 0-2.4-.3c-5 0-8.5 3.9-9.5 9.3a16.9 16.9 0 0 0-.3 3.3v21.1h-7zm29.4 8.7c.2 9.8 6.3 13.8 13.4 13.8a24 24 0 0 0 10.7-2.1l1.2 5.2a31.7 31.7 0 0 1-12.9 2.4c-12 0-19.1-8-19.1-19.9s6.9-21.4 18.2-21.4 16.1 11.4 16.1 18.7a20.6 20.6 0 0 1-.3 3.3zm20.8-5.1c0-4.6-1.9-11.7-9.9-11.7s-10.2 6.7-10.8 11.7zm150.4 12.8q0 6.2.3 10.8h-6.3l-.4-6.4h-.1a14.7 14.7 0 0 1-12.9 7.3c-6.1 0-13.4-3.4-13.4-17.3v-23.2h7v22c0 7.5 2.3 12.6 8.7 12.6a10.3 10.3 0 0 0 9.4-6.6 10.6 10.6 0 0 0 .6-3.7v-24.3h7.1zm10.7 3.5a18.3 18.3 0 0 0 9.4 2.8c5.1 0 7.5-2.6 7.5-5.9s-2-5.3-7.2-7.2c-7-2.6-10.3-6.5-10.3-11.2 0-6.4 5.1-11.7 13.4-11.7a19.3 19.3 0 0 1 9.6 2.5l-1.8 5.2a14.5 14.5 0 0 0-7.9-2.3c-4.2 0-6.5 2.5-6.5 5.4s2.3 4.8 7.4 6.7c6.7 2.7 10.2 6.1 10.2 12s-5.3 11.8-14.6 11.8a21.9 21.9 0 0 1-10.9-2.6zm66.4-32.3c-.2 2.9-.4 6.1-.4 10.9v23c0 9.1-1.7 14.7-5.5 18.1s-9.2 4.7-14.1 4.7-9.9-1.1-13-3.2l1.8-5.5a21.8 21.8 0 0 0 11.4 3.1c7.2 0 12.5-3.9 12.5-13.8v-4.5h-.1a14 14 0 0 1-12.4 6.7c-9.7 0-16.6-8.4-16.6-19.3 0-13.5 8.6-21.1 17.6-21.1 6.7 0 10.4 3.6 12.1 6.9h.2l.3-6zm-7.3 15.7a11.1 11.1 0 0 0-.4-3.3 10.3 10.3 0 0 0-9.9-7.6c-6.8 0-11.6 5.8-11.6 15s3.8 14.2 11.5 14.2a10.4 10.4 0 0 0 9.8-7.4 12.6 12.6 0 0 0 .6-3.8zm53.9 3.8c0 14.7-10 21-19.4 21s-18.6-7.8-18.6-20.3 8.5-21.1 19.3-21.1S480 417 480 429.1zm-30.9.4c0 8.7 4.9 15.2 11.8 15.2s11.9-6.4 11.9-15.3c0-6.8-3.3-15.3-11.7-15.3s-12 7.9-12 15.4z" fill="#304022"/></svg>