<svg xmlns="http://www.w3.org/2000/svg" viewBox="0 0 1024 320"><g fill-rule="evenodd" clip-rule="evenodd"><path fill="#B9FFE4" d="M31.3 96.6c12.7-5.7 37.1-13.1 83.5-18.1 46.3-5 114.6-7.4 147.8-8.8 33.2-1.4 31.5-1.8 37.1-2.1 5.7-.4 18.7-.7 37-2.5 18.2-1.8 41.6-5 103.6-8.8a12879.5 12879.5 0 01334.4-14.9c22-.4 41.6-.5 68.8-2.7 27.1-2.2 61.8-6.4 83-7.5 21.2-1.1 29 1.1 33.6 4.1 4.6 3 6 6.9 6.7 9.1.7 2.2.7 2.7-3.1 3.7a320 320 0 01-39.3 5.4 7800 7800 0 01-101.5 9.9c-25.3 2.3-27.6 2.3-2.8 1.1a8669 8669 0 00105-5.1c28.5-1.7 33.6-2.7 36.2.1 2.6 2.8 2.6 9.5 2.3 9.7-.3.2-.8-6.2-.1-5.7.7.5 2.7 8 8.3 10.9 5.7 2.9 15 1.3 22 .5s11.6-.8 14.2 2.3c2.7 3.1 3.4 9.3 3.7 18.1.4 8.8.4 20.3-.3 27.5-.6 7.2-1.9 10-5 13.2-3.2 3.2-8.3 6.7-20.3 9s-30.9 3.4-67.1 5.9a13041 13041 0 00-117.2 8.9c-27.7 2.3-29.6 2.8-29.9 3.4-.3.5 1.1 1.1 35.6.2 34.5-.9 102-3.2 136.6-4.5 34.6-1.3 36.2-1.7 27.9 2.4a320 320 0 01-40.3 17c-14.1 4.4-24.1 4.8-44.1 5.6-20 .8-49.9 2-76.7 3.5-26.9 1.5-50.7 3.3-69.6 5-18.8 1.7-32.6 3.3-48.3 2.7-15.6-.6-33.2-3.5-53.8-4.8a495.3 495.3 0 00-80.5 2.2c-36 3.4-84.1 9.9-109.7 14.2-25.6 4.3-28.8 6.5-19.7 6.4 9.1-.1 30.5-2.4 53.3-3.9 22.8-1.5 47-2.2 73.5-4.1 26.4-1.8 55.1-4.8 72.9-5.8 17.9-1 24.9.1 23.3 1.1-1.6 1.1-11.8 2.1-35.6 4.6-23.8 2.5-61.1 6.4-87 9.3-25.9 2.9-40.4 4.9-64.3 5.7-23.9.9-57.1.7-83.8 1.8-26.7 1.1-46.9 3.4-73.6 5.7-26.7 2.3-59.9 4.6-84.8 7.3-24.8 2.7-41.3 5.7-56.1 6.3-14.9.6-28.1-1.1-48.5-3.7s-48-5.9-63-8.2c-15-2.3-17.5-3.5-23.5-3.1-6 .4-15.6 2.6-15.5-2.7.1-5.3 9.8-18 17.2-25.6 7.4-7.6 12.6-10.1 19.6-11.3 7.1-1.2 16.1-1.2 20.9-2.6 4.8-1.4 5.3-4.1 3.4-6.9-1.9-2.7-6.1-5.5-15.4-9.6s-23.6-9.6-32.3-14.2c-8.7-4.6-11.7-8.3-14.1-13a32.8 32.8 0 01-4-15.5c.2-5.1 2.3-9.7 3.9-14 1.7-4.4 2.8-8.4 15.5-14.1z"/><path fill="#000" d="M83.7 175.8v-2.1h5.6c1.1 0 1.7-.6 1.7-1.7v-67.8c0-1-.6-1.4-1.7-1.4h-5.6v-2.1h37.9a57 57 0 0013.3-1.1 68 68 0 00-1.1 13.6v5.6h-2.7l-1.8-12.2c-.2-1.8-1.3-2.6-3.3-2.6h-25.1v32.6h24c1 0 1.5-.6 1.7-1.7l.6-7.4h2.1V149H127l-.6-7.4c-.2-1.1-.7-1.7-1.7-1.7h-24v32.6h26.7c2.1 0 3.2-.9 3.3-2.6l1.8-14h2.7v5.6c0 7 .4 12.1 1.1 15.4-2.5-.7-7-1.1-13.3-1.1H83.7zm87.1 1.4c-5.3 0-10.5-1.4-15.8-4.3a9.7 9.7 0 00-3.6-1.3c-1.2 0-1.8.8-1.9 2.5l-.1 1.7h-2.3v-19.9h2.1a19 19 0 006.9 13.6c3.9 2.9 8.4 4.4 13.7 4.4 5.3 0 9.3-1.4 12.1-4.3 2.7-2.9 4.1-6.2 4.1-10.2 0-6.2-3.6-10.9-10.7-14.1l-14.2-6.3a19.7 19.7 0 01-12.9-18.5c0-5.8 2-10.8 5.9-15 3.9-4.2 9.5-6.3 16.8-6.3 4.3 0 8.7 1.4 13.3 4.3 1.5.9 2.5 1.3 3.1 1.3 1 0 1.6-.8 1.7-2.5l.1-2.4h2.3v20.7h-2.1a20.3 20.3 0 00-5.9-13.6 17.7 17.7 0 00-12.1-4.4 15 15 0 00-11 3.9 12.1 12.1 0 00-3.9 8.8c0 3.3.9 6.3 2.7 8.9 1.8 2.6 4.4 4.7 7.9 6.2l14.3 6.3c4.8 2.1 8.4 5 10.8 8.4a19.4 19.4 0 01-3.2 25.9 25.4 25.4 0 01-18.1 6.2zm89.3-1.4l-.1-1.7c-.1-1.7-.7-2.5-1.9-2.5-.6 0-1.8.4-3.5 1.3a32.5 32.5 0 01-40.3-6.1 40.5 40.5 0 01-9.6-28.6c0-12.1 3.2-21.7 9.5-28.7s14.6-10.4 24.8-10.4c5.2 0 10.3 1.3 15.5 3.9 1.7.9 2.9 1.3 3.6 1.3 1.2 0 1.8-.8 1.9-2.5l.1-2h2.3v20.7h-2.2a19 19 0 00-6.9-13.6 23.5 23.5 0 00-14.4-4.4c-7.2 0-13.1 3.2-17.5 9.6-4.4 6.4-6.6 15.1-6.6 26.2s2.2 19.7 6.7 26a20.5 20.5 0 0017.4 9.4c5.7 0 10.5-1.5 14.4-4.4 3.9-2.9 6.1-7.4 6.9-13.6h2.2v19.9h-2.3v.2zm78-75.2v2.1h-5.6c-1.1 0-1.7.5-1.7 1.4v48.4c0 8.3-2.4 14.5-7.2 18.6a28.6 28.6 0 01-19.2 6.2c-8 0-14.4-2.1-19.2-6.2-4.8-4.1-7.2-10.3-7.2-18.6v-48.4c0-1-.6-1.4-1.7-1.4h-5.6v-2.1h24.4v2.1h-5.6c-1.1 0-1.7.5-1.7 1.4v49.2c0 6.7 1.7 11.6 5 14.9 3.3 3.2 7.8 4.8 13.5 4.8s10.5-1.6 14.5-4.8c4-3.2 6-8.5 6-15.7v-48.4c0-1-.6-1.4-1.7-1.4h-5.6v-2.1h18.6zm61.4 75.2l-.1-1.7c-.1-1.7-.7-2.5-1.9-2.5-.6 0-1.8.4-3.5 1.3a32.5 32.5 0 01-40.3-6.1 40.5 40.5 0 01-9.6-28.6c0-12.1 3.2-21.7 9.5-28.7s14.6-10.4 24.8-10.4c5.2 0 10.3 1.3 15.5 3.9 1.7.9 2.9 1.3 3.6 1.3 1.2 0 1.8-.8 1.9-2.5l.1-2h2.3v20.7h-2.2a19 19 0 00-6.9-13.6 23.5 23.5 0 00-14.4-4.4c-7.2 0-13.1 3.2-17.5 9.6-4.4 6.4-6.6 15.1-6.6 26.2s2.2 19.7 6.7 26a20.5 20.5 0 0017.4 9.4c5.7 0 10.5-1.5 14.4-4.4 3.9-2.9 6.1-7.4 6.9-13.6h2.2v19.9h-2.3v.2zm63.7-3.8v-32.1h-34.9V172c0 1.1.6 1.7 1.7 1.7h5.6v2.1h-24.4v-2.1h5.6c1.1 0 1.7-.6 1.7-1.7v-67.8c0-1-.6-1.4-1.7-1.4h-5.6v-2.1h24.4v2.1H430c-1.1 0-1.7.6-1.7 1.7v32.1h34.9v-32.1c0-1.1-.6-1.7-1.7-1.7H456v-2.1h24.4v2.1h-5.6c-1.1 0-1.7.5-1.7 1.4V172c0 1.1.6 1.7 1.7 1.7h5.6v2.1H456v-2.1h5.6c1.1-.1 1.6-.6 1.6-1.7zm90.1 3.8h-24.5v-2.1h7.8l-8.4-23h-26.3l-8.4 23h7.8v2.1h-18v-2.1h4.4c1.1 0 1.9-.6 2.3-1.7l26.3-71.4h4.1l26.3 71.4c.4 1.1 1.2 1.7 2.3 1.7h4.4v2.1h-.1zm-38.1-61.1l-11.9 32.6H527l-11.8-32.6z"/><path fill="#FFBD4A" d="M675.5 45.8c-2.4-11.3-29.3 1.4-34.3 5.2a84 84 0 00-17 18.7A255.6 255.6 0 00612.4 90l.9-.9c-1.2 1.9-2.1 4-3.1 6.1-.2-.2.5-1.9.5-1.9-2.4-.5-9.5 19.4-9.9 21.3-.9 4.5-2.4 9-3.8 13.5-.9 2.8-1.9 5.9-2.4 8.7-.2.5-.7 5.2-.5 4.5l-.2 1.4v-.7c-.9.5-1.4 8-1.4 8.3-.7 2.1-1.4 4-1.9 6.1a92 92 0 00-2.1 23.4c.7 13.5 2.1 32.6 16.1 38.5 4.5 2.1 14.4 4.3 18.4-.2 3.5-4.5-1.9-4.7-4.7-5.7-8-2.6-8.5-13.9-8.5-21.3 0-4 .2-8.3.7-12.5.2-1.2.2-8.3.7-10.2l-.7 2.1c1.7-9.5 5.2-20.3 8-30 3.1-10.4 5.7-21 9.5-31.4-4.7 10.2-31.9 70.6-25.8 92.9-4.3-13.9 3.5-41.8 5.9-49.1 6.4-19.6 15.8-37.8 24.1-56.5l-2.4 6.4c1.4-2.6 13-28.1 18.9-37.8-3.8 5.7-9.5 16.5-11.6 20.8 5.7-12 13-28.1 24.8-34.7-.9.7-3.1 2.1-2.8 2.4 0 0 7.3-4 9-4l-.5-.2c2.7 0 9 1.4 7.9-3.5zm-69.7 162.3zM650.2 63c.7-1.2 1.2-1.7 1.7-1.9-.3.2-1 .7-1.7 1.9zm-1 .9l.9-.9-.9.9zm-44.1 143.5l.7.7-.7-.7zm43.7-142.5l.5-.9-.5.9zm115.7 8.5v.2c.2 3.3-3.8 5.9-6.6 6.6-3.1.9-6.6-.9-9.5-.5-1.7.5-1.2 1.2-2.6 1.7-2.1.7-4.7.5-6.9.5-3.1 0-9.7-1.7-12.3 0-.5.2-.9.7-1.4 1.4l.7-1.4c-1.4.2-3.8 6.6-5.4 10.9l2.6-5.2-3.3 9c-2.4 5-4.5 10.2-6.6 15.1a509.7 509.7 0 00-28.8 86.7c-.7 3.3-4.7 17-.2 18.9.7.5 5.7-2.4 5.4-2.1 1.2-1.2 2.6-2.4 3.8-3.8-.9.7-3.5 2.8-3.5 2.4-.2-1.4 5.7-6.1 6.6-7.3 2.4-2.4 4.5-5 6.6-7.3l13.7-16.8c8.5-10.6 16.5-21.5 25-32.1 1.9-2.4 6.1-10.6 9.2-11.3 3.8-.7 4.5 3.1 3.3 6.1-2.1 6.4-8.5 11.6-11.8 17.2-5.9 9.9-13 19.1-19.8 28.6-7.6 10.2-15.1 20.3-23.4 30-3.8 4.7-8.7 11.3-14.6 14.2-4.5 2.1-10.4-.5-14.2-3.3a18 18 0 01-7.6-11.8c-.2-1.4-1.7-9-.2-10.6v3.5l.5-4.7c-.5.9-.5-2.1-.5-2.6 0-1.9.5-4 .9-5.9a88 88 0 012.4-11.1c1.7-7.3 3.5-14.6 5-22.2 1.2-7.6 3.8-14.6 6.1-21.7.5-1.2 5.2-15.6 6.4-15.6.2 0-.5 2.8-.5 3.1.9-3.5 2.4-7.1 3.5-10.6-.5 1.2-1.2 2.4-1.2 1.9 0-2.8 3.1-7.8 4-10.4l2.8-8.3c2.6-7.6 5.2-15.1 8.5-22.2-6.6.5-13 0-19.1 1.2-9 1.7-20.3.7-29.3-.5-1.2-.2-6.9-.5-5.4-3.1.5-.7 5.7-1.9 6.6-2.1 4.5-1.7 9.2-1.7 13.9-1.9 9.2-.9 18.2-.5 27.4-1.7 2.4-.2 6.4.5 8.5-.5 2.1-.7 2.1-2.4 3.1-4.5 1.7-4.3 3.5-8.5 5.4-12.5 2.1-4.5 4-9.2 6.9-13.2 1.9-2.6 3.8-3.3 5.2-6.1a75.3 75.3 0 0110.6-18.2c4.7-6.1 13-7.1 20.3-5.7 3.5.7 8.5 2.8 6.9 7.6-.7 1.9-3.1 3.1-4.5 4.5 0 .2 2.1-2.1 2.1-1.2-.2 1.7-9 13.7-9.7 13.5-.2 0 3.3-5.9 3.5-6.4a339 339 0 00-23.6 42.1c.7 0 1.4-.9 2.4-2.6l-1.2 2.6c9.2-.5 18.7-.5 28.1-.9 2.1-.3 5.6-2.9 5.8.4zm-44.9 13.7c9.5-20.1 18-40.9 30.7-59.1-18.9 26.7-30.7 58.4-43.9 87.9a387.8 387.8 0 00-19.6 53.4c-2.4 8.3-4.3 16.5-5.9 25l1.2-4.5a266 266 0 0110.4-32.8c8.5-23.4 16.5-47.5 27.1-69.9zm15.6-23.4l5.7-10.9c-1.2.3-3.3 5.5-5.7 10.9zm-24.3 51.5c0-.2 0-.5.2-.9-2.1 4.7-3.8 9.5-5.7 13.9 2-4.2 3.8-8.5 5.5-13zm21.3-44.6c.7-1.4 1.7-3.3 2.4-5.2l-2.4 5.2zm-51.5 148.8l-.7-.5c.2.3.4.5.7.5zm150.9-81.5c0 .2 0 .2-.2 0v-.2c-3.8-6.4-8.7 2.4-10.9 5.4-4 5.4-7.8 10.6-12 15.6-3.5 4.3-7.3 8.5-10.2 13 0 .5-.5 1.7-.5 1.7-.9 1.4-2.4 2.6-3.5 4-2.1 2.1-4.3 4.5-6.6 6.6-3.5 3.3-23.4 22-26 9.9-1.4-5.9.5-13.2 1.7-18.9.7-3.1 1.4-5.9 1.9-9 .5-2.4-.2-4.7.9-7.1.7-1.4.9-1.2 2.6-1.7l4-1.4a42.6 42.6 0 0017.5-10.6 55 55 0 0018.2-22.7c1.7-5.2 1.9-10.9-1.4-15.4-3.1-4-8.3-6.1-13-7.1-12.8-2.4-22.4 5-29.8 14.6a93.7 93.7 0 00-18.4 38.7c-1.7 6.9-2.6 13.7-3.8 20.8-1.2 7.1-1.9 13.7 1.9 20.3-.2-2.4-.7-4.5-.7-6.6 0-1.2.5-2.4.5-3.3 0-.5-.5-1.9-.5-2.6 0-2.1.5-3.8.9-5.9.2-2.1 0-4.3.2-6.4.2-2.4 1.2-4.3 2.1-6.4.7-1.9.9-3.5 1.7-5.4l1.9-5.4c.2-1.2 1.4-2.6 2.1-4-.7 2.1-2.1 4-2.6 5.9-.7 2.8-.2 5.9-.5 8.7-.5 3.1-1.4 6.1-1.9 9.5-.5 3.1-1.9 5.9-2.4 9-.5 2.8-1.4 5-1.2 7.8 0 1.7.2 3.3.5 4.7.2 1.9 1.4 3.1 2.6 4.5 4 4.7 9.5 8.5 15.6 10.2 4.3 1.2 8 .9 12.1-1.2a63.5 63.5 0 0014.9-12.3c4-4.5 7.1-9.5 10.6-14.2 3.3-4.3 7.3-8.3 10.6-12.5l12.8-16.5 7.3-9.7c1.3-1.3 2-2.5 1-4.4zm-58.6 2.6l.2-.7c3.5-7.6 6.1-15.6 11.1-22.9l4.3-5.7c.9-1.2 2.6-3.3 4.3-3.8 3.5-.7 4.5 5.4 4.3 7.8l-.9 5c-.2 1.4.2 2.4 0 3.5-.5 1.4-1.7 2.1-2.4 3.3l-4 5.2a67.7 67.7 0 01-19.8 15.8c1-2.5 1.8-5.1 2.9-7.5zm128.3-59.3c.5 8 0 16.1-1.7 24.1-.5 2.6-1.4 4.7-2.1 7.1-.2.7-.5 7.8-1.4 8.3v-.7l-.5 1.4c.5-.5 0 4-.2 4.5l-2.4 8.7c-1.4 4.5-2.8 9-4 13.5-.5 1.9-7.6 21.7-9.7 21.3-.2 0 .7-1.7.5-1.9-.9 2.1-1.9 4.3-3.1 6.1.2-.2.5-.7.9-.9 1.2.5-14.4 23.9-15.8 25.5A56.5 56.5 0 01842 215c-6.9 3.1-13.5 6.9-21.5 5.7-3.1-.5-8-2.8-5-6.6 1.9-2.1 4.3-.7 6.6-.5l-.2-.2c1.4 0 8.7-4 9-4 .2.2-1.9 1.7-3.1 2.4 11.6-6.6 18.9-21.7 24.6-33.8-3.5 6.9-12.8 23.6-14.4 23.6 1.7-.5 13.7-23.4 14.6-25.5 4.5-9.2 8.5-18.9 11.6-28.8 5.7-16.8 12-35.9 14.6-53.2l-.2.7.5-7.3c.5-2.8.7-5.9.7-9a55 55 0 00-1.2-19.8c-1.4-5-3.5-6.9-8.3-8.5-2.4-.7-5.9-1.4-3.8-5 2.6-4 12.1-3.1 15.8-1.9 3.5.9 6.9 2.6 9.5 5.4 7.3 7.8 8.7 20.6 9.5 31.2v.7c.3 3.4.3 1.8 0 .6zM861.4 157l-2.4 6.1 2.4-6.1zm-5 11.8l1.9-4.5-1.9 4.5zm1.9-4.4l.2-.2c0-.2.2-.7.5-.9-.2 0-.2.2-.5.7l-.2.4zm.5-.8l.2-.5-.2.5z"/><circle fill="#000" cx="567.1" cy="142.1" r="8.5"/><path d="M258 252.1c-11.3 0-19.2 9-19.2 21.6 0 12.6 7.1 21.3 18.4 21.3 10.5 0 15.9-6.3 17-13.9l.1-.6h-3.7l-.1.6c-1.3 6.3-5.3 10.9-13 10.9-8.4 0-14.5-7-14.5-18.5 0-11.2 6.4-18.5 14.9-18.5 7.4 0 11.5 4.4 12.7 10.7l.1.6h3.7l-.1-.6c-1.1-7.8-6.4-13.6-16.3-13.6zm36.3 9.6c-10 0-15.4 7.4-15.4 16.7 0 9.3 5.3 16.6 15.4 16.6 10 0 15.4-7.4 15.4-16.6 0-9.4-5.3-16.7-15.4-16.7zm0 30.4c-6.6 0-11.3-5.1-11.3-13.7s4.7-13.7 11.3-13.7c6.6 0 11.3 5.1 11.3 13.7s-4.7 13.7-11.3 13.7zm40.5 2.1h3.7a78 78 0 01-.6-8.9v-11.1l-.1-4.2c-.5-5.2-3.8-8.4-10.8-8.4-6.7 0-11.4 4-11.8 10.2h3.9c.5-4.9 3.6-7.2 8-7.2 4.5 0 6.8 2.1 7.1 5.7l.1 3.9v1.1h-2c-11.4 0-18.3 3.5-18.3 10.8 0 5.7 4.2 8.8 10 8.8 3.5 0 6.6-1 8.8-3.2l1.6-3.3.4 5.8zm-9.7-2.1c-4.6 0-7.1-2.2-7.1-6.2 0-6.1 7.4-8.2 16.3-7.6v3.6c-.1 6-3.7 10.2-9.2 10.2zm33.8-30.4c-8 0-14.7 6.2-14.7 16.7 0 11.2 6.2 16.6 14.1 16.6 6.8 0 12-3.7 13.5-10.7H368c-1.1 5.1-4.7 7.8-9.4 7.8-5.3 0-10.2-4.2-10.2-14 0-9.1 5.2-13.5 10.5-13.5 5.1 0 8.3 2.9 9.3 8.3h3.9c-1-6.7-5.9-11.2-13.2-11.2zm44.7 9.4c-.6-5.8-4.4-9.4-11.1-9.4a12 12 0 00-8.9 3.5l-1.7 3.4v-18.7h-3.7v44.3h3.7v-15.7c0-9.9 4.6-13.6 9.9-13.7 5.3-.1 7.7 3 8.1 7.4l.1 4.8v17.3h3.7v-17.7l-.1-5.5zm10.4-17.9a2.5 2.5 0 00-2.5 2.5c0 1.4 1.1 2.5 2.5 2.5s2.5-1.1 2.5-2.5c.1-1.4-1-2.5-2.5-2.5zm1.9 41v-31.6h-3.7v31.6h3.7zm34.3-23.1c-.6-5.8-4.4-9.4-11.1-9.4a12 12 0 00-8.9 3.5l-1.7 3.4v-6.1h-3.7v31.6h3.7v-15.7c0-9.9 4.6-13.7 9.9-13.7 5.3 0 7.7 3 8.1 7.4l.1 4.8v17.3h3.7v-17.7l-.1-5.4zm34.9-8.6h-3.7v5.5l-2-3.4c-2-1.9-5-2.9-8.1-2.9-8 0-15.1 5.6-15.1 17 0 9.4 5.3 16.3 14.1 16.3 3.6 0 6.8-1 9-3.2l2.1-3.5v.8l-.1 4.7c-.2 6.3-3.8 10.3-10.5 10.3-5.3 0-9.1-2.5-9.6-7.2l-.1-.7h-3.7l.1.7c.8 6.9 5.6 10.1 13.4 10.1 8.7 0 13.9-5 14.2-13.4l.1-7.4v-23.7h-.1zm-14.2 29.6c-6.9 0-10.6-6.2-10.6-13.8 0-8.6 4.7-13.6 11-13.6 4.7 0 10.1 3.1 10.1 12v2.4c0 9.6-4.9 13-10.5 13zm52.9-40c-12 0-19.1 8.9-19.1 21.5 0 12.4 7.1 21.5 19.1 21.5 12.1 0 19.2-9 19.2-21.5 0-12.6-7.1-21.5-19.2-21.5zm0 39.9c-8.9 0-15-6.9-15-18.5s6.2-18.5 15-18.5c8.9 0 15.1 6.9 15.1 18.5s-6.1 18.5-15.1 18.5zm51.3-20.9c-.6-5.8-4.4-9.4-11.1-9.4a12 12 0 00-8.9 3.5l-1.7 3.4v-6.1h-3.7v31.6h3.7v-15.7c0-9.9 4.6-13.7 9.9-13.7 5.3 0 7.7 3 8.1 7.4l.1 4.8v17.3h3.7v-17.7l-.1-5.4zm13.4-5.5h6v-2.9h-6v-7h-3.7v7h-4.1v2.9h4.1v19.9l.1 4.1c.3 3.5 2.2 5 5.7 5 1.3 0 2.6-.1 3.8-.3v-2.8c-4.2.5-5.6-.2-5.8-3.3l-.1-2.8v-19.8zm24.5-3.9c-10 0-15.4 7.4-15.4 16.7 0 9.3 5.3 16.6 15.4 16.6 10 0 15.4-7.4 15.4-16.6 0-9.4-5.3-16.7-15.4-16.7zm0 30.4c-6.6 0-11.3-5.1-11.3-13.7s4.7-13.7 11.3-13.7c6.6 0 11.3 5.1 11.3 13.7s-4.7 13.7-11.3 13.7zm25-41.9h-3.7v35.7l.1 4.2c.2 3.4 2 4.2 4.5 4.2 1 0 2 0 2.9-.2v-2.8c-2.7.3-3.6-.2-3.7-2.3l-.1-3.4v-35.4zm23.4 9.3l4.7-6.6h-3.6l-3.6 6.6h2.5zm-1 2.2c-10 0-15.4 7.4-15.4 16.7 0 9.3 5.3 16.6 15.4 16.6 10 0 15.4-7.4 15.4-16.6 0-9.4-5.3-16.7-15.4-16.7zm0 30.4c-6.6 0-11.3-5.1-11.3-13.7s4.7-13.7 11.3-13.7c6.6 0 11.3 5.1 11.3 13.7s-4.7 13.7-11.3 13.7zm47.9-29.6h-3.7v5.5l-2-3.4c-2-1.9-5-2.9-8.1-2.9-8 0-15.1 5.6-15.1 17 0 9.4 5.3 16.3 14.1 16.3 3.6 0 6.8-1 9-3.2l2.1-3.5v.8l-.1 4.7c-.2 6.3-3.8 10.3-10.5 10.3-5.3 0-9.1-2.5-9.6-7.2l-.1-.7h-3.7l.1.7c.8 6.9 5.6 10.1 13.4 10.1 8.7 0 13.9-5 14.2-13.4l.1-7.4v-23.7h-.1zM694 292.1c-6.9 0-10.6-6.2-10.6-13.8 0-8.6 4.7-13.6 11-13.6 4.7 0 10.1 3.1 10.1 12v2.4c.1 9.6-4.8 13-10.5 13zm25-38.9a2.5 2.5 0 00-2.5 2.5c0 1.4 1.1 2.5 2.5 2.5s2.5-1.1 2.5-2.5-1.1-2.5-2.5-2.5zm1.8 41v-31.6h-3.7v31.6h3.7zm21-32.5c-8 0-14.7 6.2-14.7 16.7 0 11.2 6.2 16.6 14.1 16.6 6.8 0 12-3.7 13.5-10.7h-3.8c-1.1 5.1-4.7 7.8-9.4 7.8-5.3 0-10.2-4.2-10.2-14 0-9.1 5.2-13.5 10.5-13.5 5.1 0 8.3 2.9 9.3 8.3h3.9c-1-6.7-5.9-11.2-13.2-11.2zm32.1 0c-10 0-15.4 7.4-15.4 16.7 0 9.3 5.3 16.6 15.4 16.6 10 0 15.4-7.4 15.4-16.6-.1-9.4-5.4-16.7-15.4-16.7zm0 30.4c-6.6 0-11.3-5.1-11.3-13.7s4.7-13.7 11.3-13.7c6.6 0 11.3 5.1 11.3 13.7s-4.7 13.7-11.3 13.7z"/></g></svg>