<svg viewBox="0 0 256 256" xmlns="http://www.w3.org/2000/svg"><path fill="indianred" d="M1.4 84.3c.8-19 14.8-43.5 38-55.3a70.6 70.6 0 0188.9 23.4 71.8 71.8 0 0141.9-28.9c-2 6.1-3.7 11.9-5.8 17.5-4.1 10.7-8.4 21.4-12.7 32.1-.4 1.1-1.8 2.8-2.2 2.6-1.3-.5-2.5-1.6-3.6-2.6-.5-.5-.7-1.4-1.1-2.1a15.8 15.8 0 00-17.5-8.1c-7.7 1.5-12 6.1-13 14l-.1.9c-.9 11.7 3.9 16.9 15.6 16.9l4.4-.2c3.3 0 4.3 1.3 2.7 4.1-4.1 7.1-8.5 14.1-12.8 21.2-1 1.6-2 1.6-3.6.8-9.4-4.7-18.8-9.4-28.4-13.8-4.4-2-8.9-3.7-13.6-4.8-6.5-1.7-10 1.3-10.1 8-.1 3.3.3 6.7.1 10-.5 6.1-5.6 9.5-11.5 7.8l-1.7-.6c-8.3-3.7-9.2-8.5-2.6-14.7l2.9-2.5c5.3-4.5 4.5-11.4-1.7-14.7-2.2-1.1-4.5-2-6.9-2.5L4.1 84.7l-2.7-.4zM90.7 189.6l3.6 3.7a38 38 0 003.7 3.3c10.7 8.1 24.5 3.6 28.4-9.3.8-2.8.6-5.4-.9-8a18.6 18.6 0 00-10.8-8.7c-2.4-.7-5.2.3-7.8.3-1.4 0-3.7.2-4-.5-.6-1.3-.7-3.5 0-4.7 6.7-11.8 12.3-24.2 21.1-34.8l1.1-1c5.4 2.8 10.8 6 16.4 8.4a203 203 0 0020.2 7.4c5.8 1.7 11.8-4.3 11-10.5-.2-1.9-1.2-3.8-1.2-5.8 0-1.8.4-4 1.5-5.3 1.3-1.7 3.4-3 5.4-3.9 4.5-2 8.3-.9 10.9 2.9 3.2 4.6 3.1 8-.5 12-1.6 1.7-3.5 3.2-5 5-4.1 4.7-3.2 9.9 2.5 12.5 2.7 1.2 5.8 1.7 8.8 2.1l26.9 3.4 2.4.4-4.6 5.6a315.8 315.8 0 01-67.4 56.1c-7.2 4.6-14.8 8.6-22.1 13-1.5.9-2.7 1-4.3.2-14.4-7-28.2-15.3-41.2-24.6-.6-.4-1.4-1.5-1.2-2 1.9-5.6 4-11.1 6.1-16.6a3 3 0 001-.6z"></path><path fill="skyblue" d="M129.1 124.9c1.1-1.5 2.1-2.7 2.9-4.1 3.7-6.6 7.6-13.1 11-19.9 3.6-7.4-.8-13.4-9.2-12.9-2.4.1-4.9.4-7.3.1-4.2-.5-5.4-2.1-5.7-6.2a24 24 0 010-3.8c.4-5.1 2.6-7.8 7.2-8.8 4.8-1.1 8.7.5 11.1 4.6l1.2 2.4c2 3.7 5 5.8 9.2 6 3.9.2 6.5-2 8.2-5.3 1.7-3.3 3.4-6.7 4.7-10.2l13.5-39c.6-1.7.9-3.6 1.4-5.4 6.9 0 13.8-.9 20.5.2a66.6 66.6 0 0136.3 18.2 67.8 67.8 0 0119.5 33.3 66.1 66.1 0 01-6.4 50.4c-4.8 9.1-10.8 17.6-16.3 26.2-.5.8-2.1 1.6-3 1.5-11.7-1.3-23.4-2.8-35.1-4.4-1.6-.2-3.1-.9-5.2-1.5.9-1.3 1.4-2.2 2.1-2.9l3.2-3.1c6.6-6.6 7.1-13.9 1.4-21.5-4.7-6.3-12.5-7.7-20.1-3.6-8 4.2-10.3 9.6-8.3 18.3.4 1.5.4 4.1-.5 4.8-1.1.9-3.4.8-5.1.5-11.3-2.6-20.9-8.7-31.2-13.9z"></path><path fill="skyblue" d="M0 90.6c6.5 1 12 1.7 17.5 2.7 9 1.7 17.9 3.5 26.9 5.4 1.6.3 3.2.9 4.8 1.5 4.2 1.6 4.4 2.9 1.2 6.1a37.6 37.6 0 00-7.2 8.8 11.3 11.3 0 00-.6 8.1C45.5 132 58 137 66.4 133.3c5.6-2.5 8.2-6.9 8.6-12.7.2-2.8 0-5.7 0-8.5v-4.3c2.3.5 4.2.7 5.8 1.4l37.7 17c-2.7 4.3-5.1 7.9-7.3 11.7l-13.4 23.3c-1.9 3.4-2.6 7-1.5 10.8 1.1 3.9 3.6 5.7 7.6 5.7 1.8 0 3.5-.3 5.3-.6 4.1-.8 8.9 1.5 10.7 5.3.4.8.5 1.9.4 2.8-1.3 7-9.7 11.1-15.8 7.7a27.8 27.8 0 01-6.8-5.6c-5.7-6.2-10.5-5.8-14.6 1.6-1.9 3.5-3 7.5-4.4 11.2l-1.4 3.7c-8.2-7.1-16.2-13.8-23.8-20.9a219.1 219.1 0 01-33.8-40 123.3 123.3 0 01-17.5-37C1 101.2.8 96.2 0 90.6z"></path></svg>