<svg xmlns="http://www.w3.org/2000/svg" viewBox="0 0 1024 908" class="svg-src"><defs><path d="M4.156 0v-60.516h6V0zm4.172-26.719v-5.578h19.766v5.578zm0-28.219v-5.578h21.844v5.578zm0 0" id="logo-a"/><path d="M5.453-52.141v-6h5.984v6zM5.453 0v-43.203h5.984V0zm0 0" id="logo-b"/><path d="M15.563.625c-4.355 0-7.621-1.07-9.797-3.219C3.586-4.75 2.5-7.988 2.5-12.312h5.531c0 2.605.625 4.559 1.875 5.859S13.039-4.5 15.563-4.5c2.531 0 4.414-.617 5.656-1.859 1.25-1.25 1.875-3.125 1.875-5.625 0-1.469-.352-2.629-1.047-3.484-.687-.863-1.594-1.562-2.719-2.094s-2.367-.988-3.719-1.375a97.37 97.37 0 0 1-4.359-1.391c-1.48-.508-2.84-1.187-4.078-2.031-1.23-.852-2.23-2.008-3-3.469-.762-1.457-1.141-3.348-1.141-5.672 0-4.164 1.008-7.281 3.031-9.344 2.031-2.07 5.086-3.109 9.172-3.109 4.07 0 7.117 1 9.141 3 2.031 2 3.047 5.027 3.047 9.078h-5.531c0-2.332-.559-4.07-1.672-5.219-1.105-1.156-2.766-1.734-4.984-1.734s-3.887.602-5 1.797c-1.105 1.188-1.656 2.977-1.656 5.359 0 1.637.383 2.93 1.156 3.875.781.938 1.805 1.668 3.078 2.188a35.89 35.89 0 0 0 4.078 1.344 53.8 53.8 0 0 1 4.172 1.281A14.02 14.02 0 0 1 24.844-21c1.133.844 2.051 1.984 2.75 3.422.695 1.43 1.047 3.293 1.047 5.594 0 4.219-1.086 7.375-3.25 9.469S19.945.625 15.563.625zm0 0" id="logo-c"/><path d="M16.141.625c-3.937 0-6.992-1.094-9.156-3.281C4.828-4.852 3.75-7.945 3.75-11.937v-19.656c0-3.937 1.078-6.977 3.234-9.125 2.164-2.156 5.219-3.234 9.156-3.234 3.945 0 7 1.078 9.156 3.234 2.164 2.148 3.25 5.188 3.25 9.125v19.781c0 3.938-1.086 6.996-3.25 9.172C23.141-.461 20.086.625 16.141.625zm-.031-5.578c2.051 0 3.641-.594 4.766-1.781C22-7.93 22.563-9.625 22.563-11.812v-19.781c0-2.133-.562-3.797-1.687-4.984-1.125-1.195-2.715-1.797-4.766-1.797-2.031 0-3.605.602-4.719 1.797-1.105 1.188-1.656 2.852-1.656 4.984v19.781c0 2.188.551 3.883 1.656 5.078 1.113 1.188 2.688 1.781 4.719 1.781zm0 0" id="logo-d"/><path d="M15.813.203c-3.555 0-6.125-.984-7.719-2.953s-2.391-4.797-2.391-8.484v-44.531h5.984v44.609c0 1.836.414 3.258 1.25 4.266s2.066 1.516 3.703 1.516h3.25V.203zM1.25-37.625v-5.578h18.641v5.578zm0 0" id="logo-e"/><path d="M16.891.625c-4.156 0-7.387-1.254-9.687-3.766S3.75-9.18 3.75-13.734v-14.984c0-4.852 1.117-8.602 3.359-11.25 2.25-2.656 5.398-3.984 9.453-3.984 4.133 0 7.32 1.23 9.563 3.688 2.25 2.461 3.375 5.922 3.375 10.391v10.734H7.406v-5.578h16.109v-5c0-2.738-.605-4.863-1.812-6.375-1.211-1.52-2.922-2.281-5.141-2.281-2.168 0-3.852.797-5.047 2.391-1.187 1.594-1.781 3.867-1.781 6.813v15.609c0 2.719.625 4.836 1.875 6.344s3.008 2.266 5.281 2.266c2.145 0 3.805-.594 4.984-1.781 1.176-1.195 1.766-2.891 1.766-5.078v-.25h5.984v.25c0 3.938-1.109 6.996-3.328 9.172S20.941.625 16.891.625zm0 0" id="logo-f"/><path d="M4.578 0v-43.203h6V0zm19.766-38.375h-.125-.156c-4.055 0-7.262.977-9.625 2.922-2.355 1.938-3.641 4.641-3.859 8.109l-.875-8.328c1.602-2.602 3.68-4.633 6.234-6.094s5.352-2.187 8.406-2.187zm0 0" id="logo-g"/><path d="M24.594 0v-31.625c0-2.332-.648-4.133-1.937-5.406-1.293-1.281-3.117-1.922-5.469-1.922-2.086 0-3.703.641-4.859 1.922-1.148 1.273-1.719 3.074-1.719 5.406H4.828c0-3.914 1.094-6.945 3.281-9.094 2.195-2.156 5.289-3.234 9.281-3.234 4.051 0 7.191 1.078 9.422 3.234 2.238 2.148 3.359 5.18 3.359 9.094V0zm-9.312.625c-3.781 0-6.617-1.004-8.5-3.016S3.953-7.43 3.953-11.484c0-4.852 1.109-8.477 3.328-10.875 2.219-2.406 5.547-3.609 9.984-3.609h7.703l.578 4.328h-8.234c-2.605 0-4.57.852-5.891 2.547-1.312 1.688-1.969 4.227-1.969 7.609 0 2.586.594 4.516 1.781 5.797 1.195 1.273 2.988 1.906 5.375 1.906 2.656 0 4.648-.695 5.984-2.094 1.332-1.406 2-3.523 2-6.359l.875 3.578c-.031 2.055-.43 3.773-1.187 5.156s-1.891 2.422-3.391 3.109C19.391.285 17.52.625 15.281.625zm0 0" id="logo-h"/><path d="M4.578 17.563v-60.766h6v60.766zM19.766.625c-2.305 0-4.355-.645-6.156-1.937s-3.012-3.113-3.625-5.469l.594-6.531c0 1.855.266 3.434.797 4.734.539 1.305 1.336 2.305 2.391 3 1.063.699 2.328 1.047 3.797 1.047 2.27 0 4.035-.773 5.297-2.328 1.27-1.562 1.906-3.77 1.906-6.625v-16.562c0-2.77-.637-4.914-1.906-6.437-1.262-1.531-3.027-2.297-5.297-2.297-1.469 0-2.734.336-3.797 1-1.055.656-1.852 1.625-2.391 2.906-.531 1.273-.797 2.824-.797 4.656l-.875-5.828c.883-2.52 2.297-4.469 4.234-5.844 1.945-1.375 4.031-2.062 6.25-2.062 3.301 0 5.852 1.211 7.656 3.625s2.703 5.828 2.703 10.234v16.609c0 4.5-.937 7.98-2.812 10.438C25.859-.598 23.203.625 19.766.625zm0 0" id="logo-i"/><path d="M34.828 0L14.813-27.469c-2.137-2.937-3.742-6.02-4.812-9.25-1.062-3.238-1.594-6.617-1.594-10.141 0-4.719 1.07-8.254 3.219-10.609 2.156-2.363 5.383-3.547 9.688-3.547s7.508 1.164 9.625 3.484c2.125 2.313 3.188 5.797 3.188 10.453v4.172h-5.984v-4.172c0-2.719-.562-4.754-1.687-6.109-1.125-1.363-2.84-2.047-5.141-2.047s-4.031.699-5.187 2.094c-1.148 1.387-1.719 3.48-1.719 6.281a25.69 25.69 0 0 0 1.516 8.703c1.008 2.824 2.5 5.594 4.469 8.313L42.25 0zM21.188-26.594c-4.105 0-7.293.965-9.562 2.891-2.262 1.93-3.391 4.668-3.391 8.219 0 3.5.938 6.211 2.813 8.125C12.922-5.453 15.551-4.5 18.938-4.5c4.469 0 7.922-2.242 10.359-6.734 2.445-4.5 3.672-10.836 3.672-19.016h5.563c0 6.543-.812 12.117-2.437 16.719C34.477-8.926 32.133-5.414 29.063-3 26-.582 22.273.625 17.891.625c-4.875 0-8.664-1.406-11.359-4.219C3.844-6.414 2.5-10.379 2.5-15.484c0-4.602 1.363-8.273 4.094-11.016 2.738-2.75 6.578-4.332 11.516-4.75zm0 0" id="logo-j"/><path d="M19.188.625c-3.168 0-5.875-.594-8.125-1.781C8.82-2.352 7.109-4.082 5.922-6.344c-1.18-2.258-1.766-5.016-1.766-8.266v-31.297c0-3.25.586-6.004 1.766-8.266 1.188-2.258 2.898-3.984 5.141-5.172 2.25-1.195 4.957-1.797 8.125-1.797 3.188 0 5.895.602 8.125 1.797a12.02 12.02 0 0 1 5.125 5.172c1.176 2.262 1.766 5.016 1.766 8.266v31.297c0 3.25-.59 6.008-1.766 8.266s-2.887 3.992-5.125 5.188C25.082.031 22.375.625 19.188.625zm0-5.875c2.883 0 5.109-.797 6.672-2.391 1.57-1.594 2.359-3.816 2.359-6.672v-31.891c0-2.883-.789-5.113-2.359-6.687-1.562-1.582-3.789-2.375-6.672-2.375-2.855 0-5.074.793-6.656 2.375-1.586 1.574-2.375 3.805-2.375 6.688v31.891c0 2.855.789 5.078 2.375 6.672s3.801 2.391 6.656 2.391zm0 0" id="logo-k"/><path d="M5.453 0v-43.203h5.984V0zm3.75-51.109l-4.375-2.953 10.25-14.781 5.156 3.75zm0 0" id="logo-l"/><path d="M18.484.625c-3.281 0-6.023-.523-8.219-1.562-2.187-1.039-3.824-2.613-4.906-4.719-1.074-2.113-1.609-4.75-1.609-7.906v-3h5.906v3c0 2.906.734 5.086 2.203 6.531 1.469 1.438 3.676 2.156 6.625 2.156 2.883 0 5.039-.719 6.469-2.156 1.426-1.445 2.141-3.625 2.141-6.531v-3.578c0-2.133-.484-3.895-1.453-5.281-.969-1.395-2.227-2.582-3.766-3.562-1.543-.988-3.203-1.914-4.984-2.781l-4.672-2.422c-1.543-.852-2.953-1.848-4.234-2.984-1.273-1.133-2.293-2.516-3.062-4.141-.762-1.625-1.141-3.586-1.141-5.891v-2.953c0-4.687 1.219-8.187 3.656-10.5 2.445-2.32 6.113-3.484 11-3.484 4.77 0 8.332 1.184 10.688 3.547 2.363 2.355 3.547 5.891 3.547 10.609v3.156h-5.906v-3.156c0-2.883-.687-5.047-2.062-6.484-1.375-1.445-3.465-2.172-6.266-2.172-2.918 0-5.105.688-6.562 2.063-1.449 1.367-2.172 3.422-2.172 6.172v2.953c0 2.137.566 3.887 1.703 5.25 1.133 1.355 2.586 2.512 4.359 3.469a169.6 169.6 0 0 0 5.547 2.859 48.11 48.11 0 0 1 4.281 2.375 19.45 19.45 0 0 1 3.766 3.031c1.125 1.168 2.008 2.57 2.656 4.203.656 1.637.984 3.594.984 5.875v3.828c0 4.742-1.211 8.293-3.625 10.656C26.969-.551 23.336.625 18.484.625zm0 0" id="logo-m"/></defs><g fill="#1b8787" transform="matrix(1.461594 0 0 1.461594 -116.14757 -158.09012)"><use href="#logo-a" x="75.31" y="626.2"/><use href="#logo-b" x="107.982" y="626.2"/><use href="#logo-c" x="124.859" y="626.2"/><use href="#logo-b" x="155.545" y="626.2"/><use href="#logo-d" x="172.423" y="626.2"/><use href="#logo-e" x="204.728" y="626.2"/><use href="#logo-f" x="227.146" y="626.2"/><use href="#logo-g" x="260.56" y="626.2"/><use href="#logo-h" x="287.197" y="626.2"/><use href="#logo-i" x="321.974" y="626.2"/><use href="#logo-b" x="356.24" y="626.2"/><use href="#logo-h" x="373.118" y="626.2"/><use href="#logo-j" x="425.028" y="626.2"/><use href="#logo-k" x="484.781" y="626.2"/><use href="#logo-c" x="522.738" y="626.2"/><use href="#logo-e" x="553.424" y="626.2"/><use href="#logo-f" x="575.841" y="626.2"/><use href="#logo-d" x="609.255" y="626.2"/><use href="#logo-i" x="641.561" y="626.2"/><use href="#logo-h" x="675.827" y="626.2"/><use href="#logo-e" x="710.604" y="626.2"/><use href="#logo-l" x="733.022" y="626.2"/><use href="#logo-h" x="749.899" y="626.2"/><use href="#logo-m" x="308.609" y="728.487"/><use href="#logo-h" x="345.347" y="728.487"/><use href="#logo-e" x="380.124" y="728.487"/><use href="#logo-d" x="402.542" y="728.487"/><use href="#logo-g" x="434.848" y="728.487"/><use href="#logo-g" x="461.485" y="728.487"/><use href="#logo-f" x="487.287" y="728.487"/><use href="#logo-c" x="520.7" y="728.487"/><path d="M386.508 228.043a6.48 6.48 0 0 0-4.98-.168c-3.352 1.262-5.055 5.016-3.797 8.371a6.53 6.53 0 0 0 6.086 4.215 6.39 6.39 0 0 0 2.285-.418c1.625-.609 2.914-1.816 3.633-3.398a6.47 6.47 0 0 0 .168-4.969 6.46 6.46 0 0 0-3.395-3.633m100.328 157.191a6.45 6.45 0 0 0-2.574-4.258 6.44 6.44 0 0 0-4.836-1.187c-3.547.543-5.988 3.867-5.441 7.41a6.46 6.46 0 0 0 6.422 5.512 6.63 6.63 0 0 0 .988-.066 6.53 6.53 0 0 0 5.441-7.41"/><path d="M466.422 337.035a10.3 10.3 0 0 0 3.625-7.062c.223-2.754-.641-5.422-2.426-7.52a10.29 10.29 0 0 0-14.586-1.195c-4.328 3.691-4.867 10.23-1.199 14.578l.004.004c1.973 2.316 4.852 3.641 7.898 3.641 2.434 0 4.805-.867 6.684-2.445m-16.879-40.309c-2.07-2.441-4.965-3.934-8.148-4.195a11.9 11.9 0 0 0-8.73 2.809c-5.012 4.273-5.633 11.84-1.391 16.871l.008.008c2.285 2.676 5.617 4.211 9.141 4.211 2.816 0 5.563-1 7.734-2.828a11.91 11.91 0 0 0 4.195-8.176 11.85 11.85 0 0 0-2.809-8.699m-20.707-21.392c-1.789-2.109-4.289-3.395-7.043-3.621a10.26 10.26 0 0 0-7.539 2.426c-4.332 3.691-4.871 10.23-1.203 14.578l.008.004c1.973 2.313 4.852 3.641 7.898 3.641 2.434 0 4.805-.867 6.68-2.441a10.29 10.29 0 0 0 3.625-7.066c.223-2.75-.637-5.422-2.426-7.52m-27.891-24.13c-2.219-.191-4.379.508-6.082 1.957-3.492 2.977-3.926 8.25-.969 11.758l.004.004a8.36 8.36 0 0 0 6.371 2.938c1.965 0 3.875-.699 5.391-1.973a8.32 8.32 0 0 0 2.926-5.699 8.28 8.28 0 0 0-1.957-6.062 8.29 8.29 0 0 0-5.684-2.922m80.137 106.144a8.26 8.26 0 0 0-1.957-6.066c-2.977-3.508-8.254-3.941-11.766-.965-3.492 2.977-3.926 8.254-.965 11.758l.004.008c1.59 1.863 3.914 2.934 6.371 2.934a8.37 8.37 0 0 0 5.387-1.969c1.707-1.449 2.746-3.469 2.926-5.699m-97.684-148.361c.605.254 1.246.379 1.906.379 2.043 0 3.859-1.219 4.633-3.109a5.02 5.02 0 0 0-2.73-6.543c-2.559-1.051-5.492.18-6.543 2.738s.18 5.488 2.734 6.535m18.188-23.996a4.99 4.99 0 0 0 6.543-2.73c1.051-2.555-.176-5.492-2.73-6.543a5.03 5.03 0 0 0-6.547 2.738c-1.043 2.559.184 5.488 2.734 6.535m79.441 226.805a5.03 5.03 0 0 0-6.547 2.738c-.504 1.238-.5 2.602.019 3.836a4.96 4.96 0 0 0 2.715 2.699c.602.254 1.246.379 1.906.379a4.99 4.99 0 0 0 4.637-3.105 5.03 5.03 0 0 0-2.73-6.547m-20.718 20.859c-2.559-1.051-5.496.18-6.547 2.738a5 5 0 0 0 .019 3.836 4.95 4.95 0 0 0 2.715 2.695 4.9 4.9 0 0 0 1.91.383 4.99 4.99 0 0 0 4.633-3.109c1.047-2.555-.176-5.492-2.73-6.543m-43.45-305.574c2.98.867 2.305 5.324-.801 5.246-19.719-.48-38.281 5.074-55.395 16.973-37.418 26.02-49.215 70.828-31.883 117.754l.07.168c16.098 37.133 23.117 49.41 58.125 83.797 2.289 2.25-.594 5.895-3.305 4.172-39.148-24.867-67.937-57.75-81.008-103.258-14.145-49.227 1.648-93.801 43.711-116.703 23.078-12.566 46.809-15.039 70.484-8.148m-107.244-1.907c0 9.234-7.488 16.723-16.723 16.723a16.73 16.73 0 0 1-16.727-16.723 16.73 16.73 0 0 1 16.727-16.727 16.73 16.73 0 0 1 16.723 16.727m133.528 359.425c-2.98-.871-2.305-5.324.801-5.25 19.719.484 38.281-5.07 55.395-16.973 37.418-26.016 49.215-70.824 31.883-117.75-.023-.059-.043-.113-.07-.172-16.094-37.129-23.117-49.406-58.125-83.793-2.289-2.25.594-5.895 3.305-4.176 39.148 24.871 67.938 57.754 81.012 103.258 14.141 49.23-1.652 93.805-43.711 116.707-23.082 12.566-46.812 15.039-70.488 8.148m140.693 1.908a16.73 16.73 0 0 1-16.727 16.723c-9.234 0-16.723-7.488-16.723-16.723s7.488-16.723 16.723-16.723a16.73 16.73 0 0 1 16.727 16.723"/></g></svg>