<svg xmlns="http://www.w3.org/2000/svg" viewBox="0 0 512 512" class="svg-src"><g fill="#e63a3b" stroke="#000" stroke-width="3.194"><g class="logo-1"><use href="#a" x="5.111" y="12.777" fill="#000"/><path id="a" d="M241.251 121.393v28.783c-103.817 0-185.501 85.583-185.501 166.895 0 135.413 137.417 192.556 185.501 174.843v-109.33c-23.655 4.887-75.136-9.675-75.136-62.743 0-49.442 41.522-71.164 75.136-63.841v33.024l87.572-76.88z"/><path fill="#fff" d="M259.359 170.937v69.241l34.452-35.022z"/></g><g class="logo-2"><use href="#b" x="9.534" y="12.246" fill="#000"/><path id="b" d="M95.968 5.112 3.64 95.611l32.795 2.432 87.823 216.518 97.139-31.412-75.598-189.37h28.944z"/><path fill="#fff" d="M83.693 97.919h22.334l76.875 197.678-19.639 6.35z"/></g><g class="logo-3"><use href="#c" x="8.728" y="13.131" fill="#000"/><path id="c" d="M500.82 105.137H394.943L312.139 285.4l93.795 34.44z"/><path fill="#fff" d="m349.634 299.168 84.042-194.031h23.453l-89.198 200.75z"/></g></g></svg>