<svg xmlns="http://www.w3.org/2000/svg" viewBox="0 0 1024 561" class="svg-src"><defs><linearGradient id="icon-a" x1="0" y1="0" x2="1" y2="0" gradientUnits="userSpaceOnUse" gradientTransform="matrix(100.37154,-17.698187,-17.698187,-100.37154,310.21875,805.74463)" spreadMethod="pad"><stop offset="0" stop-color="#e6313a"/><stop offset="1" stop-color="#ac2228"/></linearGradient><linearGradient id="icon-b" x1="0" y1="0" x2="1" y2="0" gradientUnits="userSpaceOnUse" gradientTransform="matrix(62.621006,40.666561,40.666561,-62.621006,331.13965,737.03613)" spreadMethod="pad"><stop offset="0" stop-color="#ff2a35"/><stop offset=".992" stop-color="#fff"/></linearGradient><linearGradient id="icon-c" x1="0" y1="0" x2="1" y2="0" gradientUnits="userSpaceOnUse" gradientTransform="matrix(158.96246,103.23144,103.23144,-158.96246,344.21484,842.41211)" spreadMethod="pad"><stop offset="0" stop-color="#ff2a35"/><stop offset=".992" stop-color="#fff"/></linearGradient></defs><g transform="matrix(1.618737 0 0 -1.617693 -121.937531 1540.703603)"><g id="logo-icon"><path fill="#ff2a35" d="M426.892 942.09c7.349-10.69 4.635-25.314-6.062-32.664s-25.316-4.634-32.66 6.056a23.5 23.5 0 0 0 6.06 32.672c10.687 7.344 25.312 4.629 32.662-6.064"/><path fill="#f63440" d="M305.153 859.747c5.151-7.498 3.246-17.742-4.242-22.889s-17.741-3.252-22.891 4.245-3.246 17.738 4.247 22.888 17.737 3.248 22.886-4.244"/><path fill="#ff2a35" d="M385.406 847.277c78.785 76.539 141.888-56.656 90.279-149.16h0c33.39 45.051 50.433 137.783 3.993 180.487h0c-12.037 11.071-22.973 15.66-33.181 15.66h0c-22.599-.001-41.623-22.499-61.091-46.987"/><path fill="url(#icon-a)" d="M351.418 842.903c-16.078-4.152-51.539-19.855-40.698-68.062h0c.25 1.554 6.299-15.354 11.19-19.023h0c-38.374 69.711 52.369 71.334 62.479 40.454h0s12.064-1.678 29.274 9.198h0c-15.183 24.522-29.052 38.257-52 38.256h0c-3.225 0-6.632-.272-10.245-.823"/><path fill="url(#icon-b)" d="M436.62 707.821c-103.736 24.585-150.893 114.624-85.202 135.082h0c-69.836-16.229-72.605-120.183 85.202-135.082"/><path fill="url(#icon-c)" d="M384.389 796.272c7.567-21.368 34.284-7.767 29.274 9.198h0c-13.491 45.647 21.446 113.579 65.487 73.619h0l-.007.056c-11.746 11.73-25.81 17.03-39.642 17.032h0c-38.766.003-75.754-41.604-55.112-99.905"/></g><path id="logo-text" fill="#0f140e" d="M124.945 626.688c-.992 0-2.699-.427-2.992-3.292-.146-1.496-1.104-3.92-1.932-4.892-1.712-1.999-4.646-2.101-9.292-2.101-6.721 0-8.732.631-9.819 1.668-1.301 1.207-1.301 9.92-1.301 20.01v17.573l.182 21.064c.184 3.519.906 3.663 1.785 3.839a20.76 20.76 0 0 0 3.246.27c3.292 0 3.647 2.017 3.647 2.884 0 1.078-.51 2.885-3.924 2.885-2.049 0-5.063-.095-7.723-.179l-4.831-.122c-1.041 0-2.702.055-4.626.119l-8.019.182c-3.32 0-4.017-1.569-4.017-2.885 0-.676.256-2.884 3.555-2.884 1.044 0 1.989-.087 2.603-.251 1.699-.389 2.262-.775 2.431-3.868.181-3.139.181-5.874.181-21.054v-17.573c0-9.103 0-16.965-.446-21.016-.116-.905-.467-3.66-1.172-3.814a12.12 12.12 0 0 0-2.86-.343c-3.293 0-3.46-2.319-3.46-2.784 0-.498.185-2.985 3.831-2.985 2.135 0 4.91.097 7.359.182l4.271.118c3.168 0 6.08-.108 9.453-.234 4.582-.171 9.777-.365 17.409-.365 4.646 0 6.782.397 7.739 4.191.797 3.129 1.447 10.74 1.447 11.973 0 2.445-.917 3.684-2.725 3.684m33.964 17.325l3.657-10.857h-7.411zm28.101-31.626a11.36 11.36 0 0 0-2.259.221c-.566.145-2.071.532-4.411 6.522l-10.312 27.643-5.948 15.974c-.595 1.482-1.411 3.513-3.48 3.513-2.118 0-2.881-1.997-3.697-4.132l-16.45-44.518c-1.356-3.67-2.288-4.863-3.97-5.1a16.71 16.71 0 0 0-1.769-.123c-1.914 0-2.771-1.282-2.771-2.552 0-.633.233-2.697 3.231-2.697l6.369.165 1.363.047 3.334-.102 3.612-.11c2.951 0 3.1 2.247 3.1 2.697 0 .598-.214 2.552-2.969 2.552h-.982c-.325 0-.522.033-.63.06a1.53 1.53 0 0 0-.006.151c0 .508.233 1.943.873 3.669l3.272 9.374h12.667l4.726-13.546c-1.273-.625-1.393-1.832-1.393-2.26 0-2.334 2.492-2.475 3.557-2.536l.341-.018c5.27-.143 10.112-.143 12.438-.143 2.111 0 5.002 0 5.002 2.697 0 .261-.08 2.552-2.838 2.552m77.869 13.901c-2.445 0-2.844-2.375-2.978-3.175-.626-3.979-1.603-5.184-3.076-5.921-1.983-.987-5.619-.987-7.792-.987-8.918 0-8.948 1.112-9.092 6.463-.064 2.019-.037 7.376-.016 11.288l.017 4.124v6.896c3.515-.026 10.126-.131 11.446-.281 2.766-.322 3.228-1.347 3.457-2.335.166-.781.215-1.592.263-2.376l.063-.91c.048-1.642 1.192-2.78 2.815-2.78 2.452 0 2.818 2.433 2.818 3.884a130.22 130.22 0 0 0 .365 6.581c.189 3.472.464 5.262.612 6.223.078.508.13.844.13 1.175 0 1.827-1.325 2.783-2.633 2.783-1.383 0-2.159-.965-2.91-1.898l-.092-.115c-.328-.393-1.221-.622-3.091-.79-1.216-.115-6.012-.184-13.243-.191l.002 23.373c3.293-.048 10.317-.218 11.51-.369 3.928-.51 4.212-1.299 4.587-2.34.309-.801.421-2.162.421-2.881 0-3.22 2.346-3.383 2.816-3.383.556 0 2.408.196 2.888 2.783.122.802.227 2.536.35 4.721l.129 2.05c.18 2.987.436 4.452.589 5.327.089.513.154.883.154 1.282 0 2.278-1.597 2.886-2.541 2.886-.624 0-1.173-.195-1.573-.337-.11-.04-.216-.083-.316-.105l-.108-.026c-.518-.141-1.733-.322-3.613-.537-1.261-.06-9.789-.095-22.912-.095-1.055 0-2.701.053-4.606.114l-8.685.187c-3.32 0-4.017-1.569-4.017-2.885 0-.676.257-2.884 3.555-2.884 1.391 0 2.659-.118 3.157-.251 1.698-.389 2.261-.774 2.43-3.869.181-3.138.181-5.873.181-21.053V638.08c0-9.103 0-16.964-.446-21.015-.116-.905-.467-3.66-1.172-3.813-.959-.232-1.894-.344-2.858-.344-3.295 0-3.462-2.319-3.462-2.784 0-.499.185-2.985 3.833-2.985 2.134 0 4.909.097 7.358.182l4.271.118c2.055 0 4.207-.087 6.932-.196 4.464-.18 10.02-.403 18.638-.403 3.547 0 5.889 0 6.917 4.134.503 2.171 1.252 9.068 1.252 11.531 0 2.51-.917 3.783-2.724 3.783m50.511 35.355c0-8.436-2.94-12.03-4.679-13.411-1.135-.885-1.786-1.276-5.332-1.276-2.167 0-4.35.272-5.861.723v.088 29.982c.763.12 2.014.181 3.736.181 4.508 0 12.136-3.431 12.136-16.287m33.648-48.735c-.589 0-1.289.083-2.167.255l-.101.022c-1.245.266-4.553.973-9.164 6.138-4.649 5.283-9.957 12.528-16.677 21.7l-2.181 2.974c8.049 7.439 11.508 14.288 11.508 22.64 0 6.919-3.674 12.77-7.081 15.275-5.572 4.127-12.31 4.684-18.166 4.684-1.429 0-3.791-.072-6.292-.147l-6.724-.154c-.735 0-2.039.044-3.638.098l-9.007.203c-3.32 0-4.018-1.569-4.018-2.885 0-.677.257-2.884 3.556-2.884 1.39 0 2.658-.119 3.156-.252 1.699-.389 2.262-.774 2.431-3.868.181-3.138.181-5.874.181-21.054V638.08c0-9.103 0-16.964-.447-21.016-.115-.905-.465-3.66-1.171-3.813a12.07 12.07 0 0 0-2.859-.343c-3.295 0-3.462-2.32-3.462-2.785 0-.498.185-2.984 3.833-2.984 2.221 0 5.191.106 7.576.192l3.684.107c.457 0 1.52-.033 2.93-.078l10.641-.221c3.645 0 3.829 2.486 3.829 2.984 0 1.341-.967 2.785-3.092 2.785-1.014 0-2.951.192-4.239.378-.976.141-1.591.396-1.91 3.744-.449 4.085-.449 11.993-.449 21.15v.18l6.783-.169c.065 0 .113-.001.151-.003.659-.843 2.399-3.521 4.24-6.354l4.761-7.243c5.663-8.422 9.097-12.858 13.293-15.284 2.816-1.642 5.459-2.168 10.877-2.168h8.767c3.377 0 3.742 2.087 3.742 2.984 0 1.341-.968 2.785-3.094 2.785m38.288 1.798c-15.516 0-26.352 14.498-26.352 35.257 0 10.93 2.692 29.265 20.72 29.265 14.755 0 25.061-14.087 25.061-34.258 0-27.315-13.587-30.264-19.429-30.264m-2.954 73.287c-27.558 0-40.109-21.319-40.109-41.127 0-10.119 3.314-20.117 9.093-27.428 7.084-8.96 17.49-13.696 30.092-13.696 23.67 0 40.2 17.65 40.2 42.922 0 23.891-15.417 39.329-39.276 39.329m105.291-.699c-.421 0-.818-.093-1.37-.22-1.173-.272-3.356-.779-7.492-.779h-36.553a87.59 87.59 0 0 0-9.06.493c-1.062.092-1.713.401-2.286.673-.527.249-1.124.532-1.855.532-2.311 0-2.828-2.431-3.041-3.435-.089-.383-1.989-9.962-1.989-11.931 0-3.233 1.968-3.582 2.815-3.582.866 0 2.401.356 2.949 2.734.083.361.381 1.366 1.316 2.886.77 1.223 1.962 1.767 7.331 1.968l11.71.341v-38.893c0-9.104 0-16.966-.451-21.077-.309-3.226-.886-3.691-1.166-3.752-.613-.147-1.577-.344-2.859-.344-3.294 0-3.461-2.319-3.461-2.784 0-.498.185-2.985 3.831-2.985 2.134 0 4.91.097 7.36.182l4.27.118c.988 0 2.534-.047 4.323-.102l10.17-.198c2.76 0 3.739 1.608 3.739 2.985 0 .285-.096 2.784-3.462 2.784-1.287 0-3.23.194-4.425.379-.974.14-1.587.39-1.908 3.64-.452 4.186-.452 12.049-.452 21.154v38.9l9.599-.248c5.451-.132 8.801-1.533 8.961-3.773l.089-1.053c.065-1.056.237-3.863 2.996-3.863 1.141 0 2.554.591 2.808 3.406l.007.178c0 1.339.077 3.856.15 6.291l.129 5.293c0 1.116 0 4.082-2.723 4.082m57.065-61.006c-2.445 0-2.843-2.376-2.977-3.175-.627-3.978-1.604-5.184-3.078-5.921-1.98-.987-5.618-.987-7.791-.987-8.918 0-8.948 1.112-9.092 6.464-.064 2.018-.036 7.375-.015 11.287l.016 4.124v6.896c3.514-.026 10.126-.131 11.446-.281 2.766-.322 3.228-1.347 3.457-2.335.167-.781.216-1.592.263-2.376l.064-.91c.048-1.642 1.191-2.78 2.814-2.78 2.453 0 2.818 2.433 2.818 3.884 0 .583.175 4.493.366 6.581.188 3.474.464 5.263.612 6.224.078.508.129.843.129 1.174 0 1.827-1.324 2.783-2.633 2.783-1.384 0-2.161-.967-2.912-1.902l-.089-.111c-.328-.393-1.221-.622-3.092-.79-1.216-.115-6.011-.184-13.243-.191l.003 23.373c3.292-.048 10.318-.218 11.509-.369 3.929-.51 4.212-1.299 4.586-2.339.31-.802.422-2.163.422-2.882 0-3.22 2.346-3.383 2.816-3.383.555 0 2.404.196 2.888 2.783.124.809.23 2.562.355 4.771l.125 2c.179 2.988.436 4.452.588 5.328.09.512.155.882.155 1.281 0 2.278-1.597 2.886-2.541 2.886-.625 0-1.173-.195-1.574-.337-.11-.04-.216-.083-.316-.105l-.107-.026c-.518-.141-1.733-.322-3.613-.537-1.261-.06-9.789-.095-22.912-.095-1.056 0-2.702.053-4.608.114l-8.684.187c-3.32 0-4.016-1.569-4.016-2.885 0-.676.256-2.884 3.554-2.884 1.391 0 2.659-.118 3.157-.251 1.699-.389 2.262-.774 2.43-3.868.182-3.139.182-5.874.182-21.054V638.08c0-9.103 0-16.964-.446-21.014-.116-.906-.468-3.662-1.173-3.815-.958-.231-1.894-.343-2.858-.343-3.294 0-3.461-2.319-3.461-2.784 0-.499.185-2.985 3.832-2.985 2.133 0 4.909.097 7.357.182l4.272.118c2.055 0 4.207-.087 6.933-.196 4.464-.18 10.02-.403 18.637-.403 3.547 0 5.89 0 6.918 4.134.503 2.174 1.251 9.07 1.251 11.531 0 2.51-.916 3.783-2.724 3.783m76.421 3.394c-2.524 0-2.92-2.281-3.146-3.583-.326-1.591-1.434-4.166-2.741-5.745-2.914-3.627-6.786-4.85-15.343-4.85-10.925 0-27.091 10.666-27.091 33.56 0 11.328 2.512 19.097 7.899 24.445 3.953 3.887 8.876 5.621 15.961 5.621 8.545 0 14.927-2.856 17.254-5.525 1.854-2.086 3.014-5.05 3.1-7.868 0-3.455 1.581-4.181 2.907-4.181 2.832 0 3.019 3.022 3.086 4.1.101 1.102.123 3.005.147 5.21l.135 5.651c.108 2.055.25 3.299.345 4.122.069.607.119 1.046.119 1.474 0 1.32-.831 2.944-3.155 3.173-1.341.145-2.791.454-4.327.781-1.518.324-3.088.658-4.841.909-4.082.576-7.68 1.017-13.662 1.017-13.174 0-22.887-3.546-30.567-11.159-10.278-10.194-11.388-23.515-11.388-28.769 0-12.902 4.059-23.296 12.073-30.903 8.185-7.685 18.987-11.42 33.021-11.42 5.665 0 13.212.646 17.423 2.468 2.092.933 2.878 1.872 3.507 4.187.959 3.526 2.099 12.36 2.099 13.801 0 2.571-1.516 3.484-2.815 3.484m48.285 12.481h-12.706l6.435 18.617zm33.302-29.255c-.828 0-2.101.061-3.381.336-.995.256-3.324.857-6.769 9.682l-14.52 38.918-8.381 22.507c-.835 2.081-1.782 4.439-4.148 4.439-2.428 0-3.36-2.442-4.447-5.289l-23.171-62.706c-1.802-4.879-3.199-7.277-6.242-7.706-.661-.088-1.864-.181-2.601-.181-2.285 0-3.094-1.5-3.094-2.785 0-1.114.485-2.984 3.739-2.984 3.328 0 6.841.144 8.94.231l1.953.068c1.376 0 3.081-.074 4.73-.146l5.054-.153c3.299 0 3.555 2.284 3.555 2.984 0 1.04-.438 2.785-3.371 2.785h-1.383c-1.707 0-1.707.394-1.707 1.11 0 .8.336 2.897 1.274 5.435l4.797 13.746h18.997l7.103-20.368c-1.869-.519-2.173-1.876-2.173-2.708 0-2.517 2.654-2.668 4.24-2.758l.461-.026c7.411-.2 14.223-.2 17.498-.2 2.922 0 6.232 0 6.232 2.984 0 .654-.229 2.785-3.185 2.785"/></g></svg>