<svg xmlns="http://www.w3.org/2000/svg" viewBox="0 0 1024 1024"><g><path fill="#573313" d="M147.54 896.53v3.53q-5.65.18-8.65 1.41-3 1.06-4.06 4.24-.88 3-.88 9.53v87.57q0 6.36 1.06 9.54 1.06 3.18 3.88 4.23 3 1.06 8.65 1.42v3.53q-4.59-.35-11.65-.35-7.06-.18-14.3-.18-7.94 0-15 .18-6.9 0-11.13.35V1018q6-.36 9-1.42 3.18-1.05 4.24-4.23 1.06-3.18 1.06-9.54v-96.04l1.24.18-43.79 115.1H64.4L17.78 907.84v87.57q0 8.47 1.06 13.24 1.06 4.59 4.59 6.7 3.7 1.95 11.12 2.66v3.53q-3.35-.35-8.65-.35-5.3-.18-10.06-.18-4.24 0-8.66.18-4.23 0-7.06.35V1018q5.83-.7 8.65-2.65 3-1.94 3.89-6.36 1.06-4.41 1.06-12.18v-81.57q0-6.53-1.06-9.53-.88-3.18-3.89-4.24-2.82-1.23-8.65-1.4v-3.54q2.83.18 7.06.35 4.42.18 8.66.18 6.53 0 12.7-.18 6.19-.17 10.95-.35l37.96 94.8-3.88 3.19 36.9-97.46H121.59q7.24 0 14.3-.18 7.06-.17 11.65-.35zm68.86-.53 42.9 110.7q2.65 6.35 5.65 8.83 3.18 2.3 5.83 2.47v3.53q-4.6-.35-11.13-.35-6.35-.18-13.06-.18-7.77 0-14.48.18-6.7 0-10.94.35V1018q9-.36 11.47-3 2.47-2.83-1.06-11.83l-31.07-83.87 3.18-3.88-28.25 73.27q-3.36 8.83-4.06 14.48-.7 5.65.88 8.82 1.59 3.18 5.3 4.6 3.7 1.23 9.18 1.4v3.54q-5.65-.35-10.95-.35-5.3-.18-10.6-.18-3.88 0-7.4.18-3.36 0-6 .35V1018q3.88-.89 7.58-4.6 3.89-3.7 7.42-12.88L207.22 896q2.12.18 4.59.18 2.47 0 4.59-.18zm15.36 74.68v3.53h-52.61l1.76-3.53zm188.38-74.15v3.53q-5.65.18-8.65 1.41-3 1.06-4.06 4.24-.88 3-.88 9.53v87.57q0 6.36 1.05 9.54 1.06 3.18 3.89 4.23 3 1.06 8.65 1.42v3.53q-4.59-.35-11.65-.35-7.06-.18-14.3-.18-7.95 0-15.01.18-6.89 0-11.12.35V1018q6-.36 9-1.42 3.18-1.05 4.24-4.23 1.06-3.18 1.06-9.54v-96.04l1.23.18-43.78 115.1h-2.83l-46.6-114.22v87.57q0 8.47 1.05 13.24 1.06 4.59 4.6 6.7 3.7 1.95 11.12 2.66v3.53q-3.36-.35-8.65-.35-5.3-.18-10.07-.18-4.23 0-8.65.18-4.24 0-7.06.35V1018q5.83-.7 8.65-2.65 3-1.94 3.88-6.36 1.06-4.41 1.06-12.18v-81.57q0-6.53-1.06-9.53-.88-3.18-3.88-4.24-2.82-1.23-8.65-1.4v-3.54q2.82.18 7.06.35 4.42.18 8.65.18 6.53 0 12.71-.18 6.18-.17 10.95-.35l37.96 94.8-3.89 3.19 36.9-97.46h11.13q7.24 0 14.3-.18 7.06-.17 11.65-.35zM489 896l42.9 110.7q2.65 6.35 5.65 8.83 3.18 2.3 5.82 2.47v3.53q-4.59-.35-11.12-.35-6.36-.18-13.06-.18-7.77 0-14.48.18-6.71 0-10.95.35V1018q9-.36 11.48-3 2.47-2.83-1.06-11.83L473.1 919.3l3.17-3.88-28.24 73.27q-3.36 8.83-4.07 14.48-.7 5.65.89 8.82 1.59 3.18 5.3 4.6 3.7 1.23 9.17 1.4v3.54q-5.64-.35-10.94-.35-5.3-.18-10.6-.18-3.88 0-7.41.18-3.35 0-6 .35V1018q3.88-.89 7.59-4.6 3.88-3.7 7.41-12.88L479.81 896q2.12.18 4.6.18 2.47 0 4.59-.18zm15.36 74.68v3.53h-52.62l1.77-3.53zm151.83-74.15v3.53q-5.83 1.06-11.83 4.41-6 3.36-12.36 10.95l-33.37 40.96 7.95-12.71 42.2 63.56q2.82 4.06 5.82 6.53 3 2.47 7.77 4.24v3.53q-5.47-.35-12.54-.35-7.06-.18-12.88-.18-3.36 0-8.48.18-4.94 0-12.53.35V1018q7.06-.36 8.47-1.94 1.41-1.77-1.24-6l-25.77-40.61q-2.83-4.6-5.12-6.89-2.12-2.3-4.42-3-2.3-.88-5.65-1.06v-3.53q7.42-.35 13.25-3.89 5.82-3.53 11.65-10.41l12.53-15.72q6.54-7.76 7.95-13.24 1.41-5.47-1.59-8.47-3-3-10.06-3.18v-3.53l7.76.35q3.89 0 7.77.18h8.48q5.12 0 9.18-.18 4.06-.17 7.06-.35zm-59.67 0v3.53q-5.65.18-8.66 1.41-2.82 1.06-3.88 4.24-1.06 3-1.06 9.53v87.57q0 6.36 1.06 9.54 1.06 3.18 3.88 4.23 3 1.06 8.66 1.42v3.53q-4.42-.35-11.3-.35-6.89-.18-13.95-.18-7.95 0-14.83.18-6.89 0-11.3.35V1018q5.83-.36 8.65-1.42 3-1.05 3.88-4.23 1.06-3.18 1.06-9.54v-87.57q0-6.53-1.06-9.53-.88-3.18-3.88-4.24-2.82-1.23-8.65-1.4v-3.54q4.41.18 11.3.35 6.88.18 14.83.18 7.06 0 13.95-.18 6.88-.17 11.3-.35zm182.37 0v3.53q-5.65.53-8.65 2.65-2.82 1.94-3.88 6.35-1.06 4.24-1.06 12.19v48.9q0 11.83-1.59 21.19-1.41 9.36-5.65 16.24-4.41 7.42-13.24 12-8.65 4.42-21.19 4.42-8.47 0-16.77-1.94-8.12-1.94-14.3-7.24-5.47-4.6-8.65-10.42-3-5.82-4.06-13.94-1.06-8.3-1.06-19.78v-55.44q0-6.53-1.06-9.53-.88-3.18-3.88-4.24-2.83-1.23-8.66-1.4v-3.54q4.42.18 11.3.35 6.89.18 14.83.18 7.24 0 14.3-.18 7.07-.17 11.66-.35v3.53q-6 .18-9.18 1.41-3 1.06-4.06 4.24-1.06 3-1.06 9.53v63.92q0 8.82 1.06 16.06 1.23 7.06 3.88 12.18 2.82 5.12 7.77 7.77 5.12 2.65 12.89 2.65 12.88 0 19.95-5.83 7.06-5.82 9.88-16.24 2.83-10.41 2.83-23.66v-49.43q0-8.65-1.24-13.24-1.23-4.6-4.94-6.71-3.53-2.12-10.6-2.65v-3.53q3.36.18 8.66.35 5.47.18 10.06.18 4.41 0 8.65-.18 4.42-.17 7.06-.35zm124.65 0v3.53q-5.65.53-8.65 2.65-3 1.94-4.06 6.35-.88 4.24-.88 12.19v100.8q-1.6-.17-3.54-.17-1.76 0-3.88.18l-75.74-102.93v76.27q0 8.47 1.06 13.24 1.06 4.59 4.59 6.7 3.7 1.95 11.12 2.66v3.53q-3.35-.35-8.65-.35-5.3-.18-10.06-.18-4.24 0-8.65.18-4.24 0-7.07.35V1018q5.83-.7 8.65-2.65 3-1.94 3.89-6.36 1.06-4.41 1.06-12.18v-81.57q0-6.53-1.06-9.53-.88-3.18-3.89-4.24-2.82-1.23-8.65-1.4v-3.54q2.83.18 7.07.35 4.41.18 8.65.18 4.06 0 7.94-.18 3.89-.17 6.89-.35l66.2 88.1v-61.97q0-8.65-1.05-13.24-1.06-4.6-4.6-6.71-3.53-2.12-11.12-2.65v-3.53q3.36.18 8.65.35 5.48.18 10.07.18 4.41 0 8.65-.18 4.41-.17 7.06-.35zm65.96-.53 42.9 110.7q2.65 6.35 5.65 8.83 3.18 2.3 5.83 2.47v3.53q-4.6-.35-11.13-.35-6.35-.18-13.06-.18-7.77 0-14.48.18-6.7 0-10.94.35V1018q9-.36 11.47-3 2.47-2.83-1.06-11.83l-31.07-83.87 3.18-3.88-28.25 73.27q-3.36 8.83-4.06 14.48-.7 5.65.88 8.82 1.59 3.18 5.3 4.6 3.7 1.23 9.18 1.4v3.54q-5.65-.35-10.95-.35-5.3-.18-10.6-.18-3.88 0-7.4.18-3.36 0-6 .35V1018q3.88-.89 7.58-4.6 3.89-3.7 7.42-12.88L960.32 896q2.12.18 4.59.18 2.47 0 4.59-.18zm15.36 74.68v3.53h-52.61l1.76-3.53z"/><g><g><path fill="#573313" d="M837.53 290.38c-5.31-53.53-21.4-99.75-50.78-145.92-20.2-31.73-56.69-74.07-85.44-99.12-6.4-5.57-8.76-8.4-7.8-9.36.95-.96 7.5 2.04 21.61 9.88 46.2 25.67 79.75 52.09 109.65 86.33 22.15 25.37 26.97 32.95 29.56 46.5 6.63 34.6 6.28 63.43-1.07 89.4-3.13 11.08-11.08 28.81-13.61 30.38-.7.43-1.62-3.07-2.12-8.09zM182.95 296.3c-6.29-9.76-12.82-29.23-15.46-46.06-2.54-16.18-1.7-47.82 1.79-67.28l3.1-17.35 12.55-15.5c31.92-39.46 53.89-59.87 90.65-84.23 19.5-12.93 52.61-31.29 56.42-31.29.3 0 .55.84.55 1.86s-3.1 4.3-6.88 7.28c-11.93 9.42-38.86 36.74-52.98 53.74-50.11 60.34-76.37 117.87-84.8 185.8-1.02 8.17-2.1 15.12-2.43 15.44-.32.32-1.45-.76-2.51-2.4z"/><path fill="#573313" d="M906.53 427.5c-4.8-6.5-12.81-20.5-19.44-33.97-13.37-27.16-18-34.7-27.34-44.5l-6.98-7.32 7.22-8.47c15.61-18.33 26.6-37.97 31.26-55.83 2.85-10.96 2.65-13.85-.95-13.33-2.42.34-3.22 1.78-4.63 8.28-2.57 11.84-14.52 35.13-24.9 48.5-12.29 15.85-13.48 16.85-17.82 14.87-3.32-1.51-3.44-1.96-3.44-12.57 0-10.6.18-11.26 5.06-18.45 7.06-10.42 11.12-18.85 14.98-31.1 6.1-19.31 8.62-48.35 6.2-71.11-.87-8.16-1.3-15.12-.95-15.47.34-.35 3.66 4.67 7.37 11.15 22.53 39.37 37.9 84.76 44.07 130.11 2.96 21.74 3.88 62.7 1.92 84.86-2.5 28.16-1.93 27.46-11.63 14.35zm-4.4-76.15c2.48-2.49 1.9-3.36-3.34-5.03-2.7-.86-7.74-3.91-11.19-6.78-6.38-5.29-10.1-5.78-10.1-1.34 0 1.51 3.42 4.66 9.3 8.56 9.64 6.37 12.64 7.27 15.33 4.59zM108.01 432.85c-9.87-74.41 3.25-153.05 36.6-219.44 15.46-30.78 14.87-30.73 14.07-1.23-.59 21.55-.3 26.94 2.16 41.06 1.56 8.94 4.03 19.85 5.5 24.24 3.26 9.81 12.04 26.46 16.31 30.97 2.83 2.98 3.18 4.52 3.18 14.05 0 10.4-.1 10.76-3.67 12.6-3.66 1.9-3.68 1.88-13.09-8.8-17.9-20.35-25.4-34.92-30.97-60.17-.54-2.45-1.62-3.6-3.39-3.6-2.14 0-2.59.9-2.59 5.1 0 6.94 4.47 20.94 10.62 33.3 5.95 11.96 9.05 16.37 21 29.82l8.8 9.93-9.09 9.46c-8.26 8.59-10.3 11.92-22.33 36.57-12.87 26.35-20.95 40.11-28.54 48.62l-3.7 4.13zm23.2-82.06c6.11-3.1 15.32-10.86 15.32-12.91 0-4.25-5.74-2.94-11.79 2.69a32.75 32.75 0 0 1-8.1 5.06c-5.25 2.19-6.91 3.95-5.66 5.98 1.2 1.94 5.47 1.6 10.22-.82z"/><path fill="#975b27" d="M904.84 447.92c-6.8-4.95-8.06-6.4-30-34.73-8.65-11.17-18.5-25.26-21.91-31.33-3.41-6.07-7.82-12.66-9.8-14.65-3.31-3.3-3.62-4.45-3.62-13.53 0-5.46.54-9.93 1.2-9.93 2.48 0 14.79 10.87 20.43 18.05 5.41 6.9 13.44 21.8 20.13 37.39 3.88 9.03 15.14 27.44 23.79 38.88 4.9 6.48 7.15 10.58 6.63 12.04-.68 1.92-1.6 1.63-6.85-2.19zM112.47 449.98c0-1.38 2.54-5.65 5.65-9.5 10.02-12.4 13.86-18.91 27.12-45.95 7.16-14.6 15.1-29.34 17.63-32.75 4.86-6.52 18.5-18.03 21.38-18.03 1.27 0 1.6 2.53 1.3 10.15-.27 7.27-.84 10.06-2.01 9.83-.9-.18-1.5.14-1.31.72.18.57-1.8 4.26-4.4 8.18a382.3 382.3 0 0 0-10.1 16.44 196.92 196.92 0 0 1-13.6 19.67c-4.54 5.7-10 12.73-12.15 15.6-6.7 8.98-15.36 17.65-16.77 16.78-.75-.46-.97-.22-.5.53.87 1.42-8.62 10.83-10.93 10.83-.72 0-1.31-1.13-1.31-2.5zM791.75 504.77c1.2-2.33 4.36-7.82 7.02-12.21 12.26-20.27 21.77-45.09 30.34-79.21 3.5-13.96 6.77-28.85 7.25-33.1 1.08-9.53 1.81-9.09 10.88 6.62 7.03 12.19 23 33.9 38.51 52.38l9.25 11-3.45 2.76c-5.56 4.43-33.1 18.95-43.64 23.01-9.54 3.67-9.71 3.69-9.71 1 0-2.58 10.8-14.06 13.23-14.06.6 0 4.35-1.23 8.35-2.72 8.33-3.12 11.17-7.08 11.17-15.62 0-7.87-2.44-11.5-16.66-24.72-13.43-12.5-17.9-14.7-17.16-8.44.3 2.48 3.3 6.02 10.24 12.04 11.5 9.97 16.16 16.2 16.16 21.56 0 3.84-3.68 8-5.87 6.64-.62-.37-1.12-.1-1.12.6s-1.72 1.66-3.83 2.12c-11.33 2.5-22.91 15.65-22.13 25.14.54 6.4 4.2 8.47 11.97 6.77 6.4-1.4 26.27-10.88 44.61-21.28 13.59-7.7 15.83-8.44 16.93-5.58.4 1.05-2.78 4.36-8.05 8.35-30.8 23.35-59.5 34.91-100.17 40.33l-6.3.84zM218.58 507.33c-6.13-.63-16.31-2.61-22.64-4.41-20.1-5.72-53.57-23.89-69.72-37.85-3.92-3.4-4.86-4.9-3.75-6.05 1.72-1.76 5.82.12 23.72 10.88 14.63 8.8 34.5 17.95 38.94 17.95 1.94 0 4.9-1.46 6.79-3.35 2.83-2.83 3.2-4.09 2.47-8.19-1.47-8.1-6.84-13.42-20.14-19.9-9.26-4.52-12.28-6.64-12.9-9.1-1.34-5.22 4.46-14.21 14.65-22.74 10.18-8.5 11.51-10.21 10.35-13.24-1.56-4.05-5.33-1.94-17.87 10.04-12.76 12.18-15.4 16.19-15.4 23.4 0 8.71 5.46 14.07 19.8 19.43 7.98 2.98 10.7 5.3 12.84 10.93 3.24 8.51-7.25 4.7-39.54-14.4-18.48-10.92-17.7-9.36-9.25-18.72 2.29-2.53 7.24-8.72 11-13.77a388.9 388.9 0 0 1 13.01-16.37c7.35-8.6 12.22-15.83 18.95-28.16 2.76-5.05 5.22-9.42 5.48-9.72 1.06-1.26 1.86 1.36 3.79 12.43 6.94 39.82 22.06 82.2 38.86 108.92 4.17 6.65 7.59 12.4 7.59 12.78 0 .82-2.26.71-17.03-.8z"/><path fill="#573313" d="M730.64 651.53c-4.04-.47-8.02-1.27-8.84-1.78-.82-.51-1.5-3.54-1.5-6.74v-5.82l12.77-.02c15.43-.02 26.74-2.5 38.98-8.55 28.1-13.9 43.05-47.39 35.16-78.8-1.2-4.77-5.03-14.27-8.52-21.12-3.5-6.85-6.2-12.58-6.01-12.73.18-.16 4.88-.56 10.45-.9 11.34-.7 11.78-.46 16.56 9.04 12.86 25.59 10.13 61.3-6.6 86.44-7.12 10.69-21.88 24.46-32.44 30.27-14.59 8.03-35.21 12.45-50 10.71zM276.87 651.56a88.3 88.3 0 0 1-15.06-3.18c-6.67-2.18-19.45-8.26-20.96-9.97-.36-.4-3.4-2.6-6.74-4.88-12.73-8.66-26.12-26.53-31.99-42.68-8.13-22.4-6.93-45.25 3.54-67.3l3.88-8.2h11.07c7.55 0 11.07.5 11.07 1.53 0 .84-2.3 5.7-5.1 10.81-10.28 18.77-13.24 38.09-8.58 56.09 8.92 34.42 35.1 53.6 73.6 53.94l13.43.12v6.26c0 3.85-.63 6.48-1.63 6.81-3.22 1.08-18.81 1.46-26.53.65z"/><path fill="#573313" d="M590.61 759.38c0-.7 2.36-9.34 5.24-19.2 5.94-20.3 10.98-31.2 18.05-39.05 4.65-5.17 19.97-17.2 20.82-16.34.55.55-10.6 28.16-14.04 34.75-3 5.77-2.57 8.04 1.54 8.04 3.63 0 10.3-14.68 21.95-48.33 5.09-14.7 9.58-27.04 9.97-27.43.4-.4 4.4.62 8.88 2.25 14.62 5.34 34.46 5.03 45.82-.72l3.6-1.82v10.37c0 11.44-3.25 24.19-8.8 34.49-3.5 6.49-3.25 10.7.61 10 5.78-1.07 15.4-28.7 15.94-45.77.11-3.41.14-3.42 6.99-2.15 3.78.7 11.95.96 18.14.58 40.6-2.54 76.94-34.36 87.76-76.88 1.07-4.2 1.8-13.22 1.73-21.62-.11-16.35-2.44-26.49-9.17-40.06l-4.28-8.62 14.34-4.35c23.7-7.18 49.36-20.54 65.88-34.3 4.23-3.54 7.96-6.17 8.27-5.86 1.31 1.32-6.8 28.96-13.47 45.91-39.28 99.76-112.34 175.93-210.12 219.06-31.44 13.87-95.65 32.03-95.65 27.05zm82.47-43.72c1.6-4.37 2.7-8.14 2.46-8.37-.24-.24-1.55-.63-2.92-.88-1.93-.35-2.91.86-4.43 5.45a81.5 81.5 0 0 1-2.23 6.23c-.15.2-3.08-.9-6.5-2.41-4.62-2.04-6.63-2.38-7.71-1.3-2.43 2.43.66 5.66 8.42 8.78 4.49 1.81 7.61 2.42 8.55 1.65.8-.66 2.77-4.78 4.36-9.15zm-15.84-14.72c1.07-1.3.97-2.4-.41-4.26-1.76-2.36-2-2.38-4.13-.28-1.87 1.84-1.97 2.57-.57 4.25 2.06 2.5 3.23 2.56 5.11.3zm33.64-21.13c1.23-3.21 1.89-6.74 1.47-7.84-1.18-3.06-4.83-.9-5.68 3.37-.42 2.07-.96 3.77-1.22 3.77-.25 0-3.65-1.57-7.54-3.48-7.07-3.47-11.32-3.47-11.32-.02 0 1.87 15.9 9.85 19.87 9.98 1.4.04 2.98-2.01 4.42-5.78zm168.08-103.3c.78-.94 1.17-3.74.85-6.22-2.7-21.29-3.81-27.25-6.61-35.48-1.77-5.19-3.21-10.13-3.21-11 0-.85 3.68-2.86 8.19-4.47 9.82-3.5 16.4-7.6 24.82-15.49 5.98-5.59 8.2-10.76 4.64-10.76-.9 0-4.88 2.67-8.84 5.94-8.97 7.4-23.04 14.58-30.9 15.76-3.29.5-6.26 1.62-6.6 2.51-.34.89 1.7 8.62 4.54 17.2 3.31 10.02 5.64 20.12 6.54 28.34 1.69 15.59 2.9 18.1 6.58 13.68zM869.63 537c2.33-2.81.6-6.18-2.92-5.68-3.36.48-4.76 4.79-2.11 6.47 2.45 1.55 3.17 1.44 5.03-.79zM415.73 757.04c-74.96-17.57-149.98-57.85-197.61-106.1-40.52-41.04-73.49-92.63-91.67-143.44-6.63-18.53-12.04-37.75-10.94-38.84.4-.4 4.16 1.9 8.34 5.11a226.82 226.82 0 0 0 66.19 35.01l12.73 4.23-3.05 6.09c-7.47 14.92-9.13 22.13-9.22 40.14-.13 24.75 4.45 39.53 18.25 58.95C213.5 624.85 233 644.81 233 643c0-.33 2.4.92 5.34 2.77 14.78 9.34 36.46 14.56 55.46 13.38l10.98-.69.91 8.58c1.94 18.09 10.19 39.59 15.19 39.59 4.24 0 4.23-3.2-.04-11.64a75.66 75.66 0 0 1-7.91-33.81l-.02-9.43 6.22 2.88c5.26 2.43 8.54 2.87 21.29 2.87 13.28 0 16.02-.4 23.14-3.4l8.08-3.41 5.24 15.2c2.88 8.35 6.49 19.2 8.01 24.11 4.09 13.17 14.7 37.59 16.34 37.57a7.75 7.75 0 0 0 3.23-1.17c2.09-1.33 2.27-.74-7.66-24.86-3.68-8.93-6.46-16.46-6.18-16.73 1.3-1.3 17.4 11.12 22.06 17 7.73 9.78 10.13 15.17 16.87 37.9l6.12 20.62-3.41-.1c-1.88-.06-9.31-1.5-16.52-3.18zm-49.45-34.34c5.42-2.36 8.19-4.32 8.19-5.79 0-3.15-2.58-3.69-7.7-1.6-6.27 2.54-6.53 2.43-9.33-4.1-1.82-4.24-3.28-5.9-5.2-5.9-3.3 0-3.34 1.85-.16 9.97 1.38 3.52 2.83 7.43 3.24 8.7.94 2.97 1.3 2.93 10.96-1.28zm6.11-20.8c2-.78 2.84-4.56 1.35-6.06-1.8-1.8-5.82.77-5.82 3.72 0 3.22.9 3.7 4.47 2.33zm-23.32-19.7c10.59-4.54 13.11-7.23 7.58-8.06-1.4-.2-5.42 1.14-8.91 3-3.5 1.86-6.47 3.2-6.62 3-.14-.2-1.02-2.3-1.96-4.64-1.6-4.02-4.36-5.54-5.8-3.19-.74 1.18 2.92 14.66 3.97 14.66.36 0 5.65-2.15 11.74-4.77zM172.06 567.34c1.15-12.25 3.57-22.82 8.42-36.8 2.16-6.24 3.6-12.16 3.22-13.16-.38-1-3.16-2.23-6.16-2.72-8.42-1.38-22.92-8.63-32.17-16.08-4.6-3.7-8.87-6.42-9.5-6.04-6.13 3.8 12.27 19.32 31 26.15l9.35 3.4-3.73 10.54c-6.15 17.37-9.41 40.67-6.15 43.93 3.04 3.05 4.83.15 5.72-9.22zM161.59 535c0-2.4-.78-3.39-2.95-3.7-1.77-.25-3.27.4-3.74 1.64-1.3 3.4.52 6.2 3.74 5.75 2.17-.3 2.95-1.3 2.95-3.7z"/><path fill="#573313" d="m452.41 763.4-5.46-1.16c-2.93-.62-5.3-6.55-12.28-30.73-6.79-23.5-20.55-42.46-38.41-52.9-8.05-4.71-8.73-5.5-11.87-13.62-1.83-4.75-3.2-8.77-3.03-8.94.35-.34 21.42 11.45 32.3 18.08 10.1 6.15 23.61 20.08 28.64 29.52 2.36 4.43 7.51 17.54 11.44 29.11 3.93 11.58 8.35 23.4 9.81 26.27l2.67 5.22-5.6-.15c-3.07-.08-6.77-.4-8.21-.7zM560.48 764.2c0-.5 1.74-5.1 3.87-10.26a369.64 369.64 0 0 0 8.64-24.74c10.41-33.52 22.36-47.18 57.98-66.27 14.86-7.97 14.25-8.3 9.26 5.04-2.16 5.77-3.38 7.06-10.26 10.83-9.69 5.3-22.06 16.62-27.56 25.2-5.16 8.02-8.02 15.45-14.66 37.99-2.86 9.72-5.9 18.36-6.74 19.2-1.69 1.68-20.53 4.44-20.53 3z"/><path fill="#975b27" d="M482.63 767c-6.43-.78-6.49-.82-11.48-9.95-2.75-5.04-7.37-16.59-10.26-25.66-7.64-23.99-13.74-35.76-24.4-47.06-10.32-10.95-16.9-15.63-40.38-28.75-9.35-5.23-18.36-10.57-20.03-11.89-2.97-2.33-3.21-2.3-11.31 1.5-14.78 6.9-32.13 7.43-45.81 1.38-5.4-2.39-6.04-3.1-5.35-5.88 1.21-4.82-1.68-13.5-6.21-18.66-4.73-5.38-9.9-8.2-22.67-12.35-12.9-4.2-17.42-6.74-24.76-13.93-8.97-8.78-13.06-18.2-13.18-30.4-.09-7.86-.53-9.84-2.5-10.94-3.65-2.04-4.88.26-4.92 9.18-.13 27.01 16.37 46.24 46.87 54.62 7.74 2.13 17.49 8.48 17.49 11.4 0 2.49-27.06.4-36.53-2.83-23.57-8.01-37.69-24.04-42.85-48.67-3.8-18.14 1.95-40.28 14.26-54.83 2.01-2.38 3.85-4.1 4.1-3.83.24.27 5.06 6.68 10.72 14.25 12.15 16.23 48.89 53.56 64.7 65.74 25.17 19.38 49.2 31.99 80.8 42.39 11.86 3.9 25.8 9.31 30.97 12.03 12.79 6.7 27.76 21.26 39.9 38.8 20.97 30.3 36.6 38.93 54.97 30.39 8.98-4.18 17.7-12.48 27.2-25.88 23.1-32.57 36.07-42.92 66.15-52.79 31.1-10.2 53.11-20.54 74.02-34.78 27.98-19.06 52.32-42.3 77.46-73.93l12.91-16.24 3.08 2.88c4.72 4.4 14.36 25.41 15.74 34.31 4.06 25.97-10.3 54.41-33.02 65.44-9.1 4.4-20.16 7-33.82 7.91-10.17.68-11.32.53-11.03-1.45.5-3.41 5.13-6.5 15.52-10.35 23.18-8.61 34.2-16.33 40.3-28.22 3.55-6.92 6.52-19.63 6.52-27.87 0-7.74-1.08-9.4-5.25-8.07-2.25.7-2.6 1.99-2.6 9.18 0 12.2-5.25 25.52-13 33.07-6.9 6.7-11.52 9.25-24.34 13.42-20.82 6.76-26.53 12.1-28.04 26.16-.77 7.14-.87 7.29-7.33 10.5-5 2.48-9.16 3.37-17.57 3.74-11.78.53-17.39-.64-28.7-5.96l-6.98-3.28-2.85 2.62c-1.57 1.44-10.52 6.91-19.88 12.16-23.32 13.06-30.03 17.79-40.12 28.27-10.54 10.97-15.63 20.75-24.1 46.3-6.46 19.53-12.6 34.52-14.63 35.78-2.42 1.5-33.16 2.61-33.16 1.2 0-.76 2.51-3.21 5.57-5.45 15.62-11.42 31.38-31.78 27.57-35.6-1.7-1.7-2.47-.96-12.18 11.62-5.25 6.8-17.54 17.53-23.22 20.27-2.56 1.23-4.14.47-12.45-5.92-5.24-4.03-11.87-10.3-14.73-13.95-4.92-6.25-9.85-8.72-9.85-4.93 0 5.26 16.08 23.36 25.87 29.1 7.1 4.19 5.52 5.9-5.24 5.67a203.7 203.7 0 0 1-15.96-.98z"/></g><g><path fill="#573313" d="M510.49 40.2c-2.03-6.12-7.63-12.87-13.04-15.73-2.2-1.16-1.99-1.56 2.27-4.2 5.88-3.63 9.29-8.35 11.22-15.54 1.5-5.54 4-6.45 4-1.46 0 5.07 5.33 13.08 11.13 16.76l5.76 3.66-4.47 2.13c-4.72 2.25-12.4 11.63-12.43 15.18a8.74 8.74 0 0 1-1.16 3.89c-.8 1.27-1.75-.08-3.28-4.68zM557.7 59.29c-1.7-4.83-3.52-7.27-6.87-9.24l-4.54-2.68 5.27-4.52c2.99-2.55 5.75-6.33 6.36-8.68 1.31-5.07 3.07-4.85 4.9.6 1.33 3.92 6.4 9.33 10 10.65 1.13.4-.2 2.32-3.79 5.44-3.74 3.26-5.8 6.27-6.37 9.34-1.24 6.64-2.34 6.43-4.95-.91zM464.46 64.06c-3.31-8.79-4.59-10.98-8.04-13.84l-3.85-3.19 4.2-3.96a23.14 23.14 0 0 0 5.74-9.67c1.69-6.24 2.85-5.92 5.2 1.45.85 2.66 3.5 6.56 5.88 8.65l4.33 3.8-4.38 3.5c-2.89 2.3-5.01 5.6-6.24 9.69-1.53 5.1-2.03 5.73-2.84 3.57zM609.4 83.79c-1.97-8.8-5.89-14.8-12.43-19.05-4.52-2.94-4.77-3.39-2.58-4.59 6.18-3.4 13.5-12.2 15.1-18.15 1.93-7.23 3.54-7.26 5.65-.12 2.26 7.67 5.6 12.05 12.01 15.82l5.72 3.35-4.97 3.6c-7.92 5.74-11.76 11.2-13.4 19.05-.82 3.97-1.94 7.21-2.5 7.21-.55 0-1.72-3.2-2.6-7.12zM412.06 87.36c-2.59-12.07-10.4-23.96-15.76-23.96-3.3 0-2.02-2.16 3.58-6.04 5.35-3.7 11.54-13.96 11.57-19.17.02-3.91 2.37-2.52 3.32 1.96 1.56 7.37 6.24 14.2 12.07 17.61 3.07 1.8 5.58 3.66 5.58 4.14 0 .48-1.83 1.67-4.07 2.66-5.14 2.28-11.28 11.85-12.4 19.34-1.04 6.9-2.81 8.48-3.89 3.46zM661.76 92.7c-3.6-4.58-3.43-9.05.5-12.98 6.44-6.44 16.44-2.9 16.44 5.8 0 9.73-11.2 14.48-16.94 7.18zM352.92 94.83c-3.3-1.32-5.65-5.13-5.65-9.13 0-4.02 5.73-9.2 10.2-9.2 8.6 0 12.73 11.65 6 16.94-3.7 2.91-6.02 3.22-10.55 1.4z"/><path fill="#975b27" d="M687.44 124.64c4.81-12.33 5.91-14.14 9.81-16.15 7.35-3.8 14.2-.85 14.19 6.1-.01 8.34-9 15.53-21.78 17.42l-5.41.8zM334.04 131.5c-11.61-1.96-18-7.07-19.1-15.27-.9-6.73 2.68-10.29 9.14-9.08 5.88 1.1 9.4 5.17 11.93 13.78 1.14 3.9 3.06 8.18 4.25 9.5 1.2 1.32 1.64 2.33.99 2.25-.65-.09-3.9-.61-7.2-1.17z"/><path fill="#573313" d="M509.7 140.7c-3.05-12.76-11.91-22.02-24.57-25.7-7.5-2.2-7.92-3.63-1.41-4.94 11.14-2.23 22.68-14.08 25.93-26.62.9-3.46 1.86-7.06 2.14-8 .99-3.27 2.99-.17 4.45 6.89 2.48 11.95 11.65 22 24.5 26.89 3.47 1.31 6.05 2.9 5.73 3.5-.31.62-3.03 1.74-6.03 2.5-11.55 2.94-20.2 11.76-23.91 24.41-1.23 4.19-2.92 7.61-3.74 7.61-.83 0-2.22-2.94-3.08-6.54z"/><path fill="#975b27" d="m726.78 168.46-7.59-2.28 8.88-4.56c7.52-3.85 10.2-4.54 17.42-4.5 4.69.02 10.84.51 13.66 1.08l5.13 1.03-8.16 5.37c-9.75 6.4-17.5 7.43-29.34 3.86z"/><path fill="#573313" d="M555.28 166.9c-2.27-5.27-5.54-8.44-10.13-9.85-3.13-.95-3.1-1.03 1.75-3.52 3.52-1.8 5.7-4.22 7.52-8.34 2.66-6.02 5.07-7.61 5.07-3.36 0 3.69 5.1 9.42 10.37 11.64l4.7 1.99-5.26 2.25c-5.7 2.45-8.35 5.05-10.6 10.36l-1.45 3.4zM467.38 165.8c-1.65-3.74-3.8-6-7.32-7.67l-5-2.37 4.73-2.62a18.04 18.04 0 0 0 7.3-8.19c1.43-3.06 2.9-5.57 3.29-5.57.38 0 1.87 2.45 3.3 5.44a17.19 17.19 0 0 0 7.7 8.07l5.06 2.63-4.37 1.43c-3.88 1.27-6.32 3.9-11.03 11.88-1.13 1.93-1.66 1.5-3.66-3.04z"/><path fill="#975b27" d="M270.73 165.36c-8.64-5.18-8.92-5.5-5.9-6.71 1.75-.7 7.9-1.33 13.67-1.4 9.41-.13 11.4.31 19.55 4.32l9.07 4.46-9.73 2.34c-14.09 3.4-16.43 3.13-26.66-3zM748.14 234.03c.02-3.77 6.13-15.74 8.72-17.08 1.32-.68 4.53-1.63 7.13-2.1 6.1-1.1 8.15 1.26 8.15 9.3 0 4.95-.64 6.6-3.57 9.1-2.94 2.53-5.04 3.07-12 3.07-7.18 0-8.44-.34-8.43-2.3zM268.67 236.63c-6.78-.8-8.85-1.66-12.24-5.05-4.33-4.33-4.8-12-.94-15.49 3.31-3 11.8-1.72 15.61 2.35 2.62 2.78 6.74 12.53 6.74 15.93 0 1.83-4.17 2.86-9.17 2.26z"/><path fill="#573313" d="M780.25 329.89c-2.76-7.22-9.9-12.89-18-14.27-5.98-1.01-6.01-.97 3.79-4.62 4.14-1.55 13.52-9.91 13.52-12.06 0-.62.94-3.32 2.08-6l2.07-4.87 2.57 6.8c3.13 8.26 9.6 14.27 17.55 16.27 6.2 1.56 7.88 3.76 2.92 3.81-4.2.04-12.93 4.32-16.32 8a33.03 33.03 0 0 0-4.93 8.04c-1.12 2.69-2.25 4.89-2.5 4.89s-1.49-2.7-2.75-6zM238.83 329.4c-3.54-7.71-8.76-11.77-17.85-13.87l-6.67-1.55 5.24-1.48c11.03-3.11 17.98-9.97 19.79-19.52 1.08-5.73 2.73-5.36 4.45 1 2.42 9.01 8.75 14.58 21.6 19 2.17.75 1.7 1.18-2.72 2.53-10.77 3.27-18.89 10.8-18.89 17.5 0 4.62-1.77 3.33-4.95-3.62zM791.95 374.58c-1.77-1.76-3.22-4.74-3.22-6.6 0-4.72 5.45-9.83 10.48-9.83s10.48 5.11 10.48 9.82c0 4.72-5.45 9.83-10.48 9.83-2.55 0-5.23-1.19-7.26-3.22zM219.18 375.76c-2.17-1.52-2.9-3.35-2.9-7.2 0-6.37 3.58-10.41 9.25-10.41 5.63 0 8.58 1.91 10.23 6.64 3.37 9.67-7.84 17.1-16.58 10.97z"/><path fill="#975b27" d="M767.33 423.65c-2.05-.63-6.42-3.25-9.72-5.81-3.3-2.57-6.92-4.69-8.06-4.71-3.86-.07 1.31-2.19 9.44-3.85 10.79-2.22 16.6-.8 27.87 6.82 5.39 3.64 9.63 6.75 9.43 6.91-1.24 1.03-25.93 1.57-28.96.64zM237.24 424.05l-9.82-.53 10.93-7.1c14.37-9.36 18.26-10 34.66-5.72L278 412l-4.66 3.16c-2.56 1.74-6.32 4.4-8.36 5.9-4.1 3.03-11.76 3.86-27.74 3zM259.09 484.74c8.98-15.5 16.16-19.15 33.9-17.24 7.18.76 8.32 1.21 7.03 2.77-.85 1.01-1.96 1.85-2.47 1.85-.51 0-3.5 2.36-6.62 5.25-6.26 5.77-10.65 7.29-23.88 8.23-6.36.45-8.58.2-7.96-.86zM756.97 485.89c-10.68-1.56-12.05-2.12-20.04-8.28-4.7-3.64-9.28-6.87-10.15-7.19-3.39-1.21.7-2.6 9.51-3.23 11.84-.85 19.61 1.89 24.55 8.65 1.93 2.64 4.98 6.41 6.78 8.4 1.8 1.98 2.71 3.53 2.04 3.45-.68-.07-6.39-.89-12.7-1.8zM700.1 523.3c-2.28-1.4-4.49-3.75-4.91-5.24l-1.58-5.52c-.75-2.64-.46-2.77 4.78-2.07 6.8.91 10.27 4.13 11.3 10.52.72 4.44.53 4.84-2.33 4.83-1.72 0-4.98-1.14-7.26-2.53zM315.26 522.88c2.24-7.2 3.31-8.84 7-10.74 5.11-2.65 9.29-2.62 9.29.06 0 4.55-4.2 10.85-8.16 12.23-6.72 2.34-9.2 1.87-8.13-1.55zM677.1 577.86a434.94 434.94 0 0 0-9.56-8c-7.9-6.39-8.94-9.74-8.6-27.66l.19-9.17 2.9 3.93c1.6 2.16 5.7 6.66 9.13 9.99 3.42 3.33 7.11 8.2 8.2 10.8 1.8 4.3 4.38 24.46 3.13 24.37-.29-.02-2.71-1.94-5.4-4.26zM342.57 577.9c.36-2.34 1.03-7.2 1.5-10.78 1.02-8.02 4.26-14.52 9.8-19.68a77.34 77.34 0 0 0 7.87-8.89l3.65-4.95.92 8.61c1.77 16.54-1.27 24.6-11.36 30.1-3.45 1.87-7.4 4.85-8.8 6.62-3.4 4.34-4.37 4.06-3.58-1.03z"/><path fill="#573313" d="M606.65 603.12c-1.75-1.75-2.62-4.37-2.62-7.86 0-6.74 3.53-10.48 9.88-10.48 6 0 11.08 4.8 11.08 10.48 0 8.83-12.16 14.04-18.34 7.86zM405.87 604.1c-5.42-4.12-5.17-15.06.4-18.04a12.16 12.16 0 0 1 13.92 2.09c6.44 6.44 1.4 17.59-7.97 17.59-2.3 0-5.16-.74-6.35-1.64z"/></g><path fill="#573313" d="M508.76 689.93c-6.4-1.75-9.33-4.14-11.8-9.57-2.21-4.88-2.48-8.9-2.5-37.77l-.04-32.3-20.82-.45c-26.64-.57-26.34-.36-26.34-17.63 0-17.91 1.47-18.8 31.12-18.82l16.04-.02V550l-8.84-.87c-50.62-4.99-97.35-26.34-132.99-60.77-42.24-40.81-65.04-90.75-67.33-147.5-2-49.34 10.18-94.64 35.89-133.63 28.65-43.43 68.56-74.98 118.62-93.76 10.72-4.02 11.65-4.16 13.68-2.14 2.64 2.64 3.1 2.2-8.3 7.9-29.55 14.8-57.45 48.43-71.8 86.57-7.75 20.58-11.6 55.56-8.67 78.82 3.1 24.7 13.1 50.55 28.48 73.74 19.13 28.84 52.34 51.03 87.53 58.49 14.45 3.06 45.8 3.12 61.38.11 51.71-9.98 91.81-45.9 110.55-99.03 10.97-31.1 10.99-71.47.04-106.11-12.45-39.4-42.45-76.89-74.47-93.05-8.78-4.43-9.82-5.59-7.06-7.88 1.65-1.37 4-.91 13.4 2.64 16.8 6.31 42.97 19.93 56.17 29.22 16.86 11.85 51.6 46.88 61.86 62.38 15.64 23.62 27.45 53.32 33.14 83.32 4.33 22.79 4.34 61.62.02 82.97C724.25 428.15 694.49 475.02 649 508c-29.57 21.44-70.96 37.16-105.13 39.92l-11.46.92v24.53l16.7.08c26.17.11 29.1 2.1 29.13 19.75.02 7.92-.5 10.66-2.48 13.1-2.42 3-3.19 3.1-23.25 3.38l-20.75.28-.66 33.12c-.56 28.4-.98 33.73-2.97 37.37-3.8 6.95-12.71 11.31-19.37 9.48zm12.41-174.83c7.91-7.91 7.97-17.79.2-34.41-3.83-8.2-4.8-11.91-5.04-19.32l-.3-9.17 12.17-1.17c13.8-1.32 13.23-1.62 19.4 10.14 3.92 7.48 5.49 21.12 3.33 29.04-.78 2.9-3.5 8.72-6.04 12.94-4.86 8.06-5.53 10.56-3.21 11.99 2.29 1.41 7.58-4.6 12.08-13.74 3.83-7.8 4.2-9.62 4.2-21 0-11.67-.32-13.14-4.8-22.53l-4.8-10.04 9.38-2.1c5.16-1.14 16.17-5.02 24.45-8.6 8.29-3.59 15.81-6.53 16.72-6.53.9-.01 4.31 1.24 7.57 2.77 7.55 3.54 11.69 10.5 13.54 22.72 1.35 8.9 3.94 14.14 8.38 16.94 1.56.98 2.62.95 3.7-.13 1.13-1.13.8-2.49-1.35-5.5-1.57-2.21-3.42-7.7-4.13-12.22-.71-4.52-1.88-10.06-2.6-12.3-1.68-5.26-9.57-13.14-15.18-15.17-2.4-.87-4.38-1.9-4.38-2.3 0-.4 4.94-3.81 10.97-7.6l10.96-6.87 6.9 1.3c7.76 1.48 13.27 4.5 18.9 10.4l3.85 4.01-3.85.02c-6.23.04-7.73 1.75-7.43 8.53.38 8.85 4.76 15.82 11.55 18.42 9.2 3.51 14.96.51 14.96-7.8 0-3.92-1.19-7.18-4.35-11.95-2.4-3.61-5.94-9.07-7.88-12.13-4.16-6.57-15.16-14.2-22.35-15.49l-5.1-.92 7.07-6.47 7.07-6.46 11.29.42c11.23.43 11.31.45 17.32 6 7.03 6.47 13.34 7.64 22.1 4.1 10.93-4.42-.1-19.27-15.24-20.52-5.78-.48-7.36-.13-9.46 2.13-2.26 2.42-3.54 2.63-11.85 1.94l-9.32-.78 4.38-6.85c2.41-3.77 5.96-9.73 7.9-13.25 5.1-9.33 10.64-14.57 17.94-17 6.04-2 6.76-2 11.6.2 15.76 7.1 31.13-3.18 19.45-13.01-8.02-6.75-20.6-6-22.79 1.36-1 3.37-2.03 4.2-5.9 4.75a39.71 39.71 0 0 0-7.2 1.68c-2.11.85-2.35.6-1.47-1.51.58-1.39 2.72-8.63 4.77-16.1 2.04-7.47 4.6-14.95 5.7-16.6 1.08-1.66 4.95-4.64 8.59-6.62 3.64-1.99 7.78-5.5 9.2-7.8 3.14-5.07 3.43-14.83.6-20.3-1.96-3.77-10.35-9.11-14.33-9.11-2.93 0-2.61-8.12.57-14.35 6.06-11.88 4.29-21.71-5.4-30.01-2.97-2.54-6.24-6.64-7.28-9.13-1.7-4.06-2.1-4.32-3.9-2.52-3.45 3.46-.95 10.04 6.43 16.93 5.83 5.44 6.55 6.7 6.49 11.41-.04 2.92-1.29 8.05-2.78 11.4-1.78 4.03-2.7 8.88-2.7 14.2v8.1h4.5c6.22 0 10.72 2.7 13.2 7.94 3.51 7.4.44 12.9-10.21 18.3-7.57 3.84-10.52 8.36-13.47 20.64-7.35 30.56-22.65 57.15-45.28 78.7-24.16 22.98-52.23 37.95-83.93 44.74-15.3 3.28-52.45 3.34-67.55.1-30.37-6.5-57.25-20.44-81.22-42.12-18.73-16.94-38.77-51.4-45.65-78.53-4.1-16.18-6.73-20.21-16.35-25.08-6.84-3.47-9.04-6.33-9.04-11.73 0-7.67 4.75-12.34 12.6-12.4 5-.04 5.47-.36 6.23-4.14 1.6-8 .85-12.94-2.79-18.43-4.4-6.67-4.89-15.07-1.1-19.26 1.37-1.51 3.18-2.75 4.03-2.75 3.35 0 7.35-6.2 7.61-11.8.36-7.5-2.33-8.27-5.06-1.46a16.44 16.44 0 0 1-6.48 7.86c-9.86 5.81-11.85 16.27-5.55 29.1 1.98 4.04 3.6 8.84 3.6 10.67 0 2.76-.77 3.47-4.54 4.18-9.75 1.83-16.47 12.07-14.56 22.23 1.14 6.1 5.09 10.56 13.2 14.94 7.1 3.83 6.47 2.64 14.17 27.1a353.24 353.24 0 0 0 4.22 12.8c.8 2.05.5 2.16-2.6.99a27.13 27.13 0 0 0-8-1.34c-3.9 0-4.5-.43-4.5-3.18 0-1.9-1.45-4.31-3.6-6.02-2.98-2.35-4.85-2.74-10.7-2.26-5.98.49-7.7 1.25-10.9 4.82-4.5 5.04-4.33 8.65.58 12.3 4.44 3.3 13.26 3.48 19.41.42 4.93-2.46 8.66-2.06 17.58 1.89 4.32 1.9 6.68 4.3 10.57 10.67a355.5 355.5 0 0 0 10.76 16.35l5.75 8.13-10.89.39c-7.81.27-11.26-.1-12.24-1.35-2.3-2.93-11.8-3.44-18.26-.97-9.57 3.65-15.68 13.5-10.84 17.47C326 403.82 336 405.9 340.1 405c2.17-.48 6.32-3.32 9.22-6.3l5.27-5.44 12.6-.42 12.62-.42 5.62 5.76 5.61 5.76-7.91 2.2c-9.12 2.53-16.22 8.7-21.66 18.84-1.86 3.45-4.5 8.04-5.88 10.2a29.23 29.23 0 0 0-3.35 9.28c-1.15 7.19 1.4 9.71 9.8 9.71 9.86 0 14-4.38 16.91-17.88 1.53-7.07.23-8.91-6.28-8.91-2.92 0-5.3-.45-5.3-1 0-2.75 11.61-12.68 16.37-13.98 10.18-2.8 13.85-1.98 24.56 5.47l9.96 6.94-5.96 3.16c-8.1 4.3-11.7 10.27-14.22 23.6-1.16 6.11-3.31 13.08-4.79 15.47-3.15 5.12-1.75 7.96 2.74 5.55 4.04-2.16 6.62-8.09 8.73-20.04 2.14-12.21 5.31-16.61 14.47-20.11l5.58-2.13 15.59 6.7c8.57 3.67 16.22 6.68 16.99 6.68.77 0 5.24 1.19 9.95 2.64l8.54 2.64-3.8 7.51c-7.15 14.12-7.59 32.36-1.11 45.75 5.23 10.8 11.9 16.53 13.73 11.79.36-.95-1.4-5.16-3.93-9.36-6.58-10.92-7.69-15.26-7.02-27.4.48-8.7 1.37-12.17 4.85-19l4.26-8.37 7.94.83c4.37.46 10.22.83 13 .83h5.04v9.76c0 8.7-.52 10.77-4.8 18.95-7.84 15.01-7.43 28.95 1.06 36.1 5.6 4.7 10.5 4.32 16.08-1.25zm-84.35-19.34c6.88-4.67 8.45-11.26 6.02-25.32-1.08-6.27-2.46-11.9-3.08-12.51-2.38-2.39-13.32 9.45-19.15 20.73-7.05 13.64 4.04 25.34 16.2 17.1zm165.74-.27c3.83-3.84 4.27-10.56 1.08-16.83-3.6-7.08-15.04-21.88-16.93-21.88-2.31 0-4.44 7.52-5.4 19.1-.6 7.3-.28 10.29 1.54 14.12 4.1 8.64 13.84 11.35 19.7 5.49z"/><g><g fill="#975b27"><path d="M511.84 178.35a31.58 31.58 0 0 1 7.24 19.28 31.63 31.63 0 0 1-7.46 21.05 33.53 33.53 0 0 1-6.69-21.28 33.48 33.48 0 0 1 6.91-19.05zM548.3 184.73a31.58 31.58 0 0 1 .21 20.58 31.63 31.63 0 0 1-14.21 17.24 33.53 33.53 0 0 1 1-22.29 33.48 33.48 0 0 1 13-15.53zM580.38 203.18c-.02 7-2.47 13.96-6.84 19.42a31.63 31.63 0 0 1-19.25 11.34 33.53 33.53 0 0 1 8.56-20.6 33.48 33.48 0 0 1 17.53-10.16zM604.22 231.5a31.58 31.58 0 0 1-13.07 15.91 31.63 31.63 0 0 1-21.97 4.06 33.53 33.53 0 0 1 15.09-16.42 33.48 33.48 0 0 1 19.95-3.55zM616.93 266.27a31.58 31.58 0 0 1-17.72 10.47 31.63 31.63 0 0 1-22.04-3.7 33.53 33.53 0 0 1 19.8-10.27c6.8-.93 13.88.3 19.96 3.5zM616.99 303.28a31.58 31.58 0 0 1-20.24 3.78 31.63 31.63 0 0 1-19.44-11 33.53 33.53 0 0 1 22.11-2.9A33.48 33.48 0 0 1 617 303.29zM604.38 338.08a31.59 31.59 0 0 1-20.31-3.37 31.63 31.63 0 0 1-14.5-16.99c7.52-.93 15.35.82 21.76 4.85a33.48 33.48 0 0 1 13.05 15.51zM580.63 366.47a31.58 31.58 0 0 1-17.94-10.11 31.63 31.63 0 0 1-7.81-20.93 33.53 33.53 0 0 1 18.8 12 33.48 33.48 0 0 1 6.95 19.04zM548.6 385.02a31.58 31.58 0 0 1-13.4-15.63 31.63 31.63 0 0 1-.18-22.34 33.53 33.53 0 0 1 13.56 17.71 33.49 33.49 0 0 1 .02 20.26zM512.16 391.5a31.58 31.58 0 0 1-7.24-19.27 31.63 31.63 0 0 1 7.46-21.05 33.53 33.53 0 0 1 6.69 21.28 33.48 33.48 0 0 1-6.91 19.05zM475.7 385.13a31.58 31.58 0 0 1-.21-20.58 31.63 31.63 0 0 1 14.21-17.24 33.53 33.53 0 0 1-1 22.28 33.48 33.48 0 0 1-13 15.54zM443.62 366.68c.02-7 2.47-13.96 6.84-19.42a31.63 31.63 0 0 1 19.25-11.34 33.53 33.53 0 0 1-8.56 20.6 33.48 33.48 0 0 1-17.53 10.16zM419.78 338.36a31.58 31.58 0 0 1 13.07-15.91 31.63 31.63 0 0 1 21.97-4.07 33.53 33.53 0 0 1-15.09 16.43 33.48 33.48 0 0 1-19.95 3.55zM407.07 303.6a31.58 31.58 0 0 1 17.72-10.48 31.63 31.63 0 0 1 22.04 3.69 33.53 33.53 0 0 1-19.8 10.28c-6.8.93-13.88-.3-19.96-3.5zM407.01 266.58a31.58 31.58 0 0 1 20.24-3.78 31.63 31.63 0 0 1 19.44 11 33.53 33.53 0 0 1-22.11 2.9A33.48 33.48 0 0 1 407 266.57zM419.62 231.78c6.9-1.19 14.17.02 20.31 3.37a31.63 31.63 0 0 1 14.5 16.99 33.53 33.53 0 0 1-21.76-4.85 33.48 33.48 0 0 1-13.05-15.51zM443.37 203.39a31.58 31.58 0 0 1 17.94 10.1 31.63 31.63 0 0 1 7.81 20.94 33.53 33.53 0 0 1-18.8-12 33.48 33.48 0 0 1-6.95-19.04zM475.4 184.83a31.58 31.58 0 0 1 13.4 15.64 31.63 31.63 0 0 1 .18 22.34 33.53 33.53 0 0 1-13.56-17.71 33.49 33.49 0 0 1-.02-20.27z"/></g><path fill="#573313" d="M512 211.68a72.94 73.25 0 0 0-72.94 73.25A72.94 73.25 0 0 0 512 358.18a72.94 73.25 0 0 0 72.94-73.25A72.94 73.25 0 0 0 512 211.68zm0 14.23a58.77 59.02 0 0 1 58.77 59.02A58.77 59.02 0 0 1 512 343.95a58.77 59.02 0 0 1-58.77-59.02A58.77 59.02 0 0 1 512 225.9z"/><path fill="#573313" d="M512 243.65a41.1 41.28 0 0 0-41.1 41.28A41.1 41.28 0 0 0 512 326.2a41.1 41.28 0 0 0 41.1-41.28 41.1 41.28 0 0 0-41.1-41.28zm-15.64 12.15a6.8 9.1 45.73 0 1 4.14 1.8 6.8 9.1 45.73 0 1-2.12 11.26 6.8 9.1 45.73 0 1-11.2 1.14 6.8 9.1 45.73 0 1 2.12-11.26 6.8 9.1 45.73 0 1 7.06-2.94zM483.09 273a3.87 3.87 0 0 1 3.87 3.87 3.87 3.87 0 0 1-3.87 3.87 3.87 3.87 0 0 1-3.87-3.87 3.87 3.87 0 0 1 3.87-3.88z"/></g></g></g></svg>