<svg xmlns="http://www.w3.org/2000/svg" viewBox="0 0 256 256"><g fill="#00C895"><path d="M86.9 121.1s16.7-15.8 23.2 0c10.2 25-.2 80.5 25 80.3 20.9-.2 12.5-61 41.5-83.5 20.6-16 43.4-19 43.4-19s-30.8-3.6-54.3 17.2c-21.1 18.7-23.2 69.8-30.8 69.6-14.6-.5-.5-78.8-30.4-74.7-8.9 1.1-17.6 10.1-17.6 10.1z"/><path d="M212.8 106.5s4.2-2.3 6.5-4.2c1.9-1.6 1.4-2.8 4.9-3 7.7-.5 16.5 6.7 16.5 6.7s-13.1-2.6-17.8-2.1c-6.4.7-10.1 2.6-10.1 2.6zM89.6 88.9s5.7-26.7-5-27.9c-13.8-1.5-14.1 18.6-12.3 27.5 1.3 6.3 4.2 10.5 4.2 10.5s-8.9-29 5.9-29c11.1-.1 7.2 18.9 7.2 18.9z"/><path d="M116.1 85c0-.6-.1-1.3-.1-1.9-1.1-10.8-8-18.7-15.7-17.9-3.8.4-7.1 2.9-9.3 7.1-2 3.8-2.8 8.7-2.3 13.7 1.1 10.3 7.4 18 14.7 18 .3 0 .6 0 1 0 9.5-.9 9.6-7.7 9.6-11.7 0-2.6.1-4.3 1.2-5.2l1-.8-.1-1.3zm-4 1.1c-2.9 1.1-.9 4.2-1.1 7.1-.1 2.9-1.1 7.8-6.3 7.9S94 92.9 93.6 83.4c-.5-11.4 6.8-13.1 6.8-13.1s3.7-1.3 6.5.6c3.9 2.6 6.3 14.5 6.3 14.5s-.2.3-1.1.7zM87.9 102.9c-1.4-4.6-6-7.9-11.5-7.9-6.6 0-11.9 4.8-11.9 10.8 0 .7.1 1.4.2 2.2 0-.1 0-.1 0-.2.8 4.9 4.4 9.2 4.4 9.2s-2.3-6.1.6-13c1.1-2.6 4.1-4.6 6.1-5.6.8 2.1 4.9 11.7 10.9 9 1.8-.9 2-2.7 1.2-4.5zm-3.8 1.8c-2.9 1-6.4-4.8-7.3-6.4 1.8 0 4.6.4 6.4 1.9 1.6 1.8 2 4.1.9 4.5zM74.4 63.1c-2.2-3.9-4.7-7.7-7.2-11.4-11-15.7-25-27-38.5-32.4l.1-.5C45.3 21.5 64 34.4 77.9 54.2c1.1 1.6 2.2 3.2 3.2 4.9-1 .2-2 .5-3.1.9-1.6.7-2.7 1.8-3.6 3.1z"/></g><path d="M35.5 190.3c-2.9 0-8.3-2.1-8.9-3.4-.1-1.5-.1-3-.1-4.5 0-11.5 1.6-24.2 5.5-38.8.4-1.4 1-3.8 1.4-6.4-7.4 5.8-25 35.1-26.8 53.2-5-1.5-6.6-2.8-6.6-4.9 0-3.7 4.8-13.9 12.1-27.2 8.3-15.1 15.9-27.1 23.1-31.3 2.9 0 10.8 3.4 11.1 4.8-2.8 5.8-8.5 24.8-10.6 40 7.2-17.1 22-39.8 29.1-44.9 2.9 0 10.8 3.4 11.1 4.8-6.6 11.9-10.1 35.9-10.1 50.5 0 2.4 0 5 .1 7.8-2.9 0-8.6-1.6-9.8-3.4-.1-1.5-.1-3-.1-4.5 0-11.5 1.6-24.2 5.5-38.8.4-1.5 1-4.1 1.5-6.8-8.8 4.3-25.4 35-26.7 53.5-.1.3-.2.3-.8.3zM74.6 174.5c0-8.3 5.4-18.4 12.7-23.8 2.8-2.1 5.6-3.2 8-3.2 1.6.8 3.4 2.8 4.9 5.5.5 0 1-.1 1.4-.1 2.8 0 4.1 2.3 4.1 7.3 0 13-9 24.2-21.4 26.8-5.8-.5-9.7-5.5-9.7-12.5zm7.5 3.9c0 2.5 1 5.2 2 5.5 9.3-2 16.1-12 16.1-24.2 0-2.6-.3-4.1-1-5.2-4.5 1.3-8.2 4.7-10.8 8-3.6 4.9-6.3 11.8-6.3 15.9zM172.3 175.3c0 .6-.1 1.3-.1 2 0 2.6.6 6.2 3.6 6.2 5.6 0 11-5.6 14.3-9.1.5.5 1 .8 1.3 1.3-4.7 6.2-10.7 10.6-15.6 11.7-7.2-.8-11.4-5.7-11.4-11.9 0-12.8 11.7-27.8 22-27.8 2.3.3 4.6 1.8 6.7 4.4-.8 12.9-7.5 17.9-20.8 23.2zm.6-2.9c8.3-4.1 14.4-10.5 14.8-17.6-5.7.7-12.3 7.9-14.8 17.6zM204.2 153.1c1.3-3.2 2.3-4.8 3.5-6.1 2.9.5 6.6 2.3 7.8 3.7-2.8 3.3-4.8 7.2-6.9 13.9 5.5-5 9.7-9.2 13.5-14.8.4-.3.8-.4 1.6-.4 1.5 0 3 .5 3.5 1.3-1 2.5-1.4 4.9-1.4 7.4 0 2.3.3 4 1 5.2-.1.6-1.6 2.7-3.2 4.3-2.8-1.4-5.2-4.1-6.2-7.2-9.8 6.8-13.2 12.3-16.2 26.6-1.9-.1-5.7-2.6-6.4-4.2 1-6 5.6-20.8 9.4-29.7zM235.2 175.3c0 .6-.1 1.3-.1 2 0 2.6.6 6.2 3.6 6.2 5.6 0 11-5.6 14.3-9.1.5.5 1 .8 1.3 1.3-4.7 6.2-10.7 10.6-15.6 11.7-7.2-.8-11.4-5.7-11.4-11.9 0-12.8 11.7-27.8 22-27.8 2.3.3 4.6 1.8 6.7 4.4-.8 12.9-7.6 17.9-20.8 23.2zm.6-2.9c8.3-4.1 14.4-10.5 14.8-17.6-5.7.7-12.3 7.9-14.8 17.6z"/><path d="M15 211.3c0-.7.4-1.1 1.1-1.1H22c3.8 0 6.8 2.6 6.8 6.3 0 3.5-3 6.2-6.7 6.2H17v7.1c0 .7-.3 1-1 1s-1-.3-1-1v-18.5zm2 .9v8.5h5.1c2.6 0 4.7-1.6 4.7-4.2 0-2.7-2.1-4.3-5.1-4.3H17zM33.2 209c.8 0 1.4.6 1.4 1.4 0 .8-.6 1.4-1.4 1.4-.8 0-1.4-.6-1.4-1.4 0-.8.7-1.4 1.4-1.4zm-1 7c0-.7.4-1 1-1 .7 0 1.1.3 1.1 1v13.8c0 .7-.4 1-1.1 1-.7 0-1.1-.3-1.1-1V216zM38.2 210.1c0-.7.3-1.1 1-1.1s1.1.4 1.1 1.1v19.7c0 .7-.3 1-1 1s-1-.3-1-1v-19.7zM50.6 215c3.7 0 5.6 2.2 5.6 5v10c0 .5-.4 1-1 1-.7 0-1-.5-1-1s0-.7 0-1c-1.2 1.3-3 1.9-4.8 1.9-2.7 0-5.3-1.5-5.3-4.7s3-4.9 5.9-4.9c1.6 0 3.3.5 4.2 1.4v-2.6c0-1.9-1.6-3.2-4.2-3.2-1.8 0-3 .7-3.8.7-.5 0-1-.2-1-.8 0-.4.3-.8.8-1 1.2-.5 2.7-.8 4.6-.8zm-.8 14.1c2.1 0 4.4-1.1 4.4-3 0-1.7-2.1-2.7-4.2-2.7-1.9 0-3.8.9-3.8 2.8 0 2 1.7 2.9 3.6 2.9zM61.3 213.1c0-.7.3-1 1-1s1 .3 1 1v2.3h2.4c.7 0 1.1.3 1.1 1 0 .6-.3 1-1 1h-2.5v8.5c0 2.2.2 3.4 2 3.4.8 0 1.2.3 1.2.9 0 .6-.4 1-1.2 1-3.3 0-4.1-2-4.1-5.2v-8.5h-.9c-.7 0-1-.3-1-1 0-.6.3-.9.8-.9h1c.2-.1.2-2.5.2-2.5zM82.1 221.8c0 1.5-.2 2.3-1.6 2.3h-9.4c0 2.5 2.5 5 5 5 1.6 0 2.5-.3 3.8-1.4.4-.3.8-.5 1.2-.5.5 0 .9.3.9 1 0 .2-.1.4-.2.6-1.3 1.7-3.2 2.5-5.7 2.5-4.6 0-7.2-3.7-7.2-8.1 0-4.1 2.4-8.2 6.7-8.2 4.2-.2 6.5 2.7 6.5 6.8zm-2.1.2c0-2.8-1.7-5.2-4.3-5.2-2.7 0-4.6 2.4-4.6 5.2H80zM91.5 229c1.5 0 3.4-.6 3.4-2.4 0-1.4-1.7-2.2-3.2-2.7-2.5-.9-5.6-2.2-5.6-4.5 0-3.1 2.6-4.6 5.6-4.6 1.4 0 3 .3 4.3 1 .4.2.5.6.5 1 0 .6-.4 1-1 1-.2 0-.4-.1-.6-.2-.7-.4-2-.7-3.4-.7-1.7 0-3.4.6-3.4 2.2 0 1.3 2.2 1.9 4.3 2.8 2.3 1 4.6 1.9 4.6 4.4 0 3.4-3 4.7-5.8 4.7-2 0-3.6-.7-5.2-1.7-.2-.2-.4-.5-.4-.8 0-.8.4-1.1.9-1.1.2 0 .5.1.8.3 1.3.7 2.7 1.3 4.2 1.3zM121.6 227.8c-1.6 2.4-3.6 3.6-6.2 3.6-4.3 0-6.9-2.7-6.9-6.4 0-2.6 1.7-4.9 4.9-7.1-1.2-1.2-2-2.6-2-4.2 0-2.8 2.2-4.3 4.3-4.3 2 0 4 1.4 4 4.3 0 2.1-1.8 3.7-3 4.7l5.2 6 1.7-2.8c.4-.7.8-1.1 1.4-1.1.6 0 1 .4 1 .9 0 .4-.1.8-.4 1.3l-2.2 3.4 2.6 2.8c.2.2.2.4.2.7 0 .6-.5 1.2-1.1 1.2-.2 0-.6-.1-.8-.3l-2.7-2.7zm-7.1-8.2c-2.5 1.7-4 3.5-4 5.5 0 2.5 2.5 4.4 4.9 4.4 2 0 3.7-1.1 5-3.2l-5.9-6.7zm3-6.1c0-1.5-1-2.2-2-2.2s-2.1.7-2.1 2c0 1.4.8 2.7 1.9 3.6.9-.7 2.2-1.9 2.2-3.4zM143.3 212.2h-4.1c-.7 0-1.1-.3-1.1-1s.4-1 1.1-1h10.3c.7 0 1.1.3 1.1 1s-.4 1-1.1 1h-4.1v17.4c0 .8-.3 1.2-1 1.2s-1.1-.4-1.1-1.2v-17.4zM151.1 216.2c0-.7.3-1.1 1-1.1s1 .4 1 1.1v1.3c1-1.8 3-2.7 4.9-2.7 1.5 0 2 .7 2 1.3 0 .6-.5 1.1-1.1 1.1-.7 0-1-.2-1.9-.2-1.8 0-3.9 1.9-3.9 4v8.7c0 .7-.3 1-1 1s-1-.3-1-1c0 .1 0-13.5 0-13.5zM168.1 215c3.7 0 5.6 2.2 5.6 5v10c0 .5-.4 1-1 1s-1-.5-1-1 0-.7 0-1c-1.2 1.3-3 1.9-4.8 1.9-2.7 0-5.3-1.5-5.3-4.7s3-4.9 5.9-4.9c1.6 0 3.3.5 4.2 1.4v-2.6c0-1.9-1.6-3.2-4.2-3.2-1.8 0-3 .7-3.8.7-.5 0-1-.2-1-.8 0-.4.3-.8.8-1 1.2-.5 2.7-.8 4.6-.8zm-.9 14.1c2.1 0 4.4-1.1 4.4-3 0-1.7-2.1-2.7-4.2-2.7-1.9 0-3.8.9-3.8 2.8 0 2 1.8 2.9 3.6 2.9zM178.3 209c.8 0 1.4.6 1.4 1.4 0 .8-.6 1.4-1.4 1.4-.8 0-1.4-.6-1.4-1.4 0-.8.6-1.4 1.4-1.4zm-1 7c0-.7.4-1 1-1 .7 0 1.1.3 1.1 1v13.8c0 .7-.4 1-1.1 1-.7 0-1.1-.3-1.1-1V216zM183.3 216.2c0-.7.3-1.1 1-1.1s1 .4 1 1.1v1.1c.9-1.7 2.5-2.4 4.2-2.4 2.7 0 5.4 2 5.4 5.3v9.6c0 .7-.3 1-1 1s-1-.3-1-1V221c0-2.8-1.9-4.2-3.7-4.2-1.9 0-3.8 1.4-3.8 4.2v8.7c0 .7-.3 1-1 1s-1-.3-1-1v-13.5zM199.4 209c.8 0 1.4.6 1.4 1.4 0 .8-.6 1.4-1.4 1.4s-1.4-.6-1.4-1.4c0-.8.6-1.4 1.4-1.4zm-1 7c0-.7.4-1 1-1 .7 0 1.1.3 1.1 1v13.8c0 .7-.4 1-1.1 1s-1.1-.3-1.1-1V216zM204.4 216.2c0-.7.3-1.1 1-1.1s1 .4 1 1.1v1.1c.9-1.7 2.5-2.4 4.2-2.4 2.7 0 5.4 2 5.4 5.3v9.6c0 .7-.3 1-1 1s-1-.3-1-1V221c0-2.8-1.9-4.2-3.7-4.2-1.9 0-3.8 1.4-3.8 4.2v8.7c0 .7-.3 1-1 1s-1-.3-1-1v-13.5zM230.1 215.7c0-.6.3-.9 1-.9s1.1.3 1.1 1v14c0 4.9-3.3 7.3-6.7 7.3-1.6 0-3.4-.3-4.9-1.2-.4-.2-.6-.6-.6-1 0-.6.4-1.1 1-1.1.4 0 .7.2 1.1.4 1.1.6 2.2.8 3.3.8 2.5 0 4.7-1.6 4.7-5v-1.4c-.7 1.8-2.6 2.5-4.3 2.5-4.4 0-6.8-4-6.8-8.1s2.4-8.1 6.8-8.1c1.7 0 3.7 1.2 4.3 2.6v-1.8zm-4.3 13.5c2.3 0 4.4-2 4.4-6.2 0-4-2.3-6.1-4.6-6.1-2.2 0-4.5 2-4.5 6 .1 4.2 2.4 6.3 4.7 6.3z"/></svg>