<svg xmlns="http://www.w3.org/2000/svg" xml:space="preserve" viewBox="0 0 1309 512"><g transform="matrix(.6755 0 0 -.6755 5 532.795)"><path fill="#050301" d="m1582.299 465.727 7.528 7.523c-2.613 1.997-5.172 5.468-7.855 5.566-2.586.096-5.3-3.293-7.957-5.15l8.284-7.939m156.34-363.457c3.946-4.39 8.04-9.995 13.265-14.189 1.818-1.458 6.824-.146 9.604 1.34 1.274.681 1.632 5.221.773 7.354-2.832 7.031-6.318 13.81-9.773 20.572-.751 1.468-2.421 2.466-3.667 3.68-1.23-1.354-2.828-2.522-3.617-4.096-2.177-4.348-4.015-8.864-6.584-14.66m-358.905 19.235c-4.133-8.376-8.328-16.315-11.906-24.523-.908-2.084-.75-6.527.485-7.265 2.716-1.623 7.6-3.264 9.544-1.922 9.674 6.684 14.883 16.693 18.839 27.836l-16.962 5.874m315.793 364.592c-.474 4.525-.482 7.756-1.2 10.822-1.641 7.013-4.831 12.916-12.815 14.275-6.696 1.14-14.01-2.526-17.378-9.666-2.357-4.999-3.963-10.52-4.905-15.98-1.532-8.879 3.404-17.542 11.45-21.675 8.93-4.586 17.989-1.499 21.435 7.867 1.83 4.971 2.498 10.37 3.413 14.357m-204.81 15.47c-1.39 5.655-2.168 11.558-4.332 16.9-2.47 6.098-7.642 9.385-14.491 9.551-6.833.165-11.908-3.457-13.486-9.396-2.22-8.352-4.194-17.292-3.528-25.764 1.014-12.904 13.408-17.936 24.468-10.974 7.066 4.447 11.927 10.307 11.37 19.682m327.538-131.153c7.84 4.896 11.033 13.32 7.774 22.004-3.287 8.765-12.132 13.84-21.068 12.087-9.311-1.825-14.73-8.38-14.773-17l28.067-17.09m-489.214-39.477c-.068 9.004-7.443 16.227-16.456 16.118a16.252 16.252 0 0 1-16.114-16.48c.098-8.91 7.635-16.339 16.48-16.247 8.884.093 16.159 7.602 16.09 16.61m529.334 20.15c-9.06-.002-16.434-7.274-16.442-16.217-.008-8.822 7.513-16.35 16.383-16.399 8.952-.048 16.252 7.294 16.253 16.35 0 9.213-7.02 16.266-16.194 16.265m-142.273-81.049c.107 8.941-7.198 16.301-16.264 16.39-9.157.088-16.362-6.926-16.508-16.069-.14-8.79 7.407-16.54 16.178-16.61 8.757-.07 16.488 7.52 16.594 16.29M1670.82 121.2c-9.051-.075-16.323-7.429-16.201-16.387.12-8.973 7.592-16.332 16.483-16.239 9.01.093 16.185 7.45 16.11 16.511-.075 9.126-7.261 16.19-16.392 16.115m-333.78 67.935c-12.645-.088-22.835-10.333-22.798-22.924.037-12.465 10.465-22.96 22.89-23.04 12.74-.08 23.243 10.63 23.054 23.506-.188 12.767-10.268 22.548-23.145 22.458m488.253 28.313c3.862-2.699 7.574-4.725 10.472-7.577 1.267-1.249.87-4.189 1.228-6.36-2.123.115-4.327-.073-6.341.46-1.293.341-2.226 1.87-3.458 2.651-6.22 3.943-13.681 3.563-19.123-1.3-5.401-4.828-7.474-10.809-4.893-17.912 2.51-6.909 8.55-10.988 15.875-10.798 8.22.213 13.289 5.151 15.769 14.657.512 1.96 2.603 3.505 3.965 5.242 1.397-1.39 3.56-2.555 4.052-4.214 1.788-6.027 5.197-8.105 9.99-4.28 2.823 2.251 5.704 7.002 5.232 10.127-.531 3.51-4.65 6.606-7.513 9.59-1.91 1.986-4.354 3.46-6.558 5.162 2.888.901 5.768 1.83 8.669 2.683.647.19 1.368.12 2.577.208-1.814 6.981-6.31 10.443-12.804 11.442-7.82 1.202-12.988-1.834-17.14-9.78M1694.828 156.8c-4.264 9.884-13.582 14.065-22.79 10.464-8.85-3.46-13.325-13.034-10.39-22.29.37-1.165 1.386-2.342 1.246-3.399-.255-1.918-1.155-3.75-1.784-5.619-1.831.831-4.42 1.18-5.32 2.6-1.513 2.387-2.53 5.418-2.715 8.246-.315 4.835-2.903 5.487-6.87 5.13-9.068-.815-17.073-8.5-18.106-17.59-1.1-9.66 4.875-19.345 13.915-21.6 1.91-.478 5.624.65 6.4 2.138 6.025 11.525 15.69 15.532 25.822 14.668 3.77 2.736 6.049 4.39 8.33 6.043.934-2.455 1.69-4.997 2.836-7.35 4.05-8.328 8.086-16.67 12.507-24.802.763-1.402 3.315-1.979 5.15-2.627 13.507-4.77 28.653 2.418 33.652 15.901 4.905 13.235-1.451 28.295-14.581 33.59-10.481 4.226-20.092 2.315-28.84-4.979-1.394-1.163-4.172-.665-6.31-.935.393 2.304.135 5.058 1.34 6.8 1.595 2.304 4.334 3.817 6.508 5.611m85.349 233.558c3.283 5.014 5.794 11.801 10.652 15.531 6.279 4.82 6.209 9.761 4.524 15.927-6.292 23.026-30.85 33.31-52.931 22.434-2.152-1.06-5.17-.364-7.786-.483 1.283 2.462 1.949 6.026 3.975 7.158 4.408 2.463 9.409 4.12 14.36 5.276 3.836.895 4.597 2.644 4.174 6.156-1.324 10.981-10.81 18.958-21.946 18.526-3.75-.146-5.546-1.456-6.492-5.277-3.11-12.574-6.713-25.026-9.953-37.568-.437-1.69.115-3.638.15-4.29l9.168 3.357c-.214-3.05-.27-6.123-.684-9.146-.487-3.559-2.254-7.215-1.77-10.587 1.523-10.599 3.84-21.084 5.647-30.544l48.912 3.53m-400.57 2.284c2.007 2.821 3.204 5.064 4.989 6.64.483.427 3.786-.9 4.03-1.869 2.039-8.04 9.365-7.78 13.817-10.007.707 11.687.164 23.6 2.47 34.93 2.295 11.273 7.453 21.963 11.442 33.15-1.642.422-4.028.534-5.805 1.631-1.817 1.121-3.038 3.208-4.52 4.871 2.136.938 4.21 2.437 6.423 2.676 2.946.32 5.996-.342 8.502-.542v39.503c-10.362 1.15-18.892-3.72-21.003-12.875-1.127-4.889.496-10.396.764-15.629.113-2.228-.065-4.47-.111-6.706-2.078.464-4.173.867-6.231 1.41-1.738.458-3.492 1.69-5.138 1.53-13.502-1.3-26.02-13.433-28.915-27.733-2.823-13.934 2.152-23.92 15.23-31.972 2.2-1.354 3.2-4.657 4.756-7.059-2.71-.04-5.442-.299-8.121-.033-1.37.135-2.593 1.361-3.972 1.834-9.75 3.337-18.482 1.468-25.67-5.868-6.2-6.329-8.077-13.915-5.491-23.284 13.24 9.93 27.126 15.48 42.554 15.402m107.73 255.084c-.877 19.438-7.468 38.421-16.675 48.524-7.348 8.064-16.33 10.853-26.655 7.611-9.924-3.117-14.193-11.21-14.807-20.84-.543-8.518-.18-17.176.679-25.682 1.27-12.582 1.447-24.924-2.467-37.149-1.333-4.16-2.14-8.596-2.447-12.959-.64-9.088 2.97-15.697 9.533-18.215 7.89-3.028 13.838.501 18.918 6.111 3.124 3.451 5.78 7.326 8.896 10.785 2.608 2.896 5.197 6.097 8.458 8.064 12.88 7.77 17.268 19.444 16.568 33.75m197.305-29.542c2.136-4.536 4.818-11.754 8.758-18.206 4.665-7.64 10.433-14.606 15.678-21.896 1.57-2.183 2.814-4.62 4.514-6.69 3.955-4.812 8.895-7.862 15.382-6.494 6.393 1.35 10.617 5.64 11.488 11.931.929 6.708.513 13.595.842 20.396.423 8.731.345 17.56 1.688 26.156 1.58 10.114 4.96 19.942 6.636 30.046 2.09 12.6-2.657 22.445-11.823 26.904-9.84 4.79-20.7 2.877-29.547-6.084-14.391-14.572-20.646-32.846-23.616-56.063m-122.768 45.96c-10.295-.604-17.097-6.513-18.848-15.83-1.568-8.34 3.413-17.4 11.53-20.973 8.42-3.705 12.67-2.093 16.315 6.187 7.828 17.78 29.789 24.691 45.717 14.054 2.035-1.359 2.63-4.874 3.892-7.39-2.532.113-5.087.06-7.584.414-1.128.16-2.09 1.261-3.216 1.713-8.921 3.58-17.368 2.802-24.86-3.408-7.264-6.024-9.906-14.066-7.836-23.12 2.136-9.343 8.149-15.476 17.699-17.679 15.232-3.514 28.013 7.295 28.958 24.014.129 2.278 2.413 4.434 3.7 6.646 1.328-2.275 3.65-4.499 3.772-6.837.237-4.52-.768-9.106-1.29-13.954 9.294-4.173 17.863-3.016 25.316 3.565 7.183 6.343 9.909 14.47 7.104 23.932-3.16 10.666-10.835 15.737-21.463 17.447-1.82.293-3.31 2.626-4.952 4.016 1.569 1.21 3.077 2.51 4.732 3.588.714.465 1.727.47 2.796.731-.64 7.51-4.703 12.21-11.047 14.574-6.913 2.577-13.478 1.521-17.358-4.495l-1.512-8.933c-2.432 1.464-5.35 2.476-7.205 4.475-5.59 6.023-12.143 9.296-20.323 7.692-8.691-1.704-14.053-7.222-16.841-15.695-.723-2.198-3.395-3.755-5.171-5.606-.823 2.461-1.747 4.894-2.411 7.397-.23.871.189 1.914.386 3.474m-203.11-360.702 1.726 9.422c2.292-1.158 5.06-1.839 6.79-3.562 5.84-5.814 12.365-4.964 19.109-2.598 6.44 2.258 7.725 7.31 7.494 13.556-.087 2.368 1.689 4.806 2.616 7.211 1.598-1.703 3.003-3.664 4.846-5.039 1.978-1.476 4.502-3.589 6.553-3.356 7.93.901 13.08 8.174 13.82 18.328 1.536 21.057-15.186 43.046-35.606 46.823-21.864 4.044-49.02-10.79-54.733-30.258-.763-2.597-.243-6.357 1.174-8.662 4.396-7.153 5.568-14.406 3.426-22.492-.547-2.063-.382-4.969.709-6.698 5.297-8.407 12.777-13.19 22.077-12.675m393.408 12.134c1.72 4.302 2.502 9.955 4.417 10.368 6.026 1.302 4.332-4.9 5.558-8.102 2.443-6.386 6.532-10.116 13.685-10.164 6.775-.045 11.785 2.245 14.695 8.808.63 1.418 3.283 1.94 5.004 2.874.75-1.64 1.863-3.22 2.143-4.939.232-1.419-.517-2.999-.85-4.6 12.456-.113 20.248 5.728 23.153 16.885 5.114 19.645-4.928 40.038-24.773 48.832-20.267 8.981-41.054 7.994-61.796 1.455-1.67-.526-3.727-1.945-4.31-3.45-4.685-12.103-9.06-24.327-13.421-36.224h6.135c.988 4.86 1.509 9.287 2.932 13.402.492 1.425 3.22 2.077 4.929 3.082.85-1.757 2.196-3.455 2.41-5.286.215-1.832-.892-3.776-1.094-5.706-1.614-15.457 8.477-27.699 21.183-27.235M1413.6 380.34c8.34-12.796 13.238-27.47 28.882-33.988 16.835-7.013 34.264-8.358 51.992-6.557 10.482 1.066 19.742-.56 28.769-6.154 19.755-12.24 40.694-15.189 63.533-9.02 9.33 2.52 19.938 2.195 29.673.93 17.769-2.309 35.32-5.96 53.36-2.864 20.635 3.54 36.2 13.725 45.038 32.926l-19.832 10.716c-7.91-22.397-23.247-35.4-47.476-36.06-20.826-.569-38.16 7.325-51.942 23.14-4.65 5.333-9.843 10.224-15.07 15.008-6.218 5.69-12.741 11.046-19.392 16.772-3.796-2.6-8.828-6.468-14.252-9.67-11.15-6.585-22.804-12.35-33.707-19.305-13.703-8.739-28.296-10.939-43.713-7.339-20.523 4.794-34.517 16.69-38.123 38.517l-17.74-7.052m154.394 236.615c-16.045 3.93-28.264-2.364-37.73-13.579-5.4-6.395-9.664-14.253-12.563-22.143-5.95-16.192-5.73-33.174-4.024-50.2 1.124-11.21 1.707-22.485 2.153-33.745.155-3.912-.825-7.869-1.542-13.972 16.794 17.293 34.56 27.696 57.296 26.682 22.449-1.003 40.854-10.083 53.906-27.697 1.353 13.265 2.678 26.395 4.033 39.522 1.505 14.601 3.93 29.178 4.28 43.806.28 11.764-3.506 23.03-10.867 32.78-21.667-17.323-48.72-8.473-54.942 18.546m-238.8-304.824c-1.99-1.138-3.62-2.18-5.34-3.043-12.957-6.493-28.806-.984-33.366 12.75-2.156 6.497-5.312 7.734-11.033 7.054-2.666-.316-5.67.598-8.02-.322-2.36-.923-5.318-3.102-5.917-5.3-5.775-21.185 2.992-35.899 24.286-41.063 4.736-1.15 9.694-1.956 14.55-1.959 122.559-.11 245.119-.119 367.677.07 2.575.004 5.924 1.9 7.59 3.975 10.976 13.658 29.04 13.79 39.892.331 1.8-2.235 5.394-4.254 8.179-4.28 32.418-.295 64.852-.717 97.25.14 9.476.25 19.334 3.318 28.139 7.125 9.738 4.21 13.119 13.204 11.12 23.385-11.996-1.752-21.55 2.041-27.796 13.048-1.114 1.963-3.53 3.19-5.345 4.755-1.258-1.796-3.068-3.42-3.686-5.415-3.91-12.61-12.467-19.738-25.333-21.502-8.38-1.149-16.876-2.337-25.276-2.082-5.063.154-10.04 3.043-15.06 4.697-2.425.8-4.847 2.233-7.286 2.262-11.561.137-20.336 5.165-26.403 14.742-2.632 4.154-4.17 8.773-10.721 7.443-4.932-1-11.178.621-14.9-1.848-21.095-13.99-44.21-14.734-68.062-12.205-15.926 1.69-31.457 7.474-47.947 2.068-23.12-7.577-44.987-2.978-65.803 8.82-3.217 1.822-7.31 2.895-11.014 2.934-24.312.254-48.63.026-72.943.21-5.248.04-9.121-.382-11.376-6.299-1.275-3.346-4.68-7.34-7.893-8.217-10.273-2.799-18.153-10.075-27.254-13.899-10.884-4.572-24.17-4.44-36.415-4.45-10.682-.009-18.21 7.51-24.494 16.075m359.695 70.924c.358 12.78-4.406 23.671-12.903 32.751-6.861 7.332-14.34 14.116-21.841 20.81-13.428 11.983-25.412 25.003-35.483 40.12-4.934 7.408-12.668 13.933-20.57 18.2-24.304 13.121-50.85 9.214-71.12-10.687-14.552-14.288-30.936-25.595-48.372-35.769a201.672 201.672 0 0 1-19.024-12.564c-8.886-6.638-15.333-15.307-18.12-26.147-4.262-16.584-3.887-32.336 10.729-44.36 14.819-12.195 38.064-13.488 54.64-3.678 12.414 7.347 25.078 14.27 37.63 21.382 7.945 4.5 14.808 10.001 15.785 19.88 1.183 11.962 1.885 23.972 3.014 35.941.345 3.645-1.042 5.164-4.031 7.38-6.745 5.001-14.006 10.294-18.473 17.152-7.173 11.011-2.13 22.756 10.305 27.137 14.11 4.973 28.089 3.931 41.429-2.757 11.27-5.65 14.477-17.024 8.165-27.977-5.274-9.149-13.79-14.037-23.77-15.728-4.978-.844-5.86-3.192-6.152-7.248-.794-11.017-1.833-22.016-2.627-33.032-.832-11.55 3.736-20.237 13.43-26.805 5.824-3.943 10.95-8.975 16.113-13.814 4.287-4.02 7.67-9.138 12.319-12.616 16.817-12.582 35.48-17.176 55.27-8.33 17.17 7.674 23.4 22.756 23.657 40.76m35.792-110.836c-2.858-17.472-11.044-26.012-24.487-26.242-13.993-.24-22.033 7.813-25.764 26.175h-378.268c4.132-27.876 10.305-54.856 22.49-80.245 18.527 8.201 32.624 6.177 42.507-5.784 10.269-12.426 9.596-25.776-2.18-42.92.224-.423.343-.989.69-1.245 1.578-1.163 3.178-2.305 4.843-3.335 21.822-13.486 45.68-20.397 71.22-20.515 59.669-.275 119.339-.073 179.009-.066h7.292c0 1.473.214 2.276-.031 2.898-8.354 21.188 9.608 41.521 28.9 39.072 1.59-.202 4.082 1.997 5.22 3.703 11.444 17.12 33.43 17.372 44.53.144 2.072-3.216 3.903-3.939 7.575-3.548 11.168 1.19 21.282-2.168 28.444-10.76 4.689-5.626 7.51-12.808 11.509-19.897 21.979 9.091 40.123 24.072 53.652 44.625-11.842 16.691-9.43 34.501 6.599 40.302 9.668 3.498 14.079 11.376 16.938 18.387 4.967 12.178 6.248 25.86 9.149 39.251zm110.823-35.893c3.983-.594 7.804-.238 10.569-1.777 5.189-2.888 12.192-5.9 14.082-10.61 3.715-9.249 5.952-19.69 6-29.652.054-10.717-11.015-17.147-22.517-15.662-2.15.278-5.178-.449-6.67-1.886-6.86-6.612-14.474-9.71-24.095-7.669-1.855.393-5.063-.567-6.081-2.008-12.57-17.802-28.647-31.502-49.025-42.05 4.045-8.394 7.82-16.52 11.854-24.516 3.744-7.422 3.223-12.123-2.334-17.064-6.69-5.947-14.064-7.163-19.991-2.136-5.54 4.698-10.2 10.431-15.326 15.791-17.122-7.383-21.283-7.578-36.302-2.12-5.838-4.598-10.52-9.974-16.426-12.59-12.827-5.68-27.577 1.948-31.48 15.686-1.102 3.88-3.168 4.9-6.352 6.702-13.245 7.5-27.495 5.51-41.528 5.53-54.27.08-108.538-.117-162.806.11-10.495.043-20.983 1.52-32.497 2.415-1.05-2.326-2.076-5.864-4.056-8.75-4.961-7.229-9.647-14.862-15.752-21.036-7.562-7.648-19.111-5.98-24.333 3.467-1.94 3.508-1.433 9.487.077 13.552 3.119 8.4 7.66 16.27 11.652 24.43-6.92 4.447-12.964 8.597-19.306 12.223-1.58.902-4.24.551-6.206.032-13.45-3.555-25.057-.495-33.663 10.422-8.393 10.646-8.672 22.418-2.73 34.603 1.076 2.21 1.335 5.714.352 7.891-10.982 24.344-17.503 49.922-21.462 76.201-.88 5.84-2.916 9.181-9.034 11.354-16.47 5.851-23.195 16.294-23.245 33.537-.008 2.701-.033 5.402.005 8.103.177 12.628 5.316 17.756 17.968 17.937 2.21.031 4.442.202 6.626-.042 4.885-.545 7.789.908 10.234 5.781 5.367 10.696 14.939 13.9 30.377 11.5 2.436 4.727 4.965 9.431 7.263 14.243.568 1.19.73 2.798.498 4.11-4.45 25.163 2.072 36.071 26.448 44.052-13.513 31.911 5.214 58.805 33.475 63.53 5.41 25.553 9.132 29.533 31.06 33.486l8.783 43.06c-23.445 8.015-31.776 21.371-27.25 46.613 4.219 23.518 7.217 46.902 4.95 70.917-.833 8.837.284 18.272 2.53 26.908 6.629 25.482 34.399 38.937 58.843 29.028 19.91-8.07 31.54-24.305 38.07-43.549 5.149-15.17 7.19-31.399 10.535-47.174.444-2.092.435-4.28.66-6.694l17.636 2.622c0 5.938-.81 11.413.162 16.55 2.264 11.95 13.282 20.234 26.072 21.063 2.883.187 6.208 1.127 8.417 2.875 10.074 7.97 20.668 9.102 32.44 4.286 2.314-.947 6.099-.72 8.189.59 16.917 10.587 36.88 1.803 41.059-17.529.988-4.576 6.19-8.24 9.83-12.79 5.108 9.5 8.548 18.063 13.866 25.233 6.51 8.777 13.679 17.548 22.192 24.253 16.155 12.723 34.299 15.337 52.868 4.616 18.927-10.928 23.516-28.475 21.249-48.704-.735-6.559-2.768-12.97-3.527-19.529a1715.247 1715.247 0 0 1-4.874-48.115c-.788-9.019-.14-18.227-1.594-27.11-2.628-16.048-12.33-24.979-28.19-27.699-1.413-.243-2.797-.66-3.981-.947.648-14.426 1.282-28.527 1.927-42.625 23.678-2.478 31.493-9.896 34.014-32.63 23.202-4.976 36.607-19.255 39.303-43.777 14.03-.08 24.903-5.68 29.087-19.76 3.799-12.786-1.451-22.962-11.08-30.492 1.918-6.875 3.576-13.223 5.494-19.49.687-2.25 2-4.308 3.029-6.453 1.227 1.818 2.856 3.485 3.613 5.481 4.109 10.845 14.296 17.79 25.03 16.8 11.209-1.034 20.25-9.165 22.254-20.33 1.388-7.743-1.143-14.382-5.938-20.525-1.786-2.288-3.236-5.474-3.363-8.317-.785-17.576-7.14-27.163-23.782-33.19-5.388-1.952-7.527-4.64-8.232-10.32-1.257-10.115-3.661-20.086-5.614-30.266"/><path fill="#050301" d="M1302.687 428.867c13.116-.192 24.124 10.323 24.526 23.431.405 13.162-10.822 24.6-24.14 24.594-13.072-.004-24.027-10.828-24.13-23.84-.104-13.03 10.658-23.993 23.744-24.185m-31.495 23.95c-.043 17.707 13.864 31.901 31.433 32.078 17.975.182 32.359-14.023 32.356-31.952-.004-17.71-13.859-31.878-31.47-32.179-17.827-.305-32.274 14.022-32.32 32.052M1627.604 698.6c9.47-.076 17.373 7.539 17.627 16.988.252 9.325-7.514 17.495-16.888 17.767-9.765.285-17.936-7.643-17.932-17.4.003-9.464 7.744-17.277 17.193-17.354m-25.107 17.61c.18 14.45 11.622 25.458 26.106 25.119 13.876-.326 24.77-11.856 24.524-25.962-.24-13.973-11.735-25.027-25.736-24.754-14.098.275-25.07 11.557-24.894 25.598M1806.322 503.23c.123 8.37-6.954 15.544-15.365 15.576-8.38.031-15.502-7.137-15.414-15.515.085-8.05 6.91-15.003 14.99-15.269 8.255-.27 15.666 6.868 15.79 15.207m-15.22 23.455c13.093-.12 23.157-10.338 23.058-23.409-.1-13.088-10.327-23.157-23.399-23.036-13.142.121-23.127 10.257-23.039 23.386.09 13.098 10.31 23.178 23.38 23.06M1840.894 444.356c.176 6.456-4.921 11.95-11.283 12.162-6.336.21-11.834-5.015-12.033-11.436-.203-6.54 4.79-11.832 11.306-11.982 6.644-.154 11.83 4.708 12.01 11.256m-31.412 1.288c.528 11.142 9.898 19.376 21.28 18.7 10.668-.633 18.968-10.173 18.253-20.982-.703-10.65-10.417-19.254-20.907-18.516-10.771.757-19.133 10.094-18.626 20.798M1271.749 188.311c-.043 5.514-4.357 9.742-9.874 9.427-5.776-.33-8.903-3.743-9.371-9.307-.431-5.12 4.429-9.916 9.608-9.965 5.343-.05 9.679 4.378 9.637 9.845m-9.652-17.717c-10.027.084-17.533 7.706-17.47 17.743.062 9.875 7.983 17.791 17.712 17.7 9.546-.09 17.725-8.382 17.699-17.944-.025-9.66-8.146-17.58-17.941-17.499M1362.042 564.484c-5.805.011-10.054-4.138-9.995-9.275.065-5.805 3.313-9.067 8.903-9.614 5.283-.517 9.809 4.164 9.613 9.619-.209 5.881-3.776 8.575-8.521 9.27m-.954-26.756c-9.617.093-17.211 7.631-17.295 17.167-.087 9.818 7.8 17.599 17.729 17.493 9.59-.102 17.226-7.676 17.336-17.198.114-9.728-7.855-17.558-17.77-17.462"/><path fill="#fff" d="m1777.59 184.944-.89 3.209c-2.263.201-5.322 1.428-6.637.407-3.6-2.794-6.585-6.433-9.538-9.969-.743-.888-.984-2.894-.49-3.922.494-1.024 2.9-2.329 3.27-2.029 4.885 3.949 9.559 8.158 14.286 12.304m24.895 56.317-5.091 6.57c-1.513-1.53-3.761-2.795-4.42-4.631a1291.813 1291.813 0 0 1-13.887-40.729c-.596-1.847.528-4.25.856-6.395 1.986.884 5.167 1.271 5.773 2.729 5.779 13.897 11.122 27.974 16.769 42.456m-77.804 30.958h109.837c-2.901-13.392-4.182-27.073-9.15-39.251-2.858-7.011-7.27-14.889-16.937-18.387-16.03-5.801-18.441-23.611-6.6-40.302-13.528-20.553-31.672-35.534-53.651-44.625-3.998 7.089-6.82 14.271-11.51 19.896-7.161 8.593-17.275 11.951-28.443 10.761-3.672-.39-5.503.332-7.575 3.548-11.1 17.229-33.086 16.977-44.53-.144-1.138-1.706-3.63-3.905-5.22-3.703-19.292 2.45-37.254-17.883-28.9-39.072.245-.622.03-1.425.03-2.897h-7.291c-59.67-.008-119.34-.209-179.01.065-25.538.118-49.397 7.029-71.22 20.516-1.664 1.029-3.264 2.172-4.841 3.335-.348.256-.467.821-.683 1.248 11.768 17.14 12.44 30.49 2.172 42.917-9.883 11.961-23.98 13.984-42.506 5.783-12.186 25.39-18.36 52.369-22.491 80.245h378.268c3.73-18.362 11.77-26.415 25.764-26.175 13.443.231 21.629 8.77 24.487 26.242M1510.432 417.552c-4.208 2.674-7.011 5.78-8.821 5.28-2.44-.671-4.114-4.12-6.117-6.376 2.2-1.8 4.352-4.935 6.61-5.014 2.144-.075 4.399 3.05 8.328 6.11m82.419 17.357c-2.864-4.1-6.076-6.76-5.651-8.563.576-2.445 3.936-4.235 6.103-6.306 1.897 2.098 5.115 4.085 5.306 6.328.178 2.104-2.848 4.479-5.758 8.54m-45.653-2.321c-4.245 2.906-6.944 6.099-8.733 5.652-2.45-.612-5.38-3.772-5.84-6.26-.288-1.558 3.57-5.45 5.586-5.462 2.374-.015 4.769 3.03 8.987 6.07m81.65-33.031c2.76 4.246 5.707 6.784 5.43 8.899-.293 2.233-3.66 4.062-5.685 6.067-2.103-2.173-5.424-4.11-5.903-6.596-.352-1.815 3.037-4.353 6.159-8.37m-102.594 1.604c3.002 4.129 6.058 6.49 5.915 8.638-.153 2.303-3.316 4.406-5.165 6.596-2.211-2.08-5.628-3.861-6.238-6.334-.46-1.861 2.683-4.611 5.488-8.9m76.379-7.091c3.194 4.108 6.499 6.529 6.247 8.493-.322 2.51-3.512 4.655-5.467 6.956-2.1-1.914-5.707-3.687-5.902-5.78-.226-2.426 2.543-5.132 5.122-9.67m-87.166 58.2c-3.161-4.045-6.502-6.49-6.228-8.425.357-2.53 3.572-4.656 5.558-6.956 2.15 1.908 5.856 3.677 6.04 5.758.214 2.414-2.666 5.1-5.37 9.623m101.124-7.931c-2.723-4.241-5.681-6.84-5.584-9.318.08-2.052 3.766-3.963 5.854-5.936 2.097 2.224 5.482 4.244 5.88 6.739.31 1.955-3.08 4.499-6.15 8.515m72.298-61.283c-.256-18.002-6.485-33.085-23.656-40.76-19.791-8.845-38.453-4.25-55.271 8.332-4.648 3.477-8.032 8.595-12.32 12.615-5.161 4.839-10.288 9.87-16.11 13.814-9.696 6.568-14.264 15.255-13.432 26.805.794 11.017 1.833 22.016 2.627 33.032.292 4.056 1.174 6.405 6.152 7.248 9.98 1.69 18.496 6.579 23.77 15.728 6.312 10.954 3.106 22.327-8.165 27.977-13.34 6.688-27.318 7.73-41.43 2.758-12.434-4.382-17.477-16.127-10.304-27.137 4.467-6.858 11.728-12.151 18.473-17.153 2.989-2.216 4.376-3.735 4.03-7.38-1.128-11.97-1.83-23.98-3.012-35.942-.978-9.878-7.841-15.38-15.785-19.88-12.552-7.111-25.216-14.034-37.63-21.381-16.577-9.81-39.822-8.516-54.641 3.677-14.616 12.025-14.99 27.777-10.728 44.36 2.786 10.84 9.233 19.51 18.12 26.148a201.863 201.863 0 0 0 19.023 12.565c17.436 10.173 33.82 21.48 48.373 35.768 20.27 19.9 46.815 23.808 71.119 10.687 7.902-4.267 15.636-10.792 20.57-18.2 10.07-15.117 22.055-28.137 35.483-40.12 7.5-6.694 14.98-13.478 21.842-20.81 8.496-9.08 13.26-19.97 12.902-32.751M1329.194 312.13c6.284-8.565 13.813-16.084 24.494-16.075 12.246.01 25.531-.122 36.415 4.45 9.102 3.823 16.982 11.1 27.254 13.898 3.215.876 6.618 4.872 7.894 8.217 2.255 5.917 6.128 6.34 11.376 6.3 24.313-.185 48.63.044 72.943-.21 3.703-.038 7.797-1.111 11.014-2.934 20.815-11.797 42.683-16.396 65.802-8.82 16.491 5.405 32.022-.38 47.948-2.068 23.852-2.528 46.966-1.785 68.062 12.206 3.722 2.469 9.968.847 14.9 1.848 6.55 1.33 8.088-3.29 10.72-7.444 6.068-9.576 14.842-14.604 26.404-14.741 2.438-.03 4.861-1.463 7.287-2.263 5.018-1.653 9.996-4.543 15.058-4.696 8.401-.255 16.898.933 25.277 2.082 12.866 1.764 21.423 8.89 25.333 21.502.618 1.994 2.427 3.619 3.685 5.415 1.816-1.566 4.232-2.792 5.346-4.755 6.246-11.008 15.8-14.801 27.796-13.05 2-10.18-1.382-19.173-11.12-23.383-8.806-3.807-18.663-6.875-28.139-7.125-32.398-.857-64.833-.435-97.25-.14-2.785.025-6.379 2.045-8.18 4.279-10.85 13.459-28.916 13.327-39.89-.33-1.667-2.075-5.017-3.972-7.59-3.975-122.56-.19-245.119-.181-367.678-.071-4.856.004-9.814.81-14.55 1.959-21.295 5.164-30.06 19.879-24.287 41.063.6 2.199 3.56 4.378 5.917 5.3 2.352.92 5.355.006 8.021.323 5.72.679 8.877-.557 11.033-7.054 4.56-13.735 20.408-19.244 33.365-12.75 1.721.861 3.352 1.903 5.34 3.042"/><path fill="#fff" d="M1606.255 516.656c-2.43 2.965-3.248 4.464-4.49 5.4-11.823 8.918-43.237 10.43-55.976 2.53-1.471-.912-1.973-3.384-2.926-5.132 1.858-.695 4.123-2.456 5.51-1.925 17.023 6.522 33.532 5.884 49.903-2.247 1.574-.78 4.253.665 7.979 1.374m-38.26 100.297c6.223-27.018 33.275-35.868 54.942-18.547 7.36-9.749 11.148-21.014 10.867-32.778-.35-14.628-2.775-29.205-4.28-43.806-1.355-13.127-2.68-26.257-4.033-39.522-13.052 17.613-31.457 26.694-53.906 27.696-22.736 1.015-40.502-9.388-57.296-26.68.717 6.102 1.697 10.06 1.542 13.97-.446 11.261-1.03 22.536-2.153 33.745-1.706 17.027-1.925 34.01 4.024 50.201 2.899 7.89 7.164 15.748 12.563 22.143 9.466 11.215 21.685 17.508 37.73 13.578M1413.6 380.34l17.74 7.052c3.608-21.828 17.6-33.723 38.124-38.517 15.417-3.6 30.01-1.4 43.713 7.339 10.903 6.954 22.558 12.72 33.707 19.304 5.424 3.203 10.456 7.07 14.252 9.67 6.652-5.726 13.174-11.082 19.392-16.772 5.227-4.784 10.422-9.676 15.07-15.009 13.783-15.814 31.116-23.709 51.942-23.14 24.229.661 39.567 13.664 47.476 36.06 6.459-3.49 12.883-6.96 19.832-10.716-8.838-19.2-24.402-29.385-45.038-32.925-18.04-3.096-35.591.554-53.36 2.864-9.735 1.265-20.342 1.59-29.673-.93-22.84-6.17-43.778-3.22-63.532 9.02-9.028 5.594-18.288 7.22-28.77 6.154-17.728-1.802-35.157-.456-51.992 6.557-15.644 6.517-20.541 21.192-28.882 33.988M1752.173 315.576c-12.706-.464-22.797 11.778-21.183 27.235.202 1.93 1.309 3.874 1.094 5.706-.214 1.83-1.56 3.53-2.41 5.287-1.708-1.005-4.437-1.658-4.93-3.082-1.422-4.116-1.943-8.542-2.931-13.403h-6.135c4.362 11.898 8.736 24.12 13.42 36.225.584 1.505 2.642 2.924 4.31 3.449 20.743 6.539 41.53 7.526 61.797-1.455 19.845-8.794 29.887-29.187 24.773-48.831-2.905-11.157-10.697-16.998-23.153-16.886.333 1.602 1.082 3.182.85 4.6-.28 1.718-1.392 3.3-2.143 4.939-1.721-.934-4.374-1.456-5.004-2.874-2.91-6.562-7.92-8.852-14.695-8.807-7.153.047-11.242 3.778-13.685 10.164-1.226 3.202.468 9.403-5.558 8.1-1.915-.412-2.697-6.064-4.417-10.367M1358.765 303.442c-9.3-.515-16.78 4.269-22.077 12.675-1.091 1.729-1.256 4.636-.71 6.698 2.143 8.086.972 15.339-3.425 22.492-1.417 2.305-1.936 6.065-1.174 8.662 5.714 19.468 32.869 34.302 54.734 30.258 20.42-3.777 37.14-25.765 35.606-46.823-.74-10.153-5.89-17.427-13.821-18.328-2.051-.233-4.574 1.881-6.553 3.356-1.843 1.375-3.248 3.336-4.846 5.039-.926-2.405-2.703-4.842-2.616-7.211.232-6.247-1.054-11.297-7.494-13.556-6.744-2.366-13.27-3.216-19.107 2.598-1.731 1.723-4.5 2.404-6.791 3.562l-1.726-9.422"/><path fill="#c0ebf5" d="M1613.278 621.531c1.36 2.002 2.932 3.762 2.694 4.054-3.042 3.754-6.32 7.32-9.697 10.78-.093.094-1.946-1.53-2.978-2.353 3.155-3.946 6.31-7.892 9.981-12.48m27.293 24.747-3.44-1.956c1.294-1.37 2.39-3.606 3.92-3.96 5.707-1.323 8.763-4.61 9.993-10.255.301-1.387 2.306-2.403 3.53-3.589.77 1.555 2.245 3.135 2.191 4.661-.256 7.318-7.264 14.26-16.194 15.1m-78.697 17.863c-.198-1.559-.617-2.602-.386-3.473.663-2.503 1.588-4.936 2.41-7.397 1.776 1.851 4.448 3.408 5.171 5.606 2.788 8.473 8.15 13.99 16.842 15.694 8.18 1.604 14.733-1.668 20.322-7.69 1.856-2 4.774-3.013 7.205-4.477.505 2.98 1.01 5.957 1.513 8.934 3.88 6.016 10.444 7.072 17.357 4.495 6.344-2.364 10.408-7.064 11.047-14.574-1.068-.26-2.082-.266-2.796-.73-1.654-1.079-3.163-2.379-4.73-3.589 1.641-1.39 3.132-3.724 4.951-4.016 10.628-1.71 18.303-6.78 21.463-17.447 2.805-9.462.08-17.59-7.105-23.932-7.453-6.58-16.02-7.738-25.315-3.565.521 4.848 1.526 9.433 1.29 13.954-.122 2.338-2.444 4.562-3.772 6.837-1.288-2.212-3.572-4.368-3.7-6.646-.945-16.719-13.726-27.528-28.959-24.014-9.55 2.203-15.562 8.335-17.699 17.678-2.069 9.054.572 17.097 7.838 23.12 7.49 6.211 15.937 6.99 24.858 3.41 1.127-.453 2.088-1.555 3.216-1.714 2.497-.355 5.053-.302 7.584-.414-1.262 2.516-1.856 6.031-3.89 7.39-15.929 10.637-37.89 3.724-45.718-14.054-3.646-8.28-7.896-9.892-16.315-6.187-8.118 3.572-13.098 12.631-11.53 20.973 1.75 9.317 8.553 15.226 18.848 15.828"/><path fill="#fff" d="M1684.642 618.185c2.97 23.217 9.226 41.491 23.616 56.063 8.848 8.961 19.707 10.873 29.547 6.084 9.166-4.459 13.913-14.305 11.823-26.904-1.675-10.104-5.055-19.932-6.635-30.046-1.344-8.597-1.266-17.425-1.69-26.156-.328-6.8.088-13.688-.841-20.396-.871-6.292-5.094-10.583-11.488-11.93-6.486-1.369-11.427 1.681-15.382 6.493-1.7 2.07-2.943 4.507-4.513 6.69-5.246 7.29-11.014 14.255-15.68 21.896-3.94 6.452-6.621 13.67-8.757 18.206M1487.337 647.728c.7-14.307-3.688-25.98-16.568-33.75-3.261-1.967-5.85-5.17-8.458-8.064-3.117-3.46-5.772-7.334-8.896-10.785-5.08-5.611-11.028-9.14-18.918-6.112-6.562 2.519-10.172 9.128-9.533 18.216.307 4.362 1.114 8.797 2.447 12.959 3.914 12.225 3.737 24.566 2.467 37.149-.86 8.506-1.222 17.163-.68 25.68.615 9.63 4.884 17.725 14.808 20.84 10.326 3.244 19.307.454 26.655-7.61 9.207-10.103 15.798-29.085 16.676-48.523"/><path fill="#c0ebf5" d="M1374.286 441.525c1.29 1.21 2.644 1.863 2.85 2.774 1.431 6.361 5.5 10.044 11.391 12.254.794.297 1.781 2.407 1.482 2.83-.723 1.021-2.113 2.08-3.307 2.172-6.213.48-16.216-10.6-14.94-16.503.248-1.145 1.455-2.083 2.524-3.527m5.32-48.882c-15.428.077-29.314-5.472-42.554-15.402-2.586 9.369-.709 16.955 5.491 23.284 7.187 7.336 15.92 9.206 25.67 5.868 1.38-.472 2.602-1.699 3.971-1.834 2.68-.266 5.412-.008 8.122.033-1.555 2.402-2.555 5.705-4.755 7.059-13.079 8.052-18.054 18.038-15.232 31.973 2.897 14.299 15.413 26.431 28.915 27.733 1.647.158 3.401-1.073 5.14-1.532 2.057-.542 4.151-.945 6.23-1.409.045 2.236.224 4.478.111 6.706-.268 5.234-1.89 10.74-.764 15.629 2.11 9.155 10.641 14.024 21.003 12.875v-39.503c-2.506.2-5.557.861-8.502.542-2.212-.239-4.287-1.738-6.423-2.676 1.482-1.663 2.702-3.75 4.52-4.871 1.777-1.096 4.163-1.209 5.804-1.631-3.988-11.187-9.146-21.877-11.44-33.15-2.308-11.331-1.765-23.243-2.472-34.93-4.45 2.226-11.777 1.967-13.815 10.008-.245.968-3.548 2.296-4.03 1.868-1.787-1.575-2.983-3.819-4.99-6.64M1788.686 412.849l-6.337 8.269c-.785-1.293-2.511-2.931-2.186-3.82 1.19-3.26 3.062-6.27 4.678-9.375 1.032 1.32 2.063 2.643 3.845 4.926m-27.726 26.41c-2.645-1.732-4.13-2.707-5.619-3.681 1.467-1.22 2.767-2.778 4.43-3.593 4.72-2.315 9.547-4.434 14.426-6.397 1.693-.682 3.66-.682 5.502-.993-.558 1.874-.532 4.687-1.774 5.459-5.447 3.387-11.261 6.184-16.965 9.206m19.216-48.901-48.912-3.53c-1.806 9.46-4.124 19.945-5.646 30.545-.485 3.37 1.282 7.027 1.769 10.587.414 3.023.47 6.095.685 9.145l-9.17-3.358c-.034.654-.587 2.6-.15 4.29 3.241 12.544 6.843 24.996 9.954 37.569.945 3.82 2.742 5.132 6.492 5.277 11.136.433 20.622-7.544 21.945-18.526.423-3.511-.338-5.26-4.173-6.156-4.952-1.157-9.953-2.812-14.36-5.275-2.027-1.132-2.693-4.697-3.976-7.16 2.616.12 5.634-.576 7.786.484 22.082 10.877 46.64.593 52.931-22.434 1.687-6.165 1.755-11.107-4.523-15.927-4.858-3.73-7.37-10.517-10.652-15.531M1728.843 126.415c-.271 8.657-7.632 16.368-14.78 16.502-1.612.03-3.25-1.334-4.877-2.057 1.179-1.221 2.176-3.19 3.57-3.533 5.599-1.375 9.056-4.361 10.21-10.203.292-1.468 2.23-2.61 3.413-3.9l2.464 3.19m-34.016 30.388c-2.174-1.794-4.913-3.308-6.507-5.613-1.206-1.741-.948-4.495-1.341-6.798 2.138.269 4.916-.23 6.31.934 8.748 7.294 18.359 9.205 28.84 4.979 13.13-5.294 19.486-20.355 14.58-33.59-4.998-13.483-20.144-20.671-33.651-15.901-1.835.649-4.387 1.225-5.15 2.627-4.421 8.13-8.457 16.474-12.507 24.802-1.145 2.354-1.902 4.896-2.836 7.35-2.281-1.653-4.56-3.307-8.33-6.042-10.132.863-19.797-3.144-25.821-14.668-.777-1.488-4.49-2.616-6.401-2.14-9.04 2.257-15.014 11.942-13.915 21.6 1.033 9.09 9.038 16.776 18.107 17.592 3.966.356 6.554-.295 6.869-5.13.185-2.828 1.202-5.86 2.715-8.247.9-1.42 3.49-1.77 5.32-2.6.63 1.869 1.529 3.7 1.784 5.619.14 1.058-.876 2.235-1.245 3.399-2.936 9.256 1.539 18.83 10.389 22.29 9.208 3.6 18.526-.58 22.79-10.463M1825.294 217.449c4.15 7.947 9.319 10.983 17.139 9.78 6.494-.998 10.99-4.46 12.804-11.441-1.21-.088-1.93-.02-2.577-.208-2.901-.854-5.781-1.781-8.67-2.683 2.205-1.703 4.65-3.176 6.559-5.163 2.863-2.982 6.982-6.08 7.513-9.59.472-3.124-2.41-7.875-5.231-10.127-4.794-3.824-8.203-1.746-9.991 4.282-.492 1.659-2.655 2.822-4.052 4.213-1.362-1.737-3.453-3.283-3.965-5.242-2.48-9.506-7.55-14.444-15.77-14.657-7.323-.19-13.363 3.89-15.874 10.798-2.581 7.103-.508 13.084 4.893 17.91 5.442 4.865 12.904 5.245 19.123 1.302 1.232-.781 2.164-2.31 3.458-2.652 2.014-.532 4.218-.343 6.34-.46-.357 2.172.04 5.112-1.227 6.36-2.898 2.853-6.61 4.88-10.472 7.578M1322.892 164.569c1.475 1.389 2.433 2.057 3.086 2.949 2.106 2.873 4.164 5.786 6.099 8.777.6.929 1.363 2.585.968 3.144-.663.94-3.041 1.976-3.232 1.746-3.278-3.923-6.462-7.947-9.28-12.205-.382-.578 1.313-2.531 2.359-4.411m14.149 24.567c12.877.09 22.957-9.691 23.145-22.458.189-12.877-10.314-23.586-23.054-23.505-12.425.079-22.852 10.574-22.89 23.04-.037 12.59 10.153 22.835 22.799 22.923"/><path fill="#c0ebf5" d="M1670.82 121.2c9.131.076 16.316-6.987 16.392-16.113.075-9.063-7.1-16.418-16.11-16.512-8.89-.093-16.362 7.267-16.483 16.239-.122 8.958 7.15 16.313 16.201 16.387M1716.103 270.039c-.105-8.77-7.837-16.36-16.594-16.29-8.77.07-16.318 7.82-16.177 16.61.145 9.145 7.35 16.159 16.507 16.07 9.068-.088 16.371-7.45 16.264-16.39M1858.377 351.089c9.174 0 16.195-7.053 16.194-16.267-.002-9.054-7.301-16.396-16.254-16.348-8.869.048-16.39 7.577-16.382 16.398.007 8.943 7.381 16.216 16.442 16.216M1329.043 330.938c.068-9.007-7.206-16.516-16.089-16.609-8.847-.092-16.383 7.337-16.481 16.247a16.252 16.252 0 0 0 16.114 16.48c9.013.11 16.388-7.114 16.456-16.118M1823.081 387.83c-.685 1.684-1.473 4.525-2.98 6.912-.643 1.015-2.79 1.077-4.255 1.572-.284-1.437-.91-2.906-.78-4.305.281-3.057.775-6.121 1.531-9.094.354-1.391 1.517-2.576 2.314-3.856 1.17 1.057 2.685 1.92 3.404 3.225.656 1.186.447 2.849.766 5.546m-4.824-17.415-28.068 17.09c.044 8.62 5.462 15.176 14.774 17 8.935 1.753 17.781-3.321 21.068-12.086 3.26-8.686.067-17.11-7.774-22.004"/><path fill="#fff" d="M1484.594 502.743c-1.146 4.44-1.452 9.402-3.72 13.192-1.722 2.881-5.87 5.723-9.067 5.877-2.7.131-7.05-3.067-8.088-5.779-2.136-5.578-3.126-11.782-3.484-17.794-.296-4.954-.433-10.995 5.838-12.975 6.837-2.159 12.176 1.397 15.717 6.774 1.856 2.818 1.868 6.85 2.804 10.705m6.125-1.176c.557-9.375-4.304-15.235-11.37-19.682-11.06-6.962-23.454-1.93-24.468 10.974-.666 8.472 1.309 17.412 3.528 25.764 1.579 5.94 6.653 9.56 13.486 9.395 6.849-.165 12.022-3.452 14.49-9.55 2.165-5.342 2.943-11.246 4.334-16.9M1689.549 487.724c-.346 2.713.066 6.057-1.27 8.41-1.981 3.487-4.897 8.337-7.976 8.79-3.238.475-8.752-2.689-10.39-5.787-2.853-5.398-4.184-11.889-4.866-18.063-.637-5.769 6.525-12.83 12.38-13.459 7.709-.827 9.225 4.988 10.697 10.475.817 3.04.95 6.261 1.425 9.634m5.979-1.626c-.915-3.988-1.583-9.386-3.413-14.357-3.446-9.366-12.505-12.453-21.434-7.867-8.047 4.133-12.983 12.796-11.451 21.674.942 5.461 2.548 10.982 4.905 15.981 3.368 7.14 10.682 10.806 17.378 9.666 7.984-1.359 11.174-7.263 12.815-14.275.718-3.066.726-6.298 1.2-10.822M1379.734 121.507l16.963-5.875c-3.956-11.143-9.165-21.151-18.84-27.835-1.943-1.343-6.827.299-9.544 1.922-1.234.738-1.392 5.18-.484 7.265 3.578 8.208 7.772 16.147 11.905 24.523M1738.64 102.27c2.569 5.797 4.407 10.313 6.584 14.661.789 1.574 2.388 2.742 3.617 4.096 1.246-1.214 2.916-2.212 3.667-3.68 3.455-6.763 6.942-13.54 9.774-20.572.858-2.133.5-6.673-.774-7.354-2.78-1.486-7.786-2.797-9.603-1.339-5.226 4.193-9.32 9.797-13.265 14.188M1582.299 465.727l-8.284 7.938c2.657 1.858 5.37 5.247 7.957 5.151 2.683-.098 5.242-3.569 7.855-5.566l-7.528-7.523"/><path fill="#c0ebf5" d="m1284.716 455.568 3.947-5.458c1.102 1.367 2.332 2.651 3.276 4.12 1.664 2.59 3.288 5.226 4.656 7.978.669 1.346.725 2.997 1.06 4.51-1.76-.085-4.31.538-5.138-.383-2.822-3.145-5.037-6.835-7.801-10.767m17.97-26.701c-13.085.192-23.847 11.154-23.742 24.184.103 13.014 11.057 23.837 24.128 23.842 13.319.005 24.545-11.433 24.14-24.595-.401-13.107-11.41-23.623-24.525-23.431M1629.527 730.757l-5.955-4.635c3.205-1.629 6.324-3.49 9.675-4.723.822-.303 2.4 1.446 3.63 2.252-2.232 2.156-4.462 4.314-7.35 7.106m-1.923-32.156c-9.449.076-17.19 7.89-17.193 17.355-.004 9.756 8.167 17.683 17.932 17.399 9.374-.272 17.14-8.442 16.888-17.767-.254-9.449-8.157-17.064-17.627-16.987M1806.322 503.23c-.123-8.34-7.534-15.478-15.789-15.208-8.08.266-14.905 7.218-14.99 15.27-.088 8.377 7.033 15.545 15.414 15.514 8.411-.032 15.488-7.206 15.365-15.577M1840.894 444.356c-.18-6.548-5.366-11.41-12.01-11.256-6.515.15-11.51 5.442-11.306 11.982.199 6.42 5.697 11.647 12.033 11.436 6.362-.212 11.459-5.706 11.283-12.162M1271.749 188.311c.042-5.467-4.294-9.896-9.637-9.845-5.179.05-10.039 4.845-9.608 9.965.468 5.564 3.595 8.977 9.371 9.307 5.517.315 9.831-3.913 9.874-9.427M1362.042 564.484c4.745-.695 8.312-3.389 8.521-9.27.196-5.455-4.33-10.136-9.613-9.619-5.59.547-8.838 3.809-8.903 9.614-.059 5.137 4.19 9.286 9.995 9.275"/><path fill="#050301" d="M1802.485 241.261c-5.646-14.482-10.989-28.56-16.769-42.456-.606-1.458-3.787-1.846-5.773-2.73-.327 2.146-1.45 4.548-.855 6.396a1292.61 1292.61 0 0 0 13.886 40.728c.66 1.836 2.907 3.102 4.42 4.631l5.091-6.569M1777.59 184.944c-4.726-4.146-9.4-8.355-14.285-12.304-.37-.3-2.776 1.005-3.27 2.029-.494 1.028-.253 3.034.49 3.922 2.953 3.536 5.938 7.175 9.538 9.969 1.315 1.021 4.374-.206 6.637-.407l.89-3.209M1616.592 444.337c3.07-4.017 6.46-6.56 6.149-8.515-.397-2.495-3.782-4.514-5.88-6.74-2.087 1.975-5.773 3.885-5.853 5.938-.098 2.478 2.86 5.077 5.584 9.317M1515.468 452.268c2.704-4.521 5.584-7.21 5.37-9.623-.184-2.081-3.891-3.85-6.04-5.757-1.986 2.299-5.201 4.425-5.56 6.955-.272 1.935 3.069 4.38 6.23 8.425M1602.634 394.069c-2.58 4.537-5.35 7.243-5.122 9.67.195 2.092 3.803 3.865 5.902 5.779 1.954-2.302 5.145-4.445 5.467-6.956.252-1.964-3.053-4.385-6.247-8.493M1526.255 401.16c-2.806 4.29-5.947 7.039-5.488 8.9.61 2.474 4.027 4.255 6.238 6.334 1.849-2.19 5.012-4.293 5.165-6.596.143-2.148-2.913-4.51-5.915-8.638M1628.849 399.556c-3.122 4.017-6.511 6.555-6.16 8.37.48 2.486 3.8 4.423 5.904 6.596 2.025-2.006 5.392-3.835 5.685-6.068.277-2.114-2.67-4.652-5.43-8.898M1547.197 432.587c-4.218-3.04-6.612-6.085-8.986-6.07-2.016.013-5.874 3.904-5.585 5.463.46 2.487 3.388 5.647 5.84 6.259 1.788.447 4.487-2.745 8.731-5.652M1592.85 434.909c2.91-4.062 5.938-6.437 5.759-8.541-.191-2.243-3.41-4.23-5.306-6.328-2.167 2.07-5.527 3.86-6.103 6.306-.425 1.803 2.787 4.463 5.65 8.563M1510.432 417.552c-3.93-3.06-6.184-6.185-8.327-6.11-2.26.079-4.411 3.214-6.611 5.014 2.003 2.257 3.677 5.705 6.117 6.377 1.81.499 4.613-2.607 8.82-5.281M1606.255 516.656c-3.726-.709-6.405-2.155-7.98-1.374-16.37 8.131-32.88 8.77-49.901 2.247-1.388-.53-3.653 1.23-5.511 1.925.953 1.748 1.455 4.22 2.926 5.132 12.739 7.9 44.153 6.388 55.977-2.53 1.24-.936 2.059-2.435 4.489-5.4M1640.571 646.279c8.93-.84 15.938-7.78 16.194-15.098.054-1.527-1.422-3.107-2.192-4.662-1.223 1.187-3.228 2.202-3.529 3.589-1.23 5.646-4.286 8.933-9.993 10.255-1.53.354-2.626 2.589-3.92 3.96l3.44 1.956M1613.278 621.531c-3.67 4.59-6.826 8.535-9.98 12.481 1.031.823 2.884 2.447 2.977 2.352 3.377-3.459 6.655-7.025 9.697-10.779.238-.292-1.335-2.052-2.694-4.054"/><path fill="#231f20" d="M1374.286 441.525c-1.069 1.444-2.276 2.382-2.524 3.527-1.276 5.903 8.727 16.983 14.94 16.503 1.194-.092 2.584-1.151 3.307-2.172.3-.423-.688-2.533-1.482-2.83-5.89-2.21-9.96-5.893-11.39-12.254-.207-.911-1.562-1.564-2.85-2.774"/><path fill="#050301" d="M1760.96 439.26c5.703-3.022 11.518-5.82 16.966-9.206 1.242-.773 1.216-3.586 1.772-5.46-1.842.312-3.808.312-5.502.994-4.879 1.963-9.705 4.082-14.425 6.397-1.664.815-2.963 2.374-4.429 3.593l5.618 3.682M1788.686 412.849l-3.845-4.926c-1.616 3.105-3.487 6.116-4.678 9.376-.325.888 1.4 2.526 2.186 3.819l6.337-8.27M1728.843 126.415l-2.464-3.191c-1.182 1.29-3.121 2.432-3.412 3.9-1.155 5.842-4.612 8.828-10.21 10.203-1.395.343-2.392 2.312-3.571 3.533 1.627.723 3.265 2.087 4.878 2.057 7.147-.134 14.508-7.845 14.779-16.502M1322.892 164.569c-1.046 1.88-2.741 3.833-2.358 4.411 2.817 4.258 6 8.282 9.279 12.205.19.23 2.569-.806 3.232-1.746.395-.559-.367-2.215-.968-3.144-1.935-2.991-3.993-5.904-6.1-8.777-.652-.892-1.61-1.56-3.085-2.949M1823.081 387.83c-.319-2.697-.11-4.36-.766-5.546-.719-1.304-2.235-2.168-3.404-3.225-.797 1.28-1.96 2.465-2.314 3.856-.756 2.973-1.25 6.037-1.532 9.094-.129 1.399.497 2.868.781 4.305 1.464-.495 3.612-.557 4.254-1.572 1.508-2.387 2.296-5.228 2.981-6.912M1481.66 508.334a17594.15 17594.15 0 0 0-5.646 6.018c-1.358-2.047-3.583-4.006-3.798-6.166-.174-1.746 2.074-3.732 3.248-5.612l6.196 5.76m2.934-5.59c-.936-3.856-.949-7.888-2.804-10.705-3.54-5.377-8.88-8.934-15.717-6.775-6.27 1.981-6.135 8.021-5.839 12.975.36 6.012 1.35 12.216 3.485 17.794 1.038 2.713 5.387 5.91 8.087 5.78 3.2-.155 7.345-2.997 9.07-5.878 2.265-3.789 2.572-8.752 3.718-13.192M1676.36 491.993l4.632-6.084c1.52 1.837 4.122 3.596 4.262 5.532.144 2.016-2.088 4.204-3.282 6.316l-5.613-5.764m13.19-4.269c-.475-3.373-.609-6.595-1.425-9.634-1.473-5.487-2.989-11.302-10.698-10.475-5.854.628-13.016 7.69-12.38 13.46.682 6.173 2.013 12.664 4.867 18.062 1.637 3.098 7.151 6.262 10.39 5.786 3.078-.452 5.994-5.302 7.976-8.79 1.336-2.352.924-5.696 1.27-8.409M1284.716 455.568c2.764 3.932 4.979 7.622 7.8 10.767.829.921 3.379.298 5.139.383-.335-1.513-.391-3.164-1.06-4.51-1.368-2.752-2.992-5.388-4.656-7.978-.944-1.469-2.174-2.753-3.276-4.12l-3.947 5.458M1629.527 730.757c2.888-2.792 5.118-4.95 7.35-7.106-1.23-.806-2.808-2.555-3.63-2.252-3.35 1.233-6.47 3.094-9.675 4.723l5.955 4.635"/><path fill="#fff" d="m1481.66 508.334-6.196-5.76c-1.174 1.88-3.422 3.866-3.248 5.612.215 2.16 2.44 4.12 3.798 6.166l5.646-6.018M1676.36 491.993c2.247 2.31 3.93 4.036 5.612 5.764 1.194-2.112 3.426-4.3 3.282-6.316-.14-1.936-2.743-3.695-4.262-5.532l-4.633 6.084"/><path fill="#050301" d="M40.634 320.861c0 1.768-.13 16.577-.38 44.429-.255 17.717-.13 32.526.38 44.429.504 16.198 1.9 31.328 4.177 45.378 2.28 14.051 9.873 21.076 22.784 21.076 6.076 0 12.276-2.154 18.607-6.456 3.038-2.789 4.557-5.696 4.557-8.734a7.26 7.26 0 0 0-.38-2.278c-7.595-22.025-11.392-48.482-11.392-79.365 0-9.873.63-27.34 1.9-52.404 1.008-22.024 1.387-39.367 1.138-52.023-.255-4.053-4.687-6.075-13.29-6.075-4.308 0-8.105.883-11.393 2.657-8.104 4.047-13.166 11.137-15.189 21.265-1.015 4.302-1.519 13.67-1.519 28.101"/><path fill="#ce1d2a" d="M291.393 345.86a346.47 346.47 0 0 0-4.763-14.621c-13.262-38.02-28.449-75.217-41.459-113.392-.353-1.038-.768-2.156-1.696-2.741-1.047-.66-2.4-.432-3.61-.174C175.351 228.678-.214 313.937 65.726 402.879c14.4 19.422 44.13 21.706 65.93 11.248 21.8-10.458 37.264-30.489 50.921-50.441a189.237 189.237 0 0 0 14.365 61.975c8.956 21.358 32.838 33.498 55.63 33.091 56.128-1.002 49.691-76.631 38.82-112.892"/><path fill="#050301" d="M266.091 302.5a53.409 53.409 0 0 1 4.557-.19c11.896 0 22.15 6.705 30.758 20.127 12.656 19.49 18.987 35.059 18.987 46.707 0 4.556-.76 8.858-2.279 12.91-4.81 13.416-12.15 25.063-22.024 34.936-11.143 11.136-23.543 17.468-37.214 18.987 0-11.648.76-35.446 2.278-71.39 1.77-41.267 3.418-61.962 4.937-62.087m-30.758-31.328c-4.308 1.519-8.165 4.236-11.582 8.164-3.418 3.923-5.127 7.909-5.127 11.962 0 1.264.25 2.469.76 3.607.504 1.14 2.907 3.353 7.215 6.646 3.542 2.527 5.441 5.06 5.696 7.595.76 29.109-2.03 73.289-8.354 132.526 0 1.768-1.14 4.178-3.418 7.215l-6.076 7.216v7.974c2.278 8.858 8.983 13.29 20.126 13.29a41 41 0 0 0 5.696-.38c18.227 0 33.666-4.307 46.328-12.91 18.731-12.407 34.935-27.976 48.606-46.707 10.122-13.926 15.19-29.115 15.19-45.568 0-18.987-6.332-37.47-18.988-55.442-11.902-16.963-26.836-29.874-44.808-38.732-12.407-6.331-23.799-9.494-34.176-9.494-6.076 0-11.772 1.009-17.088 3.038M442.474 278.957c3.418-2.41 5.126-7.66 5.126-15.76 0-9.113-2.788-15.188-8.354-18.226-2.788-1.77-5.696-2.66-8.733-2.66-4.557 0-8.42 2.089-11.582 6.267-3.17 4.177-5.127 8.924-5.886 14.24-.76 6.325.759 11.392 4.556 15.19 3.288 3.037 7.595 4.556 12.912 4.556 4.556 0 8.544-1.205 11.96-3.607m-39.681 63.985c2.023-.51 3.922-.76 5.696-.76 11.392 0 17.088 6.96 17.088 20.885 0 11.897-4.432 22.785-13.291 32.658-.76.504-1.65.759-2.658.759-4.052 0-9.054-3.987-15-11.962-5.95-7.973-8.923-15.758-8.923-23.353 0-9.624 5.696-15.7 17.088-18.227m-9.873-63.416c3.797-2.79 5.696-8.23 5.696-16.33 0-9.112-2.79-15.187-8.354-18.225-2.79-1.77-5.696-2.66-8.734-2.66-4.557 0-8.485 2.089-11.772 6.267-3.293 4.177-5.316 8.924-6.076 14.24-.76 6.58.884 11.64 4.937 15.19 3.287 3.037 7.594 4.556 12.91 4.556 4.557 0 8.355-1.014 11.393-3.038m-2.278 25.823c-20.761 11.895-31.14 30.757-31.14 56.58 0 6.58.885 13.035 2.66 19.366 2.278 8.1 6.455 16.578 12.53 25.442 7.085 9.873 11.013 15.694 11.772 17.468 3.798 8.603 10.502 12.91 20.126 12.91 11.392 0 21.265-4.687 29.619-14.05 8.355-9.368 14.68-21.9 18.987-37.592 1.519-5.828 2.279-11.524 2.279-17.09 0-19.745-9.494-39.622-28.48-59.617-4.557-4.812-11.647-7.215-21.266-7.215-6.835 0-12.531 1.263-17.087 3.798M507.408 402.75c-8.99-7.47-12.721-16.52-11.202-27.151 2.278-17.468 7.084-26.202 14.43-26.202 6.076-.51 11.26 3.039 15.569 10.633 3.542 7.084 7.084 14.175 10.632 21.265 2.528 4.807 3.798 10.633 3.798 17.468 0 4.806-.825 8.543-2.47 11.2-1.648 2.66-4.116 3.989-7.403 3.989-6.586 0-14.371-3.738-23.354-11.202m15-114.49c0-4.308-2.22-7.784-6.646-10.443-4.432-2.658-8.164-3.987-11.202-3.987-5.826 0-9.37 5.062-10.632 15.19-1.27 10.377 1.643 15.569 8.733 15.569 4.302 0 8.669-1.65 13.1-4.937 4.427-3.293 6.647-7.09 6.647-11.392m-39.113 124.932c19.995 16.958 40.88 25.442 62.656 25.442 10.123 0 19.49-2.278 28.1-6.835 6.076-3.038 8.604-6.835 7.595-11.392-9.873-20.505-14.81-44.938-14.81-73.288 0-11.902 1.329-29.56 3.988-52.973 2.658-23.418 3.987-41.077 3.987-52.973 0-19.235-5.951-32.277-17.848-39.112-8.105-4.557-17.218-6.835-27.341-6.835-12.91 0-24.813 3.547-35.694 10.63-10.888 7.092-18.358 16.46-22.405 28.102-.51 1.52-.76 2.913-.76 4.177 0 3.798 1.644 7.025 4.937 9.683 3.287 2.659 6.96 3.988 11.013 3.988 3.542 0 6.2-1.14 7.974-3.418 1.009-1.01 4.936-5.566 11.772-13.67 4.806-5.821 9.114-9.998 12.91-12.531 5.566-3.542 11.393-4.937 17.468-4.177 1.519.759 3.923 4.177 7.216 10.252 1.519 9.114 2.278 18.738 2.278 28.86 0 14.935-2.79 38.098-8.354 69.49 0 .25.249 1.455.759 3.609.505 2.148.759 3.732.759 4.747 0 2.782-1.394 3.287-4.176 1.518-11.143-6.586-21.141-9.873-30-9.873-4.557 0-8.99.884-13.29 2.658-7.595 3.039-14.81 10.757-21.645 23.165-3.293 7.843-4.936 15.569-4.936 23.163 0 14.934 5.944 27.465 17.847 37.593"/><path fill="#00adef" d="M637.877 269.623c-22.37 31.028-33.555 67.469-33.555 109.32 0 12.748 1.083 25.376 3.248 37.886 1.443 4.566 4.448 8.597 9.02 12.086 4.566 3.484 9.138 5.232 13.71 5.232 4.81 0 8.535-1.928 11.185-5.773 4.087-5.772 6.133-12.87 6.133-21.287 0-3.851-.603-9.865-1.804-18.04-1.206-8.18-1.804-14.314-1.804-18.401 0-4.33.48-8.422 1.444-12.267a776.188 776.188 0 0 0 4.69-24.895c2.165-9.381 5.65-16.84 10.463-22.37 6.495 7.217 13.045 19.36 19.664 36.442 6.612 17.075 12.565 28.863 17.86 35.357 6.251 7.695 12.746 11.546 19.482 11.546 8.175 0 16.473-5.897 24.895-17.68 6.494-9.38 11.907-20.564 16.236-33.553 0-1.928 1.021-4.51 3.067-7.757 2.041-3.247 3.546-4.392 4.51-3.428 8.417 10.339 12.628 23.57 12.628 39.687 0 5.53-.603 14.01-1.804 25.437-1.206 11.422-1.804 20.024-1.804 25.797 0 7.453.722 14.308 2.165 20.566 1.443 2.886 4.15 5.468 8.118 7.757 3.968 2.283 7.875 3.427 11.726 3.427 2.644 0 4.808-.603 6.494-1.803 9.138-7.217 13.71-18.401 13.71-33.555 0-4.092-.36-10.226-1.082-18.401-.72-8.18-1.082-14.195-1.082-18.04 0-22.853-5.052-47.39-15.154-73.602-3.37-6.258-5.412-10.227-6.133-11.907-2.887-4.572-5.897-8.061-9.02-10.463-5.537-4.572-10.949-6.855-16.236-6.855-11.546 0-21.89 9.139-31.029 27.42-8.659 17.555-16.236 30.787-22.73 39.688-3.608-5.05-9.263-15.757-16.958-32.111-7.216-14.916-13.71-25.616-19.483-32.11-8.422-9.623-18.282-14.433-29.585-14.433-3.608 0-7.34.36-11.185 1.083M881.053 375.697c-.722-3.607-2.65-9.505-5.773-17.68-2.886-7.215-4.33-12.266-4.33-15.152 0-2.887 1.083-4.934 3.248-6.134 4.566-2.407 10.22-3.608 16.958-3.608 9.859 0 15.632 2.762 17.318 8.299 1.2 4.087 1.804 8.417 1.804 12.988 0 7.937-2.047 17.076-6.134 27.42-.721 2.166-4.69 10.943-11.906 26.339-5.294-6.494-9.02-17.32-11.185-32.472m-19.844 32.472c1.2 3.608 3.845 15.03 7.938 34.276 2.886 13.468 6.855 23.689 11.906 30.668 2.644 4.087 7.813 6.134 15.514 6.134 4.567 0 7.453-1.444 8.659-4.33 7.938-17.081 15.154-38.244 21.648-63.5a32172.272 32172.272 0 0 0 15.876-66.748c0-1.686 1.623-3.371 4.87-5.052 3.247-1.686 5.35-3.31 6.314-4.87.959-1.568 1.444-3.31 1.444-5.232 0-1.928-.485-3.371-1.444-4.33-1.928-4.572-2.886-9.261-2.886-14.071 0-5.536 2.165-14.313 6.494-26.338 4.088-11.066 5.649-19.844 4.69-26.338-.963-6.737-6.257-10.102-15.874-10.102-5.294 0-9.263 1.803-11.907 5.412-3.371 4.566-6.257 14.307-8.66 29.224-1.927 12.504-6.014 20.684-12.266 24.535-5.294 2.885-11.427 4.329-18.401 4.329-11.31 0-20.926-3.13-28.863-9.381-3.61-2.886-7.578-13.231-11.907-31.03-3.608-15.394-9.505-23.09-17.68-23.09-3.607 0-7.818 1.2-12.627 3.608-.722 3.366-1.082 6.856-1.082 10.464 0 7.452 1.803 16.833 5.41 28.142 5.053 15.632 7.939 25.013 8.66 28.142 6.732 31.508 14.793 61.336 24.174 89.478M978.827 400.231a9136.397 9136.397 0 0 1-9.561 11.005c-3.247 3.726-4.871 7.036-4.871 9.922 0 2.165.958 4.33 2.887 6.494 13.225 16.597 33.069 28.621 59.53 36.08a34597.63 34597.63 0 0 1 70.357 15.154c1.443.237 2.887.361 4.329.361 4.567 0 9.077-1.624 13.53-4.87 4.448-3.249 6.675-7.037 6.675-11.367 0-7.7-5.536-12.87-16.597-15.514-7.7-2.886-21.771-5.773-42.213-8.659-17.561-2.407-31.028-6.133-40.41-11.185-4.33-2.407-6.494-4.933-6.494-7.576 0-.722.119-1.444.36-2.165 6.975-10.587 19.36-22.37 37.164-35.359 22.369-16.117 35.837-26.462 40.409-31.028 12.746-12.51 19.122-25.617 19.122-39.327 0-4.572-.721-9.38-2.165-14.433-4.33-16.359-14.674-28.987-31.03-37.884-14.915-7.937-32.352-11.906-52.314-11.906-18.525 0-35.358 3.485-50.512 10.464-6.98 3.123-10.463 8.174-10.463 15.153 0 5.288 1.984 10.644 5.953 16.056 3.969 5.411 8.716 9.437 14.25 12.086 3.609.722 6.857-1.082 9.743-5.41 3.123-5.053 5.773-7.939 7.938-8.66 5.288 0 13.225-1.326 23.813-3.969 3.844-1.929 7.937-2.887 12.267-2.887 4.566 0 9.86 1.32 15.875 3.97a428.834 428.834 0 0 0 15.153 6.854c4.33 3.366 6.495 7.814 6.495 13.35 0 3.365-.846 6.854-2.526 10.463-9.144 11.782-25.2 25.853-48.167 42.213-22.972 16.354-39.146 30.544-48.527 42.574M1133.246 343.225c-.242 1.443-.964 4.33-2.165 8.66-.72 3.122-.963 5.411-.72 6.855.218 1.68.94 4.69 2.163 9.02 1.218 4.33 1.94 7.813 2.165 10.462.237 5.288.045 12.99-.575 23.092-.58 11.06-.868 18.88-.868 23.452 0 14.911 2.526 26.936 7.577 36.08 2.886 5.051 8.535 7.576 16.958 7.576 5.287 0 10.34-1.206 15.153-3.608 6.494-6.015 9.381-11.427 8.66-16.235-.497-3.129-2.617-11.789-6.348-25.978-2.989-11.066-4.477-19.844-4.477-26.339 0-7.216 1.76-13.474 5.277-18.76 3.517-5.295 10.976-7.939 22.375-7.939 5.581 0 8.975 1.443 10.187 4.33 3.394 9.14 5.096 21.287 5.096 36.441v26.338c0 9.138.474 16.958 1.432 23.452 1.426 9.618 7.983 14.432 19.67 14.432 7.863 0 12.751-2.289 14.662-6.855 3.338-8.902 5.007-19.247 5.007-31.029 0-6.494-1.043-18.04-3.129-34.636-1.522-14.675-2.047-26.22-1.562-34.637.248-1.686 2.29-4.51 6.133-8.48 3.84-3.968 5.887-7.277 6.135-9.922.236-2.164-.903-4.509-3.429-7.035-2.525-2.525-3.912-4.149-4.148-4.87-.965-5.537-1.444-11.428-1.444-17.679 0-8.902 1.68-22.19 5.051-39.869 3.366-17.679 5.052-31.09 5.052-40.229-3.37-.722-6.495-1.082-9.38-1.082-11.547 0-20.088 6.014-25.618 18.04-3.608 7.695-6.619 20.802-9.02 39.327-2.649 19.72-5.175 32.89-7.577 39.507-2.407 6.613-8.659 9.922-18.76 9.922-8.66 0-13.836-1.686-15.515-5.05-3.372-5.052-5.052-11.31-5.052-18.763 0-4.814.96-12.57 2.887-23.27 1.922-10.706 2.886-18.706 2.886-23.994 0-6.258-.964-11.907-2.886-16.957-14.432-.486-24.895 4.447-31.39 14.792-4.572 7.695-7.339 19.483-8.298 35.358l-2.165 36.08"/><path fill="#050301" d="M1389.814 230.274c-.547.624-.819 1.521-.819 2.692 0 2.964.82 4.915 2.459 5.851a10.441 10.441 0 0 0 5.266 1.404c1.56 0 2.944-.429 4.155-1.287 1.209-.859 1.813-2.067 1.813-3.628 0-1.327-.43-2.712-1.287-4.154-.86-1.444-1.756-2.44-2.692-2.984a5.933 5.933 0 0 0-3.043-.82c-2.264 0-4.213.975-5.851 2.926m-2.927-26.448c0 6.162.703 10.61 2.108 13.341 1.09 2.183 3.002 3.277 5.733 3.277a8.543 8.543 0 0 0 3.395-.702c2.182-1.015 3.276-2.34 3.276-3.98 0-.625-.234-1.17-.702-1.637-1.405-1.952-2.147-4.488-2.224-7.608-.233-3.823-.546-6.28-.935-7.373-.391-1.093-.585-2.34-.585-3.744 0-1.016.175-2.557.527-4.623.35-2.068.526-3.649.526-4.739 0-1.094-.058-2.148-.175-3.16-.119-1.015-.528-1.522-1.23-1.522-1.718-.468-3.238-.702-4.564-.702-2.498 0-4.058.936-4.68 2.808-.627 2.262-.938 4.993-.938 8.193 0 1.325.077 3.353.235 6.085.155 2.73.233 4.76.233 6.086M1470.213 204.645c1.247 7.332 4.485 13.341 9.713 18.022 4.29 3.822 7.216 6.28 8.777 7.374 3.666 2.574 7.06 3.861 10.182 3.861 1.639 0 3.198-.35 4.68-1.053 1.17-.469 1.756-1.404 1.756-2.808 0-.547-.078-1.132-.234-1.756-.936-2.809-2.966-4.994-6.085-6.554-5.228-2.498-8.075-3.902-8.543-4.213-5.775-4.37-8.817-9.052-9.13-14.044-.311-4.213.508-7.84 2.459-10.883 1.013-1.638 2.613-2.925 4.798-3.862a278.084 278.084 0 0 0 5.969-1.989 5.378 5.378 0 0 1 2.223-.469c1.715 0 3.997 1.112 6.846 3.336 2.848 2.224 4.975 3.373 6.379 3.452 1.872.155 2.809-.702 2.809-2.575 0-2.029-.703-4.136-2.107-6.319-3.043-4.68-7.764-7.022-14.161-7.022-3.355 0-7.217.623-11.586 1.872-4.681 1.326-8.367 3.94-11.058 7.841-2.693 3.9-4.04 8.387-4.04 13.46 0 1.403.119 2.846.353 4.33M1519.714 217.284c.077 2.34-.292 5.832-1.111 10.475-.82 4.64-1.23 7.975-1.23 10.005 0 2.886.546 5.422 1.639 7.607 1.247 2.496 3.394 3.745 6.436 3.745 3.12 0 4.799-1.64 5.034-4.915.076-.468 0-1.287-.235-2.458-.234-1.17-.351-1.912-.351-2.224v-25.044c-.158-2.731-.118-6.36.117-10.883.31-5.383.469-8.935.469-10.65 0-6.32-.977-11.586-2.926-15.8-.86-1.95-2.42-2.924-4.682-2.924-1.483 0-2.945.409-4.39 1.228-1.443.819-2.164 2.32-2.164 4.506 0 .624.122 1.247.365 1.872 1.453 4.837 2.3 10.689 2.545 17.555.16 6.007.322 11.975.484 17.905M1551.313 201.252c6.941.31 11.155 2.768 12.638 7.372.311.624.468 1.247.468 1.873 0 1.638-.859 2.964-2.575 3.979-1.717 1.013-3.628 1.52-5.734 1.52-1.561 0-2.887-.311-3.978-.935-2.264-1.17-3.395-3.628-3.395-7.372 0-4.137.858-6.282 2.575-6.437m-12.756 5.968c-.079 5.304 1.481 9.732 4.681 13.283 3.198 3.549 7.294 5.324 12.288 5.324 5.305 0 10.006-2.01 14.101-6.026 4.098-4.02 6.106-8.72 6.029-14.103-.702-2.184-3.629-4.798-8.778-7.841-6.399-3.823-9.947-6.084-10.65-6.787-1.327-.626-1.989-1.288-1.989-1.99 0-1.248.857-2.36 2.574-3.335 1.716-.976 3.237-1.463 4.565-1.463 2.575 0 6.28 1.247 11.118 3.745 1.48-1.093 2.223-2.575 2.223-4.447 0-1.483-.469-2.85-1.405-4.096-.936-1.25-2.147-1.99-3.628-2.223-4.992-.781-8.152-1.171-9.478-1.171-2.655 0-5.034.469-7.14 1.404-9.284 4.135-14.121 14.044-14.511 29.726M1601.166 194.464c0-1.015-.352-2.146-1.054-3.394-.702-1.25-1.444-1.873-2.223-1.873-1.249 0-2.244.545-2.985 1.639-.742 1.092-1.035 2.107-.877 3.043.311 1.638 1.638 2.457 3.979 2.457 2.106 0 3.16-.625 3.16-1.873m2.574-8.542c.235 1.092.74 3.043 1.522 5.852.702 2.182 1.052 3.978 1.052 5.382 0 1.639-.35 3.278-1.052 4.915a780.57 780.57 0 0 0-11.821-2.457c-4.604-1.328-6.944-4.057-7.021-8.192-.078-1.796 1.639-3.316 5.149-4.564 3.043-1.17 6.086-1.755 9.128-1.755 1.794 0 2.809.272 3.043.819m2.165-14.22c-.664.43-1.345 1.308-2.048 2.634-.625 1.091-1.211 1.638-1.755 1.638-4.136.702-8.309 1.404-12.522 2.106-4.604 1.17-7.882 3.432-9.831 6.787-1.249 1.64-1.872 3.823-1.872 6.554 0 3.98.975 7.257 2.926 9.832 4.68 6.318 11.546 9.478 20.596 9.478 3.901 0 5.774-.116 5.619-.35.623.922.935 2.229.935 3.92 0 1.996-.585 3.13-1.755 3.398a15.58 15.58 0 0 1-3.511.405c-2.03 0-4.272-.476-6.729-1.424a285.434 285.434 0 0 0-7.197-2.678c-.392-.153-.742-.228-1.054-.228-1.249 0-2.264.896-3.042 2.691-.626 1.404-.936 2.926-.936 4.564 0 1.013.117 1.64.35 1.873 5.149 3.511 10.961 5.266 17.438 5.266 6.788 0 11.351-2.419 13.692-7.256 1.247-2.653 1.873-5.54 1.873-8.66 0-2.574-.509-6.202-1.521-10.884-1.171-5.148-1.874-8.893-2.107-11.234-.392-5.852-.781-9.83-1.171-11.938-.935-4.757-2.419-7.138-4.447-7.138-.625 0-1.269.216-1.931.643M1663.072 226.529c.39-.936-.526-2.126-2.75-3.57s-4.037-1.97-5.44-1.578c-1.172.31-1.757 1.325-1.757 3.042 0 2.34.662 4.719 1.99 7.139.311.544.778.819 1.403.819 1.092 0 2.341-.703 3.745-2.107 1.405-1.404 2.341-2.653 2.81-3.745m-12.172 10.416c0-1.64-.547-3.745-1.639-6.32-1.327-2.965-2.653-4.447-3.978-4.447-1.17 0-2.107 1.365-2.809 4.096-.079.312-.35 2.146-.819 5.5-.313 2.108 1.364 3.16 5.032 3.16 2.81 0 4.213-.663 4.213-1.99m-15.799-.116c.702-.078 1.423-1.23 2.165-3.452.741-2.224 1.112-4.312 1.112-6.261 0-2.264-.703-3.395-2.107-3.395-1.717 0-4.096 2.458-7.138 7.373a3.122 3.122 0 0 0-.35 1.405c0 1.17.74 2.223 2.223 3.16 1.48.936 2.846 1.325 4.095 1.17m-12.873-37.215c0 1.247-.098 3.236-.293 5.969-.195 2.729-.292 4.758-.292 6.085 0 2.964.351 5.383 1.053 7.256.702 1.638 2.184 2.458 4.447 2.458 2.574 0 4.173-1.016 4.798-3.043.156-.47.234-1.015.234-1.64 0-.78-.215-1.97-.643-3.568-.43-1.6-.644-2.83-.644-3.687.703-.625 1.053-1.094 1.053-1.404 2.651 4.368 4.407 7.02 5.267 7.958 2.183 2.575 4.64 3.862 7.373 3.862 1.012 0 2.066-.157 3.16-.47 2.73-4.524 4.523-10.18 5.383-16.967.234-1.952.585-7.998 1.053-18.14.858-3.434.351-5.424-1.52-5.97-2.107-.624-3.746-.934-4.917-.934-1.795 0-2.809.66-3.042 1.989-.392 2.964-.743 7.8-1.054 14.512-.234 6.085-.702 10.804-1.404 14.16-2.185-2.42-4.213-6.126-6.085-11.117-2.42-6.244-4.137-10.241-5.149-11.997-1.016-1.754-2.537-2.632-4.565-2.632-2.106 0-3.473 1.209-4.096 3.628-.39 1.714-.546 3.978-.468 6.787.234 5.07.351 7.373.351 6.905"/><path fill="#ce1d2a" d="M1462.604 201.314a82.693 82.693 0 0 0-1.879-3.217c-5.092-8.322-10.6-16.349-15.641-24.72-.137-.229-.293-.472-.543-.563-.281-.103-.59.021-.863.145-14.57 6.568-51.763 35.776-31.58 53.45 4.407 3.858 11.565 2.872 16.19-.724 4.625-3.597 7.257-9.134 9.466-14.56a45.842 45.842 0 0 0 6.585 13.937c3.218 4.598 9.496 6.245 14.872 4.98 13.24-3.123 7.83-20.7 3.393-28.728"/><path fill="#231f20" d="M967.24 100.15c-4.358-.849-6.96-.849-7.81 0-3.824 7.542-6.587 18.909-8.286 34.104-1.912 15.936-4.302 27.303-7.171 34.103-2.231-3.613-4.517-8.924-6.853-15.936-2.656-7.968-4.78-13.494-6.374-16.574-.214-.533-.214-1.434 0-2.709.21-1.275.21-2.178 0-2.709-2.34-4.569-5.632-6.852-9.881-6.852-1.17 0-2.286.211-3.346.636-1.594.424-3.028 1.328-4.303 2.709-1.275 1.38-1.913 2.815-1.913 4.304-1.274 12.004-3.88 18.008-7.808 18.008-.852 0-1.275-.904-1.275-2.71 0-.532.052-1.382.159-2.55.105-1.17.16-2.018.16-2.549 0-1.171-.267-2.869-.797-5.099-.533-2.232-.797-3.985-.797-5.26 0-1.062.08-2.764.239-5.1.16-2.337.239-4.038.239-5.099 0-1.063-.055-2.02-.16-2.868-.213-1.912-1.354-3.402-3.425-4.462-2.072-1.064-4.383-1.594-6.933-1.594-3.082 0-5.313.742-6.693 2.23-2.445 2.55-3.665 5.842-3.665 9.881 0 3.08.849 7.436 2.549 13.068 1.913 6.693 3.028 11.156 3.347 13.386.849 10.412 2.443 25.977 4.78 46.694.424 3.292 2.922 4.94 7.49 4.94 3.188 0 5.312-.904 6.376-2.709 3.505-4.677 6.319-11.103 8.445-19.283 1.913-7.012 3.77-14.023 5.579-21.036 1.805-1.808 2.813-2.605 3.027-2.391 2.124 3.081 4.674 8.658 7.65 16.734 2.973 8.073 5.523 13.65 7.649 16.733 3.506 5.1 7.913 7.649 13.227 7.649 1.487 0 3.133-.213 4.94-.637 3.399-9.881 6.534-24.701 9.403-44.462 2.973-20.399 6.056-35.326 9.243-44.781a7.593 7.593 0 0 0 .159-1.435c0-3.294-2.39-5.418-7.171-6.374M978.553 157.202c.104 2.762.29 5.63.558 8.605.264 2.974 1.406 5.153 3.426 6.535 1.594.637 3.399.956 5.418.956 5.419 0 8.128-1.912 8.128-5.738l-.638-15.617c-.214-6.27 0-11.474.638-15.617.849-3.721 1.698-7.438 2.55-11.156 1.379-4.676 3.027-7.012 4.94-7.012.637 0 1.327.212 2.07.638 8.819 6.055 13.228 15.19 13.228 27.41 0 7.012-1.753 13.332-5.258 18.964-1.913 3.08-2.87 5.842-2.87 8.287 0 3.08 2.125 4.622 6.375 4.622 4.144 0 7.81-2.34 10.997-7.013 2.868-4.143 4.407-8.501 4.62-13.067.639-10.943-.636-20.824-3.824-29.642-3.72-10.305-9.616-17.211-17.69-20.717-3.293-1.381-6.373-2.072-9.242-2.072-8.075 0-14.238 5.204-18.486 15.618-3.506 8.392-5.26 18.379-5.26 29.96 0 2.124.106 4.144.32 6.056M1040.065 149.552c-.214 1.698-1.063 4.515-2.55 8.446-1.382 3.611-2.072 6.374-2.072 8.287 0 2.55.956 4.702 2.869 6.454 1.912 1.753 3.929 2.63 6.056 2.63 2.76 0 5.152-1.302 7.17-3.905 2.018-2.604 3.029-5.657 3.029-9.163v-2.23c2.747.422 6.076 2.653 9.987 6.692 3.59 3.825 6.868 5.737 9.826 5.737 1.056 0 2.166-.159 3.33-.478 4.437-1.808 6.658-3.56 6.658-5.259 0-.852-.374-1.753-1.116-2.709-2.02-2.868-5.712-6.509-11.076-10.916-5.365-4.41-9.163-8.262-11.394-11.554-.744-1.17-1.195-3.083-1.355-5.737-.16-2.657-.532-4.489-1.115-5.498-.585-1.01-.876-2.206-.876-3.586 0-2.23.849-4.462 2.549-6.693 1.38-1.7 2.072-3.879 2.072-6.534 0-3.93-1.222-7.067-3.665-9.402-1.594-2.55-3.984-3.825-7.172-3.825-2.656 0-4.78 1.01-6.374 3.028-1.808 1.168-2.605 3.558-2.391 7.171.423 9.455-.373 22.471-2.39 39.044M1086.598 141.585c1.698 9.984 6.108 18.167 13.227 24.542 5.842 5.204 9.826 8.55 11.952 10.039 4.993 3.506 9.614 5.26 13.865 5.26 2.231 0 4.355-.48 6.374-1.435 1.594-.637 2.391-1.912 2.391-3.825 0-.744-.107-1.541-.319-2.39-1.275-3.825-4.039-6.8-8.287-8.924-7.119-3.402-10.995-5.314-11.633-5.738-7.864-5.951-12.007-12.325-12.43-19.123-.426-5.737.69-10.677 3.346-14.821 1.38-2.231 3.558-3.983 6.534-5.26a375.475 375.475 0 0 0 8.127-2.708 7.358 7.358 0 0 1 3.028-.638c2.336 0 5.444 1.515 9.323 4.542 3.877 3.029 6.773 4.595 8.686 4.702 2.55.212 3.824-.956 3.824-3.506 0-2.764-.956-5.633-2.868-8.606-4.144-6.375-10.573-9.561-19.283-9.561-4.569 0-9.829.848-15.777 2.55-6.375 1.804-11.394 5.363-15.06 10.676-3.666 5.312-5.498 11.42-5.498 18.328 0 1.912.16 3.876.478 5.896M1155.282 176.485c-.745.849-1.116 2.071-1.116 3.665 0 4.036 1.116 6.693 3.347 7.968a14.22 14.22 0 0 0 7.171 1.913c2.124 0 4.01-.586 5.658-1.753 1.646-1.171 2.47-2.816 2.47-4.94 0-1.808-.585-3.694-1.753-5.658-1.17-1.967-2.39-3.322-3.665-4.064a8.08 8.08 0 0 0-4.144-1.115c-3.082 0-5.737 1.327-7.968 3.984m-3.984-36.017c0 8.392.956 14.448 2.868 18.168 1.487 2.973 4.09 4.462 7.81 4.462 1.593 0 3.132-.318 4.621-.956 2.973-1.382 4.462-3.187 4.462-5.419 0-.851-.319-1.592-.956-2.23-1.913-2.657-2.924-6.111-3.028-10.359-.319-5.207-.745-8.553-1.275-10.04-.533-1.489-.797-3.187-.797-5.099 0-1.382.24-3.482.717-6.295.48-2.817.717-4.968.717-6.454 0-1.49-.079-2.924-.238-4.303-.16-1.382-.718-2.072-1.674-2.072-2.338-.637-4.41-.956-6.215-.956-3.402 0-5.526 1.275-6.375 3.825-.85 3.08-1.275 6.798-1.275 11.155 0 1.806.105 4.567.32 8.287.211 3.717.318 6.479.318 8.286M1212.333 116.087c.32 1.486 1.008 4.144 2.072 7.968.956 2.973 1.434 5.418 1.434 7.33 0 2.23-.478 4.463-1.434 6.694a1039.158 1039.158 0 0 0-16.096-3.346c-6.27-1.81-9.457-5.526-9.562-11.156-.107-2.445 2.232-4.517 7.012-6.216 4.144-1.593 8.287-2.39 12.43-2.39 2.443 0 3.825.37 4.144 1.116m2.948-19.363c-.903.586-1.831 1.78-2.788 3.586-.851 1.486-1.648 2.23-2.39 2.23-5.634.957-11.316 1.913-17.053 2.869-6.27 1.594-10.731 4.674-13.385 9.243-1.701 2.232-2.55 5.205-2.55 8.925 0 5.418 1.327 9.88 3.984 13.386 6.374 8.605 15.722 12.908 28.047 12.908 5.312 0 7.862-.16 7.65-.477.849 1.274 1.275 3.08 1.275 5.418 0 2.76-.797 4.328-2.39 4.7a21.031 21.031 0 0 1-4.781.558c-2.764 0-5.817-.664-9.164-1.991a387.885 387.885 0 0 0-9.8-3.745c-.533-.215-1.011-.32-1.435-.32-1.7 0-3.083 1.22-4.143 3.667-.852 1.912-1.275 3.983-1.275 6.215 0 1.379.159 2.23.478 2.549 7.012 4.782 14.925 7.17 23.745 7.17 9.243 0 15.458-3.293 18.646-9.88 1.698-3.612 2.549-7.544 2.549-11.792 0-3.505-.692-8.446-2.071-14.821-1.594-7.012-2.55-12.111-2.87-15.3-.532-7.966-1.062-13.384-1.593-16.254-1.275-6.478-3.294-9.72-6.055-9.72-.852 0-1.728.294-2.63.876"/></g></svg>