<svg xmlns="http://www.w3.org/2000/svg" viewBox="0 0 1690 512"><g fill="#282525"><path d="M1127.624 436.044q15.262 0 22.598 9.808 5.728 7.65 5.728 19.577 0 12.908-6.552 21.461-7.69 10.044-21.931 10.044-13.3 0-20.911-8.788-6.787-8.474-6.787-21.421 0-11.692 5.807-20.009 7.454-10.671 22.049-10.671zm.785 53.907q10.318 0 14.928-7.395 4.61-7.395 4.61-17.008 0-10.161-5.316-16.36-5.316-6.199-14.536-6.199-8.945 0-14.595 6.14-5.65 6.14-5.65 18.106 0 9.573 4.845 16.145 4.845 6.572 15.713 6.572zm40.096-7.886q.314 3.531 1.766 5.414 2.668 3.413 9.259 3.413 3.923 0 6.905-1.707 2.982-1.707 2.982-5.277 0-2.707-2.393-4.119-1.53-.863-6.042-2.001l-5.61-1.412q-5.375-1.334-7.925-2.982-4.551-2.864-4.551-7.925 0-5.963 4.296-9.651 4.296-3.688 11.554-3.688 9.494 0 13.692 5.571 2.629 3.531 2.55 7.611h-6.67q-.196-2.393-1.687-4.355-2.432-2.786-8.435-2.786-4.002 0-6.062 1.53-2.06 1.53-2.06 4.041 0 2.746 2.707 4.394 1.569.981 4.63 1.726l4.669 1.138q7.611 1.844 10.201 3.57 4.119 2.707 4.119 8.514 0 5.61-4.257 9.691-4.257 4.08-12.967 4.08-9.377 0-13.28-4.257-3.904-4.257-4.178-10.534zm37.389-40.567h7.14v11.731h6.709v5.767h-6.709v27.424q0 2.197 1.491 2.942.824.432 2.746.432.51 0 1.099-.02.589-.02 1.373-.098v5.571q-1.216.353-2.531.51-1.314.157-2.844.157-4.943 0-6.709-2.531-1.766-2.531-1.766-6.572v-27.816h-5.689v-5.767h5.689zm38.409 10.789q4.473 0 8.671 2.099 4.198 2.099 6.395 5.434 2.119 3.178 2.825 7.415.628 2.903.628 9.259h-30.798q.196 6.395 3.021 10.26 2.825 3.864 8.749 3.864 5.532 0 8.827-3.649 1.883-2.119 2.668-4.904h6.944q-.275 2.315-1.824 5.159-1.55 2.844-3.472 4.649-3.217 3.139-7.964 4.237-2.55.628-5.767.628-7.847 0-13.3-5.708-5.453-5.708-5.453-15.988 0-10.122 5.493-16.439 5.493-6.317 14.359-6.317zm11.26 18.597q-.432-4.59-2.001-7.337-2.903-5.1-9.691-5.1-4.865 0-8.161 3.511-3.296 3.511-3.492 8.926zm32.603 19.813q7.023 0 9.632-5.316 2.609-5.316 2.609-11.829 0-5.885-1.883-9.573-2.982-5.807-10.279-5.807-6.473 0-9.416 4.943-2.942 4.943-2.942 11.927 0 6.709 2.942 11.181 2.942 4.473 9.338 4.473zm.275-38.684q8.121 0 13.732 5.414 5.61 5.414 5.61 15.929 0 10.161-4.943 16.792-4.943 6.63-15.34 6.63-8.671 0-13.771-5.865-5.1-5.865-5.1-15.752 0-10.593 5.375-16.87 5.375-6.277 14.438-6.277zm45.471 38.488q4.943 0 8.219-4.139 3.276-4.139 3.276-12.378 0-5.022-1.452-8.631-2.746-6.944-10.044-6.944-7.337 0-10.044 7.337-1.452 3.923-1.452 9.965 0 4.865 1.452 8.278 2.746 6.513 10.044 6.513zm-18.283-37.075h6.866v5.571q2.119-2.864 4.63-4.433 3.57-2.354 8.396-2.354 7.14 0 12.123 5.473 4.983 5.473 4.983 15.634 0 13.732-7.18 19.617-4.551 3.727-10.593 3.727-4.747 0-7.964-2.079-1.883-1.177-4.198-4.041v21.461h-7.062zm50.65 30.641q0 3.06 2.236 4.826 2.236 1.765 5.296 1.765 3.727 0 7.219-1.726 5.885-2.864 5.885-9.377v-5.689q-1.295.824-3.335 1.373-2.04.549-4.002.785l-4.276.549q-3.845.51-5.767 1.609-3.256 1.844-3.256 5.885zm17.106-14.281q2.432-.314 3.256-2.04.471-.942.471-2.707 0-3.609-2.57-5.238-2.57-1.628-7.356-1.628-5.532 0-7.847 2.982-1.295 1.648-1.687 4.904h-6.591q.196-7.768 5.041-10.809 4.845-3.041 11.24-3.041 7.415 0 12.045 2.825 4.59 2.825 4.59 8.788v24.207q0 1.099.451 1.765.451.667 1.903.667.471 0 1.059-.059.588-.059 1.255-.177v5.218q-1.648.471-2.511.588-.863.118-2.354.118-3.649 0-5.297-2.589-.863-1.373-1.216-3.884-2.158 2.825-6.199 4.904-4.041 2.079-8.906 2.079-5.846 0-9.553-3.551-3.708-3.551-3.708-8.886 0-5.846 3.649-9.063 3.649-3.217 9.573-3.963zm23.579-28.287h7.14v11.731h6.709v5.767h-6.709v27.424q0 2.197 1.491 2.942.824.432 2.746.432.51 0 1.099-.02.588-.02 1.373-.098v5.571q-1.216.353-2.531.51-1.314.157-2.844.157-4.943 0-6.709-2.531-1.765-2.531-1.765-6.572v-27.816h-5.689v-5.767h5.689zm20.911 11.927h7.18v41.823h-7.18zm0-15.811h7.18v8.004h-7.18zm23.265 46.452q0 3.06 2.236 4.826 2.236 1.765 5.296 1.765 3.727 0 7.219-1.726 5.885-2.864 5.885-9.377v-5.689q-1.295.824-3.335 1.373-2.04.549-4.002.785l-4.276.549q-3.845.51-5.767 1.609-3.256 1.844-3.256 5.885zm17.106-14.281q2.432-.314 3.256-2.04.471-.942.471-2.707 0-3.609-2.57-5.238-2.57-1.628-7.356-1.628-5.532 0-7.847 2.982-1.295 1.648-1.687 4.904h-6.591q.196-7.768 5.041-10.809 4.845-3.041 11.24-3.041 7.415 0 12.045 2.825 4.59 2.825 4.59 8.788v24.207q0 1.099.451 1.765.451.667 1.903.667.471 0 1.059-.059.588-.059 1.255-.177v5.218q-1.648.471-2.511.588-.863.118-2.354.118-3.649 0-5.297-2.589-.863-1.373-1.216-3.884-2.158 2.825-6.199 4.904-4.041 2.079-8.906 2.079-5.846 0-9.553-3.551-3.708-3.551-3.708-8.886 0-5.846 3.649-9.063 3.649-3.217 9.573-3.963zm-979.423-32.954h39.979v7.062H496.63v17.498h28.287v6.866H496.63v26.208h-7.807zm47.394 15.811h7.18v41.823h-7.18zm0-15.811h7.18v8.004h-7.18zm22.049 44.451q.314 3.531 1.766 5.414 2.668 3.413 9.259 3.413 3.923 0 6.905-1.707 2.982-1.707 2.982-5.277 0-2.707-2.393-4.119-1.53-.863-6.042-2.001l-5.61-1.412q-5.375-1.334-7.925-2.982-4.551-2.864-4.551-7.925 0-5.963 4.296-9.651 4.296-3.688 11.554-3.688 9.494 0 13.692 5.571 2.629 3.531 2.55 7.611h-6.67q-.196-2.393-1.687-4.355-2.432-2.786-8.435-2.786-4.002 0-6.062 1.53-2.06 1.53-2.06 4.041 0 2.746 2.707 4.394 1.569.981 4.63 1.726l4.669 1.138q7.611 1.844 10.201 3.57 4.119 2.707 4.119 8.514 0 5.61-4.257 9.691-4.257 4.08-12.967 4.08-9.377 0-13.28-4.257-3.904-4.257-4.178-10.534zm35.977-28.64h7.18v41.823h-7.18zm0-15.811h7.18v8.004h-7.18zm34.525 53.083q7.023 0 9.632-5.316 2.609-5.316 2.609-11.829 0-5.885-1.883-9.573-2.982-5.807-10.279-5.807-6.473 0-9.416 4.943-2.942 4.943-2.942 11.927 0 6.709 2.942 11.181 2.942 4.473 9.338 4.473zm.275-38.684q8.121 0 13.732 5.414 5.61 5.414 5.61 15.929 0 10.161-4.943 16.792-4.943 6.63-15.34 6.63-8.671 0-13.771-5.865-5.1-5.865-5.1-15.752 0-10.593 5.375-16.87 5.375-6.277 14.438-6.277zm29.15-10.515h7.14v11.731h6.709v5.767h-6.709v27.424q0 2.197 1.491 2.942.824.432 2.746.432.51 0 1.099-.02.588-.02 1.373-.098v5.571q-1.216.353-2.531.51-1.314.157-2.844.157-4.943 0-6.709-2.531-1.765-2.531-1.765-6.572v-27.816h-5.689v-5.767h5.689zm38.409 10.789q4.473 0 8.671 2.099 4.198 2.099 6.395 5.434 2.119 3.178 2.825 7.415.628 2.903.628 9.259h-30.798q.196 6.395 3.021 10.26 2.825 3.864 8.749 3.864 5.532 0 8.827-3.649 1.883-2.119 2.668-4.904h6.944q-.275 2.315-1.824 5.159-1.55 2.844-3.472 4.649-3.217 3.139-7.964 4.237-2.55.628-5.767.628-7.847 0-13.3-5.708-5.453-5.708-5.453-15.988 0-10.122 5.493-16.439 5.493-6.317 14.359-6.317zm11.26 18.597q-.432-4.59-2.001-7.337-2.903-5.1-9.691-5.1-4.865 0-8.161 3.511-3.296 3.511-3.492 8.926zm16.125-17.655h6.709v7.258q.824-2.119 4.041-5.159 3.217-3.041 7.415-3.041.196 0 .667.039.471.039 1.609.157v7.454q-.628-.118-1.157-.157-.53-.039-1.157-.039-5.336 0-8.2 3.433-2.864 3.433-2.864 7.906v24.168h-7.062zm31.975 30.837q0 3.06 2.236 4.826 2.236 1.765 5.297 1.765 3.727 0 7.219-1.726 5.885-2.864 5.885-9.377v-5.689q-1.295.824-3.335 1.373-2.04.549-4.002.785l-4.276.549q-3.845.51-5.767 1.609-3.256 1.844-3.256 5.885zm17.106-14.281q2.432-.314 3.256-2.04.471-.942.471-2.707 0-3.609-2.57-5.238-2.57-1.628-7.356-1.628-5.532 0-7.847 2.982-1.295 1.648-1.687 4.904h-6.591q.196-7.768 5.041-10.809 4.845-3.041 11.24-3.041 7.415 0 12.045 2.825 4.59 2.825 4.59 8.788v24.207q0 1.099.451 1.765.451.667 1.903.667.471 0 1.059-.059.588-.059 1.255-.177v5.218q-1.648.471-2.511.588-.863.118-2.354.118-3.649 0-5.296-2.589-.863-1.373-1.216-3.884-2.158 2.825-6.199 4.904-4.041 2.079-8.906 2.079-5.846 0-9.553-3.551-3.708-3.551-3.708-8.886 0-5.846 3.649-9.063 3.649-3.217 9.573-3.963zm39.9 20.715q4.943 0 8.219-4.139 3.276-4.139 3.276-12.378 0-5.022-1.452-8.631-2.746-6.944-10.044-6.944-7.337 0-10.044 7.337-1.452 3.923-1.452 9.965 0 4.865 1.452 8.278 2.746 6.513 10.044 6.513zm-18.283-37.075h6.866v5.571q2.119-2.864 4.63-4.433 3.57-2.354 8.396-2.354 7.14 0 12.123 5.473 4.983 5.473 4.983 15.634 0 13.732-7.18 19.617-4.551 3.727-10.593 3.727-4.747 0-7.964-2.079-1.883-1.177-4.198-4.041v21.461h-7.062zm45.236 0h7.18v41.823h-7.18zm0-15.811h7.18v8.004h-7.18zm23.265 46.452q0 3.06 2.236 4.826 2.236 1.765 5.296 1.765 3.727 0 7.219-1.726 5.885-2.864 5.885-9.377v-5.689q-1.295.824-3.335 1.373-2.04.549-4.002.785l-4.276.549q-3.845.51-5.767 1.609-3.256 1.844-3.256 5.885zm17.106-14.281q2.432-.314 3.256-2.04.471-.942.471-2.707 0-3.609-2.57-5.238-2.57-1.628-7.356-1.628-5.532 0-7.847 2.982-1.295 1.648-1.687 4.904h-6.591q.196-7.768 5.041-10.809 4.845-3.041 11.24-3.041 7.415 0 12.045 2.825 4.59 2.825 4.59 8.788v24.207q0 1.099.451 1.765.451.667 1.903.667.471 0 1.059-.059.588-.059 1.255-.177v5.218q-1.648.471-2.511.588-.863.118-2.354.118-3.649 0-5.296-2.589-.863-1.373-1.216-3.884-2.158 2.825-6.199 4.904-4.041 2.079-8.906 2.079-5.846 0-9.553-3.551-3.708-3.551-3.708-8.886 0-5.846 3.649-9.063 3.649-3.217 9.573-3.963z"/><path d="M651.695 398.05l4.21-.159 4.138-.318 4.065-.476 3.993-.635 3.92-.794 3.847-.952 3.774-1.112 1.86-.615 2.421-.864 4.671-1.906 4.441-2.141 4.213-2.377 3.983-2.613 3.754-2.849 3.525-3.085 3.296-3.321 1.562-1.749 1.493-1.803 2.743-3.752 2.418-3.947 2.094-4.142 1.77-4.337 1.445-4.532 1.121-4.727.796-4.922.276-2.534.127-1.588.145-3.121.02-1.533-.024-1.785-.195-3.498-.39-3.403-.585-3.307-.78-3.212-.975-3.117-1.17-3.021-1.366-2.927-.756-1.427-.969-1.677-2.087-3.287-2.287-3.198-2.486-3.11-2.686-3.021-2.885-2.933-3.085-2.845-3.285-2.756-1.717-1.345-1.757-1.329-3.606-2.634-3.73-2.599-3.852-2.566-3.974-2.531-4.097-2.498-4.219-2.464-4.342-2.429-2.216-1.202-8.13-4.355-1.306-.726-2.789-1.443-5.326-2.831-4.991-2.759-4.655-2.686-2.202-1.315-2.092-1.311-3.784-2.649-3.248-2.686-2.713-2.722-1.156-1.374-1.021-1.397-1.633-2.904-1.089-3.049-.544-3.194-.068-1.651.034-1.125.108-1.053.184-1.522.599-2.919.907-2.754 1.216-2.589 1.524-2.423 1.833-2.257 2.141-2.091 2.45-1.926 1.341-.901 1.386-.852 2.813-1.54 2.867-1.32 2.922-1.1 2.976-.88 3.031-.66 3.085-.44 3.139-.22 1.59-.028 1.243.018 2.541.146 1.298.127 1.587.169 3.117.481 3.039.672 2.963.862 2.886 1.053 2.808 1.243 2.731 1.433 2.654 1.624 1.298.884 1.218.926 2.341 1.96 2.214 2.105 2.087 2.251.995 1.18 21.777-29.326-1.033-1.116-2.159-2.178-2.287-2.105-2.413-2.032-1.255-.989-2.119-1.538-4.432-2.831-4.691-2.504-4.95-2.178-5.208-1.851-5.467-1.524-5.725-1.198-5.984-.871-3.089-.313-2.304-.191-4.501-.217-2.196-.027-1.97.021-3.893.163-3.829.327-3.765.49-3.702.653-3.639.817-3.575.98-3.512 1.143-1.732.632-2.206.862-4.26 1.887-4.056 2.105-3.852 2.323-3.647 2.541-3.443 2.759-3.239 2.976-3.035 3.194-1.441 1.679-1.378 1.727-2.532 3.58-2.232 3.747-1.933 3.915-1.633 4.083-1.334 4.251-1.034 4.419-.735 4.587-.255 2.356-.127 1.443-.145 2.831-.02 1.389.054 2.507.436 4.809.871 4.537 1.307 4.264.817 2.03.54 1.279 1.161 2.502 1.27 2.427 1.379 2.352 1.488 2.277 1.597 2.203 1.706 2.128 1.814 2.053.948.998 1.955 1.951 4.092 3.738 4.337 3.52 4.582 3.303 2.383 1.57 2.419 1.528 4.872 2.967 4.918 2.849 4.963 2.731 2.499 1.321 2.323 1.452 4.355 2.35 8.71 4.864 4.355 2.513 2.403 1.426 4.637 2.912 4.41 2.994 4.183 3.076 2.006 1.569 1.921 1.581 3.502 3.176 3.049 3.194 2.595 3.212 1.127 1.613 1.004 1.623 1.606 3.294 1.071 3.357.535 3.42.067 1.734-.034 1.053-.109 1.125-.19 1.625-.649 3.096-1.007 2.89-1.366 2.684-1.724 2.477-2.083 2.271-2.441 2.065-2.799 1.858-1.534.851-1.588.8-3.23 1.445-3.303 1.239-3.375 1.032-3.448.826-3.52.619-3.593.413-3.666.207-1.86.025-1.76-.018-3.629-.145-1.869-.127-2.09-.227-4.092-.617-3.974-.835-3.857-1.053-3.738-1.27-3.621-1.488-3.502-1.706-3.384-1.924-1.648-1.043-1.89-1.3-3.575-2.777-3.303-3.013-3.031-3.248-1.413-1.713-22.648 30.342 1.481 1.615 3.14 3.121 3.375 2.976 3.611 2.831 1.894 1.361 1.243.869 2.538 1.669 2.609 1.579 2.679 1.488 2.749 1.397 2.82 1.307 2.89 1.216 2.96 1.125 3.031 1.034 3.101.944 3.171.853 3.241.762 3.312.672 3.382.581 3.453.49 3.523.399 1.788.166 2.886.254 5.662.29 2.777.036zm335.621-17.516l4.879-3.314 4.764-3.59 4.649-3.867 4.534-4.142 2.224-2.175 2.175-2.224 4.142-4.533 3.867-4.649 3.59-4.764 3.314-4.879 3.038-4.994 2.762-5.11 2.486-5.225 2.209-5.34 1.934-5.455 1.657-5.57 1.381-5.685 1.104-5.8.829-5.916.552-6.03.276-6.146.034-3.116-.034-3.116-.276-6.146-.552-6.03-.829-5.916-1.104-5.8-1.381-5.685-1.657-5.57-1.934-5.455-2.209-5.34-2.486-5.225-2.762-5.11-3.038-4.994-3.314-4.879-3.59-4.764-3.867-4.649-4.142-4.533-2.175-2.224-2.224-2.175-4.534-4.142-4.649-3.867-4.764-3.59-4.879-3.314-4.995-3.038-5.11-2.762-5.225-2.486-5.34-2.209-5.455-1.933-5.57-1.657-5.685-1.381-2.137-.407 7.198 40.89 1.909.789 3.618 1.72 3.538 1.911 3.457 2.102 3.377 2.293 3.298 2.485 3.218 2.676 3.138 2.867 1.539 1.505 1.505 1.539 2.866 3.138 2.676 3.218 2.485 3.298 2.293 3.377 2.102 3.458 1.911 3.538 1.72 3.617 1.529 3.698 1.338 3.777 1.147 3.857.955 3.938.765 4.017.573 4.097.382 4.177.191 4.257.024 2.158-.024 2.159-.191 4.257-.382 4.177-.573 4.097-.765 4.017-.955 3.938-1.147 3.857-1.338 3.777-1.529 3.698-1.72 3.617-1.911 3.538-2.102 3.458-2.293 3.377-2.485 3.298-2.676 3.218-2.866 3.138-1.505 1.539-1.539 1.505-1.058.967 7.259 41.237zM37.355 203.678h46.456l2.391.053 4.648.424 4.469.848 4.289 1.273 4.11 1.697 3.931 2.121 3.752 2.545 3.573 2.97 1.719 1.644 1.644 1.719 2.969 3.573 2.545 3.752 2.121 3.931 1.697 4.11 1.272 4.29.848 4.468.424 4.648.053 2.391-.053 2.391-.424 4.648-.848 4.469-1.272 4.289-1.697 4.11-2.121 3.931-2.545 3.752-2.969 3.572-1.644 1.719-1.719 1.644-3.573 2.969-3.752 2.545-3.931 2.121-4.11 1.697-4.289 1.272-4.469.848-4.648.424-2.391.053H65.228v37.165h18.583l2.159-.024 4.257-.191 4.177-.382 4.097-.573 4.017-.764 3.937-.955 3.857-1.147 3.777-1.338 3.698-1.529 3.617-1.72 3.538-1.911 3.457-2.102 3.378-2.294 3.298-2.484 3.218-2.676 3.138-2.867 1.539-1.505 1.505-1.539 2.866-3.138 2.676-3.218 2.484-3.298 2.294-3.378 2.102-3.457 1.911-3.538 1.72-3.617 1.529-3.698 1.338-3.777 1.147-3.857.955-3.937.764-4.017.573-4.097.382-4.177.191-4.257.024-2.159-.024-2.158-.191-4.257-.382-4.177-.573-4.097-.764-4.017-.955-3.938-1.147-3.857-1.338-3.777-1.529-3.697-1.72-3.618-1.911-3.538-2.102-3.457-2.294-3.377-2.484-3.298-2.676-3.218-2.866-3.138-1.505-1.539-1.539-1.505-3.138-2.866-3.218-2.676-3.298-2.485-3.378-2.293-3.457-2.102-3.538-1.911-3.617-1.72-3.698-1.529-3.777-1.338-3.857-1.147-3.937-.955-4.017-.765-4.097-.573-4.177-.382-4.257-.191-2.159-.024H.19v222.99h37.165zm185.826 92.913h92.913v92.913h37.165v-222.99h-37.165v92.913H223.18v-92.913h-37.165v222.99h37.165zm260.156-14.373l2.323-4.21 72.007-111.495h-41.811l-51.102 79.121-51.102-79.121H371.84l72.008 111.495 2.323 5.662v105.833h37.165zM783.56 166.514h-37.165v222.99h37.165zm85.258 175.336l-.372-.31-3.138-2.867-1.539-1.505-1.505-1.539-2.867-3.138-2.676-3.218-2.484-3.298-2.294-3.377-2.102-3.458-1.911-3.538-1.72-3.617-1.529-3.698-1.338-3.777-1.147-3.857-.955-3.938-.764-4.017-.573-4.097-.382-4.177-.191-4.257-.024-2.159.024-2.158.191-4.257.382-4.177.573-4.097.764-4.017.955-3.938 1.147-3.857 1.338-3.777 1.529-3.698 1.72-3.617 1.911-3.538.385-.633-8.409-47.766-2.102 1.92-2.224 2.175-2.175 2.224-4.143 4.533-3.867 4.649-3.59 4.764-3.314 4.879-3.038 4.994-2.761 5.11-2.486 5.225-2.21 5.34-1.933 5.455-1.657 5.57-1.381 5.685-1.105 5.8-.828 5.916-.552 6.03-.276 6.146-.034 3.116.034 3.116.276 6.146.552 6.03.828 5.916 1.105 5.8 1.381 5.685 1.657 5.57 1.933 5.455 2.21 5.34 2.486 5.225 2.761 5.11 3.038 4.994 3.314 4.879 3.59 4.764 3.867 4.649 4.143 4.533 2.175 2.224 2.224 2.175 4.534 4.142 4.649 3.867 4.764 3.59 4.879 3.314 4.995 3.038 5.109 2.762 5.225 2.486 3.468 1.435z"/></g><g fill="#0077c8"><path d="M1132.336 175.805h37.165V361.63h92.913v37.165h-130.078zm260.156 69.685l-69.685 153.306h-41.811l111.495-241.573 111.495 241.573h-41.811zm195.117 23.228q11.614 0 19.744-8.13 8.13-8.13 8.13-19.744 0-11.614-8.13-19.744-8.13-8.13-19.744-8.13h-27.874v148.66h65.039q11.614 0 19.744-8.13 8.13-8.13 8.13-19.744 0-11.614-8.13-19.744-8.13-8.13-19.744-8.13h-37.165zm-65.039-92.913h65.039q27.003 0 46.021 19.018 19.018 19.018 19.018 46.021 0 16.986-7.549 30.923 14.227 4.5 25.696 15.969 19.018 19.018 19.018 46.021 0 27.003-19.018 46.021-19.018 19.018-46.021 19.018h-102.204z"/><path d="M1042.409 500.841c-8.686-12.636-12.355-13.84-35.263-11.575-9.586.948-18.739 1.503-20.338 1.234-8.6-1.449-16.948-6.7-26.231-16.503-5.399-5.701-12.229-8.867-16.648-7.718-3.848 1.001-9.942-.08-13.651-2.42-4.312-2.721-21.499-23.231-28.827-34.401-8.055-12.278-16.194-27.935-21.806-41.951-6.249-15.605-12.829-40.304-15.079-56.598-2.338-16.932-2.592-25.455-2.026-67.884.639-47.86.309-51.92-6.26-77.152-6.36-24.429-7.084-26.019-32.671-71.785-17.923-32.058-19.781-35.705-21.336-41.891-3.515-13.984-1.245-21.653 10.33-34.899 7.027-8.041 8.674-9.433 12.269-10.367 2.284-.593 5.935-.65 8.113-.126l3.961.953 6.526-11.662c5.375-9.606 7.207-12.067 10.387-13.96 8.136-4.842 16.771-1.39 24.372 9.744 5.964 8.736 8.014 16.231 6.943 25.383-.921 7.87-3.19 11.713-11.68 19.789-3.768 3.584-7.036 6.919-7.262 7.412-.628 1.365 10.44 17.262 11.776 16.914.625-.163 2.651-1.687 4.503-3.387 8.869-8.143 14.675-8.994 22.141-3.243 4.839 3.727 8.386 9.866 10.584 18.317 2.303 8.854 2.287 14.58-.057 20.898-1.911 5.151-2.783 6.218-8.038 9.843-6.676 4.604-6.556 3.594-1.838 15.446l2.804 7.045 8.67-1.636c12.2-2.302 16.976-.133 24.786 11.261 8.966 13.08 8.391 30.437-1.24 37.441-1.928 1.402-6.313 4.125-9.746 6.051s-6.375 3.842-6.54 4.258.039 2.791.455 5.279l.754 4.524 4.26-1.108c9.337-2.428 16.052.921 23.419 11.68 6.693 9.775 8.3 22.217 3.991 30.906-2.319 4.677-4.257 6.126-16.799 12.563l-10.011 5.138.239 4.979.239 4.979 6.194-.959c7.425-1.149 12.708.261 17.348 4.631 3.533 3.328 7.886 11.098 9.331 16.655 1.386 5.328 1.415 13.787.064 18.487-1.712 5.956-5.074 9.423-14.273 14.719-8.768 5.048-8.447 3.978-4.521 15.071l1.829 5.168 7.877-5.246c8.327-5.546 11.584-6.423 16.697-4.497 9.029 3.401 15.72 15.013 16.378 28.425.22 4.476-.305 7.469-2.118 12.087-1.326 3.376-2.319 6.488-2.208 6.915s2.233 2.975 4.715 5.663c4.5 4.872 4.519 4.881 6.519 2.917 8.066-7.918 21.416-5.932 30.309 4.508 2.202 2.585 6.566 6.243 9.698 8.128 9.857 5.935 16.739 14.617 21.878 27.604 4.846 12.245 5.662 28.01 2.063 39.851-1.201 3.95-8.071 16.327-12.073 21.749-.464.628-1.824-.649-3.884-3.645zm5.721-34.244c.493-5.527.268-8.134-1.181-13.682-3.013-11.536-9.171-19.534-18.988-24.659-3.688-1.925-6.296-4.1-8.292-6.912-5.855-8.25-13.66-9.515-18.411-2.984-3.779 5.195-8.929 20.044-8.081 23.302.862 3.313 2.332 3.91 9.29 3.773 15.369-.302 32.281 12.004 42.107 30.638.935 1.773 1.009 1.758 1.959-.403.543-1.235 1.262-5.318 1.597-9.073zm-26.079 1.711c-5.164-4.408-11.514-6.54-19.527-6.556-7.885-.015-11.882-1.778-15.816-6.974-6.899-9.112-7.822-16.834-3.446-28.822l3.008-8.24-2.892-3.587c-6.185-7.67-18.428-14.403-23.697-13.032-.738.192-6.5 11.292-12.802 24.666l-11.46 24.317 5.876-.237c10.529-.425 17.217 2.76 26.566 12.651 6.305 6.67 12.743 10.872 17.876 11.667 1.594.247 10.718-.32 20.277-1.261s17.601-1.525 17.871-1.3.839.32 1.263.21-.97-1.687-3.098-3.503zm-85.525-53.345c10.06-21.245 12.435-27.825 9.148-25.347l-36.112 27.903c-.688 1.457 14.384 22.138 15.449 21.199.252-.222 5.433-10.911 11.515-23.755zm37.144-34.283c1.791-5.456 1.887-6.774.802-10.95-1.442-5.543-3.781-8.157-6.613-7.388-2.135.58-14.362 8.707-14.795 9.834-.564 1.468 4.631 11.928 5.992 12.067.741.075 3.474.749 6.072 1.496s5.125 1.311 5.615 1.251 1.808-2.899 2.928-6.311zm-54.045 8.581l19.102-14.527c1.069-.823.996-1.655-.521-5.958-.97-2.751-2.017-5.321-2.327-5.712-.39-.492-40.134 15.418-45.656 18.276-.88.456 9.689 21.973 10.668 21.719.481-.125 8.911-6.334 18.734-13.798zm-10.095-33.984l21.144-8.827-2.299-8.841-2.298-8.838-24.003 6.238-24.003 6.237 3.111 11.963 3.111 11.963 2.046-.535c1.125-.295 11.561-4.506 23.191-9.36zm35.914-35.889c6.834-4.215 7.878-6.542 6.064-13.517-.913-3.511-1.795-5.11-3.69-6.692-2.252-1.879-3.095-1.921-8.785-.442l-6.294 1.637.608 4.007c.334 2.204 1.275 7.457 2.091 11.673 1.739 8.989 1.155 8.795 10.008 3.333zm-24.337-16.751c-.817-5.094-1.583-9.323-1.703-9.398-.456-.286-44.919 4.423-45.036 4.769-.263.78.493 18.254.954 22.045l.488 4.011 23.391-6.083 23.391-6.083zm-3.557-36.772c-.319-5.798-.745-10.68-.947-10.848-.815-.68-41.315 3.801-41.575 4.6-.552 1.698-.385 20.394.186 20.87.598.499 35.379-2.558 40.222-3.535l2.694-.544zm20.192-15.63c4.841-2.586 8.306-5.069 8.874-6.36 1.629-3.701-.793-9.817-5.633-14.226-1.857-1.691-2.872-1.752-7.812-.467l-5.678 1.477.821 10.615.914 11.979c.051.75.201 1.333.332 1.295s3.813-1.979 8.181-4.312zm-22.798-22.977l-1.221-10.789-19.421 5.077-19.421 5.077.163 7.379c.089 4.059.36 7.543.6 7.744.391.326 34.949-2.706 38.919-3.415 1.435-.256 1.475-1.407.38-11.074zm-6.818-39.32c-2.2-8.459-3.219-11.381-3.907-11.204-.91.233-32.593 18.523-32.763 18.913-.049.108.438 3.182 1.077 6.829l1.163 6.632 18.702-4.864 18.702-4.864zm26.479-11.229c2.306-3.931.611-9.727-4.229-14.463-2.713-2.655-2.874-2.67-9.61-.918l-6.851 1.782 3.24 11.652 3.287 11.743c.383.744 13.166-8.097 14.162-9.796zm-50.446-7.521c8.479-4.951 15.52-9.27 15.646-9.598.233-.607-6.123-18.424-7.305-20.477-.435-.756-5.578 2.941-15.686 11.275-13.626 11.234-14.95 12.584-14.098 14.375.517 1.087 1.645 4.667 2.506 7.956 1.109 4.235 1.851 5.905 2.543 5.725.537-.14 7.915-4.305 16.394-9.255zm-13.4-34.401c7.517-6.165 13.678-11.803 13.691-12.529.024-1.375-7.56-16.725-9.309-18.841-.775-.937-3.925 2.215-13.876 13.887-7.081 8.305-12.802 15.376-12.714 15.713.733 2.82 7.228 14.158 7.81 13.635.401-.361 6.881-5.7 14.398-11.866zm28.414-25.134c5.767-3.948 6.252-5.428 4.272-13.041-1.79-6.884-3.901-9.729-6.681-9.006-1.778.463-9.806 6.816-10.45 8.27-.337.76 5.58 13.68 7.386 16.127.683.927.694.922 5.473-2.35zm-45.633-6.369c6.694-7.852 12.013-14.884 11.82-15.627s-2.682-4.85-5.53-9.128l-5.179-7.777-12.194 14.303c-7.485 8.779-12.041 14.888-11.799 15.819.217.834 1.817 4.039 3.555 7.122l4.389 7.785c.676 1.199 1.575 2.089 1.998 1.979s6.247-6.625 12.941-14.477zm-7.909-45.182c.094-.216-1.951-3.403-4.544-7.082-7.723-10.956-10.881-11.035-20.062-.499-9.314 10.689-10.046 16.25-3.609 27.415l3.615 6.339c.828 1.497 2.448-.039 12.69-12.032l11.91-14.141zm18.556-13.894c4.112-3.942 7.955-8.418 8.542-9.945 1.884-4.906-1.761-14.025-6.747-16.883-4.23-2.424-6.364-.643-12.488 10.424-3.168 5.724-5.704 10.622-5.635 10.885.181.695 8.398 12.806 8.645 12.742.115-.029 3.573-3.28 7.684-7.222z"/></g></svg>