<svg xmlns="http://www.w3.org/2000/svg" viewBox="0 0 1440 1440" class="svg-src"><defs><linearGradient id="a" x1="0" x2="1" y1="0" y2="0" gradientTransform="matrix(0 1138.287 -1138.287 0 720 150.856)" gradientUnits="userSpaceOnUse" spreadMethod="pad"><stop offset="0" stop-color="#166c8d"/><stop offset="1" stop-color="#011a36"/></linearGradient></defs><g fill="url(#a)"><path d="M627.958 1347.96c0 50.833 41.21 92.04 92.043 92.04 50.831 0 92.042-41.207 92.042-92.04 0-50.834-41.21-92.042-92.042-92.042-50.834 0-92.043 41.208-92.043 92.041M888.238 1328.828c0 14.842 12.032 26.873 26.874 26.873 14.843 0 26.875-12.031 26.875-26.873 0-14.843-12.032-26.875-26.875-26.875-14.842 0-26.874 12.032-26.874 26.875M498.014 1328.828c0 14.842 12.032 26.873 26.875 26.873 14.842 0 26.874-12.031 26.874-26.873 0-14.843-12.032-26.875-26.874-26.875-14.843 0-26.875 12.032-26.875 26.875M995.055 1309.697c0 11.57 9.378 20.948 20.948 20.948s20.95-9.379 20.95-20.948c0-11.571-9.38-20.95-20.95-20.95-11.57 0-20.948 9.379-20.948 20.95M403.049 1309.697c0 11.57 9.378 20.948 20.948 20.948 11.569 0 20.949-9.379 20.949-20.948 0-11.571-9.38-20.95-20.95-20.95-11.569 0-20.947 9.379-20.947 20.95M405.248 834.916c-93.292.027-144.761 109.238-85.62 181.16 16.938 20.577 40.674 34.646 67.87 39.054.072.01 647.288.905 647.288.905 1.554 0 3.067.16 4.548.41.062 0 .125 0 .185-.01 12.722 2.07 22.694 13.931 22.508 26.825v6.291c.103 10.779-6.782 21.075-16.75 25.15H1045.224a27.162 27.162 0 0 1-10.44 2.086s-643.96-1.332-647.385-1.737c-41.416-4.721-76.26-32.494-90.782-70.643-3.178 12.8-1.874 28.74-2.176 42 0 30.6 12.398 58.296 32.453 78.368 20.057 20.04 47.752 32.455 78.351 32.455h629.505c93.292-.029 144.76-109.237 85.62-181.16-16.938-20.577-40.674-34.646-67.87-39.053-.071-.012-647.288-.906-647.288-.906-1.554 0-3.067-.162-4.55-.41-.06.004-.123.004-.183.006-11.828-1.952-21.468-12.367-22.384-24.336-.246-1.77-.074-6.938-.126-8.777-.103-10.78 6.784-21.075 16.751-25.15h.017c.01-.002.022-.002.034-.005a27.163 27.163 0 0 1 10.44-2.088s643.96 1.333 647.384 1.737c41.417 4.72 76.262 32.494 90.783 70.641 3.178-12.799 1.874-28.74 2.176-42 0-30.597-12.398-58.294-32.453-78.368-20.057-20.038-47.752-32.453-78.351-32.453zM405.262 557.11c-61.204 0-110.818 49.615-110.818 110.817 0 61.203 49.614 110.817 110.818 110.817h629.477c61.204 0 110.818-49.614 110.818-110.817 0-61.202-49.614-110.816-110.818-110.816zm-27.29 113.962v-6.291c0-15.042 12.197-27.238 27.24-27.238h629.578c15.044 0 27.24 12.196 27.24 27.238v6.291c0 15.043-12.196 27.24-27.24 27.24H405.21c-15.042 0-27.239-12.197-27.239-27.24M960.03 422.286c0 40.667 32.966 73.633 73.631 73.633 40.666 0 73.634-32.966 73.634-73.633 0-40.664-32.968-73.63-73.634-73.63-40.665 0-73.631 32.966-73.631 73.63M332.706 422.286c0 40.667 32.968 73.633 73.634 73.633s73.631-32.966 73.631-73.633c0-40.664-32.965-73.63-73.631-73.63s-73.634 32.966-73.634 73.63M472.04 247.959c0 136.945 111.015 247.96 247.96 247.96 136.946 0 247.96-111.015 247.96-247.96C967.96 111.015 856.947 0 720 0 583.056 0 472.04 111.015 472.04 247.959m74.53 0C546.57 152.177 624.22 74.53 720 74.53c95.783 0 173.43 77.646 173.43 173.428S815.783 421.389 720 421.389c-95.781 0-173.43-77.648-173.43-173.43"/><path d="M646.367 247.959c0 40.665 32.968 73.631 73.634 73.631 40.665 0 73.633-32.966 73.633-73.631S760.666 174.327 720 174.327c-40.666 0-73.634 32.967-73.634 73.632"/></g></svg>