<svg xmlns="http://www.w3.org/2000/svg" width="1024" height="1024" viewBox="0 0 1024 1024"><g fill="#1d1d1b"><path d="m44.3 852.6.4.2.3.1c3.2 1 6.4 1.5 9.6 1.6a13.3 13.3 0 0 0 12-8.2c.9-1.9 1.3-4.2 1.3-6.9V829c0-1.6-.6-3.1-1.8-4.4a18 18 0 0 0-5.1-3.5c-2.2-1-4.7-2-7.5-3l-9.2-2.6zM32 748.7a13.3 13.3 0 0 0-8.5 3.5 14.8 14.8 0 0 0-4.9 11.5v14.5c0 2.3.7 4.4 2 6.1 1.2 1.8 2.9 3.4 5 4.8a38 38 0 0 0 7.5 3.8c2.9 1.1 6 2.1 9.2 3v-45.5H42l-.3-.1a35.5 35.5 0 0 0-9.7-1.6M39.9 865l-1.5.2H37a36.3 36.3 0 0 1-23.7-8.7c-3.1-2.7-5.8-6-8-9.8-2.2-3.8-3.8-8-4.8-12.5a15 15 0 0 1 4.4-14.8 21 21 0 0 1 7.3-4.2c3-1 6.2-1.6 9.7-1.6a6 6 0 0 0-3 4.4c-.2 1.8-.2 3.4 0 4.8a46 46 0 0 0 7.8 17.5 34 34 0 0 0 15.2 11.6l.4.1v-36.8l-14.7-4a85 85 0 0 1-13.6-5c-4-1.8-7.4-4-10-6.7-2.7-2.6-4-5.9-4-9.7v-22.5h.2c.2-.7 1-1.8 2.4-3.2a179.2 179.2 0 0 1 19.5-14.8 1541.7 1541.7 0 0 1 10-6.5 22 22 0 0 0 2-1.1l1.3-.6a17.6 17.6 0 0 1 4.1-1.5l2.8-.7v-.1a14.1 14.1 0 0 1 2-.3 36.2 36.2 0 0 1 29 8.3 45.9 45.9 0 0 1 12.9 22.4 15 15 0 0 1-4.4 14.8c-2 1.8-4.4 3.2-7.3 4.2-3 1-6.2 1.6-9.8 1.6a6 6 0 0 0 3-4.4c.2-1.8.2-3.4 0-4.8A44.5 44.5 0 0 0 60 763c-3.8-5.1-8.9-9-15.3-11.5l-.4-.2v45.1l14.7 3.6c5 1.1 9.6 2.4 13.7 3.7a38 38 0 0 1 10 4.7c2.6 1.9 3.9 4.1 3.9 6.8v20.8l-.2.1c-.2.8-1 1.8-2.4 3.2A180.6 180.6 0 0 1 64.5 854a1533 1533 0 0 1-10 6.5l-1 .5-1 .5-1.3.6-1.3.6a23.5 23.5 0 0 1-5.6 1.7v5c1 .2 1.7.7 2.3 1.4.6.8.9 1.6.9 2.6a5 5 0 0 1-.7 2.1 29.6 29.6 0 0 1-3.5 5.4c-.8-1-1.4-2-2-3-.6-.7-1-1.5-1.5-2.4a5 5 0 0 1-.7-2.1c0-1 .3-1.8.9-2.6.6-.7 1.3-1.2 2.3-1.4v-4.7a30.9 30.9 0 0 1-2.4.2"/><path d="M109 827a13 13 0 0 0 4.4 10.2c3 2.6 6.5 4 10.6 4h1.3c.5 0 1 0 1.4-.2v-39.7l-17.8 6.5zm17.7-35.1c0-4.2-1.5-7.7-4.4-10.4-3-2.6-6.5-4-10.6-4h-1.4c-.4 0-.9 0-1.4.2h-.1v11.9c0 1.7.1 3 .3 4.1.3 1 .5 1.9.8 2.5.3.6.7 1.1 1 1.4-4.5 0-8-.2-10.7-.4-2.7-.3-4.7-.8-6.2-1.3-1.4-.6-2.4-1.3-2.8-2.1-.5-.8-.8-1.7-.8-2.8v-9a8510.7 8510.7 0 0 1 37-11.8h1l.9-.1c1.8 0 3.6.4 5.4 1.1a18.7 18.7 0 0 1 8.3 7.3c1 1.7 1.6 3.4 1.9 5.2l.3 3V827c0 2 .2 4 .6 6 .3 2 1 3.8 1.9 5.5.9 1.7 2.1 3 3.6 4 1.6 1 3.5 1.5 6 1.5l-4.7 1.4-5.1 1.5a78.6 78.6 0 0 1-6.5 1.6l-1.8.1c-1 0-2-.2-3.1-.5a19.1 19.1 0 0 1-8.7-5.5 1105.7 1105.7 0 0 0-17.9 5.7l-1.3.2a3 3 0 0 1-1 .1h-.8c-1.9 0-3.7-.3-5.4-1A17.1 17.1 0 0 1 90.6 835c-.2-1-.3-2-.2-3v-21.2l36.3-12.3z"/><path d="M183.6 774.8a70 70 0 0 1 9.6-2.9 78.7 78.7 0 0 1 6.4-1.5l2-.2h.6c2.3.5 4.2 1.4 5.8 2.7 1.5 1.4 2.7 3 3.6 4.7 1 1.8 1.5 3.7 1.9 5.9.3 2.1.5 4.2.5 6.2v44c0 2.8.9 5 2.6 6.8 1.8 1.8 4 2.8 6.8 3l-4.5 1.4-5 1.6a160.6 160.6 0 0 1-7.7 2.1h-1.4c-1.3 0-2.6-.2-3.9-.5a6 6 0 0 1-3.1-2c-1.3-1.3-2-3-2.2-5a54.5 54.5 0 0 1-10 4.6 1109 1109 0 0 1-5.9 2.2l-1.3.4a77.6 77.6 0 0 1-2.5.4h-1c-1 0-2.3-.1-4-.5-1.8-.4-3.5-1.3-5.2-2.7a16.8 16.8 0 0 1-4.5-6c-1.2-2.5-1.8-6-1.8-10.4v-37.7c0-1.9-.2-3.8-.7-5.8-.4-2-1-3.8-2-5.4-.9-1.6-2.1-2.9-3.6-3.9-1.6-1-3.5-1.5-5.8-1.5a70 70 0 0 1 9.7-2.9 112.5 112.5 0 0 1 6.5-1.5l1.8-.2h.7c2 .4 3.8 1.2 5.3 2.3 1.4 1.2 2.6 2.5 3.5 4.1a27.3 27.3 0 0 1 3 10.7V827c0 2.6.3 4.8 1 6.6a9.8 9.8 0 0 0 6.3 6.2c1.3.4 2.6.6 4 .6a17.5 17.5 0 0 0 6.5-1.2v-47.3c0-2-.2-4-.5-6-.4-2-1-3.9-2-5.6a11 11 0 0 0-3.6-4c-1.6-1-3.5-1.5-6-1.5"/><path d="M263.4 791.6c0-4.2-1.5-7.7-4.4-10.3-3-2.7-6.5-4-10.6-4h-2.8V827c0 4.2 1.5 7.6 4.5 10.3 3 2.7 6.5 4 10.6 4h1.4l1.3-.1zm-2-21 1-.3a5 5 0 0 0 1-.2v-19.2c-.1-1-.4-2-.8-2.9a8.9 8.9 0 0 0-3.6-3.5c-1.6-1-3.3-1.6-4.9-1.6a690 690 0 0 1 14.3-4.8c1-.3 1.4-.3 1-.1h.3c1-.3 2.1-.5 3.2-.5 2.6 0 4.7.7 6.3 2.1 1.6 1.4 2.5 3.5 2.7 6.3V827c0 2 .2 4 .6 6 .4 2 1 3.9 2 5.5.8 1.6 2 3 3.6 4 1.5 1 3.4 1.4 5.7 1.4a93 93 0 0 1-8.7 2.8 109.2 109.2 0 0 1-8.8 2l-1.1-.2a13 13 0 0 1-5.5-2.4 13.1 13.1 0 0 1-3.4-4.2h-.2l-.8.3a192.4 192.4 0 0 1-22.4 6.5 13 13 0 0 1-5.3-1.2 19 19 0 0 1-8.4-7.3 13.9 13.9 0 0 1-2.1-8.2v-50.4a311.4 311.4 0 0 1 17.6-5.8 794.4 794.4 0 0 1 16.7-5.2"/><path d="M311.6 827a13 13 0 0 0 4.4 10.2c3 2.6 6.5 4 10.6 4h1.4c.4 0 .9 0 1.3-.2v-39.7l-17.7 6.5zm17.7-35.1c0-4.2-1.4-7.7-4.4-10.4-3-2.6-6.5-4-10.6-4h-1.4c-.4 0-.9 0-1.3.2h-.2v11.9c0 1.7.1 3 .4 4.1.2 1 .5 1.9.8 2.5.3.6.6 1.1 1 1.4-4.5 0-8.1-.2-10.8-.4-2.7-.3-4.7-.8-6.1-1.3-1.5-.6-2.4-1.3-3-2.1-.4-.8-.6-1.7-.6-2.8v-9a8513.2 8513.2 0 0 1 37-11.8h.9l1-.1c1.7 0 3.5.4 5.3 1.1a18.7 18.7 0 0 1 8.4 7.3c1 1.7 1.5 3.4 1.8 5.2l.3 3V827c0 2 .2 4 .6 6 .4 2 1 3.8 2 5.5.8 1.7 2 3 3.6 4 1.5 1 3.5 1.5 5.9 1.5l-4.7 1.4-5 1.5a78.6 78.6 0 0 1-6.5 1.6l-1.9.1c-1 0-2-.2-3-.5a19.1 19.1 0 0 1-8.7-5.5 1105.8 1105.8 0 0 0-18 5.7l-1.3.2a3 3 0 0 1-.9.1h-1c-1.7 0-3.5-.3-5.3-1a17.1 17.1 0 0 1-10.4-12.5c-.2-1-.2-2-.2-3v-21.2l36.3-12.3z"/><path d="M384 847.9a13 13 0 0 1-10-.3 19 19 0 0 1-8.3-7.3c-1-1.6-1.7-3.3-2-5.2a403.5 403.5 0 0 0-.1-13.4V782a609.4 609.4 0 0 1 35.6-11.5l1.4-.3h.9l1-.1c1.7 0 3.5.4 5.3 1.1a18.7 18.7 0 0 1 8.4 7.3c1 1.7 1.6 3.4 1.8 5.2l.3 3v3l-21 8.9c.7-.7 1.3-1.4 1.8-2.3.5-.9.7-2.3.7-4.4 0-4.2-1.4-7.7-4.4-10.4-3-2.6-6.5-4-10.6-4h-1.4c-.4 0-.9 0-1.3.2V827c0 4.2 1.4 7.6 4.4 10.3 3 2.7 6.5 4 10.6 4h1.4l1.3-.1 18.5-6.2v1.9a302 302 0 0 1-17.5 5.8 536.2 536.2 0 0 1-16.9 5.2"/><path d="M458.4 791.9c0-4.2-1.4-7.7-4.4-10.4-3-2.6-6.5-4-10.6-4H442c-.4 0-.8 0-1.3.2v29.6a205.2 205.2 0 0 0 11.2-7c1.8-1.4 3.3-2.9 4.6-4.4 1.3-1.4 2-2.8 2-4m-17.8 35c0 4.3 1.5 7.7 4.4 10.4 3 2.7 6.5 4 10.6 4h1.4l1.3-.1L477 835v1.9a297.8 297.8 0 0 1-17.5 5.8 525.3 525.3 0 0 1-16.9 5.2 13 13 0 0 1-9.8-.3 19 19 0 0 1-8.4-7.3 13.9 13.9 0 0 1-2.2-8.2V782a609.3 609.3 0 0 1 35.7-11.5l1.4-.3h.9l1-.1c1.7 0 3.5.4 5.3 1.1a18.7 18.7 0 0 1 8.4 7.3c1 1.7 1.6 3.4 1.8 5.2l.3 1.5v1.6c0 1-.2 1.7-.7 2.5-.5.7-1 1.3-1.8 1.7l-33.7 18.2z"/><path d="M610 772a35.4 35.4 0 0 0-17-26.2h-.6v63.4h.5c5.7-2.9 10-6.6 12.9-11.3a32.9 32.9 0 0 0 4.5-16.5c.1-3 0-6.2-.4-9.3m-25.3 41.8v33.3c0 1.7.2 3.4.4 5 .2 1.7.6 3.4 1.4 5 .4 1 .8 1.8 1.4 2.7.5.8 1.1 1.5 2 2.2l.3.2.3.2v-48.9l-.1-.2a2 2 0 0 1-.9.1h-2.2l-2.2-.1h-.4zm45-37.4v4a22.4 22.4 0 0 1-.2 3.6c-.8 4.3-2.3 8.2-4.7 11.6a36.8 36.8 0 0 1-8.5 9 49.8 49.8 0 0 1-23.2 8.6c-.4 0-.6.1-.6.5v55.4c0 .2.1.3.3.3.8.3 1.5.8 2 1.5.9 1.2 1 2.4.6 3.7l-.6 1.3a59 59 0 0 1-3.1 5h-.2a24 24 0 0 1-3.4-5.3l-.4-.9a3 3 0 0 1-.1-2.5c.3-.8.7-1.4 1.2-2 .5-.4 1-.7 1.4-.8.2 0 .3 0 .3-.3v-2.8h-.4a67.7 67.7 0 0 1-11.6 2.7c-.6 0-1.4-.2-2.3-.6-2-.6-3.5-1.6-4.8-3a15.8 15.8 0 0 1-3-4.6 32.2 32.2 0 0 1-2.2-11v-41.1c0-.4-.1-.7-.3-.9a22 22 0 0 0-4.6-3.7c-.9-.4-1.8-.7-2.9-.9-1 0-1.7.1-2.3.3-.7.2-1.3.7-2 1.4-.3.3-.5.7-.7 1.2 0 .4-.3 1-.7 1.7l-.3.3v-.3a119.2 119.2 0 0 1 5.6-15.2c.5-.8 1.1-1.6 2-2.1a5 5 0 0 1 2.9-.9c1 0 2 .3 3 .9l.3.1v-30.4l-.3-1.5c-.4-2-1.4-3.4-3-4.5-1.7-1-3.3-1.8-5-2.3h-1l7.4-2.4 7.2-2.3a20.8 20.8 0 0 1 4.4-.6c1.5 0 3 .4 4.2 1a7 7 0 0 1 4.3 5.3l.3 1.4v56.9h1.5a143.5 143.5 0 0 1 4-1.1c.2 0 .3-.2.3-.4V745c0-.7-.8-1.3-2.3-1.8a42.4 42.4 0 0 0-11.4-2.2l-4-.3c-4.3 0-8.5.6-12.4 1.9a33 33 0 0 0-10.6 5.4 27.5 27.5 0 0 0-10.6 20.8 31.2 31.2 0 0 0 9.9 25.4l-19.3-8.2a9.4 9.4 0 0 1-4.8-4 14 14 0 0 1-1.8-5.9c0-.2 0-.4-.2-.6V773l.2-.7c.4-5.7 2-10.6 4.6-14.7a37 37 0 0 1 10.3-10.3c4-2.8 8.7-5 13.7-6.4 5.1-1.5 10.1-2.5 15-3h3.8c.4 0 .6-.2.7-.3h5.2l.8.3H580.8a760.7 760.7 0 0 0 5.8.6l7.3 1.3c4.6 1.1 9.1 2.7 13.4 4.7 4.2 2 8 4.5 11.3 7.5a32.9 32.9 0 0 1 11.1 24.6"/><path d="m640.3 755.9 11.2-11.2 11.3 11.2-11.3 11.2zM673 844l-4.6 1.4-5.1 1.5a91.7 91.7 0 0 1-6.5 1.6l-1.8.1h-.8c-2.3-.5-4.2-1.4-5.7-2.7a14.6 14.6 0 0 1-3.6-4.7c-.8-1.7-1.5-3.7-1.8-5.8-.4-2.2-.6-4.3-.6-6.3v-45.4c0-1-.3-2.1-.7-3.2a10 10 0 0 0-3.7-3.5c-1.7-1-3.3-1.5-5-1.6a108 108 0 0 1 19.4-5.2 9.6 9.6 0 0 1 6.6 2.9 7.5 7.5 0 0 1 1.9 5.3V827c0 2 .2 4 .5 6 .4 2 1 3.8 2 5.5.9 1.7 2.1 3 3.6 4 1.6 1 3.5 1.5 6 1.5"/><path d="M713 791.9c0-4.2-1.4-7.7-4.4-10.4-3-2.6-6.5-4-10.6-4h-1.3c-.4 0-.9 0-1.4.2v29.6a205.2 205.2 0 0 0 11.2-7c1.8-1.4 3.4-2.9 4.7-4.4 1.2-1.4 1.9-2.8 1.9-4m-17.8 35c0 4.3 1.5 7.7 4.5 10.4s6.5 4 10.6 4h1.3l1.4-.1 18.5-6.2v1.9a297.8 297.8 0 0 1-17.6 5.8 519.9 519.9 0 0 1-16.8 5.2 13 13 0 0 1-9.9-.3 19 19 0 0 1-8.4-7.3 13.9 13.9 0 0 1-2.1-8.2V782a609.3 609.3 0 0 1 35.6-11.5c.5 0 1-.2 1.4-.3h1l.9-.1c1.8 0 3.6.4 5.3 1.1a18.7 18.7 0 0 1 8.4 7.3c1 1.7 1.6 3.4 1.9 5.2l.3 1.5v1.6c0 1-.3 1.7-.7 2.5-.5.7-1.1 1.3-1.9 1.7l-33.7 18.2z"/><path d="M753.8 770.2c1.9 0 3.7.5 5.4 1.3 1.8.9 2.8 2.4 3.3 4.5a990.4 990.4 0 0 1 17.7-5.5 30.2 30.2 0 0 1 2.2-.4h1c2.2 0 4.3.5 6.4 1.6 2 1 3.7 2.3 5.3 4 1 1.1 1.7 2.4 2.5 3.7a15 15 0 0 1 1.7 7.2v3.1l-21.2 8.9c.8-.7 1.4-1.4 2-2.3.4-.9.6-2.3.6-4.4 0-4.2-1.5-7.7-4.4-10.4-3-2.6-6.5-4-10.6-4h-1.4c-.4 0-.9 0-1.3.2V827c0 2 .1 4 .5 6s1 3.8 2 5.5c.9 1.7 2 3 3.6 4 1.5 1 3.5 1.5 5.9 1.5l-4.7 1.4-5 1.5a89.6 89.6 0 0 1-6.5 1.6l-1.9.1h-.7c-2.3-.5-4.2-1.4-5.7-2.7a14.6 14.6 0 0 1-3.6-4.7c-.9-1.7-1.5-3.7-1.9-5.8-.3-2.2-.5-4.3-.5-6.3v-44c0-.7 0-1.5-.2-2.3a8 8 0 0 0-.5-2.1c-.8-1.4-2-2.5-3.7-3.6-1.7-1-3.3-1.6-5-1.7a642.7 642.7 0 0 1 15.8-4.9l1.5-.3z"/><path d="M823.4 847.9a13 13 0 0 1-9.9-.3 19 19 0 0 1-8.3-7.3c-1-1.6-1.7-3.3-2-5.2a403.5 403.5 0 0 0-.1-13.4V782a609.3 609.3 0 0 1 35.6-11.5l1.4-.3h.9l1-.1c1.7 0 3.5.4 5.3 1.1a18.7 18.7 0 0 1 8.4 7.3c1 1.7 1.6 3.4 1.8 5.2l.3 3v3l-21 8.9c.7-.7 1.3-1.4 1.8-2.3.5-.9.7-2.3.7-4.4 0-4.2-1.4-7.7-4.4-10.4-3-2.6-6.5-4-10.6-4h-1.4c-.4 0-.9 0-1.3.2V827c0 4.2 1.4 7.6 4.4 10.3 3 2.7 6.5 4 10.6 4h1.4l1.3-.1 18.5-6.2v1.9a302 302 0 0 1-17.5 5.8 536.1 536.1 0 0 1-16.9 5.2"/><path d="m868.6 755.9 11.1-11.2 11.4 11.2-11.4 11.2zm32.8 88.1-4.7 1.4-5 1.5a91.7 91.7 0 0 1-6.5 1.6l-1.9.1h-.7c-2.3-.5-4.2-1.4-5.7-2.7a14.6 14.6 0 0 1-3.6-4.7c-.9-1.7-1.5-3.7-1.9-5.8-.3-2.2-.5-4.3-.5-6.3v-45.4c0-1-.3-2.1-.8-3.2a10 10 0 0 0-3.6-3.5c-1.7-1-3.3-1.5-5-1.6a108 108 0 0 1 19.4-5.2 9.6 9.6 0 0 1 6.6 2.9 7.5 7.5 0 0 1 1.8 5.3V827c0 2 .2 4 .6 6 .4 2 1 3.8 2 5.5.9 1.7 2 3 3.6 4 1.5 1 3.5 1.5 5.9 1.5"/><path d="M921.6 827c0 2 .2 4 .6 6 .3 2 1 3.8 1.9 5.5 1 1.7 2.1 3 3.7 4 1.5 1 3.4 1.5 5.8 1.5l-4.6 1.4-5.1 1.5a91.9 91.9 0 0 1-6.5 1.6l-1.8.1h-.7c-2.3-.5-4.2-1.4-5.8-2.7a14.7 14.7 0 0 1-3.6-4.7c-.8-1.7-1.4-3.7-1.8-5.8-.4-2.2-.6-4.3-.6-6.3V785l-.1-2.2c-.1-.8-.3-1.5-.6-2.3a10 10 0 0 0-3.7-3.5c-1.6-1-3.3-1.5-5-1.6a849.6 849.6 0 0 1 15.9-4.9c1-.3 2-.4 3-.4 2.3 0 4.3.6 6 2a7.6 7.6 0 0 1 3 5.7 139.7 139.7 0 0 1 13.4-6 21.3 21.3 0 0 1 5-1.6h1l1-.1c2.2 0 4.4.5 6.4 1.6 2 1 3.8 2.3 5.3 4 1 1.1 1.8 2.4 2.5 3.7a15 15 0 0 1 1.7 7.2V827c0 2 .1 4 .5 6s1 3.8 2 5.5c.9 1.7 2 3 3.6 4 1.5 1 3.5 1.5 5.9 1.5l-4.7 1.4-5 1.5a78.6 78.6 0 0 1-6.5 1.6l-1.9.1h-.7c-2.3-.5-4.2-1.4-5.7-2.7a14.6 14.6 0 0 1-3.6-4.7c-.9-1.7-1.5-3.7-1.9-5.8-.3-2.2-.5-4.3-.5-6.3V792c0-3.8-1.2-6.8-3.5-9.2a12.1 12.1 0 0 0-9.1-3.6c-2 0-3.7.2-5.2.6z"/><path d="M1005.6 791.9c0-4.2-1.5-7.7-4.4-10.3-3-2.6-6.5-4-10.7-4h-1.3l-1.4.2V827c0 4.2 1.5 7.6 4.4 10.3 3 2.7 6.5 4 10.6 4h1.4l1.4-.1zm-16 56a13 13 0 0 1-9.9-.3c-1.8-.8-3.4-1.8-4.8-3a16.6 16.6 0 0 1-5.4-9.5l-.3-3 .1-3V782l1.4-.6c.4 0 .9-.2 1.3-.4l6.5-2.2a104 104 0 0 0 11-3.6 489.5 489.5 0 0 1 15.4-4.7 72 72 0 0 1 3.3-.4c1.8 0 3.6.4 5.3 1.1a18.7 18.7 0 0 1 8.4 7.3 14.7 14.7 0 0 1 2 8.1v83.1a2867.2 2867.2 0 0 0-21.8 7.2 1459.9 1459.9 0 0 1-10.4 3 34.3 34.3 0 0 1-7 1c-2.5 0-4.9-.4-7-1-2.2-.7-4-2-5.7-4a16 16 0 0 1-3-7l1.5-.4 1.3-.4 12.8-4.3c.5-.1 1-.2 1.3-.4l1.5-.3c1 4 2.5 6.8 4.7 8.4 2.2 1.7 5.4 2.5 9.5 2.5h2c.6 0 1.3 0 2-.2V843a670.5 670.5 0 0 1-16 4.9"/><path d="M258.9 973.2a12 12 0 0 0 1.8-5.3c.2-2 .2-3.7 0-5.4 0-.5-.3-1.1-.6-1.8s-.7-1.3-1.2-1.9c-.5-.5-1-1-1.6-1.3-.6-.3-1.3-.4-2-.2s-1 .7-1 1.4c-.1.8 0 1.7.1 2.6a35.6 35.6 0 0 0 1.4 4.9c.5 1.8 1 3.7 1.3 5.7.1.6.3 1.1.6 1.7.2.5.6.4 1.2-.4m-9.5-41.8c.1.8.4 1.2.8 1.1.4 0 1-.3 1.5-.7l1.6-1.5 1.1-1.2a27.4 27.4 0 0 0 8-13.6c.2-1.2.3-2.4.2-3.6a5 5 0 0 0-1.4-3c-1-1-2-1.5-3-1.5-1.1 0-2.1.5-3.1 1.2s-1.9 1.6-2.7 2.6c-.8 1.1-1.3 2.1-1.7 3-.6 1.2-1 2.5-1.3 4a35 35 0 0 0-.4 9l.4 4.2m-1.4 55c1-.7 1.4-1.6 1.1-2.6a52.8 52.8 0 0 1-1.6-6.8 132 132 0 0 0-2.5-11l-1.8-7.3a851 851 0 0 0-1.3-6.8c-.1-.7-.3-1.8-.3-3 0-1.3-.3-2.3-.8-3-.3-.4-.8-.5-1.5-.3s-1.4.5-2 1c-.8.5-1.5 1-2.1 1.7l-1.5 1.2c-2.7 2.8-5 5.7-7.1 8.5-2 2.8-3.6 6-4.7 9.7a26.4 26.4 0 0 0-1.3 11c.3 1.9.8 3.6 1.6 5.2.8 1.7 2 3 3.7 4 1.7 1.1 3.5 1.8 5.4 2.1 1.9.4 3.8.4 5.8.2a25 25 0 0 0 10.9-3.8m37.3-45.4a13 13 0 0 1-3.3 13.5c-1.1 1-2.3 1.8-3.7 2.2-1.3.5-2.8.7-4.3.9H270l-1 .5c-.4.4-.5 1-.3 2l.4 2a18 18 0 0 1-2 9.2c-1.5 2.9-3.3 5.5-5.3 7.8-1.2 1.3-1.9 2.5-2 3.4 0 1 .2 2.3.8 3.9l.7 2.4c.2.6.2 1.2.1 1.7s-.4 1-1 1.2c-.5.4-1.3.6-2.3.7l-2.8.3h-2.8c-.5-.2-.9-.4-1-.8l-.6-1.3-.8-1c-.1 0-.6 0-1.4.3-.6.2-1.3.5-1.9.9l-1.8 1c-3 1.4-6 2.5-9 3.1-3 .7-6 1-9.3.8a21 21 0 0 1-8-1.9 17.4 17.4 0 0 1-9.6-11.1c-.7-2.5-1-5.3-.6-8.2a26 26 0 0 1 2.6-8.6 39.3 39.3 0 0 1 11.4-13.5 174.7 174.7 0 0 1 17-11.6c.3-.3.4-.8.4-1.6a62.8 62.8 0 0 0-.5-4.8c-.3-3-.2-6 .2-9a27 27 0 0 1 7.5-14.8c1.8-1.8 4-3.3 6.2-4.5 1.2-.4 2.5-.9 4-1.2 1.4-.3 2.9-.4 4.3-.3 1.5 0 2.9.3 4.2.8a9 9 0 0 1 3.5 2.3c1 1 1.5 2.1 1.8 3.3a13.8 13.8 0 0 1-.8 7.3c-.5 1.2-1 2.3-1.7 3.4a29.3 29.3 0 0 1-5.4 6 69.7 69.7 0 0 1-11.8 8.5c-.5.5-.9 1-1.1 1.7a8 8 0 0 0 .2 4.4l1 4.3.4 2.7c0 1 .3 1.8.6 2.5.2.4.2.7.2 1l.1.4s.2 0 .4-.3l1.3-1a82 82 0 0 1 3.5-2c1.1-.7 2.4-1.2 3.8-1.6l4.2-.6 4.3.1h4.2c1.4 0 2.8-.2 4.2-.5 1.6-.4 2.7-1 3.2-1.7.5-.8.7-2 .5-3.6 0-.5 0-.9-.2-1.3a1 1 0 0 1 .4-1c.7-.6 1.3-.7 1.7-.2l.9 1.5"/><path d="M343.3 967.5c-3 0-5.4-.8-7.3-2.3-2-1.5-3.4-3.5-4.4-6-.7-1.5-1-3.1-1.2-4.9-.2-1.7-.3-3.4-.2-5 0-3 .4-5.8 1.2-8.6a46.6 46.6 0 0 1 13.7-21.8 55 55 0 0 1 41-15.4c3.5.2 6.9.6 10.3 1.2a145 145 0 0 0 20.7 2l4.4-.3c1.5-.2 2.8-.6 4-1.2a39.7 39.7 0 0 1 2.5-1h1.3c.4 0 .6.4.7 1-.2.6-.7 1.2-1.4 1.9a18.5 18.5 0 0 1-4.6 3l-2 1a31 31 0 0 1-8.8 2.4c-3 .4-6 .5-9 .4-3.1-.1-6.1-.4-9.2-.9l-9-1.3c-3-.5-6-.8-9-1-3.1-.1-6 0-9 .3-2.9.4-5.7 1.1-8.5 2.2a25.6 25.6 0 0 0-12 9.5 48.3 48.3 0 0 0-7.2 14.5 30.2 30.2 0 0 0-.5 14.4c.3 1.4.9 2.7 1.7 3.9a9 9 0 0 0 3 2.8c1.1.7 2.6 1 4.3 1a15.5 15.5 0 0 0 7.6-2.5 25 25 0 0 0 2.4-1.8l2.3-1.6c.8-.5 1.6-.6 2.4-.5.8.1 1 .8.7 2a5 5 0 0 1-1.7 2.3l-2.3 2a65.8 65.8 0 0 1-7.8 5.7c-1.4.8-2.9 1.4-4.4 1.9-1.4.4-3 .7-4.7.7m42-18.2-2 3.7c-1 1.8-2 3.6-2.8 5.4a83.3 83.3 0 0 1-17.2 23.5 48.8 48.8 0 0 1-19 9.8 60 60 0 0 1-10.8 2 26 26 0 0 1-11-1.3c-1.6-.5-3.2-1.3-4.8-2.5a14.6 14.6 0 0 1-3.8-4.1 9 9 0 0 1-1.3-4.9c0-1.7.8-3.4 2.4-5 1.2-1.3 2.7-2 4.5-2.2 1.7-.3 3.3.2 4.5 1.5 1.2 1.3 1.8 2.6 1.6 4a4 4 0 0 1-1 2.5c-.5.6-1 1.4-1.3 2.2-.4 1-.5 1.7-.2 2.4a4 4 0 0 0 1.4 1.7c.6.5 1.3.9 2.2 1.1l2.3.7c2 .3 4 .3 6 0s3.9-.8 5.7-1.5c4.2-1.6 7.7-3.8 10.6-6.8 3-3 5.5-6.3 7.7-9.8a110 110 0 0 0 6.2-11.3c1.8-3.9 3.7-7.6 5.8-11.1h-4.2c-.6 0-1-.2-1.4-.4-.4-.3-.6-.6-.6-1v-1.6c0-.3.2-.7.6-1a2 2 0 0 1 1.4-.5h6.5l3.3-6c1.9-3 4-5.8 6.1-8.5a52 52 0 0 1 21-15c.8-.2 1.4 0 2 .3.4.3.6.6.5 1l-.4.9-1 .8a44.2 44.2 0 0 0-5.5 4.6c-1.2 1.5-2.3 3-3 4.6l-2.8 4.8a170 170 0 0 0-6.4 12.5h5.9c.6 0 1 .2 1.4.5.4.3.6.7.6 1v1.6c0 .4-.2.7-.6 1-.4.2-.8.4-1.4.4z"/><path d="M409 932c0-.8.1-1.7.5-2.6.4-.9 1-1.7 1.6-2.5.6-.7 1.3-1.3 2.1-1.8a6 6 0 0 1 2.5-.8c1 0 1.7 0 2.3.4.6.3 1 .8 1.3 1.4.3.6.5 1.2.5 2 0 .7-.2 1.5-.5 2.2a9.2 9.2 0 0 1-3 3.6 6.8 6.8 0 0 1-4 1.7 3 3 0 0 1-2.1-.9c-.7-.5-1-1.4-1.3-2.6m1.5 17.2c-1 2.8-2.2 5.4-3.5 7.7a141.3 141.3 0 0 1-5.9 9.5l-1.7 2.9-3.2 5.3a145.6 145.6 0 0 0-5.3 9.2c-.3.8-.5 1.6-.5 2.4 0 .7.1 1.5.6 2.2.4.6.8.9 1.2 1 .9.2 2 0 3.2-.6 1.2-.6 2.5-1.5 3.9-2.7a49.7 49.7 0 0 0 8-8.9 54.9 54.9 0 0 0 5-8l.3-.7 1.1-1.5c.4-.5.6-.4.8.3v.7l-.4 1.2v-.1l-1.6 2.6-1.4 2.7-4.6 7.4a36.8 36.8 0 0 1-5.4 6.4c-2 1.8-4.2 3.3-6.5 4.4-2.4 1.2-5 1.7-7.8 1.7-1 0-2-.2-2.8-.5-1-.4-1.7-1.2-2.3-2.3-.7-1.2-1-2.5-1-4 0-1.7.3-3.3.9-5a67.3 67.3 0 0 1 9.6-17.8l3-5 3-5 1-2.4a62.3 62.3 0 0 1 1.5-5c.8-.4 1.8-.6 3-.7a60.2 60.2 0 0 1 7.7-.2v.2l.1.2.2 1.2c0 .4 0 .8-.2 1.2"/><path d="M419.8 953a4 4 0 0 0 .8-2.3 33 33 0 0 1 .2-4h.8l2.4-.2a108.8 108.8 0 0 1 7.8-.3l.5 1 .2 1.2c-.1 1-.5 2-1 3.1l-1.4 3.1 4.2-3.5a28 28 0 0 1 7-4.2c1-.3 2-.6 3-.7l2.9-.2c1 0 1.9.3 2.7.6 2 1 3 2.3 3.2 4.2.2 1.8 0 3.6-.4 5.4-.8 2.5-2 4.9-3.7 7.2a169.3 169.3 0 0 0-13.8 22.3 3 3 0 0 0 0 1.9c.2.5.8.7 1.9.6 2.3-.6 4.3-1.5 6-2.8 1.7-1.3 3.3-2.9 4.7-4.6 1.4-1.7 2.8-3.5 4-5.4a96 96 0 0 1 4.4-6.6l1-1.4a3 3 0 0 1 1.2-.9c.4-.1.8 0 1.2.6.2.4.3.8.2 1.2-.1.4-.3.9-.6 1.3a20 20 0 0 1-1.6 2.2l-5.4 7.2a65.1 65.1 0 0 1-6 6.8c-2.1 2-4.4 3.9-7 5.4a23.6 23.6 0 0 1-8.4 3c-1.3.1-2.4-.1-3.4-.7-1-.5-1.9-1.4-2.4-2.8-.7-1.5-.9-3-.6-4.6.2-1.7.7-3.3 1.5-4.9.7-1.6 1.6-3.1 2.5-4.6a1210.6 1210.6 0 0 1 12.1-18.8c.6-.8 1-1.6 1.5-2.5.3-.5.6-1.2.8-2 .1-1 0-1.6-.7-2a2 2 0 0 0-1.9-.1l-1.8.7c-2.4 1.1-4.6 2.6-6.5 4.7a182.7 182.7 0 0 0-7.1 8.3l-1.7 2.5a1339.6 1339.6 0 0 1-15 22.8 12.3 12.3 0 0 1-1.6 2.7c-.4.2-1 .3-1.7.2h-6.3c-1 0-1.7-.2-2-.5-.2-.3-.1-1 .3-1.8a75 75 0 0 1 2.1-3.8 1888.7 1888.7 0 0 0 20.9-34"/><path d="M463.4 968.6c2.5-.1 4.8-.9 6.8-2.3a66.1 66.1 0 0 0 8.4-7 20.9 20.9 0 0 0 3.6-5.8c.6-1.2.9-2.2.8-3.1 0-.8-.3-1.3-.8-1.4-.4-.2-1-.1-1.5.1l-2.1 1.2a24.3 24.3 0 0 0-4.7 4.3c-2.1 2.1-4 4.4-5.6 6.7l-4.9 7.3m-5.2 16c.2 1.6.8 2.7 1.7 3.2 1 .5 2 .7 3.3.6 1.2-.2 2.5-.5 3.7-1a34.5 34.5 0 0 0 9.2-6.4 99.5 99.5 0 0 0 10.5-11.7l3.4-4c.5-.6.8-.8 1-.4.2.3.2.7 0 1.3-.3 1-1 2.3-2 3.9l-3.9 4.8a127 127 0 0 1-14.7 14c-1.5 1.2-2.6 2-3.6 2.5a18.6 18.6 0 0 1-9.7 2.4c-1.6 0-3.2-.5-4.7-1.3-1.4-.7-2.6-2-3.4-3.7-.7-1.5-1-3-1.1-4.8 0-1.7.1-3.4.5-5a49 49 0 0 1 21.5-28.2 30.9 30.9 0 0 1 12-4.7c1.4-.3 2.8-.4 4.4-.2 1.5.1 2.7.9 3.5 2.2.6 1 1 2 .8 3.2 0 1-.3 2.1-.7 3.2a20.8 20.8 0 0 1-3.7 5.4 28 28 0 0 1-5.8 4.8 56.2 56.2 0 0 1-13.8 6l-2.5.3c-1 0-1.8.4-2.3 1-.5.5-1 1.3-1.3 2.5-.3 1.1-.6 2-1 2.8-.5 1.2-.9 2.4-1.1 3.6-.3 1.2-.3 2.5-.2 3.7"/><path d="M580.3 920c-4.2 3-8.2 6.4-11.8 10.3a40.2 40.2 0 0 0-9.4 16.8c-.3 1.3-.5 2.6-.5 4 0 1.3.3 2.5.7 3.8a6.7 6.7 0 0 0 2.2 3.1 6.8 6.8 0 0 0 5.6 1.5 10.3 10.3 0 0 0 6.2-3.1l1-1.1 1.2-.6c.4-.2.7-.1 1.1.1.4.2.6.5.6.8 0 .3 0 .7-.2 1a6 6 0 0 1-.7 1 22.4 22.4 0 0 1-14.3 8c-2.4.2-4.6-.1-6.5-1-2-.8-3.7-2-5-3.5a15.1 15.1 0 0 1-3.8-12 28 28 0 0 1 2.2-7.8 42.1 42.1 0 0 1 9.2-13.3 69 69 0 0 1 19.6-14 94.3 94.3 0 0 1 31-9 145.5 145.5 0 0 1 24.4-.7c.7.2 1.4.6 1.9 1 .5.3.9.8 1 1.2.2.5 0 1-.6 1.5-.4.2-.9.3-1.4.2l-1.8-.2a485 485 0 0 1-3.3-.7c-1.2.2-2.4.5-3.5 1-1.2.6-2.2 1.2-3.2 2-2.1 1.7-4 3.6-5.8 5.8a64.3 64.3 0 0 0-8.6 14l-3.5 7.4-7.4 15.4a311.2 311.2 0 0 1-16.6 30 124.6 124.6 0 0 1-22.1 25.9 65.3 65.3 0 0 1-29.6 14.6c-2.8.5-5.6.7-8.3.6-2.8 0-5.5-.6-8-1.6-2.3-.9-4.2-2.1-5.8-3.8a10.5 10.5 0 0 1-2.9-6.3 10.1 10.1 0 0 1 2.6-8.2c.7-.7 1.5-1.2 2.5-1.4 1-.2 2-.2 3 0a6.7 6.7 0 0 1 4.3 3.8c.5 1 .6 2 .5 3-.3 1.1-.7 2.1-1.3 3-.7 1-1 2-.9 3.2.1 1.4.8 2.5 2 3.2 1.2.8 2.4 1.3 3.6 1.6 2.5.8 5 .9 7.4.4a24 24 0 0 0 7-2.8c2.1-1.2 4.2-2.8 6.2-4.5a98.4 98.4 0 0 0 16.5-19.3c3.4-5 6.5-10 9.5-15.3a54676.4 54676.4 0 0 1 19.7-33.5c3-5.1 6-10.1 9.2-15a69.5 69.5 0 0 1 25.2-23.4c-7.5-.1-14.6 1-21.2 3.3a84 84 0 0 0-19 9.7"/><path d="M604.4 968.6c2.5-.1 4.8-.9 6.8-2.3a66.1 66.1 0 0 0 8.4-7 20.9 20.9 0 0 0 3.6-5.8c.6-1.2.9-2.2.8-3.1 0-.8-.3-1.3-.8-1.4-.4-.2-1-.1-1.5.1l-2.1 1.2a24.3 24.3 0 0 0-4.7 4.3c-2.1 2.1-4 4.4-5.6 6.7l-4.9 7.3m-5.2 16c.2 1.6.8 2.7 1.7 3.2 1 .5 2 .7 3.3.6 1.2-.2 2.5-.5 3.7-1a34.5 34.5 0 0 0 9.2-6.4 99.5 99.5 0 0 0 10.5-11.7l3.4-4c.5-.6.8-.8 1-.4.2.3.2.7 0 1.3-.3 1-1 2.3-2 3.9l-3.9 4.8a127 127 0 0 1-14.7 14c-1.5 1.2-2.6 2-3.6 2.5a18.6 18.6 0 0 1-9.7 2.4c-1.6 0-3.2-.5-4.7-1.3-1.4-.7-2.6-2-3.4-3.7-.7-1.5-1-3-1.1-4.8 0-1.7.1-3.4.5-5a49 49 0 0 1 21.5-28.2 30.9 30.9 0 0 1 12-4.7c1.4-.3 2.8-.4 4.4-.2 1.5.1 2.7.9 3.5 2.2.6 1 1 2 .8 3.2 0 1-.3 2.1-.7 3.2-.4 1-1 2-1.6 3l-2.1 2.4a28 28 0 0 1-5.8 4.8 56.2 56.2 0 0 1-13.8 6l-2.5.3c-1 0-1.8.4-2.3 1-.5.5-1 1.3-1.3 2.5-.3 1.1-.6 2-1 2.8-.5 1.2-.9 2.4-1.1 3.6-.3 1.2-.3 2.5-.2 3.7"/><path d="m643.5 981.4-7 7.6a33 33 0 0 1-3.3 3.1 8.7 8.7 0 0 1-3.9 1.8c-1.8.4-3.4.5-4.7 0-1.2-.3-2.3-1-3-2a8 8 0 0 1-1.4-3.7c-.2-1.4-.2-3 .2-4.6.8-2.8 1.9-5.5 3.3-8l4.6-7.6 4.7-7.5a46.9 46.9 0 0 0 4.6-10.3c.2-.9.6-1.6 1.2-2 .5-.5 1.2-.7 2-.8 1 0 1.6 0 2.2-.2a96 96 0 0 1 2.3-.5h2.3c.9 0 1.5.2 1.7.7.3.5.4 1 .2 1.7 0 .7-.3 1.4-.5 2.2l-.8 2a53.8 53.8 0 0 1-4 8l-4.9 7.6a175 175 0 0 0-4.7 7.8 47.4 47.4 0 0 0-3.8 8.2c-.6 1.3-.5 2.2.3 2.9.8.6 1.8.5 3-.3 3-2.6 5.7-5.4 8.2-8.5a106.6 106.6 0 0 0 12.9-19.7c1.9-3.5 3.6-7 5.3-10.4.4-1 .9-1.5 1.4-1.7l2.4-.5 2.8-.4c1-.2 2-.3 2.7-.2 1 .1 1.5.5 1.6 1.2.2.7.2 1.5-.1 2.5a98.4 98.4 0 0 1-6.2 11.4l-5 8.4a127 127 0 0 0-4.7 8.5l-1.4 4c-.5 1.4-.7 2.8-.7 4 .2 1.5.8 2.4 2 2.6 1.2.1 2.4 0 3.7-.6a16 16 0 0 0 3.6-2.5 53.8 53.8 0 0 0 8.3-10.8 79 79 0 0 0 4.6-8.6c1.4-3 2.5-6 3.3-9 .4-1.5.6-3 .6-4.3l-.4-2c-.2-.6-.3-1.2-.2-1.8 0-.7.3-1.4.8-2.1.4-.7.9-1.2 1.5-1.7s1.3-.8 2-.9c.7-.1 1.4 0 2.1.2.8.4 1.3.9 1.6 1.5.4.6.6 1.3.6 2.1v2.4l-.5 2.3c-.4 1.8-.9 3.5-1.5 5.1a95.9 95.9 0 0 1-15.6 24.2c-2.2 2.6-4.6 5-7.3 7.3a21.7 21.7 0 0 1-9.2 4.4c-1.6.4-3.2.4-4.7 0a6 6 0 0 1-3.8-2.5c-1-1.5-1.4-3-1.4-4.9l.1-5.1"/><path d="M694.3 968.6c2.5-.1 4.8-.9 6.8-2.3a66.1 66.1 0 0 0 8.4-7 20.9 20.9 0 0 0 3.6-5.8c.6-1.2.9-2.2.8-3.1 0-.8-.3-1.3-.8-1.4-.4-.2-1-.1-1.6.1l-2 1.2a24.3 24.3 0 0 0-4.8 4.3c-2 2.1-3.9 4.4-5.5 6.7l-4.9 7.3m-5.2 16c.2 1.6.8 2.7 1.7 3.2 1 .5 2 .7 3.3.6 1.2-.2 2.5-.5 3.7-1a34.5 34.5 0 0 0 9.2-6.4 99.5 99.5 0 0 0 10.5-11.7c1.4-1.8 2.5-3.2 3.4-4 .5-.6.8-.8 1-.4.2.3.2.7 0 1.3-.3 1-1 2.3-2 3.9l-3.9 4.8a127 127 0 0 1-14.7 14c-1.5 1.2-2.6 2-3.6 2.5a18.6 18.6 0 0 1-9.7 2.4c-1.7 0-3.2-.5-4.7-1.3-1.4-.7-2.6-2-3.4-3.7-.7-1.5-1.1-3-1.1-4.8 0-1.7.1-3.4.5-5a49 49 0 0 1 21.5-28.2 30.9 30.9 0 0 1 12-4.7c1.4-.3 2.8-.4 4.4-.2 1.5.1 2.7.9 3.5 2.2.6 1 .9 2 .8 3.2 0 1-.3 2.1-.7 3.2a20.8 20.8 0 0 1-3.7 5.4 28 28 0 0 1-5.8 4.8 56.2 56.2 0 0 1-13.8 6l-2.5.3c-1 0-1.8.4-2.3 1-.5.5-1 1.3-1.3 2.5-.3 1.1-.6 2-1 2.8-.5 1.2-.9 2.4-1.1 3.6-.3 1.2-.3 2.5-.2 3.7"/><path d="M760.2 916.9c-2.8 5.2-5.8 10.4-8.8 15.6l-9.2 15.6L733 964a335 335 0 0 0-10 18.5c-.5 1.1-.7 2.1-.5 3 0 .7.3 1.1 1 1.4.6.4 1.5.3 2.6-.2 2-1.1 3.7-2.5 5.3-4a53.7 53.7 0 0 0 8.3-10.5 632.6 632.6 0 0 0 4.5-7.3c.6-.8 1-1.2 1.6-1.2.3 0 .5.2.6.5v1c0 .5-.2.8-.4 1.2l-.3.7c-1.9 2.4-3.7 5-5.5 7.8a82 82 0 0 1-6 8 41.7 41.7 0 0 1-7 6.8 21 21 0 0 1-8.5 3.8c-2.6.1-4.3-.5-5.2-1.9-1-1.4-1.4-3-1.4-5s.3-4 1-6.1c.6-2.1 1.2-3.8 1.8-5a132 132 0 0 1 7.1-12.8 2355.8 2355.8 0 0 0 25.8-43.7l.4-1.5V916l.1-1.4 2-.3a156.4 156.4 0 0 1 9.3-1c.5.2.8.7.8 1.7l-.2 1.9"/><path d="M776 965.9c.3.5 0 1.3-.7 2.4a346.4 346.4 0 0 1-10.4 13.6 51 51 0 0 1-10.6 10c-1.3.7-2.6 1.2-4 1.4-1.4.3-2.7.1-4-.4-1.7-.9-2.8-2-3.3-3.5s-.6-3-.4-4.7c.2-1.7.6-3.4 1.4-5 .7-1.7 1.3-3.2 2-4.4.9-1.7 2-3.4 3.3-5a95.8 95.8 0 0 1 8-8.7c1.4-1.5 2.7-3 3.9-4.7a8 8 0 0 0-2.8 0c-1 .3-1.8.2-2.7-.2l-1.9-.6c-.5-.2-1 0-1.8.5l-6 10a145 145 0 0 1-6.6 10.2 82.8 82.8 0 0 1-7.5 9.2 40.4 40.4 0 0 1-9 7.3c-1 .1-1.6-.1-1.8-.7-.2-.6-.1-1.2.3-1.9 4-2.5 7.6-5.5 10.7-9 3.2-3.4 6-7 8.7-11 2.6-4 5-8 7.2-12.2l6.7-12.4c.3-.1.7-.2 1.1 0 .4 0 .8.2 1.2.5l1 .8 1 .6a9 9 0 0 0 5.6.8l3.5-1c1.2-.5 2.3-.8 3.5-1 .8 0 1.4.1 1.6.4.3.3.3.7.2 1.2 0 .4-.3 1-.6 1.5l-.9 1.4a136.8 136.8 0 0 0-13.2 19.7 85 85 0 0 0-3.3 5.4c-.5 1-.9 2-1.1 3a9 9 0 0 0-.4 3c0 .7.2 1.6.5 2.5.2.9.8 1.3 1.7 1.2 1.2-.3 2.5-1 4-2.3a49 49 0 0 0 9-10.7 399.5 399.5 0 0 1 5.2-7.4c.4-.5 1-.5 1.7.2"/><path d="M783.5 986.4a77 77 0 0 1-7.4 5.7c-1.3.8-2.7 1.4-4.2 1.8a9 9 0 0 1-4.6.1c-1.5-.3-2.6-1-3.3-2-.7-.9-1.1-2-1.3-3.2-.3-1.3-.3-2.6 0-4a19 19 0 0 1 1-3.6c1-2.6 2.2-5 3.6-7.4a283.4 283.4 0 0 1 8.6-13.8 82 82 0 0 0 4.6-8.5l.5-1.7.7-1.6c.3-.5.6-.8 1.1-1a29 29 0 0 0 4.2-.4c1.5-.2 2.9-.2 4.2 0 .7 0 1.2.4 1.3 1 0 .5 0 1-.2 1.7l-.8 2-.9 1.5c-1.6 3.5-3.4 6.8-5.4 10a2120.7 2120.7 0 0 1-7.1 11.7 61.2 61.2 0 0 0-4.8 11c-.2 1.1-.2 1.9 0 2.4.2.6.8.6 1.7.3a25 25 0 0 0 9.4-6.2c2.6-2.7 5-5.8 7.3-9.2 2.2-3.4 4.2-7 6-10.7 1.9-3.7 3.8-7.2 5.8-10.4l.5-2 .2-2.2c.4-.5.8-.8 1.3-.9l5-.4c1.7-.1 3.4 0 5.2.1v2.4c0 1-.3 1.8-.7 2.6a30 30 0 0 1-2.9 5.3 67.5 67.5 0 0 0-3.1 5 366.2 366.2 0 0 1-11.5 19.6c-1.8 2.8-3.6 5.8-5.3 8.9-1.6 3.1-3.4 6.2-5.2 9.2-1.8 3-3.8 5.9-6 8.6a50.2 50.2 0 0 1-16.3 12.3c-3 1.4-6.1 2.3-9.4 2.7l-4.7.6c-1.8.1-3.6 0-5.3-.3a14 14 0 0 1-4.7-1.8 7.3 7.3 0 0 1-3.1-3.8c-.4-1.4-.3-2.8.1-4.2a5.9 5.9 0 0 1 2.6-3.3c1.2-.7 2.6-.9 4-.4 1.5.5 2.4 1.5 2.7 3 .2.7 0 1.4-.2 2.1l-1 2a4 4 0 0 0-.3 1.8c0 .6.5 1.2 1.3 1.8.7.5 1.4.8 2.2 1h2.7c.8 0 1.7-.2 2.6-.4l2.2-.8a40 40 0 0 0 9-6.5c2.6-2.6 5-5.4 7.2-8.4 2.1-3 4.1-6.2 5.9-9.5 1.8-3.2 3.4-6.4 5-9.6"/></g><g fill="#fdc31e"><path d="M513.3 16.3c-5 0-9.4-3.8-9.4-8.2a9.5 9.5 0 0 1 9.4-8.1c5 0 8.7 3.7 8.7 8.1 0 4.4-3.8 8.2-8.8 8.2"/><path d="M813.3 311.9c4.3 0 8 3.7 8 8.1 0 4.4-3.7 8.1-8 8.1-5 0-10-4.4-9.4-8.1 0-4.4 4.4-8.1 9.4-8.1"/><path d="M511.4 624.4c5.6 0 8.7 3.1 8.7 8.1-.6 4.4-4.4 7.5-9.4 7.5s-9.3-3.8-8.7-8.1c0-4.4 3.8-7.5 9.4-7.5"/><path d="M211.4 311.9c5 0 8.7 3.7 8.7 8.1 0 4.4-3.7 8.1-8.7 8.1-5 0-8.8-3.7-8.8-8.1 0-4.4 3.8-8.1 8.8-8.1"/><path d="M631.4 193.1c-3.8 0-6.9-2.5-6.9-5.6 0-3.1 3.1-5.6 6.9-5.6 3.7 0 6.2 1.8 6.2 5.6 0 3.1-2.5 5.6-6.2 5.6"/><path d="M392.6 458.1c-3.1 0-6.2-2.5-6.2-5 0-3.7 2.5-6.2 6.2-6.2 3.8 0 6.9 2.5 6.9 5.6 0 3.1-3.1 5.6-6.9 5.6"/><path d="M630.8 458.1c-4.4 0-7-1.9-7-5 0-3.7 2.6-6.2 6.3-6.2 3.8 0 6.3 2.5 6.3 5.6 0 3.8-1.9 5.6-5.6 5.6"/><path d="M393.3 193.1a5.6 5.6 0 0 1-5.7-5.6c0-3.8 2.5-5.6 6.3-5.6 3.7 0 6.2 1.8 6.2 5.6 0 3.1-2.5 5.6-6.9 5.6"/><path d="M512.6 105s-1.2 6.9-9.4 11.3c0 0 7.6 6.2 9.4 11.8 0 0 3.8-8.1 9.4-11.8 0 0-7.5-3.8-9.4-11.3"/><path d="M511.4 511.9s-3.8 8.1-9.4 11.9c0 0 5 1.8 9.4 11.2 0 0 4.4-9.4 9.4-11.3 0 0-5-2.5-9.4-11.8"/><path d="M523.9 319.4a26.9 26.9 0 0 1-20.6 8.1l-7-1.3-1.2-.6.6-1.2c5.7-7.5 19.4-11.3 28.2-8.1l1.9.6-2 2.5m28.8 23.1a5.7 5.7 0 0 1-1.9-4.4c-1.8-8.1-4.3-15-10.6-20.6l-3.7-3.1 1.2-5.6a27.6 27.6 0 0 0 0-20c-.6-1.3-.6-2.6.6-4.4 2-2.5 1.3-7.5-.6-10-2.5-3.1-6.2-4.4-9.4-3.1a8.6 8.6 0 0 0-6.2 8c-.6 3.8 1.9 7.6 5.6 8.8 1.9.6 2.5 1.3 3.1 3.1a24.2 24.2 0 0 1 0 16.3c-.6 2.5-1.2 3.1-3.7 2.5-13.1-3.8-25-1.9-35 8.1-4.4 4.4-4.4 4.4-9.4 0l-.6-1.2a27.5 27.5 0 0 1 3.1-38.1c3.1-2.6 6.3-6.3 11.9-3.8 4.4 2.5 9.4-.6 11.3-5.6 1.2-4.4-1.3-9.4-6.3-11.3-3.8-1.2-8.8.6-10 5-1.3 3.8-3.8 5-6.3 6.3a31.8 31.8 0 0 0-15.6 21.2 34.4 34.4 0 0 0 14.4 38.1l-.6 2.6-1.9 7.4a34.3 34.3 0 0 0 25.6 37.6c3.1.6 5.6 1.8 8.1 3.7 2.5 2.5 5.7 1.9 8.8.6 3.1-1.2 5.6-5 5-8.7 0-3.1-3.1-6.9-6.9-7.5-3.1-1.3-6.9 0-9.4 3.7-1.2 1.3-1.8 1.9-3.7 1.3a27.6 27.6 0 0 1-20.6-27.5v-2.5c.6-6.3 1.2-6.9 7.5-5.6a32.8 32.8 0 0 0 24.4-3.2c3.7-2.5 7.5-5 10-8.1.6-1.3 1.2-2.5 3-1.3 3.8 3.8 7 8.2 8.8 13.2.6 2.5 1.3 5-1.9 7.5-4.3 3.1-4.3 8.7-.6 12.5 3.1 3.7 8.1 3.7 11.9 1.2 3.8-3.1 4.4-10 .6-13.1"/><path d="M723.9 315c0-2.5.6-3.1 2.5-4.4a27.8 27.8 0 0 1 24.4 2.5l9.3 5c4.4 1.9 4.4 1.9.6 3.1-6.8 3.2-13 7.6-20.6 9.4l-4.4.6-9.3-1.8c-1.9-1.3-2.5-1.9-2.5-4.4 1.2-3.1 1.2-6.9 0-10m55 8.8c-8.1 3-15 8.7-23.1 11.8-5 1.3-10 3.8-15 4.4-7 1.3-13.2 0-18.8-3.8-1.9-1.2-1.9-2.4-.6-3.7.6-1.9 1.2-2.5 3.1-1.9 10 5 19.4 3.1 28.1-2.5l13.1-6.2c.7-.6 2-.6 2-1.9 0-1.3-1.3-1.3-2-1.9l-16.2-8.1a27.8 27.8 0 0 0-24.4-.6c-1.9.6-3.1 0-3.7-1.3-1.3-1.9-.6-3.1.6-4.4l1.9-1.2c4.4-1.3 8.1-3.1 12.5-2.5 5.6 0 10.6 1.3 15 3.1 10 3.1 18.1 9.4 27.5 13.8 8.1 3.1 10 2.5 0 6.9m-25 23.7c-1.9 4.4-4.4 6.9-8.8 8.1-2.5 0-3.7 1.9-4.4 3.8-1.8 3.7-8.7 8.1-12.5 8.1-1.8 0-2.5-1.3-2.5-2.5.7-6.9-1.8-13.8-5-19.4-.6-1.2-2.5-3.7-1.8-4.4.6-.6 2.5 1.3 3.1 2 10 4.3 19.4 3 28.8.6 1.2-.7 3-1.3 3.7 0 1.3 1.2 0 2.4-.6 3.7M720.8 295a39.3 39.3 0 0 0 5.6-20.6c-.6-3.1-.6-3.1 3.1-1.9 3.8 1.9 8.8 3.1 11.3 8.1.6 1.9 1.8 3.1 4.3 3.8 4.4 1.2 7.5 4.4 9.4 8.1.6 1.3 1.9 3.8 1.3 4.4h-4.4A35.6 35.6 0 0 0 730 295l-7.5 1.9c-.6.6-3.1 2.5-3.7 1.9-.6-.7 1.2-3.2 1.9-3.8m-7.5 37.5c-.7.6-2 1.3-3.2 0-3.7-4.4-9.4-7.5-14.4-11.3-1.8-1.2-1.2-1.8 0-2.4l14.4-10.7c1.9-1.2 2.5-1.2 3.8.6 3.1 3.2 3.7 7 5 11.3-1.3 4.4-1.9 8.8-5.6 12.5m-120.7-3.1a86.9 86.9 0 0 0-16.9 20 63.2 63.2 0 0 0-10 20.6l-.6 6.9c-.6 1.9-1.2 2.5-3.1 3.1-8.1 0-15.6 4.4-21.9 9.4a93.5 93.5 0 0 0-23.7 28.1l-3.8 6.9c-.6 1.9-1.9 1.9-2.5 0-1.9-5-4.4-8.8-7.5-12.5-5-8.1-11.2-15-18.1-21.3-5-4.4-10.6-8.1-16.9-9.4l-6.2-1.2c-2.5 0-3.1-1.3-3.8-3.1 0-12.5-6.9-22.5-13.7-32.5a64.4 64.4 0 0 0-15.6-16.3c-2.6-2.5-3.2-7.5-.7-10 6.9-6.9 13.8-13.7 19.4-21.9 5-8 10.6-16.8 10.6-27.4 0-2 .6-3.8 3.1-3.8a31 31 0 0 0 20.7-8.8 73.8 73.8 0 0 0 19.4-20c3-4.3 6.8-9.3 8.7-14.3.6-1.3.6-2.5 1.9-2.5 1.2 0 1.2 1.2 1.9 1.8 4.3 9.4 10 17.6 16.8 25 7.5 8.2 15.6 15 26.3 18.2l5.6.6c1.9 0 2.5 1.3 3.1 3.1a55.5 55.5 0 0 0 11.9 29.4c5 7.5 11.3 13.8 17.5 20a7.6 7.6 0 0 1 2.5 5.6c.6 3.8-2.5 5-4.4 6.3M522 522.5l2.5 1.9-1.9 1.2c-5.6 2.5-10 11.3-10 11.3l-1.2 2.5c-1.3-1.9-5.6-10.6-10-13.1l-3.1-2 3-3c3.2-2.5 6.3-6.3 8.2-10.7l1.9-3.1 1.9 3.1c1.8 4.4 5 8.8 8.7 11.9m12.5 5c8.8 3.1 16.3 7.5 20.6 16.3 3.1 6.8 9.4 10.6 15.6 14.3 1.3.6 2.5.6 2.5 1.9-.6 1.9-1.8 1.3-3 1.3h-2.6a49.3 49.3 0 0 1-24.4-8.2c-1.8-1.9-3-1.2-5 0-4.3 3.8-10 4.4-15.6 1.3-4.4-1.9-8.1-8.8-7.5-14.4.6-5.6 3.8-10 9.4-11.9 3.1-1.2 6.9-1.2 10-.6m1.9 57.5a37 37 0 0 0-21.3 18.8c-3.7 6.2-3.7 6.2-8.1 0-3.1-5-6.9-9.4-10.6-13.2-3.1-3.1-6.9-3.7-10.6-5.6a20.6 20.6 0 0 1-12-21.9c1.3-3.7 3.8-5.6 6.3-7.5 1.9-1.2 2.5 1.3 3.8 1.9 1.2 0 2.5 1.3 1.9 2.5-.7 3.1-.7 5.6.6 8.1 1.9 4.4 5 7.5 10 7.5 1.2 0 2.5.6 3.1 1.9.6 1.9 1.9 3.8 3.8 4.4l6.8 7.5 1.3 2.5 1.2-2.5c.6-2.5 3.8-5 5.6-6.9l3.2-2.5c1.9-1.3 1.9-3.1 2.5-3.8 1.2-1.2 2.5-1.2 5.6-2.5 1.9-.6 9.4-6.2 6.9-12.5-1.3-2.5 1.2-3.7 2.5-5 1.9-1.2 3.1-.6 4.4.7 4.3 1.9 5.6 5.6 5.6 10 0 7.5-5.6 15.6-12.5 18.1m-28.8-34.4c2.5-3.7 5-3.1 6.9 0 3.8 5.6 9.4 8.1 15.6 8.8 3.8 0 4.4 1.2 4.4 4.4 0 5.6-7.5 11.2-13.1 10v1.2c0 3.1-1.3 3.8-2.5 5-2.5 1.9-5 3.8-6.3 6.3l-1.2 1.2-1.3-1.3-6.9-6.2c-2.4-1.9-3-6.9-3-6.9s-5 1.3-7 0c-4.3-1.9-6.2-6.9-5.6-11.2.6-1.9 1.3-2.5 3.1-2.5 7.6 0 13.2-3.1 17-8.8m-57 10.6c-.6 0-1.8 0-1.8-1.2 0-1.3.6-1.3 1.9-1.3 8-4.3 14.3-10 19.3-18.7 4.4-8.8 13.1-11.3 22.5-13.1a14 14 0 0 1 13.1 8.1c2.6 5 2 10.6-1.8 15.6-5.6 6.3-13.8 8.1-20.6 2.5-1.3-1.2-2.6-1.2-5 0a41.9 41.9 0 0 1-27.6 8.1m50.7-443.7-1.9-1.9 2.5-1.2a19 19 0 0 0 9.4-11.3l1.2-3.1 1.9 3.1c1.3 4.4 5 8.2 8.8 11.3l2.5 1.8-2.5 2a39 39 0 0 0-8.8 11.2l-1.9 3.1-1.2-3.1c-2.5-4.4-6.3-8.2-10-11.9m-10-5a33 33 0 0 1-15-6.9 28 28 0 0 1-6.9-8.1c-3.1-6.2-7.5-10-13.1-13.1l-4.4-2.5-5-1.9a26.9 26.9 0 0 1 8.8-1.9 43.9 43.9 0 0 1 23.7 8.8c2.5 1.9 4.4 1.2 6.3 0 6.8-4.4 12.4-3.8 18 .6 5 4.4 6.3 11.9 3.8 17.5-3.1 6.3-9.4 8.8-16.2 7.5M490 54.4a35.4 35.4 0 0 0 15.6-13.1c2.6-2.5 3.8-5.7 5.7-8.2 1.2-2.5 2.5-1.8 3.7 0A69 69 0 0 0 527 48.8c1.9 2.5 5 3.7 7.5 5 8.8 3 14.4 8.7 15.6 17.5 1.3 5-1.2 10-5 12.5-1.9 1.2-3.7.6-5-.7-1.9-.6-1.9-1.8-1.2-3.7a12.8 12.8 0 0 0-10.6-15c-2 0-3.2-.6-3.8-2.5-.6-1.9-2.5-3.1-3.8-4.4a15 15 0 0 1-6.2-6.2l-1.3-3.2-1.2 3.2c-2.5 5-9.4 6.8-11.9 12.5l-2.5.6a11.9 11.9 0 0 0-10 14.4c0 1.8.6 3-1.9 4.3-1.8 1.9-3.7 1.3-5.6 0-3.7-2.5-4.4-4.3-4.4-10-.6-8.1 5.7-16.2 14.4-18.7m18.1 3.7 5-5 4.4 5c3.8 1.9 6.3 5 5.6 10 5-3.7 12 0 13.2 5.7v3.7c0 2.5-1.3 3.8-3.8 3.8a17 17 0 0 0-16.2 8c-2.5 3.8-5 3.8-7.5 0-3.8-5.5-8.8-8.7-15.6-8-2.6 0-3.2-1.3-3.8-3.2-1.3-6.2 4.4-14.3 13.1-10.6-.6-5 2.5-7.5 5.6-9.4m62 20.7h3l2 1.2c0 1.3-.7 1.3-1.3 1.9-5 2.5-10 5-13.8 9.4l-5 7.5c-4.4 8.7-15.6 13.7-24.4 14.3-6.8 0-11.2-3.7-13-10-2-5.6.5-12.5 5-15.6 5.5-4.4 11.8-5 17.4-.6 1.9 1.2 3.8 1.2 6.3 0 6.9-5.6 15-7.5 23.7-8.1m36.3 350.6a30.3 30.3 0 0 1 3.1 15.6c0 13.8-3.8 25-8.1 36.3l-2.5 5.6c-.6 1.9-1.9 1.9-2.5 0a49.1 49.1 0 0 1-3.1-38.8c2.5-6.9 5.6-13.1 9.3-19.4 1.9-1.8 2.5-1.8 3.8.7m7.5-8.1c14.4-5 27.5-3.2 41.2 3.7 6.3 3.1 12.5 6.3 18.8 10.6.6 0 1.9.6 1.9 1.9-.7 1.3-2 1.3-3.2 1.3l-18.1 1.2c-9.4.6-18.1-2.5-26.3-5.6-5.6-2.5-11.2-4.4-15.6-8.8-1.9-2.5-1.9-3.1 1.3-4.4M421.4 430a63 63 0 0 1 10.6 33.1 51 51 0 0 1-3.8 19.4l-1.8 4.4c-.6 1.9-1.9 1.9-2.5 0-3.8-8.8-6.9-17.5-8.8-26.9-.6-3.8-1.9-7.5-1.2-11.3a30 30 0 0 1 2.5-18c0-1.3.6-3.2 2.5-3.2 1.2 0 1.9 1.9 2.5 2.5m-10.6-5c-6.3 6.9-15.7 9.4-24.4 12.5-7.5 2.5-15 1.9-23.8 1.9l-12.5-.6c-.6 0-1.9 0-2.5-1.3a148.1 148.1 0 0 1 27.5-15.6c8.8-3.1 17.5-5 26.3-2.5l8.7 1.9c2.5 1.2 2.5 1.8.6 3.7m-83-103.1c-5 3.1-10 6.2-13.8 10.6-1.3 1.3-2.5.6-3.8-.6-2.5-3.1-3.7-7.5-5-11.9 1.3-4.4 2.5-8.1 5-11.3 1.3-1.8 2.5-1.8 3.8-.6 4.4 3.8 8.7 7.5 13.7 10 1.9 1.3 2.5 2.5 0 3.8m-23.1-24.4-3.1-.6a37 37 0 0 0-14.4-3.1c-5 0-9.4 1.8-14.4 3-1.2 0-2.5.7-3.1-.6-1.3-.6-.6-1.8 0-3 1.9-4.4 5-7 9.4-8.8 2.5-.6 3.7-1.9 5-4.4 1.2-2.5 8.7-7.5 12.5-7.5 1.2 0 1.9 1.3 1.9 2.5a41.3 41.3 0 0 0 6.2 22.5m-1.3 47.5-4.3 10-1.3 9.4c-.6 3.1.6 3.7-3.1 2.5-3.8-1.3-8.8-2.5-11.3-7.5a8 8 0 0 0-5.6-4.4 11.8 11.8 0 0 1-8.1-8.1c-.6-1.3-1.3-2.5 0-3.1 1.3-1.3 1.9-.7 3.1 0A53.7 53.7 0 0 0 297 345l4.4-1.9 2.5-.6-.6 2.5m-3.2-19.4c0 1.9-.6 3.1-2.5 3.8a25.8 25.8 0 0 1-18.1 0c-5.6-1.9-10.6-5-16.3-7.5l-3-1.9 3-1.3c6.3-3 12-6.8 18.8-8.7 1.9-1.3 3.8-1.3 6.3-1.3 3 0 6.8 1.3 10 2.6 1.8.6 1.8 1.2 1.8 3a17.3 17.3 0 0 0 0 11.3m-42.5 5-15-8.7c-3.7-1.9-3.7-1.9 0-3.8 6.9-3.7 13.8-8.7 21.3-11.2 8.1-3.8 16.2-7.5 25.6-6.9 4.4 0 8.1 1.3 11.9 3.1 1.2 1.3 3.1 1.9 1.9 4.4-1.3 2.5-2.6 2.5-4.4 1.9a25 25 0 0 0-25.6 1.9l-15 6.8c-2.6 1.3-2 2.5 0 3.8 8 3.1 15 8.1 23.7 10.6 5.6 1.9 11.3.6 16.9-1.3 1.2-.6 3.1-1.8 3.7.7.6 1.9 1.3 3.1-1.2 5a27.5 27.5 0 0 1-25 1.2c-6.3-2.5-13.1-3.7-18.8-7.5m160-119.4c-1.9-5-3.1-10.6-3.1-15.6 0-10 1.9-20 5.6-29.3l4.4-12.6c.6-.6.6-1.8 1.9-1.8 1.2 0 1.2 1.2 1.2 1.8 3.1 7.6 6.3 15 5.6 23.2a60 60 0 0 1-11.8 34.3c-1.3 2-3.1 2-3.8 0m-6.2 7a37.4 37.4 0 0 1-18.8 3.7c-9.4.6-18.1-3.8-26.2-8.2-5.6-2.4-11.3-6.2-16.3-9.3l-1.9-1.3c.7-1.2 1.3-1.2 2-1.2 10-1.3 20-3.2 30-.7a82 82 0 0 1 26.8 10l5 4.4c1.9 1.3 1.3 1.9-.6 2.5M592 180c-.6-6.9 1.3-13.8 3.1-20.6l2.5-6.3 1.3-1.2 1.2 1.2a115 115 0 0 1 10.6 40.7c0 5.6-.6 11.2-3.7 16.8-.6 2.5-1.9 2.5-3.8.7-6.2-9.4-10-20-11.2-31.3m21.3 33.8c3-3.2 7.5-5.7 11.8-7 10-3.7 20-7.4 30.6-6.2 6.3-.6 12 .7 18.2 1.3.6 0 1.9-.7 2.5.6 0 1.3-1.3 1.3-1.9 1.9-9.4 5-18.8 10.6-29.4 13.7a46.8 46.8 0 0 1-31.9-1.8c-1.8-.7-1.2-1.3 0-2.6m177 102c-9.5-4.4-17.6-10.7-27.6-15l-1.2-2.6c.6-8.7-3.8-13.7-11.3-18.1l-3.1-2.5a24 24 0 0 0-17.5-10.6c-4.4-.6-5.6-2.5-7.5-5.6-3.1-5-7.5-8.8-13.8-10.7a32.3 32.3 0 0 0-28.7 8.8 16.9 16.9 0 0 0-6.3 10.6c-.6 9.4 6.3 14.4 13.2 16.9 2.5.6 5 .6 6.9-1.3 1.2-.6 1.8-1.9 1.2-3.7-.6-1.9-1.9-1.9-3.8-1.3l-4.3-.6c-6.9-3.1-8.1-10.6-2.5-16.3 4.4-4.3 10-6.8 16.2-7.4 6.9-.7 13.1 3 16.3 9.3 4.4 9.4 2.5 18.1-2.5 26.9a50.1 50.1 0 0 1-13.8 16.3c-6.2 5-12.5 8-20.6 7.4h-68.8c-3 0-5.6-1.2-8-3a78.8 78.8 0 0 1-26.3-32.6c-2.5-5-4.4-10.6-3.8-16.9 0-1.2 0-2.4 1.3-3.7l31.9-36.9c1.8-2.5 3.7-2.5 6.2-1.8a43.7 43.7 0 0 0 19.4 4.3c11.2 0 21.2-4.3 31.2-9.3 7.5-3.8 14.4-9.4 22.5-12 1.9-.6 3.1-1.2 3.1-3-.6-2-1.8-2-3.7-2l-15-1.8a85.2 85.2 0 0 0-53.8 10c-.6.6-1.2 1.3-1.8.6v-2.5a60.8 60.8 0 0 0 0-23.7c-1.9-13.2-8.1-25.7-12.5-38.2-.6-1.2-1.3-2.4-3.1-2.4-1.3 0-2 1.2-2 2.4l-5 13.8-3 10a60.4 60.4 0 0 0 13 46.9c2 2.5 2 3.7 0 5.6l-31.2 36.9c-1.2 1.2-1.9 1.2-3.1 1.2-8.1 0-15-3.1-20.6-8.1-11.3-8.8-20-19.4-27.5-31.3-2.5-3.7-3.8-6.8-.6-11.2 2.5-4.4 5.6-8.1 10-11.3 5.6-3.7 11.8-5.6 18-9.3 5-3.2 10-6.9 13.2-12.5 3.1-6.9 1.3-15-6.3-18.2-5-2.4-10-1.8-15.6.7-4.4 1.8-6.2 5.6-6.9 10-.6 2.5 2 5 3.8 5 2.5 0 3.8-1.3 4.4-3.8 1.2-5.6 6.2-7.5 11.2-5.6a4.6 4.6 0 0 1 2.5 5.6c0 2.5-1.2 4.4-2.5 6.3l-9.4 7.5c-6.8 4.3-15 6.8-21.2 12.5-.6 0-1.3 1.2-1.9.6-1.2-.6-.6-1.3-.6-2.5v-55.6c0-9.4 7.5-18.2 16.9-20a42.4 42.4 0 0 0 27.5-17.5 38 38 0 0 1 14.4-13.8l9.3-2.5c1.3 0 2.5-.6 2.5-1.8 0-2-1.2-2-2.5-2.5a43.8 43.8 0 0 0-26.9-.7c-2.5.7-3 0-2.5-3.1.7-3.1 0-6.2-.6-9.4a26 26 0 0 0-13.1-15c-3.8-2.5-8.1-4.3-11.9-7.5-5-4.3-10-9.3-12.5-16.2-.6-1.9-1.2-3.1-3.7-3.1-2.5-.7-4.4.6-5.6 3-3.2 8.2-8.8 15-17 19.5L480.2 53c-6.9 5.7-11.2 12.5-10 21.3.6 3.7 0 4.4-3.7 3.1a47 47 0 0 0-26.3 1.3c-.6.6-1.9 1.2-1.9 2.5l2 1.8h2.4a32.4 32.4 0 0 1 20.6 14.4 39.8 39.8 0 0 0 30 19.4c7.6 1.2 15.7 11.2 15.7 18.7a16298.8 16298.8 0 0 1-.6 56.9l-.7 2.5c-1.2.6-1.9-.6-2.5-1.3l-5-3-20-12c-3.7-2.4-6.9-5.6-7.5-10-1.2-3 0-5 3.1-6.2 5-1.9 9.4 0 10.7 5.6.6 2.5 1.9 4.4 4.4 3.8 3-.7 3.7-2.5 3-5 0-2.5-.6-4.4-1.8-6.9-3.8-4.4-12.5-6.3-17.5-5-8.8 2.5-12.5 10.6-8.1 19.4 3.7 7.5 10.6 11.8 18.1 15.6 5.6 3.1 12.5 4.4 16.9 9.4 6.2 8.1 9.4 11.2 1.9 20-6.3 11.2-15 20-24.4 28.7A39.7 39.7 0 0 1 465 257c-4.4 1.2-8.7 2.5-12.5-2.5L440.1 240l-17.5-20.6c-1.2-1.3-.6-2.5 0-3.8l5-6.8a55.6 55.6 0 0 0 8.1-46.3c-1.8-6.9-5-12.5-6.2-18.8-.6-1.2-1.3-2.4-2.5-2.4a2.7 2.7 0 0 0-2.5 2.4c-3.8 8.2-7.5 16.3-10 25.7a65.2 65.2 0 0 0-3.1 36.2v2.5c-.6.7-1.9 0-2.5-.6-5.6-3.1-11.3-5-17.5-7.5-4.4-1.3-9.4-3.1-14.4-3.1-12.5-.7-25 1.2-37.5 2.5-1.3 0-2.5.6-2.5 1.8-.6 2 .6 2 1.9 2.6 2.5 1.8 5.6 1.8 8.1 3.7 8.8 5 17.5 10.6 27.5 14.4a47.2 47.2 0 0 0 24.4 3.1c5-.6 10-1.9 14.4-3.8 2.4-.6 3.7-.6 5.6 1.3l28.1 33.1c1.9 1.3 3.8 3.2 3.8 5.7 0 5.6-.7 11.2-2.6 16.2a88.3 88.3 0 0 1-25 33.8c-3 1.8-5.6 5-10 5H339c-2.5 0-4.4-.7-6.3-2a66.3 66.3 0 0 1-20-17.4 38.4 38.4 0 0 1-7.5-21.9c.6-7.5 5.6-15 11.9-18.1 7.5-3.1 20.6 2.5 25 8.7 2.5 3.1 3.1 6.3.6 10-2.5 3.1-5 5.6-9.4 4.4-1.8 0-3 .6-3.7 1.9-.6 1.9.6 2.5 1.3 3.7 1.2 1.3 3 1.3 4.3 1.3 3.8.6 6.3-1.3 8.8-3.1 8.1-5 9.4-16.3 2.5-23.2l-5-4.4c-12.5-8.7-30.6-10-40 7-1.3 2.4-2.5 3-5.6 3.7-7 .6-12.6 3.1-17 8.7l-5 5c-6.8 3.8-11.8 8.8-11.2 17.5 0 1.3 0 1.9-1.2 2.5l-27.5 15c-1.9 1.3-3.8 2.5-3.2 5 0 1.9 1.3 3.1 3.2 3.8l1.8.6c8.2 5 16.3 10.6 25 14.4 2 .6 2 1.2 2 3.1-.7 6.9 3 11.9 8 15.6 2 1.9 5 1.9 7 5 3.7 6.3 10 9.4 16.8 10 3.8.6 6.3 2.5 8.1 6.3a22.3 22.3 0 0 0 23.8 10.6c7.5-1.3 14.4-5 19.4-10.6 5.6-5.6 6.2-11.3 2.4-18.1-2.4-5.7-11.2-9.4-16.2-7.6-1.9.7-3.1 2-2.5 4.4 0 1.9 1.9 2.5 3.8 1.9 3.7-.6 6.8.6 8.7 3.8 1.9 2.4 2.5 5.6.6 9.3-3.1 5.6-8.7 7.5-14.4 10-12.4 4.4-21.8-5.6-23-16.2a32.1 32.1 0 0 1 4.3-18.8 56 56 0 0 1 25-23.1l3.8-1.3H412c1.9 0 3.1.7 3.8 3.2 0 1.2 1.2 2.5 2.4 3.1l12.6 10.6a84 84 0 0 1 13.7 19.4c2.5 5 5 10.6 5.6 16.3.6 2.4 0 4.3-1.2 5.6L437.6 395l-16.9 19.4c-4.3 5.6-4.3 5.6-11.2 3.7l-1.3-.6c-15-5-29.3-2.5-43 4.4-9.4 5-17.6 10.6-27 14.4-1.2.6-2.4.6-1.8 2.4 0 1.3 1.2 2 2.5 2l2.5.6c8.7 1.2 17.5 1.2 26.9 1.8 7.4.6 15.6-.6 23-3.7 5.7-1.9 11.3-3.8 17-6.9h1.8c1.3.6.6 1.3.6 2.5l-1.8 6.3c-.6 10 1.2 19.3 3.7 28.7l10 26.3c.6 1.2 1.3 2.4 3.1 2.4 2 0 2-1.2 2.6-2.4l6.2-19.4c2.5-8.8 2.5-16.9.6-25.6a72 72 0 0 0-13.1-27c-1.3-1.2-1.3-2.4 0-3.7l25.6-29.4c2.5-3.7 5-5 10-4.3a31 31 0 0 1 19.4 8.7 116 116 0 0 1 28.1 32.5c1.3 1.9 1.3 3.1.6 5-3 5-6.8 10-12.4 12.5a108 108 0 0 0-18.8 10 27.3 27.3 0 0 0-10 10.6c-3.1 7-1.3 13.2 4.4 17 5.6 3.7 16.2 2.4 21.2-2.6 1.9-1.9 3.1-5 3.1-8.1 0-2.5-1.2-3.8-3.7-3.8-1.9-.6-3.8.7-4.4 3.2 0 4.4-3.1 6.2-6.9 6.9-5.6 0-8.7-4.4-6.2-9.4 3.1-6.3 8.1-9.4 13.8-12.5 5.6-3.1 11.8-5.6 17.4-10 .7-.6 2-1.9 3.2-1.3 1.2.6.6 1.9.6 3.1v55c0 9.4-7.5 18.2-16.9 20a37 37 0 0 0-26.9 17c-6.2 8.7-13 15.5-24.3 16.2-1.3.6-2.5.6-2.5 2.5 0 1.2 1.2 1.2 2.5 1.9a42 42 0 0 0 26.2 1.2c3.1-1.3 3.8-.6 3.1 3.1v6.3c2 9.4 8.2 15 15.7 18.7 10 5.6 18.7 11.9 22.5 23.1a4.7 4.7 0 0 0 4.4 3.2c1.8 0 3.7-.6 4.3-2.5l1.9-4.4c3.1-5.6 6.9-10 11.9-13.8l13.7-8c7.5-5.7 12.5-12.6 11.3-23.2-.6-2.5.6-3.1 3.1-2.5h1.3a42.2 42.2 0 0 0 26.2-1.9c.6 0 1.9-.6 1.3-1.9l-1.3-1.2-1.9-.6a28 28 0 0 1-20-11.9l-6.9-9.4a38.8 38.8 0 0 0-23.7-12.5 20.5 20.5 0 0 1-16.3-18.7V448c0-.6 0-1.9 1.3-2.5 1.3-.6 1.9.6 2.5 1.3l1.9 1.2c5 3.8 11.2 5.6 16.2 9.4 5 3.1 10.6 5.6 13.1 11.9 1.3 1.9 2 4.4.7 6.2a10 10 0 0 1-6.9 3.1c-4.4-.6-5.6-1.8-6.9-6.8-.6-2.5-1.9-3.8-4.4-3.1-2.5 0-3.7 1.8-3 4.3 0 1.9 0 4.4 1.8 6.3 3.8 5 14.4 7.5 20 5 6.3-3.1 8.8-8.8 7.5-13.8-.6-3.7-2.5-6.9-5-10-5-5.6-11.9-9.4-18.8-12.5a33.4 33.4 0 0 1-16.2-11.9c-3.1-4.3-3.1-5.6-.6-10a136.3 136.3 0 0 1 26.2-30.6c5.6-4.4 11.9-8.7 20-8.7 1.3.6 2.5 0 3.8-.6 1.9-.7 3.1 0 3.7 1.2l28.8 33.8c1.2.6 1.2 1.8 0 3a91 91 0 0 0-12.5 23.2 60.4 60.4 0 0 0-1.9 23.8c1.3 8.7 5.6 16.8 7.5 25.6.6 1.2 1.3 1.9 2.5 1.9 1.3 0 2.5-.7 3.1-2l10.6-28.7A75.6 75.6 0 0 0 614 442l-1.3-7.5.6-2.5 1.3.6 13.1 5.6c5 1.9 9.4 3.8 14.4 4.4 11.3 1.9 22.5 0 33.1-.6l8.8-1.3c1.2 0 3.1-.6 3.1-1.9 0-1.8-1.3-2.4-2.5-2.4-9.4-3.8-16.9-9.4-25.6-13.8A55.9 55.9 0 0 0 632 415c-7.5 0-15 1.9-21.9 3.8-1.9.6-3.1.6-4.4-.7l-8.7-10-20-23.1c-3.8-4.4-5.6-8.8-3.1-14.4A83.5 83.5 0 0 1 605 330c.6-.6 1.9-1.9 1.9-3.1.6-2.5 2.5-3.1 4.4-3.1a27829.4 27829.4 0 0 0 79.4 1.2 72.4 72.4 0 0 1 23 22.5c5 9.4 7 18.1 2.6 27.5-3.1 5.6-10 10-15.6 9.4a33 33 0 0 1-18.2-8.8c-2.5-3.1-3.7-6.9-1.9-10 2-4.4 5-6.2 9.4-5.6 1.9.6 3.8.6 4.4-1.9.6-2.5-1.3-3.7-3.1-4.4-3.8-.6-7.5 0-10.6 2a16 16 0 0 0-2.5 25c5 3.7 10 6.2 15.6 8a23.3 23.3 0 0 0 28.1-10.6c1.3-3.1 3.1-4.4 6.9-4.4 7.5-1.2 13.7-4.3 17.5-11.2l3.1-2.5c6.3-2.5 11.3-7.5 11.3-14.4 0-5 2.5-6.2 6.8-8.7l22.5-12.5c1.9-1.3 3.8-1.9 3.8-4.4 0-2.5-1.9-3.8-3.8-4.4"/></g></svg>