<svg xmlns="http://www.w3.org/2000/svg" viewBox="0 0 1024 336.1"><g fill="#488A8C"><path d="M890.7,179l-30.9,0l-1,13.7l-0.5,0c-6-9.2-16.1-16.4-33.3-16.4c-29.1,0-53.9,22.8-53.9,57.8 c0,33.1,22.6,53.4,50.4,53.4c14.1,0,25.6-5.6,32.9-15.3l0.4,0l0,7.2c0,21.4-14.5,29.6-31,29.6c-14.3,0-28-5-35.3-9.4l-7.2,26.9 c10.5,6.1,27.5,9.5,43.4,9.4c16.2,0,34.1-2.6,47.4-13.9c13.6-11.8,17.8-30.5,17.8-50.7l0-60.5C889.8,193.6,890.2,185.1,890.7,179 M853.3,246.2c-2.3,8.6-10.4,15.7-20.9,15.7c-16.1,0-24.9-13.6-24.9-28.5c0-20.5,11.8-30.9,24.8-30.9c11,0,18.6,6.6,21.3,17.1 c0.4,1.8,0.5,3.8,0.5,5.7l0,11.7C854.1,239.8,853.9,243.5,853.3,246.2"/><path d="M756.7,232.1c0-25.1-13.3-55.7-52.8-55.7c-42.3,0-59,33.8-59,58.6c0,34.1,23,56.4,62.5,56.3 c15.9,0,30.3-2.4,42.9-7.6l-4.9-23.7c-10.5,3.5-20.7,5-33.2,5c-16.9,0-32.2-6.8-33.5-20l76.6,0C756,242.7,756.7,237.4,756.7,232.1 M678.3,220.8c1.2-8.4,7.6-21.3,23.7-21.3c17.8,0,21.4,15,21.4,21.2L678.3,220.8z"/><path d="M483.5,176.6c-39.7,0-63.9,24.4-63.9,58.5c0,35.3,27.7,56.5,61.5,56.5c33.7,0,63.1-20.7,63-58.9 C544.1,200.1,519.6,176.5,483.5,176.6 M482.1,266.5c-15.9,0-25.4-13.6-25.4-32.3c0-16.6,7.5-32.6,25.6-32.6 c17.3,0,24.8,15.8,24.8,32.3C507,254.9,496.7,266.5,482.1,266.5"/><path d="M1024,232c0-25.1-13.3-55.7-52.8-55.7c-42.3,0-59,33.8-59,58.6c0,34.1,23,56.4,62.5,56.4 c15.9,0,30.3-2.4,42.9-7.6l-4.9-23.7c-10.5,3.5-20.7,5-33.2,5c-16.9,0-32.2-6.8-33.5-20l76.6,0C1023.3,242.6,1024,237.3,1024,232 M945.7,220.7c1.2-8.4,7.6-21.3,23.7-21.3c17.8,0,21.4,15,21.4,21.2L945.7,220.7z"/><path d="M571,155.3l34.6-8l0,31.8l25.6,0l0,26.6l-25.6,0l0,36.3c0,13.4,2.6,20.5,14.3,20.4c4.9,0,8.7-0.5,10.9-1.1 l0.3,26.9c-4.5,1.7-13.3,3.3-23.5,3.3c-11.9,0-21.6-4.4-27.2-10.3c-6.4-6.8-9.5-17.8-9.5-32.9l0-42.5l-15.1,0l0-26.6l15.1,0 L571,155.3z"/><path d="M368.3,201h0.9c5.9-17.5,20.7-24.4,32.2-24.4c3.2,0,4.8,0,7.6,0.7l0,33c-2.9-0.6-5.9-1.1-10.2-1.1 c-14.7,0-23.2,7.4-25.2,17.9c-0.3,2.1-0.4,4.3-0.4,6.5l0,55.4l-35.7,0l0-72.4c0-17.8-0.2-28-0.9-37.2l30.6,0L368.3,201z"/><path d="M229.3,0.6c62.4,0,113,35.2,113.1,113c0,77.2-50.5,113-113,113.1l-31.6,0l0,62.3l-63.7,0l0-62.3l0-61.1 l63.7,0l20.1,0l2.9,0c28.6,0,51.9-16.5,51.8-51.9c0-35.7-23.2-51.9-51.9-51.8l-29.3,0l0-61.2L229.3,0.6z"/></g><polygon fill="#8AB53C" points="57.9,65 0,65 0,0.5 0.2,0.1 181.3,0 181.6,0.3 181.6,64.9 123.8,64.9 123.9,289.5 58,289.5"/></svg>