<svg xmlns="http://www.w3.org/2000/svg" viewBox="0 0 457.82 451.14"><ellipse cx="228.91" cy="318.98" fill="#f5f5f5" rx="228.91" ry="132.16"/><g fill="#e0e0e0"><ellipse cx="250.89" cy="416.88" rx="27.9" ry="16.11"/><path d="M291.75 393c7.16 4.13 7.16 10.83 0 15s-18.75 4.13-25.91 0-7.15-10.83 0-15 18.76-4.13 25.91 0ZM64.2 330.15l180.21-104a21.12 21.12 0 0 1 21.14 0l44.21 26a6.9 6.9 0 0 1 0 11.95l-180.2 104a21.19 21.19 0 0 1-21.15 0l-44.21-26a6.9 6.9 0 0 1 0-11.95ZM299.63 308.21l57.53-33.44a25.6 25.6 0 0 1 25.59 0l53.48 31.39a8.35 8.35 0 0 1 0 14.46l-57.53 33.44a25.6 25.6 0 0 1-25.59 0l-53.48-31.39a8.35 8.35 0 0 1 0-14.46Z"/></g><path fill="#5fceb3" d="m163.19 370.35-8.7 5.05s4.39-14 2-28.11a27 27 0 0 0-3.54-9.39c-.69-1.42-5.93-10.22-1.31-14.27s15.45 4 15 25.73a84.51 84.51 0 0 1-3.45 20.99Z"/><path d="m163.19 370.35-8.7 5.05s4.39-14 2-28.11a27 27 0 0 0-3.54-9.39c-.69-1.42-5.93-10.22-1.31-14.27s15.45 4 15 25.73a84.51 84.51 0 0 1-3.45 20.99Z" opacity=".3"/><path fill="#fff" d="M159.15 373.09h-.14a.4.4 0 0 1-.23-.51c0-.09 3.27-9.1 3.1-23.6s-7.69-22.05-7.77-22.13a.4.4 0 0 1 0-.56.4.4 0 0 1 .56 0c.08.08 7.83 7.94 8 22.68s-3.12 23.79-3.15 23.88a.4.4 0 0 1-.37.24Z"/><path fill="#5fceb3" d="m156.44 374.29-14.37 8.46s-6.58-1-6.08-7.17 3.17-7.65-.16-10.37-4.19-2.91-4-5.58 2-3.83 2.8-4.88 3.2-3.28 1.54-6.5-3.9-6.33-.57-7.8c2-.88 5.34.22 7.55 2.58s4 4 6.15 4.59 6.49.59 6.34 4.21-1.09 4.87-.21 6.48c1.62 3.03 8.69 4.66 1.01 15.98Z"/><path fill="#fff" d="M150.59 378.13a.39.39 0 0 1-.36-.42c0-.22 1.54-21.28-13.07-35.09a.4.4 0 0 1 0-.56.38.38 0 0 1 .55 0c14.9 14.07 13.33 35.5 13.31 35.72a.38.38 0 0 1-.43.35Z"/><path fill="#fff" d="M148.01 359.76a.39.39 0 0 1-.36-.42 12.8 12.8 0 0 1 4.69-9.13.42.42 0 0 1 .56.09.41.41 0 0 1-.09.55 12.2 12.2 0 0 0-4.37 8.55.39.39 0 0 1-.43.36ZM149.07 363.42a.39.39 0 0 1-.29-.13s-3.65-3.9-11.88-2.78a.393.393 0 0 1-.1-.78c8.66-1.2 12.41 2.86 12.57 3a.41.41 0 0 1 0 .56.39.39 0 0 1-.3.13Z"/><path fill="#263238" d="m223.41 304.57-29.62 16.86a15.22 15.22 0 0 1-15.12 0l-19-11-2.16-1.25a14.83 14.83 0 0 1-7.41-12.83v-54.7l44.46-25.31v55.83a12.79 12.79 0 0 0 6.39 11.08l22.48 13a4.79 4.79 0 0 1-.02 8.32Z"/><path fill="#37474f" d="M187.45 323.35a15.1 15.1 0 0 0 6.34-1.94l29.62-16.84a4.79 4.79 0 0 0 0-8.31l-15.35-8.87h-20.61Z"/><path fill="#37474f" d="m222.91 292.57.82.65a5.65 5.65 0 0 1 2.12 4.41v2.77h-3Z"/><path fill="#455a64" d="M197.98 220.57v50.23a12.41 12.41 0 0 0 6.19 10.77l18.74 11a4.63 4.63 0 0 1 0 8l-2.13 1.21-26.55 15.12a14.72 14.72 0 0 1-14.63-.05l-18.42-10.87a12.38 12.38 0 0 1-6.27-10.69v-50.23Z"/><path fill="#263238" d="M197.98 270.8v-50.23l-43 24.49v50.23a12.38 12.38 0 0 0 6.19 10.73l42.41-24.89a12.38 12.38 0 0 1-5.6-10.33ZM81.2 321.02l-4.11 2.38v7.51a14.55 14.55 0 0 1-7.49-2.07l-.32-.19a8.07 8.07 0 0 1-3.75-5.15 4.69 4.69 0 0 1-.23-1.42v-10.23Z"/><path fill="#37474f" d="m259.7 45.06-.32-.2a14.66 14.66 0 0 0-7.47-2.06 4.63 4.63 0 0 0-2.4.64l-177 101.79a14.33 14.33 0 0 0-7.16 12.4v154.22l15.89 9.17 168.16-96.67a14.33 14.33 0 0 0 7.16-12.4V52.04h7.15a8.12 8.12 0 0 0-4.01-6.98Z"/><path fill="#263238" d="M66.83 151.21a14.35 14.35 0 0 0-1.53 6.42v154.22l15.9 9.17 5.95-3.43v-153.8Z"/><path fill="#37474f" d="M72.46 315.98v10.23a4.69 4.69 0 0 0 7 4.06l177-101.79a14.33 14.33 0 0 0 7.16-12.4v-10.51Z"/><path fill="#455a64" d="M263.67 51.63a4.69 4.69 0 0 0-7-4.06l-177 101.79a14.33 14.33 0 0 0-7.16 12.4v154.22l191.16-110.41"/><path fill="#5fceb3" d="M253.41 58.73a5.15 5.15 0 0 0-2.33.54l-166.4 95.64a12.65 12.65 0 0 0-6.33 11v131.35a4.19 4.19 0 0 0 .34 1.65 4.15 4.15 0 0 0 5.88 1.94l166.34-95.64a12.66 12.66 0 0 0 6.32-11V62.86a4.14 4.14 0 0 0-3.82-4.13Z"/><path fill="#fff" d="M253.41 58.73a5.15 5.15 0 0 0-2.33.54l-166.4 95.64a12.65 12.65 0 0 0-6.33 11v131.35a4.19 4.19 0 0 0 .34 1.65 4.15 4.15 0 0 0 5.88 1.94l166.34-95.64a12.66 12.66 0 0 0 6.32-11V62.86a4.14 4.14 0 0 0-3.82-4.13Z" opacity=".4"/><path fill="#e0e0e0" d="M93.54 174v147.45c0 2.36.87 3.95 2.2 4.48l5.65 3.1v-5l.81-151.59-7.39-3.73a12.81 12.81 0 0 0-1.27 5.29Z"/><path fill="#f0f0f0" d="m94.81 168.69 7.39 3.73L280.98 67.57l4.26-2.47-5.89-3.32-.16-.1a3.41 3.41 0 0 0-3.53.26L98.91 163.84a10.85 10.85 0 0 0-4.1 4.85Z"/><path fill="#fff" d="M99.91 177.21v146.48c0 2 .65 3.5 1.69 4.18l.33.19a3.48 3.48 0 0 0 3.26-.38l175.79-101.26c2.92-1.69 5.29-6.21 5.29-10.1V69.85c0-2-.61-3.4-1.58-4.11a2.06 2.06 0 0 0-.54-.3 3.5 3.5 0 0 0-3.17.42L105.23 167.12a10.64 10.64 0 0 0-3.91 4.58 12.85 12.85 0 0 0-1.41 5.51Z"/><path fill="#5fceb3" d="m262.61 163.95-83.7 48.35a2.78 2.78 0 0 1-4.18-2.41v-44.8a13.06 13.06 0 0 1 6.52-11.3l81.78-47.22a4 4 0 0 1 6 3.46v42.85a12.8 12.8 0 0 1-6.42 11.07ZM187.97 237.73l-10.34 6c-1.81 1.05-3.28-.06-3.28-2.48v-10.79a7.88 7.88 0 0 1 3.28-6.28l10.34-6c1.81-1.05 3.28.06 3.28 2.48v10.76a7.85 7.85 0 0 1-3.28 6.31ZM213.19 223.25l-10.34 6c-1.81 1-3.28-.06-3.28-2.48v-10.79a7.85 7.85 0 0 1 3.28-6.27l10.34-6c1.81-1 3.28.06 3.28 2.48v10.76a7.85 7.85 0 0 1-3.28 6.3ZM239.15 208.25l-10.34 6c-1.81 1-3.28-.06-3.28-2.48v-10.8a7.88 7.88 0 0 1 3.28-6.27l10.34-6c1.81-1 3.28.07 3.28 2.49v10.76a7.85 7.85 0 0 1-3.28 6.3ZM265.12 193.25l-10.34 6c-1.81 1-3.28-.07-3.28-2.48v-10.8a7.88 7.88 0 0 1 3.28-6.27l10.34-6c1.81-1 3.28.07 3.28 2.48v10.77a7.86 7.86 0 0 1-3.28 6.3ZM187.97 266.22l-10.34 6c-1.81 1-3.28-.07-3.28-2.48v-10.8a7.86 7.86 0 0 1 3.28-6.27l10.34-6c1.81-1.05 3.28.07 3.28 2.48v10.77a7.88 7.88 0 0 1-3.28 6.3ZM213.19 251.74l-10.34 6c-1.81 1.05-3.28-.07-3.28-2.48v-10.8a7.88 7.88 0 0 1 3.28-6.27l10.34-6c1.81-1 3.28.07 3.28 2.48v10.8a7.86 7.86 0 0 1-3.28 6.27ZM239.15 236.74l-10.34 6c-1.81 1-3.28-.07-3.28-2.48v-10.8a7.86 7.86 0 0 1 3.28-6.27l10.34-6c1.81-1.05 3.28.06 3.28 2.48v10.8a7.88 7.88 0 0 1-3.28 6.27ZM265.12 221.73l-10.34 6c-1.81 1.05-3.28-.06-3.28-2.48v-10.79a7.85 7.85 0 0 1 3.28-6.27l10.34-6c1.81-1.05 3.28.06 3.28 2.48v10.76a7.85 7.85 0 0 1-3.28 6.3Z"/><g fill="#fff" opacity=".7"><path d="m262.61 163.95-83.7 48.35a2.78 2.78 0 0 1-4.18-2.41v-44.8a13.06 13.06 0 0 1 6.52-11.3l81.78-47.22a4 4 0 0 1 6 3.46v42.85a12.8 12.8 0 0 1-6.42 11.07ZM187.97 237.73l-10.34 6c-1.81 1.05-3.28-.06-3.28-2.48v-10.79a7.88 7.88 0 0 1 3.28-6.28l10.34-6c1.81-1.05 3.28.06 3.28 2.48v10.76a7.85 7.85 0 0 1-3.28 6.31ZM213.19 223.25l-10.34 6c-1.81 1-3.28-.06-3.28-2.48v-10.79a7.85 7.85 0 0 1 3.28-6.27l10.34-6c1.81-1 3.28.06 3.28 2.48v10.76a7.85 7.85 0 0 1-3.28 6.3ZM239.15 208.25l-10.34 6c-1.81 1-3.28-.06-3.28-2.48v-10.8a7.88 7.88 0 0 1 3.28-6.27l10.34-6c1.81-1 3.28.07 3.28 2.49v10.76a7.85 7.85 0 0 1-3.28 6.3ZM265.12 193.25l-10.34 6c-1.81 1-3.28-.07-3.28-2.48v-10.8a7.88 7.88 0 0 1 3.28-6.27l10.34-6c1.81-1 3.28.07 3.28 2.48v10.77a7.86 7.86 0 0 1-3.28 6.3ZM187.97 266.22l-10.34 6c-1.81 1-3.28-.07-3.28-2.48v-10.8a7.86 7.86 0 0 1 3.28-6.27l10.34-6c1.81-1.05 3.28.07 3.28 2.48v10.77a7.88 7.88 0 0 1-3.28 6.3ZM213.19 251.74l-10.34 6c-1.81 1.05-3.28-.07-3.28-2.48v-10.8a7.88 7.88 0 0 1 3.28-6.27l10.34-6c1.81-1 3.28.07 3.28 2.48v10.8a7.86 7.86 0 0 1-3.28 6.27ZM239.15 236.74l-10.34 6c-1.81 1-3.28-.07-3.28-2.48v-10.8a7.86 7.86 0 0 1 3.28-6.27l10.34-6c1.81-1.05 3.28.06 3.28 2.48v10.8a7.88 7.88 0 0 1-3.28 6.27ZM265.12 221.73l-10.34 6c-1.81 1.05-3.28-.06-3.28-2.48v-10.79a7.85 7.85 0 0 1 3.28-6.27l10.34-6c1.81-1.05 3.28.06 3.28 2.48v10.76a7.85 7.85 0 0 1-3.28 6.3Z"/></g><path fill="#5fceb3" d="m158.67 297.05-53.76 31.02a3.46 3.46 0 0 1-5.2-3v-144.5l58.93-34Z"/><path fill="#fff" d="m158.67 297.05-53.76 31.02a3.46 3.46 0 0 1-5.2-3v-144.5l58.93-34Z" opacity=".7"/><path fill="#fafafa" d="M116 190.11a9 9 0 0 1-4.07 7c-2.24 1.3-4.06.25-4.06-2.34a9 9 0 0 1 4.06-7c2.25-1.3 4.07-.2 4.07 2.34ZM116 205.68a9 9 0 0 1-4.07 7c-2.24 1.3-4.06.25-4.06-2.34a9 9 0 0 1 4.06-7.05c2.25-1.25 4.07-.2 4.07 2.39ZM116 221.25a9 9 0 0 1-4.07 7c-2.24 1.3-4.06.25-4.06-2.35a9 9 0 0 1 4.06-7c2.25-1.33 4.07-.24 4.07 2.35ZM116 236.82a9 9 0 0 1-4.07 7c-2.24 1.3-4.06.24-4.06-2.35a9 9 0 0 1 4.06-7c2.25-1.3 4.07-.25 4.07 2.35ZM125.06 186.36a1.47 1.47 0 0 1-.74-2.75l23.82-13.75a1.472 1.472 0 0 1 1.47 2.55l-23.82 13.75a1.49 1.49 0 0 1-.73.2ZM125.06 201.93a1.47 1.47 0 0 1-.74-2.75l23.82-13.76a1.48 1.48 0 0 1 2 .54 1.46 1.46 0 0 1-.54 2l-23.82 13.76a1.49 1.49 0 0 1-.72.21ZM125.06 217.49a1.47 1.47 0 0 1-.74-2.74l23.82-13.76a1.48 1.48 0 0 1 2 .54 1.46 1.46 0 0 1-.54 2l-23.82 13.76a1.47 1.47 0 0 1-.72.2ZM125.06 233.06a1.47 1.47 0 0 1-.74-2.75l23.82-13.74a1.48 1.48 0 0 1 2 .54 1.46 1.46 0 0 1-.54 2l-23.82 13.75a1.39 1.39 0 0 1-.72.2ZM111.91 269.57a1.47 1.47 0 0 1-.74-2.75l36.94-21.32a1.47 1.47 0 1 1 1.47 2.54l-36.94 21.33a1.39 1.39 0 0 1-.73.2ZM111.91 282.57a1.47 1.47 0 0 1-.74-2.75l36.94-21.33a1.48 1.48 0 0 1 2 .54 1.46 1.46 0 0 1-.54 2l-36.94 21.33a1.39 1.39 0 0 1-.72.21ZM111.91 295.57a1.47 1.47 0 0 1-.74-2.75l36.94-21.33a1.48 1.48 0 0 1 2 .54 1.46 1.46 0 0 1-.54 2l-36.94 21.33a1.49 1.49 0 0 1-.72.21ZM111.91 308.51a1.47 1.47 0 0 1-.74-2.75l36.94-21.33a1.472 1.472 0 0 1 1.47 2.55l-36.94 21.33a1.49 1.49 0 0 1-.73.2ZM99.91 263.06a.47.47 0 0 1-.42-.24.49.49 0 0 1 .17-.67l57.22-33a.48.48 0 0 1 .67.18.5.5 0 0 1-.18.67l-57.21 33a.57.57 0 0 1-.25.06Z"/><path fill="#e6e6e6" d="m104.05 168.12 177.91-103a3.14 3.14 0 0 1 4.73 2.71v7.74L99.74 183.27v-6.06c0-3.1 1.64-7.53 4.31-9.09Z"/><path fill="#f0f0f0" d="M283.78 65.51a2 2 0 0 1 .76.15 1.17 1.17 0 0 1 .33.2 4.17 4.17 0 0 1 1.23 3.41v147.36c0 3.56-2.23 7.86-4.88 9.38l-176.8 101.88a3.37 3.37 0 0 1-1.66.51 1.83 1.83 0 0 1-.77-.16l-.28-.15c-.81-.56-1.27-1.81-1.27-3.45V177.28a12.09 12.09 0 0 1 1.29-5.16 9.79 9.79 0 0 1 3.58-4.22l176.8-101.87a3.35 3.35 0 0 1 1.67-.52m0-.89a4.29 4.29 0 0 0-2.11.63L104.91 167.13a10.69 10.69 0 0 0-3.94 4.6 12.92 12.92 0 0 0-1.38 5.55v147.36c0 2.05.65 3.52 1.7 4.21l.34.19a2.71 2.71 0 0 0 1.17.26 4.29 4.29 0 0 0 2.11-.64l176.8-101.87c2.94-1.7 5.32-6.25 5.32-10.16V69.27c0-2-.61-3.41-1.59-4.13a2.23 2.23 0 0 0-.54-.31 2.74 2.74 0 0 0-1.08-.21Z"/><path fill="#37474f" d="M333.61 196.09v4.65l20.57-7.42 16.18-34.08-7.59-1.01-13.68 28.46-15.48 9.4z"/><path fill="#455a64" d="m333.61 196.09 5.09 2.64v4.65l-5.09-2.64v-4.65z"/><path fill="#263238" d="M338.7 198.73v4.65l17.52-10.06 15.1-32.41-3.45-.04-13.69 28.46-15.48 9.4z"/><path fill="#37474f" d="m378.87 228 29.83-59.9 10 3.96-24.32 63.33-15.51-7.39z"/><path fill="#5fceb3" d="M418.7 146.5c-1.72-1-4.11-.86-6.74.66-5.25 3-9.51 10.4-9.51 16.47 0 3.31 1.28 5.54 3.29 6.39l11.24 6.55 13.41-23.29Z"/><ellipse cx="445.03" cy="189.48" fill="#5fceb3" rx="13.45" ry="7.77" transform="rotate(-60 413.33 195.531)"/><ellipse cx="445.03" cy="189.48" opacity=".3" rx="13.45" ry="7.77" transform="rotate(-60 413.33 195.531)"/><path fill="#5fceb3" d="M428.76 162.27a10.69 10.69 0 0 1-4.82 8.36c-2.67 1.54-4.83.29-4.83-2.79a10.66 10.66 0 0 1 4.83-8.36c2.66-1.54 4.82-.29 4.82 2.79Z"/><path d="M428.76 162.27a10.69 10.69 0 0 1-4.82 8.36c-2.67 1.54-4.83.29-4.83-2.79a10.66 10.66 0 0 1 4.83-8.36c2.66-1.54 4.82-.29 4.82 2.79Z" opacity=".6"/><path fill="#37474f" d="M372.13 156.97c.35.57 38 8.08 38 8.08s3.52-.53 3.52-3.85a4.51 4.51 0 0 0-3.17-4.23l-37.57-4.87Z"/><path fill="#5fceb3" d="M369.33 143.12c-1.19-.69-2.84-.59-4.66.46a14.52 14.52 0 0 0-6.58 11.39c0 2.29.89 3.83 2.28 4.42l7.78 4.51 9.27-16.1Z"/><path fill="#5fceb3" d="M379.53 152.16a14.52 14.52 0 0 1-6.62 11.41c-3.63 2.1-6.58.4-6.58-3.79a14.55 14.55 0 0 1 6.58-11.42c3.67-2.1 6.62-.4 6.62 3.8Z"/><path d="M379.53 152.16a14.52 14.52 0 0 1-6.62 11.41c-3.63 2.1-6.58.4-6.58-3.79a14.55 14.55 0 0 1 6.58-11.42c3.67-2.1 6.62-.4 6.62 3.8Z" opacity=".3"/><path fill="#5fceb3" d="M376.29 154.03a7.41 7.41 0 0 1-3.34 5.78c-1.84 1.06-3.34.2-3.34-1.93a7.38 7.38 0 0 1 3.34-5.78c1.84-1.07 3.34-.2 3.34 1.93Z"/><path d="M376.29 154.03a7.41 7.41 0 0 1-3.34 5.78c-1.84 1.06-3.34.2-3.34-1.93a7.38 7.38 0 0 1 3.34-5.78c1.84-1.07 3.34-.2 3.34 1.93Z" opacity=".6"/><ellipse cx="335.17" cy="321.91" fill="#37474f" rx="25.21" ry="14.55" transform="rotate(-72.5 307.973 324.086)"/><path fill="#37474f" d="m305.18 320.97 12.53 7.73 18.84-46.41-1.45-.98-29.92 39.66z"/><ellipse cx="347.97" cy="329.78" fill="#263238" rx="25.21" ry="14.55" transform="rotate(-72.5 320.771 331.954)"/><ellipse cx="422.76" cy="321.33" fill="#37474f" rx="24.38" ry="14.55" transform="rotate(-72.5 395.563 323.502)"/><path fill="#37474f" d="m392.37 319.31 13.26 8.23 17.78-47.12-12.95-6.17-18.09 45.06z"/><path fill="#5fceb3" d="m323.97 228 48.16 27.35 36.57-21.28-47.65-27.27-37.08 21.2z"/><path d="m408.7 234.07-12.49 7.27h-.01l-1.86 1.09-22.21 12.92L323.96 228l22.73-12.99 1.75-1.01 12.61-7.2 47.65 27.27z" opacity=".2"/><path fill="#5fceb3" d="M408.7 234.07v63.68L396.21 305l-1.74 1-12 6.94c-3-9.59-11.24-11.66-19.15-4.42a33.94 33.94 0 0 0-7.85 11.48v-14.85l16.62-49.8 22.21-12.92 1.86-1.09Z"/><path d="M408.7 234.07v63.68L396.21 305l-1.74 1-12 6.94c-3-9.59-11.24-11.66-19.15-4.42a33.94 33.94 0 0 0-7.85 11.48v-14.85l16.62-49.8 22.21-12.92 1.86-1.09Z" opacity=".4"/><path fill="#5fceb3" d="m307.35 277.8 48.16 27.35v14.86l-9.95-5.43v15.72l-28.85-16.54v-15.83l-9.36-5.28V277.8z"/><path fill="#5fceb3" d="m323.97 228-16.62 49.8 48.16 27.35 16.62-49.8L323.97 228z"/><path fill="#fff" d="m323.97 228-16.62 49.8 48.16 27.35 16.62-49.8L323.97 228z" opacity=".2"/><path fill="#37474f" d="m355.51 320.01-9.94-5.44c-3.17 6.28-4.87 13.41-4.27 19.59 1.11 11.31 9.5 15.12 18.74 8.51 6.44-4.61 11.58-13.05 13.74-21.58Z"/><path fill="#37474f" d="m346.77 344.7 13.26 8.23 18.84-46.4-1.44-.99-30.66 39.16z"/><ellipse cx="388.89" cy="353.06" fill="#37474f" rx="25.21" ry="14.55" transform="rotate(-72.5 361.69 355.233)"/><ellipse cx="390.29" cy="354.02" fill="#455a64" rx="25.21" ry="14.55" transform="rotate(-72.5 363.097 356.19)"/><ellipse cx="391.34" cy="354.73" fill="#263238" rx="11.38" ry="6.57" transform="rotate(-72.5 364.139 356.901)"/><path fill="#5fceb3" d="M375.81 324.72a17.34 17.34 0 0 1-4.22 13.34c-3 3.09-6.08 2.12-6.79-2.15a17.32 17.32 0 0 1 4.21-13.34c3.04-3.09 6.08-2.13 6.8 2.15Z"/><path fill="#263238" d="M374.02 326.44a12.41 12.41 0 0 1-2.84 9c-2 2.11-3.9 1.51-4.31-1.36a12.42 12.42 0 0 1 2.85-9c1.97-2.11 3.9-1.51 4.3 1.36Z"/><ellipse cx="434.48" cy="327.66" fill="#37474f" rx="25.21" ry="14.55" transform="rotate(-72.5 407.29 329.84)"/><ellipse cx="435.89" cy="328.62" fill="#455a64" rx="25.21" ry="14.55" transform="rotate(-72.5 408.692 330.804)"/><path fill="#263238" d="M422.7 298.63a17.84 17.84 0 0 1-4.85 15.35c-3.79 3.46-7.75 2.21-8.86-2.8s1.06-11.88 4.85-15.35 7.75-2.21 8.86 2.8Z"/><ellipse cx="436.99" cy="329.35" fill="#5fceb3" rx="9.89" ry="5.04" transform="rotate(-72.5 409.79 331.525)"/><path fill="#263238" d="M419.62 301.04a12.38 12.38 0 0 1-2.85 9c-2 2.11-3.9 1.5-4.3-1.36a12.37 12.37 0 0 1 2.85-9c1.97-2.11 3.9-1.5 4.3 1.36Z"/><path fill="#37474f" d="m367.05 257.12-7.08 21.19-1.84 5.52-3.76 11.28-1.33 3.98-6.69-3.79-33.91-19.26 14.01-41.99 5.72 3.25 9.35 5.32 7.57 4.3 3.71 2.11 14.25 8.09z"/><path fill="#5fceb3" d="M396.21 241.34V305l-1.74 1a.89.89 0 0 1-.13-.47v-63.1l-47.3-27.08a.88.88 0 0 1-.35-.34l1.75-1 47.76 27.34Z"/><path d="M396.21 241.34V305l-1.74 1a.89.89 0 0 1-.13-.47v-63.1l-47.3-27.08a.88.88 0 0 1-.35-.34l1.75-1 47.76 27.34Z" opacity=".5"/><path fill="#455a64" d="m354.37 295.11-1.33 3.98-6.69-3.79-14.18-58 9.35 5.32 12.85 52.49zM359.97 278.31l-1.84 5.52-9.04-36.91 3.71 2.11 7.17 29.28z"/><path fill="#37474f" d="m391.31 283.46-31.34 18.66 14.55-43.59 16.79-9.77v34.7zM405.73 275.09l-6.24 3.6v-34.77l6.24-3.61v34.78z"/><path fill="#5fceb3" d="M258.7 174.82v63a1.91 1.91 0 0 0 .94 1.92l2.41 1.33v-2.15l.34-64.8-3.16-1.6a5.51 5.51 0 0 0-.53 2.3Z"/><path fill="#5fceb3" d="m259.24 172.57 3.16 1.6 76.42-44.8 1.82-1.06-2.51-1.42h-.08a1.43 1.43 0 0 0-1.5.11l-75.58 43.54a4.74 4.74 0 0 0-1.73 2.03Z"/><path fill="#fff" d="m259.24 172.57 3.16 1.6 76.42-44.8 1.82-1.06-2.51-1.42h-.08a1.43 1.43 0 0 0-1.5.11l-75.58 43.54a4.74 4.74 0 0 0-1.73 2.03Z" opacity=".2"/><path fill="#5fceb3" d="M261.44 176.2v62.61a2.07 2.07 0 0 0 .72 1.79l.15.08a1.49 1.49 0 0 0 1.39-.16l75.12-43.29a5.4 5.4 0 0 0 2.26-4.31v-62.61a2.11 2.11 0 0 0-.67-1.76 1 1 0 0 0-.23-.13 1.53 1.53 0 0 0-1.36.18l-75.12 43.28a4.53 4.53 0 0 0-1.67 2 5.42 5.42 0 0 0-.59 2.32Z"/><path d="M261.44 176.2v62.61a2.07 2.07 0 0 0 .72 1.79l.15.08a1.49 1.49 0 0 0 1.39-.16l75.12-43.29a5.4 5.4 0 0 0 2.26-4.31v-62.61a2.11 2.11 0 0 0-.67-1.76 1 1 0 0 0-.23-.13 1.53 1.53 0 0 0-1.36.18l-75.12 43.28a4.53 4.53 0 0 0-1.67 2 5.42 5.42 0 0 0-.59 2.32Z" opacity=".2"/><text fill="#fafafa" font-family="Montserrat-Bold,Montserrat" font-size="42.409" font-weight="700" transform="matrix(.87 -.5 0 1 274.99 216.77)">/</text><path fill="#5fceb3" d="M340.02 128.45a.71.71 0 0 1 .32.07.37.37 0 0 1 .15.08 1.8 1.8 0 0 1 .52 1.46v63a5.1 5.1 0 0 1-2.08 4l-75.58 43.51a1.41 1.41 0 0 1-.71.23.79.79 0 0 1-.32-.07l-.12-.06a1.73 1.73 0 0 1-.55-1.48v-63a5.26 5.26 0 0 1 .55-2.21 4.28 4.28 0 0 1 1.53-1.8l75.58-43.51a1.49 1.49 0 0 1 .71-.22m0-.38a1.85 1.85 0 0 0-.9.27l-75.58 43.55a4.47 4.47 0 0 0-1.68 2 5.43 5.43 0 0 0-.59 2.37v63a2.1 2.1 0 0 0 .72 1.8l.15.08a1.18 1.18 0 0 0 .5.11 1.77 1.77 0 0 0 .9-.28l75.58-43.54a5.46 5.46 0 0 0 2.27-4.34v-63a2.12 2.12 0 0 0-.68-1.77 1 1 0 0 0-.23-.13 1.18 1.18 0 0 0-.46-.09Z"/><path fill="#455a64" d="m346.06 124.84 17.45 22.15 4.24 2.28-17.94-26.56-3.75 2.13z"/><path fill="#263238" d="M334.53 131.38v3.47l15.96-9.09 17.26 23.51 1.92-1.93-18.3-25.51-16.84 9.55z"/><path fill="#37474f" d="m351.37 121.83-5.81-3.53-16.84 9.72 5.81 3.36 16.84-9.55z"/><path fill="#455a64" d="M328.72 128.02v3.36l5.81 3.47v-3.47l-5.81-3.36zM338.75 318.35a1.41 1.41 0 0 1-.71-.2l-15.66-9a3.89 3.89 0 0 1-1.94-3.37v-11.61a1.39 1.39 0 0 1 .71-1.23 1.41 1.41 0 0 1 1.43 0l15.65 9a3.9 3.9 0 0 1 1.95 3.37v11.57a1.42 1.42 0 0 1-.71 1.23 1.45 1.45 0 0 1-.72.24Zm-.28-.93a.58.58 0 0 0 .86-.5v-11.57a3 3 0 0 0-1.52-2.63l-15.66-9a.56.56 0 0 0-.57 0 .58.58 0 0 0-.29.5v11.57a3.06 3.06 0 0 0 1.52 2.64Z"/><path fill="#455a64" d="m320.646 295.665.425-.736 18.88 10.9-.426.736zM320.647 298.885l.425-.736 18.88 10.9-.426.736zM320.647 302.07l.425-.736 18.88 10.9-.426.736zM320.648 305.28l.425-.736 18.88 10.9-.425.736z"/><path fill="#fff" d="m314.05 291.66-6.7-3.87v-3.96l6.7 3.87v3.96zM355.51 314.97l-6.7-3.87v-3.95l6.7 3.86v3.96z"/><path fill="#5fceb3" d="M277.91 109.04v34.66a1.06 1.06 0 0 0 .52 1.06l1.32.73v-1.18l.16-35.64-1.74-.87a2.9 2.9 0 0 0-.26 1.24ZM278.2 107.8l1.74.87 42-24.63 1-.58-1.38-.78a.81.81 0 0 0-.83.06l-41.56 24a2.54 2.54 0 0 0-.97 1.06Z"/><path fill="#fff" d="m278.2 107.8 1.74.87 42-24.63 1-.58-1.38-.78a.81.81 0 0 0-.83.06l-41.56 24a2.54 2.54 0 0 0-.97 1.06Z" opacity=".2"/><path fill="#5fceb3" d="M279.41 109.8v34.43a1.13 1.13 0 0 0 .39 1l.08.05a.84.84 0 0 0 .77-.09l41.31-23.8a3 3 0 0 0 1.24-2.38V84.57a1.15 1.15 0 0 0-.37-1 .37.37 0 0 0-.12-.07.83.83 0 0 0-.75.09l-41.31 23.81a2.51 2.51 0 0 0-.92 1.07 3 3 0 0 0-.32 1.33Z"/><path d="M279.41 109.8v34.43a1.13 1.13 0 0 0 .39 1l.08.05a.84.84 0 0 0 .77-.09l41.31-23.8a3 3 0 0 0 1.24-2.38V84.57a1.15 1.15 0 0 0-.37-1 .37.37 0 0 0-.12-.07.83.83 0 0 0-.75.09l-41.31 23.81a2.51 2.51 0 0 0-.92 1.07 3 3 0 0 0-.32 1.33Z" opacity=".2"/><text fill="#fafafa" font-family="Montserrat-Bold,Montserrat" font-size="18.245" font-weight="700" transform="matrix(.87 -.5 0 1 285.61 130.33)">C++</text><path fill="#5fceb3" d="M322.62 83.57a.39.39 0 0 1 .18 0h.08a1 1 0 0 1 .28.81v34.63a2.81 2.81 0 0 1-1.14 2.21l-41.56 24a.79.79 0 0 1-.39.12.48.48 0 0 1-.18 0h-.06a1 1 0 0 1-.31-.82v-34.7a2.79 2.79 0 0 1 .31-1.22 2.21 2.21 0 0 1 .84-1l41.56-23.95a.79.79 0 0 1 .39-.12m0-.21a1.05 1.05 0 0 0-.5.15l-41.56 24a2.55 2.55 0 0 0-.92 1.08 3.06 3.06 0 0 0-.33 1.31v34.63a1.14 1.14 0 0 0 .4 1h.08a.67.67 0 0 0 .28.06 1 1 0 0 0 .49-.15l41.56-24a3 3 0 0 0 1.25-2.39V84.43a1.14 1.14 0 0 0-.37-1 .57.57 0 0 0-.13-.08.7.7 0 0 0-.25 0ZM277.91 55.26v34.53c0 .55.2.93.52 1l1.32.73v-1.18l.19-35.5-1.73-.87a2.9 2.9 0 0 0-.3 1.29Z"/><path fill="#5fceb3" d="m278.2 54.02 1.73.87 41.87-24.54 1-.58-1.38-.78a.77.77 0 0 0-.83.06l-41.4 23.85a2.59 2.59 0 0 0-.99 1.12Z"/><path fill="#fff" d="m278.2 54.02 1.73.87 41.87-24.54 1-.58-1.38-.78a.77.77 0 0 0-.83.06l-41.4 23.85a2.59 2.59 0 0 0-.99 1.12Z" opacity=".2"/><path fill="#5fceb3" d="M279.4 56.01v34.3a1.14 1.14 0 0 0 .4 1h.08a.8.8 0 0 0 .76-.09l41.16-23.65a3 3 0 0 0 1.23-2.37V30.87a1.15 1.15 0 0 0-.37-1l-.12-.07a.81.81 0 0 0-.74.1l-41.16 23.75a2.58 2.58 0 0 0-.92 1.07 3 3 0 0 0-.32 1.29Z"/><path d="M279.4 56.01v34.3a1.14 1.14 0 0 0 .4 1h.08a.8.8 0 0 0 .76-.09l41.16-23.65a3 3 0 0 0 1.23-2.37V30.87a1.15 1.15 0 0 0-.37-1l-.12-.07a.81.81 0 0 0-.74.1l-41.16 23.75a2.58 2.58 0 0 0-.92 1.07 3 3 0 0 0-.32 1.29Z" opacity=".2"/><text fill="#fafafa" font-family="Montserrat-Bold,Montserrat" font-size="23.233" font-weight="700" transform="matrix(.87 -.5 0 1 288.92 75.11)"><tspan xml:space="preserve">{}</tspan></text><path fill="#5fceb3" d="M322.45 29.86a.57.57 0 0 1 .18 0h.08a1 1 0 0 1 .28.8v34.5a2.79 2.79 0 0 1-1.14 2.2l-41.4 23.86a.79.79 0 0 1-.39.12.29.29 0 0 1-.17 0h-.07a1 1 0 0 1-.3-.81v-34.5a2.77 2.77 0 0 1 .3-1.21 2.33 2.33 0 0 1 .84-1l41.4-23.85a.79.79 0 0 1 .39-.12m0-.21a.9.9 0 0 0-.49.15l-41.41 23.86a2.55 2.55 0 0 0-.92 1.08 3 3 0 0 0-.32 1.3v34.54a1.11 1.11 0 0 0 .4 1h.08a.6.6 0 0 0 .27.06 1 1 0 0 0 .49-.15l41.41-23.86a3 3 0 0 0 1.24-2.38v-34.5a1.16 1.16 0 0 0-.37-1 .33.33 0 0 0-.13-.07.51.51 0 0 0-.25-.05ZM196.31 56.15a4.32 4.32 0 0 1 1.22-2.69l3.9-3.94a2.48 2.48 0 0 0 .68-2.27l-1-4.76a1 1 0 0 0-.5-.66l-5.52-2.7-.13-.07a1 1 0 0 0-1 .15l-1.58 1.36 1.64-5a1.24 1.24 0 0 0-.63-1.5l-5.48-2.73a1.26 1.26 0 0 0-.44-.14l-3.56-.46a1.68 1.68 0 0 0-1.35.44 1.56 1.56 0 0 0-.4.55l-2.63 6a3.09 3.09 0 0 1-1.21 1.39l-.18-.49a1 1 0 0 0-.49-.52l-5.43-2.65-.17-.08a.92.92 0 0 0-1 .21l-4.65 4.7a3 3 0 0 0-.71 1.17 2.9 2.9 0 0 0-.09 1.28l.67 4.28a2.2 2.2 0 0 1-.36 1.55l-2.65 4.12a2.08 2.08 0 0 1-.57.61 2.24 2.24 0 0 1-1.28.41h-3a2 2 0 0 0-.54.07 2.09 2.09 0 0 0-1.41 1.29l-2.66 7.28a1.12 1.12 0 0 0 .5 1.37l3.94 1.93a1.33 1.33 0 0 1 0 .53l-.44 4.08a2.45 2.45 0 0 1-.2.75 2.73 2.73 0 0 1-.59.92l-4 4.16a2.59 2.59 0 0 0-.61 1 2.52 2.52 0 0 0 0 1.28l1.11 5.2a.76.76 0 0 0 .43.52l5.5 2.69a.74.74 0 0 0 .84-.08l1.79-1.47-1.5 5.18a1 1 0 0 0 0 .35 1.18 1.18 0 0 0 .69 1l5.35 2.6a1 1 0 0 0 .55.22l3.09.39a1.94 1.94 0 0 0 2-1.13l2.63-5.88a3.1 3.1 0 0 1 1.28-1.4l.14.39a.91.91 0 0 0 .56.56l5.43 2.66a.93.93 0 0 0 1-.16l4.73-4.33a2.36 2.36 0 0 0 .74-2.07l-.67-4.73a3.36 3.36 0 0 1 .51-2.29l2.16-3.35a3.05 3.05 0 0 1 2.55-1.39h2.88a1.71 1.71 0 0 0 1.72-1.04l2.62-7a1.43 1.43 0 0 0-.62-1.72h-.11l-3.62-1.77a1.41 1.41 0 0 1 0-.46Zm-17.4-3.39a9.36 9.36 0 0 1 3.88-1.7 10 10 0 0 1 1 3.79c.59 6.34-3.14 14.46-8.34 18.15a10.09 10.09 0 0 1-3.81 1.75 9.66 9.66 0 0 1-1.1-3.85c-.52-6.33 3.21-14.46 8.37-18.14Z"/><path d="M196.31 56.15a4.32 4.32 0 0 1 1.22-2.69l3.9-3.94a2.48 2.48 0 0 0 .68-2.27l-1-4.76a1 1 0 0 0-.5-.66l-5.52-2.7-.13-.07a1 1 0 0 0-1 .15l-1.58 1.36 1.64-5a1.24 1.24 0 0 0-.63-1.5l-5.48-2.73a1.26 1.26 0 0 0-.44-.14l-3.56-.46a1.68 1.68 0 0 0-1.35.44 1.56 1.56 0 0 0-.4.55l-2.63 6a3.09 3.09 0 0 1-1.21 1.39l-.18-.49a1 1 0 0 0-.49-.52l-5.43-2.65-.17-.08a.92.92 0 0 0-1 .21l-4.65 4.7a3 3 0 0 0-.71 1.17 2.9 2.9 0 0 0-.09 1.28l.67 4.28a2.2 2.2 0 0 1-.36 1.55l-2.65 4.12a2.08 2.08 0 0 1-.57.61 2.24 2.24 0 0 1-1.28.41h-3a2 2 0 0 0-.54.07 2.09 2.09 0 0 0-1.41 1.29l-2.66 7.28a1.12 1.12 0 0 0 .5 1.37l3.94 1.93a1.33 1.33 0 0 1 0 .53l-.44 4.08a2.45 2.45 0 0 1-.2.75 2.73 2.73 0 0 1-.59.92l-4 4.16a2.59 2.59 0 0 0-.61 1 2.52 2.52 0 0 0 0 1.28l1.11 5.2a.76.76 0 0 0 .43.52l5.5 2.69a.74.74 0 0 0 .84-.08l1.79-1.47-1.5 5.18a1 1 0 0 0 0 .35 1.18 1.18 0 0 0 .69 1l5.35 2.6a1 1 0 0 0 .55.22l3.09.39a1.94 1.94 0 0 0 2-1.13l2.63-5.88a3.1 3.1 0 0 1 1.28-1.4l.14.39a.91.91 0 0 0 .56.56l5.43 2.66a.93.93 0 0 0 1-.16l4.73-4.33a2.36 2.36 0 0 0 .74-2.07l-.67-4.73a3.36 3.36 0 0 1 .51-2.29l2.16-3.35a3.05 3.05 0 0 1 2.55-1.39h2.88a1.71 1.71 0 0 0 1.72-1.04l2.62-7a1.43 1.43 0 0 0-.62-1.72h-.11l-3.62-1.77a1.41 1.41 0 0 1 0-.46Zm-17.4-3.39a9.36 9.36 0 0 1 3.88-1.7 10 10 0 0 1 1 3.79c.59 6.34-3.14 14.46-8.34 18.15a10.09 10.09 0 0 1-3.81 1.75 9.66 9.66 0 0 1-1.1-3.85c-.52-6.33 3.21-14.46 8.37-18.14Z" opacity=".3"/><path d="m163.91 73.86-6 6.08-5.53-2.85a2.59 2.59 0 0 1 .61-1l4-4.16a2.73 2.73 0 0 0 .59-.92ZM168.27 55.97l-.12.68h-5.19l-5.05-2.91a2 2 0 0 1 .54-.07h3a2.24 2.24 0 0 0 1.28-.41ZM177.63 38.11l-2.34 2.3-4.14 4.08-5.48-3a3 3 0 0 1 .71-1.17l4.65-4.7a.92.92 0 0 1 1-.21l.17.08ZM193.41 34.04h-5.45l-5.42-2.86a1.68 1.68 0 0 1 1.35-.44l3.55.45a1.26 1.26 0 0 1 .44.14Z" opacity=".2"/><path fill="#5fceb3" d="m197.53 53.46 3.9-3.94a2.48 2.48 0 0 0 .68-2.27l-1-4.76a1 1 0 0 0-1.57-.56l-4 3.33a1.08 1.08 0 0 1-1.47-.08l-1.16-1.21a2.88 2.88 0 0 1-.66-2.89l1.77-5.51a1.25 1.25 0 0 0-1-1.63l-3.54-.44a1.67 1.67 0 0 0-1.75 1l-2.63 6a3.13 3.13 0 0 1-1.64 1.62l-2.36 1a1.12 1.12 0 0 1-1.48-.63l-1.47-3.81a.93.93 0 0 0-1.54-.32l-4.7 4.64a2.88 2.88 0 0 0-.79 2.45l.67 4.28a2.2 2.2 0 0 1-.33 1.52l-2.64 4.13a2.21 2.21 0 0 1-1.86 1h-3a2.08 2.08 0 0 0-2 1.37l-2.67 7.27a1.14 1.14 0 0 0 .74 1.47l2.76.83a1.44 1.44 0 0 1 1 1.54l-.44 4.08a2.84 2.84 0 0 1-.79 1.67l-4 4.17a2.53 2.53 0 0 0-.66 2.3l1.15 5.18a.75.75 0 0 0 1.21.42l4-3.27a1.54 1.54 0 0 1 2.18.21l1 1.23a2.39 2.39 0 0 1 .44 2.17l-1.76 6.09a1.17 1.17 0 0 0 1 1.5l3.09.39a1.94 1.94 0 0 0 2-1.13l2.63-5.88a3.06 3.06 0 0 1 1.49-1.52l2.3-1.1a1.43 1.43 0 0 1 2 .82l1.23 3.51a.93.93 0 0 0 1.51.38l4.73-4.33a2.36 2.36 0 0 0 .74-2.07l-.67-4.73a3.36 3.36 0 0 1 .51-2.29l2.16-3.35a3.05 3.05 0 0 1 2.55-1.39h2.88a1.71 1.71 0 0 0 1.64-1.11l2.62-7a1.44 1.44 0 0 0-1-1.88l-2.38-.64a1.45 1.45 0 0 1-1.07-1.5l.25-3.59a4.32 4.32 0 0 1 1.2-2.74Zm-16.45 22.26c-5.19 3.68-9.88 1.52-10.47-4.82s3.14-14.46 8.33-18.14 9.89-1.52 10.48 4.82-3.15 14.46-8.34 18.14ZM86.91 140.33a7.32 7.32 0 0 1 2.11-4.66l6.76-6.82a4.4 4.4 0 0 0 1.17-3.95l-1.71-8.24a1.66 1.66 0 0 0-.87-1.14l-9.58-4.67-.23-.12a1.65 1.65 0 0 0-1.69.26l-2.79 2.3 2.85-8.66a2.15 2.15 0 0 0-1.1-2.6l-9.56-4.68a2 2 0 0 0-.76-.25l-6.15-.78a2.89 2.89 0 0 0-2.34.75 2.74 2.74 0 0 0-.69 1l-4.56 10.39a5.27 5.27 0 0 1-2.09 2.41l-.32-.85a1.65 1.65 0 0 0-.85-.89l-9.4-4.6-.3-.14a1.61 1.61 0 0 0-1.74.36l-8.06 8.15a5.08 5.08 0 0 0-1.22 2 5.14 5.14 0 0 0-.16 2.21l1.16 7.42a3.8 3.8 0 0 1-.56 2.63l-4.59 7.15a3.55 3.55 0 0 1-1 1.05 3.76 3.76 0 0 1-2.21.71h-5.2a3.17 3.17 0 0 0-.93.13 3.58 3.58 0 0 0-2.45 2.23l-4.62 12.61a2 2 0 0 0 .88 2.37l6.82 3.34a2.35 2.35 0 0 1 .07.92l-.76 7.07a5 5 0 0 1-.35 1.31 4.82 4.82 0 0 1-.98 1.52l-7 7.22a4.43 4.43 0 0 0-1.13 4l2 9a1.31 1.31 0 0 0 .76.91l9.53 4.66a1.31 1.31 0 0 0 1.46-.13l3.09-2.55-2.59 9a1.61 1.61 0 0 0-.08.61 2.06 2.06 0 0 0 1.18 1.81l9.27 4.5a2 2 0 0 0 1 .39l5.36.67a3.38 3.38 0 0 0 3.5-2l4.56-10.18a5.31 5.31 0 0 1 2.22-2.42l.23.67a1.61 1.61 0 0 0 1 1l9.42 4.62a1.6 1.6 0 0 0 1.77-.27l8.2-7.5a4.13 4.13 0 0 0 1.25-3.53l-1.17-8.2a5.85 5.85 0 0 1 .88-4l3.75-5.8a5.25 5.25 0 0 1 4.41-2.4h5a3 3 0 0 0 2.8-2l4.55-12.08a2.48 2.48 0 0 0-1.08-3h-.06l-.18-.09-6.28-3.06a2.43 2.43 0 0 1-.08-.81Zm-30.1-5.87a16.41 16.41 0 0 1 6.71-3 17.32 17.32 0 0 1 1.81 6.59c1 11-5.45 25-14.45 31.43a17.25 17.25 0 0 1-6.6 3 16.77 16.77 0 0 1-1.91-6.66c-1.02-10.91 5.45-24.98 14.45-31.36Z"/><path d="M86.91 140.33a7.32 7.32 0 0 1 2.11-4.66l6.76-6.82a4.4 4.4 0 0 0 1.17-3.95l-1.71-8.24a1.66 1.66 0 0 0-.87-1.14l-9.58-4.67-.23-.12a1.65 1.65 0 0 0-1.69.26l-2.79 2.3 2.85-8.66a2.15 2.15 0 0 0-1.1-2.6l-9.56-4.68a2 2 0 0 0-.76-.25l-6.15-.78a2.89 2.89 0 0 0-2.34.75 2.74 2.74 0 0 0-.69 1l-4.56 10.39a5.27 5.27 0 0 1-2.09 2.41l-.32-.85a1.65 1.65 0 0 0-.85-.89l-9.4-4.6-.3-.14a1.61 1.61 0 0 0-1.74.36l-8.06 8.15a5.08 5.08 0 0 0-1.22 2 5.14 5.14 0 0 0-.16 2.21l1.16 7.42a3.8 3.8 0 0 1-.56 2.63l-4.59 7.15a3.55 3.55 0 0 1-1 1.05 3.76 3.76 0 0 1-2.21.71h-5.2a3.17 3.17 0 0 0-.93.13 3.58 3.58 0 0 0-2.45 2.23l-4.62 12.61a2 2 0 0 0 .88 2.37l6.82 3.34a2.35 2.35 0 0 1 .07.92l-.76 7.07a5 5 0 0 1-.35 1.31 4.82 4.82 0 0 1-.98 1.52l-7 7.22a4.43 4.43 0 0 0-1.13 4l2 9a1.31 1.31 0 0 0 .76.91l9.53 4.66a1.31 1.31 0 0 0 1.46-.13l3.09-2.55-2.59 9a1.61 1.61 0 0 0-.08.61 2.06 2.06 0 0 0 1.18 1.81l9.27 4.5a2 2 0 0 0 1 .39l5.36.67a3.38 3.38 0 0 0 3.5-2l4.56-10.18a5.31 5.31 0 0 1 2.22-2.42l.23.67a1.61 1.61 0 0 0 1 1l9.42 4.62a1.6 1.6 0 0 0 1.77-.27l8.2-7.5a4.13 4.13 0 0 0 1.25-3.53l-1.17-8.2a5.85 5.85 0 0 1 .88-4l3.75-5.8a5.25 5.25 0 0 1 4.41-2.4h5a3 3 0 0 0 2.8-2l4.55-12.08a2.48 2.48 0 0 0-1.08-3h-.06l-.18-.09-6.28-3.06a2.43 2.43 0 0 1-.08-.81Zm-30.1-5.87a16.41 16.41 0 0 1 6.71-3 17.32 17.32 0 0 1 1.81 6.59c1 11-5.45 25-14.45 31.43a17.25 17.25 0 0 1-6.6 3 16.77 16.77 0 0 1-1.91-6.66c-1.02-10.91 5.45-24.98 14.45-31.36Z" opacity=".3"/><path d="m30.79 171.01-10.36 10.56-9.52-5a4.41 4.41 0 0 1 1-1.78l7-7.22a4.82 4.82 0 0 0 1-1.58ZM38.33 140.02l-.21 1.18h-9l-8.84-5a3.17 3.17 0 0 1 .93-.13h5.23a3.76 3.76 0 0 0 2.21-.71ZM54.54 109.08l-4 4-7.17 7.05-9.49-5.24a5.08 5.08 0 0 1 1.22-2l8.06-8.15a1.61 1.61 0 0 1 1.74-.36l.3.14ZM81.91 102.02h-9.46l-9.4-5a2.89 2.89 0 0 1 2.34-.75l6.15.78a2 2 0 0 1 .76.25Z" opacity=".2"/><path fill="#5fceb3" d="m89.03 135.67 6.76-6.82a4.4 4.4 0 0 0 1.17-3.95l-1.71-8.24a1.69 1.69 0 0 0-2.73-1l-7 5.77a1.87 1.87 0 0 1-2.54-.15l-2-2.1a5 5 0 0 1-1.14-5l3.16-9.6a2.16 2.16 0 0 0-1.78-2.82l-6.15-.77a2.92 2.92 0 0 0-3 1.72l-4.55 10.38a5.43 5.43 0 0 1-2.85 2.81l-4.09 1.73a1.94 1.94 0 0 1-2.67-1.06l-2.55-6.61a1.63 1.63 0 0 0-2.67-.56l-8.03 8.17a4.94 4.94 0 0 0-1.37 4.23l1.15 7.42a3.81 3.81 0 0 1-.56 2.63L39.3 139a3.8 3.8 0 0 1-3.22 1.76h-5.17a3.61 3.61 0 0 0-3.38 2.37l-4.62 12.58a2 2 0 0 0 1.27 2.54l4.73 1.46a2.48 2.48 0 0 1 1.75 2.66l-.75 7.07a4.88 4.88 0 0 1-1.36 2.89l-7 7.22a4.36 4.36 0 0 0-1.14 4l2 9a1.31 1.31 0 0 0 2.11.73l6.86-5.71a2.68 2.68 0 0 1 3.78.37l1.75 2.14a4.13 4.13 0 0 1 .77 3.75l-3.07 10.55a2.06 2.06 0 0 0 1.72 2.61l5.36.67a3.38 3.38 0 0 0 3.5-2l4.56-10.18a5.32 5.32 0 0 1 2.58-2.63l4-1.9a2.47 2.47 0 0 1 3.4 1.41l2.11 6.09a1.62 1.62 0 0 0 2.62.66l8.2-7.5a4.13 4.13 0 0 0 1.25-3.56l-1.17-8.2a5.85 5.85 0 0 1 .88-4l3.75-5.8a5.25 5.25 0 0 1 4.41-2.4h5a3 3 0 0 0 2.8-2l4.55-12.08a2.49 2.49 0 0 0-1.68-3.26l-4.12-1.11a2.51 2.51 0 0 1-1.86-2.61l.45-6.21a7.32 7.32 0 0 1 2.11-4.71Zm-28.51 38.56c-9 6.38-17.12 2.64-18.14-8.34s5.44-25 14.44-31.43 17.12-2.64 18.15 8.34-5.45 25.05-14.45 31.43ZM137.46 36.31a6 6 0 0 1 1.74-3.84l5.57-5.63a3.55 3.55 0 0 0 1-3.25l-1.41-6.79a1.36 1.36 0 0 0-.71-.94l-7.9-3.86-.19-.09a1.37 1.37 0 0 0-1.39.21l-2.3 1.89 2.35-7.13a1.77 1.77 0 0 0-.91-2.14L125.42.88a1.66 1.66 0 0 0-.63-.2l-5.07-.64a2.38 2.38 0 0 0-1.93.62 2.26 2.26 0 0 0-.57.79l-3.76 8.56a4.33 4.33 0 0 1-1.72 2l-.27-.7a1.26 1.26 0 0 0-.7-.73l-7.76-3.78-.25-.13a1.31 1.31 0 0 0-1.43.3l-6.65 6.72a4.14 4.14 0 0 0-1 1.66 4.28 4.28 0 0 0-.13 1.82l1 6.12a3.07 3.07 0 0 1-.46 2.17l-3.78 5.9a2.9 2.9 0 0 1-.81.86 3.14 3.14 0 0 1-1.83.59h-4.31a2.86 2.86 0 0 0-.77.1 3 3 0 0 0-2 1.84L76.71 45.1a1.61 1.61 0 0 0 .72 2l5.63 2.75a2.4 2.4 0 0 1 .06.76l-.64 5.83a3.66 3.66 0 0 1-.28 1.08 3.88 3.88 0 0 1-.84 1.3l-5.78 6a3.61 3.61 0 0 0-.86 1.47 3.55 3.55 0 0 0-.07 1.83l1.63 7.4a1.08 1.08 0 0 0 .62.75l7.85 3.85a1.08 1.08 0 0 0 1.21-.11l2.55-2.1-2.14 7.39a1.73 1.73 0 0 0-.07.5 1.69 1.69 0 0 0 1 1.49l7.64 3.72a1.79 1.79 0 0 0 .79.32l4.42.55a2.77 2.77 0 0 0 2.88-1.62l3.77-8.39a4.36 4.36 0 0 1 1.82-2l.2.55a1.31 1.31 0 0 0 .8.81l7.76 3.8a1.35 1.35 0 0 0 1.46-.22l6.75-6.19a3.34 3.34 0 0 0 1.06-3l-1-6.76a4.74 4.74 0 0 1 .72-3.28l3.09-4.78a4.33 4.33 0 0 1 3.64-2h4.11a2.46 2.46 0 0 0 2.31-1.61l3.73-10.06a2 2 0 0 0-.88-2.47h-.05l-.15-.08-5.18-2.52a2.5 2.5 0 0 1-.06-.67Zm-24.82-4.84a13.63 13.63 0 0 1 5.54-2.44 14.5 14.5 0 0 1 1.49 5.43c.84 9-4.49 20.65-11.91 25.91a14.16 14.16 0 0 1-5.44 2.51 13.72 13.72 0 0 1-1.58-5.5c-.83-9.05 4.48-20.65 11.9-25.91Z"/><path d="M137.46 36.31a6 6 0 0 1 1.74-3.84l5.57-5.63a3.55 3.55 0 0 0 1-3.25l-1.41-6.79a1.36 1.36 0 0 0-.71-.94l-7.9-3.86-.19-.09a1.37 1.37 0 0 0-1.39.21l-2.3 1.89 2.35-7.13a1.77 1.77 0 0 0-.91-2.14L125.42.88a1.66 1.66 0 0 0-.63-.2l-5.07-.64a2.38 2.38 0 0 0-1.93.62 2.26 2.26 0 0 0-.57.79l-3.76 8.56a4.33 4.33 0 0 1-1.72 2l-.27-.7a1.26 1.26 0 0 0-.7-.73l-7.76-3.78-.25-.13a1.31 1.31 0 0 0-1.43.3l-6.65 6.72a4.14 4.14 0 0 0-1 1.66 4.28 4.28 0 0 0-.13 1.82l1 6.12a3.07 3.07 0 0 1-.46 2.17l-3.78 5.9a2.9 2.9 0 0 1-.81.86 3.14 3.14 0 0 1-1.83.59h-4.31a2.86 2.86 0 0 0-.77.1 3 3 0 0 0-2 1.84L76.71 45.1a1.61 1.61 0 0 0 .72 2l5.63 2.75a2.4 2.4 0 0 1 .06.76l-.64 5.83a3.66 3.66 0 0 1-.28 1.08 3.88 3.88 0 0 1-.84 1.3l-5.78 6a3.61 3.61 0 0 0-.86 1.47 3.55 3.55 0 0 0-.07 1.83l1.63 7.4a1.08 1.08 0 0 0 .62.75l7.85 3.85a1.08 1.08 0 0 0 1.21-.11l2.55-2.1-2.14 7.39a1.73 1.73 0 0 0-.07.5 1.69 1.69 0 0 0 1 1.49l7.64 3.72a1.79 1.79 0 0 0 .79.32l4.42.55a2.77 2.77 0 0 0 2.88-1.62l3.77-8.39a4.36 4.36 0 0 1 1.82-2l.2.55a1.31 1.31 0 0 0 .8.81l7.76 3.8a1.35 1.35 0 0 0 1.46-.22l6.75-6.19a3.34 3.34 0 0 0 1.06-3l-1-6.76a4.74 4.74 0 0 1 .72-3.28l3.09-4.78a4.33 4.33 0 0 1 3.64-2h4.11a2.46 2.46 0 0 0 2.31-1.61l3.73-10.06a2 2 0 0 0-.88-2.47h-.05l-.15-.08-5.18-2.52a2.5 2.5 0 0 1-.06-.67Zm-24.82-4.84a13.63 13.63 0 0 1 5.54-2.44 14.5 14.5 0 0 1 1.49 5.43c.84 9-4.49 20.65-11.91 25.91a14.16 14.16 0 0 1-5.44 2.51 13.72 13.72 0 0 1-1.58-5.5c-.83-9.05 4.48-20.65 11.9-25.91Z" opacity=".3"/><path d="m91.19 61.57-8.55 8.68-7.89-4.07a3.61 3.61 0 0 1 .86-1.47l5.78-6a3.88 3.88 0 0 0 .84-1.3ZM97.4 36.06l-.17 1h-7.41l-7.29-4.16a2.86 2.86 0 0 1 .77-.1h4.31a3.14 3.14 0 0 0 1.83-.59ZM110.77 10.57l-3.34 3.29-5.91 5.82-7.83-4.32a4.14 4.14 0 0 1 1-1.66l6.65-6.72a1.31 1.31 0 0 1 1.43-.3l.25.13ZM133.31 4.73h-7.78L117.78.64a2.38 2.38 0 0 1 1.93-.62l5.07.64a1.66 1.66 0 0 1 .63.2Z" opacity=".2"/><path fill="#5fceb3" d="m139.2 32.47 5.57-5.63a3.55 3.55 0 0 0 1-3.25l-1.41-6.79a1.39 1.39 0 0 0-2.24-.8l-5.79 4.76a1.56 1.56 0 0 1-2.1-.12l-1.66-1.73a4.09 4.09 0 0 1-1-4.12l2.61-7.92a1.78 1.78 0 0 0-1.46-2.3l-5.07-.64a2.39 2.39 0 0 0-2.5 1.41l-3.75 8.57a4.46 4.46 0 0 1-2.35 2.31l-3.37 1.43a1.6 1.6 0 0 1-2.11-.9l-2.11-5.45a1.34 1.34 0 0 0-2.2-.46l-6.64 6.73a4.07 4.07 0 0 0-1.13 3.49l.94 6.12a3.12 3.12 0 0 1-.45 2.17l-3.78 5.9a3.16 3.16 0 0 1-2.65 1.45h-4.31a3 3 0 0 0-2.79 1.87l-3.8 10.38a1.62 1.62 0 0 0 1 2.1l4 1.2a2.06 2.06 0 0 1 1.45 2.19l-.64 5.83a4 4 0 0 1-1.12 2.38l-5.78 5.95a3.64 3.64 0 0 0-.93 3.3l1.63 7.4a1.08 1.08 0 0 0 1.74.6l5.68-4.68a2.2 2.2 0 0 1 3.11.31l1.44 1.76a3.38 3.38 0 0 1 .63 3.09l-2.51 8.7a1.69 1.69 0 0 0 1.41 2.15l4.42.55a2.77 2.77 0 0 0 2.88-1.62l3.77-8.39a4.37 4.37 0 0 1 2.12-2.18l3.29-1.56a2 2 0 0 1 2.8 1.17l1.75 5a1.33 1.33 0 0 0 2.16.55l6.75-6.19a3.34 3.34 0 0 0 1.06-3l-1-6.76a4.74 4.74 0 0 1 .72-3.28l3.09-4.78a4.33 4.33 0 0 1 3.64-2h4.11a2.46 2.46 0 0 0 2.31-1.61l3.73-10.06a2 2 0 0 0-1.38-2.69l-3.4-.91a2.09 2.09 0 0 1-1.53-2.16l.37-5.12a6 6 0 0 1 1.78-3.72Zm-23.5 31.79c-7.42 5.26-14.12 2.18-15-6.88s4.48-20.65 11.9-25.91 14.12-2.18 15 6.88-4.48 20.65-11.9 25.91ZM292.83 252.82l-4.06-2.72-7.19 18.73-7.67 4.15-1.82-2.63 9.16-18.55-4.06-2.73c-.36.18-.72.36-1.07.57-8.44 4.86-15.29 16.69-15.3 26.43 0 4.51 1.45 7.79 3.86 9.51l.41.27 3.23 2.13 1.1.75-.11 85.2c-5.11 5.79-8.64 13.85-8.65 20.84 0 3.67 1 6.52 2.62 8.38l4.07 2.73-.78-11.31 3.91-10.19 1.47-.79 6.2-3.36 3.94 5.71-4.3 10.83-2.88 7.4 4.07 2.73 3.42-8.63c5.23-5.81 8.87-14 8.88-21.09a14.16 14.16 0 0 0-1.47-6.61l1.51-.23-3.82-2.55a7.76 7.76 0 0 0-5-1.5l.11-86.79c5.18-5.8 8.78-14 8.79-21 0-.59 0-1.14-.08-1.68Z"/><path fill="#5fceb3" d="m286.55 369 .11-86.79c5.19-5.81 8.79-13.95 8.8-21 0-3.67-1-6.51-2.63-8.38l-7.19 18.74-7.65 4.16-3.95-5.72 7.22-18.19c-.35.18-.71.36-1.06.57-8.44 4.86-15.3 16.69-15.31 26.43 0 7 3.5 11 8.61 10.91l-.11 86.94c-5.11 5.8-8.64 13.86-8.65 20.85 0 3.67 1 6.51 2.62 8.38l7.19-18.73 7.66-4.16 3.95 5.72-7.25 18.17c.35-.18.7-.36 1.06-.57 8.44-4.86 15.29-16.69 15.3-26.43.04-7.05-3.54-11.07-8.72-10.9Z"/><path fill="#5fceb3" d="m291.3 370.31-3.82-2.55a7.23 7.23 0 0 0-.95-.6v1.83a7.81 7.81 0 0 1 4.77 1.32Z"/><path d="m291.3 370.31-3.82-2.55a7.23 7.23 0 0 0-.95-.6v1.83a7.81 7.81 0 0 1 4.77 1.32Z" opacity=".4"/><path fill="#5fceb3" d="m282.36 398.27 3.8-9.56-3.95-5.72-1.59.86 1.47 2.13-4.3 10.83-2.92 7.36 4.07 2.73 3.42-8.63z"/><path d="m265.1 285.85 3.23 2.13h.06c-2.19-1.79-3.51-4.95-3.5-9.22 0-9.74 6.87-21.57 15.31-26.43.35-.21.71-.39 1.06-.57l-4.06-2.73c-.36.18-.72.36-1.07.57-8.44 4.86-15.29 16.69-15.3 26.43 0 4.51 1.45 7.79 3.86 9.51ZM288.77 250.09l-7.19 18.73 4.06 2.73 7.19-18.73-4.06-2.73z" opacity=".2"/><path d="m281.58 268.82 4.06 2.73-7.65 4.15-2.48-3.58 6.07-3.3zM273.5 289.71a7.91 7.91 0 0 1-4.14-1h.07l-.11 85.2 4.07 2.72Z" opacity=".4"/><path d="M260.67 394.77c0 3.67 1 6.52 2.62 8.38l4.07 2.73c-1.66-1.87-2.63-4.71-2.62-8.38 0-7 3.54-15.05 8.65-20.85l-4.07-2.72c-5.11 5.79-8.64 13.85-8.65 20.84Z" opacity=".2"/><path d="m282.09 385.98 4.07 2.73-3.95-5.72-1.59.86 1.47 2.13z" opacity=".4"/><path d="m274.87 404.17 4.07 2.73 7.22-18.19-4.07-2.73-7.22 18.19z" opacity=".2"/><path fill="#37474f" d="M259.97 406.57s-3.79-3.24-5.26-3.4-4 2.37-1.87 6.75c.6 1.21 3 2.53 4.55 4.86s2.89 4.09 5.22 3.77 2.64-1.64 2.49-3.16a35.22 35.22 0 0 0-.84-4.13Z"/><path fill="#263238" d="M262.74 417.85c-2.4.33-3.82-1.48-5.38-3.88s-4.08-3.76-4.7-5a9.33 9.33 0 0 1-.6-1.56 7.85 7.85 0 0 0 .78 2.53c.6 1.21 3 2.53 4.55 4.86s2.89 4.09 5.22 3.77c1.79-.25 2.38-1.08 2.5-2.14a2.67 2.67 0 0 1-2.37 1.42Z"/><path fill="#ebebeb" d="M257.91 410.74a.39.39 0 0 1-.18 0 .38.38 0 0 1-.15-.5 5.89 5.89 0 0 1 3.56-2.79.37.37 0 1 1 .17.71 5.28 5.28 0 0 0-3.08 2.43.37.37 0 0 1-.32.15ZM256.53 409.44a.34.34 0 0 1-.17-.05.36.36 0 0 1-.15-.5 5.93 5.93 0 0 1 3.56-2.79.38.38 0 0 1 .44.28.37.37 0 0 1-.28.44 5.21 5.21 0 0 0-3.07 2.42.38.38 0 0 1-.33.2ZM254.91 408.13a.38.38 0 0 1-.17 0 .37.37 0 0 1-.15-.5 5.93 5.93 0 0 1 3.56-2.79.37.37 0 1 1 .16.72 5.25 5.25 0 0 0-3.07 2.42.37.37 0 0 1-.33.15Z"/><path fill="#37474f" d="M239.81 417.2s-5.07-1.64-6.58-1.19-3 4 .92 7.43c1.1.95 4 1.25 6.5 2.93s4.53 2.85 6.7 1.57 2-2.73 1.61-4.32c-.49-2-.89-3.5-.89-3.5Z"/><path fill="#263238" d="M247.19 427.2c-2.24 1.31-4.37.11-6.91-1.62s-5.57-2-6.7-3a10.58 10.58 0 0 1-1.24-1.3 8.59 8.59 0 0 0 1.81 2.18c1.1.95 4 1.25 6.5 2.93s4.53 2.85 6.7 1.57c1.67-1 1.91-2 1.59-3.13-.03.81-.46 1.62-1.75 2.37Z"/><path fill="#ebebeb" d="M238.6 421.89a.36.36 0 0 1-.33-.4 6.31 6.31 0 0 1 2.35-4.21.38.38 0 0 1 .52.09.36.36 0 0 1-.09.51 5.66 5.66 0 0 0-2.05 3.68.37.37 0 0 1-.4.33ZM240.7 422.57a.37.37 0 0 1-.33-.4 6.31 6.31 0 0 1 2.36-4.2.36.36 0 0 1 .51.08.38.38 0 0 1-.08.52 5.57 5.57 0 0 0-2 3.67.38.38 0 0 1-.46.33ZM236.67 421.18a.37.37 0 0 1-.33-.4 6.31 6.31 0 0 1 2.36-4.2.37.37 0 0 1 .52.09.38.38 0 0 1-.09.51 5.6 5.6 0 0 0-2.05 3.67.37.37 0 0 1-.41.33Z"/><path fill="#ffa8a7" d="m275.74 317.45 4 4.2 7-6.91v-7.26s3 3.74 3 7.52-1 4.46-2.12 6.65-5.56 11-8.61 9.09a107.23 107.23 0 0 1-9-7.2Z"/><path fill="#5fceb3" d="M262.97 304.57s2.51 0 5.63 3.65 8.36 9.5 8.36 9.5a8 8 0 0 1-6 7.68l-7.3-6.27Z"/><path fill="#fff" d="M262.97 304.57s2.51 0 5.63 3.65 8.36 9.5 8.36 9.5a8 8 0 0 1-6 7.68l-7.3-6.27Z" opacity=".4"/><path fill="#455a64" d="M264.5 407.57c.45-5 1.44-12.9 1.85-16.58a47.57 47.57 0 0 0-.4-14 11.43 11.43 0 0 1-.16-3.3c1-10 1.65-26.23 1.1-29.8l-14.05 3s1.72 22.75 2.47 30.32 3.6 30.36 3.6 30.36a5.09 5.09 0 0 0 5.59 0Z"/><path fill="#ffa8a7" d="M262.48 412.7a2.65 2.65 0 0 0 1.78-1.44c0-.79.09-2.12.24-3.72a5.09 5.09 0 0 1-5.6.06l.5 4.23a3.62 3.62 0 0 0 3.08.87Z"/><path fill="#455a64" d="M248.7 416.37c.57-7.61 1.68-22.35 1.82-24.66a36.76 36.76 0 0 0-.48-7.65 11.7 11.7 0 0 1 0-4.13l6.17-34.25-17-.25-1.11 35.89a9.28 9.28 0 0 0 .05 1.39l3.6 33.44s3.56 2.95 6.95.22Z"/><path fill="#ffa8a7" d="M245.91 422.65a3.21 3.21 0 0 0 2.49-1.75l.35-4.53c-3.39 2.73-6.9-.22-6.9-.22l.54 5s.75 1.75 3.52 1.5Z"/><path fill="#5fceb3" d="m247.1 306.86-4 1.37-4.31 20.34.21 18.07s3.08 2.45 15.09 2.45c6.75 0 11.14-2.54 12.8-5.25l-1.08-10.87s1.1-10.76 1.1-16.08.24-9.67-3.92-12.31l-3.7.3Z"/><path fill="#fff" d="m247.1 306.86-4 1.37-4.31 20.34.21 18.07s3.08 2.45 15.09 2.45c6.75 0 11.14-2.54 12.8-5.25l-1.08-10.87s1.1-10.76 1.1-16.08.24-9.67-3.92-12.31l-3.7.3Z" opacity=".2"/><path fill="#f28f8f" d="m242.75 289.35-2 4a.45.45 0 0 0 .26.63l2.38.79Z"/><path fill="#ffa8a7" d="M245.53 282.69s-3 1.64-3 11c0 5.17.36 8.47 3 8.26s10.38-1.17 10.38-1.17v-18.09Z"/><path fill="#f28f8f" d="M245.53 301.99c.95-.07 2.51-.24 4.15-.43v-1a21.7 21.7 0 0 1-4.6 1.39 2.26 2.26 0 0 0 .45.04Z"/><path fill="#ffa8a7" d="M249.22 300.2v5.9h8.07v-8.29l-8.07 2.39z"/><path fill="#5fceb3" d="M249.22 303.85a12.42 12.42 0 0 0 5.23.63c2.34-.41 2.84-1.83 2.84-1.83s.76-.05 2 2.23a5.93 5.93 0 0 1-4.72 3 18.23 18.23 0 0 1-7.45-1.06s1.11-3.25 2.1-2.97Z"/><path fill="#fff" d="M249.22 303.85a12.42 12.42 0 0 0 5.23.63c2.34-.41 2.84-1.83 2.84-1.83s.76-.05 2 2.23a5.93 5.93 0 0 1-4.72 3 18.23 18.23 0 0 1-7.45-1.06s1.11-3.25 2.1-2.97Z" opacity=".4"/><path fill="#37474f" d="m209.84 334.05-3.21-2a.5.5 0 0 1 0-.85l14.12-8.28a1.17 1.17 0 0 1 1.21 0l17.6 11.07a.92.92 0 0 1 0 1.58l-14.52 8a1.38 1.38 0 0 1-1.44-.07Z"/><path fill="#e0e0e0" d="m209.84 333.29-3.21-2a.5.5 0 0 1 0-.85l14.12-8.28a1.19 1.19 0 0 1 1.21 0l17.6 11.08a.92.92 0 0 1 0 1.58l-14.52 8a1.36 1.36 0 0 1-1.44-.08Z"/><path fill="#e0e0e0" d="M206.4 329.5v1.31h2.23l-2.23-1.31z"/><path fill="#fff" d="m209.84 332.05-3.21-2.05a.49.49 0 0 1 0-.84l14.12-8.28a1.17 1.17 0 0 1 1.21 0l17.6 11.08a.92.92 0 0 1 0 1.58l-14.52 8a1.36 1.36 0 0 1-1.44-.07Z"/><path fill="#5fceb3" d="M212.23 329.64a.36.36 0 0 1-.32-.18.35.35 0 0 1 .13-.5l9.63-5.65a.37.37 0 0 1 .5.13.38.38 0 0 1-.13.51l-9.63 5.62a.31.31 0 0 1-.18.07ZM214.59 331.18a.38.38 0 0 1-.32-.18.36.36 0 0 1 .13-.51l9.63-5.64a.35.35 0 0 1 .5.13.37.37 0 0 1-.13.5l-9.63 5.65a.41.41 0 0 1-.18.05ZM216.91 332.71a.36.36 0 0 1-.32-.18.37.37 0 0 1 .13-.51l9.63-5.64a.35.35 0 0 1 .5.13.37.37 0 0 1-.13.5l-9.63 5.65a.41.41 0 0 1-.18.05ZM219.31 334.24a.36.36 0 0 1-.32-.18.37.37 0 0 1 .13-.5l9.63-5.65a.37.37 0 0 1 .5.13.38.38 0 0 1-.13.51l-9.63 5.64a.31.31 0 0 1-.18.05ZM221.67 335.78a.37.37 0 0 1-.19-.69l9.63-5.64a.35.35 0 0 1 .5.13.36.36 0 0 1-.13.5l-9.63 5.65a.37.37 0 0 1-.18.05Z"/><path fill="#ffa8a7" d="m234.99 325.48-2.08 7.23s-3.31 1-7 2.2a41.58 41.58 0 0 1-6.92 1.65 23.59 23.59 0 0 1-1.82-2.51c-.58-1-1.07-2.48-1.53-2s-1.14 2.08 0 4.54a4.74 4.74 0 0 1-2.5-.33 39 39 0 0 1-3.33-2.18s-.88 2.38 0 3.75 3.48 3.35 9.33 3.35 19.32-1.14 20.53-3.2 3.42-11.78 3.42-11.78Z"/><path fill="#5fceb3" d="M243.1 308.23s3.87 1.57 3.51 7.44-3.51 13.8-3.51 13.8-5.9 0-9.34-3.68l3.46-12.72a6 6 0 0 1 3.61-4c.63-.26 1.38-.5 2.27-.84Z"/><path fill="#fff" d="M243.1 308.23s3.87 1.57 3.51 7.44-3.51 13.8-3.51 13.8-5.9 0-9.34-3.68l3.46-12.72a6 6 0 0 1 3.61-4c.63-.26 1.38-.5 2.27-.84Z" opacity=".4"/><path fill="#263238" d="M244.37 277.15s-3.19-.42-4 1.78c-.51 1.37 1.12 2.43 1.12 2.43s-2.06 1.94 1 2.54a2 2 0 0 0 2.48 2.28s-.35 2.09 2.34 2.82c0 0-1.36 3.62 1.19 3.67h2.41l-1 2.78a7.81 7.81 0 0 0 7.36 4.31 36.42 36.42 0 0 1 2.08-3.8c.66-.86 4.11-5.27 4.11-8.77s-1.35-5.57-3.21-6a8 8 0 0 0-2.67-3.19c-1.88-1.27-5.83-2.4-8.06-.85 0 0-2-2.59-3.35-2.59s-1.8 1.38-1.8 2.59Z"/><path fill="#ffa8a7" d="M248.5 292.67s-.23-3.67 2.86-3.67 2.36 6.45-1.43 6.45Z"/></svg>