<svg xmlns="http://www.w3.org/2000/svg" xmlns:xlink="http://www.w3.org/1999/xlink" width="1440" height="789" preserveAspectRatio="xMidYMax slice" viewBox="0 0 1440 789">
  <path fill="#143452" d="M-100 460.43C-72.9 468.9 -72.56 471.27 -47.1 471.27S-19.44 473.45 5.81 473.45S32.83 466.47 58.71 466.47S85.17 466.09 111.61 466.09S139.09 472.93 164.52 472.93S192.58 469.17 217.42 469.17S245.42 477.25 270.32 477.25S297 474.94 323.23 474.94S350.93 467.24 376.13 467.24S404.53 466.53 429.03 466.53S457.1 474.38 481.94 474.38S508.51 475.86 534.84 475.86S561.94 457.92 587.74 457.92S614.75 464.57 640.65 464.57S668.29 475.2 693.55 475.2S720.08 466.25 746.45 466.25S773.56 474.62 799.35 474.62S826.13 472.6 852.26 472.6S878.75 469.88 905.16 469.88S932.79 464.98 958.06 464.98S985.99 471.58 1010.97 471.58S1038.12 460.86 1063.87 460.86S1091.55 467.01 1116.77 467.01S1144.37 461.17 1169.68 461.17S1196.87 460.37 1222.58 460.37S1249.77 465.87 1275.48 465.87S1303.55 463.64 1328.39 463.64S1355.55 463.63 1381.29 463.63S1408.98 476.65 1434.19 476.65S1461.5 470.83 1487.1 470.83S1514.47 461.5 1540 461.5S1566.48 467.72 1592.9 467.72L1540 789 L-100 789 Z">
    <animate attributeName="d" dur="25s" repeatCount="indefinite" values="M-100 460.43C-72.9 468.9 -72.56 471.27 -47.1 471.27S-19.44 473.45 5.81 473.45S32.83 466.47 58.71 466.47S85.17 466.09 111.61 466.09S139.09 472.93 164.52 472.93S192.58 469.17 217.42 469.17S245.42 477.25 270.32 477.25S297 474.94 323.23 474.94S350.93 467.24 376.13 467.24S404.53 466.53 429.03 466.53S457.1 474.38 481.94 474.38S508.51 475.86 534.84 475.86S561.94 457.92 587.74 457.92S614.75 464.57 640.65 464.57S668.29 475.2 693.55 475.2S720.08 466.25 746.45 466.25S773.56 474.62 799.35 474.62S826.13 472.6 852.26 472.6S878.75 469.88 905.16 469.88S932.79 464.98 958.06 464.98S985.99 471.58 1010.97 471.58S1038.12 460.86 1063.87 460.86S1091.55 467.01 1116.77 467.01S1144.37 461.17 1169.68 461.17S1196.87 460.37 1222.58 460.37S1249.77 465.87 1275.48 465.87S1303.55 463.64 1328.39 463.64S1355.55 463.63 1381.29 463.63S1408.98 476.65 1434.19 476.65S1461.5 470.83 1487.1 470.83S1514.47 461.5 1540 461.5S1566.48 467.72 1592.9 467.72L1540 789 L-100 789 Z;M-100 457.79C-72.08 464.04 -73.42 463.38 -47.1 463.38S-18.79 476.51 5.81 476.51S32.39 460.51 58.71 460.51S86.79 464.32 111.61 464.32S139.01 471.77 164.52 471.77S191.31 459.67 217.42 459.67S244.72 472.66 270.32 472.66S297.89 472.67 323.23 472.67S351.11 467.9 376.13 467.9S403.95 460.17 429.03 460.17S456.57 473.47 481.94 473.47S509.31 466.78 534.84 466.78S561.36 468.68 587.74 468.68S614.97 475.33 640.65 475.33S668.46 464.25 693.55 464.25S721.76 470.56 746.45 470.56S773.18 464.43 799.35 464.43S827.78 465.91 852.26 465.91S879.73 461.17 905.16 461.17S932.26 470.41 958.06 470.41S985.47 476.32 1010.97 476.32S1039.06 464.22 1063.87 464.22S1091.12 466.97 1116.77 466.97S1143.28 459.11 1169.68 459.11S1197.95 467.81 1222.58 467.81S1250.91 462.89 1275.48 462.89S1303.73 465.36 1328.39 465.36S1356 472.56 1381.29 472.56S1409.34 460.73 1434.19 460.73S1460.89 465.32 1487.1 465.32S1514.09 476.49 1540 476.49S1566.6 468.58 1592.9 468.58L1540 789 L-100 789 Z;M-100 460.43C-72.9 468.9 -72.56 471.27 -47.1 471.27S-19.44 473.45 5.81 473.45S32.83 466.47 58.71 466.47S85.17 466.09 111.61 466.09S139.09 472.93 164.52 472.93S192.58 469.17 217.42 469.17S245.42 477.25 270.32 477.25S297 474.94 323.23 474.94S350.93 467.24 376.13 467.24S404.53 466.53 429.03 466.53S457.1 474.38 481.94 474.38S508.51 475.86 534.84 475.86S561.94 457.92 587.74 457.92S614.75 464.57 640.65 464.57S668.29 475.2 693.55 475.2S720.08 466.25 746.45 466.25S773.56 474.62 799.35 474.62S826.13 472.6 852.26 472.6S878.75 469.88 905.16 469.88S932.79 464.98 958.06 464.98S985.99 471.58 1010.97 471.58S1038.12 460.86 1063.87 460.86S1091.55 467.01 1116.77 467.01S1144.37 461.17 1169.68 461.17S1196.87 460.37 1222.58 460.37S1249.77 465.87 1275.48 465.87S1303.55 463.64 1328.39 463.64S1355.55 463.63 1381.29 463.63S1408.98 476.65 1434.19 476.65S1461.5 470.83 1487.1 470.83S1514.47 461.5 1540 461.5S1566.48 467.72 1592.9 467.72L1540 789 L-100 789 Z"></animate>
    <animateTransform attributeName="transform" type="translate" dur="25s" begin="0s" repeatCount="indefinite" values="0;10;0" calcMode="spline" keySplines="0.3 0 0.7 1;0.3 0 0.7 1"></animateTransform>
  </path>
  <path fill="#1f4461" d="M-100 491.75C-71.73 483.53 -72.5 487.65 -45.7 487.65S-17.9 490.56 8.61 490.56S37.61 492.73 62.91 492.73S90.6 494.5 117.22 494.5S144.57 487.97 171.52 487.97S199.08 479.37 225.83 479.37S253.6 481.79 280.13 481.79S307.36 483.81 334.44 483.81S362.26 495.99 388.74 495.99S417.6 483.68 443.05 483.68S471.38 484.07 497.35 484.07S524.76 494.83 551.66 494.83S580.35 489.03 605.96 489.03S634.85 479.78 660.26 479.78S688.17 499.43 714.57 499.43S743.5 495.68 768.87 495.68S797.47 500.07 823.18 500.07S851.52 487.92 877.48 487.92S906.27 484.77 931.79 484.77S960.87 481.68 986.09 481.68S1015.2 486.85 1040.4 486.85S1068.83 492.22 1094.7 492.22S1123.53 491.39 1149.01 491.39S1176.73 485.11 1203.31 485.11S1230.84 493.43 1257.62 493.43S1285.49 487.83 1311.92 487.83S1339.58 487.14 1366.23 487.14S1394.71 484.32 1420.53 484.32S1449.11 482.51 1474.83 482.51S1502.46 490.79 1529.14 490.79S1556.78 488.47 1583.44 488.47L1540 789 L-100 789 Z">
    <animate attributeName="d" dur="22.5s" repeatCount="indefinite" values="M-100 491.75C-71.73 483.53 -72.5 487.65 -45.7 487.65S-17.9 490.56 8.61 490.56S37.61 492.73 62.91 492.73S90.6 494.5 117.22 494.5S144.57 487.97 171.52 487.97S199.08 479.37 225.83 479.37S253.6 481.79 280.13 481.79S307.36 483.81 334.44 483.81S362.26 495.99 388.74 495.99S417.6 483.68 443.05 483.68S471.38 484.07 497.35 484.07S524.76 494.83 551.66 494.83S580.35 489.03 605.96 489.03S634.85 479.78 660.26 479.78S688.17 499.43 714.57 499.43S743.5 495.68 768.87 495.68S797.47 500.07 823.18 500.07S851.52 487.92 877.48 487.92S906.27 484.77 931.79 484.77S960.87 481.68 986.09 481.68S1015.2 486.85 1040.4 486.85S1068.83 492.22 1094.7 492.22S1123.53 491.39 1149.01 491.39S1176.73 485.11 1203.31 485.11S1230.84 493.43 1257.62 493.43S1285.49 487.83 1311.92 487.83S1339.58 487.14 1366.23 487.14S1394.71 484.32 1420.53 484.32S1449.11 482.51 1474.83 482.51S1502.46 490.79 1529.14 490.79S1556.78 488.47 1583.44 488.47L1540 789 L-100 789 Z;M-100 495.29C-71.22 490.32 -71.64 487.31 -45.7 487.31S-17.37 486 8.61 486S37.3 498.5 62.91 498.5S91.34 493.4 117.22 493.4S144.5 484.66 171.52 484.66S198.8 479.86 225.83 479.86S254.85 487.36 280.13 487.36S307.31 487.26 334.44 487.26S362.72 497.52 388.74 497.52S417.57 498.33 443.05 498.33S470.5 483.3 497.35 483.3S526.04 478.66 551.66 478.66S579.58 498.7 605.96 498.7S633.49 488.86 660.26 488.86S688.42 492.19 714.57 492.19S742.89 496.26 768.87 496.26S796.98 487.26 823.18 487.26S851.48 479.49 877.48 479.49S904.85 485.71 931.79 485.71S960.06 490.88 986.09 490.88S1014.06 493.95 1040.4 493.95S1068.91 479.14 1094.7 479.14S1122.68 481.54 1149.01 481.54S1177.72 478.61 1203.31 478.61S1231.44 493.79 1257.62 493.79S1286 494.23 1311.92 494.23S1340.27 485.55 1366.23 485.55S1394.32 492.1 1420.53 492.1S1448.62 483.5 1474.83 483.5S1503.1 481.84 1529.14 481.84S1556.79 485.87 1583.44 485.87L1540 789 L-100 789 Z;M-100 491.75C-71.73 483.53 -72.5 487.65 -45.7 487.65S-17.9 490.56 8.61 490.56S37.61 492.73 62.91 492.73S90.6 494.5 117.22 494.5S144.57 487.97 171.52 487.97S199.08 479.37 225.83 479.37S253.6 481.79 280.13 481.79S307.36 483.81 334.44 483.81S362.26 495.99 388.74 495.99S417.6 483.68 443.05 483.68S471.38 484.07 497.35 484.07S524.76 494.83 551.66 494.83S580.35 489.03 605.96 489.03S634.85 479.78 660.26 479.78S688.17 499.43 714.57 499.43S743.5 495.68 768.87 495.68S797.47 500.07 823.18 500.07S851.52 487.92 877.48 487.92S906.27 484.77 931.79 484.77S960.87 481.68 986.09 481.68S1015.2 486.85 1040.4 486.85S1068.83 492.22 1094.7 492.22S1123.53 491.39 1149.01 491.39S1176.73 485.11 1203.31 485.11S1230.84 493.43 1257.62 493.43S1285.49 487.83 1311.92 487.83S1339.58 487.14 1366.23 487.14S1394.71 484.32 1420.53 484.32S1449.11 482.51 1474.83 482.51S1502.46 490.79 1529.14 490.79S1556.78 488.47 1583.44 488.47L1540 789 L-100 789 Z"></animate>
    <animateTransform attributeName="transform" type="translate" dur="22.5s" begin="-2.25s" repeatCount="indefinite" values="0;10;0" calcMode="spline" keySplines="0.3 0 0.7 1;0.3 0 0.7 1"></animateTransform>
  </path>
  <path fill="#2a556f" d="M-100 512.47C-71.24 503.05 -71.12 520.4 -44.22 520.4S-14.38 502.4 11.56 502.4S40.26 500.82 67.35 500.82S95.85 504.32 123.13 504.32S152.95 505.44 178.91 505.44S207.1 498.31 234.69 498.31S264.01 521.44 290.48 521.44S319.55 498.95 346.26 498.95S374.46 510.12 402.04 510.12S431.2 497.82 457.82 497.82S487.53 506.69 513.61 506.69S542.53 512.18 569.39 512.18S598.19 509.28 625.17 509.28S654.11 513.22 680.95 513.22S710.2 503.03 736.73 503.03S766 502.94 792.52 502.94S820.5 519.98 848.3 519.98S876.2 508.03 904.08 508.03S933.08 514.32 959.86 514.32S988.2 508.87 1015.65 508.87S1044.89 520.29 1071.43 520.29S1101.12 509.43 1127.21 509.43S1157 522.76 1182.99 522.76S1211.15 514.79 1238.78 514.79S1267.8 523.88 1294.56 523.88S1323.37 502.01 1350.34 502.01S1379.92 506.73 1406.12 506.73S1434.23 513.03 1461.9 513.03S1490.5 519.96 1517.69 519.96S1546.66 504.8 1573.47 504.8L1540 789 L-100 789 Z">
    <animate attributeName="d" dur="20s" repeatCount="indefinite" values="M-100 512.47C-71.24 503.05 -71.12 520.4 -44.22 520.4S-14.38 502.4 11.56 502.4S40.26 500.82 67.35 500.82S95.85 504.32 123.13 504.32S152.95 505.44 178.91 505.44S207.1 498.31 234.69 498.31S264.01 521.44 290.48 521.44S319.55 498.95 346.26 498.95S374.46 510.12 402.04 510.12S431.2 497.82 457.82 497.82S487.53 506.69 513.61 506.69S542.53 512.18 569.39 512.18S598.19 509.28 625.17 509.28S654.11 513.22 680.95 513.22S710.2 503.03 736.73 503.03S766 502.94 792.52 502.94S820.5 519.98 848.3 519.98S876.2 508.03 904.08 508.03S933.08 514.32 959.86 514.32S988.2 508.87 1015.65 508.87S1044.89 520.29 1071.43 520.29S1101.12 509.43 1127.21 509.43S1157 522.76 1182.99 522.76S1211.15 514.79 1238.78 514.79S1267.8 523.88 1294.56 523.88S1323.37 502.01 1350.34 502.01S1379.92 506.73 1406.12 506.73S1434.23 513.03 1461.9 513.03S1490.5 519.96 1517.69 519.96S1546.66 504.8 1573.47 504.8L1540 789 L-100 789 Z;M-100 516.39C-70.44 500.98 -71.47 510.27 -44.22 510.27S-15.42 513.22 11.56 513.22S39.71 505.93 67.35 505.93S97.12 516.6 123.13 516.6S151.19 511.81 178.91 511.81S208 513.15 234.69 513.15S264.17 512.41 290.48 512.41S320.34 510.21 346.26 510.21S375.29 512.55 402.04 512.55S430.67 505.49 457.82 505.49S486.17 517.67 513.61 517.67S542.13 520.4 569.39 520.4S598.78 518.79 625.17 518.79S654.2 515.33 680.95 515.33S709.66 514.87 736.73 514.87S765.81 509.83 792.52 509.83S820.57 514.36 848.3 514.36S876.7 514.36 904.08 514.36S932.96 514.05 959.86 514.05S988.26 514.13 1015.65 514.13S1045.41 518.52 1071.43 518.52S1100.43 500.62 1127.21 500.62S1155.26 511.14 1182.99 511.14S1212.1 501.41 1238.78 501.41S1268.57 512.85 1294.56 512.85S1323.21 501.22 1350.34 501.22S1379.84 515.04 1406.12 515.04S1435.54 514.41 1461.9 514.41S1491.06 515.83 1517.69 515.83S1545.98 512.26 1573.47 512.26L1540 789 L-100 789 Z;M-100 512.47C-71.24 503.05 -71.12 520.4 -44.22 520.4S-14.38 502.4 11.56 502.4S40.26 500.82 67.35 500.82S95.85 504.32 123.13 504.32S152.95 505.44 178.91 505.44S207.1 498.31 234.69 498.31S264.01 521.44 290.48 521.44S319.55 498.95 346.26 498.95S374.46 510.12 402.04 510.12S431.2 497.82 457.82 497.82S487.53 506.69 513.61 506.69S542.53 512.18 569.39 512.18S598.19 509.28 625.17 509.28S654.11 513.22 680.95 513.22S710.2 503.03 736.73 503.03S766 502.94 792.52 502.94S820.5 519.98 848.3 519.98S876.2 508.03 904.08 508.03S933.08 514.32 959.86 514.32S988.2 508.87 1015.65 508.87S1044.89 520.29 1071.43 520.29S1101.12 509.43 1127.21 509.43S1157 522.76 1182.99 522.76S1211.15 514.79 1238.78 514.79S1267.8 523.88 1294.56 523.88S1323.37 502.01 1350.34 502.01S1379.92 506.73 1406.12 506.73S1434.23 513.03 1461.9 513.03S1490.5 519.96 1517.69 519.96S1546.66 504.8 1573.47 504.8L1540 789 L-100 789 Z"></animate>
    <animateTransform attributeName="transform" type="translate" dur="20s" begin="-4s" repeatCount="indefinite" values="0;10;0" calcMode="spline" keySplines="0.3 0 0.7 1;0.3 0 0.7 1"></animateTransform>
  </path>
  <path fill="#37667d" d="M-100 534.06C-70.95 535.39 -69.77 547.49 -42.66 547.49S-13.85 529.63 14.69 529.63S45.13 537.99 72.03 537.99S101.94 531.58 129.37 531.58S159.59 518.29 186.71 518.29S216.52 522.79 244.06 522.79S274.34 535.89 301.4 535.89S330.8 522.92 358.74 522.92S388.26 530.85 416.08 530.85S445.92 536.33 473.43 536.33S503.82 529.3 530.77 529.3S559.83 529.05 588.11 529.05S617.15 529.8 645.45 529.8S674.2 518.36 702.8 518.36S732.58 544.24 760.14 544.24S789.06 524.14 817.48 524.14S847.68 531.7 874.83 531.7S904.57 534.84 932.17 534.84S962.64 542.1 989.51 542.1S1018.37 524.39 1046.85 524.39S1076.3 536.26 1104.2 536.26S1133.51 526.81 1161.54 526.81S1191.48 529.82 1218.88 529.82S1249.38 525.79 1276.22 525.79S1305 533.27 1333.57 533.27S1363.94 520.96 1390.91 520.96S1421.39 544.83 1448.25 544.83S1477.69 523.84 1505.59 523.84S1534.48 529.29 1562.94 529.29L1540 789 L-100 789 Z">
    <animate attributeName="d" dur="17.5s" repeatCount="indefinite" values="M-100 534.06C-70.95 535.39 -69.77 547.49 -42.66 547.49S-13.85 529.63 14.69 529.63S45.13 537.99 72.03 537.99S101.94 531.58 129.37 531.58S159.59 518.29 186.71 518.29S216.52 522.79 244.06 522.79S274.34 535.89 301.4 535.89S330.8 522.92 358.74 522.92S388.26 530.85 416.08 530.85S445.92 536.33 473.43 536.33S503.82 529.3 530.77 529.3S559.83 529.05 588.11 529.05S617.15 529.8 645.45 529.8S674.2 518.36 702.8 518.36S732.58 544.24 760.14 544.24S789.06 524.14 817.48 524.14S847.68 531.7 874.83 531.7S904.57 534.84 932.17 534.84S962.64 542.1 989.51 542.1S1018.37 524.39 1046.85 524.39S1076.3 536.26 1104.2 536.26S1133.51 526.81 1161.54 526.81S1191.48 529.82 1218.88 529.82S1249.38 525.79 1276.22 525.79S1305 533.27 1333.57 533.27S1363.94 520.96 1390.91 520.96S1421.39 544.83 1448.25 544.83S1477.69 523.84 1505.59 523.84S1534.48 529.29 1562.94 529.29L1540 789 L-100 789 Z;M-100 533.16C-70.92 532.95 -69.53 542.36 -42.66 542.36S-12.84 544.09 14.69 544.09S43.89 535.9 72.03 535.9S100.84 528.71 129.37 528.71S158.88 531.36 186.71 531.36S216.52 518.47 244.06 518.47S274.65 535.51 301.4 535.51S331.64 529.12 358.74 529.12S388.63 524.95 416.08 524.95S446.49 539.98 473.43 539.98S502.67 524.54 530.77 524.54S561.38 533.5 588.11 533.5S617.33 518.13 645.45 518.13S674.8 545.63 702.8 545.63S732.96 537.86 760.14 537.86S790.38 539.04 817.48 539.04S846.63 519.11 874.83 519.11S904.06 531.18 932.17 531.18S962.24 547.88 989.51 547.88S1019.8 526.98 1046.85 526.98S1077.18 535.38 1104.2 535.38S1133.05 523.97 1161.54 523.97S1190.69 547.42 1218.88 547.42S1249.49 535.39 1276.22 535.39S1306.21 533.57 1333.57 533.57S1363.84 533.91 1390.91 533.91S1420.57 540.93 1448.25 540.93S1477.4 520.16 1505.59 520.16S1535.08 529 1562.94 529L1540 789 L-100 789 Z;M-100 534.06C-70.95 535.39 -69.77 547.49 -42.66 547.49S-13.85 529.63 14.69 529.63S45.13 537.99 72.03 537.99S101.94 531.58 129.37 531.58S159.59 518.29 186.71 518.29S216.52 522.79 244.06 522.79S274.34 535.89 301.4 535.89S330.8 522.92 358.74 522.92S388.26 530.85 416.08 530.85S445.92 536.33 473.43 536.33S503.82 529.3 530.77 529.3S559.83 529.05 588.11 529.05S617.15 529.8 645.45 529.8S674.2 518.36 702.8 518.36S732.58 544.24 760.14 544.24S789.06 524.14 817.48 524.14S847.68 531.7 874.83 531.7S904.57 534.84 932.17 534.84S962.64 542.1 989.51 542.1S1018.37 524.39 1046.85 524.39S1076.3 536.26 1104.2 536.26S1133.51 526.81 1161.54 526.81S1191.48 529.82 1218.88 529.82S1249.38 525.79 1276.22 525.79S1305 533.27 1333.57 533.27S1363.94 520.96 1390.91 520.96S1421.39 544.83 1448.25 544.83S1477.69 523.84 1505.59 523.84S1534.48 529.29 1562.94 529.29L1540 789 L-100 789 Z"></animate>
    <animateTransform attributeName="transform" type="translate" dur="17.5s" begin="-5.25s" repeatCount="indefinite" values="0;10;0" calcMode="spline" keySplines="0.3 0 0.7 1;0.3 0 0.7 1"></animateTransform>
  </path>
  <path fill="#45788b" d="M-100 548.86C-68.62 542.31 -69.51 564.48 -41.01 564.48S-11.1 547.6 17.99 547.6S48.09 542.71 76.98 542.71S107.45 538.92 135.97 538.92S166.83 568.83 194.96 568.83S224.52 543.52 253.96 543.52S285.11 537.74 312.95 537.74S344.08 550.32 371.94 550.32S401.95 565.73 430.94 565.73S460.68 537.91 489.93 537.91S520.15 550.98 548.92 550.98S579.82 550.89 607.91 550.89S637.86 552.72 666.91 552.72S696.82 564.15 725.9 564.15S755.92 559.65 784.89 559.65S815.29 540.35 843.88 540.35S874.74 558.26 902.88 558.26S933.2 548.55 961.87 548.55S992.52 545.55 1020.86 545.55S1051.34 536.9 1079.86 536.9S1110.52 566.92 1138.85 566.92S1169.22 562.51 1197.84 562.51S1228.39 566.61 1256.83 566.61S1287.29 562 1315.83 562S1346.03 562.47 1374.82 562.47S1405.74 548.96 1433.81 548.96S1465.28 550.54 1492.81 550.54S1522.45 549.09 1551.8 549.09L1540 789 L-100 789 Z">
    <animate attributeName="d" dur="15s" repeatCount="indefinite" values="M-100 548.86C-68.62 542.31 -69.51 564.48 -41.01 564.48S-11.1 547.6 17.99 547.6S48.09 542.71 76.98 542.71S107.45 538.92 135.97 538.92S166.83 568.83 194.96 568.83S224.52 543.52 253.96 543.52S285.11 537.74 312.95 537.74S344.08 550.32 371.94 550.32S401.95 565.73 430.94 565.73S460.68 537.91 489.93 537.91S520.15 550.98 548.92 550.98S579.82 550.89 607.91 550.89S637.86 552.72 666.91 552.72S696.82 564.15 725.9 564.15S755.92 559.65 784.89 559.65S815.29 540.35 843.88 540.35S874.74 558.26 902.88 558.26S933.2 548.55 961.87 548.55S992.52 545.55 1020.86 545.55S1051.34 536.9 1079.86 536.9S1110.52 566.92 1138.85 566.92S1169.22 562.51 1197.84 562.51S1228.39 566.61 1256.83 566.61S1287.29 562 1315.83 562S1346.03 562.47 1374.82 562.47S1405.74 548.96 1433.81 548.96S1465.28 550.54 1492.81 550.54S1522.45 549.09 1551.8 549.09L1540 789 L-100 789 Z;M-100 555.79C-70.12 539.12 -69.78 539.22 -41.01 539.22S-9.76 548.25 17.99 548.25S47.84 554.28 76.98 554.28S108.1 551.35 135.97 551.35S165.71 558.2 194.96 558.2S225.9 552.4 253.96 552.4S284.11 553 312.95 553S343.28 548.26 371.94 548.26S402.2 564.35 430.94 564.35S461.76 540.82 489.93 540.82S521.01 569.79 548.92 569.79S580.18 540.23 607.91 540.23S639.06 540.48 666.91 540.48S698.14 545.56 725.9 545.56S755.41 553.93 784.89 553.93S814.86 548.02 843.88 548.02S874.19 571.38 902.88 571.38S933.73 538.87 961.87 538.87S992.12 564.94 1020.86 564.94S1051.19 544.25 1079.86 544.25S1110.57 558.69 1138.85 558.69S1169.79 554.04 1197.84 554.04S1228.54 568.04 1256.83 568.04S1287.23 540.22 1315.83 540.22S1346.58 558.46 1374.82 558.46S1404.49 541.84 1433.81 541.84S1463.81 556.93 1492.81 556.93S1522.95 558.11 1551.8 558.11L1540 789 L-100 789 Z;M-100 548.86C-68.62 542.31 -69.51 564.48 -41.01 564.48S-11.1 547.6 17.99 547.6S48.09 542.71 76.98 542.71S107.45 538.92 135.97 538.92S166.83 568.83 194.96 568.83S224.52 543.52 253.96 543.52S285.11 537.74 312.95 537.74S344.08 550.32 371.94 550.32S401.95 565.73 430.94 565.73S460.68 537.91 489.93 537.91S520.15 550.98 548.92 550.98S579.82 550.89 607.91 550.89S637.86 552.72 666.91 552.72S696.82 564.15 725.9 564.15S755.92 559.65 784.89 559.65S815.29 540.35 843.88 540.35S874.74 558.26 902.88 558.26S933.2 548.55 961.87 548.55S992.52 545.55 1020.86 545.55S1051.34 536.9 1079.86 536.9S1110.52 566.92 1138.85 566.92S1169.22 562.51 1197.84 562.51S1228.39 566.61 1256.83 566.61S1287.29 562 1315.83 562S1346.03 562.47 1374.82 562.47S1405.74 548.96 1433.81 548.96S1465.28 550.54 1492.81 550.54S1522.45 549.09 1551.8 549.09L1540 789 L-100 789 Z"></animate>
    <animateTransform attributeName="transform" type="translate" dur="15s" begin="-6s" repeatCount="indefinite" values="0;10;0" calcMode="spline" keySplines="0.3 0 0.7 1;0.3 0 0.7 1"></animateTransform>
  </path>
  <path fill="#558a99" d="M-100 570.5C-69.29 564.27 -69.13 582.09 -39.26 582.09S-8.21 575.22 21.48 575.22S53.2 580.99 82.22 580.99S113.4 589.47 142.96 589.47S173.88 583.59 203.7 583.59S235.85 567.34 264.44 567.34S295.88 584.4 325.19 584.4S356.47 587.26 385.93 587.26S417.17 591.43 446.67 591.43S477.29 563.97 507.41 563.97S539.06 577.01 568.15 577.01S598.86 569.54 628.89 569.54S661.11 594.36 689.63 594.36S720.96 562.62 750.37 562.62S781.75 593.55 811.11 593.55S842.79 583.49 871.85 583.49S902.29 592.9 932.59 592.9S962.99 581.25 993.33 581.25S1025.05 559.05 1054.07 559.05S1084.51 572.92 1114.81 572.92S1145.72 589.87 1175.56 589.87S1206.03 559.42 1236.3 559.42S1267.47 576.99 1297.04 576.99S1329.26 580.45 1357.78 580.45S1388.47 591.25 1418.52 591.25S1449.82 560.43 1479.26 560.43S1510.21 586.83 1540 586.83S1572.1 562.65 1600.74 562.65L1540 789 L-100 789 Z">
    <animate attributeName="d" dur="12.5s" repeatCount="indefinite" values="M-100 570.5C-69.29 564.27 -69.13 582.09 -39.26 582.09S-8.21 575.22 21.48 575.22S53.2 580.99 82.22 580.99S113.4 589.47 142.96 589.47S173.88 583.59 203.7 583.59S235.85 567.34 264.44 567.34S295.88 584.4 325.19 584.4S356.47 587.26 385.93 587.26S417.17 591.43 446.67 591.43S477.29 563.97 507.41 563.97S539.06 577.01 568.15 577.01S598.86 569.54 628.89 569.54S661.11 594.36 689.63 594.36S720.96 562.62 750.37 562.62S781.75 593.55 811.11 593.55S842.79 583.49 871.85 583.49S902.29 592.9 932.59 592.9S962.99 581.25 993.33 581.25S1025.05 559.05 1054.07 559.05S1084.51 572.92 1114.81 572.92S1145.72 589.87 1175.56 589.87S1206.03 559.42 1236.3 559.42S1267.47 576.99 1297.04 576.99S1329.26 580.45 1357.78 580.45S1388.47 591.25 1418.52 591.25S1449.82 560.43 1479.26 560.43S1510.21 586.83 1540 586.83S1572.1 562.65 1600.74 562.65L1540 789 L-100 789 Z;M-100 562.48C-67.66 566.86 -69.08 588.84 -39.26 588.84S-7.77 560.26 21.48 560.26S52.84 588.37 82.22 588.37S113.22 563.77 142.96 563.77S173.56 587.16 203.7 587.16S234.52 591.79 264.44 591.79S294.86 590.03 325.19 590.03S356.26 561.85 385.93 561.85S416.43 592.79 446.67 592.79S478.27 559.78 507.41 559.78S537.81 583.3 568.15 583.3S599.94 575.41 628.89 575.41S660.49 582.58 689.63 582.58S721.29 572.31 750.37 572.31S781.65 574.14 811.11 574.14S841.51 567.82 871.85 567.82S903.68 580.42 932.59 580.42S964.65 572.01 993.33 572.01S1025.16 593.26 1054.07 593.26S1085.01 574.42 1114.81 574.42S1145.64 593.28 1175.56 593.28S1206.02 566.03 1236.3 566.03S1267.47 558.43 1297.04 558.43S1329.38 571.53 1357.78 571.53S1389.64 589.11 1418.52 589.11S1449.92 561.18 1479.26 561.18S1510.82 581.71 1540 581.71S1570.56 577.92 1600.74 577.92L1540 789 L-100 789 Z;M-100 570.5C-69.29 564.27 -69.13 582.09 -39.26 582.09S-8.21 575.22 21.48 575.22S53.2 580.99 82.22 580.99S113.4 589.47 142.96 589.47S173.88 583.59 203.7 583.59S235.85 567.34 264.44 567.34S295.88 584.4 325.19 584.4S356.47 587.26 385.93 587.26S417.17 591.43 446.67 591.43S477.29 563.97 507.41 563.97S539.06 577.01 568.15 577.01S598.86 569.54 628.89 569.54S661.11 594.36 689.63 594.36S720.96 562.62 750.37 562.62S781.75 593.55 811.11 593.55S842.79 583.49 871.85 583.49S902.29 592.9 932.59 592.9S962.99 581.25 993.33 581.25S1025.05 559.05 1054.07 559.05S1084.51 572.92 1114.81 572.92S1145.72 589.87 1175.56 589.87S1206.03 559.42 1236.3 559.42S1267.47 576.99 1297.04 576.99S1329.26 580.45 1357.78 580.45S1388.47 591.25 1418.52 591.25S1449.82 560.43 1479.26 560.43S1510.21 586.83 1540 586.83S1572.1 562.65 1600.74 562.65L1540 789 L-100 789 Z"></animate>
    <animateTransform attributeName="transform" type="translate" dur="12.5s" begin="-6.25s" repeatCount="indefinite" values="0;10;0" calcMode="spline" keySplines="0.3 0 0.7 1;0.3 0 0.7 1"></animateTransform>
  </path>
  <path fill="#659ca6" d="M-100 593.43C-67.56 584.06 -67.24 615.3 -37.4 615.3S-4.7 583.31 25.19 583.31S56.54 601.88 87.79 601.88S120.81 592.65 150.38 592.65S181.87 601.06 212.98 601.06S245.46 594.93 275.57 594.93S307.31 589.07 338.17 589.07S369.9 584.19 400.76 584.19S433.44 619.09 463.36 619.09S495.42 584.13 525.95 584.13S557.54 606.85 588.55 606.85S620.39 586.48 651.15 586.48S683.16 610.33 713.74 610.33S747.01 590.25 776.34 590.25S809.07 600.39 838.93 600.39S871.64 593.21 901.53 593.21S933.41 605.66 964.12 605.66S996.37 587.32 1026.72 587.32S1058.12 619.04 1089.31 619.04S1121.78 595.35 1151.91 595.35S1183.39 609.27 1214.5 609.27S1245.97 593.32 1277.1 593.32S1309.92 604.29 1339.69 604.29S1372.09 591.08 1402.29 591.08S1433.65 586.79 1464.89 586.79S1496.25 603.49 1527.48 603.49S1560.62 600.3 1590.08 600.3L1540 789 L-100 789 Z">
    <animate attributeName="d" dur="10s" repeatCount="indefinite" values="M-100 593.43C-67.56 584.06 -67.24 615.3 -37.4 615.3S-4.7 583.31 25.19 583.31S56.54 601.88 87.79 601.88S120.81 592.65 150.38 592.65S181.87 601.06 212.98 601.06S245.46 594.93 275.57 594.93S307.31 589.07 338.17 589.07S369.9 584.19 400.76 584.19S433.44 619.09 463.36 619.09S495.42 584.13 525.95 584.13S557.54 606.85 588.55 606.85S620.39 586.48 651.15 586.48S683.16 610.33 713.74 610.33S747.01 590.25 776.34 590.25S809.07 600.39 838.93 600.39S871.64 593.21 901.53 593.21S933.41 605.66 964.12 605.66S996.37 587.32 1026.72 587.32S1058.12 619.04 1089.31 619.04S1121.78 595.35 1151.91 595.35S1183.39 609.27 1214.5 609.27S1245.97 593.32 1277.1 593.32S1309.92 604.29 1339.69 604.29S1372.09 591.08 1402.29 591.08S1433.65 586.79 1464.89 586.79S1496.25 603.49 1527.48 603.49S1560.62 600.3 1590.08 600.3L1540 789 L-100 789 Z;M-100 583.21C-68.68 592.2 -66.94 607.38 -37.4 607.38S-4.36 594.95 25.19 594.95S57.19 605.2 87.79 605.2S120.23 618.7 150.38 618.7S182.74 617.54 212.98 617.54S245 583.17 275.57 583.17S307.35 617.26 338.17 617.26S370.6 586.37 400.76 586.37S432.83 606.94 463.36 606.94S494.97 577.56 525.95 577.56S558.79 613.85 588.55 613.85S620.27 594.6 651.15 594.6S682.79 604.71 713.74 604.71S746.65 617.88 776.34 617.88S809.26 615.78 838.93 615.78S871.35 579.66 901.53 579.66S934.55 613.33 964.12 613.33S995.73 589.83 1026.72 589.83S1059.27 611.51 1089.31 611.51S1120.77 586.2 1151.91 586.2S1183.84 617.34 1214.5 617.34S1246.69 593.55 1277.1 593.55S1308.9 608.52 1339.69 608.52S1372.83 580.05 1402.29 580.05S1434.18 609.12 1464.89 609.12S1497.81 588.65 1527.48 588.65S1559.59 603.09 1590.08 603.09L1540 789 L-100 789 Z;M-100 593.43C-67.56 584.06 -67.24 615.3 -37.4 615.3S-4.7 583.31 25.19 583.31S56.54 601.88 87.79 601.88S120.81 592.65 150.38 592.65S181.87 601.06 212.98 601.06S245.46 594.93 275.57 594.93S307.31 589.07 338.17 589.07S369.9 584.19 400.76 584.19S433.44 619.09 463.36 619.09S495.42 584.13 525.95 584.13S557.54 606.85 588.55 606.85S620.39 586.48 651.15 586.48S683.16 610.33 713.74 610.33S747.01 590.25 776.34 590.25S809.07 600.39 838.93 600.39S871.64 593.21 901.53 593.21S933.41 605.66 964.12 605.66S996.37 587.32 1026.72 587.32S1058.12 619.04 1089.31 619.04S1121.78 595.35 1151.91 595.35S1183.39 609.27 1214.5 609.27S1245.97 593.32 1277.1 593.32S1309.92 604.29 1339.69 604.29S1372.09 591.08 1402.29 591.08S1433.65 586.79 1464.89 586.79S1496.25 603.49 1527.48 603.49S1560.62 600.3 1590.08 600.3L1540 789 L-100 789 Z"></animate>
    <animateTransform attributeName="transform" type="translate" dur="10s" begin="-6s" repeatCount="indefinite" values="0;10;0" calcMode="spline" keySplines="0.3 0 0.7 1;0.3 0 0.7 1"></animateTransform>
  </path>
  <path fill="#77afb3" d="M-100 603.06C-66.63 614.69 -67.33 642.53 -35.43 642.53S-3.06 609.39 29.13 609.39S61.53 642.98 93.7 642.98S126.57 597.71 158.27 597.71S191.34 634.23 222.83 634.23S256.16 610.26 287.4 610.26S321.28 638.83 351.97 638.83S384.84 599.72 416.54 599.72S449.18 640.9 481.1 640.9S514.25 614.06 545.67 614.06S578.98 631.67 610.24 631.67S644.15 604.31 674.8 604.31S707.84 640.71 739.37 640.71S773.46 607.47 803.94 607.47S837.94 628.4 868.5 628.4S902.52 601.54 933.07 601.54S966.55 624.81 997.64 624.81S1029.93 606.91 1062.2 606.91S1096.34 624.72 1126.77 624.72S1159.6 634.64 1191.34 634.64S1224.83 637.18 1255.91 637.18S1288.76 598.01 1320.47 598.01S1353.96 638.27 1385.04 638.27S1419.27 624.8 1449.61 624.8S1482.71 632.82 1514.17 632.82S1548.24 611.46 1578.74 611.46L1540 789 L-100 789 Z">
    <animate attributeName="d" dur="7.5s" repeatCount="indefinite" values="M-100 603.06C-66.63 614.69 -67.33 642.53 -35.43 642.53S-3.06 609.39 29.13 609.39S61.53 642.98 93.7 642.98S126.57 597.71 158.27 597.71S191.34 634.23 222.83 634.23S256.16 610.26 287.4 610.26S321.28 638.83 351.97 638.83S384.84 599.72 416.54 599.72S449.18 640.9 481.1 640.9S514.25 614.06 545.67 614.06S578.98 631.67 610.24 631.67S644.15 604.31 674.8 604.31S707.84 640.71 739.37 640.71S773.46 607.47 803.94 607.47S837.94 628.4 868.5 628.4S902.52 601.54 933.07 601.54S966.55 624.81 997.64 624.81S1029.93 606.91 1062.2 606.91S1096.34 624.72 1126.77 624.72S1159.6 634.64 1191.34 634.64S1224.83 637.18 1255.91 637.18S1288.76 598.01 1320.47 598.01S1353.96 638.27 1385.04 638.27S1419.27 624.8 1449.61 624.8S1482.71 632.82 1514.17 632.82S1548.24 611.46 1578.74 611.46L1540 789 L-100 789 Z;M-100 600.26C-66.65 602.54 -67.37 627.68 -35.43 627.68S-2.57 615.35 29.13 615.35S62.85 637.56 93.7 637.56S127.88 609.43 158.27 609.43S190.99 634.92 222.83 634.92S255.15 595.93 287.4 595.93S320.31 635.94 351.97 635.94S384.64 597.5 416.54 597.5S450.44 631.19 481.1 631.19S514.74 606.67 545.67 606.67S578.66 631.83 610.24 631.83S642.55 598.24 674.8 598.24S707.42 631.64 739.37 631.64S773.46 605.38 803.94 605.38S836.82 629.55 868.5 629.55S902.74 607.34 933.07 607.34S965.74 635.42 997.64 635.42S1030.69 632.02 1062.2 632.02S1095.75 601.93 1126.77 601.93S1160.83 602.29 1191.34 602.29S1224.29 629.8 1255.91 629.8S1289.18 605.68 1320.47 605.68S1354.19 625.73 1385.04 625.73S1419.27 612.43 1449.61 612.43S1482.71 612.66 1514.17 612.66S1548.26 615.02 1578.74 615.02L1540 789 L-100 789 Z;M-100 603.06C-66.63 614.69 -67.33 642.53 -35.43 642.53S-3.06 609.39 29.13 609.39S61.53 642.98 93.7 642.98S126.57 597.71 158.27 597.71S191.34 634.23 222.83 634.23S256.16 610.26 287.4 610.26S321.28 638.83 351.97 638.83S384.84 599.72 416.54 599.72S449.18 640.9 481.1 640.9S514.25 614.06 545.67 614.06S578.98 631.67 610.24 631.67S644.15 604.31 674.8 604.31S707.84 640.71 739.37 640.71S773.46 607.47 803.94 607.47S837.94 628.4 868.5 628.4S902.52 601.54 933.07 601.54S966.55 624.81 997.64 624.81S1029.93 606.91 1062.2 606.91S1096.34 624.72 1126.77 624.72S1159.6 634.64 1191.34 634.64S1224.83 637.18 1255.91 637.18S1288.76 598.01 1320.47 598.01S1353.96 638.27 1385.04 638.27S1419.27 624.8 1449.61 624.8S1482.71 632.82 1514.17 632.82S1548.24 611.46 1578.74 611.46L1540 789 L-100 789 Z"></animate>
    <animateTransform attributeName="transform" type="translate" dur="7.5s" begin="-5.25s" repeatCount="indefinite" values="0;10;0" calcMode="spline" keySplines="0.3 0 0.7 1;0.3 0 0.7 1"></animateTransform>
  </path>
  <path fill="#8ac1c1" d="M-100 631.56C-66.2 620.01 -65.13 649.85 -33.33 649.85S1.92 625.93 33.33 625.93S67.03 647.53 100 647.53S135.03 623.38 166.67 623.38S201.02 656.97 233.33 656.97S268.14 617.66 300 617.66S334.48 622.4 366.67 622.4S401.49 621.81 433.33 621.81S467.5 663.15 500 663.15S534.67 623.63 566.67 623.63S600.7 661.64 633.33 661.64S667.5 623.99 700 623.99S734.78 647.84 766.67 647.84S800.99 626.54 833.33 626.54S868.28 651.78 900 651.78S934.51 628.3 966.67 628.3S1001.96 626.87 1033.33 626.87S1068.11 621.32 1100 621.32S1135.11 656.14 1166.67 656.14S1201.66 663.81 1233.33 663.81S1267.77 663.97 1300 663.97S1334.76 663.87 1366.67 663.87S1400.16 654.81 1433.33 654.81S1467.7 633.71 1500 633.71S1533.96 649.17 1566.67 649.17L1540 789 L-100 789 Z">
    <animate attributeName="d" dur="5s" repeatCount="indefinite" values="M-100 631.56C-66.2 620.01 -65.13 649.85 -33.33 649.85S1.92 625.93 33.33 625.93S67.03 647.53 100 647.53S135.03 623.38 166.67 623.38S201.02 656.97 233.33 656.97S268.14 617.66 300 617.66S334.48 622.4 366.67 622.4S401.49 621.81 433.33 621.81S467.5 663.15 500 663.15S534.67 623.63 566.67 623.63S600.7 661.64 633.33 661.64S667.5 623.99 700 623.99S734.78 647.84 766.67 647.84S800.99 626.54 833.33 626.54S868.28 651.78 900 651.78S934.51 628.3 966.67 628.3S1001.96 626.87 1033.33 626.87S1068.11 621.32 1100 621.32S1135.11 656.14 1166.67 656.14S1201.66 663.81 1233.33 663.81S1267.77 663.97 1300 663.97S1334.76 663.87 1366.67 663.87S1400.16 654.81 1433.33 654.81S1467.7 633.71 1500 633.71S1533.96 649.17 1566.67 649.17L1540 789 L-100 789 Z;M-100 620.76C-65.09 634.36 -64.76 622.11 -33.33 622.11S0.04 619.63 33.33 619.63S66.89 648.19 100 648.19S133.57 621.37 166.67 621.37S200.36 655.12 233.33 655.12S267.6 619.56 300 619.56S334.36 662.52 366.67 662.52S401.91 627.71 433.33 627.71S468.14 648.84 500 648.84S535.23 625.93 566.67 625.93S600.58 662.67 633.33 662.67S668.04 623.16 700 623.16S734.19 651.54 766.67 651.54S801.63 624.63 833.33 624.63S867.58 656.9 900 656.9S933.88 623.54 966.67 623.54S1000.94 654.91 1033.33 654.91S1067.28 627.24 1100 627.24S1135.18 662.9 1166.67 662.9S1201.14 618.58 1233.33 618.58S1266.76 665.91 1300 665.91S1335.26 622.41 1366.67 622.41S1401.58 655.88 1433.33 655.88S1468.49 623.03 1500 623.03S1534.45 659.95 1566.67 659.95L1540 789 L-100 789 Z;M-100 631.56C-66.2 620.01 -65.13 649.85 -33.33 649.85S1.92 625.93 33.33 625.93S67.03 647.53 100 647.53S135.03 623.38 166.67 623.38S201.02 656.97 233.33 656.97S268.14 617.66 300 617.66S334.48 622.4 366.67 622.4S401.49 621.81 433.33 621.81S467.5 663.15 500 663.15S534.67 623.63 566.67 623.63S600.7 661.64 633.33 661.64S667.5 623.99 700 623.99S734.78 647.84 766.67 647.84S800.99 626.54 833.33 626.54S868.28 651.78 900 651.78S934.51 628.3 966.67 628.3S1001.96 626.87 1033.33 626.87S1068.11 621.32 1100 621.32S1135.11 656.14 1166.67 656.14S1201.66 663.81 1233.33 663.81S1267.77 663.97 1300 663.97S1334.76 663.87 1366.67 663.87S1400.16 654.81 1433.33 654.81S1467.7 633.71 1500 633.71S1533.96 649.17 1566.67 649.17L1540 789 L-100 789 Z"></animate>
    <animateTransform attributeName="transform" type="translate" dur="5s" begin="-4s" repeatCount="indefinite" values="0;10;0" calcMode="spline" keySplines="0.3 0 0.7 1;0.3 0 0.7 1"></animateTransform>
  </path>
  <path fill="#b3e7dc" d="M-100 653.8C-65.45 652.33 -64.07 688.16 -31.09 688.16S5.28 654.38 37.82 654.38S72.4 688.71 106.72 688.71S142.43 653.25 175.63 653.25S211.49 673.81 244.54 673.81S280.49 644.76 313.45 644.76S348.99 672.47 382.35 672.47S417.71 688.83 451.26 688.83S487.24 688.47 520.17 688.47S555.91 650.7 589.08 650.7S624.74 683.13 657.98 683.13S692.82 648.82 726.89 648.82S762.54 686.11 795.8 686.11S830.33 641.62 864.71 641.62S900.41 678.31 933.61 678.31S969.35 646.04 1002.52 646.04S1038.63 672.15 1071.43 672.15S1107.78 648.6 1140.34 648.6S1176.13 684.85 1209.24 684.85S1244.76 654.47 1278.15 654.47S1313.3 684.96 1347.06 684.96S1381.77 638.38 1415.97 638.38S1451.03 689.02 1484.87 689.02S1520.8 651.48 1553.78 651.48L1540 789 L-100 789 Z">
    <animate attributeName="d" dur="2.5s" repeatCount="indefinite" values="M-100 653.8C-65.45 652.33 -64.07 688.16 -31.09 688.16S5.28 654.38 37.82 654.38S72.4 688.71 106.72 688.71S142.43 653.25 175.63 653.25S211.49 673.81 244.54 673.81S280.49 644.76 313.45 644.76S348.99 672.47 382.35 672.47S417.71 688.83 451.26 688.83S487.24 688.47 520.17 688.47S555.91 650.7 589.08 650.7S624.74 683.13 657.98 683.13S692.82 648.82 726.89 648.82S762.54 686.11 795.8 686.11S830.33 641.62 864.71 641.62S900.41 678.31 933.61 678.31S969.35 646.04 1002.52 646.04S1038.63 672.15 1071.43 672.15S1107.78 648.6 1140.34 648.6S1176.13 684.85 1209.24 684.85S1244.76 654.47 1278.15 654.47S1313.3 684.96 1347.06 684.96S1381.77 638.38 1415.97 638.38S1451.03 689.02 1484.87 689.02S1520.8 651.48 1553.78 651.48L1540 789 L-100 789 Z;M-100 636.09C-64.58 639.69 -64.97 675.67 -31.09 675.67S3.96 641.39 37.82 641.39S73.48 671.69 106.72 671.69S141.94 645.76 175.63 645.76S211.09 677.86 244.54 677.86S280.43 651.98 313.45 651.98S349.09 677.32 382.35 677.32S418.62 680.82 451.26 680.82S486.82 686.18 520.17 686.18S555.81 688.34 589.08 688.34S623.6 649.34 657.98 649.34S694.19 638.26 726.89 638.26S762.26 683.24 795.8 683.24S830.73 649.29 864.71 649.29S900.74 680.27 933.61 680.27S969.22 651.99 1002.52 651.99S1038.84 687.73 1071.43 687.73S1107.05 646.75 1140.34 646.75S1176.18 671.51 1209.24 671.51S1245.42 640.44 1278.15 640.44S1312.92 684.54 1347.06 684.54S1382.52 638.15 1415.97 638.15S1451.58 686.45 1484.87 686.45S1519.96 640.21 1553.78 640.21L1540 789 L-100 789 Z;M-100 653.8C-65.45 652.33 -64.07 688.16 -31.09 688.16S5.28 654.38 37.82 654.38S72.4 688.71 106.72 688.71S142.43 653.25 175.63 653.25S211.49 673.81 244.54 673.81S280.49 644.76 313.45 644.76S348.99 672.47 382.35 672.47S417.71 688.83 451.26 688.83S487.24 688.47 520.17 688.47S555.91 650.7 589.08 650.7S624.74 683.13 657.98 683.13S692.82 648.82 726.89 648.82S762.54 686.11 795.8 686.11S830.33 641.62 864.71 641.62S900.41 678.31 933.61 678.31S969.35 646.04 1002.52 646.04S1038.63 672.15 1071.43 672.15S1107.78 648.6 1140.34 648.6S1176.13 684.85 1209.24 684.85S1244.76 654.47 1278.15 654.47S1313.3 684.96 1347.06 684.96S1381.77 638.38 1415.97 638.38S1451.03 689.02 1484.87 689.02S1520.8 651.48 1553.78 651.48L1540 789 L-100 789 Z"></animate>
    <animateTransform attributeName="transform" type="translate" dur="2.5s" begin="-2.25s" repeatCount="indefinite" values="0;10;0" calcMode="spline" keySplines="0.3 0 0.7 1;0.3 0 0.7 1"></animateTransform>
  </path>
</svg>