<svg xmlns="http://www.w3.org/2000/svg" xmlns:xlink="http://www.w3.org/1999/xlink" viewBox="0 0 512 512"><defs><linearGradient id="a" x1="477.74" y1="384.02" x2="64.95" y2="145.7" gradientUnits="userSpaceOnUse"><stop offset="0.5" stop-color="#5fceb3"/><stop offset="0.5" stop-color="#fca326"/></linearGradient></defs><circle cx="256" cy="256" r="256" fill="url(#a)"/><path fill="#fff" d="M471,223.2a80,80,0,0,0-57.7-24.4A77.8,77.8,0,0,0,372.7,210a135.6,135.6,0,0,0,.9-15.8A117.1,117.1,0,0,0,256.2,76.3h-.5A117.1,117.1,0,0,0,138.4,194.2a135.6,135.6,0,0,0,.9,15.8,78,78,0,0,0-40.6-11.2A80,80,0,0,0,41,223.2c-11.4,11.8-25,33-25,67s13.8,58.4,25.3,74.3a34.5,34.5,0,0,0,28.8,15A36.4,36.4,0,0,0,88,374.9l1.6-1,20.8-13.8a37.1,37.1,0,0,0,8.4-7.5,22,22,0,0,0,2,2.3c16.9,19.1,38.7,29.2,63.1,29.2,29.3,0,56.9-16.6,72.1-42.9,15.2,26.3,42.8,42.9,72.1,42.9,24.4,0,46.2-10.1,63.1-29.2.7-.7,1.3-1.5,2-2.3a35.1,35.1,0,0,0,8.4,7.5l20.8,13.8,1.6,1a36.4,36.4,0,0,0,17.9,4.6,34.3,34.3,0,0,0,28.7-14.9c11.6-16,25.4-41.9,25.4-74.4S482.4,235,471,223.2ZM256,236.3A134.6,134.6,0,0,0,240.3,210c-2.9-3.4-4.9-9.3-4.9-14.4,0-11,8.9-19.5,20.5-19.8s20.7,8.8,20.7,19.8c0,5.1-2,11-4.9,14.4C271.6,210.1,263.6,219.9,256,236.3ZM450.3,350.5a9.6,9.6,0,0,1-8.4,4.3,11.5,11.5,0,0,1-5.7-1.4l-21.1-13.9a14.1,14.1,0,0,1-5.9-8.8,8.4,8.4,0,0,1,1.2-6.1l1.3-1.9c3.5-5.3,14.3-21.5,14.3-34.6,0-7.8-5-13-9.7-13s-13,3.2-22.6,27c-5.6,14.1-22.8,57.3-65.6,57.3-29.6,0-60.2-25.5-60.2-68.1,0-36.5,22.3-64.9,22.5-65.2,6.7-7.8,10.9-19.5,10.9-30.5,0-24.6-19.9-44.1-45.4-44.5s-45.2,19.9-45.2,44.5c0,11,4.1,22.7,10.8,30.5.3.3,22.6,28.7,22.6,65.2,0,42.6-30.6,68.1-60.2,68.1-42.8,0-60-43.2-65.6-57.4-9.7-23.7-16.5-26.9-22.6-26.9s-9.7,5.2-9.7,13c0,13.1,10.8,29.3,14.3,34.6l1.3,1.9a8.4,8.4,0,0,1,1.2,6.1,13.9,13.9,0,0,1-6,8.8L76,353.3a12,12,0,0,1-5.9,1.5,9.6,9.6,0,0,1-8.4-4.3c-7.9-10.8-21-32.9-21-60.3,0-43.7,29.2-66.7,58-66.7,34.6,0,53.8,30,63.7,55.2,9,22.7,17.8,25.4,23.6,25.4s12.2-6,12.2-14.7c0-6.5-2.1-14.1-6.2-22.6l-10.4-16.6c-12.6-16.2-18.5-34-18.5-56,0-51.4,41.5-93.2,92.6-93.2h.5c51.2,0,92.7,41.8,92.7,93.2,0,22-5.9,39.8-18.5,56L320,266.8c-4.1,8.5-6.3,16.1-6.3,22.6,0,8.7,5.1,14.7,12.3,14.7s14.5-2.7,23.6-25.4c9.9-25.2,29-55.2,63.7-55.2,28.8,0,58,23,58,66.7C471.3,317.6,458.2,339.7,450.3,350.5Z"/></svg>