<svg xmlns="http://www.w3.org/2000/svg" viewBox="0 0 2048 512"><defs><linearGradient id="a" x1="2258.15" y1="-145.29" x2="690.86" y2="759.58" gradientTransform="matrix(1, 0, 0, -1, 0, 512)" gradientUnits="userSpaceOnUse"><stop offset="0.625" stop-color="#5fceb3"/><stop offset="0.625" stop-color="#fca326"/></linearGradient></defs><g fill="url(#a)"><path d="M660.9,203.9a128.5,128.5,0,0,0-67.5,18.5,230.6,230.6,0,0,0,1.5-26.3C595.5,88.4,508.6.6,400.8,0h-2A193.7,193.7,0,0,0,260.3,57.5c-36.6,36.9-56.7,86.1-56.7,138.6a230.6,230.6,0,0,0,1.5,26.3,128.5,128.5,0,0,0-67.5-18.5,133.1,133.1,0,0,0-96,40.5C22.6,264,0,299.2,0,355.9,0,410,23,453,42.1,479.4a57.4,57.4,0,0,0,47.9,25,62.1,62.1,0,0,0,29.8-7.7l2.7-1.7L157,472.2a64.3,64.3,0,0,0,14-12.5l3.3,3.8c28.1,31.7,64.4,48.5,104.9,48.5,48.9,0,94.7-27.6,120-71.4,25.4,43.8,71.2,71.4,120,71.4,40.6,0,76.9-16.8,105-48.5l3.3-3.8a66.2,66.2,0,0,0,13.9,12.5L676,495l2.7,1.7a61,61,0,0,0,29.8,7.7c19.5,0,37.4-9.4,47.7-24.8,19.3-26.6,42.3-69.7,42.3-123.7,0-56.7-22.7-91.9-41.7-111.5A132.9,132.9,0,0,0,660.9,203.9ZM373.1,222.4c-4.8-5.6-8.2-15.4-8.2-23.9,0-18.3,14.8-32.5,34.2-33a33.1,33.1,0,0,1,34.4,31.7h0v1.2c0,8.5-3.3,18.3-8.1,23.9-.2.2-13.6,16.5-26.2,43.8C386.7,239.2,373.3,222.6,373.1,222.4ZM722.4,456.2c-2.8,4.5-7.8,7.1-13.9,7.1A18.6,18.6,0,0,1,699,461l-35.1-23.2a23.1,23.1,0,0,1-9.8-14.7,13.1,13.1,0,0,1,2-10c.4-.7,1.1-1.8,2.1-3.2,5.9-8.8,23.9-35.8,23.9-57.6,0-13-8.4-21.7-16.3-21.7-10,0-21.5,5.5-37.5,45-9.3,23.5-37.9,95.3-109.1,95.3-49.2,0-100.1-42.3-100.1-113.2,0-60.8,37-108.1,37.4-108.5,11.2-13,18.1-32.4,18.1-50.7,0-40.9-33.1-73.5-75.5-74a73.8,73.8,0,0,0-75.3,72.3h0v1.7c0,18.3,7,37.7,18.1,50.7.4.4,37.5,47.7,37.5,108.5,0,70.9-50.9,113.2-100.2,113.2-71.2,0-99.7-71.8-109.1-95.4-16-39.4-27.4-44.9-37.5-44.9-7.8,0-16.2,8.7-16.2,21.7,0,21.8,18,48.8,23.9,57.6l2,3.2a12.6,12.6,0,0,1,2,10,23.1,23.1,0,0,1-9.8,14.7l-34.7,23a19.9,19.9,0,0,1-9.8,2.5c-6.1,0-11.2-2.6-14-7.1-13.1-18-34.9-54.7-34.9-100.3,0-72.8,48.5-111,96.5-111,57.6,0,89.4,50,106,91.8,15,37.8,29.6,42.2,39.3,42.2,11.9,0,20.3-10,20.3-24.3,0-10.8-3.5-23.5-10.5-37.7l-17.1-27.5c-21.1-27.1-31-56.7-31-93.3,0-85.5,69.2-155,154.2-155h.8c85.1,0,154.2,69.5,154.2,155,0,36.6-9.8,66.2-30.9,93.2L505.7,317c-6.9,14.1-10.4,26.8-10.4,37.6,0,14.3,8.3,24.3,20.3,24.3,9.7,0,24.3-4.4,39.3-42.2,16.5-41.8,48.4-91.8,106-91.8,47.9,0,96.5,38.2,96.5,111C757.4,401.5,735.6,438.2,722.4,456.2Z"/><path d="M1378.8,166.6c-15.6,0-28.8,13.4-28.8,29.1a28.9,28.9,0,1,0,28.8-29.1Z"/><path d="M1130.5,186.6a1.2,1.2,0,0,0-1.3-.7,1.3,1.3,0,0,0-1.4.7l-11.5,24.9a1.4,1.4,0,0,0,.2,1.4,1.2,1.2,0,0,0,1.1.7h23.1a1.4,1.4,0,0,0,1.2-.7,1.2,1.2,0,0,0,0-1.4Z"/><path d="M1629.2,166.6c-15.5,0-28.7,13.4-28.7,29.1a28.9,28.9,0,0,0,57.7,0A29.2,29.2,0,0,0,1629.2,166.6Z"/><path d="M1953.5,101.1a93.5,93.5,0,0,0-45.1,11.6,42.6,42.6,0,0,0-27.5-10.1h-62.6a42.1,42.1,0,0,0-22.1,6.1,90,90,0,0,0-36.2-7.6c-28.7,0-49.7,12.6-62,29.9a93.9,93.9,0,0,0-120.6-14.3,42.5,42.5,0,0,0-33.1-15.6h-2.4a43.5,43.5,0,0,0-37.8,22.5,43.5,43.5,0,0,0-37.8-22.5h-2.4a42.3,42.3,0,0,0-33.2,15.7,93.7,93.7,0,0,0-103-.6c-15.1-10.2-32.1-15.1-51.6-15.1a94.7,94.7,0,0,0-89.3,63.4l-18-38.6-.6-1.2a42.8,42.8,0,0,0-38.3-23.6h-1.5a43,43,0,0,0-36.7,20.7,42.7,42.7,0,0,0-35.7-19.2H993.4a43.5,43.5,0,0,0-22.2,6.2,89,89,0,0,0-36.3-7.7c-48.7,0-75,36.1-75,70.1A65.6,65.6,0,0,0,870.1,207l-4.2,7.3c-10.1,17.6-7.3,37.6,7.2,52.2,7,7.1,27.2,23.5,62.4,23.5a80.1,80.1,0,0,0,35.3-8.1,41,41,0,0,0,22.6,6.5H1056a43.3,43.3,0,0,0,12.4-1.8,38.4,38.4,0,0,0,12.6,1.8h16.7a44.6,44.6,0,0,0,31.4-12.4,44,44,0,0,0,31.3,12.4h16.9a42.3,42.3,0,0,0,36.1-19.7,8.6,8.6,0,0,0,1-1.6,94.6,94.6,0,0,0,61.7,22.9,93.5,93.5,0,0,0,51.3-15.3,94,94,0,0,0,93.7,5.2,42.9,42.9,0,0,0,25.8,8.5h17.9a41.9,41.9,0,0,0,17.4-3.7,42.4,42.4,0,0,0,20.6,5.3h2.6a42,42,0,0,0,20.5-5.3,42.3,42.3,0,0,0,17.5,3.7h17.9a41.8,41.8,0,0,0,25.7-8.5,94.1,94.1,0,0,0,108.1-16.8c1,1.1,2,2.3,3.1,3.4,7,7.1,27.2,23.5,62.4,23.5a80.9,80.9,0,0,0,35.2-8,41.5,41.5,0,0,0,22.5,6.4h62.6a41.9,41.9,0,0,0,27.5-9.9,94.5,94.5,0,0,0,45.1,11.5c52.1,0,94.5-42.3,94.5-94.3A94.7,94.7,0,0,0,1953.5,101.1ZM935.5,253.3c-22.1,0-33.5-9.7-36.4-12.6s-3.6-4.2-1.3-8.4l7.1-12.5c2-3.2,6.6-4.3,10.5-1.7,9.2,6.1,15.4,7.5,19,7.5s7-2.3,7-5.7c0-6.8-10.1-10.9-13.3-12.2-20.3-8-31.5-21-31.5-36.5s13.1-33.5,38.3-33.5c14.7,0,26.8,6.5,34.4,12.1,3.6,2.3,2.9,7.1,1.7,9.3l-7.7,11.7a8.5,8.5,0,0,1-6.8,3.8,5.6,5.6,0,0,1-3.3-1l-.8-.5c-7.9-5.3-14.1-7.9-18.7-7.9s-6.1,2-6.1,4.3,1.7,6.5,14.3,11.6,32.7,15.5,32.7,37.5C974.6,235.7,960,253.3,935.5,253.3Zm126.7-91.4a6.4,6.4,0,0,1-6.2,6.3h-38.5v12h31.1a6.5,6.5,0,0,1,6.3,6.2v16.5a6.3,6.3,0,0,1-6.3,6.3h-31.1v13.6H1056a6.4,6.4,0,0,1,6.2,6.3v16.5a6.2,6.2,0,0,1-6.2,6.2H993.4a6.4,6.4,0,0,1-6.3-6.2V145.5a6.3,6.3,0,0,1,6.3-6.3H1056a6.4,6.4,0,0,1,6.2,6.3ZM1182.6,249a6.3,6.3,0,0,1-5.3,2.8h-16.9c-4.6,0-6.7-2.3-8.3-5.7l-4.6-10h-36.7l-4.5,10a9,9,0,0,1-8.6,5.7h-16.6a6,6,0,0,1-6.3-5.7h0a6.6,6.6,0,0,1,.6-3.1l47.4-101.7a6.2,6.2,0,0,1,5.6-3.6h1.5a6.2,6.2,0,0,1,5.6,3.6L1182.9,243A6.4,6.4,0,0,1,1182.6,249Zm134.5-15.6a5.9,5.9,0,0,1-1.9,4.3,54.9,54.9,0,0,1-39.1,15.6,57.8,57.8,0,1,1,0-115.6h0c15.3,0,27.6,4.8,38.9,14.9a6.2,6.2,0,0,1,2.1,4.6,5.9,5.9,0,0,1-1.8,4.5L1303.5,174a6.2,6.2,0,0,1-8.6,0,27.9,27.9,0,0,0-18.1-6.7c-14.7,0-26.2,12.2-26.2,27.7s11.6,27.4,26.4,27.4a28.2,28.2,0,0,0,18-6.5c2.5-2.1,6.8-1.8,8.7.5l11.7,12.5A5.8,5.8,0,0,1,1317.1,233.4Zm61.9,19.9h-.2c-32.3,0-57.6-25.3-57.6-57.6a57.7,57.7,0,1,1,57.8,57.6Zm187.1-3.7a6.2,6.2,0,0,1-4.8,2.2h-17.9a6.5,6.5,0,0,1-6.3-5.4l-5.3-36.7L1511,249.8a6.5,6.5,0,0,1-5.6,3.5h-2.6a6.5,6.5,0,0,1-5.6-3.5l-20.9-40.1-5.3,36.7a6.3,6.3,0,0,1-6.2,5.4H1447a6.3,6.3,0,0,1-6.4-6,5.7,5.7,0,0,1,.1-1.3l17.1-101.4a6.2,6.2,0,0,1,6.1-5.4h2.4a6.6,6.6,0,0,1,5.5,3.4l32.3,60,32.2-60a6.8,6.8,0,0,1,5.6-3.4h2.4a6.3,6.3,0,0,1,6.1,5.4l17.1,101.4a6.3,6.3,0,0,1-1.4,5.1Zm63.3,3.7h-.2c-32.3,0-57.6-25.3-57.6-57.6a57.6,57.6,0,0,1,57.2-58h.4a57.8,57.8,0,0,1,.2,115.6Zm131.2,0c-22.1,0-33.4-9.7-36.5-12.6s-3.6-4.2-1.2-8.3l7.1-12.6c2-3.2,6.6-4.3,10.4-1.7,9.3,6.1,15.5,7.5,19.2,7.5s7-2.3,7-5.7c0-6.8-10.1-10.9-13.5-12.2-20.3-8-31.4-21-31.4-36.5s13.1-33.5,38.3-33.5c14.8,0,26.9,6.5,34.4,12.1,3.6,2.3,2.9,7.1,1.8,9.2l-7.9,11.8a8.4,8.4,0,0,1-6.7,3.8,5.3,5.3,0,0,1-3.2-1l-.9-.5c-7.9-5.3-14-7.9-18.8-7.9-3.3,0-6.1,2-6.1,4.3s1.7,6.5,14.4,11.6,32.6,15.5,32.6,37.5C1799.6,235.7,1785,253.3,1760.6,253.3Zm126.5-91.4a6.4,6.4,0,0,1-6.2,6.3h-38.5v12h31.1a6.5,6.5,0,0,1,6.3,6.2v16.5a6.5,6.5,0,0,1-6.3,6.3h-31.1v13.6h38.5a6.4,6.4,0,0,1,6.2,6.3v16.5a6.2,6.2,0,0,1-6.2,6.2h-62.6a6.4,6.4,0,0,1-6.3-6.2V145.5a6.3,6.3,0,0,1,6.3-6.3h62.6a6.4,6.4,0,0,1,6.2,6.3Zm66.8,91.4h-.4c-32.3,0-57.6-25.3-57.6-57.6a57.8,57.8,0,1,1,58,57.6Z"/><path d="M1953.5,166.6c-15.5,0-28.7,13.4-28.7,29.1a28.9,28.9,0,0,0,57.7,0A29.2,29.2,0,0,0,1953.5,166.6Z"/><path d="M875.4,354.4H859.9V400h15.2c12.5,0,18.8-7.9,18.8-23.9q0-10.5-4.2-16.2C886.9,356.1,882.1,354.4,875.4,354.4Zm4.5,32.3h0c-.8,1.8-2.4,2.7-5.1,2.7h-2.4v-24h2.3c2.7,0,4.3.9,5.2,2.7a28.8,28.8,0,0,1,1.2,9.2A29.6,29.6,0,0,1,879.9,386.7Z"/><rect x="897.9" y="365.1" width="12.3" height="34.9"/><path d="M909.1,353.8a6.5,6.5,0,0,0-5-1.5,7.2,7.2,0,0,0-5.3,1.5,5.7,5.7,0,0,0-1.5,4.3,6.6,6.6,0,0,0,1.5,4.2,8.3,8.3,0,0,0,5.3,1.3,7.4,7.4,0,0,0,5-1.3,5.6,5.6,0,0,0,1.5-4.4A4.9,4.9,0,0,0,909.1,353.8Z"/><path d="M925.5,376.6c-1-.5-1.6-.7-1.6-1.5s.4-1.2,1.5-1.2a68.5,68.5,0,0,1,10.1,1.6l1.2-10.1a45.6,45.6,0,0,0-11.6-1.5,12.8,12.8,0,0,0-9,3,10,10,0,0,0-3.2,8.3,11,11,0,0,0,2.9,8.1,29.4,29.4,0,0,0,9.6,5.4c1.2.4,1.6.8,1.6,1.6s-.7,1.1-2.1,1.1a51.8,51.8,0,0,1-9.5-2l-.9,9.9a45.6,45.6,0,0,0,11.6,1.5,12.1,12.1,0,0,0,8.5-2.9c2-1.8,2.9-4.6,2.9-8.2a10.9,10.9,0,0,0-3-8.2A28.2,28.2,0,0,0,925.5,376.6Z"/><path d="M955.1,363.9c-10.5,0-15.7,6.1-15.7,18.4,0,5.6,1.3,10.2,4,13.5s6.6,5,11.7,5a40.2,40.2,0,0,0,12.4-2l-1.1-9.1a51.4,51.4,0,0,1-9.5,1.8c-3.3,0-5.1-1.9-5.1-5.7h16.9c.3-4.6.4-7.3.4-7.9,0-4.4-1.2-8-3.3-10.4S960,363.9,955.1,363.9Zm3,15.7h-6.5a13.2,13.2,0,0,1,.6-3.9c.3-.9,1.2-1.4,2.6-1.4h0c2.1,0,3.3,1.2,3.3,3.6Z"/><path d="M990.3,351.4v2.5l-1.5-.4a38.8,38.8,0,0,0-6.6-1.4,5,5,0,0,0-4.9,2.4,14.9,14.9,0,0,0-1.3,7.2v.7h8v-2.5l1.8.6a16.5,16.5,0,0,0,5.8,1c2.7,0,4.5-.7,5.4-2.4a14.5,14.5,0,0,0,1.3-7.1v-.6Z"/><path d="M994,363.9a13.2,13.2,0,0,0-8.9,3.4h-.3l-.8-2.5H972.8V400h12.4V376.3a6,6,0,0,1,3.4-1.1c1.1,0,1.7.6,1.7,1.8v23h12.5V372.9a11,11,0,0,0-1.9-6.8C999.5,364.7,997.3,363.9,994,363.9Z"/><path d="M1022.2,363.9c-5.4,0-9,1.4-11.6,4.3s-3.8,7.6-3.8,14.1,1.4,11.2,3.8,14.1,6.2,4.4,11.6,4.4,9.3-1.4,11.6-4.4,3.5-7.5,3.5-14.1-1.2-11.3-3.6-14.2S1027.6,363.9,1022.2,363.9Zm2.2,26.1a2.1,2.1,0,0,1-2.3,1.7,2.5,2.5,0,0,1-2.4-1.7,30.3,30.3,0,0,1-.5-6.7v-1.8a26.8,26.8,0,0,1,.5-6.3,2.7,2.7,0,0,1,2.5-1.4,2.4,2.4,0,0,1,2.4,1.4h0a26.7,26.7,0,0,1,.4,6.3v2.2A16.7,16.7,0,0,1,1024.4,390Z"/><path d="M1086.2,389.3V352.9H1074v12.8a10.8,10.8,0,0,0-14.8,2.8c-1.9,3.2-3,7.8-3,13.9s.9,10.5,2.7,13.7,4.9,4.7,9.3,4.7a8.2,8.2,0,0,0,7.4-3.8h.5c.7,2.6,3.1,3.8,6.8,3.8l5-.3,1.1-8.8a4.3,4.3,0,0,1-2.2-.6A3,3,0,0,1,1086.2,389.3Zm-11.9,1.2a6.6,6.6,0,0,1-2.7.6,3.7,3.7,0,0,1-1.8-.5,2.9,2.9,0,0,1-.7-1.8,11.1,11.1,0,0,1-.5-2.5v-4.8a24.7,24.7,0,0,1,.5-5.4c.4-1.2,1-1.9,2-1.9a6.2,6.2,0,0,1,3.2.9Z"/><path d="M1106.8,363.9c-10.4,0-15.5,6.1-15.5,18.4,0,5.6,1.3,10.2,4,13.5s6.6,5,11.6,5a40.2,40.2,0,0,0,12.4-2l-1-9.1a52.4,52.4,0,0,1-9.6,1.8c-3.4,0-5-1.9-5-5.7h16.8c.3-4.6.5-7.3.5-7.9,0-4.4-1.2-8-3.3-10.4S1111.9,363.9,1106.8,363.9Zm3.1,14v1.7h-6.4a8.6,8.6,0,0,1,.6-3.9,2.4,2.4,0,0,1,2.4-1.4h1A3,3,0,0,1,1109.9,377.9Z"/><path d="M1155.9,354.4H1141V400h12.3V385.1h3.3c5.1,0,8.8-1.4,11.2-3.6s3.6-6.3,3.6-11.8-1.4-9.5-3.9-11.8S1161.1,354.4,1155.9,354.4Zm2.2,20.7a2.7,2.7,0,0,1-2.8,1.3h-2V364.8h1.7a3,3,0,0,1,3,1.3,8.7,8.7,0,0,1,.7,4.5A9.8,9.8,0,0,1,1158.1,375.1Z"/><path d="M1200.3,389.3l.3-15.4c0-3.4-.7-6-2.4-7.6s-4.6-2.4-8.8-2.4a71.1,71.1,0,0,0-15.8,2.4l2,10.7a52.1,52.1,0,0,1,11-2.1h.7a1.9,1.9,0,0,1,1.4,2.1v1.8c-5.5.5-9.6,1.3-12.1,3s-3.7,4.5-3.7,8.5a11.5,11.5,0,0,0,2.4,7.8,8.4,8.4,0,0,0,6.5,2.7,9.9,9.9,0,0,0,8.5-3.8h.3c1.1,2.6,3.3,3.8,7.1,3.8l4.6-.3,1.2-8.8a5,5,0,0,1-2.4-.6C1200.5,390.8,1200.3,390.2,1200.3,389.3Zm-11.2,0c0,1.9-.8,2.8-2.6,2.8h0c-1.5,0-2.3-.9-2.3-2.7a2.7,2.7,0,0,1,1.1-2.5,8.9,8.9,0,0,1,3.8-1.2Z"/><polygon points="1198.5 351.4 1186.8 351.4 1182.1 361.7 1190.6 361.7 1198.5 351.4"/><path d="M1209.6,367a10.6,10.6,0,0,0-3.7,9,13,13,0,0,0,1.3,6.7,11.3,11.3,0,0,0,3.9,4.5c-3.8,1.5-5.7,3.7-5.7,6.7a6.3,6.3,0,0,0,3.6,5.7v.3a4.3,4.3,0,0,0-2.8,3.8,5.6,5.6,0,0,0,3.5,5.7,28.8,28.8,0,0,0,10.9,1.5,20,20,0,0,0,11.2-2.7c2.7-1.8,4-3.9,4-8.8s-2.8-7.3-8.5-7.3h-10c-.9,0-1.2-.3-1.2-1.2v-.2a1.1,1.1,0,0,1,1.2-1h3.6c9,0,13.4-4,13.4-11.8a6.7,6.7,0,0,0-2.3-5.3v-.5h5.2v-8.2h-17.3A15.9,15.9,0,0,0,1209.6,367Zm7.3,33.8h7.6c.9,0,1.3.3,1.3,1v.6a1.1,1.1,0,0,1-1.3.9h-7.6c-.8,0-1.2-.3-1.2-1.1v-.3C1215.7,401.1,1216.1,400.8,1216.9,400.8Zm5.7-26.2a10.3,10.3,0,0,1,.6,3.5c0,2.8-.9,4.3-2.6,4.3s-2.7-1.5-2.7-4.5a6.3,6.3,0,0,1,.6-3.3,2.1,2.1,0,0,1,2-1.1A2.3,2.3,0,0,1,1222.6,374.6Z"/><rect x="1239.7" y="365.1" width="12.1" height="34.9"/><path d="M1250.8,353.8a9.4,9.4,0,0,0-10.2,0,5.7,5.7,0,0,0-1.5,4.3,5.5,5.5,0,0,0,1.5,4.2,10.8,10.8,0,0,0,10.2,0,6,6,0,0,0,1.6-4.4A5.3,5.3,0,0,0,1250.8,353.8Z"/><path d="M1277.8,363.9a13.6,13.6,0,0,0-9,3.4h-.3l-.7-2.5h-11.4V400h12.4V376.3a6.4,6.4,0,0,1,3.6-1.1q1.5,0,1.5,1.8v23h12.5V372.9a10.4,10.4,0,0,0-1.9-6.8C1283.3,364.7,1280.9,363.9,1277.8,363.9Z"/><path d="M1317.1,389.3l.3-15.4c0-3.4-.5-6-2.3-7.6s-4.7-2.4-8.8-2.4a59.7,59.7,0,0,0-15.7,2.4l1.8,10.7a52.1,52.1,0,0,1,11-2.1h.7a1.7,1.7,0,0,1,1.4,2.1v1.8c-5.5.5-9.3,1.3-11.9,3s-3.9,4.5-3.9,8.5a11.5,11.5,0,0,0,2.4,7.8,8.4,8.4,0,0,0,6.5,2.7c3.9,0,6.8-1.2,8.6-3.8h.2c1.1,2.6,3.3,3.8,7.1,3.8l4.6-.3,1.2-8.8a5,5,0,0,1-2.4-.6A2.5,2.5,0,0,1,1317.1,389.3Zm-11.1,0c0,1.9-.9,2.8-2.7,2.8s-2.3-.9-2.3-2.7a2.7,2.7,0,0,1,1.1-2.5,8.9,8.9,0,0,1,3.9-1.2Z"/><path d="M1342.8,381.5a31,31,0,0,0-8.9-4.9c-1.1-.5-1.7-.8-1.7-1.5s.5-1.2,1.5-1.2a72,72,0,0,1,10.2,1.6l1.1-10.1a45.6,45.6,0,0,0-11.6-1.5c-3.9,0-6.9.9-8.9,3a10.4,10.4,0,0,0-3.3,8.3c0,3.5.9,6.3,3,8.1a28.9,28.9,0,0,0,9.5,5.4c1.1.4,1.6.8,1.6,1.6s-.7,1.1-2.2,1.1a51.8,51.8,0,0,1-9.5-2l-.8,9.9a44.3,44.3,0,0,0,11.5,1.5c3.9,0,6.7-.9,8.7-2.9a11.1,11.1,0,0,0,2.8-8.2A10.9,10.9,0,0,0,1342.8,381.5Z"/><polygon points="1397.3 378.5 1396.5 378.5 1393.1 354.4 1380.8 354.4 1377.7 378.5 1377 378.5 1375 354.4 1362.9 354.4 1367.7 400 1383.1 400 1386.4 379.7 1387 379.7 1391 400 1406.1 400 1410.2 354.4 1398.6 354.4 1397.3 378.5"/><path d="M1429,363.9c-10.4,0-15.6,6.1-15.6,18.4,0,5.6,1.3,10.2,4,13.5s6.6,5,11.6,5a40.2,40.2,0,0,0,12.4-2l-1-9.1a52.4,52.4,0,0,1-9.6,1.8c-3.3,0-5-1.9-5-5.7h16.8c.3-4.6.5-7.3.5-7.9,0-4.4-1.2-8-3.3-10.4S1434,363.9,1429,363.9Zm3,15.7h-6.4a8.6,8.6,0,0,1,.6-3.9,2.3,2.3,0,0,1,2.5-1.4c2.1,0,3.3,1.2,3.3,3.6Z"/><path d="M1465.4,363.9a11.3,11.3,0,0,0-6.2,1.6h-.3V352.9h-12.4V400h9.7l.7-2.1h.3c1.5,2,3.2,2.9,7.8,2.9s7.8-1.6,9.4-4.7,2.5-7.7,2.5-14.3-.7-11.2-2.4-13.9S1470.1,363.9,1465.4,363.9Zm-.9,17.8c0,2.3-.1,3.8-.1,4.7a11.5,11.5,0,0,1-.3,2.6,2.2,2.2,0,0,1-.1.8,2.1,2.1,0,0,1-2.6,1.4,6.3,6.3,0,0,1-2.7-.6V375.2a9,9,0,0,1,3.2-.9,2.2,2.2,0,0,1,2,2A16.6,16.6,0,0,1,1464.5,381.7Z"/><path d="M1511.8,374.6a23.4,23.4,0,0,1,6.4,1.8l1.4-10.7a26.4,26.4,0,0,0-9.6-1.8,12.3,12.3,0,0,0-10.6,5.2,23.9,23.9,0,0,0-3.7,13.8q0,8.4,3.6,13.2c2.4,3.2,6,4.7,10.6,4.7a31.2,31.2,0,0,0,9.1-1.7l-1.3-9.4a38.1,38.1,0,0,1-5.9.8,3,3,0,0,1-3-1.8,20.5,20.5,0,0,1-.7-6,20.8,20.8,0,0,1,.7-6.1A2.9,2.9,0,0,1,1511.8,374.6Z"/><path d="M1536.6,363.9c-5.4,0-9,1.4-11.6,4.3s-3.8,7.6-3.8,14.1,1.1,11.2,3.6,14.1,6.4,4.4,11.8,4.4,9.1-1.4,11.5-4.4,3.6-7.5,3.6-14.1-1.2-11.3-3.6-14.2S1542,363.9,1536.6,363.9Zm2.2,26.1a2.3,2.3,0,0,1-2.4,1.7,2.1,2.1,0,0,1-2.3-1.7,30.3,30.3,0,0,1-.5-6.7v-1.8a26.8,26.8,0,0,1,.5-6.3,2.3,2.3,0,0,1,2.3-1.4,2.1,2.1,0,0,1,2.4,1.4,16.7,16.7,0,0,1,.6,6.3v2.2A22.5,22.5,0,0,1,1538.8,390Z"/><path d="M1576.7,363.9a13.2,13.2,0,0,0-8.9,3.4h-.3l-.8-2.5h-11.2V400h12.4V376.3a4.9,4.9,0,0,1,3.5-1.1c1,0,1.6.6,1.6,1.8v23h12.5V372.9a10.4,10.4,0,0,0-1.9-6.8C1582.2,364.7,1580,363.9,1576.7,363.9Z"/><path d="M1621.5,354.4h-15.1V400h12.4V385.1h3.4c5.1,0,8.8-1.4,11.2-3.6s3.6-6.3,3.6-11.8-1.4-9.5-3.9-11.8S1626.8,354.4,1621.5,354.4Zm2.1,20.7a2.7,2.7,0,0,1-2.7,1.3h-2.1V364.8h1.8a3,3,0,0,1,3,1.3,14.8,14.8,0,0,1,0,9Z"/><path d="M1654.5,363.9c-5.4,0-9.2,1.4-11.7,4.3s-3.7,7.6-3.7,14.1,1.1,11.2,3.6,14.1,6.5,4.4,11.8,4.4,9-1.4,11.4-4.4,3.6-7.5,3.6-14.1-1.3-11.3-3.6-14.2S1659.9,363.9,1654.5,363.9Zm2.2,26.1a2.4,2.4,0,0,1-1.7,1.7,2.5,2.5,0,0,1-3.1-1.7,30.2,30.2,0,0,1-.4-6.7v-1.8a26.7,26.7,0,0,1,.4-6.3,2.4,2.4,0,0,1,2.4-1.4,2.1,2.1,0,0,1,2.4,1.4,22.5,22.5,0,0,1,.6,6.3v2.2A22.5,22.5,0,0,1,1656.7,390Z"/><path d="M1684.3,376.6c-1.2-.5-1.8-.7-1.8-1.5s.6-1.2,1.6-1.2a67.2,67.2,0,0,1,10,1.6l1.4-10.1a46.4,46.4,0,0,0-11.7-1.5,13,13,0,0,0-9.1,3,10,10,0,0,0-3.2,8.3,11,11,0,0,0,2.9,8.1,30.9,30.9,0,0,0,9.7,5.4c1.1.4,1.5.8,1.5,1.6s-.6,1.1-2.1,1.1a51.8,51.8,0,0,1-9.5-2l-.9,9.9a45.6,45.6,0,0,0,11.6,1.5c3.9,0,6.5-1.1,8.5-2.9s2.9-4.6,2.9-8.2a10.9,10.9,0,0,0-3-8.2A27.2,27.2,0,0,0,1684.3,376.6Z"/><path d="M1709.9,353.8c-.8-1.1-2.6-1.5-5-1.5a6.7,6.7,0,0,0-5.1,1.5,5.7,5.7,0,0,0-1.5,4.3,5,5,0,0,0,1.5,4.2,7.7,7.7,0,0,0,5.1,1.3,7.4,7.4,0,0,0,5-1.3,5.6,5.6,0,0,0,1.7-4.4A4.9,4.9,0,0,0,1709.9,353.8Z"/><rect x="1698.9" y="365.1" width="12.1" height="34.9"/><path d="M1731.1,374.6a18,18,0,0,1,6.4,1.8l1.4-10.7a25.3,25.3,0,0,0-9.4-1.8,12.6,12.6,0,0,0-10.7,5.2,23.8,23.8,0,0,0-3.6,13.8c0,5.6,1.4,10,3.6,13.2s5.8,4.7,10.4,4.7a31.2,31.2,0,0,0,9.1-1.7l-1.3-9.4a38.1,38.1,0,0,1-5.9.8,3,3,0,0,1-3-1.8,17.5,17.5,0,0,1-.5-6,15.7,15.7,0,0,1,.7-6.1A2.6,2.6,0,0,1,1731.1,374.6Z"/><path d="M1752.6,353.8a7,7,0,0,0-5.2-1.5,6.7,6.7,0,0,0-5.1,1.5,5.7,5.7,0,0,0-1.5,4.3,5.5,5.5,0,0,0,1.5,4.2,7.7,7.7,0,0,0,5.1,1.3,8,8,0,0,0,5.2-1.3,5.9,5.9,0,0,0,1.5-4.4A5.3,5.3,0,0,0,1752.6,353.8Z"/><rect x="1741.4" y="365.1" width="12.1" height="34.9"/><path d="M1773.1,363.9c-5.4,0-9.2,1.4-11.7,4.3s-3.7,7.6-3.7,14.1,1.1,11.2,3.6,14.1,6.5,4.4,11.8,4.4,9-1.4,11.4-4.4,3.6-7.5,3.6-14.1-1.3-11.3-3.6-14.2S1778.5,363.9,1773.1,363.9Zm2.2,26.1a2.4,2.4,0,0,1-1.7,1.7,2.5,2.5,0,0,1-3.1-1.7,30.2,30.2,0,0,1-.4-6.7v-1.8a26.7,26.7,0,0,1,.4-6.3,2.4,2.4,0,0,1,2.4-1.4,2.1,2.1,0,0,1,2.4,1.4,22.5,22.5,0,0,1,.6,6.3v2.2A22.5,22.5,0,0,1,1775.3,390Z"/><path d="M1813.2,363.9a13.6,13.6,0,0,0-9,3.4h-.3l-.7-2.5H1792V400h12.4V376.3a6,6,0,0,1,3.4-1.1c1.1,0,1.7.6,1.7,1.8v23H1822V372.9a9.8,9.8,0,0,0-2-6.8C1818.7,364.7,1816.5,363.9,1813.2,363.9Z"/><path d="M1852.7,389.3l.3-15.4a10.5,10.5,0,0,0-2.5-7.6c-1.7-1.6-4.6-2.4-8.8-2.4a59.7,59.7,0,0,0-15.7,2.4l2,10.7a52.1,52.1,0,0,1,11-2.1c1.3,0,1.9.6,1.9,2.1v1.8a30.7,30.7,0,0,0-11.9,3c-2.5,1.7-3.7,4.5-3.7,8.5a12.1,12.1,0,0,0,2.2,7.8,8.8,8.8,0,0,0,6.7,2.7c3.7,0,6.6-1.2,8.4-3.8h.4c.9,2.6,3.3,3.8,6.9,3.8l4.8-.3,1-8.8a5,5,0,0,1-2.4-.6A2,2,0,0,1,1852.7,389.3Zm-11.2,0c0,1.9-.9,2.8-2.7,2.8s-2.3-.9-2.3-2.7a2.7,2.7,0,0,1,1.2-2.5,8.9,8.9,0,0,1,3.8-1.2Z"/><path d="M1897.3,363.9a12.9,12.9,0,0,0-8.8,3.4l-.7.6c-1.2-2.7-3.6-4-7.3-4a14.1,14.1,0,0,0-9.6,3.4h-.3l-.7-2.5h-11.4V400h12.4V376.3a6,6,0,0,1,3.4-1.1c1.2,0,1.7.6,1.7,1.8v23h12.5V376.3a4.9,4.9,0,0,1,3.5-1.1c1.1,0,1.6.6,1.6,1.8v23h12.5V372.9a10.4,10.4,0,0,0-1.9-6.8C1902.8,364.7,1900.6,363.9,1897.3,363.9Z"/><path d="M1921.9,353.8c-.9-1.1-2.6-1.5-5-1.5a6.7,6.7,0,0,0-5.1,1.5,5.7,5.7,0,0,0-1.5,4.3,5,5,0,0,0,1.5,4.2,7.7,7.7,0,0,0,5.1,1.3,7.4,7.4,0,0,0,5-1.3,5.6,5.6,0,0,0,1.7-4.4A4.9,4.9,0,0,0,1921.9,353.8Z"/><rect x="1910.9" y="365.1" width="12.1" height="34.9"/><path d="M1942.7,363.9c-10.5,0-15.5,6.1-15.5,18.4,0,5.6,1.3,10.2,4,13.5s6.6,5,11.6,5a40.2,40.2,0,0,0,12.4-2l-1-9.1a52.4,52.4,0,0,1-9.6,1.8q-5.1,0-5.1-5.7h16.9c.3-4.6.4-7.3.4-7.9,0-4.4-1.1-8-3.2-10.4S1947.7,363.9,1942.7,363.9Zm3.1,14v1.7h-6.4a8.6,8.6,0,0,1,.6-3.9,2.4,2.4,0,0,1,2.4-1.4h1A3,3,0,0,1,1945.8,377.9Z"/><path d="M1981.5,363.9a13.6,13.6,0,0,0-9,3.4h-.3l-.7-2.5h-11.2V400h12.4V376.3a4.8,4.8,0,0,1,3.4-1.1c1,0,1.6.6,1.6,1.8v23h12.6V372.9a9.8,9.8,0,0,0-2-6.8C1987,364.7,1984.7,363.9,1981.5,363.9Z"/><path d="M2009.1,358.4h-11.2l-.8,6.8h-4v9.1h3.4v17.2c0,3.4.9,5.8,2.4,7.2a9.1,9.1,0,0,0,6.3,2.1,74.2,74.2,0,0,0,9.4-.6l.4-9.9-4.6.3h-.3a1.4,1.4,0,0,1-1.2-1.6V374.3h6.1l.5-9.1h-6.4Z"/><path d="M2032.8,363.9c-5.2,0-9.4,1.4-11.7,4.3s-3.7,7.6-3.7,14.1,1.3,11.2,3.7,14.1,6.5,4.4,11.8,4.4,9.1-1.4,11.5-4.4,3.6-7.5,3.6-14.1-1.2-11.3-3.6-14.2S2038,363.9,2032.8,363.9Zm2.4,26.1a2.4,2.4,0,0,1-1.7,1.7,2.5,2.5,0,0,1-3.1-1.7,18.9,18.9,0,0,1-.6-6.7v-1.8a22.5,22.5,0,0,1,.6-6.3,2.3,2.3,0,0,1,2.4-1.4,2.2,2.2,0,0,1,2.4,1.4,26.7,26.7,0,0,1,.4,6.3v2.2A26.7,26.7,0,0,1,2035.2,390Z"/></g></svg>