<svg xmlns="http://www.w3.org/2000/svg" viewBox="0 0 512 512"><path d="M100.6 390.8c0 16.9-13.7 30-31.4 30s-31.4-13.1-31.4-30c0-17 13.7-29.8 31.4-29.8s31.4 12.9 31.4 29.8m-52.6 0c0 11.7 9.7 21 21.3 21 11.6 0 21-9.3 21-21s-9.5-20.9-21-20.9c-11.6.1-21.3 9.2-21.3 20.9M120.4 384.4c3-6.1 8.4-9.3 15.5-9.3v9.3c-9-.5-14.8 4.8-15.5 12.5v23.5h-9.7v-45h9.7v9zM169.4 417.5c-3.5 2.1-7.3 3.3-11.1 3.3-6.8 0-12.6-3.9-12.6-13.1v-23.3h-6.3v-7.3h6.3v-12.3h9.6v12.3h13.3v7.3h-13.3V406c0 4.6 1.8 6.1 4.8 6.1 2 0 4.1-.7 6.8-1.9l2.5 7.3zM221.9 392.4v28h-9.7v-25.3c0-6.8-4.1-10.9-10.8-10.9-8 .1-12.8 6.1-12.8 14v22.1h-9.7v-62.7h9.7v26.5c3.2-6.3 9-9.1 16.6-9.1 10.4.1 16.7 6.7 16.7 17.4M277.6 397.9c0 13.5-9.5 22.8-23.4 22.8-13.9 0-23.5-9.3-23.5-22.8 0-13.6 9.6-22.8 23.5-22.8 13.8 0 23.4 9.2 23.4 22.8m-37.2.1c0 8.7 5.7 14.6 13.8 14.6 8 0 13.7-5.9 13.7-14.6 0-8.6-5.7-14.5-13.7-14.5-8.2 0-13.8 5.9-13.8 14.5M337 370.1l-5.8 7.3c-4.3-4.6-10.5-7.5-16.5-7.5-11.8 0-21.1 9.1-21.1 20.8 0 11.7 9.3 20.9 21.1 20.9 5.9 0 12-2.7 16.5-7l5.9 6.6c-6 5.9-14.5 9.7-22.9 9.7-17.3 0-30.8-13.1-30.8-30.1 0-16.8 13.6-29.7 31.1-29.7 8.3-.1 16.7 3.4 22.5 9M347 357.7h9.7v62.7H347zM412.3 420.4h-9.7v-8.8c-3 6.3-8.7 9-16.1 9.1-10.3 0-16.5-6.6-16.5-17.3v-28h9.7v25.3c0 6.8 4 10.9 10.5 10.9 7.8-.2 12.3-6.2 12.3-14v-22.1h9.7v44.9zM474 398.1c0 13.4-8.4 22.6-21.3 22.6-7.2 0-12.6-2.9-15.9-8.1v7.8h-9.7v-62.7h9.7v25.5c3.3-5.2 8.7-8.1 15.7-8.1 12.8 0 21.5 9.3 21.5 23m-9.8-.3c0-8.4-5.7-14.5-13.7-14.5-8 0-13.7 6.1-13.7 14.5 0 8.7 5.7 14.7 13.7 14.7 8.1 0 13.7-6.1 13.7-14.7M104.9 480.4h-2.4l-2.9-9.9h-11l-3 9.9h-2.3L94 446.7l10.9 33.7zM89 468.8h10.1L94 452.5l-5 16.3zM154.5 454.1c-.1-2.8-2.5-5-5.4-5-7.5 0-8.1 9.8-8.1 15.3 0 5.4.5 14.8 7.8 14.8 3.4 0 5.9-2.5 6.1-5.8h2.1c-.5 4.8-3.6 7.6-8.4 7.6-8.5 0-9.9-9.8-9.9-16.4 0-6.9 1.2-17.3 10.4-17.3 4 0 7.1 2.8 7.5 6.8h-2.1zM212.9 480.4h-2.4l-2.9-9.9h-11l-3 9.9h-2.3l10.8-33.7 10.8 33.7zM197 468.8h10.1l-5.1-16.3-5 16.3zM248 448h8.1c3.8 0 6.4 2.1 7.7 4.6 1.1 2 2 5.7 2 11.6 0 8.2-2 11.7-2.6 12.6-1.5 2.1-3.8 3.6-7.7 3.6H248V448zm2.2 30.6h4c3.6 0 6.5-.5 8.1-4.1 1.3-2.9 1.4-7.2 1.4-10.3 0-3.1-.1-7.8-1.5-10.6-1.7-3.4-4.5-3.8-8-3.8h-4v28.8zM319.1 449.8h-13.7v13.1h9.9v1.8h-9.9v13.9h14.1v1.8h-16.2V448h15.8zM371.4 448h2.3v32.4h-2.1v-28.1h-.1l-7.5 18-7.5-18-.1.1v28h-2.1V448h2.3l7.4 17.8zM424 448h2.4l-8.2 18.7v13.7h-2.1v-13.7L408 448h2.4l6.8 16.2zM375.7 73.8c33.6 0 63.5 19.1 77.7 49.1L496 95.1c-23.9-44.4-69.7-71.9-120.3-71.9-42.5 0-80.5 19.5-105.6 50 12.1 16.4 20.8 35.4 25.1 56.1 12.3-32.4 43.7-55.5 80.5-55.5"/><path d="M375.4 244.5c-47 0-85.3-37.8-86.1-84.6v-.5C289.3 84 228 22.7 152.7 22.7 77.3 22.7 16 84 16 159.4c0 75.4 61.3 136.7 136.7 136.7 42.5 0 80.5-19.5 105.6-50-12.1-16.4-20.8-35.4-25.1-56.1-12.4 32.4-43.8 55.5-80.5 55.5-47.5 0-86.1-38.6-86.1-86.1 0-47.5 38.6-86.1 86.1-86.1 47.1 0 85.5 38.1 86.1 85.1 0 75.3 61.4 136.6 136.7 136.6 50.8 0 96.6-27.6 120.5-72.2L453.4 195c-14.3 30.3-44.3 49.5-78 49.5"/></svg>