<svg xmlns="http://www.w3.org/2000/svg" xmlns:xlink="http://www.w3.org/1999/xlink" viewBox="0 0 512 512"><defs><linearGradient id="a" x1="558.85" y1="430.85" x2="-46.85" y2="81.15" gradientUnits="userSpaceOnUse"><stop offset="0.5" stop-color="#5fceb3"/><stop offset="0.5" stop-color="#fca326"/></linearGradient></defs><rect width="512" height="512" fill="url(#a)"/><g fill="#fff"><path d="M225.6,422.6A11.8,11.8,0,0,0,214,434.3a11.7,11.7,0,1,0,11.6-11.7Z"/><path d="M125.3,430.6a.6.6,0,0,0-1,0l-4.7,10.1a.5.5,0,0,0,.1.6l.4.2h9.3l.5-.2a1.3,1.3,0,0,0,.1-.6Z"/><path d="M326.8,422.6a11.8,11.8,0,0,0-11.6,11.7,11.7,11.7,0,1,0,11.6-11.7Z"/><path d="M457.8,396.1a37.3,37.3,0,0,0-18.2,4.7,16.9,16.9,0,0,0-11.1-4.1H403.2a16.8,16.8,0,0,0-8.9,2.5,36.6,36.6,0,0,0-14.7-3.1c-11.6,0-20,5.1-25,12a38,38,0,0,0-48.7-5.7,17.2,17.2,0,0,0-13.4-6.3h-1a17.5,17.5,0,0,0-15.3,9.1,17.2,17.2,0,0,0-15.2-9.1h-1a17.2,17.2,0,0,0-13.4,6.3,38,38,0,0,0-41.6-.2,36.4,36.4,0,0,0-20.9-6.1,38.2,38.2,0,0,0-36,25.6l-7.3-15.6-.2-.5a17.5,17.5,0,0,0-15.5-9.5h-.6a17.3,17.3,0,0,0-14.8,8.4,17.4,17.4,0,0,0-14.5-7.8H69.9a17,17,0,0,0-8.9,2.5,36.2,36.2,0,0,0-14.7-3.1c-19.7,0-30.3,14.6-30.3,28.3a27.4,27.4,0,0,0,4.1,14.5l-1.7,2.9a17.2,17.2,0,0,0,2.9,21.1c2.9,2.9,11,9.5,25.3,9.5a33.3,33.3,0,0,0,14.2-3.2,17.8,17.8,0,0,0,9.1,2.6H95.2a17,17,0,0,0,5.1-.8,17,17,0,0,0,5.1.8h6.7a18.6,18.6,0,0,0,12.7-5,17.8,17.8,0,0,0,12.6,5h6.8a17.1,17.1,0,0,0,14.6-8,2.1,2.1,0,0,0,.4-.6,38.4,38.4,0,0,0,24.9,9.2,37.6,37.6,0,0,0,20.8-6.2,37.7,37.7,0,0,0,37.8,2.1,17.2,17.2,0,0,0,10.5,3.5h7.2a16.9,16.9,0,0,0,7-1.5,17.3,17.3,0,0,0,8.3,2.1h1.1a17.3,17.3,0,0,0,8.3-2.1,16.9,16.9,0,0,0,7,1.5h7.3a17.5,17.5,0,0,0,10.4-3.4,38,38,0,0,0,43.6-6.9,8.6,8.6,0,0,0,1.3,1.4c2.8,2.9,11,9.5,25.2,9.5a32.9,32.9,0,0,0,14.2-3.2,17.6,17.6,0,0,0,9.1,2.6h25.3a16.9,16.9,0,0,0,11.1-4.1,37.3,37.3,0,0,0,18.2,4.7,38.2,38.2,0,1,0,0-76.3ZM46.5,457.6c-8.9,0-13.5-3.9-14.7-5.1a2.6,2.6,0,0,1-.5-3.4l2.9-5a2.8,2.8,0,0,1,4.2-.7c3.8,2.5,6.3,3,7.7,3s2.9-1,2.9-2.3c0-2.8-4.1-4.4-5.5-4.9-8.2-3.3-12.7-8.5-12.7-14.8s5.3-13.5,15.5-13.5a23.9,23.9,0,0,1,13.9,4.8,2.9,2.9,0,0,1,.7,3.8l-3.1,4.7a3.7,3.7,0,0,1-2.8,1.6,2.2,2.2,0,0,1-1.3-.4l-.3-.2c-3.2-2.2-5.7-3.2-7.6-3.2s-2.5.8-2.5,1.7.7,2.6,5.8,4.7,13.2,6.3,13.2,15.2C62.3,450.5,56.4,457.6,46.5,457.6Zm51.3-36.9a2.6,2.6,0,0,1-2.6,2.5H79.7V428H92.2a2.6,2.6,0,0,1,2.6,2.6v6.6a2.6,2.6,0,0,1-2.6,2.6H79.7v5.5H95.2a2.6,2.6,0,0,1,2.6,2.5v6.7a2.6,2.6,0,0,1-2.6,2.5H69.9a2.5,2.5,0,0,1-2.5-2.5V414a2.5,2.5,0,0,1,2.5-2.5H95.2a2.6,2.6,0,0,1,2.6,2.5Zm48.6,35.2a2.7,2.7,0,0,1-2.2,1.1h-6.8a3.2,3.2,0,0,1-3.3-2.3l-1.9-4.1H117.4l-1.9,4.1a3.7,3.7,0,0,1-3.4,2.3h-6.7a2.7,2.7,0,0,1-2.2-1.1,2.6,2.6,0,0,1-.1-2.4l19.1-41.2a2.9,2.9,0,0,1,2.3-1.4h.6a2.9,2.9,0,0,1,2.3,1.4l19.1,41.2A2.6,2.6,0,0,1,146.4,455.9Zm38.1-10.8a11.6,11.6,0,0,0,7.3-2.6,2.6,2.6,0,0,1,3.5.2l4.7,5a2.4,2.4,0,0,1,.7,1.8,2.9,2.9,0,0,1-.7,1.8h-.1a22.2,22.2,0,0,1-15.8,6.3,23.4,23.4,0,1,1,0-46.7,22.1,22.1,0,0,1,15.7,6,2.3,2.3,0,0,1,.9,1.8,2.6,2.6,0,0,1-.7,1.9l-4.8,4.9a2.4,2.4,0,0,1-3.4.1,11.6,11.6,0,0,0-7.3-2.8c-6,0-10.6,5-10.6,11.3A10.7,10.7,0,0,0,184.5,445.1Zm41.1,12.5a23.1,23.1,0,0,1-23.3-23.3,23.4,23.4,0,1,1,23.3,23.3Zm75.7-1.5a2.5,2.5,0,0,1-2,.9h-7.2a2.7,2.7,0,0,1-2.5-2.2L287.5,440l-8.4,16.2a2.7,2.7,0,0,1-2.3,1.4h-1.1a2.6,2.6,0,0,1-2.2-1.4L265,440l-2.1,14.8a2.7,2.7,0,0,1-2.5,2.2h-7.2a2.5,2.5,0,0,1-2-.9,2.1,2.1,0,0,1-.5-2l6.9-41.1a2.4,2.4,0,0,1,2.4-2.1h1a2.6,2.6,0,0,1,2.2,1.3l13.1,24.3,13-24.3a2.7,2.7,0,0,1,2.2-1.3h1a2.7,2.7,0,0,1,2.5,2.2l6.9,41A2.4,2.4,0,0,1,301.3,456.1Zm25.5,1.5a23.1,23.1,0,0,1-23.3-23.3,23.4,23.4,0,1,1,23.3,23.3Zm53.1,0c-8.9,0-13.5-3.9-14.7-5.1a2.5,2.5,0,0,1-.6-3.4l2.9-5a2.9,2.9,0,0,1,4.3-.7c3.7,2.4,6.2,3,7.7,3s2.8-1,2.8-2.3c0-2.8-4.1-4.4-5.4-4.9-8.2-3.3-12.7-8.5-12.7-14.8s5.3-13.5,15.4-13.5a23.9,23.9,0,0,1,13.9,4.8,2.9,2.9,0,0,1,.7,3.8l-3.1,4.7a3.5,3.5,0,0,1-2.7,1.6,2,2,0,0,1-1.3-.4l-.4-.2c-3.2-2.2-5.7-3.2-7.6-3.2s-2.4.8-2.4,1.7.7,2.6,5.8,4.7,13.2,6.3,13.2,15.2C395.7,450.5,389.8,457.6,379.9,457.6ZM431,420.7a2.5,2.5,0,0,1-2.5,2.5H412.9V428h12.6a2.6,2.6,0,0,1,2.5,2.6v6.6a2.6,2.6,0,0,1-2.5,2.6H412.9v5.5h15.6a2.5,2.5,0,0,1,2.5,2.5v6.7a2.5,2.5,0,0,1-2.5,2.5H403.2a2.5,2.5,0,0,1-2.5-2.5V414a2.5,2.5,0,0,1,2.5-2.5h25.3A2.5,2.5,0,0,1,431,414Zm26.8,36.9a23.1,23.1,0,0,1-23.3-23.3,23.4,23.4,0,1,1,23.3,23.3Z"/><path d="M457.8,422.6a11.8,11.8,0,0,0-11.6,11.7,11.7,11.7,0,1,0,11.6-11.7Z"/><path d="M471,186.6a79.6,79.6,0,0,0-57.7-24.4,77.7,77.7,0,0,0-40.6,11.1,135.6,135.6,0,0,0,.9-15.8A117.3,117.3,0,0,0,256.2,39.6h-.5A117.3,117.3,0,0,0,138.4,157.5a135.6,135.6,0,0,0,.9,15.8,78,78,0,0,0-40.6-11.1A79.6,79.6,0,0,0,41,186.6c-11.4,11.7-25,32.9-25,67,0,32.4,13.8,58.3,25.3,74.2a34.5,34.5,0,0,0,28.8,15A36.4,36.4,0,0,0,88,338.2l1.6-1,20.8-13.7a42.6,42.6,0,0,0,8.4-7.5l2,2.3c16.9,19,38.7,29.1,63.1,29.1,29.3,0,56.9-16.6,72.1-42.9,15.2,26.3,42.8,42.9,72.1,42.9,24.4,0,46.2-10.1,63.1-29.1.7-.8,1.3-1.6,2-2.3a36.9,36.9,0,0,0,8.4,7.4l20.8,13.8,1.6,1a36.4,36.4,0,0,0,17.9,4.6,34.3,34.3,0,0,0,28.7-14.9c11.6-16,25.4-41.9,25.4-74.3C496,219.5,482.4,198.3,471,186.6Zm-215,13a134.6,134.6,0,0,0-15.7-26.3c-2.9-3.3-4.9-9.2-4.9-14.3,0-11.1,8.9-19.6,20.5-19.9s20.7,8.8,20.7,19.9c0,5.1-2,10.9-4.9,14.3C271.6,173.4,263.6,183.2,256,199.6ZM450.3,313.8c-1.7,2.8-4.7,4.3-8.4,4.3a12.6,12.6,0,0,1-5.7-1.3l-21.1-14a14.1,14.1,0,0,1-5.9-8.8,8.4,8.4,0,0,1,1.2-6.1l1.3-1.9c3.5-5.3,14.3-21.5,14.3-34.6,0-7.8-5-13-9.7-13s-13,3.2-22.6,27c-5.6,14.1-22.8,57.3-65.6,57.3-29.6,0-60.2-25.5-60.2-68.1,0-36.5,22.3-64.9,22.5-65.2,6.7-7.8,10.9-19.5,10.9-30.4,0-24.7-19.9-44.2-45.4-44.6s-45.2,19.9-45.2,44.6c0,10.9,4.1,22.6,10.8,30.4.3.3,22.6,28.7,22.6,65.2,0,42.6-30.6,68.1-60.2,68.1-42.8,0-60-43.2-65.6-57.3-9.7-23.8-16.5-27-22.6-27s-9.7,5.2-9.7,13c0,13.1,10.8,29.3,14.3,34.6l1.3,1.9a8.4,8.4,0,0,1,1.2,6.1,13.9,13.9,0,0,1-6,8.8L76,316.6a12,12,0,0,1-5.9,1.5c-3.7,0-6.7-1.5-8.4-4.3-7.9-10.8-21-32.9-21-60.2,0-43.8,29.2-66.7,58-66.7,34.6,0,53.8,30,63.7,55.1,9,22.8,17.8,25.4,23.6,25.4s12.2-6,12.2-14.7c0-6.5-2.1-14.1-6.2-22.6l-10.4-16.6c-12.6-16.2-18.5-34-18.5-56,0-51.4,41.5-93.2,92.6-93.2h.5c51.2,0,92.7,41.8,92.7,93.2,0,22-5.9,39.8-18.5,56L320,230.1c-4.1,8.6-6.3,16.2-6.3,22.6,0,8.7,5.1,14.7,12.3,14.7s14.5-2.6,23.6-25.4c9.9-25.1,29-55.1,63.7-55.1,28.8,0,58,22.9,58,66.7C471.3,280.9,458.2,303,450.3,313.8Z"/></g></svg>