<svg xmlns="http://www.w3.org/2000/svg" viewBox="0 0 1024 582"><path fill="#b27a61" d="M48.4,388.6c-2.5-.3-4.7-.6-6.6-.7l-5.9-.5-5.4-.3a46.8,46.8,0,0,0-6.4.4c-2.2.2-4.9.6-7.9,1.1l.8-5.7q5.8-1.2,7.8-3.3c1.3-1.5,1.9-3.9,1.9-7.4V319.7q0-4.1-.9-5.4c-.6-.9-1.8-1.4-3.7-1.4l-4.2.2-.3-.5.9-5.5,4.8.2H37l6.3-.2,7.4-.2a47.3,47.3,0,0,1,21.5,4.7,34.5,34.5,0,0,1,14.4,13.1,36.1,36.1,0,0,1,5.2,19.6,45.7,45.7,0,0,1-3.3,17.4,44.7,44.7,0,0,1-9.2,14.1,42.9,42.9,0,0,1-13.7,9.4,47.4,47.4,0,0,1-17.2,3.3Zm-6.5-75.5a8.5,8.5,0,0,0-3.5.5c-.6.3-.9,1.1-1,2.2-.6,14.4-1,26.5-1.4,36.1s-.5,15.9-.5,18.7a15.1,15.1,0,0,0,1.3,7,7.5,7.5,0,0,0,4.7,3.5,35,35,0,0,0,9.7,1c9,0,16.1-3.1,21.2-9.3s7.7-14.7,7.7-25.6c0-7.3-1.5-13.5-4.4-18.6a28.3,28.3,0,0,0-13-11.6c-5.6-2.6-12.6-3.9-20.8-3.9Zm80.7,75.2.8-5.7c3.7-.5,6.3-1.5,7.7-2.9s2.1-4,2.1-7.6V319.6q0-4.1-.9-5.4c-.6-.9-1.8-1.4-3.7-1.4h-2l-2.3.2-.3-.5.9-5.5h5.1l6.2.2h22.8c4.5-.1,8.4-.2,11.7-.5s6.2-.5,9-.9l.4.8c-.4,2-.8,4.2-1.2,6.7s-.8,4.9-1,7.3-.5,4.7-.6,6.8l-6,.5c.1-.8.1-1.7.2-2.8s.1-2,.1-2.6a15.6,15.6,0,0,0-.6-4.8,4.6,4.6,0,0,0-2.4-2.7,14.6,14.6,0,0,0-5.7-1.1c-2.6-.2-6.1-.2-10.5-.2l-5.9.2c-1.3.2-2,.6-2.3,1.3a10.9,10.9,0,0,0-.6,3.4l-1.3,29.1-.5,26.2a14.2,14.2,0,0,0,.6,4.9,3.8,3.8,0,0,0,2.7,2.1,33.7,33.7,0,0,0,6.6.5c4.9,0,8.9-.2,11.9-.5a16.2,16.2,0,0,0,6.9-2,8.3,8.3,0,0,0,3.5-4.6,38.4,38.4,0,0,0,1.9-8.2l5.5-.6.4.6q-.9,3.9-1.8,9.9c-.6,4-1.1,7.7-1.6,11.1l-.6.8-14.9-.4-13.4-.3h-9.5l-8.8.3A52.7,52.7,0,0,0,122.6,388.3Zm18.1-38,1.1-7.5h13.8c1.4,0,3.6-.1,6.6-.4l8.7-.9.5.6-1.8,7.4-8.7-.2h-8.8l-5.6.3a34.4,34.4,0,0,0-5.8.6Zm94.6,38.3a44.5,44.5,0,0,1-10.3-1.1,54.1,54.1,0,0,1-9.3-3.2l-.6-1.2c.3-2.3.6-4.4.8-6.3s.3-4.3.5-6.9.2-5.5.2-8.5l5.6-.6c0,6,.4,10.6,1.3,13.7a9.4,9.4,0,0,0,4.7,6.4c2.3,1.1,5.7,1.7,10.2,1.7s9.4-1.2,12.6-3.7a12.1,12.1,0,0,0,4.8-10.1,10,10,0,0,0-2.8-7.1,29.6,29.6,0,0,0-7.1-5.5c-2.9-1.7-5.9-3.3-9.2-5s-6.6-3.6-9.7-5.6a30.4,30.4,0,0,1-7.7-6.9,14.8,14.8,0,0,1-3-9.3,20.1,20.1,0,0,1,3.8-11.9,25.8,25.8,0,0,1,10.3-8.3,34.4,34.4,0,0,1,14.6-3.1,57.5,57.5,0,0,1,9.9.8,62.8,62.8,0,0,1,9.2,2.4l.4.8c-.7,3.8-1.3,7.4-1.7,10.6s-.8,6.7-1,10.6l-4.9.5-.7-.6c.2-2.4.4-4.6.4-6.5,0-4.4-1.1-7.5-3.2-9.1s-6-2.5-11.7-2.5-8.4,1.1-11.3,3.4a10.3,10.3,0,0,0-4.4,8.6,10.4,10.4,0,0,0,2.4,6.7,25.1,25.1,0,0,0,6.2,5.3c2.6,1.6,5.4,3.2,8.4,4.7s7.3,3.8,10.8,5.9a37.4,37.4,0,0,1,8.8,7.1,14.4,14.4,0,0,1,3.5,9.7,21.2,21.2,0,0,1-3.9,12.6,25.6,25.6,0,0,1-10.9,8.6,43.1,43.1,0,0,1-16,2.9Zm66.5-27.8-.9-1,.7-6.5,21.7-2.5,8.1-1.1.9,1.1-.6,6.7-29.9,3.3Zm98.5,26.6.5-4.9a57.1,57.1,0,0,0,6.8-.9,7.2,7.2,0,0,0,3.4-1.4,3,3,0,0,0,1-2.4,14.9,14.9,0,0,0-.3-2.8,22.3,22.3,0,0,0-.9-3.2l-4.1-13.6h-13a68,68,0,0,0-7.6.4l-6.1.6-4.6,13a20.2,20.2,0,0,0-1.1,4.9,4.3,4.3,0,0,0,1.8,3.9q1.8,1.2,5.7,1.2h7.1l.2.5-.8,5.4-9.2-.7-8.1-.2h-6.2l-7.6.3,1-5.9a8.7,8.7,0,0,0,5.6-2.4c1.4-1.3,2.8-3.7,4.1-7.2l24.4-63.9,7.9-2.1h1l3.1,11.1,3.4,11.9c1.3,4.5,2.7,9.2,4.1,14.2s3,10.1,4.6,15.2l4.7,14.7a12.8,12.8,0,0,0,4.1,6.5c1.7,1.3,4.4,2,7.9,2.4l.2.5-.9,5.1-8-.3h-5.2c-3.2,0-6.2.1-9.1.3l-9.6.9-.2-1Zm-18-34.5h11l6-.2,5.6-.4L395,319.6h-.9l-11.8,33.3Zm76.5,35.2.9-5.7c3.7-.7,6.1-1.6,7.3-2.9s1.7-3.7,1.7-7.3V319.7q0-4.1-.9-5.4c-.6-.9-1.9-1.4-3.7-1.4l-4.2.2-.3-.5.9-5.5,8.3.3h9.4l5.3-.2,6.6-.2a43.4,43.4,0,0,1,11.4,1.4,23.8,23.8,0,0,1,8.4,4.3,18.1,18.1,0,0,1,5.2,7,23.7,23.7,0,0,1,1.8,9.5,22.5,22.5,0,0,1-2.4,10.2,30.1,30.1,0,0,1-6.4,8.7,30.9,30.9,0,0,1-9.1,6.1,26.4,26.4,0,0,1-10.7,2.3H477.9l-.2,12.2a59.7,59.7,0,0,0,.4,8.4,5.1,5.1,0,0,0,1.6,3.6,6.9,6.9,0,0,0,3.6.8c1.2,0,3.5-.1,6.7-.4l.2.5-1.1,5.7-4.2-.2h-13l-6.1.3-4.8.3-2.2.5Zm32.5-37c10.1-1.7,15.1-8.2,15.1-19.5,0-6.4-1.9-11.1-5.6-14.1s-9.7-4.4-17.9-4.4a13.5,13.5,0,0,0-2.8.2c-.3.1-.5.6-.6,1.6-.3,5.6-.6,11.4-.9,17.3s-.5,11.6-.6,17.1Zm111.3,38c-2.1,0-4.3-1.1-6.7-3.2a33.6,33.6,0,0,1-6.6-8.6l-13.4-24.2H565.5l-.4,18.6a27.7,27.7,0,0,0,.6,6.7,3.9,3.9,0,0,0,2.5,2.9,17.8,17.8,0,0,0,5.9.7l.3.5-1.1,5.2-4.4-.2H560c-2.1-.1-4.2-.1-6.4,0l-7.9.4,1.1-5.6c3.9-.4,6.5-1.3,7.7-2.6s1.8-3.7,1.8-7.3V319.7q0-4.1-.9-5.4c-.6-.9-1.9-1.4-3.7-1.4l-4.3.2-.2-.5.9-5.5,5.1.2h12.9l5.1-.2,6.1-.2c7.7,0,13.9,1.7,18.4,5.2s6.7,8.3,6.7,14.4a21.8,21.8,0,0,1-4.8,13.7,33.7,33.7,0,0,1-13.6,10.2l13.7,21.7c2.4,3.9,4.8,6.7,7.1,8.2a14.3,14.3,0,0,0,8.4,2.4l.5.5-.8,4.2-10.4,1.6Zm-23.9-41.9a27.6,27.6,0,0,0,6.7-3.6,19.1,19.1,0,0,0,4.7-5.6,18,18,0,0,0,2.1-9.1c0-5.5-1.9-9.6-5.7-12.4s-9.5-4.1-17.2-4.1a2.1,2.1,0,0,0-1.7.6,4.6,4.6,0,0,0-.6,2.3c-.3,6.6-.6,12.2-.8,17s-.4,9.3-.4,13.7Zm62.2,41.1.7-5.7c3.7-.5,6.3-1.5,7.7-2.9s2.1-4,2.1-7.6V319.6q0-4.1-.9-5.4c-.6-.9-1.8-1.4-3.7-1.4h-2l-2.3.2-.2-.5.9-5.5h5.1l6.2.2h22.8c4.5-.1,8.4-.2,11.7-.5s6.3-.5,9-.9l.4.8c-.4,2-.8,4.2-1.2,6.7s-.8,4.9-1,7.3-.5,4.7-.6,6.8l-6,.5c.1-.8.1-1.7.2-2.8s.1-2,.1-2.6a15.6,15.6,0,0,0-.6-4.8,4.6,4.6,0,0,0-2.4-2.7,14.6,14.6,0,0,0-5.7-1.1c-2.6-.2-6.1-.2-10.5-.2l-5.9.2c-1.2.2-2,.6-2.3,1.3a10.9,10.9,0,0,0-.6,3.4l-1.2,29.1-.5,26.2a14.2,14.2,0,0,0,.6,4.9,3.8,3.8,0,0,0,2.7,2.1,33.7,33.7,0,0,0,6.6.5c4.9,0,8.9-.2,11.9-.5a16.2,16.2,0,0,0,6.9-2,8.3,8.3,0,0,0,3.5-4.6,38.4,38.4,0,0,0,1.9-8.2l5.5-.6.4.6q-.9,3.9-1.8,9.9c-.6,4-1.1,7.7-1.6,11.1l-.6.8-14.9-.4-13.4-.3h-9.5l-8.8.3a53.1,53.1,0,0,0-8.8.7Zm18.1-38,1.1-7.5h13.8c1.4,0,3.6-.1,6.6-.4l8.7-.9.5.6-1.8,7.4-8.7-.2h-8.8l-5.6.3a34.4,34.4,0,0,0-5.8.6Zm138.5,41.8c-6.1-9.5-11.9-18.4-17.5-26.7s-10.5-15.6-14.9-21.9-9-13-14.1-20.2h-.6l-.6,53.4a6.6,6.6,0,0,0,.9,3.9,3.5,3.5,0,0,0,3,1.1h6.4l.3.5-1.1,5.6-4.6-.2-4.3-.2h-4.3l-5.2.3-6.4.7.6-5.7a9.4,9.4,0,0,0,5.7-2.3c1.2-1.2,1.9-3,2-5.6l1.6-54.6c0-2.6-.8-4.4-2.3-5.5s-4.4-1.8-8.6-2.3l-.4-.6,1-4.6,6.4.4,4.3.2h4l4.4-.4,12.3,18.7c4,6.1,7.9,11.7,11.4,17s6.7,9.8,9.5,13.7,5.7,8.1,8.7,12.5h.6V318.3a6.7,6.7,0,0,0-1-4.1,3.6,3.6,0,0,0-3.1-1.3h-4.7l-.3-.5,1.1-5.6,4.4.2,3.9.2h3.6l5.5-.3,6.9-.7-.6,5.7a10.7,10.7,0,0,0-6.3,2.4,7.3,7.3,0,0,0-2.2,5.5l-1.8,70.2-3.6,1.9Zm77-3.5c-2.5-.3-4.7-.6-6.6-.7l-5.9-.5-5.4-.3a46.8,46.8,0,0,0-6.4.4c-2.2.2-4.9.6-7.9,1.1l.7-5.7q5.8-1.2,7.8-3.3c1.3-1.5,1.9-3.9,1.9-7.4V319.7q0-4.1-.9-5.4c-.6-.9-1.8-1.4-3.7-1.4l-4.3.2-.2-.5.9-5.5,4.8.2H863l6.3-.2,7.4-.2a47.3,47.3,0,0,1,21.5,4.7,34.5,34.5,0,0,1,14.4,13.1,36.1,36.1,0,0,1,5.2,19.6,45.7,45.7,0,0,1-3.3,17.4,44.4,44.4,0,0,1-9.3,14.1,42.3,42.3,0,0,1-13.8,9.4,44.6,44.6,0,0,1-16.9,3.3ZM868,313.1a8.5,8.5,0,0,0-3.5.5c-.6.3-.9,1.1-1,2.2-.6,14.4-1,26.5-1.4,36.1s-.5,15.9-.5,18.7a15.1,15.1,0,0,0,1.3,7,7.5,7.5,0,0,0,4.7,3.5,35,35,0,0,0,9.7,1c9,0,16.1-3.1,21.2-9.3s7.7-14.7,7.7-25.6c0-7.3-1.5-13.5-4.4-18.6a28.3,28.3,0,0,0-13-11.6c-5.6-2.6-12.5-3.9-20.8-3.9Zm80.8,75.2.7-5.7c3.7-.5,6.3-1.5,7.7-2.9s2.1-4,2.1-7.6V319.6q0-4.1-.9-5.4c-.6-.9-1.8-1.4-3.7-1.4h-2l-2.3.2-.2-.5.9-5.5h5.1l6.2.2h22.8c4.5-.1,8.4-.2,11.7-.5s6.3-.5,9-.9l.4.8c-.4,2-.8,4.2-1.2,6.7s-.8,4.9-1,7.3-.5,4.7-.6,6.8l-6,.5c.1-.8.1-1.7.2-2.8s.1-2,.1-2.6a15.6,15.6,0,0,0-.6-4.8,4.6,4.6,0,0,0-2.4-2.7,14.6,14.6,0,0,0-5.7-1.1c-2.6-.2-6.1-.2-10.5-.2l-5.9.2c-1.2.2-2,.6-2.3,1.3a10.9,10.9,0,0,0-.6,3.4l-1.2,29.1-.5,26.2a14.2,14.2,0,0,0,.6,4.9,3.8,3.8,0,0,0,2.7,2.1,33.7,33.7,0,0,0,6.6.5c4.9,0,8.9-.2,11.9-.5a16.2,16.2,0,0,0,6.9-2,8.3,8.3,0,0,0,3.5-4.6,38.4,38.4,0,0,0,1.9-8.2l5.5-.6.4.6q-.9,3.9-1.8,9.9c-.6,4-1.1,7.7-1.6,11.1l-.6.8-14.9-.4-13.4-.3h-9.5l-8.8.3a52.2,52.2,0,0,0-8.8.7Zm18.1-38,1.1-7.5h13.8c1.4,0,3.6-.1,6.6-.4l8.7-.9.5.6-1.8,7.4-8.7-.2h-8.8l-5.6.3a33.4,33.4,0,0,0-5.8.6Z"/><g fill="#2b2929"><path d="M266.2,512.6c-10.7-.2-25.3,8.1-38.2,15.4-10.7,6-22.9,12.9-26.3,10.3-.9-.7-2.2-2.9-.5-10.6,3.8-17,11.7-47.1,18.7-71.5,8.4-29.6,12.8-41.8,15-46.8,0,.7-.1,1.8-.2,3a1.8,1.8,0,1,0,3.6.3c.6-6.7.5-9.7-2-10.1s-4.6-.7-19,50c-7.2,25.2-15.5,56.5-19.5,74.3-1.8,7.6-1.2,12.2,1.8,14.3a7,7,0,0,0,4.2,1.2c6,0,15.2-5.2,26.1-11.3,12.5-7,26.6-15.1,36.3-14.9a1.7,1.7,0,0,0,1.8-1.7A1.8,1.8,0,0,0,266.2,512.6Z"/><path d="M267.8,464.6c-.4,1.5-2,4.5-6.4,9C263.9,468.2,266.5,465.5,267.8,464.6Zm19.6,12.5a1.7,1.7,0,0,0-2.5.5c-7,9.8-12.7,16-18.4,20.1-2.8,2-5.5,2.3-7.3,1s-4.6-4.6-.6-17.7c9.1-7.5,14.1-14.6,12.7-18.4a3.2,3.2,0,0,0-2.8-1.9c-3.7.1-9.5,6.6-13.2,18.7-4.6,14.9-.8,20.3,1.8,22.2a7.2,7.2,0,0,0,4.5,1.5,11.7,11.7,0,0,0,6.9-2.5c6-4.3,11.9-10.7,19.2-20.9a1.9,1.9,0,0,0-.3-2.6Z"/><path d="M362.1,442.7c-1.2-1.7-6.7-2.7-64.9-1.4,1.9-7.6,3.6-14.4,5.1-20a1.7,1.7,0,0,0-1.2-2.2,1.9,1.9,0,0,0-2.2,1.2c-1.6,5.9-3.4,13-5.3,21.1l-16.9.4-17.4.4a1.9,1.9,0,1,0,0,3.7l17.5-.5,15.9-.4c-4,17.1-8.6,37.5-12.7,57.5-3,14.6-5.4,27.3-7,36.6-.8,4.9-1.4,8.7-1.7,11.3s-.6,5.6,1.2,6.3h.7c1.6,0,2.4-2.2,3.2-4.3a1.7,1.7,0,0,0-1-2.3h-.5c.9-7.3,3.7-23.7,9.2-49.6,4-19.6,8.4-39.2,12.4-55.5,25.8-.6,59.2-1,63.1.3a1.7,1.7,0,0,0,2.2.1,2.1,2.1,0,0,0,.3-2.7Z"/><path d="M300.7,469.1c4.8.3,4.7-5.7.8-4.4C299.6,465.3,297.1,468.9,300.7,469.1Zm22.1,7.6a1.6,1.6,0,0,0-2.4.6c-6.3,10.1-16.8,19.7-20,18.4-.4-.2-3.4-2,.7-17.8a1.8,1.8,0,1,0-3.5-.9c-3.4,13.2-2.9,20.2,1.3,22a4.8,4.8,0,0,0,2,.4c7,0,17.8-12.6,22.6-20.2a1.8,1.8,0,0,0-.7-2.5Z"/><path d="M350.1,476.7a1.7,1.7,0,0,0-2.4.6c-6.4,9.7-17,25.8-23.9,24.3a4.2,4.2,0,0,1-2.7-2.2c-1.9-3.4-1.6-10.1.6-16s5.2-7.9,5.7-7.8.7,1.3-.1,4.2a1.7,1.7,0,0,0,1.2,2.2,1.9,1.9,0,0,0,2.2-1.3c1.8-6.7-1.3-8.2-2.2-8.6-3.5-1-7.7,3.1-10.2,10s-3.1,14.1-.3,19a6.9,6.9,0,0,0,5.1,3.9,5,5,0,0,0,1.7.2c8.2,0,17-12.3,26-26a2,2,0,0,0-.7-2.5Z"/><path d="M352.2,469.1c4.8.3,4.7-5.7.8-4.4C351,465.3,348.5,468.9,352.2,469.1Zm22.1,7.6a1.6,1.6,0,0,0-2.4.6c-6.3,10.1-16.8,19.7-20,18.4-.4-.2-3.4-2,.7-17.8a1.8,1.8,0,1,0-3.5-.9c-3.4,13.2-2.9,20.2,1.3,22a4.8,4.8,0,0,0,2,.4c7,0,17.8-12.6,22.6-20.2a2,2,0,0,0-.7-2.5Z"/><path d="M409.8,477.2a1.8,1.8,0,0,0-2.3.8c-7.1,14.5-12.5,19.1-15,18.7-1-.2-4.4-2.2-5.2-18.6a1.9,1.9,0,0,0-1.2-1.6,1.8,1.8,0,0,0-2,.7l-1.7,2.2a107.1,107.1,0,0,1-9.2,11.5,6,6,0,0,1-1.3,1.2c-.7-3.3,2.8-15.8,8.3-19.8,1.6-1.1,3.7-2,6.7,1.4a1.9,1.9,0,0,0,2.5.2,2,2,0,0,0,.3-2.5c-3.6-4.1-6.9-4-9.2-3.3-7.2,2.5-12.1,16.4-12.3,22.8-.1,2.6.7,4.3,2.2,4.9s4.7-1.6,5.4-2.4a118.1,118.1,0,0,0,8.2-10.1c1,10.7,3.6,16,7.8,17h1.1c6.4,0,13.2-11.2,17.8-20.7a1.8,1.8,0,0,0-.9-2.5Zm141.8-60c-.3-5.4-2-8.3-5-8.6-9.4-1.1-26.3,30.7-41.6,76.9,6.5-45.8,2.4-53.5-2.2-54.6-2.2-.5-8.9-2-27,39.7a667.3,667.3,0,0,0-23.9,64.8c6.3-30.7,18.7-85.1,22.9-102.3,2.6-11.1,2.1-17.6-1.6-20-2-1.2-5.6-1.7-12.1,3.3s-13.8,14.2-18.9,23.6c-3.5,6.5-8.8,18.7-5.7,27.8s11.9,10.6,18.9,10.7a1.7,1.7,0,0,0,1.8-1.8,1.7,1.7,0,0,0-1.8-1.8c-8.5-.2-13.7-2.9-15.6-8.3-4.2-12.7,11.2-37.8,23.5-47.4,3.6-2.7,6.6-3.9,8-3s3,3.1-.1,16c-1.7,7.2-8.9,38.2-15.6,68.3-3.6,16.4-6.4,29.5-8.2,38.9-1,5.4-1.8,9.7-2.2,12.6-.7,4.4-.8,6.3,1,6.8l.7.2c1.5,0,2.2-2.1,3.1-4.3,0-.1,0-.1.1-.2a670.5,670.5,0,0,1,29.1-82.6c16.7-38.4,22.7-37.6,23-37.5s3,.8,2.6,16.8c-.4,12.8-2.7,32.4-7,58a1.9,1.9,0,0,0,1.4,2.1,1.7,1.7,0,0,0,2.1-1.2c11-37.8,21-61.2,27.6-74.2,9.5-18.8,15.5-23.7,17.4-23.7h.1c.7.1,1.6,1.7,1.8,5.2.7,11.8-4.9,42.7-9.8,70-8.5,46.8-9.4,55.2-5.7,56.5,2.2.8,4-1.8,5.5-4.4a1.7,1.7,0,0,0-.7-2.4,1.8,1.8,0,0,0-2.5.7l-.8,1.4c-.2-7.2,4.2-31.3,7.8-51.1,5-28.9,10.4-58.7,9.6-70.9Zm40.6,60a1.8,1.8,0,0,0-2.3.8c-7.1,14.5-12.5,19.1-15,18.7-1-.2-4.4-2.2-5.2-18.6a1.9,1.9,0,0,0-1.2-1.6,1.8,1.8,0,0,0-2,.7l-1.7,2.2a107.1,107.1,0,0,1-9.2,11.5,6,6,0,0,1-1.3,1.2c-.7-3.3,2.8-15.8,8.3-19.8,1.6-1.1,3.7-2,6.7,1.4a1.9,1.9,0,0,0,2.5.2,2,2,0,0,0,.3-2.5c-3.6-4.1-6.9-4-9.2-3.3-7.2,2.5-12.1,16.4-12.3,22.8-.1,2.6.7,4.3,2.2,4.9s4.7-1.6,5.4-2.4a118.1,118.1,0,0,0,8.2-10.1c1,10.7,3.6,16,7.8,17h1.1c6.4,0,13.2-11.2,17.8-20.7a1.8,1.8,0,0,0-.9-2.5Z"/><path d="M591.2,470.3a21.1,21.1,0,0,1,7.7-10.9c-.2,1.5-1.2,5.7-7.2,16.1C591,474.5,590.5,473,591.2,470.3Zm37.9,6.5a1.7,1.7,0,0,0-2.4.8c-10.8,22.7-21,34.3-23.2,33.9-.2-.1-3.5-3.3,7.1-35.8.3-.8.9-2.8-.6-3.8s-3-.1-5.6,1.7-6.7,4.3-9.7,3.9c9.6-16.5,8.6-20.2,6.5-21.6s-8.2,3.7-10.5,7c-4.6,7.1-4.5,13.6.4,16.9s11.4-.7,15.3-3.3l.2-.2c-3.7,11.5-6,20.6-6.8,26.9s-.3,10.6,2.3,11.6l1.3.2c7.5,0,20.5-23.1,26.6-35.9a2,2,0,0,0-.9-2.3Z"/><path d="M704.4,442.7c-1.2-1.7-6.7-2.7-64.9-1.4,1.9-7.6,3.6-14.4,5.1-20a1.7,1.7,0,0,0-1.2-2.2,1.9,1.9,0,0,0-2.2,1.2c-1.6,5.9-3.4,13-5.3,21.1l-16.9.4-17.4.4a1.9,1.9,0,1,0,0,3.7l17.5-.5L635,445c-4,17.1-8.6,37.5-12.7,57.5-3,14.6-5.4,27.3-7,36.6-.8,4.9-1.4,8.7-1.7,11.3s-.6,5.6,1.2,6.3h.7c1.6,0,2.4-2.2,3.2-4.3a1.7,1.7,0,0,0-1-2.3h-.5c.9-7.3,3.7-23.7,9.2-49.6,4-19.6,8.4-39.2,12.4-55.5,25.8-.6,59.2-1,63.1.3a1.7,1.7,0,0,0,2.2.1,2.1,2.1,0,0,0,.3-2.7Z"/><path d="M665.3,477a1.7,1.7,0,0,0-2.4.6c-6.3,10.1-16.8,19.8-20,18.4-.4-.1-3.4-1.9.7-17.8a2,2,0,0,0-1.3-2.2,1.8,1.8,0,0,0-2.2,1.3c-3.4,13.2-2.9,20.2,1.3,22a4.8,4.8,0,0,0,2,.4c7,0,17.8-12.6,22.6-20.2a2,2,0,0,0-.7-2.5Zm-22.8-5.6a1.7,1.7,0,0,0,1.1.4,1.6,1.6,0,0,0,1.4-.7l6.1-7.5a1.9,1.9,0,0,0-.3-2.6,1.7,1.7,0,0,0-2.5.3l-6.1,7.6a1.8,1.8,0,0,0,.3,2.5Z"/><path d="M699.3,477.1a1.7,1.7,0,0,0-2.4.7c-2.2,3.8-8.2,14.2-11.5,13.9-.7-.1-2.5-1-4.4-7.6-1.3-4.6-3.1-8.9-6.6-9.1s-5.3,1.8-9.7,9.8c1.1-4,2.3-8.1,3.3-11.3a23.4,23.4,0,0,0,.9-3.3,1.8,1.8,0,0,0-1.2-2.2,1.8,1.8,0,0,0-2.2,1.3c-.3.9-.6,2.1-.9,3.2-2.4,8.3-6.1,21-7,28.7a1.8,1.8,0,0,0,1.3,1.9h.5a2,2,0,0,0,1.7-1.1c8.8-21.9,12.4-23.4,13.2-23.4s1.5.4,3.3,6.6,4.3,9.7,7.5,10.1c4.8.6,9.1-5.3,15-15.7a2.1,2.1,0,0,0-.8-2.6Z"/><path d="M707.2,464.6c-.4,1.5-2,4.5-6.4,9C703.2,468.2,705.8,465.5,707.2,464.6Zm19.6,12.5a1.7,1.7,0,0,0-2.5.5c-7,9.8-12.7,16-18.4,20.1-2.8,2-5.5,2.3-7.3,1s-4.6-4.6-.6-17.7c9.1-7.5,14.1-14.6,12.7-18.4a3.2,3.2,0,0,0-2.8-1.9c-3.7.1-9.5,6.6-13.2,18.7-4.6,14.9-.8,20.3,1.8,22.2a7.2,7.2,0,0,0,4.5,1.5,11.7,11.7,0,0,0,6.9-2.5c6-4.3,11.9-10.7,19.2-20.9a2,2,0,0,0-.3-2.6Z"/><path d="M741.7,534c-9.3,18.7-23.4,28.6-30.2,28.5-2,0-2.4-1-2.5-1.3-1.4-3.3,1.9-12.7,15.8-28.7,8.7-10,17.4-19.2,27.6-28.9A152,152,0,0,1,741.7,534Zm37.4-57a1.9,1.9,0,0,0-2.5-.2c-6.9,6-13.2,11.6-19.1,17,.5-5.9-.1-10.7-2.1-13.4s-3.8-3-6.7-2.6a26.3,26.3,0,0,0-8.4,2.9c0-.1.1-.2.1-.3l1.8-4c4.1-9.5,5.1-15.4,3-18a4,4,0,0,0-4-1.3c-5.9,1.1-13.5,11.4-16.1,19.7a1.7,1.7,0,0,0,1.2,2.2,1.7,1.7,0,0,0,2.2-1.2c2.6-8.5,9.3-15.7,12.7-17,.7-.3,1-.3,1-.2s1.8,2.2-3.4,14.3l-1.8,3.9c-2.2,5.2-2.6,6.1-1.4,7.1s2.4.2,3.7-.7,5.2-3.4,9.8-4a3.2,3.2,0,0,1,3.2,1.2c1.8,2.4,2,8,.9,15A432.5,432.5,0,0,0,721.8,530c-13.2,15.1-19,26.6-16.4,32.4a5.8,5.8,0,0,0,5.7,3.5h.2c8.9,0,24-11.5,33.3-30.6,5.6-11.4,10.2-25,12-36.2,6.7-6.2,14-12.7,22.1-19.7a1.5,1.5,0,0,0,.4-2.4Z"/><path d="M525.6,219.7a15.3,15.3,0,0,1-11.2.5,33.6,33.6,0,0,1-8.9-5h.4l3.9-.3a23.7,23.7,0,0,1,4.6-.3l1.5.2,1.7.2a21.7,21.7,0,0,0,4.4-.3l3.2-.3h2.1a17.7,17.7,0,0,0,4.6,0,20.9,20.9,0,0,1-6.3,5.2Zm-16.3-9.5a11.5,11.5,0,0,1,6.3-1.2l1,.2a9.9,9.9,0,0,0,2.4.3l1.8-.3,1-.2a4.9,4.9,0,0,1,2.4.2,40.2,40.2,0,0,1,8.9,3.5h-.2c-1.4.7-3.5.5-5.4.4h-2.2a19.5,19.5,0,0,0-3.4.3,28.3,28.3,0,0,1-4.1.3l-1.6-.2-1.6-.2a20.2,20.2,0,0,0-4.9.3,16.2,16.2,0,0,1-5.8.1,18.2,18.2,0,0,1,5.4-3.4Zm15.3-2.6a6.5,6.5,0,0,0-3.1-.2l-1.1.2-1.5.3a6.9,6.9,0,0,1-2-.3l-1.1-.2a13.1,13.1,0,0,0-7.1,1.3,35.4,35.4,0,0,0-6.7,4.1.9.9,0,0,0-.3.7.7.7,0,0,0,.4.6.5.5,0,0,0,.3.5c3.8,2.9,7.7,5.7,11.5,6.9a19,19,0,0,0,5.8.9,15.2,15.2,0,0,0,6.6-1.5c3.4-1.6,6.1-4.9,8.3-7.5.1-.2.2-.3.2-.5s.2-.1.2-.2.2-.8-.3-1a42,42,0,0,0-10.1-4.1Zm-13.5-7.5h.1c.5,0,.7-.2.8-.7s-.2-.7-.7-.8a3.2,3.2,0,0,1-2-1.2,3.5,3.5,0,0,1-.8-2.2,6.3,6.3,0,0,1,1-3,10,10,0,0,0,1-2.9.8.8,0,1,0-1.5-.3,10.6,10.6,0,0,1-.9,2.5,8.9,8.9,0,0,0-1.1,3.6,4.7,4.7,0,0,0,1.2,3.2,4.3,4.3,0,0,0,2.9,1.8Zm15.8-10.3a14.9,14.9,0,0,1,1.7,3.6,5.4,5.4,0,0,1,.5,2.2,4,4,0,0,1-.9,2.1,10.6,10.6,0,0,1-2,1.7c-.4.3-.5.6-.2,1a.7.7,0,0,0,.6.3h.4a14.3,14.3,0,0,0,2.3-2,5.1,5.1,0,0,0,1.3-3,5.5,5.5,0,0,0-.7-2.8,17.6,17.6,0,0,0-1.9-3.9l-.5-.7a5,5,0,0,1-1-1.9.7.7,0,0,0-.9-.6c-.5.1-.7.4-.5.9a7,7,0,0,0,1.3,2.4,3.5,3.5,0,0,1,.5.8Z"/><path d="M511.7,197.5v0Z"/><path d="M515.3,200a4.8,4.8,0,0,0,3.7,1.7h.3a3.9,3.9,0,0,0,3.5-1.6,4.1,4.1,0,0,1,3.2-1.7c.5,0,.7-.3.7-.8s-.3-.7-.8-.7a5.9,5.9,0,0,0-4.2,2.2,2.9,2.9,0,0,1-2.7,1.1,3.5,3.5,0,0,1-2.7-1.3l-.5-.4a9.3,9.3,0,0,0-4-1.7v.5l-.2,1a7.9,7.9,0,0,1,3.4,1.4Z"/><path d="M639.6,124.4h0a48,48,0,0,0-18.8-12.3l-.2.5v-.5l-.4-.2a40,40,0,0,0-5.7-1.5,14.1,14.1,0,0,0-5.4-.1,5.1,5.1,0,0,0-1.5.7,174.4,174.4,0,0,0-18.8-5.2h.4a27.3,27.3,0,0,0,4.1-.3h.6a41.6,41.6,0,0,0,23.7-10.2c.9-.8,1.2-1.8.6-2.4a1.7,1.7,0,0,0-1.4-.5,37.1,37.1,0,0,0-4.7.3c-5.3.5-10.7,1-15.8,2.7a33.1,33.1,0,0,0-7.4,3.4,14.8,14.8,0,0,0-3,2.6l-1.4,1.8-1.1,1.5c-5.8-1.1-11.7-1.9-17.5-2.5a20.5,20.5,0,0,0,4.7-2.9l7.9-5.6c1.9-1.3,3.8-2.7,5.6-4.2s6.7-7,7.2-12.5a.5.5,0,0,0-.3-.5.4.4,0,0,0-.5,0l-2.2,1-3.5,1.5-1.7.9a38.1,38.1,0,0,0-5.2,2.9,37.5,37.5,0,0,0-9.2,9,2,2,0,0,0,.2-.9c.2-3.7-5.2-7.4-7.3-8.6a25.2,25.2,0,0,0-3.4-1.5l1.6-1.9a15.6,15.6,0,0,0,2.7-4,5.4,5.4,0,0,0-.4-5h-.6c-2.9,1-5.7,3.1-8.6,5.4l-1.3-.8a27.4,27.4,0,0,0-4-1.5c3.8-2.8,7.8-5.6,12-8.1a17,17,0,0,1,3.2,1,20.7,20.7,0,0,0,3.3,1,40.5,40.5,0,0,0,10.9,2.1h3.3c2.5,0,5.1-.3,7-1.9s1.2-1.3.9-2-7-1.6-7.1-1.6l-5.8,1.1c-2.3.5-4.7.9-7,1.2a6.7,6.7,0,0,1-2-.1h-.3a14,14,0,0,1-2.9-.9l-2.3-.7a79.5,79.5,0,0,1,16.2-7.5c1.5-.4,2.8.7,4,1.6l.4.3a17.2,17.2,0,0,0,5.2,2.7,23,23,0,0,0,7.4,1.3,18.1,18.1,0,0,0,5.2-.7c1-.3,1.5-.8,1.5-1.4s-4.7-3.1-4.7-3.1a33.5,33.5,0,0,0-5.4-.8l-2.3-.2-2.9-.5-3.1-.5,5.8-1.1H592a25.3,25.3,0,0,0,9.5-1.6h.2c2.9-1.1,6-2.2,8.9-3,.3-.1.4-.2.4-.5a.9.9,0,0,0-.3-.7c-1.6-1.4-11.7-.7-13.5-.4s-7.1,2.4-9.1,5.1l-5.2.9,1.3-2.6a16.7,16.7,0,0,1,1.8-2.8,29.2,29.2,0,0,1,5.3-4.3c2.8-1.9,5.6-3.8,7.1-6.7.6-1.2.4-1.9.1-2.3s-2.3-.7-3.5-.3-4.2,2.5-6.5,5.5a42.3,42.3,0,0,0-4.5,8.4l-.9,1.9c-.7,1.2-1.2,2.4-1.7,3.4L577.3,55l-.5.2a76.4,76.4,0,0,0-14,6.2c.3-4.5,2.7-8.9,4.7-12l.4-.6c2.3-3.1,4.5-6.6,3.7-8.6a2.2,2.2,0,0,0-1.9-1.3c-4.5-.6-7.4,8.1-8,9.8-1.1,3.6-.7,8.1-.1,13.2l-1.3.7c-.8-3.4-1.9-8.1-2.8-11.6a10.4,10.4,0,0,1-.3-1.2c-.7-3.2-1.9-9.3-5.5-8.6-.9.2-1.5,1-1.7,2.3-.7,4.7,2.1,8.5,4.9,12.1s3.7,4.9,4.4,7.6c-4.6,2.8-8.9,5.8-13.1,8.9h-.3a6.9,6.9,0,0,0-.4-4.2l-.3-1.1c-1.1-3.8-.5-7.8.2-11.2l.2-.8c.4-2,1-4.6-.3-5.9s-1.9-1-3.6-.7a4.1,4.1,0,0,0-3.2,2.2c-1.6,2.8-.4,7.4.5,9.7a21.4,21.4,0,0,0,2,3.2c1.8,2.6,4.1,5.8,3.7,8.6a12.2,12.2,0,0,0-2.7-.1,8,8,0,0,0-.8-1.6,17.2,17.2,0,0,0-5.2-5.2,41.8,41.8,0,0,0-5.6-2.8L527,60.6l-.8-.4a4.8,4.8,0,0,0-3.6-.9,2.8,2.8,0,0,0-2.3,1.9H520l-1.1-.4h-.3c-2,0-3.8,2.2-5.6,4.4a16,16,0,0,1-3.2,3.2,5.8,5.8,0,0,1-2.2.8,4,4,0,0,0-3.5,3,6.7,6.7,0,0,0,.3,5.2l-.3.5c-4.8-1.4-8.9-1.1-12.6.8L490,77.3l.7-1.2c3.9-6.2,7.9-12.6.7-17.7a17.8,17.8,0,0,0-4.4-2.1,28.5,28.5,0,0,1-3.1-1.2l-1.1-.6c-1.9-1.2-4.9-3-7-1.4s-1,3.5-.3,4.9l.4,1a10.3,10.3,0,0,1,.7,4.6c-2.2-3.9-4.2-8-6-11.9s-3.1-6.6-4.8-9.7a15.5,15.5,0,0,1,.8-3.6,13.3,13.3,0,0,0,.5-1.9,9.2,9.2,0,0,1,.9-2.3,8.9,8.9,0,0,0,1.1-3.6c.3-4.3-2.8-9.4-6.6-10.9a24.9,24.9,0,0,0-7.4-1.3,40.7,40.7,0,0,1-4.9-.5l-1.4-.4c-1.3-.5-2.5-.9-3.9,1.5s-.2,3.7.7,5.2a14.2,14.2,0,0,1,.8,1.8,15.7,15.7,0,0,1,.5,3.7,18.3,18.3,0,0,0,.5,4,9.7,9.7,0,0,0,8.2,7.4h2.9c2.6-.1,5.4-.1,6.3,2.1a.2.2,0,0,0,.2.2c1.5,2.8,2.9,5.8,4.3,8.8s2.6,5.5,4,8.2a8.4,8.4,0,0,0-5.3-2.1,24.2,24.2,0,0,0-4.7.4,4.2,4.2,0,0,1-2.3-3.1,9.2,9.2,0,0,0-.9-2.3c-1.8-3-5.8-4.1-8.7-3.8-4.5.5-7.3,2.5-10.8,5.4l-2.1,1.2c-1.7.8-3.6,1.8-4.1,3.8-1,3.6,3.6,5.4,7.3,6.8a18.3,18.3,0,0,1,3.2,1.4c1.4.9,4.7,2.9,8,2.9a6.5,6.5,0,0,0,5.8-3.3,15.9,15.9,0,0,0,1.5-2.9c.9-1.9,1.8-3.8,3.5-5,.1,0,.1-.1.2-.2a27.3,27.3,0,0,1,4.1-.3c2.5,0,4.2,1.4,6.1,3.1l.4.3h.1l1.5,2.7a.9.9,0,0,1-.1.5,9.8,9.8,0,0,0,3.7,10,6.3,6.3,0,0,0,5.3,1.3h.8a20.5,20.5,0,0,0,3.4,2.6l-1.6,1.3a11.3,11.3,0,0,0-5.4,2.6,14.1,14.1,0,0,1-2.4,1.6l-1,.7c-3.7-5.7-15.1-8.9-20-10.7,2.4,3,2.9,7.2,5.2,10.4a16.6,16.6,0,0,0,9.5,5.9,2.3,2.3,0,0,0,.4,1.6c1.6,2.5,4.7,2.5,7.4,2.5h1.2c1.1,1.4,2.3,2.7,3.5,4l-7.4-2.7v-.4l-.3-.3a.3.3,0,0,0-.4,0l-.4.2c-2.4-.8-4.7-1.6-6.9-2.2s-5.9-1.8-8.8-2.5c-4.7-1.7-8.7-6.1-12-10.5,3.9-11.3-15.7-16.3-20.8-21.9,3.3,3.2,4.8,6.9,6.8,10.9,2.9,6,6.6,8.2,13.1,11.1,2.6,3.6,5.7,7.2,9.3,9.5a140,140,0,0,0-22.3-3.6,17.5,17.5,0,0,1-7.4-5.2c-1.3-4.3.1-8.3-1.2-12.2s-9.1-9.9-12.4-14.2c4.5,8.9.1,18.7,11.9,25.7a17.9,17.9,0,0,0,6.6,5.9,98.4,98.4,0,0,0-13.3.2l-1.8.2a41.5,41.5,0,0,1-9.3-3.5c-9.6-4.9-16.3-5.1-25.4.5,6.8,2.4,13.2,5.7,20.8,5.6,5.3,0,10.6-1,16.2-1.8a83.5,83.5,0,0,1,10-.2,28.3,28.3,0,0,0-5.1,3.4c-2,1.6-4.2,3.3-6.5,4-4.5-.9-8.3-2.4-12.9.5s-4.3,5.5-7.1,7.9-4.2,2.2-5.8,3.6c4.4-.5,8.5-3.2,12.8-4.3s9.6-1.9,13.3-6.8c2.6-.8,4.7-2.5,6.9-4.1s5.1-4,8-4.1h1.9a138.5,138.5,0,0,1,25.6,4.4h.3l3,.8a45.2,45.2,0,0,0-15,2.3c-3.7-.4-8-.3-11.4,1s-4.8,3.6-7.5,4.5-7.2,0-10.6-.6c5.9,2.5,12.4,6.5,18.7,7,4.6.4,7.6-2.9,10-6.6,0,3.2,1.5,6.3,3,8.8l1.1,1.8,1.4,2.3a23.5,23.5,0,0,0-4.6-2.8,8.8,8.8,0,0,0-2.3-.7c-.3-.1-.5.1-.6.4a18.4,18.4,0,0,0-.5,2.5,19.8,19.8,0,0,0-6-3.4c-.4-.1-.6,0-.7.5a35.4,35.4,0,0,0,0,9.2,17.7,17.7,0,0,0,2.9,7.4,15.8,15.8,0,0,0-8.2,2c-.3.2-.3.4-.2.7a18.4,18.4,0,0,0,8,9.2c-4.1,1.5-7.6,4.6-10.3,7.2a.8.8,0,0,0-.2.4c0,.2.1.3.3.4a25.4,25.4,0,0,0,11.9,3.9h1l2.7-.2a19.3,19.3,0,0,0-4.9,14.7.5.5,0,0,0,.2.4h.5a15.5,15.5,0,0,1,4.3-.7l1.9-.2a21.3,21.3,0,0,0-3.2,7.9,1.9,1.9,0,0,0,.2,1.8,1.1,1.1,0,0,0,1.2.5,4.2,4.2,0,0,0,1.5-.4,8,8,0,0,1,2.6-.5l1.3-.2a22.9,22.9,0,0,0,3.7-1.2l-3.6,9.3a.6.6,0,0,0,0,.6l-5.1,7.5a9.4,9.4,0,0,0-1.4,2.6,8.2,8.2,0,0,0-.2,2.2,21,21,0,0,0,1.2,5.4c-4.7.2-9.6.5-14.2,1.9a38.4,38.4,0,0,0-5.1,1.9,47.9,47.9,0,0,1-5.7,2.1,65.4,65.4,0,0,1-7.5,1.3l-4.5.6c-10.6,1.9-19,7.7-22.4,15.7-.2.5-.1.8.4,1h.3a.6.6,0,0,0,.7-.5c3.2-7.5,11.1-13,21.3-14.8l4.5-.6a65.1,65.1,0,0,0,7.7-1.3,57.1,57.1,0,0,0,5.8-2.1,42.9,42.9,0,0,1,5-1.9c4.6-1.4,9.5-1.6,14.2-1.9,0,.1,0,.2.1.2s.7,1.9,1,2.9c-1.3,3.5-2.9,7.8-4,11.3a7.1,7.1,0,0,0-.5,2.9,6.9,6.9,0,0,0,1.4,3,33.5,33.5,0,0,0,4.9,5.7,36,36,0,0,0,4,2.8l1.2.8a49.2,49.2,0,0,1,5.8,4.4l2.7,2.4,3.6,3.2,3.8,2.9a49.9,49.9,0,0,1,5.7,4.6,13.6,13.6,0,0,1,4.5,10c0,.1,0,.1.1.2s-.1.2-.1.3a71.7,71.7,0,0,1-.5,12.5c-.2,1.2-.5,2.3-.7,3.4s-.7,2.8-.9,4.3a31.9,31.9,0,0,0-.4,5.4h1.5c.1-1.8.1-3.5.3-5.3s.5-2.8.8-4.2.5-2.3.7-3.5a76.2,76.2,0,0,0,.5-12.8v-.2c0-.1.1-.1.1-.2a14.7,14.7,0,0,0-4.9-11,52.9,52.9,0,0,0-5.9-4.7l-3.7-2.8-3.6-3.2-2.7-2.5a67,67,0,0,0-6-4.5l-1.2-.8a32.8,32.8,0,0,1-3.8-2.7l-1-.9V226a10.2,10.2,0,0,1-1-3.4,14.9,14.9,0,0,1,1.1-6.1,20.9,20.9,0,0,0,1.1-4.3c.1.3.3.5.4.8a19.6,19.6,0,0,1,1.7,3.2l.3,1a14.6,14.6,0,0,0,.7,1.9,8.1,8.1,0,0,0,1.7,2.4c.1.2.3.2.5.2l.5-.2a.7.7,0,0,0,0-1.1,6.6,6.6,0,0,1-1.4-2l-.6-1.6-.3-1.1a23.1,23.1,0,0,0-1.8-3.5c-.2-.4-.5-.8-.7-1.3a45.2,45.2,0,0,1-3.6-8.8,26.5,26.5,0,0,1-1.6-6.6,5.5,5.5,0,0,1,.1-1.8,9.4,9.4,0,0,1,1.2-2.2l5.5-8.2,2.1-3a62,62,0,0,1,5.3-6.2.8.8,0,0,0,.4.4h.5l.7-.2a25.4,25.4,0,0,0,3.4-2.3,16.9,16.9,0,0,0,3.7-4.3,3.6,3.6,0,0,1,.7,1.8,11.3,11.3,0,0,1-6.4,11.8,2.3,2.3,0,0,0-1.5,1.2,2.6,2.6,0,0,0-.2,1.5v.2c.1,2.8-2.3,5.1-4.5,7.1-.2.1-.2.3-.3.5s0,.4.2.5a2.8,2.8,0,0,1,.7,1.7v.3c-.6,2.1,0,4.4.6,6.5l4.4,14.4a.7.7,0,0,0,1.4-.4l-4.4-14.4c-.7-2.3-1.3-4.5-.4-6.3a8.6,8.6,0,0,1,1-1.6,8.3,8.3,0,0,0,.8-1.2,22.6,22.6,0,0,0,1.1-2.2,6.2,6.2,0,0,1,4.1-4.5l1.6-.8h.1a4.2,4.2,0,0,0,2.4.5,5.6,5.6,0,0,0,3.7-1.3,8.1,8.1,0,0,1-1.2,3.7c-.4.7-.9,1.4-1.4,2.1a18.9,18.9,0,0,0-2.6,4.6c-.8,2.4-.6,5.2.5,8.4a21.4,21.4,0,0,0,4.1,7.2,37.4,37.4,0,0,0,6.9,5.7l1.4,1c7,5,13.4,11.1,19.5,17,2.6,2.5,5.5,5.3,6.6,8.9a22.1,22.1,0,0,1,.5,6.3V251c-.2,10.1-.4,20.5,1,30.7l.3,2.1a11,11,0,0,1,.2,1.8H514l-.3-2.2-.3-2.1c-1.4-10.1-1.2-20.4-1-30.4V248a26.3,26.3,0,0,0-.5-6.8l-.3-1a44.1,44.1,0,0,0,7.2.8h2.3c-1.5,7.2-2.5,17.4-3.5,27.2l-.9,8.4-1,9.1h1l.9-8.6c.3-2.7.6-5.5.9-8.5,1-10,2-20.4,3.6-27.4a12.1,12.1,0,0,0,3.2-1.1,19.7,19.7,0,0,0,5.3-4.2c1.8-1.9,3.5-4,5.1-6a60.8,60.8,0,0,1,7.6-8.5l2.3-1.9c1.1-.9,2.3-1.8,3.3-2.8,3.9-3.7,6.1-8.3,7.6-13.2.2-.1.3-.2.3-.4a7.3,7.3,0,0,1,4.1-4.8l.2-.2a3.1,3.1,0,0,1,.2.8,8.6,8.6,0,0,1-.5,2.7,7.4,7.4,0,0,0-.4,1.4,7.6,7.6,0,0,0-.3,2.1c-1.4.8-2.3,2.2-2.9,4.5a18.4,18.4,0,0,0-.4,7.4.7.7,0,0,0,.7.6h.1a.7.7,0,0,0,.6-.9,17.3,17.3,0,0,1,.4-6.8,6.2,6.2,0,0,1,1.6-3.1,9.5,9.5,0,0,0,1.6,3.9c.3.5.6.5,1.1.2a.7.7,0,0,0,.1-1.1,7.4,7.4,0,0,1-1.2-6.4l.4-1.3a8.7,8.7,0,0,0,.6-3.2,8.1,8.1,0,0,0-1.6-3.8l-.2-.3a23.7,23.7,0,0,1-1.9-3.5l-.2-.4a34.6,34.6,0,0,1-3.3-12.7,6.3,6.3,0,0,1,.4-3.3h.1l.4.6a5.7,5.7,0,0,0,1.1,2.8,4.7,4.7,0,0,0,3.6,2c.8,1.5,1.6,2.9,2.5,4.3s1.9,3.2,2.7,4.8c2.5,4.6,5.4,10.6,5.4,17.1,0,.9-.1,1.9-.1,2.8a20.9,20.9,0,0,0,.2,6.1l.3,1.1a12.9,12.9,0,0,1,.4,1.9,7.2,7.2,0,0,1-2.3,5.1,29.7,29.7,0,0,1-3.5,2.7l-1.5,1c-7.4,5.4-12.3,13.6-16.5,20.9a12.2,12.2,0,0,0-1.6,3.7,11.8,11.8,0,0,0,.4,5.3c.1.5.3,1.1.4,1.7a16,16,0,0,1-2.3,11.5c-1.3,2-1.5,5.5-1.7,7.4a52.1,52.1,0,0,0,0,7.9h1.5q-.2-3.9,0-7.8c.1-1.6.4-5.1,1.4-6.7a17.5,17.5,0,0,0,2.5-12.6,8.5,8.5,0,0,0-.4-1.7,10.9,10.9,0,0,1-.4-4.7,9.4,9.4,0,0,1,1.5-3.2c3.4-5.7,7.1-12,12.1-17a21.8,21.8,0,0,1,13.6,4.4c2.8,2,6,4.2,7.8,7.4s1.9,5.9,1.6,10.2c-.1,1.5-.3,2.9-.5,4.4s-.5,4.3-.6,6.5v2.7c0,1.1.1,2.3,0,3.4a36.8,36.8,0,0,1-1.3,7.5l-1.7,7.2h1.5l1.6-6.9a42.4,42.4,0,0,0,1.3-7.8c.1-1.2,0-2.4,0-3.6v-2.6c.1-2.1.3-4.2.6-6.4s.4-3,.5-4.5c.3-4.6-.2-8.2-1.8-11s-5.3-5.8-8.2-7.9a23.2,23.2,0,0,0-12.9-4.6l2.6-2.1,1.5-1a26.3,26.3,0,0,0,3.7-2.9,13,13,0,0,0,1.8-2.3h.2c2.4-2,3.7-4.8,3.9-8.6.1-1.4,0-2.7,0-4a35,35,0,0,1,.2-5.6,31.3,31.3,0,0,1,1-4.4,21.5,21.5,0,0,0,1.1-8,22.8,22.8,0,0,0-2.4-6.8c-4.4-8.9-9.2-17.7-14.3-26.3l-.5-.7a11.1,11.1,0,0,1,4,3.1,5.9,5.9,0,0,1,.5,1.9,16.6,16.6,0,0,0,.3,2.2,2.7,2.7,0,0,0,1,1.9,1.2,1.2,0,0,0,1.2.3,1.4,1.4,0,0,0,1-.7,1.7,1.7,0,0,0,.1-1.7,3,3,0,0,0,2.9-.1,1.2,1.2,0,0,0,.4-1.1c0-1.6-2-2.3-3.3-2.6l-3.5-.5c-1.8-2.4-4.7-4-8.6-4.9a14.6,14.6,0,0,0-1.6-1.9,2.6,2.6,0,0,0-1.6-1.1c-1.1-.1-2.1.7-2.6,2.2h-1.8c-3.8-.2-7.7-.5-10.9-2.1a7.6,7.6,0,0,1-.4-1.1c-.8-2.2-1.4-4.6-2.1-6.9a14.4,14.4,0,0,0,5.6,1.4,12.1,12.1,0,0,1,4.8,1.2,2.7,2.7,0,0,1,.9,1.2,13.4,13.4,0,0,0,.7,1.8A1.9,1.9,0,0,0,551,151c1.6.2,1-1.8.4-2.5,1.1.2,3.3-.7,2.1-2s-2.2-.6-3.1-.4l-1.5.4a11,11,0,0,0-5.7-1.6c-2.2-.2-4.5-.5-6-1.8s-1.4-5-2.2-7.4l.2-.4.4-1,3.2-1,4.2,2.9c3.3,2.3,6.7,4.7,10.2,6.9,12.5,8,23,11.7,33,11.9h.2l1.3.9,1.2,1.3a11.3,11.3,0,0,0,3.7,2.8,3.4,3.4,0,0,0,3.4-.4,2.3,2.3,0,0,0,.2-3,4.1,4.1,0,0,0-2.8-1.8,2.9,2.9,0,0,0,2.7-.5,2.4,2.4,0,0,0,.8-2.5,3.6,3.6,0,0,0-3.5-2.4,5.5,5.5,0,0,0-3.9,1.8,28.3,28.3,0,0,1-3,3h-.6c-9.8-.1-20.2-3.9-32.5-11.8l-4.3-2.8a26.4,26.4,0,0,0,7.4,1,28.3,28.3,0,0,0,4.1-.3v.2c1,1.5,2.7,2.4,5.3,2.8l1.8.2,2.8.5.7.6a9.3,9.3,0,0,0,1.4,1.4,1.7,1.7,0,0,0,1.8.5,1.3,1.3,0,0,0,.7-2.2l-.9-.5a1.1,1.1,0,0,0,1-.7,1,1,0,0,0,.1-.9.9.9,0,0,0-.6-.6H574c-1.2.2-2.1,1.1-3.2,1.5l-3-.5-1.7-.2c-2.2-.4-3.8-1.2-4.6-2.4a30.2,30.2,0,0,0,15.3-7.2c.8.9,3.7,1.2,4.7,1.2a2.6,2.6,0,0,0,1.5-.4,22.7,22.7,0,0,0,7.3,2.1l.5-.2a.4.4,0,0,0,0-.5,106.5,106.5,0,0,0-13.4-19.2c-1.2-1.4-5-5-8.3-8.2l-4.5-4.3c6.2.5,12.4,1.4,18.5,2.5h.1c2.7,5.7,5.4,11.6,9.6,16.6s11,9.1,17,9.4h.3a1.8,1.8,0,0,0,1.8-.9c.4-.8-.2-1.6-.5-2-5.6-7.7-13.1-16.9-22.6-22,6.2,1.4,12.3,3,18.3,5,0,1.3,1.8,2.5,3.8,3.9l.9.6.5.5c3.3,2.7,7.1,5.8,11.2,6.9a42.9,42.9,0,0,0,8.1,1.4l3.9.2h3.7a.5.5,0,0,0,.5-.3C639.8,124.7,639.8,124.5,639.6,124.4Zm-63.9-59h0l5.7-1.1c1.4-.2,5.6.1,5.9.9s0,.3-.6.7c-2.5,2-6.5,1.7-9.7,1.5a43.3,43.3,0,0,1-7.1-1A54,54,0,0,0,575.7,65.4Zm21.6-16.7a60.4,60.4,0,0,1,12-.2l-8,2.7h-.2a28.8,28.8,0,0,1-11.8,1.5A15,15,0,0,1,597.3,48.7Zm-8-7.8c2.1-2.8,4.1-4.6,6-5.1l1.5-.3a1.5,1.5,0,0,1,.9.2c.2.2.1.6-.2,1.1-1.3,2.6-4.1,4.5-6.7,6.3a41,41,0,0,0-4.7,3.5A26.8,26.8,0,0,1,589.3,40.9Zm-4.2,15.7,3,.4h0l2.4.3a29.7,29.7,0,0,1,5.2.8c1.3.3,3.9,1.6,3.9,2.1s-.1.2-.8.4a19.2,19.2,0,0,1-11.8-.5,15.4,15.4,0,0,1-4.9-2.6l-.4-.3a11.8,11.8,0,0,0-1.8-1.3A29.6,29.6,0,0,1,585.1,56.6Zm-22.4-7.5h0c1-3.2,3.6-9.1,6.5-9.1h.3a1.4,1.4,0,0,1,1.1.6c.7,1.7-2.5,6.1-3.5,7.6l-.5.6a34.2,34.2,0,0,0-4.4,9A26.9,26.9,0,0,1,562.7,49.1Zm-6.9,6.1h0c-2.8-3.6-5.3-7.1-4.7-11.3,0-.3.3-1.3.8-1.4h.3c2.4,0,3.4,5.2,4,7.8a13,13,0,0,0,.3,1.3c.5,2.1,1.2,4.7,1.7,7.1A30.7,30.7,0,0,0,555.8,55.2Zm-11.4.4a28.6,28.6,0,0,0-.5,10.2l-2-3a22,22,0,0,1-1.9-3c-1.1-2.7-1.7-6.5-.5-8.7a3.1,3.1,0,0,1,2.4-1.7H543a1.7,1.7,0,0,1,1.5.5c.9.9.4,3.2,0,4.9ZM465.2,40.3a48.4,48.4,0,0,0-8.7-11.5.6.6,0,0,0-.7.1.6.6,0,0,0-.1.7,49.9,49.9,0,0,1,8.2,10.7,15.8,15.8,0,0,0-3.8-.4h-3.9a8.5,8.5,0,0,1-7.3-6.7,15.7,15.7,0,0,1-.5-3.7,17.5,17.5,0,0,0-.5-4,7.5,7.5,0,0,0-1-2c-.8-1.4-1.5-2.7-.7-4.2s1.4-1.5,2.6-1l1.5.5a42.6,42.6,0,0,0,5,.6c2.5.2,5,.3,7.1,1.2s6.2,6.1,5.9,9.9a9.2,9.2,0,0,1-1,3.2,26,26,0,0,0-1,2.5,12.1,12.1,0,0,1-.5,1.8A10.5,10.5,0,0,0,465.2,40.3Zm-5.5,24.1a22.9,22.9,0,0,1-1.4,2.7c-2.5,3.7-6.4,3.7-12.3.1a20.7,20.7,0,0,0-3.4-1.5c-3.3-1.3-7.4-2.8-6.7-5.5s2-2.3,3.5-3.1a10.9,10.9,0,0,0,2.3-1.4c3.3-2.7,6-4.7,10.3-5.1h.9c2.5,0,5.4,1.1,6.8,3.3a4.8,4.8,0,0,1,.7,2,4.7,4.7,0,0,0,1.8,3.1,24,24,0,0,1-8.9.3.5.5,0,0,0-.2,1,23.9,23.9,0,0,0,9.3-.3h.1A13.3,13.3,0,0,0,459.7,64.4Zm-8.8,143,.6,1.5h0c.6,2.1-.2,4.4-1,6.7s-1.5,4.4-1.2,6.7c0,.2.1.4.1.6l-1.1-1.5a5.1,5.1,0,0,1-1.2-2.3,5.4,5.4,0,0,1,.4-2.2C448.5,214.1,449.7,210.5,450.9,207.4Zm11.8-16.9-.8,1.1-.5.7-.2-.5,1.7-1.6ZM583.4,88.8h0c-1.8,1.5-3.6,2.9-5.5,4.2L570,98.6a33.4,33.4,0,0,1-4,2.5A239.3,239.3,0,0,0,589.8,79C588.9,83.2,585.9,86.6,583.4,88.8Zm-22.3-5.6c2.9,1.5,6.9,4.9,6.7,7.5h0c-.1.8-.3,1.3-.8,1.5s-3.2-.8-4.3-1.9a42.3,42.3,0,0,1-3.3-4.1,26.2,26.2,0,0,0-4.6-5.3A28,28,0,0,1,561.1,83.2Zm.5-12.1a5,5,0,0,1-.1,3.2A13.4,13.4,0,0,1,559,78l-1.9,2.2-2.4-.6v-.3A49.2,49.2,0,0,0,561.6,71.1Zm-1.4.3a51.8,51.8,0,0,1-5.7,6.7l-.3-1.4a4.1,4.1,0,0,0-.5-.9A41.2,41.2,0,0,1,560.2,71.4Zm-18.6,1.5a13.5,13.5,0,0,1,3.5.2h.1l1,.2a22.2,22.2,0,0,1,4.9,1.8,4.5,4.5,0,0,1,1.7,1.1,2.5,2.5,0,0,1,.4.7l.3,1.4h0l.2,1.7c0,.3.1.7.1,1s.4,2.6.5,3.9c.5,3.6,1.1,8-.5,11.6a11.8,11.8,0,0,1-3.2,4.2,6.6,6.6,0,0,0-2-.6h-1.9a9.5,9.5,0,0,0-2.1.9l-.5.3-1.5.8a8.2,8.2,0,0,1-3,.7h-1.7a2.2,2.2,0,0,0,.5-.8,4.5,4.5,0,0,0,.3-2.3,12.8,12.8,0,0,0-5.2-9.3,13.6,13.6,0,0,0,3.4-7.6,12.4,12.4,0,0,0-1.7-7.3,13.1,13.1,0,0,1,3.7-2.4l.7-.2Zm7.3,46.6h-.1l-.3,2a4.5,4.5,0,0,0-.1,1.1v2.2H546c-3.1.1-5.5,1.6-8.1,3.4l-1.3.9a43.1,43.1,0,0,1-4.7,2.6c-.7.3-1.2.4-1.5.2a2.3,2.3,0,0,1-.6-1.2h0a12.1,12.1,0,0,1,.8-4.9l.3-.8c.8-2.3,1.7-4.7,1.1-7.1a7.8,7.8,0,0,0-2.9-4.4v-3.8l.7-.2a1.3,1.3,0,0,0,.7-.6,1.1,1.1,0,0,0,.1-.8,1,1,0,0,0-.4-.5,9,9,0,0,0,4-2.6l.5-.7h1.8a11,11,0,0,0,3.6.3,9.9,9.9,0,0,0,3.4-.8l1.6-.8.5-.3a3.2,3.2,0,0,1,1.7-1h.1a1.8,1.8,0,0,1,1.5.7,7.2,7.2,0,0,1,1.4,2.4,13,13,0,0,1,.5,4.4,13.6,13.6,0,0,1-.3,2.9v.5c-.2,1.2-.5,2.3-.8,3.5s-.5,2.3-.8,3.5Zm-60.4,39.3a14.7,14.7,0,0,0-1-2.2l-.5-.9c-.1-.2-.1-.4-.2-.6l1,.7a5.9,5.9,0,0,0,3.3,1.5h.1a2.3,2.3,0,0,0,1.1-.3,2.1,2.1,0,0,0,.7-1.4,10.3,10.3,0,0,0-1.1-5.7l1.9,1c4.8,5.2,9.1,10.4,10.6,16.9l.3,1.3.3,1.2a13,13,0,0,1-5.4-2.3,19.2,19.2,0,0,1-2.2-1.8,20.9,20.9,0,0,0-2.9-2.3l-2.4-1.3a12.4,12.4,0,0,1-2-1l-1.2-.9h0A5.8,5.8,0,0,0,488.5,158.8Zm-6.8,5.2a18.6,18.6,0,0,0,4.4,2.9,10.5,10.5,0,0,0,.6,2.4,10.7,10.7,0,0,1,.5,5.6l-.3,3.1a7.5,7.5,0,0,1-1.6-1.5l-3.8-4.9A17.8,17.8,0,0,0,481.7,164Zm5.3,2.1h-.2a18.5,18.5,0,0,1-5.6-4,18.7,18.7,0,0,1-3.9-6.1l.3-.4a6.5,6.5,0,0,0,.4-2c.1-1.7.3-3.8-.6-5.5a15.4,15.4,0,0,0,1.9,1.7c1.5,1.2,3.1,2.2,4.6,3.2l1.4,1a14.3,14.3,0,0,0,.8,2.2l.5,1a7.2,7.2,0,0,1,.9,2,5.8,5.8,0,0,1,.3,1.9A14.4,14.4,0,0,1,487,166.1Zm-22.1-8a4.7,4.7,0,0,1-1.9,1.5,1.8,1.8,0,0,1-2-.1c-.7-.5-.8-1.5-.5-3.1a27,27,0,0,1,3.5-9.2,18.3,18.3,0,0,0,4.8-2.5h.1l.9.4a8.3,8.3,0,0,0,.3,4.4h0a8.1,8.1,0,0,1-1.5,3.7,30,30,0,0,1-3.7,4.9Zm-12.2-11.9c-.7-.2-1.8-.8-1.9-1.6s.4-1.2,1.3-1.9a15.1,15.1,0,0,1,9.4-2.8,7.5,7.5,0,0,0,2.7,2.6,9.7,9.7,0,0,0,4.1.8h.1l-.2.3v.3H468a14,14,0,0,1-4.7,2.4,14.8,14.8,0,0,1-7.6.7h0A16.7,16.7,0,0,1,452.7,146.2Zm8.3-8.5a6.4,6.4,0,0,1-3.4-1.9,12.9,12.9,0,0,1-2.2-3h0l-.6-1.3a40.6,40.6,0,0,1-2.6-7.9c-.1-.5,0-.6,0-.6h.3c2.2-.2,4.6.9,6.7,2.9a30.5,30.5,0,0,1,3.8,4.9l.9,1.3a26,26,0,0,0,3.8,4.3,15.1,15.1,0,0,0-3.7-.7,2.9,2.9,0,0,0-2.6.7A1.8,1.8,0,0,0,461,137.7Zm7.8,2.4.7.2a1.4,1.4,0,0,1,0,1.8l-.2.2h-.2a10.1,10.1,0,0,1-4.3-.7,5.3,5.3,0,0,1-2.5-2.4l-.2-.5c0-.1-.1-.2-.1-.4a1.3,1.3,0,0,1,.2-1.2,2,2,0,0,1,1.7-.4,21.1,21.1,0,0,1,6.1,1.6h-.9a.9.9,0,0,0-1,.8C468,139.6,468.2,140,468.8,140.1ZM466.7,129a2.6,2.6,0,0,1,.7-2.3h0a3.2,3.2,0,0,1,2.5-.3c.8.2,2.7.7,3.1,2.2v.3c0,.3.1.7.1,1v1.8a19.7,19.7,0,0,1-.6,4.8c-.4-.4-.9-.8-1.4-.6a1,1,0,0,0-.4.5C468.7,134.6,466.8,131.7,466.7,129Zm8.5-7.7-.3-1.1,1.4-2.2a8.3,8.3,0,0,1,1.9-2.7c0-.3.3-.4.6-.5-1.4,3.3-1.8,6.6-.9,9.3l.3.7h0c-.5,1.5-1.1,3-1.6,4.4a10.9,10.9,0,0,0-2.3,1.4V130a4.1,4.1,0,0,0-.1-1.1,40.1,40.1,0,0,0,.9-5A11.3,11.3,0,0,0,475.2,121.3Zm5.7-8.4,1-1.6a48,48,0,0,1,3.6-5.2,6.7,6.7,0,0,1,1.5-1.4c1.5-1.1,3-1.3,5.4-1.6a38.7,38.7,0,0,1,9,.2l2.3.5h0a3.3,3.3,0,0,0,.9,2.3,4.1,4.1,0,0,0,1.1.7h.2l1,.2h.9a9.2,9.2,0,0,0,2.3-.9l.5-.3.6-.3,1.5.4,1.4.4h.3c0,.1.1.1.1.2l.3.3-1.5-.4a4.9,4.9,0,0,0-4.4,1.6,5,5,0,0,0-1.3,4.5,8.1,8.1,0,0,0,2.6,4.1l2.2,1.6c.5.4,1.1.7,1.5,1.1h.1l.3.2.8.7h.1l1.5,1.1v.2c-3,5-7.3,8.4-11.8,9.4a22.8,22.8,0,0,1-4.5.4,34.2,34.2,0,0,1-4.5-.4l-1.4-.2c-3.9-.5-7.7-1-10.8-2.6a12.1,12.1,0,0,1-4.3-3.5.4.4,0,0,1-.1-.3l-.3-.8c-.9-2.6-.5-6,1.1-9.2Zm-.4-1.3a25.4,25.4,0,0,0,.4-2.9,15.7,15.7,0,0,0,2.5-5.8.9.9,0,0,1,.3-.7.6.6,0,0,1,.8,0,2.3,2.3,0,0,1,.8.9l.6,1.2-1.3,1.2a39.7,39.7,0,0,0-3.7,5.4Zm28.7-19.5a10.1,10.1,0,0,1,2.3-1.9h.1a1.1,1.1,0,0,1,1.2.4,1.8,1.8,0,0,1,.4,1v.2A5.9,5.9,0,0,1,513,93l-.3,1.5c-.3,1.6-.7,3.3-1,4.9,0,.1,0,.2-.1.2l-.3.2A3.8,3.8,0,0,0,510,102l-.3.8a4.3,4.3,0,0,1-4,2.9l-.6-.4a2.4,2.4,0,0,1-.6-2v-.2a5.1,5.1,0,0,1,.2-1.3l.3-1.5v-.9a4.6,4.6,0,0,1,1-3.2c1.1-1.4,2.1-2.8,3.2-4.1Zm28.3,9.9a1.4,1.4,0,0,1-1.4.9h-.2a12.4,12.4,0,0,1-2.7-.3l-3.7-1.1-1.6-.5h-.3a11.6,11.6,0,0,1-4.4-2.7l-1-1.1a9.2,9.2,0,0,1-1.9-4.8,2.8,2.8,0,0,1,.8-2.6c1.2-1.2,3.7-1,5-.8a14.2,14.2,0,0,1,6.5,2.6,11.7,11.7,0,0,1,5.2,8.8,4.7,4.7,0,0,1-.3,1.7Zm-7.7,2.4h0c-.3-.2-.8-.5-.7-.8s.2-.3.3-.5v-.5l3.7,1.1h.3l-.2.2a8.6,8.6,0,0,1-2.9,2.1c0-.1.1-.1.1-.2A1.3,1.3,0,0,0,529.8,104.4Zm-4.3,6.4a2.3,2.3,0,0,0,1.8.1c.1-.1.3-.1.4-.3v4.8a5.3,5.3,0,0,0,.3,1.2,1,1,0,0,1-.9.2l-1.2-.5a7.2,7.2,0,0,1-2.1-2.5,15.6,15.6,0,0,0-1.6-2l.4.3a.6.6,0,0,0,.8-.5,2.4,2.4,0,0,0,1.5.4C525.5,111.9,525.9,111.2,525.5,110.8Zm-2.6,3.9a11.8,11.8,0,0,0,2.3,2.7,3.3,3.3,0,0,0,1.6.7h.4a1.7,1.7,0,0,0,1-.3.5.5,0,0,1,.4.7h0c-.2.8-1.3,2-5.1,2.9a12.4,12.4,0,0,1-2.7.3,7.2,7.2,0,0,1-3.2-.8h-.1a9.1,9.1,0,0,1-1.6-1.1h-.1l-.7-.7-.3-.2h-.2l-1.6-1.2-2.1-1.5a6.1,6.1,0,0,1-2.3-3.5,4.1,4.1,0,0,1,.1-1.9,5.6,5.6,0,0,1,.9-1.7,3.4,3.4,0,0,1,1.6-1,4,4,0,0,1,1.9-.2,8.1,8.1,0,0,1,2.2.7h.4l.5.2h.6l2.2,1.5.2.2a3.4,3.4,0,0,1,.9.8l.5.5.6.7A12,12,0,0,1,522.9,114.7Zm-7.5-7.7.8-.3c0,.2.1.5.1.7h-.5Zm4.5-9.2a.4.4,0,0,0,.1.5.1.1,0,0,1-.1.1c-.4.3-1-.2-1.3-.3h-.2a.8.8,0,0,0-.9.3c-.1.2-.1.4-.2.6s-1.6-.1-2,.5h0a.8.8,0,0,0,.2.8l.7,1.1c-.7.4-1.9.1-2.3.8s0,1,.7,1.2a20.1,20.1,0,0,0-3.5,1H511l-.8.4H510a5.4,5.4,0,0,0,1-1.6l.3-.9a2.8,2.8,0,0,1,.9-1.7l.4-.4.3-.7c.3-1.6.7-3.3,1-4.9l.3-1.5c0-.2.1-.5.1-.7l2.5,1.9,3.5,3.2C520.1,97.5,520,97.6,519.9,97.8Zm-4.6,6.6-.5.4h-.1l-.3.4-1.3-.4h0Zm-25.7,35.8-2.5-.3-1.9-.3a16.9,16.9,0,0,0-5.9.5l-1.6.5h-.2a.1.1,0,0,0-.1.1c-.6-.3-1.3-.2-1.8-.7a1.4,1.4,0,0,1-.1-1.4c.2.1.3,0,.5-.1a14.7,14.7,0,0,1,8.6-3,16.1,16.1,0,0,1,4.4.6,15.1,15.1,0,0,1,4.4,2.2,1.2,1.2,0,0,1,.5.6c-.2.2-.2.3-.4.3h0A5.8,5.8,0,0,1,489.6,140.2Zm-14,5.7-1.5-1.3a1.4,1.4,0,0,1,.2-.6A21.4,21.4,0,0,0,475.6,145.9Zm-.1-2.2h.1a2.6,2.6,0,0,0,2.1-.6,1.6,1.6,0,0,0,.4-1.3l1.4-.2a9.7,9.7,0,0,1,4.5.1c2.4,1,4,3.4,5.4,5.8s2.8,5.2,2.4,7.9a.9.9,0,0,1-.3.7H491c-1,0-1.9-.8-2.7-1.3l-2.4-1.7h-.1l-1.4-1c-1.5-1-3.1-2.1-4.5-3.2A15.9,15.9,0,0,1,475.5,143.7Zm13.5-8.4a14,14,0,0,0-4.5-.6,15.5,15.5,0,0,0-4.3.7,7.6,7.6,0,0,0,1.5-5l.8-.5a24.7,24.7,0,0,0,6.9,3.4l1.9.6a10.9,10.9,0,0,1-2.3,1.4Zm-7.5-6a5.3,5.3,0,0,0-3.7-.4c.4-.9.7-1.9,1.1-2.9a10.4,10.4,0,0,0,2.8,3.1Zm-4.3.8a5,5,0,0,1,3.4-.1h0a6.4,6.4,0,0,1-.8,3.8,5.9,5.9,0,0,1-2.7,2.7l-1.4.9v-.3c-.1-.5-.7-.9-1.1-.6s-.3.4-.5.5a.6.6,0,0,1-.7.1,18.2,18.2,0,0,0,.8-5.2A11.7,11.7,0,0,1,477.2,130.1Zm-3.3-6.2c-.1,1.1-.3,2.3-.5,3.4a4.7,4.7,0,0,0-3-1.8h0a22,22,0,0,0-2-5.6l.7-1.3c.3-.4.5-.9.8-1.4l.2-.4.7.5,1.1.9a6.2,6.2,0,0,1,1.7,2.2,5.6,5.6,0,0,1,.4,1.2A5.9,5.9,0,0,1,473.9,123.9Zm-3-8-.3-.2-.4-.3h-.5l-.3.3a3.6,3.6,0,0,1-.4.9,5.7,5.7,0,0,1-.8,1.3l-.4.7V118h-.1a23,23,0,0,0-4.4-9.2h0a17.9,17.9,0,0,1-.2-2.3,5.7,5.7,0,0,1,1.2-4.3,18,18,0,0,1,3.3,4,45.1,45.1,0,0,1,3.6,8.3l.2.6Zm-4.1,3h.1a5.4,5.4,0,0,1,.5,1.1,32.4,32.4,0,0,1,1.9,5.2,4,4,0,0,0-2.6.6,3.2,3.2,0,0,0-1,1.9l-.2-.2-1-1.2a12.6,12.6,0,0,1-2.4-3.6,9.3,9.3,0,0,1-.3-3.3,21.7,21.7,0,0,1,.4-2.5v-.2a1,1,0,0,1,1.6-1,6.6,6.6,0,0,1,2.9,2.9C466.7,118.8,466.8,118.8,466.8,118.9Zm4,26.4,2,.2h.7a13.8,13.8,0,0,1,2.9,3,8.6,8.6,0,0,1,.5,5,4.1,4.1,0,0,1-.3,1.6l-.3.5a.9.9,0,0,1-.6.3,1.6,1.6,0,0,1-.9-.3l-.3-.2a15.1,15.1,0,0,1-3.3-5.8A9.4,9.4,0,0,1,470.8,145.3Zm4.1,11.5h.9l.7-.2a17.9,17.9,0,0,0,3.9,5.9,15.9,15.9,0,0,1,.1,8.9,8.8,8.8,0,0,1-.5,1.5,17.7,17.7,0,0,0-2.6-3.5l-.8-.8a16.8,16.8,0,0,1-1.8-2.1,8.1,8.1,0,0,1-1.1-2.7A21.6,21.6,0,0,0,474.9,156.8Zm16-8.6a4.1,4.1,0,0,0-.7-1.1c-1.5-2.5-3.2-5.1-6-6.2h.8l1.8.2,2.6.3a7.5,7.5,0,0,0,4.4-1l2,.8a29.9,29.9,0,0,1,9.6,7.3,8.3,8.3,0,0,1,2,3.2c-2.6,1.1-5.9.9-10-.4a31.3,31.3,0,0,0-3.2-1.5Zm3.9-8.7a1.6,1.6,0,0,0-.8-1.8,17,17,0,0,0-3.5-1.9,16.4,16.4,0,0,0,2.2-1.4,29.2,29.2,0,0,0,7.1,1.6l2.4,1.4a14,14,0,0,0-6.1,2.6h0Zm5-4.6a29.1,29.1,0,0,1-7.2-1.7l-2.8-1a28.5,28.5,0,0,1-5.6-2.6,36.2,36.2,0,0,0,10.2,2.3l1.4.2,4.6.4h.7a18.1,18.1,0,0,0,4-.4,19.5,19.5,0,0,0,10.3-6.8,15.4,15.4,0,0,1-5.6,7l-1.1.7A13.8,13.8,0,0,1,499.8,134.9Zm9.3,1.5h0a23.4,23.4,0,0,1,.4-2.6l1-.6c3.5-2.4,5.9-6.2,7.2-11.1h0a10.8,10.8,0,0,0,3.1.7h.3a10.9,10.9,0,0,0,2.6-.3c3.4-.8,5.4-2,5.9-3.6a4.7,4.7,0,0,0-.4-2.1h0a4.5,4.5,0,0,1-.3-1.1v-.7a6.4,6.4,0,0,1,1.8,3.2c.5,2.1-.3,4.4-1.1,6.5l-.3.8a12.1,12.1,0,0,0-.9,5.3h0a7.3,7.3,0,0,0,.8,2.5,3.5,3.5,0,0,0,1.8,1.6l1.2.2,1.4-.2a18.9,18.9,0,0,1-3.1,5.5l-1.3,1.8c-2.9,2.8-7,5.3-12.7,7.6-.1.1-.3.2-.4.1l-.5-.2C511.4,147.1,508.7,141.6,509.1,136.4Zm25.6-61.6-.8-1.1a18,18,0,0,0-3.7-3.6l-2.5-1.6,2.4.5c3.2.7,6.5,1.4,8.5,3.4a16.7,16.7,0,0,0-3.8,2.5h0A.1.1,0,0,0,534.7,74.8ZM522.9,60.5h0a4.2,4.2,0,0,1,2.8.8l.8.5,3.5,1.6a34,34,0,0,1,5.4,2.7,15.7,15.7,0,0,1,4.8,4.8l.6,1.1-1.1.2c-2.3-2.6-5.9-3.4-9.5-4.2l-3-.7c-1.2-3.3-2.9-4.4-5.9-5.6A1.9,1.9,0,0,1,522.9,60.5Zm-4.2,1.3,1,.4c3.8,1.5,5.5,2.2,6.7,5.6a56.6,56.6,0,0,0-10-3.6l-.9-.2C516.6,62.8,517.7,61.9,518.7,61.8Zm-6.6,6.7h0l1.9-2.7a2.3,2.3,0,0,1,.7-.7,2.3,2.3,0,0,1,1.4.1,58.3,58.3,0,0,1,10.8,4h.1l2.6,1.6.8.7-1.9-.5-1-.2-.8-.2a23.2,23.2,0,0,1-3.9-1.8,15,15,0,0,0-6.4-2.3h-.9a1.8,1.8,0,0,0-1,1.1,16.9,16.9,0,0,1-4.1,4.4l-1.9,1.6c-.1,0-.1.1-.2.2Zm-6.8,4c.5-1.8,1.4-2,2.7-2.3a5.8,5.8,0,0,0,2.2-.8L506,75.2v.2a3.5,3.5,0,0,0-.5.8A4.7,4.7,0,0,1,505.3,72.5Zm-1,8.4a7.6,7.6,0,0,1,1.5-2.8,26.5,26.5,0,0,1,3.3-3.4h.1l1.8-1.5a19.7,19.7,0,0,0,4.4-4.7c.1-.3.2-.5.5-.6h.4a14.2,14.2,0,0,1,6,2.2,21.7,21.7,0,0,0,4.1,1.9l.9.3,1.1.2,2.5.7a6.9,6.9,0,0,1,3.3,2.8l.2.3a12.6,12.6,0,0,1,1.8,7.1,13,13,0,0,1-3.2,7.1,15.2,15.2,0,0,0-6.5-2.5c-1.9-.3-4.4-.3-5.9,1.1a4.1,4.1,0,0,0-1.1,3.5,9.7,9.7,0,0,0,1.2,4l-3-2.7-3.2-2.5a2.7,2.7,0,0,0-.7-1.4,2,2,0,0,0-2.3-.6l-.3.2a8.7,8.7,0,0,0-2.1,1.7,14.9,14.9,0,0,1-4-5.2A9.2,9.2,0,0,1,504.3,80.9Zm.8,5.1ZM483.6,68.7a5.4,5.4,0,0,1,1.1,2.7,11.7,11.7,0,0,0,.5,2,6.4,6.4,0,0,0,1.8,2.5h-.6a1.7,1.7,0,0,1-1,.3h0c-1.6.1-2.9.3-4.6-1.1a8.7,8.7,0,0,1-3.3-9c0-.2.1-.5.1-.7a11.8,11.8,0,0,0-.5-6.7c-.1-.3-.3-.7-.4-1.1s-1.1-2.8,0-3.7,3.9.3,5.7,1.4l1.1.7a17.9,17.9,0,0,0,3.2,1.3,15.9,15.9,0,0,1,4.2,1.9c6.4,4.5,3,10-1,16.3l-.6.9c-.1,0-.2,0-.2-.1H489a9.4,9.4,0,0,1-2.8-3.2,12.1,12.1,0,0,1-.5-1.8,5.9,5.9,0,0,0-1.3-3.2.5.5,0,0,0-.8.7Zm4.6,8.6h.4l2.1,1.7Zm-1.3,7.2a4.2,4.2,0,0,1,1.1-1.6c4.3-4.7,9.4-6,15.8-4.1h0c-.1.1-.1.3-.2.4l-.3,1.3h0a10.6,10.6,0,0,0,.8,5.8h0a14.9,14.9,0,0,0,4,5.3,27,27,0,0,0-2.7,3.9,6.2,6.2,0,0,0-1,2.2,4.2,4.2,0,0,0-.1,1.6v.8c-.1.5-.1.9-.2,1.3a5,5,0,0,0-.2,1.2l-2.3-.4a38.7,38.7,0,0,0-9-.2l-.8-1c-3.8-4.9-4.4-9.7-4.9-15.1A4.3,4.3,0,0,1,486.9,84.5Zm-5,10.2c-2.6,0-5.3,0-6.5-2a1.5,1.5,0,0,1-.2-.9,16.2,16.2,0,0,0,4.4,0,35.8,35.8,0,0,1,2.6,2.9Zm-1.5-3.3a5.8,5.8,0,0,0-.4-4.3l1-.8,2.5-1.7a10.4,10.4,0,0,1,3.2-1.9,2.8,2.8,0,0,0-.8,1.5,6.7,6.7,0,0,0-.1,2,38,38,0,0,0,1.8,9.5l-1.7-.5a9.9,9.9,0,0,0-2.4-.3C482.5,93.7,481.5,92.5,480.4,91.4Zm3.9,4.5,1.2.2,2.5.9a25.1,25.1,0,0,0,2.6,4.5l-1.6-.7A36.3,36.3,0,0,1,484.3,95.9Zm6.1,6.5a9.2,9.2,0,0,0-3.6,1.3l-.6-1.2a3.7,3.7,0,0,0-1.2-1.3,1.7,1.7,0,0,0-2.1.2,2.1,2.1,0,0,0-.5,1.3,16.3,16.3,0,0,1-1.3,3.7,24.5,24.5,0,0,0-1.4-8C483.1,99.6,486.7,100.9,490.4,102.4Zm-12.1-4.5A20.2,20.2,0,0,1,480,107v1.4a25,25,0,0,1-1.1,5.3,2.6,2.6,0,0,0-1.5.7,10.2,10.2,0,0,0-2.1,3l-1,1.7a6.5,6.5,0,0,0-1.5-1.8l-.8-.7.5-1.5a4.3,4.3,0,0,1,.1-.5c.3-1.6.6-3.2.8-4.8a30.7,30.7,0,0,1,.5-3.4v-.2C474.1,103.8,475.2,99.8,478.3,97.9Zm-26-1.3c5.7-1.6,12.6-2.5,18.5-1.1l6.2,2c-2.7,2.1-4,5.6-4.4,8.3h0l-4.2-.2-.2-.3a15.7,15.7,0,0,0-3.9-4.6.5.5,0,0,0-.7,0,6.9,6.9,0,0,0-1.8,5.5h-.5l-.2-.2a24.2,24.2,0,0,0-10.7-6.5A33.7,33.7,0,0,0,452.3,96.6Zm2.1,14.9-1-1.7c-1.5-2.6-3-5.6-2.8-8.7a23.2,23.2,0,0,1,9.9,6.1l1.8,2.1a26.4,26.4,0,0,1,3.6,6.6,5,5,0,0,0-1.7-1.1,2.1,2.1,0,0,0-2.3.2,2.4,2.4,0,0,0-.7,1.6v.2l-.3,1.7-1.9-1.3-1.8-1.2Zm-6,.5,1.6.5a26,26,0,0,1,4.5,2.8l2,1.5,1.9,1.3,2.3,1.6a8,8,0,0,0,.4,3.4,12,12,0,0,0,2.6,4l1,1.2.9,1.1a10.8,10.8,0,0,0,2.6,6,25,25,0,0,1-3.4-3.9l-.9-1.3a32,32,0,0,0-4-5.1c-1.3-1.3-4.1-3.4-7.5-3.2l-.9.3c-.6.5-.4,1.4-.4,1.7s.3.9.4,1.4a19.6,19.6,0,0,1-3.3-7.2,18.4,18.4,0,0,1-.3-3.3A23.3,23.3,0,0,1,448.4,112Zm-7.1,7.9a45.9,45.9,0,0,1,.1-8.3,19.5,19.5,0,0,1,5.5,3.4,18.4,18.4,0,0,0,.3,3.3,22.9,22.9,0,0,0,5.1,9.7c.3,1,.7,2,1.1,3a19.6,19.6,0,0,0-8-3.4h-.9A19,19,0,0,1,441.3,119.9ZM436,130.1h0a14.6,14.6,0,0,1,8.2-1.6h1.1a16.9,16.9,0,0,1,9.2,4.7,14,14,0,0,0,2.2,3.2,7.3,7.3,0,0,0,4.3,2.3,15.9,15.9,0,0,0-8,2.1h-.1a17.4,17.4,0,0,1-8.6-2.1A17.2,17.2,0,0,1,436,130.1Zm8.6,20h0a24.1,24.1,0,0,1-10.8-3.4c2.7-2.6,6.2-5.5,10.3-6.7a17,17,0,0,0,7.3,2c-1.2.9-1.7,1.8-1.6,2.7s1,2,2.6,2.5l1.8.5A16.2,16.2,0,0,1,444.6,150.1Zm3.7,14.1-3.9.6a18.4,18.4,0,0,1,1.3-7.7,17.9,17.9,0,0,1,4.4-6.5,18,18,0,0,0,5.7-2.5l2.4.2a17.4,17.4,0,0,0,4.5-.6,29.3,29.3,0,0,0-3.2,8.7,10.3,10.3,0,0,0-.1,1.7l-1.5,1.5-.5.5a13.8,13.8,0,0,1-4,3.1,12.5,12.5,0,0,1-5.1,1Zm14.3,8.1a56.7,56.7,0,0,0-5.6,6.5c.8-2.1,1.6-4.2,2.5-6.4v-.3l3.1-1.9a14.8,14.8,0,0,0,.1,2.1Zm.2-5.1-.3,1.5c-1.3.9-2.7,1.7-4.1,2.5l-.3.2a10.8,10.8,0,0,1-4.4,1.8h0l-1.3.2a12.7,12.7,0,0,0-2.8.6c-.5.2-1.2.5-1.5.2a1.4,1.4,0,0,1,0-.9c.7-2.9,1.6-6.1,3.8-8.4h0a6.4,6.4,0,0,0,1.8-.6,16.2,16.2,0,0,0,4.3-3.4l.5-.5,1.1-1.1a2.8,2.8,0,0,0,.8,1.1,2.4,2.4,0,0,0,1.6.5,3.2,3.2,0,0,0,1.4-.3l.7-.5Zm8.3-.7a14.3,14.3,0,0,1-3.8,4.7,36.2,36.2,0,0,1-3.2,2.2h-.2V173a.4.4,0,0,0-.1-.3,9.1,9.1,0,0,1,0-3.3l.3-1.7,1.5-8.5.3-.3a30.8,30.8,0,0,0,3.7-5,12.6,12.6,0,0,0,1.3-2.6,12.2,12.2,0,0,0,3,4.8h.1a17.6,17.6,0,0,1-1.4,7.5A14.7,14.7,0,0,1,471.1,166.5Zm1.2,16.3,2.1-1.1.5-.3c.4-.2,1-.6,1.2-.5s.3.3.4.4h-.1A3.6,3.6,0,0,1,472.3,182.8Zm86.8,10.6a9.5,9.5,0,0,0,1,1.7l.2.3h0a6,6,0,0,1,.6,1.1h-.2a9.4,9.4,0,0,0-2.5,1.8A46.3,46.3,0,0,0,559.1,193.4Zm6.3-9.8c-1-1.8-2.1-3.6-3.1-5.5h.1a1.5,1.5,0,0,0-.1-1.6,3.7,3.7,0,0,0-1.3-1.2h1l1.1,2.1a46,46,0,0,1,4.5,10.2C566.9,186.2,566.2,184.9,565.4,183.6Zm-.4-19.2c3.9,6.8,7.6,13.7,11,20.7a18.7,18.7,0,0,1,2.3,6.3,7.4,7.4,0,0,1,0,2.1,9.7,9.7,0,0,0-.2-2.4,16.2,16.2,0,0,0-3.3-6.2l-.7-1c-3.1-4.3-5.3-9.2-7.5-14-.9-2-1.8-4-2.8-6Zm-3.1-5.5a26.9,26.9,0,0,0,1.6,2.9,5.3,5.3,0,0,1-1.2-1.4,3.3,3.3,0,0,1-.5-1.6Zm3.4,11.7a85.1,85.1,0,0,0,7.6,14.3l.7,1a14.6,14.6,0,0,1,3,5.6,14,14,0,0,1-.2,5l-1.2,8.4a.7.7,0,0,0,.6.9h.1v3.5a17,17,0,0,1,.1,3.9h0a10.7,10.7,0,0,1-1.6,5.5V218a14.3,14.3,0,0,0-.4-2.2,3.6,3.6,0,0,1-.2-1,18.2,18.2,0,0,1-.1-5.7,28.1,28.1,0,0,0,.1-2.9c0-5.7-2.1-10.9-4.2-15.3a.6.6,0,0,0,.1-.4c-.3-5.1-2.8-9.6-5.2-14l-1.3-2.4a1.6,1.6,0,0,0-.7-1.3c-1.6-3.2-2.9-6.3-3.1-9.8v-.7l1,.2h1C562.8,165.1,564.1,167.9,565.3,170.6Zm-4.4-13.9-.9.4-.6-.9Zm-5-2.6h.1l.4.5h-.6A4.3,4.3,0,0,1,555.9,154.1Zm1.3,1.5a53.5,53.5,0,0,1,3.4,5.4h0a3.1,3.1,0,0,1-1.9-.6,7.1,7.1,0,0,1-2.1-2.7,6.3,6.3,0,0,1-.8-2.3Zm-3.1-.3h.2a9.2,9.2,0,0,0,1,3.2,8.7,8.7,0,0,0,2.5,3.2.1.1,0,0,1,.1.1v1.5a23.6,23.6,0,0,0,2.5,8.7h-1.1l-.4-.3h-.7a35.5,35.5,0,0,0-2.1-4.4l-1.2-2.3a15.6,15.6,0,0,1-1.5-5.2A13.5,13.5,0,0,1,554.1,155.3Zm-3-.3a3.7,3.7,0,0,0,1.5.1,10.2,10.2,0,0,0-.6,4.9,17.4,17.4,0,0,0,1.7,5.6l1.2,2.3c.7,1.3,1.4,2.7,2,4l-.6.4-.3-.2a42.9,42.9,0,0,1-15.3-18.9C543.9,154.5,547.5,154.8,551.1,155ZM535,136a59.7,59.7,0,0,0,1.7,7.7h0c.7,2.5,1.4,5.1,2.2,7.5.2.4.3.9.5,1.3a45,45,0,0,0,16,20.3h.2a3.5,3.5,0,0,0-.5.8,8.2,8.2,0,0,0-.5,4.1,36.4,36.4,0,0,0,3.5,13.4c-1.4,8.3-3,17.7-9.6,24l-3.2,2.7-2.4,1.9a63.9,63.9,0,0,0-7.8,8.7,70.8,70.8,0,0,1-5,5.9,17.9,17.9,0,0,1-4.8,3.9c-4,2-8.6,1.4-13.9.4H511a28.4,28.4,0,0,0-6-7.2c-6.2-5.9-12.6-12-19.7-17.1l-1.4-1a38,38,0,0,1-6.6-5.4,19.4,19.4,0,0,1-3.8-6.7c-1-2.9-1.2-5.4-.5-7.4a17.6,17.6,0,0,1,2.4-4.2l1.5-2.2a10,10,0,0,0,1.5-4.4c.1-1.1.1-2.9-1.5-3.7a2.7,2.7,0,0,0-2.6.5l-.5.3-5.4,2.9a12.7,12.7,0,0,0-2.7,1.8c0-.3.1-.7.1-1v-.2a1.7,1.7,0,0,1,.1-.7,1.5,1.5,0,0,1,.9-.5,12.7,12.7,0,0,0,3.4-2.3,13.1,13.1,0,0,0,2.5-3.2,10.7,10.7,0,0,0,1.3-3.8,11.3,11.3,0,0,0,0-4.1,4,4,0,0,0-1.4-2.8l.5-1.1a7.6,7.6,0,0,0,.9,1.8,21.1,21.1,0,0,0,1.9,2.3l.7.8a19.7,19.7,0,0,1,2.9,4.2.6.6,0,0,0,1,0,12.2,12.2,0,0,0,.7-1.7l3.4,4.4a4.8,4.8,0,0,0,2.8,2.1h.4a.5.5,0,0,0,.2-.4l.4-3.9a11.2,11.2,0,0,0-.5-6,9.4,9.4,0,0,1-.4-1.6h.3l.3-.3a27.7,27.7,0,0,0,1-5l.5.4,2.1,1.1,2.3,1.2,2.8,2.2a21.1,21.1,0,0,0,2.3,1.9,14.5,14.5,0,0,0,6.7,2.6h.1a.5.5,0,0,0,.4-.2.4.4,0,0,0,.1-.5,11.8,11.8,0,0,1-.4-2l-.3-1.4c-1.4-6.1-5.2-11-9.4-15.8l1.3.5a24.1,24.1,0,0,0,6.5,1.2,11,11,0,0,0,4.7-1,.4.4,0,0,0,.3-.6,8.6,8.6,0,0,0-2.4-4.1,32,32,0,0,0-9.2-7.1,14.4,14.4,0,0,1,6.6-2.5c.3,0,.4-.2.5-.4a.6.6,0,0,0-.3-.6l-2.1-1a14.9,14.9,0,0,0,6.5-1.6l-.3,1.8c-.5,5.6,2.4,11.5,7,14.2a1.9,1.9,0,0,0,1,.3l.8-.2a40.5,40.5,0,0,0,10.8-5.9,15.9,15.9,0,0,0-1.4,5.7,11.2,11.2,0,0,1-6.5,4,21.6,21.6,0,0,1-4.4-.2c-.8-.1-3-.1-3.5.8a1.5,1.5,0,0,0,.7,2,4.5,4.5,0,0,0,2.3.3,4,4,0,0,0-1.4,1.5,1.7,1.7,0,0,0,.1,2,1.9,1.9,0,0,0,2.5-.2,8.9,8.9,0,0,0,1.5-3.1,6,6,0,0,1,1.4-2.1,12.4,12.4,0,0,0,7.1-3.6c0,1.1,0,2.1.1,3.1a42.2,42.2,0,0,0,2.9,10.6.2.2,0,0,0,.2.2,5.1,5.1,0,0,0-.2.9,14.5,14.5,0,0,1-.9,2.2,5.4,5.4,0,0,0-.5,2.1,1.5,1.5,0,0,0,1.4,1.5,1.6,1.6,0,0,0,1.2-.8,5.8,5.8,0,0,0,.5-1.4,1.7,1.7,0,0,0,1.7,1.6,2.1,2.1,0,0,0,2.1-1.2,2.5,2.5,0,0,0-.2-2.5c-.6-.9-1.6-1.1-2.4-1.8l-2.2-1.7a38.1,38.1,0,0,1-2.6-9.9,18.5,18.5,0,0,1,1.6-10.4,4.1,4.1,0,0,1,.7-1.1,16.2,16.2,0,0,0,1.8-1.9A28.5,28.5,0,0,0,535,136Zm-1.1-2.3h0a4,4,0,0,1-2.4.2,2.7,2.7,0,0,1-1-.8,4.2,4.2,0,0,0,1.6-.4A46.7,46.7,0,0,0,537,130l1.4-.9c2.4-1.7,4.7-3.1,7.5-3.2h1.6a1.8,1.8,0,0,0,1.6-.2c.4-.4.4-1,.4-1.8v-1.1c0-.4.1-.7.1-1.1l.3-2v-.2a33.8,33.8,0,0,1,.8-3.4c.3-1.1.5-2.3.8-3.5v-.3a.4.4,0,0,1,.1-.3,15.3,15.3,0,0,0,.3-3,13.2,13.2,0,0,0-.6-4.8,7.8,7.8,0,0,0-1.6-2.8l1,.4.5.4a8.2,8.2,0,0,1,2,2.5c2,3.9,1.4,8.6.6,12.2-.1.6-.3,1.3-.4,1.9a31.7,31.7,0,0,1-1.2,4.1l-.3.7a12.3,12.3,0,0,1-1.9,3.1l-.3.3c-2.2,2.2-5.4,3.3-8.3,4.2Zm21.2-8.8h4.1l2.2,2.5a3.2,3.2,0,0,0-.8,1.4A27.3,27.3,0,0,1,555.1,124.9Zm5.4,5v.7a28.4,28.4,0,0,1-9.8-3.3,10.7,10.7,0,0,0,1.9-2.8h.7a29.2,29.2,0,0,0,7,5.1Zm-6.5-6a6,6,0,0,1-.8-.8c.4-1.3.8-2.5,1.1-3.8s.1-.5.2-.8c1.3,1.9,2.7,3.8,4.2,5.6A18.3,18.3,0,0,1,554,123.9ZM544.5,136l-.9-.6-3.7-2.6,1.7-.5c2.7-.9,6-2,8.4-4.2a28.5,28.5,0,0,0,10.5,3.6h.1v.4a25.1,25.1,0,0,1-16,3.9Zm32.2-4.1h-.1c-8.3,7.3-20.2,9.6-29.8,5.6l-1.1-.8h1.2a25.6,25.6,0,0,0,14.2-4.2,7,7,0,0,0,3.2-.5l.6-.4h1a.5.5,0,0,0,.5-.3.4.4,0,0,0-.1-.5l-.3-.3-1-1.1-.6-.7-.3-.3a1.6,1.6,0,0,0-.3-.9,1.9,1.9,0,0,0-1-.5l-.3-.3-1.8-2a18.5,18.5,0,0,0,6.5-2.2l.3-.2c.1-.1,0,0,0-.1l3.7.7h.7l1,1.5a28.5,28.5,0,0,0,4.7,5.1A4.1,4.1,0,0,0,576.7,131.9ZM563.5,130l.2-.3.2.2Zm5.6-13.8c-1-2.3-1.9-4.6-2.8-6.9,1.1,2,2.3,3.9,3.6,5.8Zm8.8,12.4h0a28.8,28.8,0,0,1-4.4-4.8l-.5-.7h1.8l1-.3,4.2,4.5A3,3,0,0,0,577.9,128.6Zm5.9,4.1a1.5,1.5,0,0,0-.8-1.6,3.6,3.6,0,0,0-2-.6,1.3,1.3,0,0,0,1.1-1.2,71.1,71.1,0,0,0,6,4.9A16.9,16.9,0,0,1,583.8,132.7Zm-15.5-24.6c3.6,3.3,7.3,6.9,8.5,8.2h0a107.8,107.8,0,0,1,12.1,17.1,84.8,84.8,0,0,1-12.1-11.1,1.8,1.8,0,0,0,.8-1.5,2.1,2.1,0,0,0-1.6-2,5.8,5.8,0,0,0-2.3-.2l-.2-.3a5.2,5.2,0,0,0,.9-3.4.8.8,0,0,0-.2-.4c-.6-1.2-2.5-.9-3.6-.2h-.1a74.5,74.5,0,0,1-5.3-9.1Zm.1,9.4-.6,1.6a16.1,16.1,0,0,1-.9,2.6l-.3.2a17.7,17.7,0,0,1-6.7,2.2c-1.7-2-3.2-4.2-4.7-6.3l-.5-.6c.8-3.8,1.4-8.5-.7-12.7a5.9,5.9,0,0,0-1.3-1.8l10.4.5.7,2.2A103.8,103.8,0,0,0,568.4,117.5ZM564.5,99a27.7,27.7,0,0,1-1,2.6l-.3.3c-3.8-.3-7.7-.5-11.5-.6a13,13,0,0,0,3.2-4.2c1.7-3.9,1.1-8.5.5-12.2V84l.6-.7a29.7,29.7,0,0,1,2.7,3.5,33.7,33.7,0,0,0,3.4,4.3,7.5,7.5,0,0,0,4.6,2.3h.9l.4-.2-.4.6-.7,1.1a39.7,39.7,0,0,0-2,3.5C564.7,98.4,564.7,98.7,564.5,99Zm1.1.5.2-.6a17.7,17.7,0,0,1,1.9-3.3l.7-1.1a33.6,33.6,0,0,1,10.2-10.7,31.5,31.5,0,0,1,5.1-2.8l1.7-.9,3.4-1.5h.1a245.3,245.3,0,0,1-23.5,21.8,2.4,2.4,0,0,1,.2-.8Zm21.1,2.5a13.2,13.2,0,0,1,2.8-2.5,33.4,33.4,0,0,1,7.2-3.3c5-1.7,10.4-2.2,15.6-2.7l4.4-.3a96.6,96.6,0,0,1-13.8,4.3c-6,1.5-12.3,3.1-17.5,6A6.4,6.4,0,0,0,586.7,102Zm7.2,19.7h0a62.6,62.6,0,0,1-8.4-14.1l24.6,23.2C604.4,130.4,598.5,127.1,593.9,121.7Zm16.8,7.9.3.5h0l-24.9-23.5C596.5,111.4,604.7,121.3,610.7,129.6Zm-23-24.7h-2.1c5.2-3,11.5-4.6,17.6-6.2a97.8,97.8,0,0,0,13.6-4.2,41.1,41.1,0,0,1-22.9,9.8h-.6l-4,.3Zm48,19.4-3.9-.2a42.2,42.2,0,0,1-7.9-1.4c-3.9-1-7.5-4-10.8-6.7l-.5-.5-1-.7c-.9-.6-3-2-3.3-2.8a16.1,16.1,0,0,1,6.1,1.5c3.1,1.4,6.1,3,9,4.5a130.4,130.4,0,0,0,13.1,6.2ZM624,117.2c-2.9-1.5-6-3.1-9.1-4.5a21.3,21.3,0,0,0-4.9-1.5h1.2a17.3,17.3,0,0,1,3.2.3,51.2,51.2,0,0,1,5.6,1.5l.4.2h.1a44.6,44.6,0,0,1,16.7,10.3A132,132,0,0,1,624,117.2Z"/></g></svg>