<svg xmlns="http://www.w3.org/2000/svg" viewBox="0 0 200 32"><path d="M84.1 31.3c-.4-.8-.2-3.4 0-9-1.2.1-2.3.2-3.5.2-.1 0-.3-.1-.3-.3 0-.1.1-.3.2-.3 1.2-.1 2.4-.1 3.6-.2v-.1c0-.1.1-.3.3-.3.1 0 .3.1.3.3v.1c1.2-.1 2.4-.2 3.6-.4.1 0 .3.1.3.2s-.1.3-.2.3c-1.2.1-2.5.3-3.7.4-.2 5.2-.4 8.1-.1 8.8.1.1 0 .3-.1.4-.2.1-.4.1-.4-.1zM86.7 29.3c.2-2.5.2-5.8.6-7.8 0-.1.2-.2.3-.2.1 0 .2.2.2.4-.3 1.6-.4 4.1-.5 6.4.5-1 1.2-2.4 2.1-2.2.9.2.6 1.4 1.2 2.4.1.2.3.4.5.4.5.1 1.3-.7 1.9-1.5.1-.1.3-.1.4-.1.1.1.2.2.1.4-1.6 2.4-3.3 2.4-3.9-.5-.4-1.8-1.7 1.4-2.4 2.6-.1.1-.5 0-.5-.3zM93.6 26.1c.8-.8 1.6-.5 1.7.1.2.8-1 1.6-2 1.7-.2 1.3 1.2 1.3 2 .8.6-.3 1.1-.9 1.6-1.7.1-.1.2-.2.4-.1.1.1.2.2.1.4-1.1 1.8-2.2 2.3-3.1 2.3-2.2 0-1.8-2.4-.7-3.5zm1.2.2c-.1-.2-.8-.1-1.3 1 .7-.1 1.4-.7 1.3-1zM102.7 28.5c0-.5.1-1 .1-1.6-.2 0-.5 0-.7 0-.1 0-.3-.1-.3-.2s.1-.3.2-.3c.3-.1.6-.1.8-.2.1-.9.3-1.8.5-2.5 0-.1.2-.2.4-.2.1 0 .2.2.2.4-.1.6-.3 1.4-.4 2.3 1-.2 1.9-.6 2.8-1 1.1-.6 1.8-1.6 1.3-2.3-1.5-2.2-6.5.2-6.8 2.3 0 .1-.2.2-.3.2-.1 0-.2-.2-.2-.3.4-2.6 6-5.3 7.8-2.6.5.8.4 2.2-1.5 3.1-.8.5-1.7.7-2.6 1 .6.2 1.1.6 1.3 1 .8-.2 1.8-.3 3-.4.1 0 .3.1.3.3 0 .5-.7.1-3.1.6.2 1.8-2.4 3.4-4 3.4-1.1 0-1.4-1.6 1.2-3zm2.3-.3c-.7.2-1.3.4-1.7.6 0 .2 0 .3 0 .5 0 .1-.1.3-.3.3-.1 0-.3-.1-.3-.3v-.1c-1.4.8-2.2 2.3-.1 1.6 1-.5 2.5-1.5 2.4-2.6zm-.2-.5c-.3-.5-.8-.7-1.4-.7l-.1 1.3c.4-.3 1-.5 1.5-.6zM108.8 26.1c.8-.8 1.6-.5 1.7.1.2.8-1 1.6-2 1.7-.2 1.3 1.2 1.3 2 .8.6-.3 1.1-.9 1.6-1.7.1-.1.2-.2.4-.1.1.1.2.2.1.4-1.1 1.8-2.2 2.3-3.1 2.3-2.2 0-1.8-2.4-.7-3.5zm1.2.2c-.1-.2-.8-.1-1.3 1 .7-.1 1.4-.7 1.3-1zM112.5 28.3c-.1-.6-.4-1.1-.5-1.7-.2-1.2.7-1.7 1.6-1.3.1.1.2.2.1.4-.1.1-.2.2-.4.1-.4-.2-.6 0-.6 0-.4.4.2 1.4.4 2 .6-.5 1.3-.8 2.1-1.1.1-.1.3 0 .4.2.1.1 0 .3-.2.4-.8.2-1.5.7-2.2 1.2.2 2-2 1.8-1.6.8 0-.2.2-.4.9-1zm0 .7c-.3.3-.5.4-.5.5.1.1.4 0 .5-.5zM115 29.4c-.1-2.6 0-4.9.2-7.2l-2.5.1c-.1 0-.3-.1-.3-.3 0-.1.1-.3.3-.3l2.6-.1c.1-.7.2-1.3.4-2 0-.1.2-.2.4-.2.1 0 .2.2.2.4-.1.6-.2 1.2-.3 1.9l3.2-.1c.2 0 .3.1.3.3 0 .1-.1.3-.3.3l-3.3.1c-.3 2.2-.4 4.6-.2 7.2 0 .1-.1.3-.3.3-.3-.2-.4-.3-.4-.4zM119.5 30.7c.1-.1.2-.2.4-.1 1 .7 2.8.1 3.8-.8 3.9-2.9 2.4-8.3-1.5-7.4-.4 2.4-.6 4.8-.5 7.2 0 .1-.1.3-.3.3-.1 0-.3-.1-.3-.3-.1-2.3.1-4.7.5-7-.5.2-.9.5-1.1.9-.1.1-.2.2-.4.1-.1-.1-.2-.2-.1-.4.4-.6 1-1 1.8-1.3 0-.2.1-.4.1-.5 0-.1.2-.2.4-.2.1 0 .2.2.2.4 0 .1 0 .2-.1.3 4.3-.8 6.1 5.2 1.7 8.4-1.3 1-3.2 1.6-4.5.8-.2-.1-.2-.3-.1-.4zM129.5 25.7c.1 0 .3.1.3.3s-.1.3-.3.3c-2.2 0-3 3.5-1.8 2.6.6-.4 1.2-1.5 1.5-2.2.1-.1.2-.2.4-.1.1.1.2.2.1.4s-.1.6-.2.9c-.4 2.5 1.1.6 1.9-.7.1-.1.2-.2.4-.1s.2.2.1.4c-1.7 3.1-3.1 2.6-3.1 1.1-.5.7-1.2 1.5-1.9 1-1-.9.2-3.9 2.6-3.9zM131.2 29.2c.1-.9.1-2.3.3-3.4 0-.1.1-.3.3-.2.1 0 .3.2.2.3-.1.4-.1.9-.1 1.4.4-.9.7-1.7 1.3-1.7.3 0 .5.2.7.5.3.7-.1 1.6.4 1.8.5.3 1.3-.5 1.7-1.1.1-.1.2-.2.4-.1.1.1.2.2.1.4-.5.9-1.6 1.8-2.4 1.3-.8-.5-.4-1.6-.6-2.1-.3-.7-1 1.2-1.6 2.9 0 .1-.2.2-.3.2-.3.1-.4 0-.4-.2zM137.8 25.7c.4.1.6.6.5.9-.1.1-.2.2-.4.1-.1-.1-.2-.2-.1-.4-.3-.6-1.8 1-1.5 2.1.2.8 2.1 1.1 3.6-1.4.1-.1.2-.2.4-.1s.2.2.1.4c-1.1 1.8-2.2 2.3-3.1 2.3-3.1 0-1.1-4.4.5-3.9zM140.6 26.1c.8-.8 1.6-.5 1.7.1.2.8-1 1.6-2 1.7-.2 1.3 1.2 1.3 2 .8.6-.3 1.1-.9 1.6-1.7.1-.1.2-.2.4-.1.1.1.2.2.1.4-1.1 1.8-2.2 2.3-3.1 2.3-2.3 0-1.9-2.4-.7-3.5zm1.1.2c-.1-.2-.8-.1-1.3 1 .7-.1 1.4-.7 1.3-1zM147.6 29.3c.4-.8 1.3-1.4 2.1-1.7-.4-.6-1-1.2-1.4-1.8-1-1.2-1.4-2.9-.3-4 1.2-1.3 3.3-.4 3.6 1.3 0 .1-.1.3-.2.4-.1 0-.3-.1-.4-.2-.2-1.3-1.7-2-2.6-1.1-.9.9-.4 2.3.4 3.2.5.6 1.1 1.2 1.5 1.9.7-.2 1.6-.4 2.6-.3.1 0 .3.1.2.3 0 .1-.1.3-.3.2-.9-.1-1.7 0-2.3.2.9 1.9.2 3.8-1.6 3.5-1.1.1-1.9-.8-1.3-1.9zm2.3-1.2c-.7.3-1.5.8-1.8 1.5-.5 1 .9 1.6 1.7 1.2.7-.5.5-1.9.1-2.7zM152.6 29.3c.2-2.5.2-5.8.6-7.8 0-.1.2-.2.3-.2.1 0 .2.2.2.4-.3 1.6-.4 4.1-.5 6.4.5-1 1.2-2.4 2.1-2.2.9.2.6 1.4 1.2 2.4.1.2.3.4.5.4.5.1 1.3-.7 1.8-1.5.1-.1.3-.1.4-.1.1.1.2.2.1.4-1.6 2.4-3.3 2.4-3.9-.5-.4-1.8-1.7 1.4-2.4 2.6 0 .1-.4 0-.4-.3zM158.9 27.1c.1-.5.5-1 .9-1.4.1-.1.2-.1.4 0 .5-.1 1 .7 1.1 1.2.4.1.8.1 1.5-.1.1 0 .3.1.4.2 0 .1-.1.3-.2.4-.6.1-1.1.2-1.6.1 0 .5-.1.9-.4 1.3-.9 1.6-2.7.4-2.1-1.7zm1.9.2c-.5-.2-.8-.5-.9-.9-1.1 1.3-.2 3.5.7 2 .1-.2.2-.6.2-1.1zM163.3 26.1c.8-.8 1.6-.5 1.7.1.2.8-1 1.6-2 1.7-.2 1.3 1.2 1.3 2 .8.6-.3 1.1-.9 1.6-1.7.1-.1.2-.2.4-.1.1.1.2.2.1.4-1.1 1.8-2.2 2.3-3.1 2.3-2.2 0-1.9-2.4-.7-3.5zm1.1.2c-.1-.2-.8-.1-1.3 1 .7-.1 1.4-.7 1.3-1zM166.9 28.3c-.1-.6-.4-1.1-.5-1.7-.2-1.2.7-1.7 1.6-1.3.1.1.2.2.1.4-.1.1-.2.2-.4.1-.4-.2-.6 0-.6 0-.4.4.2 1.4.4 2 .6-.5 1.3-.8 2.1-1.1.1-.1.3 0 .4.2.1.1 0 .3-.2.4-.8.2-1.5.7-2.2 1.2.2 2-2 1.8-1.6.8 0-.2.2-.4.9-1zm.1.7c-.3.3-.5.4-.5.5.1.1.4 0 .5-.5zM59.5 2.5c-.6-.5-1.3-.8-2.1-1.1S55.7 1 54.8 1h-4.6v3.3H54c.8 0 1.4.1 1.9.2s.9.4 1.2.8c.3.3.6.7.8 1.2.2.5.3 1 .3 1.4 0 .5-.1 1-.3 1.4s-.5.9-.8 1.2c-.4.4-.8.6-1.3.8-.5.2-1.1.2-1.8.2V6.4h-3.8v8.5h4.4c1.2 0 2.2-.1 3.1-.5.6-.2 1.1-.5 1.6-.9s1-.9 1.4-1.4c.9-1.2 1.4-2.6 1.4-4.1 0-1.1-.2-2.1-.7-3.1-.5-1-1.1-1.8-1.9-2.4zM64.3 6.4h3.8v8.5h-3.8z"/><path fill="#E2007A" d="M64.3 1.1h3.8v3.3h-3.8z"/><path d="M74.2 1.1L78 11.6h-3.6l1.5-5.2h-3.4l-2.9 8.5h13.1L78.3 1.1zM90 6.4h3.5v8.5H90zM98.4 2.4c-.5-.6-1.1-1-1.7-1.1-.7-.2-1.6-.2-2.7-.2h-9.8v13.8H88V4.3h5.9c.3 0 .6 0 .8.1.2 0 .4.1.5.2.1.1.2.3.3.5 0 .2.1.5.1.8v8.9h3.8v-9c0-.8-.1-1.5-.2-2-.2-.5-.5-1-.8-1.4zM113.2 1.9c-.6-.5-1.3-.8-2.1-1.1-.8-.2-1.6-.4-2.4-.4-1.9 0-3.5.6-4.8 1.8-.7.7-1.3 1.4-1.7 2.4-.4 1-.6 2-.6 3.1 0 1.9.6 3.5 1.7 4.8.7.8 1.5 1.4 2.4 1.8 1 .4 2 .6 3.1.6s2.2-.2 3.1-.6c.9-.4 1.7-1 2.4-1.8.5-.6.9-1.3 1.2-2.2.3-.8.4-1.7.4-2.5 0-1.3-.2-2.4-.7-3.4-.5-1-1.2-1.8-2-2.5zm-2.1 8.7c-.6.7-1.3 1.1-2.3 1.1-.9 0-1.6-.3-2.2-.8-.4-.4-.6-.8-.8-1.4-.2-.6-.3-1.2-.3-1.8 0-1.2.3-2.2.8-2.9s1.3-1.1 2.4-1.1c1 0 1.8.4 2.4 1.1.6.7.9 1.7.9 2.9-.1 1.2-.4 2.2-.9 2.9zM128 2.3c-.5-.5-1-.8-1.6-1-.7-.2-1.4-.2-2.3-.2h-6v13.8h3.8V4.3h1.8c.6 0 1.1.1 1.3.4.2.2.2.6.2 1v9.1h3.8V5.6c0-.8-.1-1.4-.2-2-.2-.5-.4-1-.8-1.3z"/><path fill="#E2007A" d="M155.9 1.1l3.7 10.5h-3.5l1.4-5.2h-3.4l-2.8 8.5h13L160 1.1zM175.7 2.3c-.5-.5-1-.8-1.6-1-.7-.2-1.4-.2-2.3-.2h-6v13.8h3.8V4.3h1.8c.6 0 1.1.1 1.3.4.2.2.2.6.2 1v9.1h3.8V5.6c0-.8-.1-1.4-.2-2-.2-.5-.5-1-.8-1.3zM183.6 1.4c-.6.2-1.3.5-1.8.9-.6.4-1.1 1-1.5 1.6-.4.6-.7 1.2-1 2-.2.7-.3 1.4-.3 2.1s.1 1.4.3 2.1c.2.7.5 1.3.9 1.9.7 1 1.5 1.7 2.5 2.2 1 .5 2.2.7 3.6.7h1.9v-3.3H187c-.8 0-1.5-.1-2-.3-.5-.2-1-.6-1.3-1-.5-.7-.8-1.4-.8-2.3 0-.9.3-1.7.8-2.4.4-.5.8-.8 1.3-1 .5-.2 1.1-.3 1.9-.3h1.4V1.1h-1.7c-1.2 0-2.2.1-3 .3zM190.7 1.1h9.3v3.3h-9.3zM190.7 14.9h9.3v-3.3h-5.5V9.7h5.5V6.4h-9.3zM148.5 2.5c-.6-.5-1.3-.8-2.1-1.1s-1.7-.4-2.6-.4h-3.3c.3.2.6.4.8.6.9.7 1.6 1.7 2.2 2.7.5 0 1 .1 1.3.2.5.1.9.4 1.2.8.3.3.6.7.8 1.2.2.5.3 1 .3 1.4 0 .5-.1 1-.3 1.4-.2.5-.5.9-.8 1.2-.4.4-.8.6-1.3.8-.4.1-.8.2-1.3.2-.2.4-.5.8-.7 1.2-.5.6-1 1.2-1.6 1.6-.2.2-.4.3-.7.4h3.1c1.2 0 2.2-.1 3.1-.5.6-.2 1.1-.5 1.6-.9s1-.9 1.4-1.4c.9-1.2 1.4-2.6 1.4-4.1 0-1.1-.2-2.1-.7-3.1-.3-.8-1-1.6-1.8-2.2z"/><path d="M141.9 12.1c.9-1.2 1.4-2.6 1.4-4.1 0-1.1-.2-2.1-.7-3.1-.5-1-1.1-1.8-1.9-2.4-.6-.5-1.3-.8-2.1-1.1s-1.6-.3-2.6-.3h-4.6v3.3h3.8c.8 0 1.4.1 1.9.2s.9.4 1.2.8c.3.3.6.7.8 1.2.2.5.3 1 .3 1.4 0 .5-.1 1-.3 1.4-.2.5-.5.9-.8 1.2-.4.4-.8.6-1.3.8-.5.2-1.1.2-1.8.2V6.4h-3.8v8.5h4.4c1.2 0 2.2-.1 3.1-.5.6-.2 1.1-.5 1.6-.9.5-.3 1-.8 1.4-1.4z"/><path fill="#E2007A" d="M9.8.9L0 13.6h13.9z"/><path fill="#E2007A" opacity="0.4" d="M.2 14.4l19.5 17.1-5.5-17.1z"/><path fill="#E2007A" opacity="0.8" d="M26.5 13.6l1.8-5.2L10.6.8l4.1 12.8z"/><path fill="#E2007A" d="M31 .5H11.9l16.6 7.2z"/><path fill="#E2007A" opacity="0.4" d="M27.4 13.6h13L29 8.7z"/><path fill="#E2007A" d="M41 13L31.6.9 29.3 8zM15 14.4l5.5 17 5.8-17z"/><path fill="#E2007A" opacity="0.8" d="M27.1 14.4l-5.8 17.1 19.9-17.1z"/></svg>