<svg xmlns="http://www.w3.org/2000/svg" xmlns:xlink="http://www.w3.org/1999/xlink" viewBox="0 0 1080 1080"><defs><linearGradient id="a" x1="1178.83" y1="171.17" x2="-98.83" y2="908.83" gradientTransform="matrix(1, 0, 0, -1, 0, 1080)" gradientUnits="userSpaceOnUse"><stop offset="0.5" stop-color="#5fceb3"/><stop offset="0.5" stop-color="#fca326"/></linearGradient></defs><rect width="1080" height="1080" fill="url(#a)"/><g fill="#fff"><path d="M487.8,816.9a19.6,19.6,0,1,0,.2,0Z"/><path d="M321.1,830.2a1.1,1.1,0,0,0-1.4-.3l-.3.3L311.6,847a.8.8,0,0,0,.2,1l.7.3h15.4l.8-.3a1.8,1.8,0,0,0,.2-1Z"/><path d="M656.1,816.9a19.6,19.6,0,0,0-19.3,19.5,19.5,19.5,0,1,0,19.4-19.5Z"/><path d="M873.9,772.9a60.6,60.6,0,0,0-30.3,7.8,27.8,27.8,0,0,0-18.5-6.8h-42a27.5,27.5,0,0,0-14.8,4.1,60.3,60.3,0,0,0-24.4-5.1c-19.3,0-33.3,8.4-41.6,19.9a63.2,63.2,0,0,0-81-9.5,28.4,28.4,0,0,0-22.2-10.4h-1.7A28.8,28.8,0,0,0,572,788a28.5,28.5,0,0,0-25.3-15.1H545a28.7,28.7,0,0,0-22.3,10.4,63.2,63.2,0,0,0-69.1-.3,60.5,60.5,0,0,0-34.8-10.1A63.5,63.5,0,0,0,359,815.4l-12.1-25.9-.4-.8a28.9,28.9,0,0,0-25.7-15.8h-1a28.6,28.6,0,0,0-24.6,13.9,28.9,28.9,0,0,0-24.1-12.9H229a28.7,28.7,0,0,0-14.8,4.1,60.3,60.3,0,0,0-24.4-5.1c-32.8,0-50.4,24.2-50.4,47a45.5,45.5,0,0,0,6.8,24.1l-2.8,4.8a28.7,28.7,0,0,0,4.8,35.1c4.8,4.8,18.3,15.8,42.1,15.8a55.3,55.3,0,0,0,23.6-5.3,28.8,28.8,0,0,0,15.1,4.3h42.1a26.8,26.8,0,0,0,8.4-1.3,27.4,27.4,0,0,0,8.5,1.3h11.2a31.3,31.3,0,0,0,21.1-8.3,29.6,29.6,0,0,0,20.9,8.3h11.3a28.5,28.5,0,0,0,24.3-13.3,3.6,3.6,0,0,0,.7-1,63.4,63.4,0,0,0,41.3,15.3,62.4,62.4,0,0,0,34.6-10.3,62.7,62.7,0,0,0,62.9,3.5,28.7,28.7,0,0,0,17.4,5.8h12a27.2,27.2,0,0,0,11.6-2.5,29.2,29.2,0,0,0,13.8,3.5H573a29.2,29.2,0,0,0,13.8-3.5,27.2,27.2,0,0,0,11.6,2.5h12.1a29.8,29.8,0,0,0,17.3-5.6,63.3,63.3,0,0,0,72.5-11.5,15.8,15.8,0,0,0,2.2,2.3c4.6,4.8,18.2,15.8,41.8,15.8a55.4,55.4,0,0,0,23.7-5.3,28.5,28.5,0,0,0,15.1,4.3h42a28.3,28.3,0,0,0,18.5-6.8,62.7,62.7,0,0,0,30.3,7.8,63.5,63.5,0,0,0,6.4-126.8c-2.1-.1-4.3-.1-6.4,0ZM190.1,875.1c-14.8,0-22.4-6.5-24.4-8.5a4.2,4.2,0,0,1-.9-5.6l4.8-8.3a4.6,4.6,0,0,1,6.4-1.6l.6.4c6.3,4.2,10.5,5,12.8,5s4.9-1.7,4.9-3.8c0-4.7-6.9-7.4-9.2-8.2C171.5,839,164,830.4,164,819.9s8.8-22.4,25.8-22.4a39.5,39.5,0,0,1,23.1,7.9,4.9,4.9,0,0,1,1.1,6.4l-5.1,7.8a6.3,6.3,0,0,1-4.7,2.6,3.9,3.9,0,0,1-2.1-.6l-.5-.4c-5.4-3.6-9.5-5.3-12.7-5.3s-4.1,1.4-4.1,2.8,1.1,4.4,9.6,7.9,22,10.4,22,25.2C216.4,863.3,206.6,875.1,190.1,875.1Zm85.3-61.3a4.3,4.3,0,0,1-4.3,4.1H245.3v8h20.8a4.3,4.3,0,0,1,4.3,4.3h0v11a4.3,4.3,0,0,1-4.3,4.3H245.3v9.2h25.8a4.3,4.3,0,0,1,4.3,4.1v11.1a4.3,4.3,0,0,1-4.3,4.2H229a4.2,4.2,0,0,1-4.2-4.2V802.6a4.1,4.1,0,0,1,4.2-4.1h42.1a4.3,4.3,0,0,1,4.3,4.1Zm80.8,58.5a4.7,4.7,0,0,1-3.7,1.8H341.2a5.3,5.3,0,0,1-5.5-3.8l-3.1-6.8H308l-3.2,6.8a6.1,6.1,0,0,1-5.6,3.8H288a4.5,4.5,0,0,1-3.6-1.8,4.3,4.3,0,0,1-.2-4l31.7-68.5a4.9,4.9,0,0,1,3.9-2.3h1a4.7,4.7,0,0,1,3.8,2.3l31.7,68.5a4.3,4.3,0,0,1-.1,4Zm63.3-18a19,19,0,0,0,12.1-4.3,4.4,4.4,0,0,1,5.9.3l7.8,8.3a3.8,3.8,0,0,1,1.1,3,4.6,4.6,0,0,1-1.1,3h-.2a36.9,36.9,0,0,1-26.3,10.5,38.9,38.9,0,1,1-5-77.6,41.7,41.7,0,0,1,5,0,36.4,36.4,0,0,1,26.1,9.9,3.8,3.8,0,0,1,1.5,3,4.2,4.2,0,0,1-1.1,3.2l-8,8.1a4,4,0,0,1-5.6.2h-.1a18.9,18.9,0,0,0-12.1-4.6c-10,0-17.6,8.3-17.6,18.7a17.8,17.8,0,0,0,17.3,18.3Zm68.3,20.8A38.4,38.4,0,0,1,449.1,837v-.6a38.9,38.9,0,1,1,39.1,38.7Zm125.9-2.5a4.3,4.3,0,0,1-3.3,1.5h-12a4.5,4.5,0,0,1-4.2-3.7l-3.5-24.6-13.9,27a4.4,4.4,0,0,1-3.8,2.3h-1.9a4.3,4.3,0,0,1-3.6-2.3l-14.2-27-3.5,24.6a4.3,4.3,0,0,1-4.1,3.7h-12a4.1,4.1,0,0,1-3.3-1.5,3.3,3.3,0,0,1-.8-3.3L541,801a4.1,4.1,0,0,1,4-3.5h1.7a4.1,4.1,0,0,1,3.6,2.1L572.1,840l21.6-40.4a4.4,4.4,0,0,1,3.7-2.1h1.7a4.5,4.5,0,0,1,4.1,3.6l11.5,68.2a4,4,0,0,1-1,3.3Zm42.4,2.5A38.5,38.5,0,0,1,617.3,837v-.6a38.9,38.9,0,1,1,39.1,38.7Zm88.2,0c-14.7,0-22.4-6.5-24.4-8.5a4.1,4.1,0,0,1-1-5.6l4.8-8.3a4.9,4.9,0,0,1,6.7-1.6l.5.4c6.1,4,10.3,5,12.8,5s4.6-1.7,4.6-3.8c0-4.7-6.8-7.4-8.9-8.2-13.7-5.5-21.2-14.1-21.2-24.6s8.9-22.4,25.7-22.4a39.5,39.5,0,0,1,23.1,7.9,4.9,4.9,0,0,1,1.1,6.4l-5.1,7.8a5.9,5.9,0,0,1-4.5,2.6,3.3,3.3,0,0,1-2.2-.6l-.6-.4c-5.4-3.6-9.5-5.3-12.7-5.3s-4,1.4-4,2.8,1.2,4.4,9.7,7.9,21.9,10.4,21.9,25.2c0,11.5-9.8,23.3-26.3,23.3Zm85-61.3a4.1,4.1,0,0,1-4.2,4.1H799.2v8h21a4.3,4.3,0,0,1,4.1,4.3v11a4.3,4.3,0,0,1-4.1,4.3h-21v9.2h25.9a4.1,4.1,0,0,1,4.2,4.1v11.1a4.2,4.2,0,0,1-4.2,4.2h-42a4.2,4.2,0,0,1-4.2-4.2V802.6a4.1,4.1,0,0,1,4.2-4.1h42a4.1,4.1,0,0,1,4.2,4.1Zm44.6,61.3A38.4,38.4,0,0,1,835.1,837v-.6a38.9,38.9,0,1,1,39.1,38.7Z"/><path d="M873.9,816.9a19.6,19.6,0,0,0-19.3,19.5A19.5,19.5,0,1,0,874,816.9Z"/><path d="M895.8,424.6A132.5,132.5,0,0,0,799.9,384a128.5,128.5,0,0,0-67.5,18.5,230.6,230.6,0,0,0,1.5-26.3c.5-107.7-86.3-195.4-194-196h-2c-107.7,0-195,87.3-195,195v1a230.6,230.6,0,0,0,1.5,26.3A130.6,130.6,0,0,0,276.9,384,132.2,132.2,0,0,0,181,424.6C162,444,139.4,479.3,139.4,536c0,53.8,22.9,96.9,42.1,123.3a57.4,57.4,0,0,0,47.8,25,61,61,0,0,0,29.8-7.7l2.6-1.7,34.6-22.7a69.3,69.3,0,0,0,14-12.5l3.3,3.8c28.1,31.6,64.4,48.4,104.9,48.4,48.7,0,94.6-27.6,119.9-71.3,25.2,43.7,71.1,71.3,119.8,71.3,40.6,0,76.8-16.8,104.9-48.4,1.2-1.3,2.2-2.6,3.4-3.8A62.6,62.6,0,0,0,780.4,652L815,674.9l2.7,1.7a60.6,60.6,0,0,0,29.7,7.7,56.9,56.9,0,0,0,47.7-24.8c19.3-26.6,42.3-69.7,42.3-123.5C937.4,479.3,914.7,444,895.8,424.6ZM538.4,446.2a224.5,224.5,0,0,0-26.1-43.7c-4.8-5.5-8.2-15.3-8.2-23.8,0-18.5,14.8-32.6,34.1-33.1a33.1,33.1,0,0,1,34.4,33.1c0,8.5-3.3,18.1-8.1,23.8C564.3,402.6,551,418.9,538.4,446.2ZM861.4,636c-2.8,4.7-7.8,7.2-14,7.2a21,21,0,0,1-9.5-2.2l-35-23.2a23.3,23.3,0,0,1-9.8-14.7,13.4,13.4,0,0,1,2-10.1l2.1-3.2C803,581,821,554.1,821,532.3c0-13-8.3-21.6-16.1-21.6s-21.6,5.3-37.6,44.9c-9.3,23.4-37.9,95.2-109.1,95.2-49.2,0-100-42.4-100-113.2,0-60.6,37-107.9,37.4-108.4,11.1-12.9,18.1-32.4,18.1-50.5,0-41.1-33.1-73.5-75.5-74.1s-75.1,33-75.1,74.1c0,18.1,6.8,37.6,17.9,50.5.5.5,37.6,47.8,37.6,108.4,0,70.8-50.9,113.2-100.1,113.2-71.1,0-99.7-71.8-109-95.2-16.2-39.6-27.5-44.9-37.6-44.9s-16.1,8.6-16.1,21.6c0,21.8,17.9,48.7,23.7,57.5l2.2,3.2a14.3,14.3,0,0,1,2,10.1,23.4,23.4,0,0,1-10,14.7l-34.6,22.9a19.6,19.6,0,0,1-9.8,2.5c-6.1,0-11.1-2.5-13.9-7.2-13.2-17.9-34.9-54.6-34.9-100,0-72.8,48.5-110.9,96.4-110.9,57.5,0,89.4,49.9,105.9,91.6,14.9,37.9,29.6,42.2,39.2,42.2s20.3-10,20.3-24.4c0-10.8-3.5-23.5-10.3-37.6l-17.3-27.6c-21-26.9-30.8-56.5-30.8-93.1,0-85.4,69-154.9,154-154.9h.8c85.1,0,154.1,69.5,154.1,154.9,0,36.6-9.8,66.2-30.7,93.1l-17.3,27.6c-6.8,14.3-10.5,26.9-10.5,37.6,0,14.4,8.5,24.4,20.4,24.4s24.2-4.3,39.3-42.2c16.4-41.7,48.2-91.6,105.9-91.6,47.9,0,96.4,38.1,96.4,110.9C896.3,581.4,874.5,618.1,861.4,636Z"/></g></svg>