<svg xmlns="http://www.w3.org/2000/svg" viewBox="0 0 1856 512"><polygon fill="#fca326" points="1186 0 0 0 0 512 950.3 512 1186 0"/><polygon fill="#5fceb3" points="1186 0 950.3 512 1856 512 1856 0 1186 0"/><g fill="#fff"><path d="M610.3,210.4a111.9,111.9,0,0,0-59.1,16.2,195.8,195.8,0,0,0,1.3-23C553.1,109.4,477,32.5,382.7,32h-1.8A169.5,169.5,0,0,0,259.8,82.3c-32.1,32.3-49.7,75.4-49.7,121.3a195.9,195.9,0,0,0,1.4,23,111.9,111.9,0,0,0-59.1-16.2,116.1,116.1,0,0,0-84,35.5C51.8,263,32,293.8,32,343.4c0,47.4,20.1,85,36.8,108.1a50.2,50.2,0,0,0,41.9,21.8,53.9,53.9,0,0,0,26.1-6.7l2.4-1.5,30.2-19.9a55.6,55.6,0,0,0,12.2-11l2.9,3.4c24.6,27.7,56.4,42.4,91.8,42.4,42.8,0,82.9-24.1,105-62.5,22.2,38.4,62.3,62.5,105,62.5,35.5,0,67.3-14.7,91.9-42.4l2.9-3.4a60.2,60.2,0,0,0,12.1,11l30.3,19.9,2.4,1.5a52.6,52.6,0,0,0,26,6.8c17.1,0,32.8-8.3,41.8-21.7,16.9-23.3,37-61,37-108.3,0-49.6-19.9-80.4-36.5-97.5A116.1,116.1,0,0,0,610.3,210.4ZM358.5,226.6c-4.2-4.9-7.2-13.5-7.2-20.9,0-16,12.9-28.4,29.9-28.9a29,29,0,0,1,30.1,27.8h0v1.1c0,7.4-2.9,16-7.1,20.9-.2.2-11.9,14.4-22.9,38.3C370.4,241.3,358.6,226.8,358.5,226.6ZM664.1,431.2c-2.5,3.9-6.8,6.2-12.2,6.2a16.2,16.2,0,0,1-8.3-2l-30.7-20.3a20.7,20.7,0,0,1-8.6-12.9,12.1,12.1,0,0,1,1.8-8.7,19.8,19.8,0,0,1,1.8-2.8c5.2-7.7,20.9-31.4,20.9-50.4,0-11.4-7.3-19-14.2-19-8.8,0-18.8,4.8-32.8,39.4-8.2,20.5-33.2,83.3-95.5,83.3-43.1,0-87.6-37-87.6-99,0-53.2,32.4-94.6,32.7-94.9,9.8-11.4,15.9-28.4,15.9-44.4,0-35.8-29-64.3-66.1-64.8a64.7,64.7,0,0,0-65.9,63.3h0v1.5c0,16,6.1,33,15.9,44.4.3.3,32.8,41.7,32.8,94.9,0,62-44.6,99-87.7,99-62.3,0-87.2-62.8-95.5-83.4-14-34.5-23.9-39.3-32.8-39.3-6.8,0-14.2,7.6-14.2,19,0,19,15.8,42.7,21,50.4l1.7,2.8a11.2,11.2,0,0,1,1.8,8.7,20.7,20.7,0,0,1-8.6,12.9l-30.4,20.1a17.2,17.2,0,0,1-8.6,2.2c-5.3,0-9.8-2.3-12.2-6.2C87,415.4,68,383.3,68,343.4c0-63.7,42.4-97.1,84.4-97.1,50.4,0,78.2,43.7,92.7,80.3,13.2,33.1,25.9,36.9,34.4,36.9,10.4,0,17.8-8.7,17.8-21.2,0-9.5-3.1-20.6-9.2-33l-15-24.1c-18.4-23.7-27.1-49.6-27.1-81.6C246,128.8,306.6,68,380.9,68h.7c74.5,0,135,60.8,135,135.6,0,32-8.6,57.9-27.1,81.5l-15,24.3c-6.1,12.3-9.1,23.4-9.1,32.9,0,12.5,7.2,21.2,17.7,21.2,8.5,0,21.3-3.8,34.4-36.9,14.5-36.6,42.4-80.3,92.8-80.3,41.9,0,84.4,33.4,84.4,97.1C694.7,383.3,675.6,415.4,664.1,431.2Z"/><path d="M1238.5,177.8c-13.7,0-25.2,11.7-25.2,25.4a25.3,25.3,0,1,0,25.2-25.4Z"/><path d="M1021.2,195.3a1.1,1.1,0,0,0-1.1-.6,1.2,1.2,0,0,0-1.3.6l-10,21.8a1.3,1.3,0,0,0,.1,1.2,1.1,1.1,0,0,0,1,.6h20.2a1.1,1.1,0,0,0,1.1-.6,1.3,1.3,0,0,0,0-1.2Z"/><path d="M1457.6,177.8c-13.6,0-25.2,11.7-25.2,25.4a25.3,25.3,0,1,0,25.2-25.4Z"/><path d="M1741.3,120.5a81.9,81.9,0,0,0-39.4,10.1,37.5,37.5,0,0,0-24.1-8.8H1623a36.4,36.4,0,0,0-19.3,5.3,78.7,78.7,0,0,0-31.7-6.6c-25.1,0-43.5,11-54.2,26.1a82.3,82.3,0,0,0-105.6-12.5,36.8,36.8,0,0,0-28.9-13.6h-2.1a37.9,37.9,0,0,0-33.1,19.6,37.9,37.9,0,0,0-33.1-19.6h-2.1a36.5,36.5,0,0,0-29,13.7,81.9,81.9,0,0,0-90.2-.5c-13.2-8.9-28-13.2-45.1-13.2a82.7,82.7,0,0,0-78.1,55.4l-15.8-33.7-.5-1.1a37.7,37.7,0,0,0-33.5-20.6h-1.3a37.5,37.5,0,0,0-32.2,18.1A37.3,37.3,0,0,0,956,121.8H901.2a38.1,38.1,0,0,0-19.4,5.4,77.2,77.2,0,0,0-31.8-6.7c-42.6,0-65.6,31.6-65.6,61.3a57.5,57.5,0,0,0,8.9,31.3l-3.6,6.4c-8.9,15.4-6.4,32.9,6.3,45.7,6.1,6.2,23.8,20.6,54.6,20.6a70.6,70.6,0,0,0,30.9-7.1,36.1,36.1,0,0,0,19.7,5.6H956a36.8,36.8,0,0,0,10.9-1.5,33.6,33.6,0,0,0,11,1.5h14.6a38.7,38.7,0,0,0,27.5-10.8,38.1,38.1,0,0,0,27.4,10.8h14.7a36.8,36.8,0,0,0,31.6-17.2,4.2,4.2,0,0,0,.9-1.4,82.7,82.7,0,0,0,98.9,6.7,82.3,82.3,0,0,0,82,4.5,36.6,36.6,0,0,0,22.5,7.4h15.7a34.9,34.9,0,0,0,15.2-3.2,35.6,35.6,0,0,0,18.1,4.6h2.2a35.5,35.5,0,0,0,18-4.6,35,35,0,0,0,15.3,3.2h15.6a36.2,36.2,0,0,0,22.5-7.4,82.4,82.4,0,0,0,94.6-14.7l2.7,3c6.2,6.2,23.8,20.6,54.6,20.6a71.2,71.2,0,0,0,30.8-7,36,36,0,0,0,19.7,5.5h54.8a36.7,36.7,0,0,0,24.1-8.6,82.6,82.6,0,1,0,39.4-155.2ZM850.6,253.6c-19.4,0-29.3-8.5-31.9-11s-3.1-3.7-1.1-7.3l6.2-11c1.7-2.8,5.8-3.7,9.2-1.5,8,5.4,13.5,6.6,16.6,6.6s6.1-2,6.1-5c0-5.9-8.8-9.5-11.6-10.7-17.8-7-27.6-18.3-27.6-31.9S828,152.5,850,152.5c12.9,0,23.5,5.7,30.1,10.6,3.2,2,2.6,6.2,1.5,8.1l-6.7,10.2a7.4,7.4,0,0,1-6,3.4,4.7,4.7,0,0,1-2.8-.9l-.7-.4c-7-4.7-12.4-6.9-16.4-6.9s-5.3,1.7-5.3,3.7,1.4,5.7,12.5,10.2,28.6,13.5,28.6,32.8C884.8,238.2,872,253.6,850.6,253.6Zm110.8-79.9a5.5,5.5,0,0,1-5.4,5.5H922.3v10.5h27.2a5.5,5.5,0,0,1,5.5,5.4v14.4a5.5,5.5,0,0,1-5.5,5.6H922.3v11.8H956a5.6,5.6,0,0,1,5.4,5.6v14.4a5.4,5.4,0,0,1-5.4,5.4H901.2a5.5,5.5,0,0,1-5.5-5.4V159.3a5.5,5.5,0,0,1,5.5-5.5H956a5.5,5.5,0,0,1,5.4,5.5Zm105.4,76.2a5.8,5.8,0,0,1-4.7,2.4h-14.7c-4.1,0-5.9-2-7.3-5l-4-8.7H1004l-4,8.7a7.8,7.8,0,0,1-7.5,5H978a5.2,5.2,0,0,1-5.5-4.9h0a5.2,5.2,0,0,1,.5-2.7l41.5-89a5.2,5.2,0,0,1,4.9-3.1h1.3a5.4,5.4,0,0,1,4.9,3.1l41.4,89A5.8,5.8,0,0,1,1066.8,249.9Zm117.7-13.7a5.8,5.8,0,0,1-1.7,3.8,48.1,48.1,0,0,1-34.2,13.6,50.6,50.6,0,1,1,0-101.1h0c13.4,0,24.1,4.2,34,13a5.7,5.7,0,0,1,1.9,4.1,5.3,5.3,0,0,1-1.6,3.9l-10.3,10.7a5.6,5.6,0,0,1-7.6,0,24.6,24.6,0,0,0-15.8-5.8c-12.9,0-22.9,10.7-22.9,24.2s10.1,24,23.1,24a24.4,24.4,0,0,0,15.7-5.7c2.2-1.8,6-1.6,7.6.4l10.3,11A5.2,5.2,0,0,1,1184.5,236.2Zm54.1,17.4h-.1c-28.3,0-50.4-22.1-50.4-50.4a50.5,50.5,0,1,1,50.5,50.4Zm163.7-3.2a5.1,5.1,0,0,1-4.2,1.9h-15.6a5.5,5.5,0,0,1-5.5-4.7l-4.7-32.1-18.2,35.1a5.5,5.5,0,0,1-4.9,3H1347a5.5,5.5,0,0,1-4.9-3l-18.3-35.1-4.7,32.1a5.5,5.5,0,0,1-5.4,4.7h-15.6a5.4,5.4,0,0,1-5.6-5.2,4.9,4.9,0,0,1,.1-1.2l15-88.7a5.3,5.3,0,0,1,5.3-4.7h2.1a5.8,5.8,0,0,1,4.8,3l28.3,52.5,28.2-52.5a5.6,5.6,0,0,1,4.9-3h2.1a5.4,5.4,0,0,1,5.3,4.7l15,88.7a5.6,5.6,0,0,1-1.3,4.5Zm55.4,3.2h-.1c-28.3,0-50.4-22.1-50.4-50.4a50.4,50.4,0,0,1,50-50.7h.4a50.6,50.6,0,1,1,.1,101.1Zm114.8,0c-19.3,0-29.2-8.5-31.9-11s-3.2-3.7-1.1-7.3l6.3-11c1.7-2.8,5.7-3.7,9.1-1.5,8.1,5.4,13.5,6.6,16.8,6.6s6.1-2,6.1-5c0-5.9-8.9-9.5-11.8-10.7-17.8-7-27.5-18.3-27.5-31.9s11.5-29.3,33.5-29.3c13,0,23.5,5.7,30.1,10.6,3.2,2,2.5,6.2,1.6,8l-6.9,10.3a7.5,7.5,0,0,1-5.9,3.4,4.7,4.7,0,0,1-2.8-.9l-.8-.4c-6.9-4.7-12.2-6.9-16.4-6.9s-5.4,1.7-5.4,3.7,1.5,5.7,12.6,10.2,28.6,13.5,28.6,32.8C1606.7,238.2,1593.9,253.6,1572.5,253.6Zm110.7-79.9a5.5,5.5,0,0,1-5.4,5.5h-33.7v10.5h27.2a5.5,5.5,0,0,1,5.5,5.4v14.4a5.8,5.8,0,0,1-5.5,5.6h-27.2v11.8h33.7a5.6,5.6,0,0,1,5.4,5.6v14.4a5.4,5.4,0,0,1-5.4,5.4H1623a5.5,5.5,0,0,1-5.5-5.4V159.3a5.5,5.5,0,0,1,5.5-5.5h54.8a5.5,5.5,0,0,1,5.4,5.5Zm58.5,79.9h-.4a49.9,49.9,0,0,1-50.4-50.4,50.6,50.6,0,1,1,50.8,50.4Z"/><path d="M1741.3,177.8c-13.5,0-25.1,11.7-25.1,25.4a25.3,25.3,0,0,0,50.5,0A25.6,25.6,0,0,0,1741.3,177.8Z"/><path d="M798,342.1H784.4V382h13.3c10.9,0,16.5-6.9,16.5-20.9,0-6.1-1.3-10.9-3.7-14.2S803.8,342.1,798,342.1Zm3.9,28.3h0c-.7,1.5-2.1,2.3-4.5,2.3h-2.1v-21h2.1c2.3,0,3.7.8,4.5,2.4a27.1,27.1,0,0,1,1.1,8A26,26,0,0,1,801.9,370.4Z"/><rect x="817.7" y="351.5" width="10.8" height="30.54"/><path d="M827.5,341.6a5.5,5.5,0,0,0-4.4-1.3,6.2,6.2,0,0,0-4.7,1.3,5.6,5.6,0,0,0-1.3,3.7,5.9,5.9,0,0,0,1.3,3.7,7.2,7.2,0,0,0,4.7,1.1,6.4,6.4,0,0,0,4.4-1.1,5.2,5.2,0,0,0,1.3-3.8A4.6,4.6,0,0,0,827.5,341.6Z"/><path d="M841.8,361.5c-.9-.4-1.4-.6-1.4-1.3s.4-1,1.3-1a53.2,53.2,0,0,1,8.9,1.4l1-8.9a43,43,0,0,0-10.1-1.3,11.3,11.3,0,0,0-7.9,2.6,8.8,8.8,0,0,0-2.8,7.3,9.3,9.3,0,0,0,2.5,7.1,25.9,25.9,0,0,0,8.4,4.7c1.1.4,1.4.7,1.4,1.4s-.6,1-1.8,1a39.7,39.7,0,0,1-8.3-1.8l-.8,8.7a38.3,38.3,0,0,0,10.1,1.3,11.1,11.1,0,0,0,7.5-2.5c1.7-1.6,2.5-4.1,2.5-7.2a9.5,9.5,0,0,0-2.6-7.2A26.4,26.4,0,0,0,841.8,361.5Z"/><path d="M867.7,350.4c-9.2,0-13.7,5.3-13.7,16.1,0,4.9,1.1,8.9,3.5,11.8s5.7,4.4,10.2,4.4a36.5,36.5,0,0,0,10.9-1.7l-1-8a46.8,46.8,0,0,1-8.3,1.6c-2.9,0-4.5-1.7-4.5-5h14.8c.3-4.1.4-6.4.4-6.9a13.8,13.8,0,0,0-2.9-9.1C875.2,351.5,872,350.4,867.7,350.4Zm2.6,13.7h-5.7a10.2,10.2,0,0,1,.6-3.4c.2-.8,1-1.2,2.2-1.2h0c1.9,0,2.9,1.1,2.9,3.2Z"/><path d="M898.5,339.5v2.2l-1.3-.4a28.5,28.5,0,0,0-5.8-1.2,4.4,4.4,0,0,0-4.3,2.1,12.4,12.4,0,0,0-1.1,6.3v.6h7v-2.2l1.6.5a14.3,14.3,0,0,0,5,.9c2.4,0,4-.6,4.8-2.1a12,12,0,0,0,1.1-6.2v-.5Z"/><path d="M901.7,350.4a11.6,11.6,0,0,0-7.7,3h-.3l-.7-2.2h-9.8V382H894V361.3a4.7,4.7,0,0,1,3-1c1,0,1.5.5,1.5,1.6V382h10.9V358.3a9.3,9.3,0,0,0-1.6-6C906.6,351.1,904.6,350.4,901.7,350.4Z"/><path d="M926.4,350.4c-4.7,0-7.9,1.2-10.1,3.8s-3.4,6.6-3.4,12.3,1.3,9.8,3.4,12.4,5.4,3.8,10.1,3.8,8.2-1.2,10.2-3.8,3-6.6,3-12.4-1-9.9-3.1-12.4S931.1,350.4,926.4,350.4Zm1.9,22.8a1.7,1.7,0,0,1-2,1.5,2.3,2.3,0,0,1-2.1-1.5,27.8,27.8,0,0,1-.4-5.8v-1.6a25.5,25.5,0,0,1,.4-5.5,2.2,2.2,0,0,1,2.2-1.2,2,2,0,0,1,2.1,1.2h0a20.4,20.4,0,0,1,.4,5.5v1.9A12.6,12.6,0,0,1,928.3,373.2Z"/><path d="M982.4,372.6V340.8H971.7V352a9.4,9.4,0,0,0-12.9,2.4c-1.7,2.8-2.6,6.9-2.6,12.2s.8,9.2,2.3,12,4.3,4.1,8.2,4.1a6.8,6.8,0,0,0,6.4-3.3h.5c.6,2.3,2.7,3.3,5.9,3.3l4.4-.3,1-7.7a4.6,4.6,0,0,1-2-.5A2.8,2.8,0,0,1,982.4,372.6ZM972,373.7a6,6,0,0,1-2.4.5,2.8,2.8,0,0,1-1.5-.4,2.5,2.5,0,0,1-.6-1.6,7.9,7.9,0,0,1-.5-2.2v-4.2a18.3,18.3,0,0,1,.5-4.7c.3-1.1.8-1.7,1.7-1.7a5.4,5.4,0,0,1,2.8.8Z"/><path d="M1000.4,350.4c-9.1,0-13.5,5.3-13.5,16.1,0,4.9,1.1,8.9,3.5,11.8s5.8,4.4,10.1,4.4a36.5,36.5,0,0,0,10.9-1.7l-.9-8a46.2,46.2,0,0,1-8.4,1.6c-3,0-4.4-1.7-4.4-5h14.7c.3-4.1.5-6.4.5-6.9a13.8,13.8,0,0,0-2.9-9.1C1008.1,351.5,1004.9,350.4,1000.4,350.4Zm2.8,12.3v1.4h-5.6a6.7,6.7,0,0,1,.5-3.4,2.1,2.1,0,0,1,2.1-1.2h.8A2.7,2.7,0,0,1,1003.2,362.7Z"/><path d="M1043.4,342.1h-13V382h10.7V369h2.9c4.5,0,7.7-1.3,9.8-3.2s3.2-5.5,3.2-10.3-1.3-8.3-3.4-10.3S1048,342.1,1043.4,342.1Zm1.9,18.1a2.4,2.4,0,0,1-2.4,1.2h-1.8V351.2h1.5a2.6,2.6,0,0,1,2.6,1.1,7.9,7.9,0,0,1,.7,4A8.6,8.6,0,0,1,1045.3,360.2Z"/><path d="M1082.3,372.6l.2-13.4c0-3-.6-5.3-2.1-6.7s-4-2.1-7.7-2.1a63.9,63.9,0,0,0-13.8,2.1l1.7,9.4a46.2,46.2,0,0,1,9.7-1.9h.6a1.8,1.8,0,0,1,1.2,1.9v1.5c-4.8.5-8.4,1.2-10.6,2.7s-3.2,3.9-3.2,7.4a9.7,9.7,0,0,0,2.1,6.8,7.1,7.1,0,0,0,5.7,2.4,8.5,8.5,0,0,0,7.4-3.3h.3c.9,2.2,2.9,3.3,6.2,3.3l4-.3,1.1-7.7a3.6,3.6,0,0,1-2.1-.5C1082.4,374,1082.3,373.4,1082.3,372.6Zm-9.8,0c0,1.7-.7,2.5-2.3,2.5h0c-1.3,0-2-.8-2-2.4a2.4,2.4,0,0,1,.9-2.2,7.9,7.9,0,0,1,3.4-1Z"/><polygon points="1080.7 339.5 1070.4 339.5 1066.3 348.5 1073.8 348.5 1080.7 339.5"/><path d="M1090.4,353.1a9.2,9.2,0,0,0-3.2,7.9,11.1,11.1,0,0,0,1.1,5.9,11.6,11.6,0,0,0,3.4,3.9c-3.3,1.3-5,3.2-5,5.9a5.6,5.6,0,0,0,3.2,5v.2a3.8,3.8,0,0,0-2.5,3.3,4.9,4.9,0,0,0,3.1,5,23.5,23.5,0,0,0,9.5,1.3,17.6,17.6,0,0,0,9.8-2.3c2.4-1.6,3.5-3.4,3.5-7.7s-2.4-6.4-7.4-6.4h-8.8c-.8,0-1-.3-1-1.1h0a.9.9,0,0,1,1-.9h3.2c7.9,0,11.7-3.5,11.7-10.3a6,6,0,0,0-2-4.7v-.4h4.5v-7.2h-15.1A13.9,13.9,0,0,0,1090.4,353.1Zm6.4,29.6h6.6q1.2,0,1.2.9v.5a1,1,0,0,1-1.2.8h-6.6c-.7,0-1.1-.3-1.1-1v-.2C1095.7,383,1096.1,382.7,1096.8,382.7Zm5-22.9a10.5,10.5,0,0,1,.5,3c0,2.5-.8,3.8-2.3,3.8s-2.3-1.3-2.3-3.9a5.8,5.8,0,0,1,.5-2.9,1.6,1.6,0,0,1,1.7-1A2.1,2.1,0,0,1,1101.8,359.8Z"/><rect x="1116.7" y="351.5" width="10.6" height="30.54"/><path d="M1126.4,341.6a8,8,0,0,0-8.9,0,5.1,5.1,0,0,0-1.3,3.7,5,5,0,0,0,1.3,3.7,9.4,9.4,0,0,0,8.9,0,4.9,4.9,0,0,0,1.4-3.8A4.3,4.3,0,0,0,1126.4,341.6Z"/><path d="M1150.1,350.4a11.6,11.6,0,0,0-7.9,3h-.3l-.6-2.2h-10V382h10.9V361.3a5,5,0,0,1,3.1-1c.9,0,1.4.5,1.4,1.6V382h10.9V358.3a8.8,8.8,0,0,0-1.7-6C1154.9,351.1,1152.8,350.4,1150.1,350.4Z"/><path d="M1184.5,372.6l.2-13.4c0-3-.4-5.3-2-6.7s-4.1-2.1-7.7-2.1a52.9,52.9,0,0,0-13.7,2.1l1.5,9.4a46.2,46.2,0,0,1,9.7-1.9h.6a1.6,1.6,0,0,1,1.2,1.9v1.5c-4.8.5-8.1,1.2-10.4,2.7s-3.4,3.9-3.4,7.4a9.7,9.7,0,0,0,2.1,6.8,7.1,7.1,0,0,0,5.7,2.4c3.4,0,5.9-1,7.5-3.3h.2c.9,2.2,2.9,3.3,6.2,3.3l4-.3,1.1-7.7a3.6,3.6,0,0,1-2.1-.5A2,2,0,0,1,1184.5,372.6Zm-9.8,0c0,1.7-.7,2.5-2.3,2.5s-2-.8-2-2.4a2.4,2.4,0,0,1,.9-2.2,8.3,8.3,0,0,1,3.4-1Z"/><path d="M1206.9,365.8a27.7,27.7,0,0,0-7.7-4.3c-1-.4-1.5-.7-1.5-1.3s.4-1,1.3-1a53.2,53.2,0,0,1,8.9,1.4l1-8.9a43.9,43.9,0,0,0-10.2-1.3c-3.4,0-6,.8-7.8,2.6a9.6,9.6,0,0,0-2.9,7.3c0,3.1.8,5.5,2.7,7.1a23.5,23.5,0,0,0,8.3,4.7c.9.4,1.4.7,1.4,1.4s-.6,1-1.9,1a40.6,40.6,0,0,1-8.4-1.8l-.7,8.7a38.3,38.3,0,0,0,10.1,1.3c3.4,0,5.9-.8,7.6-2.5a9.7,9.7,0,0,0,2.5-7.2A9.6,9.6,0,0,0,1206.9,365.8Z"/><polygon points="1254.6 363.2 1253.9 363.2 1251 342.1 1240.2 342.1 1237.5 363.2 1236.9 363.2 1235.1 342.1 1224.5 342.1 1228.7 382 1242.2 382 1245.1 364.2 1245.6 364.2 1249.1 382 1262.3 382 1265.9 342.1 1255.8 342.1 1254.6 363.2"/><path d="M1282.4,350.4c-9.1,0-13.7,5.3-13.7,16.1,0,4.9,1.2,8.9,3.5,11.8s5.8,4.4,10.2,4.4a35.9,35.9,0,0,0,10.8-1.7l-.9-8a46.2,46.2,0,0,1-8.4,1.6c-2.8,0-4.3-1.7-4.3-5h14.7c.2-4.1.4-6.4.4-6.9,0-3.9-1-7-2.9-9.1S1286.7,350.4,1282.4,350.4Zm2.6,13.7h-5.6a8,8,0,0,1,.5-3.4,2.2,2.2,0,0,1,2.2-1.2c1.8,0,2.9,1.1,2.9,3.2Z"/><path d="M1314.2,350.4a9.3,9.3,0,0,0-5.4,1.4h-.3v-11h-10.8V382h8.5l.6-1.8h.2c1.4,1.7,2.8,2.5,6.9,2.5s6.8-1.4,8.2-4.1,2.2-6.8,2.2-12.5-.6-9.8-2.1-12.2S1318.3,350.4,1314.2,350.4Zm-.8,15.6c0,2-.1,3.3-.1,4.1a9,9,0,0,1-.2,2.3,2,2,0,0,1-.1.7,1.9,1.9,0,0,1-2.3,1.2,5.9,5.9,0,0,1-2.3-.5V360.3a8.3,8.3,0,0,1,2.8-.8,1.9,1.9,0,0,1,1.7,1.8A14.8,14.8,0,0,1,1313.4,366Z"/><path d="M1354.8,359.8a21.1,21.1,0,0,1,5.6,1.5l1.2-9.3a21.7,21.7,0,0,0-8.4-1.6,10.9,10.9,0,0,0-9.2,4.6,21.3,21.3,0,0,0-3.3,12c0,4.9,1.1,8.8,3.2,11.6s5.2,4.1,9.3,4.1a26.3,26.3,0,0,0,7.9-1.5L1360,373a43.4,43.4,0,0,1-5.2.7,2.6,2.6,0,0,1-2.6-1.6,15.4,15.4,0,0,1-.6-5.2,16.6,16.6,0,0,1,.6-5.4A2.6,2.6,0,0,1,1354.8,359.8Z"/><path d="M1376.5,350.4c-4.7,0-7.9,1.2-10.1,3.8s-3.4,6.6-3.4,12.3,1,9.8,3.2,12.4,5.6,3.8,10.3,3.8,8-1.2,10.1-3.8,3.1-6.6,3.1-12.4-1-9.9-3.1-12.4S1381.2,350.4,1376.5,350.4Zm1.9,22.8a1.9,1.9,0,0,1-2.1,1.5,1.8,1.8,0,0,1-2-1.5,27.8,27.8,0,0,1-.4-5.8v-1.6a25.5,25.5,0,0,1,.4-5.5,2,2,0,0,1,2-1.2,1.7,1.7,0,0,1,2.1,1.2,14.8,14.8,0,0,1,.6,5.5v1.9A16.9,16.9,0,0,1,1378.4,373.2Z"/><path d="M1411.6,350.4a11.9,11.9,0,0,0-7.8,3h-.2l-.7-2.2h-9.8V382h10.8V361.3a5,5,0,0,1,3.1-1c.8,0,1.4.5,1.4,1.6V382h10.9V358.3a8.8,8.8,0,0,0-1.7-6C1416.4,351.1,1414.5,350.4,1411.6,350.4Z"/><path d="M1450.8,342.1h-13.2V382h10.8V369h3c4.5,0,7.7-1.3,9.8-3.2s3.2-5.5,3.2-10.3-1.3-8.3-3.4-10.3S1455.4,342.1,1450.8,342.1Zm1.8,18.1a2.4,2.4,0,0,1-2.3,1.2h-1.9V351.2h1.6a2.6,2.6,0,0,1,2.6,1.1,9.2,9.2,0,0,1,.7,4A7.5,7.5,0,0,1,1452.6,360.2Z"/><path d="M1479.7,350.4c-4.7,0-8.1,1.2-10.3,3.8s-3.2,6.6-3.2,12.3,1,9.8,3.2,12.4,5.6,3.8,10.3,3.8,7.9-1.2,10-3.8,3.1-6.6,3.1-12.4-1.1-9.9-3.1-12.4S1484.4,350.4,1479.7,350.4Zm1.9,22.8a2.1,2.1,0,0,1-1.5,1.5,2.1,2.1,0,0,1-2.7-1.5,28.2,28.2,0,0,1-.3-5.8v-1.6a25.4,25.4,0,0,1,.3-5.5,2.1,2.1,0,0,1,2.1-1.2,1.8,1.8,0,0,1,2.1,1.2,20.5,20.5,0,0,1,.5,5.5v1.9A16.9,16.9,0,0,1,1481.6,373.2Z"/><path d="M1505.8,361.5c-1.1-.4-1.6-.6-1.6-1.3s.5-1,1.4-1a50.9,50.9,0,0,1,8.7,1.4l1.3-8.9a39.8,39.8,0,0,0-10.3-1.3,11.3,11.3,0,0,0-7.9,2.6,8.5,8.5,0,0,0-2.8,7.3,9.3,9.3,0,0,0,2.5,7.1,25.3,25.3,0,0,0,8.5,4.7c.9.4,1.3.7,1.3,1.4s-.5,1-1.8,1a40.6,40.6,0,0,1-8.4-1.8l-.7,8.7a38.3,38.3,0,0,0,10.1,1.3,10.6,10.6,0,0,0,7.4-2.5c1.8-1.6,2.6-4.1,2.6-7.2a9.9,9.9,0,0,0-2.6-7.2A25.4,25.4,0,0,0,1505.8,361.5Z"/><path d="M1528.2,341.6c-.7-1-2.3-1.3-4.4-1.3a5.7,5.7,0,0,0-4.5,1.3,5.1,5.1,0,0,0-1.3,3.7,4.5,4.5,0,0,0,1.3,3.7,6.5,6.5,0,0,0,4.5,1.1,6.4,6.4,0,0,0,4.4-1.1,4.9,4.9,0,0,0,1.4-3.8A4.3,4.3,0,0,0,1528.2,341.6Z"/><rect x="1518.5" y="351.5" width="10.6" height="30.54"/><path d="M1546.7,359.8a17.9,17.9,0,0,1,5.6,1.5l1.2-9.3a21,21,0,0,0-8.2-1.6,11.2,11.2,0,0,0-9.4,4.6,21.2,21.2,0,0,0-3.1,12,20.5,20.5,0,0,0,3.1,11.6c2,2.8,5.1,4.1,9.1,4.1a27,27,0,0,0,8-1.5l-1.1-8.2a46.3,46.3,0,0,1-5.2.7,2.6,2.6,0,0,1-2.6-1.6,15.3,15.3,0,0,1-.5-5.2,14.1,14.1,0,0,1,.7-5.4A2.3,2.3,0,0,1,1546.7,359.8Z"/><path d="M1565.5,341.6a5.7,5.7,0,0,0-4.5-1.3,6.1,6.1,0,0,0-4.5,1.3,5.1,5.1,0,0,0-1.3,3.7,5,5,0,0,0,1.3,3.7,9.8,9.8,0,0,0,9,0,4.8,4.8,0,0,0,1.3-3.8A4.3,4.3,0,0,0,1565.5,341.6Z"/><rect x="1555.7" y="351.5" width="10.6" height="30.54"/><path d="M1583.5,350.4c-4.8,0-8.1,1.2-10.3,3.8s-3.2,6.6-3.2,12.3.9,9.8,3.1,12.4,5.7,3.8,10.4,3.8,7.8-1.2,9.9-3.8,3.2-6.6,3.2-12.4-1.2-9.9-3.2-12.4S1588.2,350.4,1583.5,350.4Zm1.9,22.8a2.2,2.2,0,0,1-4.2,0,28.3,28.3,0,0,1-.4-5.8v-1.6a25.5,25.5,0,0,1,.4-5.5,2.1,2.1,0,0,1,2.1-1.2,1.8,1.8,0,0,1,2.1,1.2,20.5,20.5,0,0,1,.5,5.5v1.9A20.1,20.1,0,0,1,1585.4,373.2Z"/><path d="M1618.5,350.4a11.7,11.7,0,0,0-7.8,3h-.3l-.6-2.2H1600V382h10.8V361.3a4.9,4.9,0,0,1,3-1c1,0,1.5.5,1.5,1.6V382h10.9V358.3a8.6,8.6,0,0,0-1.7-6C1623.4,351.1,1621.4,350.4,1618.5,350.4Z"/><path d="M1653.1,372.6l.3-13.4a9.1,9.1,0,0,0-2.2-6.7c-1.5-1.4-4-2.1-7.7-2.1a53.6,53.6,0,0,0-13.8,2.1l1.8,9.4a45.3,45.3,0,0,1,9.6-1.9c1.2,0,1.7.6,1.7,1.9v1.5a26.7,26.7,0,0,0-10.4,2.7c-2.2,1.5-3.3,3.9-3.3,7.4a10.9,10.9,0,0,0,2,6.8,7.5,7.5,0,0,0,5.8,2.4c3.3,0,5.8-1,7.4-3.3h.3c.8,2.2,2.9,3.3,6.1,3.3l4.2-.3.8-7.7a4.1,4.1,0,0,1-2.1-.5A1.8,1.8,0,0,1,1653.1,372.6Zm-9.8,0c0,1.7-.8,2.5-2.4,2.5s-2-.8-2-2.4a2.3,2.3,0,0,1,1.1-2.2,7.5,7.5,0,0,1,3.3-1Z"/><path d="M1692.1,350.4a11.6,11.6,0,0,0-7.7,3l-.6.5c-1-2.4-3.1-3.5-6.4-3.5a12.6,12.6,0,0,0-8.4,3h-.2l-.6-2.2h-10V382H1669V361.3a4.7,4.7,0,0,1,3-1c1.1,0,1.5.5,1.5,1.6V382h10.9V361.3a5,5,0,0,1,3.1-1c1,0,1.4.5,1.4,1.6V382h10.9V358.3a9.3,9.3,0,0,0-1.6-6C1696.9,351.1,1695,350.4,1692.1,350.4Z"/><path d="M1713.7,341.6c-.8-1-2.3-1.3-4.4-1.3a5.7,5.7,0,0,0-4.5,1.3,5.1,5.1,0,0,0-1.3,3.7,4.5,4.5,0,0,0,1.3,3.7,6.5,6.5,0,0,0,4.5,1.1,6.4,6.4,0,0,0,4.4-1.1,4.9,4.9,0,0,0,1.4-3.8A4.3,4.3,0,0,0,1713.7,341.6Z"/><rect x="1704" y="351.5" width="10.6" height="30.54"/><path d="M1731.9,350.4c-9.2,0-13.6,5.3-13.6,16.1,0,4.9,1.1,8.9,3.5,11.8a12.5,12.5,0,0,0,10.1,4.4,36.5,36.5,0,0,0,10.9-1.7l-.9-8a46.2,46.2,0,0,1-8.4,1.6c-3,0-4.4-1.7-4.4-5h14.7c.3-4.1.4-6.4.4-6.9,0-3.9-1-7-2.8-9.1S1736.2,350.4,1731.9,350.4Zm2.7,12.3v1.4H1729a8,8,0,0,1,.5-3.4,2.1,2.1,0,0,1,2.1-1.2h.8A2.7,2.7,0,0,1,1734.6,362.7Z"/><path d="M1765.8,350.4a12.1,12.1,0,0,0-7.9,3h-.2l-.6-2.2h-9.8V382h10.8V361.3a4.7,4.7,0,0,1,3-1c.9,0,1.4.5,1.4,1.6V382h11V358.3a8.6,8.6,0,0,0-1.7-6C1770.6,351.1,1768.6,350.4,1765.8,350.4Z"/><path d="M1790,345.6h-9.8l-.7,5.9H1776v8h2.9v15.1c0,2.9.8,5,2.1,6.3a7.9,7.9,0,0,0,5.5,1.8,77,77,0,0,0,8.3-.5l.3-8.7-4,.3h-.3a1.3,1.3,0,0,1-1-1.4V359.5h5.3l.5-8H1790Z"/><path d="M1810.7,350.4c-4.5,0-8.2,1.2-10.2,3.8s-3.3,6.6-3.3,12.3,1.2,9.8,3.3,12.4,5.6,3.8,10.3,3.8,7.9-1.2,10.1-3.8,3.1-6.6,3.1-12.4-1-9.9-3.1-12.4S1815.2,350.4,1810.7,350.4Zm2.1,22.8a2.1,2.1,0,0,1-1.5,1.5,2.1,2.1,0,0,1-2.7-1.5,16.1,16.1,0,0,1-.5-5.8v-1.6a20.5,20.5,0,0,1,.5-5.5,2,2,0,0,1,2.1-1.2,1.8,1.8,0,0,1,2.1,1.2,25.5,25.5,0,0,1,.4,5.5v1.9A25,25,0,0,1,1812.8,373.2Z"/></g></svg>