<svg xmlns="http://www.w3.org/2000/svg" xmlns:xlink="http://www.w3.org/1999/xlink" viewBox="100 100 650 650" class="svg-src"><defs><linearGradient id="a" x1="650.34" y1="644.82" x2="650.34" y2="156.59" gradientUnits="userSpaceOnUse"><stop offset="0" stop-color="#ecd4b2"/><stop offset="0.14" stop-color="#d5a983"/><stop offset="0.15" stop-color="#d4a882"/><stop offset="0.3" stop-color="#c19676"/><stop offset="0.41" stop-color="#ba9071"/><stop offset="0.62" stop-color="#d9b08c"/><stop offset="0.84" stop-color="#d5a983"/><stop offset="0.88" stop-color="#d8ae88"/><stop offset="0.93" stop-color="#e0bc97"/><stop offset="0.98" stop-color="#edd4b0"/><stop offset="1" stop-color="#f3debb"/></linearGradient><linearGradient id="b" x1="365.92" y1="683.33" x2="365.92" y2="130.48" xlink:href="#a"/><linearGradient id="c" x1="420.27" y1="682.75" x2="420.27" y2="130.48" xlink:href="#a"/><linearGradient id="d" x1="300.7" y1="236.35" x2="539.85" y2="650.55" xlink:href="#a"/></defs><path fill="url(#a)" d="M652.2,364.6l1.2-1-4-4c-1.7.3-1.1,2.5-2.1,3.4l2.9,2.9c.6-.8,1.3-.8,2-1.1S652.2,364.7,652.2,364.6Z"/><path fill="url(#b)" d="M211.2,340.1c1.9-.5,2.6.4,4.6.4a14.2,14.2,0,0,0,1.2-1.3L420.3,136l96.6,96.6h.3a15,15,0,0,1,4.2-.9l-99.8-99.8-1.3-1.3L210.5,340.3Z"/><path fill="url(#c)" d="M662.2,372.4c-1,.1-.8.6-1.7,1.3s-.7.9-1,1.5l31.4,31.4L420.3,677.3,149.6,406.6l48.9-48.9a7.1,7.1,0,0,0-2.2-1.5l-1-.3-.3-.2-50.9,50.9L420.3,682.8,696.4,406.6Z"/><path fill="url(#d)" d="M421.6,168.7l-1.3-1.4L144.1,443.4,178,477.3c.1-.1.2-.2.2-.3s1-2.4,1.4-3.6l-30-30L420.3,172.8,690.9,443.4,420.3,714.1,308.8,602.6a18.5,18.5,0,0,0-2.8,2.8L420.3,719.6,696.4,443.4Z"/><g fill="#6d1d1d"><g opacity="0.4"><path opacity="0.4" d="M687.2,498.8a9.7,9.7,0,0,1,12.9-4.8,9.8,9.8,0,0,1,4.9,12.9,9.8,9.8,0,0,1-17.8-8.1Z"/><path opacity="0.4" d="M325.5,653.2a5,5,0,1,1-3.5,6.1A4.9,4.9,0,0,1,325.5,653.2Z"/><path opacity="0.4" d="M355.1,707.6a4.9,4.9,0,1,1-7-1A5.1,5.1,0,0,1,355.1,707.6Z"/><path opacity="0.4" d="M148.3,519.1a7.3,7.3,0,1,1,2.6,9.9A7.3,7.3,0,0,1,148.3,519.1Z"/><path opacity="0.4" d="M160.8,487.4a3,3,0,0,1-3.2,3,3.1,3.1,0,0,1-3-3.2,3.1,3.1,0,0,1,3.2-3A3,3,0,0,1,160.8,487.4Z"/><path opacity="0.4" d="M196.5,546.1a5,5,0,0,1,7.4-6.6,4.8,4.8,0,0,1-.4,7A4.9,4.9,0,0,1,196.5,546.1Z"/><path opacity="0.4" d="M637.2,564.2a4.8,4.8,0,1,1,6.7-1.3A4.8,4.8,0,0,1,637.2,564.2Z"/><path opacity="0.4" d="M682.2,549.8a4.8,4.8,0,1,1-2.1,6.5A4.9,4.9,0,0,1,682.2,549.8Z"/><path opacity="0.4" d="M669.3,500.3a3.2,3.2,0,0,1,4.2,1.4,3.2,3.2,0,0,1-1.4,4.2,3.1,3.1,0,0,1-2.8-5.6Z"/><path opacity="0.4" d="M595.7,263.6a8.7,8.7,0,1,1,11.2-5.4A8.7,8.7,0,0,1,595.7,263.6Z"/><path opacity="0.4" d="M502.6,166.8a8.8,8.8,0,0,1-7.1,10.1,8.7,8.7,0,1,1,7.1-10.1Z"/><path opacity="0.4" d="M560.3,266a4.3,4.3,0,1,1,5.8,2A4.4,4.4,0,0,1,560.3,266Z"/><path opacity="0.4" d="M550.1,146.5a6.4,6.4,0,0,1,9.3,8.7,6.4,6.4,0,1,1-9.3-8.7Z"/></g><path d="M618.6,547.1a2.4,2.4,0,0,1,2.1,4.3,2.4,2.4,0,0,1-3.2-1A2.5,2.5,0,0,1,618.6,547.1Z"/><path d="M699.5,479.6a3.1,3.1,0,0,1,4,1.8,3.2,3.2,0,0,1-1.8,4.1,3.1,3.1,0,0,1-4.1-1.9A3.1,3.1,0,0,1,699.5,479.6Z"/><path d="M387,705.7a4.9,4.9,0,1,1-1.3-9.8,4.8,4.8,0,0,1,5.5,4.2A5,5,0,0,1,387,705.7Z"/><path d="M325.1,685.9a3.2,3.2,0,1,1-.9-6.3,3.1,3.1,0,0,1,3.6,2.7A3.2,3.2,0,0,1,325.1,685.9Z"/><path d="M217.9,565.2a5.1,5.1,0,0,1-6.6,2.5,4.9,4.9,0,0,1-2.4-6.6,4.8,4.8,0,0,1,6.5-2.4A4.9,4.9,0,0,1,217.9,565.2Z"/><path d="M188.3,540.9a3,3,0,0,1-4.2,1.6,3.2,3.2,0,1,1,2.6-5.8A3,3,0,0,1,188.3,540.9Z"/><path d="M280.3,560.6a3.3,3.3,0,0,1,1.2,4.4,3.2,3.2,0,1,1-5.6-3.1A3.4,3.4,0,0,1,280.3,560.6Z"/><path d="M339.3,724.2a3.2,3.2,0,0,1,4,2.2,3.3,3.3,0,0,1-2.3,4,3.2,3.2,0,0,1-3.9-2.3A3.1,3.1,0,0,1,339.3,724.2Z"/><path d="M189.4,519.5a7.3,7.3,0,1,1,7.7-6.9A7.4,7.4,0,0,1,189.4,519.5Z"/><path d="M674.9,530.4a4.4,4.4,0,0,1-5.2,3.3,4.3,4.3,0,1,1,5.2-3.3Z"/><path d="M563,206.9a6.3,6.3,0,0,1-5.1,7.4,6.3,6.3,0,1,1,5.1-7.4Z"/><path d="M584.2,195.5a4.3,4.3,0,0,1-6,1,4.3,4.3,0,0,1-1.1-6,4.3,4.3,0,1,1,7.1,5Z"/><path d="M463.9,155.5a2.7,2.7,0,0,1-3.9.7,2.9,2.9,0,0,1-.7-3.9,2.9,2.9,0,0,1,4-.7A2.8,2.8,0,0,1,463.9,155.5Z"/><path d="M522.1,200.4a4.5,4.5,0,0,1,2-5.8,4.4,4.4,0,0,1,5.8,2.1,4.1,4.1,0,0,1-2,5.7A4.3,4.3,0,0,1,522.1,200.4Z"/><path d="M535.5,247.8a2.8,2.8,0,1,1,3.7,1.3A2.7,2.7,0,0,1,535.5,247.8Z"/><path d="M535.1,158a2.8,2.8,0,0,1,1.3-3.8,2.7,2.7,0,0,1,3.7,1.3,2.8,2.8,0,0,1-1.3,3.8A2.8,2.8,0,0,1,535.1,158Z"/></g><g fill="#4d4d4d"><path d="M324.2,417.5c-1.1,1-26.9,26-42.1,26-6,0-10.4-2.2-12.9-6.6-5.1-8.7-2.4-25.8,8-51.1l.3-.7c-8.7-1.4-17.1-2.2-20.9,1.6a2,2,0,0,1-2.7,0,1.9,1.9,0,0,1,0-2.6c5.2-5.3,14.8-4.2,25.1-2.5,7.2-16.7,15-30.5,15.1-30.7a1.8,1.8,0,0,1,2.5-.7,2,2,0,0,1,.8,2.6,308.6,308.6,0,0,0-14.5,29.4c8.3,1.3,16.8,2.5,22.4.4a1.8,1.8,0,0,1,2.4,1.1,1.9,1.9,0,0,1-1.1,2.4,25.4,25.4,0,0,1-9,1.4,106.8,106.8,0,0,1-16.3-1.8l-.6,1.6c-12.4,30-11.3,42.5-8.3,47.7,1.9,3.2,5,4.7,9.7,4.7,13.7,0,39.3-24.7,39.5-24.9a2,2,0,0,1,2.7,0A1.9,1.9,0,0,1,324.2,417.5Z"/><path d="M386.1,417.6c-1.2.9-30.5,22.3-47.3,22.3-4.3,0-7.4-1.1-9.3-3.4-3.2-3.9-2-9.8-1-14.5.3-1.8.8-4.3.6-5.2-3.6,0-6.2-.6-8-1.7a5.5,5.5,0,0,1-2.8-4.8,9.9,9.9,0,0,1,2.5-6.1c.7-1,2.6-3.1,4.4-3.1a3.4,3.4,0,0,1,3.1,1.6c1.6,2.5,0,7.3-1.3,10.3h2.2a3.4,3.4,0,0,1,2.8,1.2c1.4,1.8.9,4.7.1,8.4s-1.8,8.9.3,11.4,3.3,2.1,6.4,2.1c15.6,0,44.8-21.4,45.1-21.6a1.9,1.9,0,1,1,2.2,3Zm-60.9-12.7c-1.1.9-3.5,3.8-3.2,5.8a2.9,2.9,0,0,0,1.3,1.4C324.6,409.2,325.4,406.1,325.2,404.9Z"/><path d="M450.6,417.5c-1,.9-24.3,22.8-40.8,22.8-6.3,0-10.6-1.9-12.9-5.6s-1.9-6.2-1.5-9.4l-1.9,2.3c-8.4,9.7-12,10.9-14,10.9a3.7,3.7,0,0,1-3.2-1.9,8.2,8.2,0,0,1-.7-3.4c0-3.4,1.4-8.1,3.6-12.1s5.9-7.7,9.1-7.7a7.3,7.3,0,0,1,5.9,2.6,7.5,7.5,0,0,1,1.6,2.9c.9-1.3,1.9-2.5,2.8-3.9a1.9,1.9,0,0,1,3.2,2c-1.4,2.8-4.6,11.2-1.7,15.8,1.5,2.5,4.8,3.8,9.7,3.8,15.1,0,38-21.6,38.2-21.8a1.9,1.9,0,1,1,2.6,2.7Zm-59.2.9a4,4,0,0,0-3.1-1.2c-2,0-4.6,2.9-6.6,7.2s-2.6,9.5-2.1,10.3,6.8-4.4,12.8-11.6v-.5A5,5,0,0,0,391.4,418.4Z"/><path d="M491.2,417.4c-1.7,5.9-10.7,10.9-24.3,18.5-8.1,4.6-17.6,9.9-27.7,16.6l-2.2,5.2c-11.8,27.8-23.2,41.9-33.8,41.9A7.6,7.6,0,0,1,396,495c-2-4.1-1.3-9.8,1.9-13.8,0-.1.1-.1.1-.2a254.6,254.6,0,0,1,38.1-31,353.7,353.7,0,0,0,11.7-34.4,1.9,1.9,0,0,1,2.3-1.3,1.9,1.9,0,0,1,1.3,2.3c0,.2-3.9,13.9-9.9,30,8.6-5.5,16.6-10,23.6-13.9,11.9-6.7,21.2-11.9,22.6-16.3a1.8,1.8,0,1,1,3.5,1Zm-57.6,38.9a233.8,233.8,0,0,0-32.9,27.3,10,10,0,0,0-1.3,9.8,4,4,0,0,0,3.8,2.5c4.7,0,10.1-4,15.7-12S428.6,468,433.6,456.3Zm16.5-55.1a3.2,3.2,0,0,1,3.2-3.2,3.2,3.2,0,0,1,3.2,3.2,3.3,3.3,0,0,1-3.2,3.2A3.2,3.2,0,0,1,450.1,401.2Z"/><path d="M539.9,416.6c-1,1-24.5,24.4-40.4,24.4-6.3,0-10.7-1.9-13-5.7s-2.4-7.9-.9-13.6a51.6,51.6,0,0,1,2.6-7.3,1.9,1.9,0,0,1,2.5-.8,1.9,1.9,0,0,1,.9,2.5c-1.6,3.1-5,12.3-1.9,17.2,1.6,2.6,4.9,3.9,9.8,3.9s14.2-3.9,24.1-11.5A173.6,173.6,0,0,0,537.3,414a1.7,1.7,0,0,1,2.6,0A1.9,1.9,0,0,1,539.9,416.6Zm-53.3-7.2c-.6-1,0-1.7,3.3-4s5.2-3.3,6-2.5a1.3,1.3,0,0,1-.4,2.2,41.5,41.5,0,0,0-4.1,2.7C488.1,410.3,487.2,410.6,486.6,409.4Z"/><path d="M609.4,417.6c-1.2.9-27.7,20.6-46.4,20.6q-4.1,0-6-2.4c-2.7-3.1-1.9-8.1-1.2-12.6a26.6,26.6,0,0,0,.4-5.2c-5.5.1-10.7,5.1-14,9.4a60.5,60.5,0,0,0-6.2,9.7,2,2,0,0,1-1.7,1.1h-.4a1.8,1.8,0,0,1-1.5-1.8c0-2,3.1-18,6.4-22.4a1.9,1.9,0,0,1,3,2.2c-1.3,1.7-2.7,6.2-3.7,10.5,4.2-5.8,10.7-12.3,18.2-12.3a3.6,3.6,0,0,1,2.7,1.1c1.5,1.7,1,4.7.5,8.4s-1.2,7.8.3,9.6a4.1,4.1,0,0,0,3.2,1c17.5,0,43.9-19.6,44.1-19.8a1.9,1.9,0,0,1,2.6.4A1.8,1.8,0,0,1,609.4,417.6Z"/><path d="M361.2,337.7c-3.2-2.9-8-4.4-13.7-4.4h-13a2,2,0,0,0-2,2v50.5a2,2,0,0,0,2,2.1h1.6a2,2,0,0,0,2-2.1V365h9.4c5.8,0,10.4-1.5,13.6-4.3a15.8,15.8,0,0,0,.1-23Zm-.8,11.4a9.1,9.1,0,0,1-3,7.3c-2.1,1.9-5.6,2.9-9.9,2.9h-9.4V338.9h9.4c4.3,0,7.8,1.1,10,3A8.8,8.8,0,0,1,360.4,349.1Z"/><path d="M416,333.3h-1.5a2,2,0,0,0-2,2v33.9a13.7,13.7,0,0,1-4.7,10.9,17.3,17.3,0,0,1-21.4,0c-3.1-2.7-4.6-6.3-4.6-10.9V335.3a2.1,2.1,0,0,0-2.1-2h-1.5a2,2,0,0,0-2.1,2v33.9a19.7,19.7,0,0,0,6.7,15.2,22.9,22.9,0,0,0,28.6,0,19.7,19.7,0,0,0,6.7-15.2V335.3A2,2,0,0,0,416,333.3Z"/><path d="M507.9,383.1l-.7-1.4a2,2,0,0,0-2.7-.9c-9.2,4.2-17,5.8-23.8,4.7-5.2-.8-9.8-3.2-14.4-7.5a104.2,104.2,0,0,1-7.2-7.7l-3.5-4a29.7,29.7,0,0,0-3.1-3,20.5,20.5,0,0,0,4.3-2.6,15.9,15.9,0,0,0,0-23c-3.2-2.9-7.8-4.3-13.7-4.4H430.2a2,2,0,0,0-2.1,2v50.5a2.1,2.1,0,0,0,2.1,2.1h1.5a2.1,2.1,0,0,0,2.1-2.1V365h9.5c2.4,0,4.7,1.5,8.1,5.1l3.4,3.9a93.5,93.5,0,0,0,7.6,8.2c5.5,5,11.2,7.9,17.4,8.9a29.6,29.6,0,0,0,5.2.4c6.6,0,13.8-1.9,21.9-5.6a1.9,1.9,0,0,0,1-1.2A2.2,2.2,0,0,0,507.9,383.1Zm-54.8-26.7c-2.2,1.9-5.7,2.9-10,2.9h-9.3V338.9h9.3c4.3,0,7.8,1.1,10,3a9.2,9.2,0,0,1,3,7.2A9.8,9.8,0,0,1,453.1,356.4Z"/><path d="M485.1,380.1h.1a22.3,22.3,0,0,0,15.9-6.7l.4-.5.2-.2.5-.6a24.1,24.1,0,0,0-1.8-32.7,21.9,21.9,0,0,0-15-6.1h-1.2a22.2,22.2,0,0,0-15.6,7.4,24.1,24.1,0,0,0,.6,32.7A21.9,21.9,0,0,0,485.1,380.1Zm.2-41.2a17,17,0,0,1,11.2,4.6,18.5,18.5,0,0,1,5.6,12.2,19,19,0,0,1-4.2,12.8l-.9.9a16.4,16.4,0,0,1-11.8,5.1h-.1a16.7,16.7,0,0,1-11.8-5,18.4,18.4,0,0,1-5.2-12.4,18.1,18.1,0,0,1,4.7-12.6,16.7,16.7,0,0,1,11.7-5.6h.8Z"/><path d="M349.8,523.4v4.3h-.3l-.4-1.1-.8-1.3-1.4-1.1a4.6,4.6,0,0,0-2.1-.4h-4v7.7h1.4a3.5,3.5,0,0,0,1.6-.3,4.1,4.1,0,0,0,1.1-.7,6.3,6.3,0,0,0,.7-1.2c.1-.5.3-1,.4-1.5h.3v7.7H346a7.4,7.4,0,0,0-.4-1.4l-.6-1.2a3.9,3.9,0,0,0-1-.8,3.3,3.3,0,0,0-1.5-.3h-1.7v9h4.1a4.6,4.6,0,0,0,2.1-.4,4.4,4.4,0,0,0,1.6-1,6.6,6.6,0,0,0,1.2-1.7,6.8,6.8,0,0,0,.7-2h.4v5.5h-16v-.4h2.3v-17h-2.3v-.4Z"/><path d="M367.6,523.4v.4h-2.4l5.2,13.5,5.3-13.5h-2.3v-.4h4.8v.4H376l-7,18h-.7l-6.9-18h-2.1v-.4Z"/><path d="M401.3,523.4v4.3h-.4a3.7,3.7,0,0,0-.4-1.1l-.8-1.3-1.4-1.1a4.6,4.6,0,0,0-2.1-.4h-3.9v7.7h1.4a3.3,3.3,0,0,0,1.5-.3,4.1,4.1,0,0,0,1.1-.7,3.5,3.5,0,0,0,.7-1.2,8.3,8.3,0,0,0,.4-1.5h.4v7.7h-.4a7.4,7.4,0,0,0-.4-1.4,6.7,6.7,0,0,0-.6-1.2,3.9,3.9,0,0,0-1-.8,3.3,3.3,0,0,0-1.5-.3h-1.6v9h4.1a4.5,4.5,0,0,0,2-.4,5.9,5.9,0,0,0,1.7-1,9.9,9.9,0,0,0,1.1-1.7,7,7,0,0,0,.8-2h.3v5.5H386.4v-.4h2.3v-17h-2.3v-.4Z"/><path d="M417.9,523.4l8.3,11.9h0V523.8h-2.3v-.4h5v.4h-2.3v17.4H426l-11.3-16h0v15.6H417v.4h-5v-.4h2.3v-17H412v-.4Z"/><path d="M443.4,523.8a4.1,4.1,0,0,0-1.6.2,3.1,3.1,0,0,0-1.3.6,4.5,4.5,0,0,0-1,1.3,14.6,14.6,0,0,0-.9,2.1h-.3v-4.6h15.6V528h-.3a8.4,8.4,0,0,0-.8-2.1,7.3,7.3,0,0,0-1-1.3,3.1,3.1,0,0,0-1.3-.6,4.7,4.7,0,0,0-1.7-.2h-.9v17h2.3v.4H442v-.4h2.3v-17Z"/><path d="M464.5,528.5a10.6,10.6,0,0,1,2.2-2.9,8.9,8.9,0,0,1,3.1-1.9,8.1,8.1,0,0,1,6.6,0,9.2,9.2,0,0,1,3,1.8,8.6,8.6,0,0,1,2.1,2.9,8.5,8.5,0,0,1,.8,3.9,8.4,8.4,0,0,1-.7,3.5,9,9,0,0,1-2.1,3,10,10,0,0,1-2.9,2,8.9,8.9,0,0,1-3.6.7,8.4,8.4,0,0,1-3.5-.7,11.7,11.7,0,0,1-3-1.9,11.9,11.9,0,0,1-2.1-2.9,8.6,8.6,0,0,1-.7-3.6A9.7,9.7,0,0,1,464.5,528.5Zm3.5,8.2a6.6,6.6,0,0,0,1,2.7,3.6,3.6,0,0,0,1.6,1.4,8.6,8.6,0,0,0,2.4.4,5.9,5.9,0,0,0,2.9-.7,4.9,4.9,0,0,0,1.6-1.9,11.4,11.4,0,0,0,.6-2.9c.1-1.1.2-2.3.2-3.6s-.1-2.2-.1-3.3a8.2,8.2,0,0,0-.7-2.8,3.7,3.7,0,0,0-1.6-1.9,4.8,4.8,0,0,0-2.9-.7,5.8,5.8,0,0,0-2.8.6,4.9,4.9,0,0,0-1.6,1.9,10.4,10.4,0,0,0-.7,2.8c-.1,1.1-.2,2.3-.2,3.7A26.3,26.3,0,0,0,468,536.7Z"/><path d="M493,535.6c.1.2.1.5.2.8a4.9,4.9,0,0,0,.4,1.1,4.1,4.1,0,0,0,.6,1.1,7.1,7.1,0,0,0,2,2l1,.4.9.2h.8a6.7,6.7,0,0,0,2.2-.4,3.4,3.4,0,0,0,1.3-1,2.8,2.8,0,0,0,.7-1.3,5,5,0,0,0,.2-1.2,2.4,2.4,0,0,0-.4-1.5,4,4,0,0,0-1.2-1l-1.6-.7-1.9-.5-1.9-.7a4.7,4.7,0,0,1-2.8-2.5,4.8,4.8,0,0,1-.5-2.2,4.1,4.1,0,0,1,.5-1.9,5.2,5.2,0,0,1,1.2-1.7,6.4,6.4,0,0,1,2-1.1,6,6,0,0,1,2.4-.5l1.4.2,1.1.3.8.3.7.2.5-.2.2-.4h.4v4.8h-.3a8.7,8.7,0,0,0-.7-1.7,8,8,0,0,0-.8-1.6,5.3,5.3,0,0,0-1.4-1.1,4,4,0,0,0-2-.4,4.7,4.7,0,0,0-1.7.3,2.7,2.7,0,0,0-1.3.7,2.5,2.5,0,0,0-.8,1,2,2,0,0,0-.3,1.1,2,2,0,0,0,.5,1.4,2.9,2.9,0,0,0,1.2,1l1.7.7,2,.7,1.9.7a4.8,4.8,0,0,1,1.7,1,4.1,4.1,0,0,1,1.2,1.4,3.6,3.6,0,0,1,.5,2.1,5.9,5.9,0,0,1-.5,2.3,5.2,5.2,0,0,1-1.4,1.9,5.4,5.4,0,0,1-2.2,1.3,6.1,6.1,0,0,1-2.8.5h-1.5l-1.4-.3-1.2-.3-.8-.2h-.5c-.1.1-.1.2-.2.5h-.4v-5.6Z"/></g></svg>