<svg xmlns="http://www.w3.org/2000/svg" viewBox="0 0 5084 512"><defs><linearGradient id="logo-h" x1="3568.15" y1="-145.29" x2="2000.86" y2="759.58" gradientTransform="matrix(1, 0, 0, -1, 0, 512)" gradientUnits="userSpaceOnUse"><stop offset="0.625" stop-color="#5fceb3"/><stop offset="0.625" stop-color="#fca326"/></linearGradient></defs><g fill="url(#logo-h)"><path d="M660.898 203.9a128.5 128.5 0 0 0-67.5 18.5 230.599 230.599 0 0 0 1.5-26.3c.6-107.7-86.3-195.499-194.099-196.099h-2a193.699 193.699 0 0 0-138.5 57.5c-36.6 36.9-56.7 86.1-56.7 138.6a230.599 230.599 0 0 0 1.5 26.3 128.5 128.5 0 0 0-67.5-18.5 133.1 133.1 0 0 0-96 40.5C22.6 264 0 299.2 0 355.9 0 410 23 453 42.1 479.4a57.4 57.4 0 0 0 47.9 25 62.1 62.1 0 0 0 29.8-7.7l2.7-1.7 34.5-22.8a64.3 64.3 0 0 0 14-12.5l3.3 3.8c28.1 31.7 64.4 48.5 104.9 48.5 48.9 0 94.7-27.6 120-71.4 25.4 43.8 71.2 71.4 120 71.4 40.6 0 76.9-16.8 105-48.5l3.3-3.8a66.2 66.2 0 0 0 13.9 12.5l34.6 22.8 2.7 1.7a61 61 0 0 0 29.8 7.7c19.5 0 37.4-9.4 47.7-24.8 19.3-26.6 42.3-69.7 42.3-123.7 0-56.7-22.7-91.9-41.7-111.5a132.9 132.9 0 0 0-95.9-40.5zm-287.799 18.5c-4.8-5.6-8.2-15.4-8.2-23.9 0-18.3 14.8-32.5 34.2-33a33.1 33.1 0 0 1 34.4 31.7h0v1.2c0 8.5-3.3 18.3-8.1 23.9-.2.2-13.6 16.5-26.2 43.8-12.5-26.9-25.9-43.5-26.1-43.7zM722.398 456.2c-2.8 4.5-7.8 7.1-13.9 7.1a18.6 18.6 0 0 1-9.5-2.3l-35.1-23.2a23.1 23.1 0 0 1-9.8-14.7 13.1 13.1 0 0 1 2-10c.4-.7 1.1-1.8 2.1-3.2 5.9-8.8 23.9-35.8 23.9-57.6 0-13-8.4-21.7-16.3-21.7-10 0-21.5 5.5-37.5 45-9.3 23.5-37.9 95.3-109.1 95.3-49.2 0-100.1-42.3-100.1-113.2 0-60.8 37-108.1 37.4-108.5 11.2-13 18.1-32.4 18.1-50.7 0-40.9-33.1-73.5-75.5-74a73.8 73.8 0 0 0-75.3 72.3h0v1.7c0 18.3 7 37.7 18.1 50.7.4.4 37.5 47.7 37.5 108.5 0 70.9-50.9 113.2-100.2 113.2-71.2 0-99.7-71.8-109.1-95.4-16-39.4-27.4-44.9-37.5-44.9-7.8 0-16.2 8.7-16.2 21.7 0 21.8 18 48.8 23.9 57.6l2 3.2a12.6 12.6 0 0 1 2 10 23.1 23.1 0 0 1-9.8 14.7l-34.7 23a19.9 19.9 0 0 1-9.8 2.5c-6.1 0-11.2-2.6-14-7.1-13.1-18-34.9-54.7-34.9-100.3 0-72.8 48.5-111 96.5-111 57.6 0 89.4 50 106 91.8 15 37.8 29.6 42.2 39.3 42.2 11.9 0 20.3-10 20.3-24.3 0-10.8-3.5-23.5-10.5-37.7l-17.1-27.5c-21.1-27.1-31-56.7-31-93.3 0-85.5 69.2-155 154.2-155h.8c85.1 0 154.2 69.5 154.2 155 0 36.6-9.8 66.2-30.9 93.2l-17.2 27.7c-6.9 14.1-10.4 26.8-10.4 37.6 0 14.3 8.3 24.3 20.3 24.3 9.7 0 24.3-4.4 39.3-42.2 16.5-41.8 48.4-91.8 106-91.8 47.9 0 96.5 38.2 96.5 111 0 45.6-21.8 82.3-35 100.3z"/><path d="M1759.603.001v.002c-24.809.115-47.542 14.725-57.948 37.249l-150.499 322.907c-6.133-17.335-19.548-31.461-36.448-38.626 8.007-10.752 12.947-23.856 12.945-38.034v-61.343a41.115 41.115 0 0 0-.045-1.881c-.523-11.391-4.256-21.955-10.014-31.149 21.552-10.419 36.807-32.347 37.184-57.436a41.115 41.115 0 0 0 0-.617V70.109a41.115 41.115 0 0 0 0-.617c-.514-34.253-28.626-62.828-62.866-63.899a41.115 41.115 0 0 0-1.285-.015h-232.721-.01c-29.961 0-55.718 21.345-62.677 49.413-1.423-1.138-2.887-2.24-4.445-3.254C1157.871 27.832 1106.049.002 1040.415.002 927.152.002 856.91 84.86 856.91 165.649c0 52.436 27.177 98.021 70.79 132.545-13.532 4.732-25.619 13.458-33.678 26.352a41.115 41.115 0 0 0-.885 1.481l-26.395 46.471a41.115 41.115 0 0 0-.313.559c-5.976 10.913-12.956 26.441-9.039 45.464s14.464 28.189 20.86 34.585c16.464 16.464 70.203 58.88 164.393 58.88 65.109 0 118.093-28.731 150.719-70.073v.338a41.115 41.115 0 0 0 .022 1.285c1.071 34.241 29.644 62.36 63.897 62.874a41.115 41.115 0 0 0 .617 0h232.726c18.006-.002 34.476-7.772 46.225-20.073 11.948 12.606 28.88 20.399 47.141 20.073h61.659l-1.039-.015c30.624.775 58.814-17.543 70.634-45.696l5.695-12.654h83.511l6.092 13.244a41.115 41.115 0 0 0 .152.328c4.405 9.362 11.062 20.939 23.387 30.416s29.27 14.377 44.671 14.377h62.433c21.72.21 42.206-10.608 54.276-28.666a41.115 41.115 0 0 0 1.111-1.758c11.04-18.475 12.186-41.362 3.049-60.849L1823.51 37.252C1813.104 14.728 1790.369.116 1765.558.001a41.115 41.115 0 0 0-.19 0h-5.576a41.115 41.115 0 0 0-.19 0zm549.184.002c-140.638.365-255.322 115.352-255.322 255.99 0 140.577 114.588 255.521 255.142 255.986 64.765.824 127.234-24.057 173.737-69.12 6.092-5.677 10.906-12.454 14.284-19.885 46.723 54.565 116.183 89.013 194.083 89.013h.74a41.115 41.115 0 0 0 .082 0c75.042-.149 142.724-33.002 189.493-85.009l-.734 4.352.182-.98a62.29 62.29 0 0 0-1.098 14.196 41.115 41.115 0 0 0 .037.398c1.635 34.394 31.133 62.046 65.562 61.458l-.705.007h66.179a41.115 41.115 0 0 0 .238 0c31.639-.182 58.979-23.994 63.499-55.307v-.007l1.48-10.246 18.748 35.979v.037c10.931 20.995 32.573 34.504 56.237 35.108a41.115 41.115 0 0 0 1.047.015h9.664a41.115 41.115 0 0 0 1.059-.015c23.671-.611 45.318-14.133 56.239-35.143a41.115 41.115 0 0 0 0-.002 41.115 41.115 0 0 0 0-.002 41.115 41.115 0 0 0 0-.002 41.115 41.115 0 0 0 0-.002 41.115 41.115 0 0 0 0-.002 41.115 41.115 0 0 0 0-.002 41.115 41.115 0 0 0 0-.002 41.115 41.115 0 0 0 0-.002 41.115 41.115 0 0 0 0-.002 41.115 41.115 0 0 0 0-.002 41.115 41.115 0 0 0 0-.002 41.115 41.115 0 0 0 0-.002 41.115 41.115 0 0 0 0-.002 41.115 41.115 0 0 0 0-.002 41.115 41.115 0 0 0 0-.002 41.115 41.115 0 0 0 0-.002 41.115 41.115 0 0 0 0-.002 41.115 41.115 0 0 0 0-.002 41.115 41.115 0 0 0 0-.002l18.428-35.522 1.416 9.832a41.115 41.115 0 0 0 .175 1.074c5.262 30.683 32.146 53.719 63.273 54.225a41.115 41.115 0 0 0 .668.007h66.136c19.089.191 37.341-8.171 49.659-22.756a41.115 41.115 0 0 0 0-.002 41.115 41.115 0 0 0 0-.002 41.115 41.115 0 0 0 0-.002 41.115 41.115 0 0 0 0-.002c12.196-14.446 17.455-33.587 14.348-52.235a41.115 41.115 0 0 0 0-.002 41.115 41.115 0 0 0 0-.002 41.115 41.115 0 0 0 0-.002 41.115 41.115 0 0 0 0-.002 41.115 41.115 0 0 0 0-.002 41.115 41.115 0 0 0 0-.002 41.115 41.115 0 0 0 0-.002 41.115 41.115 0 0 0 0-.002 41.115 41.115 0 0 0 0-.002 41.115 41.115 0 0 0 0-.002 41.115 41.115 0 0 0 0-.002 41.115 41.115 0 0 0 0-.002 41.115 41.115 0 0 0 0-.002 41.115 41.115 0 0 0 0-.002 41.115 41.115 0 0 0 0-.002 41.115 41.115 0 0 0 0-.002 41.115 41.115 0 0 0 0-.002 41.115 41.115 0 0 0 0-.002 41.115 41.115 0 0 0 0-.002 41.115 41.115 0 0 0 0-.002 41.115 41.115 0 0 0 0-.002 41.115 41.115 0 0 0 0-.002 41.115 41.115 0 0 0 0-.002 41.115 41.115 0 0 0 0-.002 41.115 41.115 0 0 0 0-.002 41.115 41.115 0 0 0 0-.002 41.115 41.115 0 0 0 0-.002 41.115 41.115 0 0 0 0-.002 41.115 41.115 0 0 0 0-.002 41.115 41.115 0 0 0 0-.002 41.115 41.115 0 0 0 0-.002 41.115 41.115 0 0 0 0-.002 41.115 41.115 0 0 0 0-.002 41.115 41.115 0 0 0 0-.002 41.115 41.115 0 0 0 0-.002 41.115 41.115 0 0 0 0-.002 41.115 41.115 0 0 0 0-.002 41.115 41.115 0 0 0 0-.002 41.115 41.115 0 0 0 0-.002 41.115 41.115 0 0 0 0-.002 41.115 41.115 0 0 0 0-.002l-.504-2.988c46.613 51.449 114.04 83.644 189.356 83.644h.748a41.115 41.115 0 0 0 .182 0c140.638-.61 255.126-115.795 254.881-256.434S3762.29.123 3621.65.003a41.115 41.115 0 0 0-.037 0h-1.48a41.115 41.115 0 0 0-.282 0c-104.842.723-194.903 65.276-233.455 156.372L3369.19 54.351l.152.973c-4.459-30.956-31.215-54.64-62.483-55.315a41.115 41.115 0 0 0-.885-.007h-8.924a41.115 41.115 0 0 0-1.771.037c-22.651.978-43.356 13.55-54.669 33.198a41.115 41.115 0 0 0-.603 1.074l-83.546 155.672-83.823-155.715a41.115 41.115 0 0 0-.219-.408C3061.361 13.864 3040.54.993 3017.712.038a41.115 41.115 0 0 0-1.721-.037h-8.924a41.115 41.115 0 0 0-.32.137V.001c-31.734.249-59.03 24.412-63.122 55.882l.227-1.533-17.346 102.845C2888.089 66.571 2798.758 2.184 2694.49.763h0a255.65 255.65 0 0 0-101.655 19.612v-.007c-37.477 15.599-69.806 39.536-95.271 69.087-3.679-9.013-9.385-17.172-16.832-23.748-48.203-43.015-106.44-65.706-171.843-65.706a41.115 41.115 0 0 0-.108 0zm1799.112 0c-113.262 0-183.505 84.858-183.505 165.647 0 52.345 27.018 97.983 70.564 132.553-13.447 4.769-25.438 13.523-33.452 26.344a41.115 41.115 0 0 0-.959 1.604l-26.393 46.843.342-.588c-6.046 10.33-13.985 25.003-10.442 45.034s15.093 29.884 22.291 36.618c14.525 13.588 69.592 57.929 163.782 57.929 64.664 0 117.377-28.488 149.985-69.55a41.115 41.115 0 0 0 .037 1.1c1.071 34.241 29.644 62.36 63.897 62.874a41.115 41.115 0 0 0 .617 0h232.728c34.942-.004 64.147-29.21 64.151-64.151a41.115 41.115 0 0 0 0-.002 41.115 41.115 0 0 0 0-.002 41.115 41.115 0 0 0 0-.002 41.115 41.115 0 0 0 0-.002v-33.963c46.364 63 121.061 103.699 205.738 103.699h1.488a41.115 41.115 0 0 0 .145 0c140.884-.502 255.572-115.993 255.084-256.877S4968.028-.471 4827.143.003h0c-33.617.117-66.881 6.85-97.894 19.823-43.891 18.358-80.715 48.124-107.682 84.964v-34.68a41.115 41.115 0 0 0 0-.617c-.515-34.253-28.628-62.828-62.868-63.899a41.115 41.115 0 0 0-1.285-.015h-232.72-.037c-29.786 0-55.423 21.094-62.56 48.919-1.206-.937-2.448-1.845-3.75-2.695-32.772-24.081-84.597-51.8-150.436-51.8zM1040.418 41.111c54.65 0 99.636 24.164 127.891 44.983 13.384 8.551 10.778 26.398 6.316 34.577l-28.623 43.495a31.601 31.601 0 0 1-25.284 14.131 20.819 20.819 0 0 1-12.272-3.719l-2.969-1.859c-29.37-19.704-52.425-29.37-69.526-29.37s-22.676 7.438-22.676 15.989 6.324 24.163 53.167 43.124 121.566 57.625 121.566 139.414c0 63.573-54.278 129.002-145.362 129.002-82.161 0-124.545-36.061-135.326-46.843s-13.379-15.617-4.828-31.231l26.395-46.471c7.435-11.897 24.537-15.983 39.036-6.317 34.203 22.678 57.252 27.883 70.636 27.883s26.024-8.555 26.024-21.196c0-25.28-37.551-40.519-49.448-45.352-75.469-29.742-117.107-78.073-117.107-135.697s48.705-124.543 142.391-124.543zm719.376 0h5.577a23.05 23.05 0 0 1 20.818 13.383l176.219 378.094a23.793 23.793 0 0 1-1.117 22.307 23.422 23.422 0 0 1-19.699 10.404h-62.831c-17.101 0-24.911-8.548-30.86-21.188l-17.1-37.176h-136.438l-16.729 37.176a33.459 33.459 0 0 1-31.979 21.188h-61.712a22.306 22.306 0 0 1-23.418-21.188 24.537 24.537 0 0 1 2.23-11.524l176.22-378.094a23.05 23.05 0 0 1 20.818-13.383zm549.102 0c56.881 0 102.611 17.847 144.622 55.395a23.05 23.05 0 0 1 7.805 17.1 21.934 21.934 0 0 1-6.687 16.729l-43.872 45.731a23.05 23.05 0 0 1-31.971 0 103.724 103.724 0 0 0-67.288-24.912c-54.65 0-97.408 45.36-97.408 102.984s43.126 101.861 98.148 101.861a104.839 104.839 0 0 0 66.919-24.166c9.294-7.807 25.277-6.691 32.34 1.859l43.503 46.471a21.563 21.563 0 0 1 6.316 16.729 21.934 21.934 0 0 1-7.064 15.99 204.102 204.102 0 0 1-145.362 57.995 214.884 214.884 0 0 1 0-429.766zm698.189 0h0 8.922a24.537 24.537 0 0 1 20.448 12.641l120.08 223.064 119.715-223.064a25.28 25.28 0 0 1 20.819-12.641h8.924a23.422 23.422 0 0 1 22.676 20.076l63.571 376.979a23.422 23.422 0 0 1-5.207 18.957 23.05 23.05 0 0 1-17.84 8.176h-66.548a24.165 24.165 0 0 1-23.426-20.076l-19.698-136.438-77.331 149.08a24.165 24.165 0 0 1-20.819 13.012h-9.664a24.165 24.165 0 0 1-20.825-13.012l-77.695-149.08-19.707 136.438a23.422 23.422 0 0 1-23.047 20.076h-66.179a23.422 23.422 0 0 1-23.793-22.305 21.191 21.191 0 0 1 .372-4.828l63.579-376.979a23.05 23.05 0 0 1 22.674-20.076zm613.053 0h1.48a214.884 214.884 0 0 1 .748 429.766h-.748c-120.081 0-214.138-94.058-214.138-214.14a214.14 214.14 0 0 1 212.658-215.626zm487.761 0c55.022 0 100.008 24.164 127.891 44.983 13.384 8.551 10.775 26.4 6.686 34.208l-29.364 43.864a31.229 31.229 0 0 1-24.912 14.131 19.704 19.704 0 0 1-11.893-3.719l-3.348-1.859c-29.37-19.704-52.051-29.37-69.896-29.37-12.269 0-22.678 7.438-22.678 15.989s6.323 24.163 53.538 43.124 121.195 57.625 121.195 139.414c0 63.573-54.279 129.002-144.99 129.002-82.161 0-124.173-36.061-135.698-46.843s-13.38-15.617-4.457-30.86l26.393-46.843c7.436-11.897 24.539-15.983 38.666-6.317 34.575 22.678 57.621 27.883 71.376 27.883s26.024-8.555 26.024-21.196c0-25.28-37.548-40.519-50.188-45.352-75.47-29.742-116.738-78.073-116.738-135.697s48.707-124.543 142.393-124.543zm719.377 0a214.885 214.885 0 0 1 1.488 429.766h-1.488c-120.082 0-214.138-94.058-214.138-214.14a214.884 214.884 0 0 1 214.138-215.626zm-2133.326.762a214.512 214.512 0 0 1-2.498 429.005h-.74c-120.082 0-214.148-94.058-214.148-214.14a214.512 214.512 0 0 1 217.386-214.865zm-1436.046 4.815h232.726a23.793 23.793 0 0 1 23.047 23.424v60.966a23.793 23.793 0 0 1-23.047 23.424h-143.131v44.612h115.619a24.165 24.165 0 0 1 23.424 23.047v61.343a23.422 23.422 0 0 1-23.424 23.424h-115.619v50.559h143.131a23.793 23.793 0 0 1 23.047 23.424v61.343a23.05 23.05 0 0 1-23.047 23.045h-232.726a23.793 23.793 0 0 1-23.424-23.045V70.111a23.422 23.422 0 0 1 23.424-23.424zm3066.741 0h232.726a23.793 23.793 0 0 1 23.047 23.424v60.966a23.793 23.793 0 0 1-23.047 23.424H4414.24v44.612h115.619a24.165 24.165 0 0 1 23.424 23.047v61.343a24.165 24.165 0 0 1-23.424 23.424H4414.24v50.559h143.131a23.793 23.793 0 0 1 23.047 23.424v61.343a23.05 23.05 0 0 1-23.047 23.045h-232.726a23.793 23.793 0 0 1-23.426-23.045V70.111a23.422 23.422 0 0 1 23.426-23.424zM2690.711 148.554c-57.996 0-107.074 49.815-107.074 108.183a107.442 107.442 0 1 0 107.074-108.183zm930.907 0c-57.624 0-106.695 49.815-106.695 108.183a107.442 107.442 0 0 0 214.509 0 108.557 108.557 0 0 0-107.814-108.183zm1205.657 0c-57.624 0-106.695 49.815-106.695 108.183a107.442 107.442 0 0 0 214.509 0 108.557 108.557 0 0 0-107.814-108.183zm-3633.91 18.42v73.696c-6.535-8.328-13.618-15.857-20.956-22.514-4.391-3.984-8.975-7.22-13.498-10.733 8.304-5.367 15.762-12.104 21.362-20.557a41.115 41.115 0 0 0 .067-.101zm3066.741.895v72.048c-6.305-7.991-13.113-15.241-20.17-21.68-4.436-4.048-9.075-7.344-13.651-10.906 8.284-5.405 15.706-12.194 21.252-20.688zm-1569.396 21.795a41.115 41.115 0 0 0 .137 0c26.924-.092 50.99 15.855 61.399 40.684s4.914 53.168-14.028 72.306-47.226 24.93-72.161 14.778c-24.898-10.137-41.062-33.989-41.296-60.864.1-35.255 31.546-66.903 65.946-66.903zm930.77.015c36.943.33 65.911 29.152 66.708 65.931-2.729 34.791-30.944 61.118-66.011 61.118-35.075 0-63.301-26.337-66.019-61.14.685-34.807 31.816-65.823 65.321-65.909zm1205.656 0c36.943.33 65.911 29.152 66.708 65.931-2.729 34.791-30.944 61.118-66.011 61.118-35.075 0-63.301-26.337-66.019-61.14.685-34.807 31.817-65.823 65.321-65.909zm-2515.662 2.586c14.857.03 29.194 5.325 40.499 14.961 24.643 22.046 63.317 21.542 87.298-1.543a41.115 41.115 0 0 0 1.162-1.154l.483-.504c-3.593 17.138-5.494 34.792-5.465 52.755v.03a258.76 258.76 0 0 0 4.276 46.872c-12.127-12.44-27.052-17.222-41.032-18.082-15.275-.94-31.56 2.74-45.788 14.604a63.69 63.69 0 0 1-40.663 14.688c-32.988 0-57.036-23.64-57.036-60.753 0-37.276 24.379-61.857 56.266-61.872zm-548.712 28.038a4.833 4.833 0 0 0-5.197 2.607l-42.755 92.572a5.205 5.205 0 0 0 .741 5.199 4.461 4.461 0 0 0 4.088 2.607h85.878a5.205 5.205 0 0 0 4.465-2.607 4.461 4.461 0 0 0 0-5.199l-42.383-92.572a4.461 4.461 0 0 0-4.836-2.607zm-5.402 40.456h0a41.115 41.115 0 0 0 .375.026c-.115-.007-.227.002-.338-.011 0-.003-.037-.011-.045-.015zm10.043.059c0 .002-.037.007-.037.007-1.136.117-2.266.172-3.393.181a41.115 41.115 0 0 0 3.43-.19z"/></g></svg>