<svg xmlns="http://www.w3.org/2000/svg" viewBox="0 0 1400 512"><path fill="#fca326" d="M910.3,0H67.9A67.9,67.9,0,0,0,0,67.9V444.1A67.9,67.9,0,0,0,67.9,512H674.6Z"/><path fill="#5fceb3" d="M910.3,0,674.6,512h657.5a67.9,67.9,0,0,0,67.9-67.9V67.9A67.9,67.9,0,0,0,1332.1,0Z"/><g fill="#fff"><path d="M490.4,225.9a74.1,74.1,0,0,0-39,10.7,127.9,127.9,0,0,0,.8-15.2,112.6,112.6,0,0,0-112-113.2H339A112.7,112.7,0,0,0,226.3,221.4a127.9,127.9,0,0,0,.9,15.2,74.1,74.1,0,0,0-39-10.7,76.8,76.8,0,0,0-55.4,23.4c-10.9,11.3-24,31.6-24,64.4,0,31.2,13.3,56,24.3,71.3a33.1,33.1,0,0,0,27.6,14.4A35.9,35.9,0,0,0,178,395l1.5-1,20-13.2a36.5,36.5,0,0,0,8-7.2l1.9,2.2c16.3,18.3,37.2,28,60.6,28,28.2,0,54.7-15.9,69.3-41.2,14.6,25.3,41.1,41.2,69.3,41.2,23.4,0,44.4-9.7,60.6-28l1.9-2.2a39.2,39.2,0,0,0,8,7.2l20,13.2,1.6,1a34.1,34.1,0,0,0,17.1,4.4,32.9,32.9,0,0,0,27.6-14.3c11.1-15.4,24.4-40.2,24.4-71.4,0-32.8-13.1-53.1-24.1-64.4A76.9,76.9,0,0,0,490.4,225.9ZM324.2,236.6c-2.7-3.2-4.7-8.9-4.7-13.8,0-10.5,8.5-18.7,19.7-19.1a19.2,19.2,0,0,1,19.9,18.4h0v.7c0,4.9-1.9,10.6-4.7,13.8-.1.1-7.9,9.5-15.1,25.3A128,128,0,0,0,324.2,236.6Zm201.7,135a9.2,9.2,0,0,1-8.1,4.1,11.7,11.7,0,0,1-5.5-1.3L492.1,361a13.9,13.9,0,0,1-5.7-8.5,8.4,8.4,0,0,1,1.2-5.8,9.4,9.4,0,0,1,1.2-1.8c3.4-5.1,13.8-20.7,13.8-33.3,0-7.5-4.8-12.5-9.4-12.5s-12.4,3.2-21.6,26c-5.4,13.5-21.9,54.9-63,54.9-28.5,0-57.8-24.4-57.8-65.3,0-35.1,21.3-62.4,21.5-62.6,6.5-7.5,10.5-18.7,10.5-29.3,0-23.6-19.1-42.4-43.6-42.7a42.6,42.6,0,0,0-43.5,41.7h0v1c0,10.6,4.1,21.8,10.5,29.3.2.2,21.7,27.5,21.7,62.6,0,40.9-29.5,65.3-57.9,65.3-41.1,0-57.5-41.4-63-55-9.2-22.7-15.8-25.9-21.7-25.9s-9.3,5-9.3,12.5c0,12.6,10.4,28.2,13.8,33.3l1.2,1.8a7.4,7.4,0,0,1,1.1,5.8,13.7,13.7,0,0,1-5.6,8.5l-20.1,13.2a11.3,11.3,0,0,1-5.7,1.5,9.1,9.1,0,0,1-8-4.1c-7.6-10.4-20.1-31.6-20.1-57.9,0-42.1,27.9-64.1,55.6-64.1,33.3,0,51.6,28.8,61.2,53,8.7,21.8,17.1,24.3,22.7,24.3s11.8-5.7,11.8-14c0-6.2-2.1-13.6-6.1-21.7l-9.9-15.9c-12.2-15.7-17.9-32.8-17.9-53.9,0-49.3,40-89.4,89-89.4h.5c49.1,0,89,40.1,89,89.4,0,21.1-5.6,38.2-17.8,53.8l-9.9,16c-4.1,8.1-6,15.5-6,21.7,0,8.3,4.7,14,11.6,14s14.1-2.5,22.7-24.3c9.6-24.2,28-53,61.3-53,27.6,0,55.7,22,55.7,64.1C546.1,340,533.5,361.2,525.9,371.6Z"/><path d="M904.9,204.4a16.7,16.7,0,1,0,.1,33.4,16.7,16.7,0,0,0-.1-33.4Z"/><path d="M761.5,216c-.2-.3-.4-.5-.7-.4a.7.7,0,0,0-.9.4l-6.6,14.3a.8.8,0,0,0,.1.8.5.5,0,0,0,.6.4h13.3c.4.1.6-.1.8-.4a1.1,1.1,0,0,0,0-.8Z"/><path d="M1049.4,204.4a16.9,16.9,0,0,0-16.6,16.8,16.7,16.7,0,1,0,16.6-16.8Z"/><path d="M1236.6,166.6a53.8,53.8,0,0,0-26,6.7,24.5,24.5,0,0,0-15.9-5.8h-36.2a23,23,0,0,0-12.7,3.5,51.9,51.9,0,0,0-20.9-4.4c-16.6,0-28.7,7.3-35.8,17.2a54.1,54.1,0,0,0-69.6-8.2,24.1,24.1,0,0,0-19.1-9H999a25,25,0,0,0-21.8,12.9,25.1,25.1,0,0,0-21.9-12.9h-1.4a24,24,0,0,0-19.1,9,54,54,0,0,0-59.5-.3c-8.7-5.9-18.5-8.7-29.8-8.7A54.6,54.6,0,0,0,794,203.2l-10.4-22.3-.3-.7a25,25,0,0,0-22.2-13.6h-.8A24.9,24.9,0,0,0,739,178.5a24.1,24.1,0,0,0-20.5-11H682.3a25.1,25.1,0,0,0-12.8,3.5,52.4,52.4,0,0,0-21-4.4c-28.1,0-43.3,20.8-43.3,40.4a38.9,38.9,0,0,0,5.9,20.7l-2.4,4.2c-5.8,10.2-4.2,21.7,4.2,30.2,4,4.1,15.7,13.6,36,13.6a46.2,46.2,0,0,0,20.4-4.7,24.8,24.8,0,0,0,13,3.7h36.2a25.5,25.5,0,0,0,7.2-1,25,25,0,0,0,7.2,1h9.6a25.7,25.7,0,0,0,18.2-7.2,25.3,25.3,0,0,0,18.1,7.2h9.7a24.2,24.2,0,0,0,20.8-11.4,1.8,1.8,0,0,0,.6-.9,54.6,54.6,0,0,0,65.3,4.4,54.2,54.2,0,0,0,54.1,3,24.6,24.6,0,0,0,14.8,4.9h10.4a24.6,24.6,0,0,0,10-2.1,23.7,23.7,0,0,0,11.9,3h1.5a23.9,23.9,0,0,0,11.9-3,24.7,24.7,0,0,0,10.1,2.1h10.3a24.1,24.1,0,0,0,14.8-4.9,54.4,54.4,0,0,0,62.4-9.7l1.8,2c4.1,4.1,15.7,13.6,36,13.6a45.8,45.8,0,0,0,20.3-4.7,23.9,23.9,0,0,0,13,3.7h36.2a24.8,24.8,0,0,0,15.9-5.7,54.5,54.5,0,1,0,26-102.4ZM648.9,254.4c-12.8,0-19.3-5.6-21-7.2s-2.1-2.5-.8-4.9l4.1-7.2a4.3,4.3,0,0,1,6.1-1c5.3,3.6,8.9,4.3,11,4.3s4-1.3,4-3.2c0-3.9-5.8-6.3-7.7-7.1-11.7-4.6-18.2-12.1-18.2-21.1s7.6-19.3,22.1-19.3c8.5,0,15.5,3.8,19.9,7,2.1,1.3,1.7,4.1,1,5.3l-4.5,6.8A4.7,4.7,0,0,1,661,209a3.3,3.3,0,0,1-1.9-.6l-.4-.2c-4.6-3.1-8.2-4.6-10.8-4.6s-3.5,1.1-3.5,2.5.9,3.7,8.2,6.7,18.9,8.9,18.9,21.6C671.5,244.3,663,254.4,648.9,254.4ZM722,201.7a3.6,3.6,0,0,1-3.5,3.6H696.2v7h18a3.6,3.6,0,0,1,3.6,3.5v9.5a3.7,3.7,0,0,1-3.6,3.7h-18v7.8h22.3a3.7,3.7,0,0,1,3.5,3.7V250a3.6,3.6,0,0,1-3.5,3.6H682.3a3.6,3.6,0,0,1-3.6-3.6V192.2a3.6,3.6,0,0,1,3.6-3.6h36.2a3.6,3.6,0,0,1,3.5,3.6ZM791.6,252a4,4,0,0,1-3.1,1.6h-9.7c-2.7,0-3.9-1.4-4.9-3.3l-2.6-5.8H750.1l-2.6,5.8a5.4,5.4,0,0,1-5,3.3H733a3.6,3.6,0,0,1-3.7-3.3h0a3.9,3.9,0,0,1,.4-1.8l27.4-58.7a3.2,3.2,0,0,1,3.2-2h.8a3.7,3.7,0,0,1,3.3,2l27.3,58.7a4.3,4.3,0,0,1-.1,3.5Zm77.6-9.1a3.3,3.3,0,0,1-1.1,2.5,31.7,31.7,0,0,1-22.6,9,33.4,33.4,0,0,1-2.9-66.7h2.9a32.2,32.2,0,0,1,22.5,8.6,4,4,0,0,1,1.2,2.7,3.5,3.5,0,0,1-1,2.6l-6.8,7a3.7,3.7,0,0,1-5,0,16.9,16.9,0,0,0-10.5-3.8c-8.5,0-15.1,7.1-15.1,16s6.7,15.8,15.3,15.8a15.6,15.6,0,0,0,10.3-3.8c1.5-1.1,4-1,5,.3l6.8,7.3a3,3,0,0,1,1,2.5Zm35.7,11.5h0a32.9,32.9,0,0,1-33.3-33.2A33.3,33.3,0,1,1,905,254.4Zm108-2.1a3.5,3.5,0,0,1-2.7,1.3H999.9a3.7,3.7,0,0,1-3.7-3.1l-3.1-21.2-12,23.1a3.4,3.4,0,0,1-3.2,2h-1.5a3.5,3.5,0,0,1-3.2-2l-12.1-23.1L958,250.5a3.6,3.6,0,0,1-3.5,3.1H944.2a3.7,3.7,0,0,1-3.7-3.5h0v-.8l9.9-58.5a3.6,3.6,0,0,1,3.5-3.1h1.4a3.8,3.8,0,0,1,3.2,2l18.7,34.6,18.6-34.6a3.6,3.6,0,0,1,3.2-2h1.4a3.6,3.6,0,0,1,3.5,3.1l9.9,58.5a4,4,0,0,1-.9,3Zm36.6,2.1h-.1a32.8,32.8,0,0,1-33.2-33.2,33.2,33.2,0,0,1,32.9-33.5h.3a33.4,33.4,0,1,1,3,66.7Zm75.7,0c-12.7,0-19.2-5.6-21-7.2s-2.1-2.5-.8-4.9l4.2-7.2a4.1,4.1,0,0,1,6-1c5.4,3.6,8.9,4.3,11.1,4.3s4-1.3,4-3.2c0-3.9-5.9-6.3-7.8-7.1-11.7-4.6-18.1-12.1-18.1-21.1s7.6-19.3,22.1-19.3c8.6,0,15.5,3.8,19.9,7,2.1,1.3,1.6,4.1,1,5.3l-4.5,6.8a5.2,5.2,0,0,1-3.9,2.2,3.3,3.3,0,0,1-1.9-.6l-.5-.2c-4.6-3.1-8.1-4.6-10.8-4.6s-3.6,1.1-3.6,2.5,1,3.7,8.3,6.7,18.9,8.9,18.9,21.6c0,9.9-8.5,20-22.6,20Zm73.1-52.7a3.6,3.6,0,0,1-3.6,3.6h-22.2v7h17.9a3.5,3.5,0,0,1,3.6,3.5v9.5a3.7,3.7,0,0,1-3.6,3.7h-17.9v7.8h22.2a3.7,3.7,0,0,1,3.6,3.7V250a3.6,3.6,0,0,1-3.6,3.6h-36.2a3.6,3.6,0,0,1-3.6-3.6V192.2a3.6,3.6,0,0,1,3.6-3.6h36.2a3.6,3.6,0,0,1,3.6,3.6Zm38.6,52.7h-.3a32.9,32.9,0,0,1-33.3-32.6v-.6a33.4,33.4,0,1,1,33.6,33.2Z"/><path d="M1236.6,204.4a17,17,0,0,0-16.6,16.8,16.7,16.7,0,0,0,17.7,15.6,16.2,16.2,0,1,0-1.1-32.4Z"/><path d="M614.2,312.8h-9v26.3H614c7.2,0,10.9-4.5,10.9-13.8a16.3,16.3,0,0,0-2.4-9.3C620.9,313.8,618,312.8,614.2,312.8Zm2.6,18.7h0c-.5,1-1.4,1.5-3,1.5h-1.4V319.1h1.4a3.1,3.1,0,0,1,3,1.6,18.8,18.8,0,0,1,.7,5.3A17,17,0,0,1,616.8,331.5Z"/><rect x="627.2" y="319" width="7.1" height="20.15"/><path d="M633.7,312.5a3.9,3.9,0,0,0-2.9-.9,4.2,4.2,0,0,0-3.1.9,3.6,3.6,0,0,0-.9,2.4,3.8,3.8,0,0,0,.9,2.5,4.8,4.8,0,0,0,3.1.7,5,5,0,0,0,2.9-.7,3.3,3.3,0,0,0,.8-2.5A3,3,0,0,0,633.7,312.5Z"/><path d="M643.1,325.6c-.6-.3-.9-.4-.9-.8s.3-.7.8-.7a29,29,0,0,1,5.9.9l.7-5.9a30,30,0,0,0-6.7-.8,7.6,7.6,0,0,0-5.2,1.7,5.7,5.7,0,0,0-1.8,4.8,5.9,5.9,0,0,0,1.6,4.7,16.6,16.6,0,0,0,5.5,3.1c.8.3,1,.5,1,.9s-.4.7-1.2.7a25.7,25.7,0,0,1-5.5-1.2l-.5,5.7a24.4,24.4,0,0,0,6.6.9,7.1,7.1,0,0,0,5-1.7,6.2,6.2,0,0,0,1.6-4.7,6.1,6.1,0,0,0-1.7-4.8A16.3,16.3,0,0,0,643.1,325.6Z"/><path d="M660.2,318.3c-6.1,0-9,3.5-9,10.6,0,3.2.7,5.9,2.3,7.8a8.1,8.1,0,0,0,6.7,2.9,25.1,25.1,0,0,0,7.2-1.1l-.7-5.3a34.5,34.5,0,0,1-5.4,1.1c-2,0-3-1.2-3-3.3h9.8c.1-2.8.2-4.3.2-4.6a9.2,9.2,0,0,0-1.9-6C665.1,319,663,318.3,660.2,318.3Zm1.7,9h-3.7a8.3,8.3,0,0,1,.3-2.2,1.4,1.4,0,0,1,1.5-.8h0c1.3,0,1.9.7,1.9,2.1Z"/><path d="M680.5,311.1v1.4l-.8-.2a18,18,0,0,0-3.9-.8,2.9,2.9,0,0,0-2.8,1.4,7.3,7.3,0,0,0-.7,4.1v.4h4.6V316l1,.3a9.6,9.6,0,0,0,3.3.6c1.6,0,2.7-.4,3.2-1.4a7.3,7.3,0,0,0,.7-4.1v-.3Z"/><path d="M682.6,318.3a7.2,7.2,0,0,0-5,2h-.2l-.5-1.5h-6.5v20.3h7.2V325.5a2.6,2.6,0,0,1,1.9-.7c.7,0,1,.3,1,1.1v13.2h7.2V323.5a6.3,6.3,0,0,0-1-4C685.9,318.7,684.5,318.3,682.6,318.3Z"/><path d="M698.9,318.3c-3.1,0-5.2.8-6.6,2.5s-2.3,4.3-2.3,8.1.9,6.5,2.3,8.2,3.5,2.5,6.6,2.5,5.4-.8,6.8-2.5,1.9-4.4,1.9-8.2-.6-6.5-2-8.2S702,318.3,698.9,318.3Zm1.3,15a1.1,1.1,0,0,1-1.2,1h-.1a1.4,1.4,0,0,1-1.4-1,23.4,23.4,0,0,1-.3-3.8v-1.1a21.9,21.9,0,0,1,.3-3.6,1.5,1.5,0,0,1,1.4-.8,1.3,1.3,0,0,1,1.4.8h0a11,11,0,0,1,.3,3.6v1.3a8.7,8.7,0,0,1-.4,3.6Z"/><path d="M735.9,332.9V312h-7.1v7.3a6.3,6.3,0,0,0-8.5,1.6,16.3,16.3,0,0,0-1.7,8.1c0,3.5.5,6,1.5,7.9s2.8,2.7,5.4,2.7a4.4,4.4,0,0,0,4.2-2.2h.4c.4,1.5,1.8,2.2,3.9,2.2l2.9-.2.6-5.1a3.1,3.1,0,0,1-1.3-.3A2,2,0,0,1,735.9,332.9Zm-6.9.8a4.1,4.1,0,0,1-1.6.3,1.9,1.9,0,0,1-1-.3,3,3,0,0,1-.4-1l-.3-1.5v-2.8a17.1,17.1,0,0,1,.3-3.1c.2-.7.6-1.1,1.2-1.1a3,3,0,0,1,1.8.6Z"/><path d="M747.8,318.3c-6.1,0-9,3.5-9,10.6a11.9,11.9,0,0,0,2.4,7.8,8.1,8.1,0,0,0,6.6,2.9,24.6,24.6,0,0,0,7.2-1.1l-.6-5.3a33.5,33.5,0,0,1-5.5,1.1c-2,0-2.9-1.2-2.9-3.3h9.7c.2-2.8.3-4.3.3-4.6a9.2,9.2,0,0,0-1.9-6Q752.1,318.3,747.8,318.3Zm1.8,8.1v.9h-3.7a4.2,4.2,0,0,1,.3-2.2,1.4,1.4,0,0,1,1.4-.8h.5a1.8,1.8,0,0,1,1.5,2Z"/><path d="M776.1,312.8h-8.6v26.3h7.1v-8.5h1.9a9.2,9.2,0,0,0,6.5-2.2c1.4-1.2,2.1-3.6,2.1-6.8s-.9-5.4-2.2-6.7S779.2,312.8,776.1,312.8Zm1.3,12a1.6,1.6,0,0,1-1.6.7h-1.2v-6.7h1a1.8,1.8,0,0,1,1.7.7,5.2,5.2,0,0,1,.5,2.7A7.8,7.8,0,0,1,777.4,324.8Z"/><path d="M801.8,332.9v-8.8c0-2-.4-3.5-1.4-4.4s-2.6-1.4-5-1.4a39.3,39.3,0,0,0-9.1,1.4l1.1,6.2a28,28,0,0,1,6.4-1.3h.4a1.3,1.3,0,0,1,.8,1.3v1c-3.2.3-5.6.8-7,1.7s-2.1,2.6-2.1,4.9a6.1,6.1,0,0,0,1.3,4.5,4.7,4.7,0,0,0,3.8,1.6,5.8,5.8,0,0,0,4.9-2.2h.2c.6,1.5,1.9,2.2,4.1,2.2l2.6-.2.7-5.1a2.1,2.1,0,0,1-1.3-.3C801.9,333.9,801.8,333.5,801.8,332.9Zm-6.5,0c0,1.2-.4,1.7-1.5,1.7h0c-.9,0-1.3-.5-1.3-1.6a1.5,1.5,0,0,1,.6-1.5,5.5,5.5,0,0,1,2.2-.6Z"/><polygon points="800.7 311.1 793.9 311.1 791.2 317 796.2 317 800.7 311.1"/><path d="M807.1,320.1a6,6,0,0,0-2.1,5.2,8.7,8.7,0,0,0,.7,3.9,7.9,7.9,0,0,0,2.3,2.5q-3.3,1.4-3.3,3.9a3.6,3.6,0,0,0,2.1,3.3v.2a2.4,2.4,0,0,0-1.6,2.1,3.1,3.1,0,0,0,2,3.3,14.9,14.9,0,0,0,6.3.9,11.9,11.9,0,0,0,6.4-1.5c1.6-1.1,2.3-2.3,2.3-5.1s-1.5-4.2-4.8-4.2h-5.8c-.6,0-.7-.2-.7-.7h0a.6.6,0,0,1,.6-.6h2.2c5.2,0,7.7-2.3,7.7-6.8a4.4,4.4,0,0,0-1.3-3.1v-.3H823v-4.7h-9.9A8.8,8.8,0,0,0,807.1,320.1Zm4.3,19.5h4.3c.5,0,.8.2.8.6v.3a.8.8,0,0,1-.8.6h-4.3c-.5,0-.8-.2-.8-.6h0C810.6,339.8,810.9,339.6,811.4,339.6Zm3.3-15.1a6.4,6.4,0,0,1,.3,2c0,1.6-.5,2.5-1.5,2.5s-1.5-.9-1.5-2.6a3.1,3.1,0,0,1,.3-1.9,1.1,1.1,0,0,1,1.1-.7,1.7,1.7,0,0,1,1.3.7Z"/><rect x="824.5" y="319" width="7" height="20.15"/><path d="M830.9,312.5a5.3,5.3,0,0,0-5.9,0,3,3,0,0,0-.8,2.4,3.3,3.3,0,0,0,.8,2.5,6.8,6.8,0,0,0,5.9,0,3.4,3.4,0,0,0,.9-2.5A2.7,2.7,0,0,0,830.9,312.5Z"/><path d="M846.5,318.3a7.7,7.7,0,0,0-5.2,2h-.2l-.4-1.5h-6.6v20.3h7.2V325.5a3.1,3.1,0,0,1,2.1-.7c.6,0,.9.3.9,1.1v13.2h7.2V323.5a6.4,6.4,0,0,0-1.1-4C849.7,318.7,848.3,318.3,846.5,318.3Z"/><path d="M869.2,332.9l.2-8.8c0-2-.3-3.5-1.4-4.4s-2.7-1.4-5-1.4a31.4,31.4,0,0,0-9.1,1.4l1,6.2a28,28,0,0,1,6.4-1.3h.4a1.1,1.1,0,0,1,.8,1.3v1c-3.2.3-5.4.8-6.9,1.7s-2.2,2.6-2.2,4.9a6.7,6.7,0,0,0,1.4,4.5,4.4,4.4,0,0,0,3.7,1.6,5.7,5.7,0,0,0,5-2.2h.1c.6,1.5,1.9,2.2,4.1,2.2l2.6-.2.8-5.1a2.2,2.2,0,0,1-1.4-.3A1.6,1.6,0,0,1,869.2,332.9Zm-6.4,0c0,1.2-.5,1.7-1.6,1.7s-1.3-.5-1.3-1.6a1.7,1.7,0,0,1,.6-1.5,6,6,0,0,1,2.3-.6Z"/><path d="M884,328.4a18,18,0,0,0-5.1-2.8c-.6-.3-1-.5-1-.8s.3-.7.9-.7a30.1,30.1,0,0,1,5.9.9l.6-5.9a30,30,0,0,0-6.7-.8c-2.3,0-4,.5-5.2,1.7a6.6,6.6,0,0,0-1.9,4.8,6,6,0,0,0,1.8,4.7,15,15,0,0,0,5.5,3.1c.6.3.9.5.9.9s-.4.7-1.2.7a26.6,26.6,0,0,1-5.6-1.2l-.4,5.7a24.4,24.4,0,0,0,6.6.9c2.3,0,3.9-.5,5-1.7a6.2,6.2,0,0,0,1.7-4.7A6.6,6.6,0,0,0,884,328.4Z"/><polygon points="915.5 326.7 915 326.7 913.1 312.8 906 312.8 904.2 326.7 903.8 326.7 902.6 312.8 895.6 312.8 898.4 339.1 907.3 339.1 909.2 327.4 909.5 327.4 911.8 339.1 920.6 339.1 922.9 312.8 916.3 312.8 915.5 326.7"/><path d="M933.8,318.3c-6,0-9,3.5-9,10.6a12.5,12.5,0,0,0,2.3,7.8,8.1,8.1,0,0,0,6.7,2.9,24.5,24.5,0,0,0,7.1-1.1l-.6-5.3a33.5,33.5,0,0,1-5.5,1.1c-1.8,0-2.8-1.2-2.8-3.3h9.7c.1-2.8.2-4.3.2-4.6,0-2.6-.6-4.6-1.9-6S936.7,318.3,933.8,318.3Zm1.7,9h-3.7a5.7,5.7,0,0,1,.4-2.2,1.2,1.2,0,0,1,1.4-.8c1.2,0,1.9.7,1.9,2.1Z"/><path d="M954.8,318.3a5.7,5.7,0,0,0-3.6.9H951V312h-7.1v27.1h5.6l.4-1.2h.1c1,1.2,1.9,1.7,4.6,1.7s4.5-.9,5.4-2.7a18.9,18.9,0,0,0,1.5-8.3c0-3.7-.4-6.4-1.4-8S957.5,318.3,954.8,318.3Zm-.5,10.3c0,1.3-.1,2.2-.1,2.7a7.6,7.6,0,0,1-.1,1.5.9.9,0,0,1-.1.5,1.3,1.3,0,0,1-1.5.8l-1.5-.4v-8.9a5.3,5.3,0,0,1,1.8-.5,1.3,1.3,0,0,1,1.1,1.2,10.6,10.6,0,0,1,.4,3.1Z"/><path d="M981.6,324.5a12,12,0,0,1,3.7,1l.8-6.2a15.4,15.4,0,0,0-5.6-1,7,7,0,0,0-6,3,13.9,13.9,0,0,0-2.2,7.9,12.6,12.6,0,0,0,2.1,7.7,7.2,7.2,0,0,0,6.1,2.7,17.8,17.8,0,0,0,5.2-1l-.7-5.4-3.4.5a1.8,1.8,0,0,1-1.7-1.1,8,8,0,0,1-.4-3.4,8.9,8.9,0,0,1,.4-3.6A1.6,1.6,0,0,1,981.6,324.5Z"/><path d="M995.9,318.3c-3.1,0-5.2.8-6.7,2.5s-2.2,4.3-2.2,8.1.7,6.5,2.1,8.2,3.7,2.5,6.8,2.5,5.3-.8,6.7-2.5,2-4.4,2-8.2-.6-6.5-2-8.2S999,318.3,995.9,318.3Zm1.3,15a1.3,1.3,0,0,1-1.4,1,1.1,1.1,0,0,1-1.3-1,12,12,0,0,1-.3-3.8v-1.1a11,11,0,0,1,.3-3.6,1.3,1.3,0,0,1,1.3-.8,1.2,1.2,0,0,1,1.4.8h0a14.7,14.7,0,0,1,.4,3.6v1.3a14.7,14.7,0,0,1-.4,3.6Z"/><path d="M1019.1,318.3a7.7,7.7,0,0,0-5.2,2h-.1l-.5-1.5h-6.4v20.3h7.1V325.5a3.1,3.1,0,0,1,2-.7c.6,0,.9.3.9,1.1v13.2h7.2V323.5a5.4,5.4,0,0,0-1.1-4C1022.2,318.7,1021,318.3,1019.1,318.3Z"/><path d="M1044.9,312.8h-8.7v26.3h7.1v-8.5h2a9.2,9.2,0,0,0,6.5-2.2c1.4-1.2,2.1-3.6,2.1-6.8s-.9-5.4-2.2-6.7S1048,312.8,1044.9,312.8Zm1.2,12a1.5,1.5,0,0,1-1.5.7h-1.3v-6.7h1.1a1.8,1.8,0,0,1,1.7.7,6.5,6.5,0,0,1,.5,2.7,4.8,4.8,0,0,1-.5,2.6Z"/><path d="M1064,318.3c-3.1,0-5.4.8-6.8,2.5s-2.1,4.3-2.1,8.1.6,6.5,2.1,8.2,3.7,2.5,6.8,2.5,5.2-.8,6.6-2.5,2-4.4,2-8.2-.7-6.5-2-8.2S1067.1,318.3,1064,318.3Zm1.2,15a1.4,1.4,0,0,1-2.7.1h0a15.9,15.9,0,0,1-.2-3.8v-1.1a14.5,14.5,0,0,1,.2-3.6,1.5,1.5,0,0,1,1.4-.8,1.1,1.1,0,0,1,1.3.8,14.7,14.7,0,0,1,.4,3.6v1.3a8.9,8.9,0,0,1-.4,3.6Z"/><path d="M1081.2,325.6c-.7-.3-1-.4-1-.8s.3-.7.9-.7a28.2,28.2,0,0,1,5.7.9l.9-5.9a30.8,30.8,0,0,0-6.8-.8,7.4,7.4,0,0,0-5.2,1.7,5.5,5.5,0,0,0-1.9,4.8,6.4,6.4,0,0,0,1.7,4.7,16.1,16.1,0,0,0,5.6,3.1c.6.3.8.5.8.9s-.3.7-1.1.7a26.6,26.6,0,0,1-5.6-1.2l-.5,5.7a25.7,25.7,0,0,0,6.7.9,6.9,6.9,0,0,0,4.9-1.7c1.2-1,1.7-2.7,1.7-4.7a6.5,6.5,0,0,0-1.7-4.8A18,18,0,0,0,1081.2,325.6Z"/><path d="M1096,312.5c-.5-.7-1.5-.9-2.9-.9a4,4,0,0,0-3,.9,3,3,0,0,0-.8,2.4,3.3,3.3,0,0,0,.8,2.5,4.5,4.5,0,0,0,3,.7,5,5,0,0,0,2.9-.7,3.4,3.4,0,0,0,.9-2.5A2.7,2.7,0,0,0,1096,312.5Z"/><rect x="1089.6" y="319" width="7" height="20.15"/><path d="M1108.2,324.5a9.7,9.7,0,0,1,3.7,1l.8-6.2a14.4,14.4,0,0,0-5.4-1,7.1,7.1,0,0,0-6.2,3,14,14,0,0,0-2.1,7.9,13.2,13.2,0,0,0,2.1,7.7,6.9,6.9,0,0,0,6,2.7,19.1,19.1,0,0,0,5.3-1l-.8-5.4-3.4.5a1.8,1.8,0,0,1-1.7-1.1,9.8,9.8,0,0,1-.3-3.4,8.9,8.9,0,0,1,.4-3.6A1.5,1.5,0,0,1,1108.2,324.5Z"/><path d="M1120.6,312.5a4,4,0,0,0-3-.9,3.9,3.9,0,0,0-2.9.9,3.8,3.8,0,0,0,0,4.9,6.8,6.8,0,0,0,5.9,0,3.4,3.4,0,0,0,.9-2.5A3,3,0,0,0,1120.6,312.5Z"/><rect x="1114.1" y="319" width="7" height="20.15"/><path d="M1132.5,318.3c-3.2,0-5.4.8-6.8,2.5s-2.1,4.3-2.1,8.1.6,6.5,2,8.2,3.8,2.5,6.9,2.5,5.1-.8,6.5-2.5,2.1-4.4,2.1-8.2-.8-6.5-2.1-8.2S1135.6,318.3,1132.5,318.3Zm1.2,15a1.4,1.4,0,0,1-1.8,1,1.5,1.5,0,0,1-.9-1,15.8,15.8,0,0,1-.3-3.8v-1.1a14.6,14.6,0,0,1,.3-3.6,1.4,1.4,0,0,1,1.3-.8,1.2,1.2,0,0,1,1.4.8,14.7,14.7,0,0,1,.4,3.6v1.3a14.7,14.7,0,0,1-.4,3.6Z"/><path d="M1155.6,318.3a7.7,7.7,0,0,0-5.2,2h-.2l-.4-1.5h-6.4v20.3h7.1V325.5a3.1,3.1,0,0,1,2-.7c.6,0,1,.3,1,1.1v13.2h7.2V323.5a5.9,5.9,0,0,0-1.2-4Q1158.4,318.3,1155.6,318.3Z"/><path d="M1178.4,332.9l.2-8.8a5.9,5.9,0,0,0-1.5-4.4c-.9-1-2.6-1.4-5-1.4a30.9,30.9,0,0,0-9.1,1.4l1.1,6.2a28,28,0,0,1,6.4-1.3c.8,0,1.1.4,1.1,1.3v1a18.4,18.4,0,0,0-6.9,1.7c-1.4,1-2.1,2.6-2.1,4.9a7.2,7.2,0,0,0,1.3,4.5,4.7,4.7,0,0,0,3.8,1.6,5.6,5.6,0,0,0,4.9-2.2h.2c.5,1.5,1.9,2.2,4,2.2l2.8-.2.5-5.1a3.5,3.5,0,0,1-1.4-.3A1.4,1.4,0,0,1,1178.4,332.9Zm-6.5,0c0,1.2-.5,1.7-1.5,1.7s-1.4-.5-1.4-1.6a1.8,1.8,0,0,1,.8-1.5,5.1,5.1,0,0,1,2.1-.6Z"/><path d="M1204.1,318.3a7.2,7.2,0,0,0-5,2l-.4.3c-.7-1.6-2.1-2.3-4.3-2.3a8,8,0,0,0-5.5,2h-.1l-.4-1.5h-6.6v20.3h7.1V325.5a3.1,3.1,0,0,1,2-.7c.7,0,1,.3,1,1.1v13.2h7.2V325.5a2.9,2.9,0,0,1,2-.7c.7,0,.9.3.9,1.1v13.2h7.2V323.5a6.3,6.3,0,0,0-1-4A5.9,5.9,0,0,0,1204.1,318.3Z"/><path d="M1218.4,312.5c-.5-.7-1.5-.9-2.9-.9a4,4,0,0,0-3,.9,3,3,0,0,0-.8,2.4,3.3,3.3,0,0,0,.8,2.5,4.5,4.5,0,0,0,3,.7,5,5,0,0,0,2.9-.7,3.4,3.4,0,0,0,.9-2.5A2.7,2.7,0,0,0,1218.4,312.5Z"/><rect x="1212" y="319" width="7" height="20.15"/><path d="M1230.4,318.3c-6.1,0-9,3.5-9,10.6,0,3.2.7,5.9,2.3,7.8a8.5,8.5,0,0,0,6.7,2.9,25.1,25.1,0,0,0,7.2-1.1l-.6-5.3a34.7,34.7,0,0,1-5.6,1.1c-1.9,0-2.9-1.2-2.9-3.3h9.7c.2-2.8.3-4.3.3-4.6a9.5,9.5,0,0,0-1.8-6C1235.5,319,1233.2,318.3,1230.4,318.3Zm1.8,8.1v.9h-3.7a4.2,4.2,0,0,1,.3-2.2,1.4,1.4,0,0,1,1.4-.8h.5a1.8,1.8,0,0,1,1.5,2Z"/><path d="M1252.8,318.3a7.9,7.9,0,0,0-5.3,2h-.1l-.4-1.5h-6.4v20.3h7.1V325.5a2.7,2.7,0,0,1,2-.7c.6,0,.9.3.9,1.1v13.2h7.2V323.5a4.3,4.3,0,0,0-5-5.2Z"/><path d="M1268.7,315.1h-6.4l-.5,3.9h-2.3v5.3h1.9v10a5.3,5.3,0,0,0,1.4,4.1,5.2,5.2,0,0,0,3.6,1.2,50.7,50.7,0,0,0,5.5-.3l.2-5.8-2.6.2h-.2a.9.9,0,0,1-.7-.9v-8.5h3.5l.3-5.3h-3.7Z"/><path d="M1282.4,318.3c-3,0-5.4.8-6.7,2.5s-2.2,4.3-2.2,8.1.8,6.5,2.2,8.2,3.6,2.5,6.8,2.5,5.2-.8,6.6-2.5,2.1-4.4,2.1-8.2-.7-6.5-2.1-8.2S1285.4,318.3,1282.4,318.3Zm1.4,15a1.4,1.4,0,0,1-1,1,1.4,1.4,0,0,1-1.8-.9h0a9.7,9.7,0,0,1-.3-3.8v-1.1a11,11,0,0,1,.3-3.6,1.3,1.3,0,0,1,1.4-.8,1.2,1.2,0,0,1,1.4.8,14.5,14.5,0,0,1,.2,3.6v1.3a14.5,14.5,0,0,1-.2,3.6Z"/></g></svg>