<svg xmlns="http://www.w3.org/2000/svg" viewBox="0 0 512 512"><g fill="#0b0b0b"><path d="M512,163.8c-13.2,16.8-26.2,33.6-39.3,50.4a2.8,2.8,0,0,1-2.8,1.4c-32.6-.1-65.3-.6-97.9-.1,10.3,3.4,20.4,5.9,30.8,9L349,372.4H270.6c18-52.3,38.5-104.6,56.7-157h-77v.2l39.3,9.3c-5.7,17-13.4,39-33.5,42.5,10.9,1.2,12.9,11.7,9.9,20.7-4.2,12.9-8,26-13,38.6-7.8,21.3-23,43.8-47.6,45.5-68.5,1-136.9,0-205.4.3,12.6-10.1,26.5-19.2,39.6-28.9a4.2,4.2,0,0,0,1.6-2.3Q54.6,294.9,68,248.6H204.2l13.6-33.3H73.1c.3-1.2,29.7-50.6,31.5-52.9,135.8.3,271.6.2,407.4,1.2ZM93.8,320h85.7c4.1-11.2,8.3-22.4,12.4-33.7-2.2-.3-120.3-.2-121.5.1l32.3,9.3Z"/><path d="M224.1,452.6l-2.1-.2c-44.2-2.1-83.4-17.3-117.6-45.3a194.3,194.3,0,0,1-25.7-25.6l-1.1-1.4h.9l12.6-.3a2.6,2.6,0,0,1,2.5,1,184.3,184.3,0,0,0,105.5,57.5,180,180,0,0,0,38.8,2.5c46.9-2.5,87.4-19.8,121.3-52.3a171.1,171.1,0,0,0,23.3-27.6,10.9,10.9,0,0,1,1.3-1.7,5.9,5.9,0,0,1,7.9-.8,5.7,5.7,0,0,1,1.6,7.4l-.6.9q-42,60.6-113.2,79.6a177.9,177.9,0,0,1-29.7,5.3l-12.6.9-1.5.2Z"/><path d="M236.5,59.4l2,.2C278.2,61.2,313.9,73.8,346,97a193,193,0,0,1,54.7,60.8l.9,1.6H389.4a1.9,1.9,0,0,1-2-1.1A185.5,185.5,0,0,0,264,74.1,189,189,0,0,0,225,71l-4.3.2a12.8,12.8,0,0,1-2.7-.5,5.5,5.5,0,0,1-3.6-5.4,5.6,5.6,0,0,1,3.7-5.3l1.7-.6Z"/><path d="M43.1,316.8l-.7-1.9A195.3,195.3,0,0,1,53.6,169.2a197.6,197.6,0,0,1,37.8-52.8c3.7-3.6,7.5-6.9,11.3-10.4a6.3,6.3,0,0,1,3.7-1.7,5.6,5.6,0,0,1,5.7,2.9,5.8,5.8,0,0,1-.6,6.5,9.8,9.8,0,0,1-1.8,1.7,187.3,187.3,0,0,0-51.2,71.3,183.7,183.7,0,0,0-13.4,73,179.1,179.1,0,0,0,4.2,35.1,5.3,5.3,0,0,1-.1,2.8l-5.6,17.6C43.5,315.6,43.3,316,43.1,316.8Z"/><path d="M52.8,285.8c-13.7-77,26.8-167.1,117.7-199.6,82.6-29.4,170.6,5.7,212.4,73.2a17.7,17.7,0,0,1-4.6,0c-.3,0-.7-.5-1-.9-2.6-3.7-5.1-7.5-7.9-11q-37.5-47.1-95.7-62.1a176.6,176.6,0,0,0-28.2-4.7,173.3,173.3,0,0,0-29.7,0q-63.2,5.8-108.6,49.9C83.8,153.3,68.3,180.7,60,212.2A175.1,175.1,0,0,0,55.2,239a170.9,170.9,0,0,0-.4,28.6c.2,2.9.5,5.8.7,8.7a3.4,3.4,0,0,1,0,1Z"/><path d="M246.3,434a6.5,6.5,0,0,1-5.3,2.4c-5.5,0-11.1.4-16.6.2a180.8,180.8,0,0,1-119.9-51.3c-1.9-1.8-3.7-3.7-5.6-5.6a3,3,0,0,1,1.8-.3c1.3,0,2.7-.3,3.8.1s1.8,1.7,2.7,2.5a174.9,174.9,0,0,0,67.7,41.4,180.8,180.8,0,0,0,33.5,7.6,177.5,177.5,0,0,0,33.4,1.1,4.3,4.3,0,0,1,2.9.8A11.1,11.1,0,0,0,246.3,434Z"/><path d="M114.7,99.1a2.9,2.9,0,0,1,.9-2.6,16.9,16.9,0,0,1,3.2-2.7c6.4-4.2,12.9-8.4,19.7-12a182.7,182.7,0,0,1,19.2-8.7,8.3,8.3,0,0,1,3.4-.7,5.5,5.5,0,0,1,5.2,3.7,5.5,5.5,0,0,1-1.5,6.2,8.1,8.1,0,0,1-2.7,1.6c-5.1,2.4-10.4,4.5-15.5,7a159.7,159.7,0,0,0-21.5,12.7l-1.7,1.1a5.8,5.8,0,0,1-8.7-4.7Z"/><path d="M389.7,341.9c-1.3,2.3-2.3,4.2-3.5,6.1q-27.7,46.3-76.1,70.3c-4.3,2.1-8.7,3.9-13.1,5.7a4.4,4.4,0,0,1-2.3.2,1.5,1.5,0,0,1-1.5-1.3,1.9,1.9,0,0,1,.7-2l1.6-.8c5.9-2.5,11.7-5,17.4-8a175.6,175.6,0,0,0,71-68.6,4.1,4.1,0,0,1,.7-1.1c.1-.2.4-.5.6-.5Z"/><path d="M411.2,263.3h-4.1c-.1-5.2-.1-10.5-.4-15.7s-.7-10.4-1.4-15.5-1.7-10.3-2.6-15.6h4.1A184,184,0,0,1,411.2,263.3Z"/><path d="M410.9,216.5h11.8a13.1,13.1,0,0,1,.8,4.8,5.7,5.7,0,0,1-10.4,2.8,4.6,4.6,0,0,1-.7-1.4C411.9,220.7,411.4,218.7,410.9,216.5Z"/></g></svg>