<svg xmlns="http://www.w3.org/2000/svg" viewBox="0 0 1300 512" class="svg-src"><defs><linearGradient id="logo-bg" y1="50%" x2="100%" y2="50%" gradientUnits="userSpaceOnUse"><stop offset="0.25" stop-color="#a254fd"/><stop offset="0.4" stop-color="#ea659b"/><stop offset="0.5" stop-color="#ea659b"/><stop offset="0.6" stop-color="#ea659b"/><stop offset="0.75" stop-color="#ea4233"/></linearGradient></defs><g id="logo" fill="url(#logo-bg)"><path d="M343.9,295.8a68.8,68.8,0,0,0,3.2-38.6c-1-4.7-2.8-9.1-4.2-13.7s-1.9-8.9.4-13.3,8-6.7,13.4-4.3c6.9,3.1,10.8,8.9,14.2,15.3a103,103,0,0,0,7.6,10.3,2.3,2.3,0,0,0,4.1-1.8c-.4-2.8-.9-5.6-1.3-7.2-1.5-6.4-1.3-11.5,2.1-17.3s9.8-6.9,15-6.4,9.3,5.3,9.7,9.9a113.8,113.8,0,0,1-.2,16.5c-.5,6.6-1.8,13.1-2.1,19.7-.4,10.5,2.8,20.3,6.8,30a56.3,56.3,0,0,1,4.2,15.6c.8,8.7-6.3,13.8-14.7,11.5a14.5,14.5,0,0,1-9.7-8.3c-3-7.3-5.3-14.8-7.7-22.3-1.1-3.5-1.9-7.1-2.8-10.7-2.3-9.6-8.6-16.1-15.2-22.7-.7-.7-2-1.8-3.4-1s-1.5,2.2-.8,4.8a69.7,69.7,0,0,0,7.1,17.9c5.5,9.7,9.6,19.7,11.5,30.6,1.6,9.4-1.9,18.8-8.9,22.4-11.1,5.8-29.5,2-31.3-16-.2-1.7-.2-3.3-.3-5A81,81,0,0,1,343.9,295.8Z"/><path d="M794.6,245.3c.3,5.2.1,12.2.8,14.1a3.8,3.8,0,0,0,4.6,2.8,4.2,4.2,0,0,0,3.8-4.2,48,48,0,0,0-.3-9.3c-.7-5.4-2.4-10.6-2.6-15.9-.3-13,13.8-20.9,25.3-14.4,7.2,4.1,10.2,10.5,11,18.4a44.7,44.7,0,0,1-3.1,21.4c-2.6,6.7-1.8,13.2-.3,19.9,1.9,8.7,3.9,17.3,4.7,26,.3,4.1.4,15.2-11.7,17.4-8,1.5-15.2-3.4-17.2-11.3s-.1-14.6,2.1-21.8,4.7-12.5,5.9-19-1.1-7.8-2.4-8a4,4,0,0,0-4.5,3.5,98.8,98.8,0,0,1-2.4,13.4c-2.3,8-9.2,9.9-15.1,4-3.4-3.4-4.3-8-5.5-12.4a44.9,44.9,0,0,0-2.5-7.3,3.5,3.5,0,0,0-3.4-1.8,3.6,3.6,0,0,0-2.8,2.5,28,28,0,0,0,2.5,18.4c3.9,7.8,8.1,15.6,11.2,23.7a13.3,13.3,0,0,1-3.7,15.4c-4.7,4.1-11.8,4.4-17.9.9s-7.5-8.7-6.3-14.8,2.9-13.2,4.4-19.8a35.9,35.9,0,0,0-1.1-20c-4.1-11.6-4.5-23.4-2.3-35.4,1.1-5.6,4.6-8.8,9.8-10.2s9.5,0,13.2,4.2C794,231.7,793.8,238.9,794.6,245.3Z"/><path d="M244,280.8a24.5,24.5,0,0,0-.8,3.7c-.9,9,.5,17.6,3.2,26.1s-2.3,15.2-12,13.9-14.9-6.6-14.6-17.3c.3-8.2.8-12.2,3.6-19.9.5-1.4,2.1-5.3,3.4-7.9,2.8-5.9,2.7-10.8-1.1-15.8s-6.3-12.3-6.7-19.5c-.6-11.5,7.1-19.7,15.5-23.4,10.7-4.7,28.5-.7,35,11.2,4.9,8.9,6,18,2.6,27.2-2.9,5.7-5,6.7-7.6,10.1s-3.6,4-4.8,6.4-.5,6,2.2,8.2,5.3,4.5,7.6,6.6,7.4,5.8,10.2,9.8c1.5,2.2,1.7,5.9,1.2,8.6-1.7,7.9-11.5,13.4-18.9,10.4a13.5,13.5,0,0,1-7-6.7c-3.5-8.2-6.3-16.7-9.1-25.1C245.2,285.3,244.3,280.8,244,280.8Zm3.5-17.4c.8-2.9,1.6-6.6,2.8-10.1s5.5-4.8,9.8-6c-8.9-2.1-11.7-8.1-12.2-15.9-1,8.3-4.7,13.9-13.8,15.2C244.6,250.9,245,251.5,247.5,263.4Z"/><path d="M515.4,293.8c0-7.9.5-15.6-.1-23.2-.5-5.8-2.7-11.4-3.3-17.1-1.3-10.7-.2-20.9,8-29a23.1,23.1,0,0,1,7.1-4.9c8.3-3.9,16.4-8.7,26.1-8.2,6.3.3,11.9,2.1,15.5,7.8,2.5,3.8,1.7,8,1.7,12.2-.1,13.7-15.5,21.5-27.3,17a70.4,70.4,0,0,0-9.9-3c-4.8-1.1-8.9,1.1-9.6,5-1,5.7,2.1,10.6,7.4,10.8s7.6-.7,11.4-1,6.2-1,8.9-.2c6.8,1.9,8.8,11.2,3.9,16.4s-7.8,4.9-12.7,4.9-7.4,0-9.6,3.8-2,6.3.3,8.3a10,10,0,0,0,6.5,1.9c3.1-.3,6-1.8,9.1-2.3,5.6-1,11.2-1.3,16.4,1.7a10.6,10.6,0,0,1,5.2,7.7c2.6,15.4-11.8,25.2-22.5,23.1-5.5-1.1-10.9-2.6-16.3-4.2C522.3,318.4,514.3,303.5,515.4,293.8Z"/><path d="M605.6,277.2c4,9.7,8.3,19.4,11.9,29.3s3.6,17.8-.6,26.7c-3.1,6.5-8.6,8.9-15,9.6s-14.9.2-19.9-6.4-4.6-13.2-3.1-20.3,3.5-14.8,5-22.2.4-13.5-1.6-20.1c-4.2-13.7-4.7-27.7-2.6-41.8,1.3-8.7,6.9-12.9,15-15,14.7-3.7,27.1,3.7,32.8,17.3,3.1,7.4,4.4,15.1,1.6,23.1a24.1,24.1,0,0,1-10.8,12.9C614.2,272.7,609.9,274.9,605.6,277.2ZM600,265.5c2.5-1.8,4.4-2.9,6.1-4.3,7.6-5.9,10.4-13.4,7.2-20.9-2.1-5-6.4-8.5-13.1-6.6s-8.4,5.9-6.9,11.7S597.6,258.4,600,265.5Z"/><path d="M660.6,247.9c-.7,2.6-1.9,5.1-2.5,7.7a11.4,11.4,0,0,0,7.3,13c4.4,1.7,8.9-1,8.6-5.7a38.4,38.4,0,0,0-2.1-10.6c-2.6-7.1-3.7-14-.5-21.2s7.1-7.9,16.3-7.2c4.7.4,8.9,5.2,9,10.9.1,4.1-.1,8.6-1.8,12.1-6,11.7-3.9,22.5,1.5,33.5s4.9,21.6-1,32a13.6,13.6,0,0,1-13.8,7.3c-5.3-.5-9.1-3.5-11.4-8.2s-1.4-9.5.4-14.2,3.6-7.5,3-11.9-2.3-5.3-5.9-5.7-4.8.8-5.5,4.5a51.7,51.7,0,0,0-.4,6.8c-.2,3.3-.3,6.7-.7,9.9-.9,5.4-4.9,9.7-9.5,10.5a13.7,13.7,0,0,1-13.5-6.6c-3.9-6.8-3-13.9-1-20.9,1-3.5,2.8-6.7,4.2-10.1,3.7-8.3,2.7-16.7.2-25a35.6,35.6,0,0,1-1.5-14.5c.7-6.4,6.8-9.8,11.9-9.4,7.5.5,10.8,3.9,11,10.9A96.9,96.9,0,0,1,660.6,247.9Z"/><path d="M432.9,255.5a15.7,15.7,0,0,0,14.3-.4c4.3-2.1,8.8-4,13.8-2.6,3.3.9,6.2,2.4,7.1,5.9a9.8,9.8,0,0,1-3,10.3c-3.9,3.6-8.4,5.4-13.7,3.9-3.3-.8-6.3-2.2-9.6-2.9s-6.2-.8-9.5-1.3c1.6,10.9,10.3,21.3,18.9,21.2,3.9,0,7.8-1.1,11.7-1.4a49.7,49.7,0,0,1,10.9-.3c5,.5,8,3.8,9.3,8.5a13.7,13.7,0,0,1-2.7,12.9c-3.8,4.6-9.1,6.4-14.7,6.6s-12.2.3-18-.8c-18.9-3.7-24.3-10.6-28-26.9-2.7-12.2-1.4-24.6-.9-37a34.5,34.5,0,0,1,10.9-24c9.9-9.4,21.8-14.1,35.6-12.7,4.8.5,9,2.5,11.8,6.8,5.6,9,1.2,17.7-9.4,17.9-6.2.2-12.5-.4-18.7-.5s-15,7.1-16.1,14A26.1,26.1,0,0,0,432.9,255.5Z"/><path d="M1024.1,261.6c.6,6.6-2.5,12.1-4.8,17.9a7.7,7.7,0,0,0-.1,5.2c2.7,5.8,6,11.4,8.4,17.3s2.7,9.8-1.2,14.1c-1.6,1.7-9.6,7.2-18.2,3-4.3-2.1-5.1-6.4-5.7-10.6-1-7.4.8-14.1,2.3-21.2a7.9,7.9,0,0,0-3-8.7c-1.6-1.2-5.4-.7-6.9.6s-2.2,4.8-1.8,7c.7,4.5,2.3,8.8,3.6,13.2s.7,10-.7,14.8-9.8,8.6-15.5,6.8-10.4-8.8-8-16,3.9-12,6.1-18,1.7-9.9-.8-14.5c-6.7-12.4-3.4-24.2,1.9-35.8a52.1,52.1,0,0,1,5.6-9c5.7-7.7,20.3-9.4,26.7,1.1,5,8.4,9.4,17,11.4,26.6A42,42,0,0,1,1024.1,261.6Zm-38.2-7.7c8.2.8,12,5.5,12.7,13.8,1-8.4,5-13.2,13.7-13.9-11,.1-12-8.1-14-15.8C997.8,246.4,993.7,251.4,985.9,253.9Z"/><path d="M1060.6,328.7c-5.5.6-10.6-.6-14.8-4.7s-6.5-9.8-4.6-15.6c4.6-13.9,1.9-27-2.7-40.2a56.9,56.9,0,0,1-2.6-29.5c1.7-10,9.1-16.2,18.2-15.8,5.2.3,12.4,6.5,14.2,12.7,3.1,10.8-.6,20.2-4.7,29.8-3.2,7.4-4.4,13.2-6.8,20.9-1.3,3.9-1.7,10.9,1.2,13.3s6.1,2.4,9,.9,6.6-5.3,9.8-8c5.5-4.6,11.8-6.6,18.6-3.9s10.2,8.2,11,15.1-2.2,11.2-7.8,14.1a81,81,0,0,1-11.4,4.8C1080.3,324.8,1062.6,328.7,1060.6,328.7Z"/><path d="M922.7,277.3c2.6,7.1,5.4,13.7,7.4,20.7a23.2,23.2,0,0,1,.1,10.8c-2.1,8.6-12.2,11.1-18.5,4.8-4.7-4.8-5.4-10.7-4.3-16.9,1.4-8.1,2.6-16.3,1.1-24.5-1.1-6.1-2.9-12.1-4.6-18.1s-2.2-12,.2-18a14.6,14.6,0,0,1,11.2-9.5c10.1-1.9,20.1-1.6,29.6,3.1s16.9,17.1,14.6,27.4c-1.5,6.7-5.7,11.1-12.3,12.7-4.4,1.1-9,1.3-13.6,1.6-2.7.2-9.9-.1-12.5-.1-.1.4,6.4,1.7,7.4,2,10.1,2.7,19.9,6.1,27.7,13.4,5.2,4.9,8.6,10.9,7.5,18.3s-2.4,10.2-8.6,11.7a11.3,11.3,0,0,1-14-8.5c-2.3-9.6-4.3-19.4-10.9-27.2A9.5,9.5,0,0,0,922.7,277.3ZM919,262.2c2.5-.3,4.9-.4,7.2-.9,5-1,10.4-1.6,13.3-6.3s.6-11.1-4-12.3a17.7,17.7,0,0,0-9.4.5C918.8,246.1,916.5,253.4,919,262.2Z"/><path d="M303.4,280.2c-2.8.5-3.7,2.7-3.4,5.4s.6,5.7,4.4,6.3,9.7-.2,14.4-1.5,7.6-1.6,10.7,1.9,3.4,11.5-1.9,16.1c-8.1,6.9-17.5,7.9-27.4,6s-16.1-10.3-14.2-20.9c1.5-9,4-18,2.1-27.2a75.7,75.7,0,0,0-3.9-13.1c-2.4-6.3-3.8-12.6-2.5-19.5s6.6-12.5,13.7-14.7c9.2-2.8,18.7-2.5,27.4,1.7s11.9,12.8,9.6,21.6c-1.8,7.1-10.5,11.2-18.5,9.4-3.9-.9-7.7-2-11.7-.5s-5.5,3.9-4.7,7.9,3.3,5.1,7.5,4.4,7-1.9,10.6-2.4,7.9-.5,11.4,2c5,3.8,4.9,9.5,0,13.4-3.4,2.6-7.3,2.8-11.2,2.8C314.8,279.3,306.5,279.5,303.4,280.2Z"/><path d="M744.5,218.2c7.3-.7,15.7,5.3,14.4,13.8a15.1,15.1,0,0,1-9.2,12.1c-5.8,2.7-11.9,4.7-18,7-4.1,1.5-7.5,3.8-9.3,8.1-.9,2.2-.4,4.2,1.3,5.3a7.1,7.1,0,0,0,4.8.3c4.4-1.1,8.7-2.8,13.1-3.6a8.3,8.3,0,0,1,8.5,4.7c1.4,3.8.6,6.9-2.6,9.8-4.8,4.1-10.3,4-16,2.9s-7.4.1-8.5,4.8a3.9,3.9,0,0,0,2.7,4.9,35,35,0,0,0,9.7,1.4c3.8.2,7.7-.3,11.5,0a9.9,9.9,0,0,1,8.2,5.4c3.5,6.5,2.1,16.1-3.4,21-3.5,3.2-8,3.2-12.1,3.2-14.7,0-28.1-11.1-30.3-24.8-.6-3.7-.2-7.7,0-11.5.8-12.2,1.3-24.5,2.6-36.7,1.5-14,11.9-26.1,27.4-27.6Z"/><path d="M846.3,275.7c.3-7.6-.5-15,.4-23.6a24.4,24.4,0,0,1,10-17.4c4.4-3.2,8.7-6.6,13.4-9.5a30,30,0,0,1,18.7-5.1c6.8.5,10.6,9.3,6.8,15.6a20.1,20.1,0,0,1-13.7,9.9c-8,1.7-15.5,4.1-21.7,9.7-2.5,2.2-4.4,4.8-4.3,8.3s2.7,6,6.4,4.3a94,94,0,0,1,11.3-4.9c3.5-1.2,5.5-2,9.2-1.9a8,8,0,0,1,7.9,5.4c1.4,3.8-.2,8.5-3.3,11.1s-8.8,2.7-13.4,2.2-6.7-1-9.9-.7-4.6,1.7-5.4,3.3-.1,5.1,2,7.1c4.2,3.9,9.2,4.9,14.7,4.2a90.1,90.1,0,0,1,11.6-.5c4.2,0,8.6.8,10,5.4s1.4,10.1-2.7,14c-7.5,7-26.3,11.3-36.6-.4-6.6-7.5-10-16.1-11.1-25.9A93.1,93.1,0,0,1,846.3,275.7Z"/><path d="M208.2,275.8c-2.1,5.6-2.1,10.6,1.3,15.7s4.5,12,3.9,18.6-7.7,13.6-15.1,13.8a42.7,42.7,0,0,1-8.7-.8c-10.5-2.4-16.1-12.5-13.3-24.1.8-3.3,2.6-6.3,4-9.5,2.8-6.5,1.6-12.8-1.3-18.9s-2.7-10.1-1.8-15.6c1.2-7.4,7.9-11.6,13.7-12a34.6,34.6,0,0,1,11.9,1.6c7.2,2.3,8.8,8.3,8.7,15C211.8,259.7,210.1,270.7,208.2,275.8Z"/><path d="M195,235.7c-6.3,0-11.3-.6-15.5-4.1s-5.8-7.1-5-12.3,3.9-8,8.4-9.5a33.9,33.9,0,0,1,19.7-1c6.4,1.6,10.3,7.8,9.8,15.1s-4.8,10.4-11.4,11.2Z"/><path d="M311.7,411.9l5.6-9.7a12.3,12.3,0,0,1,2.4-3.1,2.8,2.8,0,0,1,2.5-.3c.7.1,1.6,1.5,1.7,2.5,1.2,7.9,2.3,15.8,3.4,23.7.3,2.3.4,4.4-2.6,5s-3.8-1.5-4.2-3.7c-.8-4.3-1.4-8.6-2.1-12.8-2.1,1.7-4,4.5-6.2,4.8s-4.6-2.2-7-3.4v9.8c0,2.2-.1,4.4-2.6,5s-4.1-.3-4.1-3c0-8.8.2-17.6.4-26.5.1-.9,1.5-2.5,2.2-2.5a4.8,4.8,0,0,1,3.5,1.8,75.8,75.8,0,0,1,4,7.4C309.4,408.3,310.3,409.7,311.7,411.9Z"/><path d="M120.7,421.3a49.7,49.7,0,0,1-5.3.2c-3.5.2-6.4.1-6.4.1s-1.3,3.4-2.3,6.2-1.5,3-3.6,2.7-2.5-2-2.2-3.7a31.8,31.8,0,0,1,1.4-6.1c2.4-7,4.8-14.1,7.4-21.1.6-1.5,2.2-3.4,3.1-3.7a5.4,5.4,0,0,1,6,2.7c2.7,4.6,4.4,9.8,6.3,14.8a82.8,82.8,0,0,1,3,11.4c.3,1,.9,3.1.6,3.9a3.6,3.6,0,0,1-2.5,2.2,2.5,2.5,0,0,1-2.6-1.2,18.3,18.3,0,0,1-2.1-5.2C121.2,423.5,121.4,424.2,120.7,421.3Zm-9.9-5.1,3.9-.2h5.1c-1.9-4.5-4.4-16.1-5.4-12.4"/><path d="M625.4,418.7c.3-3.4,1.4-8.8,1.5-12.2s1.5-3.6,3.7-3.7,2.8,1.9,2.6,3.5c-.6,6-2.1,14.8-3.2,20.7a4.3,4.3,0,0,1-3.1,3.3c-1.9.8-4.3-.7-5.4-2.7-2.6-4.9-4.5-8.2-7-13-.3-.7-1.9-4.8-3-6.1,0,3.5.4,9.8.4,13.3a58.8,58.8,0,0,1-.3,6c-.3,2-1.6,3.6-3.6,3.1s-2.5-.6-2.9-3.2c-.3-4.6.1-11,.3-15.6,0-1.5,0-3,.1-4.4s.3-4,.8-4.9a3,3,0,0,1,2.5-1.4c2.3,0,3.8.1,5.2,1.3,2.9,2.7,5.8,8.5,8.1,11.8.9,1.4,2.2,4.2,3,5.6S625.3,419.6,625.4,418.7Z"/><path d="M981.3,414.4c-.7-5.8,1.1-9,4.8-12.8s11.5-3.8,16.1-.1a11.3,11.3,0,0,1,4.2,11.6,19.1,19.1,0,0,1-8,12.6,10.7,10.7,0,0,1-11,.8c-3.8-1.8-5.5-5.3-5.9-9.3C981.4,416.2,981.3,415.3,981.3,414.4Zm6.8-.4a28.2,28.2,0,0,0,.7,3.1c.9,1.4,1.1,2,2.4,2.7s4.4-.2,5.3-1.1a10.2,10.2,0,0,0,2.3-4,7.5,7.5,0,0,0,.4-2.6c-.1-1.9-.4-3.1-1.1-3.7s-3.7-2.2-5.2-1.8C989.1,407.7,987.9,410,988.1,414Z"/><path d="M1035.6,416.1c.3-3.3,1.4-8.7,1.5-12.1s1.5-3.6,3.6-3.7,2.8,1.9,2.7,3.4c-.6,6-2.1,14.9-3.2,20.8a4.1,4.1,0,0,1-3.1,3.2c-1.9.8-4.3-.7-5.4-2.7-2.6-4.8-4.5-8.1-7-13-.4-.6-1.9-4.7-3-6,0,3.5.4,9.8.4,13.3-.1,1.4-.1,4.6-.3,6s-1.6,3.5-3.6,3-2.5-.6-3-3.1c-.2-4.7.2-11,.4-15.7,0-1.4,0-3,.1-4.4s.3-4,.8-4.8a2.7,2.7,0,0,1,2.4-1.4c2.4-.1,3.9,0,5.3,1.3s5.8,8.4,8.1,11.8c.9,1.3,2.2,4.2,3,5.6C1035.6,417.5,1035.5,417,1035.6,416.1Z"/><path d="M428.5,413.4c.4-3.4.1-7.4.7-11.7.4-2.5,2.1-2.1,4.2-2.1s4.3,1,5.7,1.1c4.2,1.7,5.7,2.8,7.3,6.1s3.4,7.5,3.4,12.8-2.1,6.9-5.7,8.8-9.8,2.5-14.6,1.6c-1.1-.4-.7-4-1-5.5C428,421.2,428.8,417.7,428.5,413.4Zm5.8-7.1.9,17.7c2.6-.9,4.6-1.3,6.4-2.3s2.4-2.1,2.5-3.3C444.9,413.1,440.5,407.5,434.3,406.3Z"/><path d="M1083.1,418.8v4.5c0,2.2.6,4.7-2.6,5s-3.7-.9-3.8-4.4c0-5.7,0-11.4.2-17.1.2-4.2,1.7-5.5,6.3-6a22.2,22.2,0,0,1,3.7-.3c3.6,0,7.2.1,9,4.1s.7,7.9-2.8,11.3a28.4,28.4,0,0,0,3.8,1.3c2.8.7,3.3,2.6,2.7,5s-2.7,2.2-4.6,1.7a58.4,58.4,0,0,1-5.9-2C1087.2,421.1,1085.4,420,1083.1,418.8Zm.3-6.4c2-.8,4-1.2,5.7-2.1s2.4-2.5.5-3.3a8.9,8.9,0,0,0-5.8-.2c-.5.1-.5,2.7-.7,4.2S1083.2,411.6,1083.4,412.4Z"/><path d="M151,404.2a10.1,10.1,0,0,1,.8,7.2,13.8,13.8,0,0,1-3.2,6.6l5.7,4.6c1.9,1.5,2.6,3.3,1.1,5.1s-3.6,1.2-5.4-.1l-8.2-6.2-1.2-.5c-.2,2.2.1,5.4-.5,7.3s-1.8,1.5-2.7,1.5-2.5-.4-2.9-1.5-.2-4.5-.1-6.2l.9-18.1c0-.9-.2-2.7.9-3.8a4.7,4.7,0,0,1,3.8-.8C143.2,399.5,148.6,399.9,151,404.2Zm-10.1,0v9c3.7,0,5.4-1.2,5.4-3.4C146.1,405.1,145.1,404,140.9,404.2Z"/><path d="M534.6,413.1c.2-4.7.2-8.4.7-12,.2-1.1,1.8-2.8,2.8-2.9a77.9,77.9,0,0,1,10.8.3,9.6,9.6,0,0,1,8.8,9.5c.1,5-.9,6.7-5.6,8.5-2.7.9-8,1.4-10.9,1.6,0,0,0,3.9-.1,7.4a11.1,11.1,0,0,1-.2,3.5,3.6,3.6,0,0,1-2.4,1.8,3.8,3.8,0,0,1-3.5-1.1c-.9-1.3-.5-5.5-.4-8.4a2.1,2.1,0,0,0,0-1.1C534.4,417.5,534.6,414.8,534.6,413.1Zm6.6-.6a28.4,28.4,0,0,0,7.9-1.5,4.1,4.1,0,0,0,2.3-3.4,4.7,4.7,0,0,0-2.8-3.2c-2.2-.7-4.6-.6-7.4-.9,0,2.6,0,4.7.1,6.7C541.3,410.5,541.2,411.8,541.2,412.5Z"/><path d="M238.3,425.5c1.6-7.2,3.1-14.3,4.8-21.5.7-3,1.4-5.1,5-5.7s3.8.6,4.7,1.3,1.5,2.3,1.9,3.5c2.4,6.8,4.7,13.6,6.8,20.4.5,1.8.2,4-2.2,4.5s-3.3-1.1-4-3-1.1-3.1-1.8-3.2a20.5,20.5,0,0,0-7.4.4c-.6.2-.9,2.5-1,3.9s-.9,3.8-3.4,3.6S238,428,238.3,425.5Zm10.6-22.1c-.3,0-.4,1.6-.8,3.1-.7,3.6-1.1,5.6-1.9,9.4h6.6C251.7,412,250,406.9,248.9,403.4Z"/><path d="M853.2,404.4v3.3a53.8,53.8,0,0,1,6.8-.4c3.5.2,4.8,1.9,3.3,4.8-.4,1-2.1,1.5-3.4,2a17.6,17.6,0,0,1-3.3.3l-3,.3-.4,1.1c-.4,5.6-.4,5.6,5.1,5.1s5.9.5,5.3,4a3.7,3.7,0,0,1-2,2.5,80.2,80.2,0,0,1-12,.1c-2.1-.2-2.8-2.2-2.8-4.3q.2-7.5,0-15a27.9,27.9,0,0,0-.7-5.8c-.6-2.4.3-3.8,2.6-4.3s5.9-1.5,8.9-1.9a5.1,5.1,0,0,1,3.9,1.5,2.9,2.9,0,0,1-1.7,4.5C857.7,403,855.5,403.6,853.2,404.4Z"/><path d="M342.8,421.5a1.9,1.9,0,0,0,3.1-.6c1.5-4.7.6-9,.1-13.2a18.9,18.9,0,0,1-.1-5.3,3.2,3.2,0,0,1,2.6-1.8c.9-.1,2.7.7,2.8,1.4,1.5,6.9,3,13.9,1.1,21-.8,3.2-2.4,5.7-5.8,6.6s-6.5-.5-8.9-3.1c-5.5-6.1-7.1-13.3-6.2-21.2.3-2.1-.6-5.9,3.2-5.5s2.4,3.8,2.4,5.8a23.2,23.2,0,0,0,3.6,13.5A15.7,15.7,0,0,0,342.8,421.5Z"/><path d="M900.1,416.9c1.6-3.7,2.8-6.8,4.1-9.8.5-1.2,1.7-3.7,2.6-4.3s2.3-.7,3.7-.3,1.9,2.9,1.5,4c-2.7,6.8-5.6,13.6-8.9,20.2-1.7,3.5-5.9,3.1-7.5-.6s-2.8-8.9-4.1-13.3c-.8-2.5-1.5-5-2.2-7.5s-1.2-4.5,1.3-5.3,3.9.6,4.7,3C896.7,407.4,898.3,411.8,900.1,416.9Z"/><path d="M475.9,434.1c-1.3,0-3.5-.1-4-.5a5.7,5.7,0,0,1-1.8-3.4c-.5-1.6.6-2.9,2.6-3.1s4.4,0,6.5-.5,2.7-2.7,1.2-4.3a17.9,17.9,0,0,0-4.8-3.8c-5-2.8-6.1-5.5-4.6-11.4,1-3.8,6.1-7.5,10.1-7h.1a2.8,2.8,0,0,1,1.2,5l-.3.3c-1.2.9-2.8,1.4-3.9,2.4a2.9,2.9,0,0,0,.6,4.8,44,44,0,0,1,5.2,3.6c3.8,2.9,4.4,6.9,3.2,11.2s-5.2,5.8-9.3,6.5A7.3,7.3,0,0,1,475.9,434.1Z"/><path d="M369.7,423.6l8.9-1.2c1.9-.2,4.1-.4,4.7,1.9s-.2,4.8-2.8,5.2a80,80,0,0,1-13.8,1.6c-1.2,0-3.3-2.2-3.5-3.6a131.2,131.2,0,0,1-1.5-14.2c-.3-4-.5-8.1-.7-12.1-.1-1.8.5-3.4,2.5-3.1a3,3,0,0,1,3.1,2.5c1.1,6.2,1.8,12.5,2.6,18.7C369.3,420.7,369.5,422.1,369.7,423.6Z"/><path d="M383,401.8l.3-2.5a1.8,1.8,0,0,1,1.8-1.6h13.1a38.8,38.8,0,0,1,5.9.1c.9.2,2.3,1.5,2.2,2.2s-1.1,2.3-1.9,3.4a2.6,2.6,0,0,1-1.8.4c-4.2-.8-4.1,1.7-4,4.7.2,5.3,0,10.6,0,15.9,0,2.6-.6,4.7-3.7,4.8s-3.6-2.1-3.5-5q.3-8.1.9-16.2c.2-2.5.1-5-3.5-4.7a17,17,0,0,1-5-.3A1,1,0,0,1,383,401.8Z"/><path d="M943.3,431.4c-1.4,0-3.6-.1-4-.5a5.8,5.8,0,0,1-1.9-3.4c-.4-1.6.6-2.9,2.6-3.1s4.5,0,6.6-.5,2.6-2.7,1.2-4.3a21.7,21.7,0,0,0-4.8-3.8c-5-2.8-6.2-5.5-4.6-11.4.9-3.8,6-7.5,10.1-7,0,.1,0,.1.1.1,2.3.3,3,3.5,1.2,5l-.3.3c-1.3.9-2.9,1.4-4,2.4a2.9,2.9,0,0,0,.7,4.8,36.1,36.1,0,0,1,5.1,3.6c3.9,2.9,4.4,6.9,3.3,11.2s-5.2,5.8-9.3,6.5A7.5,7.5,0,0,1,943.3,431.4Z"/><path d="M834.4,406.6c.3,4.7.1,12.9.5,17.5.2,2.1.3,4.1-2.3,4.6s-3.7-1.5-3.9-3.7c-.4-3.8-.2-11.1-.4-14.8-.1-1-.2-2-.3-3.2l-4.4-.3c-2.2.1-2.8-1.5-2.8-3a4.1,4.1,0,0,1,2.2-2.8c5.5-1.8,11.3-1.9,17.1-1.4a3.9,3.9,0,0,1,2.6,2.4c.5,1.6.2,3.5-1.9,3.9S836.7,406.3,834.4,406.6Z"/><path d="M571.4,403.3c.5,1.7-.2,5-.3,7.2s-.4,4.6-.4,7.6,1.2,4.4,4,4.1l5.3-.3c2.1,0,3.3.9,3.4,3.2s-.7,3.6-2.8,3.8a107.7,107.7,0,0,1-12.7.2c-3.1-.2-3.5-3.2-3.5-5.6.2-6.2.6-12.4.9-18.5.1-2.5.2-3.4,1.4-3.9S570.7,400.9,571.4,403.3Z"/><path d="M507.9,430.5c-5.6-.4-9.3-4.1-11.8-9a15.1,15.1,0,0,1,1.1-15.6c2.9-4.2,7.3-5.3,12-4.4a3.3,3.3,0,0,1,2.9,2.9,3.5,3.5,0,0,1-3,2.9c-4.9.9-7.4,2.8-7.8,6.5s2.5,6.9,6.2,8.4a29.9,29.9,0,0,0,3.2.8c1.6.4,3.5.8,3.7,3s-1.4,4-3.5,4.5S508.8,430.4,507.9,430.5Z"/><path d="M168.5,404.9c.2,6.6.4,12.9.6,19.2,0,.7.2,1.6-.1,2.1s-1.6,2.4-2.5,2.5a3.9,3.9,0,0,1-3-2,11.2,11.2,0,0,1-.6-4.5c-.1-5.7,0-11.4,0-17.5-2.1-.1-3.8.2-5.1-.4s-2.9-1.6-3.2-2.8,1.1-2.6,2.9-2.7c4-.1,8.1-.3,12.1-.2,1.8,0,3.8-.2,4.1,2.6s-1.8,3-3.7,3.5Z"/><path d="M205.9,410.9l-2.5-2a1.7,1.7,0,0,1-.5-1.5,1.4,1.4,0,0,1,.9-1.2l2.2-1.3.5-.3a2.8,2.8,0,0,0,1.7-2.8,2.6,2.6,0,0,0-2.2-2.3,7.9,7.9,0,0,0-9.4,4.5c-1.9,4.3-.7,7.9,3.5,11.3,1.2.9,2.3,2,3.4,3l.4.5a.9.9,0,0,1,.3,1,1.1,1.1,0,0,1-.8.8,9.5,9.5,0,0,0-2.9.7c-.4.1-2.6,1.1-2.8,2.3a5.4,5.4,0,0,0,1.4,3.9,5.1,5.1,0,0,0,3,.8l2.7-.3c2.5-.7,5.4-2.3,6.1-4.2C212.4,419.4,210.4,414.3,205.9,410.9Z"/><path d="M228.1,405v16.5a19.4,19.4,0,0,1-.2,2.4c-.2,1.8-1.1,3.3-3,2.7a4.6,4.6,0,0,1-2.7-2.9c-.1-5.8.1-11.6.3-17.4v-1.4a28.3,28.3,0,0,0-3.7-.9,2.3,2.3,0,0,1-2.2-3,3.3,3.3,0,0,1,2.5-2.2,118.3,118.3,0,0,1,13.3-.5,3.4,3.4,0,0,1,2.5,2.3c.2.9-.8,2.5-1.7,3S230,404.5,228.1,405Z"/><path d="M188.9,401.4c-.5-2.6-1.8-3-3.4-3.1h-.4a3.8,3.8,0,0,0-3.9,2.8,44.9,44.9,0,0,0-1,7.1l-.2,2.6c-.4,4.7-.8,9.6-.9,14.3a4.9,4.9,0,0,0,1.3,3.9,3.8,3.8,0,0,0,2.7,1.1h.4c2.6-.2,4.2-1.9,4.3-4.8.2-4.4.5-8.7.8-13.3l.3-5.8h0c0-.3.1-.7.1-1.1A11.1,11.1,0,0,0,188.9,401.4Z"/><path d="M964.6,415.2c.2-3.1-.1-6.7.1-10.2.1-1.8.8-2.8,2.9-2.8s3,1.2,3.2,3,.5,6.5.5,9.8-.1,6.4-.2,9.5-.6,3.7-3.2,3.8-3.3-1.3-3.5-3.5S964.7,418.8,964.6,415.2Z"/><path d="M732.8,410.2c2.7.1,4.4,2.1,4.4,5.2s-1.9,4.8-4.7,4.8-4.5-2-4.5-4.9S729.9,410.1,732.8,410.2Z"/><path d="M595.9,404.3c-.5-2.5-1.4-2.8-2.5-2.9h-.3a3,3,0,0,0-2.6,2.8,53.1,53.1,0,0,0-.3,6.9v2.4c-.1,4.5-.1,9.1,0,13.7a5.5,5.5,0,0,0,1.1,3.6,2,2,0,0,0,1.9.9h.3c1.8-.2,2.8-1.9,2.8-4.7s-.1-8.2-.1-12.6v-5.6h0v-1A13.5,13.5,0,0,0,595.9,404.3Z"/><path d="M1046.9,424.8l4.8-21.5c.7-3,1.5-5.2,5.1-5.8s3.7.7,4.7,1.4a7.5,7.5,0,0,1,1.9,3.5c2.4,6.7,4.7,13.5,6.8,20.4.5,1.7.1,4-2.2,4.5s-3.4-1.1-4.1-3-1-3.2-1.8-3.3a22.3,22.3,0,0,0-7.3.5c-.7.2-.9,2.5-1.1,3.9s-.8,3.8-3.3,3.6S1046.6,427.3,1046.9,424.8Zm10.7-22.1c-.4,0-.4,1.6-.9,3.1l-1.8,9.3h6.6Z"/><path d="M1121.5,416.2c-.7-5.7,1.1-8.9,4.8-12.8s11.4-3.7,16,0,5.1,6.9,4.2,11.6a18.4,18.4,0,0,1-8,12.6,10.4,10.4,0,0,1-11,.7c-3.7-1.7-5.4-5.2-5.9-9.3A25.3,25.3,0,0,1,1121.5,416.2Zm6.8-.3a10.8,10.8,0,0,0,.7,3.1c.9,1.4,1,2,2.4,2.7s4.3-.2,5.2-1.1a9.1,9.1,0,0,0,2.3-4,6.3,6.3,0,0,0,.4-2.7c-.1-1.8-.3-3-1.1-3.6s-3.6-2.2-5.2-1.8C1129.3,409.5,1128.1,411.9,1128.3,415.9Z"/><path d="M1105.2,413.6c.2-3-.1-6.7.1-10.2.1-1.8.9-2.8,2.9-2.8s3,1.2,3.2,3,.5,6.5.6,9.8-.2,6.4-.3,9.6-.6,3.6-3.2,3.7-3.3-1.3-3.4-3.4S1105.4,417.2,1105.2,413.6Z"/><path d="M461.8,404.3c-.5-2.5-1.4-2.8-2.5-2.9H459a3,3,0,0,0-2.6,2.8q-.3,3.4-.3,6.9v2.4c-.1,4.5-.1,9.1,0,13.7a5.5,5.5,0,0,0,1.1,3.6,2.2,2.2,0,0,0,2,.9h.2c1.8-.2,2.8-1.9,2.8-4.7s-.1-8.2-.1-12.6v-5.6h0a3.1,3.1,0,0,1-.1-1A10,10,0,0,0,461.8,404.3Z"/><path d="M420.1,400.9c-.6-2.6-1.4-2.8-2.5-2.9h-.3c-1.4,0-2.4,1.2-2.6,2.8a52.3,52.3,0,0,0-.3,6.8v2.5c0,4.5-.1,9.1,0,13.7a6.2,6.2,0,0,0,1.1,3.6,2.4,2.4,0,0,0,2,.9h.2c1.8-.3,2.8-2,2.8-4.7s-.1-8.3-.1-12.7v-5.5h0v-1.1A20,20,0,0,0,420.1,400.9Z"/><path d="M527,402.3c-.5-2.6-1.4-2.8-2.5-2.9h-.3a2.9,2.9,0,0,0-2.6,2.8,52.3,52.3,0,0,0-.3,6.8v2.5c-.1,4.5-.1,9.1,0,13.7a5.5,5.5,0,0,0,1.1,3.6,2.2,2.2,0,0,0,1.9.9h.3c1.8-.3,2.8-2,2.8-4.7s-.1-8.3-.1-12.7v-5.5h0v-1.1A12.9,12.9,0,0,0,527,402.3Z"/><path d="M639.4,427.7l4.8-21.5c.7-3,1.5-5.2,5-5.7s3.8.6,4.8,1.3a7.5,7.5,0,0,1,1.9,3.5c2.4,6.8,4.7,13.5,6.7,20.4.6,1.8.2,4-2.1,4.5s-3.4-1.1-4.1-3-1.1-3.1-1.8-3.2a19.9,19.9,0,0,0-7.3.4c-.7.2-.9,2.5-1.1,3.9s-.8,3.8-3.3,3.6S639.1,430.2,639.4,427.7Zm10.7-22.1c-.4,0-.4,1.6-.9,3.1-.7,3.6-1.1,5.6-1.8,9.4H654Z"/><path d="M685.7,405.9a10.6,10.6,0,0,1,.7,7.2,12.9,12.9,0,0,1-3.2,6.6l5.8,4.6c1.9,1.5,2.5,3.3,1,5.1s-3.6,1.2-5.3-.1-5.5-4.1-8.2-6.2l-1.3-.5c-.1,2.2.1,5.4-.4,7.3s-1.9,1.5-2.8,1.5-2.5-.4-2.8-1.5-.2-4.4-.2-6.2l.9-18.1c.1-.9-.1-2.7,1-3.8s1.9-.9,3.7-.8S683.3,401.6,685.7,405.9Zm-10.1,0v9c3.6,0,5.4-1.2,5.3-3.4C680.7,406.8,679.7,405.7,675.6,405.9Z"/><path d="M812.7,404.3a10.6,10.6,0,0,1,.7,7.2,12.9,12.9,0,0,1-3.2,6.6l5.8,4.6c1.9,1.5,2.5,3.3,1,5.1s-3.6,1.2-5.3-.1-5.5-4.1-8.2-6.2l-1.3-.5c-.1,2.2.1,5.4-.4,7.3s-1.8,1.5-2.8,1.5-2.5-.4-2.8-1.5-.2-4.5-.2-6.2l.9-18.1c.1-.9-.1-2.7,1-3.8s1.9-1,3.7-.8S810.3,400,812.7,404.3Zm-10.1,0v9c3.6,0,5.4-1.2,5.3-3.4C807.8,405.2,806.7,404,802.6,404.3Z"/><path d="M766.2,426.5,771,405c.7-3,1.5-5.2,5-5.8s3.8.7,4.8,1.4,1.4,2.3,1.9,3.5c2.3,6.7,4.7,13.5,6.7,20.3.6,1.8.2,4-2.2,4.6s-3.3-1.1-4-3-1.1-3.2-1.8-3.3a19.9,19.9,0,0,0-7.3.5c-.7.2-.9,2.5-1.1,3.9s-.8,3.7-3.3,3.6S765.9,429,766.2,426.5Zm10.7-22.1c-.4,0-.5,1.6-.9,3.1-.7,3.6-1.1,5.6-1.9,9.3h6.7C779.6,412.9,777.9,407.8,776.9,404.4Z"/><path d="M919.9,415.2c.2-3.1-.1-6.7.1-10.2.1-1.8.8-2.8,2.9-2.8s3,1.2,3.2,3,.5,6.5.5,9.8-.1,6.4-.2,9.5-.6,3.7-3.2,3.8-3.3-1.3-3.5-3.5S920,418.8,919.9,415.2Z"/><path d="M333.7,149.4c-6.3-6.3-7.4-15.6-9.2-31.1-1.5,15.3-3.2,20.7-6.9,27.7s-17,8.7-29.5,12.3c13.3,3.1,20.2,4.2,26.1,10s8.6,14.4,10.3,30c1.6-15.4,3.8-20.3,7.5-27.3s16.5-9.2,29-12.7C347.7,155.2,339.5,155.2,333.7,149.4Z"/><path d="M832.1,133.8c-4.1-4.2-4.8-10.3-6-20.6-1,10.2-2.1,13.7-4.6,18.3s-11.2,5.8-19.5,8.2c8.8,2,13.4,2.7,17.2,6.6s5.7,9.5,6.9,19.8c1-10.2,2.5-13.4,4.9-18s10.9-6.1,19.2-8.4C841.4,137.6,836,137.7,832.1,133.8Z"/><path d="M139.5,120.5c-4.1-4.1-4.8-10.2-6-20.5-1,10.1-2.1,13.7-4.6,18.3s-11.2,5.8-19.5,8.1c8.8,2.1,13.4,2.8,17.2,6.7s5.7,9.5,6.9,19.7c1-10.1,2.5-13.4,4.9-18s10.9-6,19.2-8.4C148.8,124.4,143.4,124.4,139.5,120.5Z"/><path d="M400,103.5c-4.2-4.1-4.9-10.2-6-20.5-1.1,10.1-2.2,13.7-4.6,18.3s-11.2,5.8-19.5,8.1c8.8,2.1,13.3,2.8,17.2,6.7s5.7,9.5,6.9,19.7c1-10.1,2.4-13.4,4.9-18s10.9-6,19.2-8.4C409.2,107.4,403.9,107.4,400,103.5Z"/><path d="M350.4,52.9c-1.7-2-2-4.9-2.4-9.8-.4,4.8-.9,6.5-1.9,8.7s-4.4,2.8-7.7,3.9c3.5,1,5.3,1.3,6.8,3.2s2.3,4.5,2.8,9.4c.4-4.8.9-6.4,1.9-8.6s4.3-2.9,7.6-4C354,54.7,351.9,54.7,350.4,52.9Z"/><path d="M313.9,84.6c-1.6-2-1.9-4.9-2.4-9.9-.4,4.9-.8,6.6-1.8,8.8s-4.5,2.7-7.7,3.9c3.5,1,5.3,1.3,6.8,3.1s2.3,4.6,2.7,9.5c.4-4.8,1-6.4,2-8.6s4.3-2.9,7.6-4C317.6,86.4,315.4,86.4,313.9,84.6Z"/><path d="M81.3,286.8c-4.2-4.2-4.8-10.3-6-20.6-1,10.1-2.2,13.7-4.6,18.3s-11.2,5.8-19.5,8.1c8.8,2.1,13.4,2.8,17.2,6.7s5.7,9.5,6.9,19.8c1-10.2,2.5-13.4,4.9-18.1s10.9-6,19.2-8.4C90.5,290.6,85.2,290.6,81.3,286.8Z"/><path d="M1022.7,150.8c-4.1-4.1-4.8-10.3-6-20.5-1,10.1-2.1,13.6-4.6,18.3s-11.2,5.7-19.5,8.1c8.8,2,13.4,2.8,17.2,6.6s5.7,9.5,6.9,19.8c1-10.1,2.5-13.4,4.9-18s10.9-6.1,19.2-8.4C1032,154.6,1026.6,154.7,1022.7,150.8Z"/><path d="M1110.9,195.2c-4.2-4.2-4.9-10.3-6-20.6-1.1,10.2-2.2,13.7-4.6,18.3s-11.3,5.8-19.5,8.2c8.8,2,13.3,2.7,17.2,6.6s5.7,9.5,6.9,19.8c1-10.2,2.4-13.4,4.9-18s10.9-6.1,19.1-8.4C1120.1,199,1114.7,199,1110.9,195.2Z"/><path d="M1122,110.4c-2-1.9-2.3-4.8-2.9-9.7-.4,4.8-1,6.5-2.1,8.7s-5.4,2.7-9.3,3.8c4.2,1,6.4,1.4,8.2,3.2s2.7,4.5,3.2,9.4c.5-4.8,1.2-6.4,2.4-8.6s5.2-2.8,9.1-4C1126.4,112.3,1123.8,112.3,1122,110.4Z"/><path d="M1244.4,309.4c-4.2-4.2-4.8-10.3-6-20.6-1,10.2-2.1,13.7-4.6,18.3s-11.2,5.8-19.5,8.1c8.8,2.1,13.4,2.8,17.2,6.7s5.7,9.5,6.9,19.8c1-10.2,2.5-13.4,4.9-18.1s10.9-6,19.2-8.4C1253.7,313.2,1248.3,313.2,1244.4,309.4Z"/><path d="M421.3,169.5a9.5,9.5,0,0,0,5.8-6.8c1.3,3.1,2.8,5.6,6.3,6.7a11.2,11.2,0,0,0-6.3,7.1C426.1,173,424.3,170.8,421.3,169.5Z"/><path d="M908.7,199.7a9.9,9.9,0,0,0,6-7c1.3,3.2,2.9,5.8,6.6,6.9a11,11,0,0,0-6.6,7.2A10.1,10.1,0,0,0,908.7,199.7Z"/><circle cx="449" cy="49" r="3"/><circle cx="424" cy="94" r="3"/><circle cx="367" cy="134" r="3"/><circle cx="764" cy="97" r="3"/><circle cx="967" cy="95" r="3"/><circle cx="1000" cy="130" r="3"/><circle cx="1001" cy="85" r="3"/><circle cx="1063" cy="166" r="3"/><circle cx="228" cy="165" r="3"/><circle cx="707" cy="173" r="3"/></g></svg>