<svg xmlns="http://www.w3.org/2000/svg" viewBox="0 0 512 201"><path d="M151.5,176.5l-.4.4v11.5c0,11.1,0,11.5.3,11.9a1.4,1.4,0,0,0,1.9,0c.3-.4.3-.8.4-11.5,0-6.1,0-11.3-.1-11.5a1.3,1.3,0,0,0-1.5-1.1l-.6.3Z"/><path d="M352.5,176.6l-.4.4v11.5c0,11.2.1,11.5.4,11.8a1.5,1.5,0,0,0,1.8,0c.4-.4.4-.6.4-4.8s.2-5.2,1.6-6.8a5.8,5.8,0,0,1,7.9-.1c1.4,1.5,1.5,1.8,1.6,6.9s.1,4.5.4,4.8a1.4,1.4,0,0,0,1.9,0c.3-.3.4-.7.4-3.8s-.1-6-.8-7.4a9,9,0,0,0-5.2-4.4,8.6,8.6,0,0,0-5.5.4,9.5,9.5,0,0,0-1.7,1l-.6.4v-4.7c0-4.5,0-4.7-.3-5.1a1.3,1.3,0,0,0-1.8-.2Z"/><path d="M406.1,176.6c-.3.4-.3.5-.3,5.1v4.8l-.8-.5a6.6,6.6,0,0,0-4.3-1.5,7.3,7.3,0,0,0-4.8,1.1,8.1,8.1,0,0,0-3.1,10.4,9.2,9.2,0,0,0,3.9,3.9,4.8,4.8,0,0,0,3.1.7,7.3,7.3,0,0,0,5-1.3l1-.7v.6c0,1.3,1.4,2,2.2,1.1s.3-.6.3-11.9V177l-.4-.4a1.3,1.3,0,0,0-1.8,0Zm-3.7,10.8a6.3,6.3,0,0,1,2.8,2.8,5.8,5.8,0,0,1,.1,4.5,6.9,6.9,0,0,1-2.7,2.9,5.1,5.1,0,0,1-2.4.4,5,5,0,0,1-4-1.6,5.6,5.6,0,0,1,0-7.8,6.1,6.1,0,0,1,2.2-1.3,6.8,6.8,0,0,1,4,.1Z"/><path d="M71.9,177.9l-.5.5c-.1.3-.2,3.8-.2,11,0,10.3,0,10.6.4,10.9s.5.3,7.7.3,7.5,0,7.8-.3a1.4,1.4,0,0,0-.1-1.9c-.5-.3-.6-.3-6.8-.3H73.8v-4.3H84.7l.3-.4a1.2,1.2,0,0,0,.2-1.6H85l-.4-.4H73.8V180.5h6.4c6.2,0,6.3,0,6.8-.4a1.3,1.3,0,0,0,.2-1.8h-.1c-.4-.3-.8-.4-7.6-.4Z"/><path d="M218,177.9c-.8.3-.8.2-.7,10.1s0,9.9,1.3,11.3a5.1,5.1,0,0,0,3.3,1.3,2.9,2.9,0,0,0,2.2-.4c1.7-.8,2.3-1.9,1.4-2.7s-1.2-.5-1.9,0a2.2,2.2,0,0,1-3.2-.2l-.3-.3c-.3-.5-.3-.9-.3-5.3V187h2c2.1,0,2.5-.1,2.8-.9a1.7,1.7,0,0,0-.6-1.6h-4.2v-2.8c0-2.7,0-2.8-.4-3.2a1.1,1.1,0,0,0-1.4-.5Z"/><path d="M266.4,178a4.9,4.9,0,0,0-3.7,3.5c-.5,1.7,0,3.1,1.7,5.1l1,1.2-1.7,1.9c-2.2,2.2-2.6,3-2.7,4.9a4.9,4.9,0,0,0,1.4,4.1,5.3,5.3,0,0,0,4,1.9c2.2.1,3-.2,5.3-2.4l1.8-1.7,1.3,1.4c2.3,2.6,2.4,2.7,3.1,2.7a1.3,1.3,0,0,0,1-.4c.6-.8.4-1.3-1.7-3.5l-1.9-2.1a20.9,20.9,0,0,1,2-2.2c1.9-1.9,2-2,1.9-2.6a2.2,2.2,0,0,0-.5-.8c-.7-.6-1.1-.4-3.2,1.7l-2,1.9-1-1-2.1-2.3-1.3-1.3,1.3-1.3c1.5-1.6,1.9-2.3,1.9-3.9a4.7,4.7,0,0,0-4.7-4.9Zm2.6,3.2c.6.6.7.7.7,1.5s-.4,1.6-1.6,2.7l-.7.6-.8-.8c-1.1-1.1-1.4-1.6-1.4-2.6a1.9,1.9,0,0,1,.5-1.3,2,2,0,0,1,1.9-.8c.6,0,.8.1,1.4.7Zm-1,9.3,2.1,2.4,1.5,1.6-1.4,1.5a8.7,8.7,0,0,1-2.1,1.7,3.1,3.1,0,0,1-4.2-1.3,4.5,4.5,0,0,1-.3-1.1c-.2-1.3.1-1.9,1.9-3.8l1.8-1.6.7.6Z"/><path d="M295.1,177.9c-.9.4-.8.1-.8,11.3s0,10.5.3,11a1.4,1.4,0,0,0,1.8.2c.3-.2.3-.5.4-3.4v-3.1h5.4c5.2-.1,5.4-.1,5.7-.5a1.1,1.1,0,0,0,.3-1.5l-.3-.3c-.3-.3-.4-.3-5.8-.3h-5.4V180.5H303a51.5,51.5,0,0,0,6.8-.2,1.3,1.3,0,0,0,.6-1.7c-.5-.8-.6-.8-8-.8Z"/><path d="M91.5,184.8c-.3.3-.3.5-.3,7.7s0,8.1,1.2,8.1a1.4,1.4,0,0,0,.9-.3c.3-.3.4-.8.5-4.8s.1-4.5.4-5.3a6.8,6.8,0,0,1,2.7-2.6,5.7,5.7,0,0,1,4.6-.1,6.5,6.5,0,0,1,2.9,2.8c.4.8.4,1.1.4,5.2s.1,4.4.4,4.8a1.7,1.7,0,0,0,1.9,0c.3-.3.3-.6.3-4.6a43.5,43.5,0,0,0-.2-5.1,7.7,7.7,0,0,0-2.2-3.8,7.5,7.5,0,0,0-6.3-2.3,6.8,6.8,0,0,0-4.1,1.4l-.8.6v-.6a1.4,1.4,0,0,0-1.3-1.5h0a1.3,1.3,0,0,0-1,.4Z"/><path d="M111.6,184.7c-.9.6-.8.7,3.1,8.4,2,4.1,3.8,7.4,3.9,7.4s1.3.2,1.5-.1,7.3-14.2,7.3-14.7a1.3,1.3,0,0,0-1.3-1.3,1.3,1.3,0,0,0-.9.4c-.2.2-1.6,2.9-3.1,5.9l-2.8,5.7c-.1,0-1.4-2.6-2.9-5.7l-3.1-6a1.4,1.4,0,0,0-1.7,0Z"/><path d="M136.8,184.7a8.9,8.9,0,0,0-5,4.5c-.5,1.1-.6,1.2-.6,3.3a5.9,5.9,0,0,0,.6,3.4,11.4,11.4,0,0,0,3.2,3.7,8.8,8.8,0,0,0,8.6-.1,10,10,0,0,0,2.8-3,9.2,9.2,0,0,0,.8-5.9,8.6,8.6,0,0,0-6-6,10.8,10.8,0,0,0-4.4.1Zm4.7,2.8a6,6,0,0,1,2.9,3,7.2,7.2,0,0,1,0,4.1,6.6,6.6,0,0,1-2.7,3,5.1,5.1,0,0,1-2.4.4c-1.9,0-2.8-.3-3.9-1.5a6.1,6.1,0,0,1-1.2-6.3,6.3,6.3,0,0,1,3.7-3.1,7.3,7.3,0,0,1,3.6.4Z"/><path d="M157.7,184.8a1.2,1.2,0,0,0-.4.8c0,.5,6.8,14.2,7.3,14.7s.5.3.9.3a1.3,1.3,0,0,0,1-.4l3.8-7.4c3.4-6.8,3.4-7,3.2-7.5a1.8,1.8,0,0,0-.5-.7,1.5,1.5,0,0,0-1.6.1l-3.1,6-2.8,5.8-3-5.9a57,57,0,0,0-3.2-6,1.4,1.4,0,0,0-1.6.2Z"/><path d="M183.4,184.6a8.8,8.8,0,0,0-5.1,4,8.1,8.1,0,0,0,3.1,11l1.5.7a10,10,0,0,0,5.7-.2,7.7,7.7,0,0,0,2.9-2.2,1.4,1.4,0,0,0-.8-1.7c-.6-.2-.8-.1-1.9.7a5.4,5.4,0,0,1-7.4-.6,7.2,7.2,0,0,1-1.4-2.4h6.4c6.9,0,6.9,0,7.2-.9a8.6,8.6,0,0,0-.1-1.6,8.4,8.4,0,0,0-5.7-6.6,10.8,10.8,0,0,0-4.4-.1Zm3.7,2.7,1.6.7a6.3,6.3,0,0,1,2,2.8v.5H180l.3-.8a6.4,6.4,0,0,1,2.2-2.7,5.7,5.7,0,0,1,4.6-.5Z"/><path d="M197.6,184.8c-.3.4-.3.6-.3,7.8s0,7.4.3,7.7a1.5,1.5,0,0,0,1.8,0c.4-.4.4-.6.5-4.8s.1-5.3,1.6-6.8a5.6,5.6,0,0,1,7.8,0c1.5,1.4,1.5,1.7,1.6,6.8s.1,4.5.4,4.8a1.5,1.5,0,0,0,1.8,0c.4-.3.4-.6.4-4.8s-.1-4.5-.3-5.4a8.8,8.8,0,0,0-3.8-4.7,8.2,8.2,0,0,0-9,.7l-.6.4v-.6C199.8,184.6,198.4,183.9,197.6,184.8Z"/><path d="M235.6,184.6a8.8,8.8,0,0,0-5.1,4,8.5,8.5,0,0,0-.1,7.6,8.1,8.1,0,0,0,4.8,4.1,10,10,0,0,0,5.7-.2,6,6,0,0,0,2.8-2.2,1.2,1.2,0,0,0-.5-1.6H243c-.6-.2-.9-.1-1.9.7a5.4,5.4,0,0,1-7.7-.9,4,4,0,0,1-1-1.8l-.2-.4h6.4c6.9,0,7,0,7.2-.9a4.3,4.3,0,0,0-.1-1.6,8.3,8.3,0,0,0-5.6-6.6,11.4,11.4,0,0,0-4.5-.1Zm3.8,2.7,1.5.7a6.3,6.3,0,0,1,2,2.8l.2.5H232.3l.2-.8a6.7,6.7,0,0,1,2.3-2.7A5.7,5.7,0,0,1,239.4,187.3Z"/><path d="M320.4,184.6a9.7,9.7,0,0,0-3.8,2.2,7.6,7.6,0,0,0-2.4,5.7,8.1,8.1,0,0,0,3.5,6.7,6.9,6.9,0,0,0,5,1.4,7.7,7.7,0,0,0,4.4-1.4l.8-.6v.6a1.3,1.3,0,0,0,1.2,1.4h.1a1.7,1.7,0,0,0,1-.3c.3-.3.4-.7.4-4.1a39.3,39.3,0,0,0-.1-4.8,8.5,8.5,0,0,0-5.7-6.7,10.8,10.8,0,0,0-4.4-.1Zm4.3,2.9a5.4,5.4,0,0,1,3.2,4.8,5.3,5.3,0,0,1-1.5,4.1,5.3,5.3,0,0,1-4.1,1.6,4.5,4.5,0,0,1-2.3-.4,6.9,6.9,0,0,1-2.7-2.9,6.4,6.4,0,0,1,0-4.3,5.8,5.8,0,0,1,3.5-3.2A6.5,6.5,0,0,1,324.7,187.5Z"/><path d="M340.3,184.6a8.2,8.2,0,0,0-5.1,11.9,10,10,0,0,0,2.8,3c3,1.9,7.6,1.4,9.9-1.1a1.3,1.3,0,0,0,.3-1.8h-.1c-.6-.5-1.3-.4-2.3.4a5.5,5.5,0,0,1-3.9,1.2,5.9,5.9,0,0,1-4.6-3.1,4.3,4.3,0,0,1-.4-2.5,4,4,0,0,1,.4-2.4,5.6,5.6,0,0,1,6.5-2.9l1.5.7c1.8,1.3,2,1.3,2.7.7s.6-1.3-.4-2.2a7.2,7.2,0,0,0-3.3-1.8,13.4,13.4,0,0,0-4,0Z"/><path d="M377.9,184.7a7.9,7.9,0,0,0-5.4,5.4,9.1,9.1,0,0,0,.5,6.3,10.4,10.4,0,0,0,2.9,3,8.2,8.2,0,0,0,8.9-.1l1-.7v.6a1.3,1.3,0,0,0,1.1,1.5,1.5,1.5,0,0,0,1.1-.4c.4-.3.4-.5.3-5.1s-.1-4.8-.4-5.7a10.2,10.2,0,0,0-4.6-4.6,11,11,0,0,0-5.4-.2Zm4.6,2.8a5.7,5.7,0,0,1,2.7,2.6,4,4,0,0,1,.5,2.4,3.6,3.6,0,0,1-.5,2.5,6.5,6.5,0,0,1-2.6,2.6,5.1,5.1,0,0,1-2.4.4,4.8,4.8,0,0,1-3.9-1.6,4.4,4.4,0,0,1-1.5-3.9,4,4,0,0,1,.4-2.4,6.5,6.5,0,0,1,3.7-3,7.4,7.4,0,0,1,3.6.4Z"/><path d="M417.7,184.7a8.6,8.6,0,0,0-5.3,5.1,8.4,8.4,0,0,0,4.2,10.1l1.4.7h2.1c2.4,0,3.1-.2,4.8-1.4l.8-.6v.8c.1.9.5,1.2,1.3,1.2a1.1,1.1,0,0,0,.9-.4c.3-.4.3-.7.3-4.4a40.2,40.2,0,0,0-.2-4.9,8.1,8.1,0,0,0-5.8-6.2,9,9,0,0,0-4.6,0Zm4.1,2.5a6.1,6.1,0,0,1,3.7,4.1,5.6,5.6,0,0,1-2.8,6.2,5.9,5.9,0,0,1-4.5.3,5.5,5.5,0,0,1-3-2.8,4.3,4.3,0,0,1-.5-2.5,4,4,0,0,1,.5-2.4,5.6,5.6,0,0,1,6.6-2.9Z"/><path d="M72.5,34.6A45.4,45.4,0,0,0,48.2,44.7a62,62,0,0,0-8.1,8.1,47.1,47.1,0,0,0-9.7,22.3,57.9,57.9,0,0,0,.2,16.1,46.7,46.7,0,0,0,9.5,21,83.3,83.3,0,0,0,8.4,8.4,47.3,47.3,0,0,0,21.1,9.6c13.9,2.4,27-1,38.5-10a74.5,74.5,0,0,0,6-5.2c.1-.2-.3-.7-2-2.2l-2.1-2-2.5,2.4a38.4,38.4,0,0,1-7.4,5.9,41.2,41.2,0,0,1-17.3,5.7,69.8,69.8,0,0,1-11.2-.2,40.3,40.3,0,0,1-23.3-12.1A41,41,0,0,1,36.1,77.7a39,39,0,0,1,8.8-20.5,76.8,76.8,0,0,1,7.5-7.6,42.9,42.9,0,0,1,21-9.2,56.7,56.7,0,0,1,10.9.2,44.9,44.9,0,0,1,21.2,9.5,44.5,44.5,0,0,1,9.2,10.6c1.6,2.7,3.8,7.8,3.8,8.7s-3.2.3-31.4.3H55.7v5.9H126l-.4-2.4a48.4,48.4,0,0,0-8.7-19.5,74,74,0,0,0-8.8-8.9,45.8,45.8,0,0,0-22.5-9.9,63.6,63.6,0,0,0-13.1-.2Z"/>
<g fill="#c72020"><path d="M256,.3H0V158.6H512V.3ZM147,79.6v73.6H5.6V6H147Zm80.1,2.9H197.7V79.9H224l-.3-.8a17.4,17.4,0,0,0-6.6-8.3c-6.1-4-13.4-4.1-19.2-.2a18.4,18.4,0,0,0-8.1,11,21.1,21.1,0,0,0-.1,7.1,16.7,16.7,0,0,0,4.6,8.8,17.2,17.2,0,0,0,8.5,5.2,26.3,26.3,0,0,0,8.4.1,16.2,16.2,0,0,0,7.7-4.2l1.5-1.4.9.9,1,.8-1.2,1.1a20.5,20.5,0,0,1-15.1,5.5,19.3,19.3,0,0,1-13.4-6.3,19.6,19.6,0,0,1-3.9-5.5,20.2,20.2,0,0,1,2-20.4,29.2,29.2,0,0,1,4.7-4.6,19.9,19.9,0,0,1,15.5-3.4,21.4,21.4,0,0,1,12.9,8.4c1.6,2.2,3.3,6.6,3.3,8.3Zm49.9,8a20.4,20.4,0,0,1-24.9,14.4,17.5,17.5,0,0,1-3.2-1.2A21.3,21.3,0,0,1,238,91.6c-.9-2.8-1-3.5-1-15.2V65.6h2.6V75.9c0,8.3.1,10.8.3,12.1a16.8,16.8,0,0,0,5.2,10,17.4,17.4,0,0,0,7.9,4.5,17.1,17.1,0,0,0,4.5.4,12,12,0,0,0,4.2-.4,18.7,18.7,0,0,0,12.9-12.8L275,88V65.6h2.6V76.1C277.7,86.8,277.6,88,277,90.5Zm32.2-24.4v1.3h-1.6a18,18,0,0,0-14.4,9.9,18.5,18.5,0,0,0-1.7,6.1c-.1,1-.1,6-.1,11.5v9.9h-2.5v-11c0-12.1,0-12.5,1-15.6,2.5-7.3,10.5-13.2,18.1-13.3h1.2Zm45.3,21.1a19.6,19.6,0,0,1-7.7,13.9,18.8,18.8,0,0,1-10.6,4.3,19.7,19.7,0,0,1-16.5-6.3,20,20,0,0,1-4.9-19.2c1.8-7.4,8.6-13.5,16.3-14.8a24.8,24.8,0,0,1,7.7.3,20.6,20.6,0,0,1,15.4,15.5A16.7,16.7,0,0,1,354.5,87.2Zm14-9.8v27.4h-2.7V50h2.7Zm53.3-.2c-.1,11.3-.1,11.7-.4,13a21.3,21.3,0,0,1-4.8,8.7,20.3,20.3,0,0,1-28.7,1.3l-1.1-1.1a18.8,18.8,0,0,1-5.4-12c-.1-1.1-.2-6.3-.2-11.8V65.6h2.7V76.3c0,11.9.1,12.4,1.1,15.2a19.7,19.7,0,0,0,9.6,10.1,15.3,15.3,0,0,0,7,1.3,13.8,13.8,0,0,0,7.7-1.7A17.8,17.8,0,0,0,418.7,90c.6-2.1.7-4.6.7-14.7V65.6h2.4Zm41.3,20.5,6.2,6.7.4.4h-3.3l-4.6-5L453.5,91l-3.9-4.2c-.3-.3-.3-.3-.8.3a16.9,16.9,0,0,1-1.9,1.9l-8,8.6-6.7,7.2h-1.6a4.3,4.3,0,0,1-1.6-.1l9.2-9.9,9.2-9.9c0-.1-3.3-3.6-12.4-13l-5.5-5.7-.5-.6h3.7l7.3,7.7,8.3,8.7,1,1.1.8-.9L462.6,69l3.2-3.4h3.9L468,67.3l-9.2,9.6-7.6,7.9C451.2,84.9,458.4,92.8,463.1,97.7Z"/><path d="M350.8,78.4a22,22,0,0,0-6.4-7.8,20.5,20.5,0,0,0-5.8-2.7,21.8,21.8,0,0,0-7.2-.2,16.3,16.3,0,0,0-7.5,3.3,17.9,17.9,0,0,0-7,17.3,17.9,17.9,0,0,0,18.2,14.6,17.4,17.4,0,0,0,11.8-5.2,15.7,15.7,0,0,0,3.4-4.7,16.6,16.6,0,0,0,1.7-7.9A15.3,15.3,0,0,0,350.8,78.4Z"/></g></svg>