<svg xmlns="http://www.w3.org/2000/svg" viewBox="0 0 1805 512"><path d="M608.7,255.8a2,2,0,0,1-2-2V68.8a1.9,1.9,0,0,1,2-1.9h68.8a1.8,1.8,0,0,1,1.9,1.9V94.2c0,1.5-.4,2-1.9,2H638.9v49.7h30.8a1.9,1.9,0,0,1,1.9,2v25.4a2.4,2.4,0,0,1-1.9,2.4H638.9v50.8h38.6a1.8,1.8,0,0,1,1.9,1.9v25.4c0,1.5-.4,2-1.9,2Z" fill="#1d1d1b"/><path d="M693.1,255.8a1.9,1.9,0,0,1-1.9-2V68.8a1.8,1.8,0,0,1,1.9-1.9h28.3a1.9,1.9,0,0,1,2,1.9V226.5h36.1a1.8,1.8,0,0,1,1.9,1.9v25.4a1.9,1.9,0,0,1-1.9,2Z" fill="#1d1d1b"/><path d="M1027.4,472c-1.4,0-2.4-.5-2.4-2V285c0-1.4,1-1.9,2.4-1.9h27.9a2,2,0,0,1,1.9,1.9V470c0,1.5-.5,2-1.9,2Z" fill="#1d1d1b"/><path d="M1119.2,285c0-1.4.5-1.9,2-1.9h25.3a2,2,0,0,1,2,1.9V470a2,2,0,0,1-2,2h-24.4a2,2,0,0,1-1.9-2l-19-94.7h-1V470c0,1.5-.5,2-2,2h-25.4c-1.4,0-1.9-.5-1.9-2V285c0-1.4.5-1.9,1.9-1.9h24.4a2.5,2.5,0,0,1,2.5,1.9l18.5,94.7h1Z" fill="#1d1d1b"/><path d="M1164.1,472c-1.5,0-2.4-.5-2.4-2V285c0-1.4.9-1.9,2.4-1.9h71.3c1.4,0,1.9.5,1.9,1.9v25.4c0,1.5-.5,2-1.9,2h-41.5v51.7h32.2c1.5,0,2,.5,2,2v25.3c0,1.5-.5,2-2,2h-32.2V470c0,1.5-.5,2-2,2Z" fill="#1d1d1b"/><path d="M1250,472c-1.4,0-1.9-.5-1.9-2V285c0-1.4.5-1.9,1.9-1.9h27.8c1.5,0,2.5.5,2.5,1.9V442.7h35.6c1.5,0,2.4.5,2.4,1.9V470c0,1.5-.9,2-2.4,2Z" fill="#1d1d1b"/><path d="M1323.7,285c0-1.4,1-1.9,2.5-1.9h27.3c1.5,0,2.4.5,2.4,1.9V439.3a6.9,6.9,0,0,0,13.7,0V285c0-1.4.5-1.9,1.9-1.9h27.9c1.4,0,2.4.5,2.4,1.9V440.7c0,18.1-14.6,35.2-39.5,35.2s-38.6-17.1-38.6-35.2Z" fill="#1d1d1b"/><path d="M1416,472c-1.5,0-2.5-.5-2.5-2V285c0-1.4,1-1.9,2.5-1.9h68.3c1.5,0,2.4.5,2.4,1.9v25.4c0,1.5-.9,2-2.4,2h-38.6v49.8h30.8c1.5,0,1.9.4,1.9,1.9v25.4c0,1.5-.4,1.9-1.9,1.9h-30.8v51.3h38.6c1.5,0,2.4.5,2.4,1.9V470c0,1.5-.9,2-2.4,2Z" fill="#1d1d1b"/><path d="M1546.3,285c0-1.4,1-1.9,2.4-1.9h24.9c1.5,0,2.5.5,2.5,1.9V470c0,1.5-1,2-2.5,2h-23.9a2.4,2.4,0,0,1-2.4-2l-18.6-94.7h-1V470a1.9,1.9,0,0,1-1.9,2h-25.4c-1.5,0-2.4-.5-2.4-2V285c0-1.4.9-1.9,2.4-1.9h23.9c1.5,0,2.5.5,2.5,1.9l18.5,94.7h1Z" fill="#1d1d1b"/><path d="M1588.3,440.7V314.3c0-18,13.6-35.1,38-35.1s39.6,17.1,39.6,35.1V368c0,1.5-.5,2-2,2h-27.8c-1.5,0-2.5-.5-2.5-2V315.3a6.3,6.3,0,0,0-6.3-6.3,6.8,6.8,0,0,0-7.3,6.3h0v124a6.8,6.8,0,0,0,6.8,6.8h.5a6.4,6.4,0,0,0,6.4-6.3.7.7,0,0,0-.1-.5V387.1a2.5,2.5,0,0,1,2.5-2.5h27.8c1.5,0,2,1,2,2.5v53.6c0,18.1-14.7,35.2-39.6,35.2s-38-17.1-38-35.2" fill="#1d1d1b"/><path d="M1680,472c-1.4,0-2.4-.5-2.4-2V285c0-1.4,1-1.9,2.4-1.9h27.8a2,2,0,0,1,2,1.9V470c0,1.5-.5,2-2,2Z" fill="#1d1d1b"/><path d="M1720,472c-1.4,0-2.4-.5-1.9-2L1741,285c0-1.4,1-1.9,2.5-1.9h36.1a2.4,2.4,0,0,1,2.4,1.9l23,185c0,1.5-.5,2-2,2h-26.8c-1,0-2.5-.5-2.5-2l-3.4-33.7h-17.6l-3.4,33.7a2.1,2.1,0,0,1-2.4,2Zm35.2-64.9h12.7l-5.9-65.9h-1Z" fill="#1d1d1b"/><path d="M801,220.6V94.7c0-18.1,14.1-35.2,38.5-35.2s39.6,17.1,39.6,35.2v53.2a2.5,2.5,0,0,1-2.5,2.4H848.8a2.4,2.4,0,0,1-2.4-2.4V95.7a6.4,6.4,0,0,0-5.9-6.8H840a6.9,6.9,0,0,0-6.8,6.9V219.6a6.4,6.4,0,0,0,6.3,6.4h.5a6.4,6.4,0,0,0,6.4-6.4V166.9c0-1.4.9-1.9,2.4-1.9h27.8c1.5,0,2.5.5,2.5,1.9v53.7c0,18.6-14.7,35.2-39.6,35.2S801,239.2,801,220.6" fill="#1d1d1b"/><path d="M889.3,220.6V94.7c0-18.1,14.2-35.2,38.6-35.2s39.5,17.1,39.5,35.2V220.6c0,18.6-14.6,35.2-39.5,35.2s-38.6-16.6-38.6-35.2M920.1,51.2c-1.5,0-2.5-.4-2-1.9L924,18.5a3.1,3.1,0,0,1,2.4-1.9h24.4c1.5,0,2.5,1,2,2.9L941.5,49.8c-.4,1.4-.9,1.4-2.4,1.4Zm15.1,168.4V95.7a6.9,6.9,0,0,0-13.7,0V219.6a6.9,6.9,0,1,0,13.7,0" fill="#1d1d1b"/><path d="M981.6,252.3a2.5,2.5,0,0,1-2.5-2.4V65.4a2.5,2.5,0,0,1,2.5-2.4h36.1c24.9,0,39.5,17,39.5,35.1V217.2c0,18.1-14.6,35.1-39.5,35.1Zm29.7-29.7h6.9a6.9,6.9,0,0,0,6.8-6.9V99.1a6.4,6.4,0,0,0-6.3-6.4h-7.4Z" fill="#1d1d1b"/><path d="M1071.4,252.3c-1.5,0-2-.9-2-2.4V65.4c0-1.5.5-2.4,2-2.4h28.3a2.3,2.3,0,0,1,1.9,2.4V249.9a2.3,2.3,0,0,1-1.9,2.4Z" fill="#1d1d1b"/><path d="M1113.8,220.6V94.7c0-18.1,13.7-35.2,38.6-35.2s39,17.1,39,35.2v41.5c0,1.4-.4,2.4-1.9,2.4h-27.3a2.4,2.4,0,0,1-2-2.4v-40a7.4,7.4,0,0,0-7.3-7.4,7.8,7.8,0,0,0-7.8,7.4V219.1a7.8,7.8,0,0,0,7.8,6.9,7.3,7.3,0,0,0,7.3-6.9V177.7h-5.4a2.5,2.5,0,0,1-2.4-2V150.3a2.4,2.4,0,0,1,2.4-2.4h34.7c1.5,0,1.9,1,1.9,2.4V251.9c0,1.4-.4,2.4-1.9,2.4h-23.9c-1.5,0-2-1-2-2.4V246h-1a24.6,24.6,0,0,1-21.4,9.8c-20,0-27.4-16.6-27.4-35.2" fill="#1d1d1b"/><path d="M1203.2,220.6V94.7c0-18.1,13.6-35.2,38-35.2s39.6,17.1,39.6,35.2V220.6c0,18.6-14.7,35.2-39.6,35.2s-38-16.6-38-35.2m45.4-1V95.7a6.4,6.4,0,0,0-5.9-6.8h-.5a6.8,6.8,0,0,0-6.8,6.9V219.6a6.4,6.4,0,0,0,6.3,6.4h.5a6.4,6.4,0,0,0,6.4-6.4" fill="#1d1d1b"/><path d="M609.6,472a2,2,0,0,1-1.9-2V285a2,2,0,0,1,1.9-1.9h36.7c24.4,0,39,17.1,39,35.1V436.8c0,18.1-14.6,35.2-39,35.2Zm30.3-29.8h6.8a6.4,6.4,0,0,0,6.4-6.3h0V319.2a6.4,6.4,0,0,0-5.8-6.8h-7.4Z" fill="#1d1d1b"/><path d="M699.9,472a2,2,0,0,1-1.9-2V285c0-1.4.5-1.9,1.9-1.9h68.9c1.4,0,1.9.5,1.9,1.9v25.4c0,1.5-.5,2-1.9,2H730.2v49.8h30.3c1.4,0,2.4.4,2.4,1.9v25.4c0,1.5-1,1.9-2.4,1.9H730.2v51.3h38.6c1.4,0,1.9.5,1.9,1.9V470c0,1.5-.5,2-1.9,2Z" fill="#1d1d1b"/><path d="M821.5,472a2,2,0,0,1-2-2V285a2,2,0,0,1,2-1.9h28.3a1.9,1.9,0,0,1,1.9,1.9V442.7h36.2c1.4,0,1.9.5,1.9,1.9V470c0,1.5-.5,2-1.9,2Z" fill="#1d1d1b"/><path d="M896.2,472c-1.5,0-2.5-.5-2.5-2l23.4-185c0-1.4,1-1.9,2.5-1.9h35.6c1.5,0,2.5.5,2.5,1.9l22.9,185c.5,1.5-.5,2-1.5,2H952.3c-1.5,0-2.5-.5-2.5-2l-3.9-33.7H928.4L925,470c0,1.5-1,2-2.5,2Zm35.1-64.9h12.2l-5.9-65.9h-.9Z" fill="#1d1d1b"/><path d="M512,255.8C511.8,114.6,397.4.3,256.3,0V255.8Z" fill="#1d1d1b"/><path d="M0,255.8C0,397.3,114.8,512,256.3,512V255.8Z" fill="#1d1d1b"/></svg>