<svg xmlns="http://www.w3.org/2000/svg" viewBox="0 0 512 196.8"><g transform="translate(0 -157.6)"><g id="icon-clinica-dental"><path d="M183.8,308.7l1.5.6-.9,1a8.6,8.6,0,0,1-12.1,0,8,8,0,0,1-2.5-6,8.2,8.2,0,0,1,2.5-6.1,8.6,8.6,0,0,1,12.1,0l.9,1.1-1.5.5-.5-.5a6.9,6.9,0,0,0-9.9,0,6.7,6.7,0,0,0-2.1,5,6.9,6.9,0,0,0,2.1,5,6.4,6.4,0,0,0,4.9,2,6.5,6.5,0,0,0,5-2Z"/><path d="M189.6,287.5v24.9h-1.4V287.5Z"/><path d="M197.7,291l-3.8,2.9h-1.3l2.5-2.9Zm-2.7,6.1v15.3h-1.4V297.1Z"/><path d="M200.2,300.5v11.9h-1.4V297.1h1.4v1a6.1,6.1,0,0,1,4.5-1.9,6,6,0,0,1,4.4,1.7,6,6,0,0,1,1.7,4.3v10.2h-1.4V302.3A4.2,4.2,0,0,0,208,299a4.6,4.6,0,0,0-6.6,0A5.3,5.3,0,0,0,200.2,300.5Z"/><path d="M216.3,292.1a1.3,1.3,0,0,1,0,2,1.1,1.1,0,0,1-.9.4,1.2,1.2,0,0,1-1-.4,1.5,1.5,0,0,1,0-2,1.2,1.2,0,0,1,1-.4A1.1,1.1,0,0,1,216.3,292.1Zm-.2,5v15.3h-1.4V297.1Z"/><path d="M233.1,308.7l1.5.6-.9,1a8.2,8.2,0,0,1-6.1,2.5,8.5,8.5,0,0,1-8.5-8.5,8.2,8.2,0,0,1,2.5-6.1,8.4,8.4,0,0,1,6-2.5,8.6,8.6,0,0,1,6.1,2.5l.9,1.1-1.5.5-.5-.5a6.7,6.7,0,0,0-5-2.1,6.9,6.9,0,0,0-5,2.1,7,7,0,0,0-2,5,7.2,7.2,0,0,0,2,5,6.8,6.8,0,0,0,5,2,6.6,6.6,0,0,0,5-2Z"/><path d="M253.7,312.4h-1.4v-3.1l-.9,1a8.6,8.6,0,0,1-12.1,0,7.9,7.9,0,0,1-2.5-6,8.2,8.2,0,0,1,2.5-6.1,8.6,8.6,0,0,1,12.1,0l.9,1.1v-2.2h1.4Zm-1.4-6.7v-2.8a6.5,6.5,0,0,0-2-3.6,6.6,6.6,0,0,0-5-2.1,6.9,6.9,0,0,0-5,2.1,7.2,7.2,0,0,0-2,5,7,7,0,0,0,2,5,6.8,6.8,0,0,0,5,2,6.5,6.5,0,0,0,5-2A7.2,7.2,0,0,0,252.3,305.7Z"/><path d="M282.4,312.4H281v-3.1l-.9,1a8.6,8.6,0,0,1-12.1,0,7.9,7.9,0,0,1-2.5-6,8.2,8.2,0,0,1,2.5-6.1,8.6,8.6,0,0,1,12.1,0l.9,1.1V287.5h1.4Zm-1.4-6.7v-2.8a6.5,6.5,0,0,0-2-3.6,6.6,6.6,0,0,0-5-2.1,6.9,6.9,0,0,0-5,2.1,7.2,7.2,0,0,0-2,5,7,7,0,0,0,2,5,6.8,6.8,0,0,0,5,2,6.5,6.5,0,0,0,5-2A7.2,7.2,0,0,0,281,305.7Z"/><path d="M286.4,303.5c0,.3-.1.5-.1.8a7,7,0,0,0,7.1,7,6.6,6.6,0,0,0,5-2l.7-.8,1.5.6-1.1,1.2a8.6,8.6,0,0,1-12.1,0,7.9,7.9,0,0,1-2.5-6,8.2,8.2,0,0,1,2.5-6.1,8.6,8.6,0,0,1,12.1,0,7.7,7.7,0,0,1,2.2,5.3Zm.3-1.4h13.4a6.2,6.2,0,0,0-1.7-2.8,6.7,6.7,0,0,0-5-2.1,7.1,7.1,0,0,0-6.7,4.9Z"/><path d="M305.5,300.5v11.9H304V297.1h1.5v1a5.8,5.8,0,0,1,4.4-1.9,6,6,0,0,1,4.4,1.7,6,6,0,0,1,1.7,4.3v10.2h-1.4V302.3a4.2,4.2,0,0,0-1.4-3.3,4.6,4.6,0,0,0-6.6,0A4.8,4.8,0,0,0,305.5,300.5Z"/><path d="M321.5,297.1v-6.5h1.3v6.5H326v1.4h-3.2v13.9h-1.3V298.5h-3.2v-1.4Z"/><path d="M344.7,312.4h-1.4v-3.1l-.9,1a8,8,0,0,1-6,2.5,8.5,8.5,0,0,1-8.6-8.5,8.5,8.5,0,0,1,8.6-8.6,8.4,8.4,0,0,1,6,2.5l.9,1.1v-2.2h1.4Zm-1.4-6.7v-2.8a6.3,6.3,0,0,0-1.9-3.6,6.9,6.9,0,0,0-5-2.1,6.7,6.7,0,0,0-5,2.1,6.9,6.9,0,0,0-2.1,5,6.7,6.7,0,0,0,2.1,5,6.6,6.6,0,0,0,5,2,6.8,6.8,0,0,0,5-2A7,7,0,0,0,343.3,305.7Z"/><path d="M349.6,287.5v24.9h-1.4V287.5Z"/></g><g fill="#1f9d9c"><g id="icon-horadent"><path d="M75.3,272.3V241.9H46.2v30.4H38.1V209h8.1v26H75.3V209h8.1v63.3Z"/><path d="M122.5,273.3c-20,0-25.6-16.5-25.6-33.3s8.6-31,25.8-31c20.5,0,25.3,15.3,25.3,33C148,257.3,142.3,273.3,122.5,273.3Zm.2-57.5c-14.9,0-17.2,15.4-17.2,26.6s2.8,24.1,17,24.1,16.9-15.6,16.9-26.8S137,215.8,122.7,215.8Z"/><path d="M191.4,272.3a299.6,299.6,0,0,0-10.6-28.7,36.5,36.5,0,0,1-5.5,1.3l-7.5,1.1v26.3h-8.2V211.7c5.6-.7,15.7-2.7,22.1-2.7,9.3,0,19.4,1.4,19.4,12.8,0,9.6-5.4,15.7-12.9,19.3a253.8,253.8,0,0,0,13.6,31.2Zm-9.8-56.4c-4.7,0-9.4,1.1-13.8,1.9v21.1c10.7-.6,23.9-3.7,23.9-16.3C191.7,218.1,187.6,215.9,181.6,215.9Z"/><path d="M247.8,272.3l-5.1-18.5-21,.5-5.5,18h-9.4L228,209.6l10-.6,19.1,63.3Zm-15.4-56-9.1,31.8h18.2Z"/><path d="M282.2,272.3H264.8V211.5c3.7-.6,15.2-2.5,25.2-2.5,19.1,0,23.6,14.5,23.6,31.4C313.6,261.1,302.6,272.3,282.2,272.3Zm6-56.5c-5.3,0-12.2.8-15.2,1.7v47.9h9.2c14.4,0,22.7-8.3,22.7-25.5C304.9,219.7,296.7,215.8,288.2,215.8Z"/><path d="M324.3,272.3V209h36.1v5.9l-28.1.7V235h23.3v5.6l-23.3.6v25.2l28.1-1v6.9Z"/><path d="M410.5,272.3l-30.7-53.1v53.1h-8V209h10.7l29.6,52.2V209h8.1v63.3Z"/><path d="M457.2,214.9v57.4h-8.1V214.9l-19.6.9V209h47.4v6.8Z"/></g><path id="icon-smile-top" d="M109.6,157.6c24.3-.1,48,6.5,71.6,11.4,77.1,18.4,109.3,12.3,184.7-4.7,14.9-3,30-6.4,45.3-5.5,30.9,1.6,59.6,16.1,84.4,33.9a25.2,25.2,0,0,1,5.1,4.7c.2.4.1.6-.3.7a3.4,3.4,0,0,1-2.8-.1,232.7,232.7,0,0,0-53.4-20.7c-13.3-3.2-27.2-5-40.9-4.3-18.7,1.6-37.2,5.5-55.8,7.9-36,5.3-72.4,9.2-108.8,6.6-41.4-2.8-81.8-12.9-123-17.3-27.4-2.1-54.8,5-79.6,16.3A192.6,192.6,0,0,0,7.6,202.2c-4.1,3-7.3-1.5-7.6-5.1a3.8,3.8,0,0,1,1.7-3.3c3.4-2.3,6.9-4.5,10.4-6.6C41.6,170.1,75.1,157.5,109.6,157.6Z"/><path id="icon-smile-bottom" d="M263.7,354.4c-77.3-1-152.7-24.4-223.6-53.8C27.5,295.2,15,289.5,2.7,283.4c-1.4-.7-1.5-.8-.9-2.3s3.3-7.6,5.5-6c70,31.8,144.6,55.8,221.3,64.2,83.5,9.6,167-14.4,242.3-49.1,10.1-4.7,20-9.7,29.8-15.1a2.6,2.6,0,0,1,2.4-.2c1.1.6,1.3,1.7.2,2.4C430.5,319.5,348.9,353.4,263.7,354.4Z"/><path id="icon-smile-right" d="M512,277.1c-.3,3.3.5,8.2-3.1,8.7a3.6,3.6,0,0,1-2.1-1.3,1.1,1.1,0,0,1,.1-.8c1.1-2.5,2.1-5.4,1.2-8.2-1.6-5.5-8.3-4.9-12.7-3.5-.8.1-2,1-2.5-.1s-.8-3.4.2-3.7c4.1-1.2,8.2-1.8,12.5-.8S512.1,272.9,512,277.1Z"/></g></g></svg>