<svg xmlns="http://www.w3.org/2000/svg" viewBox="0 0 1009.5 750.4"><style>@keyframes spin{to{transform:rotate(360deg)}}@keyframes vibration{to{transform:rotate(5deg)}}@keyframes wind{to{transform:skewX(10deg)}}#hoja{animation:wind 1.5s ease infinite alternate;transform-origin:0% 30%}#brazo-exterior,#brazo-interior{animation:vibration .46s linear infinite alternate;transform-origin:20% 40%}#brazo-interior{animation:vibration .46s linear infinite alternate .46s}#rueda-1,#rueda-2,#rueda-3{animation:spin 10s linear infinite}#rueda-2{animation-direction:reverse;transform-origin:55.2% 46.5%}#rueda-1,#rueda-3{transform-origin:71% 30%}#rueda-1{transform-origin:39.4% 29.25%}</style><path opacity=".1" fill="var(--main, #5fceb3)" d="M586.6 105.2C521.8 103.5 460.2 88 401.3 71S284.2 35.2 221 26.2c-40.6-5.8-87.1-6.6-119.8 9.6C69.7 51.3 59.5 78.2 54 103.2c-4.1 18.8-6.5 38.5 4.7 56.1 7.8 12.2 21.7 22.5 31.4 34.1 33.5 40.7 9.8 90.8-26.4 130.5-17 18.6-36.8 36.4-49.9 56.2C.7 400-5.4 422.7 6.1 442.9c11.4 20 38.5 35.1 67.9 45.7 59.7 21.5 130 27.7 198.6 31.2 151.8 7.7 304.5 4.4 456.7 1 56.3-1.2 112.9-2.5 168.3-9 30.8-3.6 62.6-9.3 84.9-23.1 28.4-17.5 35.4-47.1 16.4-69-31.9-36.8-120-45.9-142.3-85.4-12.3-21.7.3-45.9 18.2-66.1C913 225 977.1 187.1 980.4 137.7c2.3-33.9-28.5-67.9-76.1-83.9-49.9-16.8-119.2-14.7-156 13.1-37.9 28.7-104.6 39.7-161.7 38.3z"/><g id="hoja" opacity=".8"><path fill="var(--main, #5fceb3)" d="M938.8 178.8s-11.3-4.6-47.2 11.9-40.3 14.3-49.6 11.8-14.5-3.1-24.4-16.9c0 0-7-38.1-13.8-44S768 145 768 145s-34.6 8-41.3-38.3c0 0 4.7-34.9-1.7-45.6 0 0 12.9 5.6 34.1-3.4s38.2 9.7 38.2 9.7 5.4 13.9 4.8 22.1 2.8 11.4 13 7.4c0 0 5-7.1-2.1-18.8s-11.9-20.4-10-29.5 7.6-21.7 25.8-28 42.9-7.5 54.7-12.4S898.3 0 898.3 0s-7.3 7.3 9.9 38.3 6.2 44.4 6.2 44.4-9.1 21.8-49.5 20c0 0-38.9 1.4-17.7 17.9 0 0 13.6-2.8 33.9-9.2s34.9 20.2 38.6 38.7 19.1 28.7 19.1 28.7z"/><path fill="#444053" d="M886.5 23.5l.2-.1c1.6 5.9-15.8 29.7-30.7 48.5l-.2-.1c21.1-26.6 32-43.8 30.7-48.3z"/><path fill="#444053" d="M856.2 71.4l.1.2c-11.9 15.1-26.8 33.1-38.7 46.4-1.1 1.3-2.3 2.6-3.3 4l-.3-.3c1.1-1.4 2.2-2.7 3.4-4 11.8-13.2 27-31.2 38.8-46.3z"/><path fill="#444053" d="M814.2 121.4l.2.4c-21.7 27.1-23.2 69.2-23.2 69.6l-4.6-5.2c.1-.4 5.7-37.5 27.6-64.8z"/><path fill="none" stroke="#444053" stroke-miterlimit="10" d="M913.6 164.1s-25.6-13.3-45.6-8.5-64.9-16.9-64.9-16.9-19.1-7.8-22.9-16.6c0 0-13.1-13.9-13.8-21s-13.5-25.2-21.8-25.8M909.9 176.9s-12.9-8.7-11.4-18.8M890.1 188.1s-18.5-6.7-20.3-33M860.3 194.9s-17.6-14.6-11.8-40.2M824.5 187.8s-11.7-24.6-1.3-40.6M913.9 147.8s-13.3 4.2-10.5 11.3M897.8 123.6s-17.9 5.7-18.3 30.9M872.9 117.8s-16.2 20.1-15.1 38.3M844.4 125.6s-16.2 15.4-14.1 24M834.7 120.2s-15.1 2.7-17.2-2.3M815 101.9s7.7 10.1 9.6 7.9M890.8 95.5s-38.2 2.8-46.8-8.7M807 50.9s17.9 38.4 30.9 43.3M825.8 32.6s11 35.3 24.6 46.4"/><path fill="none" stroke="#444053" stroke-width=".75" stroke-miterlimit="10" d="M906.9 66.3s-29 12.4-46.4-.1M851.6 25s6.6 26 15.6 32.3M902.5 37.2s-16.3 6.2-22.4 1.4"/><path fill="none" stroke="#444053" stroke-miterlimit="10" d="M801 110.4s0 22.6-6.2 24.3M750.6 139.8s24.5 2.1 35.8-10.5M794.7 83.6s-5.9 23-22.3 29.2M735.9 115.6s17.3 6 32.2-9.3M775.4 63.9s-1.6 19.5-12.2 28.6M736.6 85.8s14.4.1 17.8-4.6"/></g><ellipse opacity=".1" fill="var(--main, #5fceb3)" cx="262.9" cy="734.9" rx="218" ry="15.5"/><linearGradient id="proceso-gradient" gradientUnits="userSpaceOnUse" x1="361.1273" y1="-69.6654" x2="361.1273" y2="530.9264" gradientTransform="matrix(1 0 0 -1 -95.23 675.2)"><stop offset="0" stop-color="gray" stop-opacity=".25"/><stop offset=".54" stop-color="gray" stop-opacity=".12"/><stop offset="1" stop-color="gray" stop-opacity=".1"/></linearGradient><path fill="url(#proceso-gradient)" d="M389.2 650.5c3-5.4 6.6-10.5 9.5-15.9 2.6-5 4.7-10.3 7.1-15.4 4.1-8.8 9.1-17.1 13.7-25.7 3-5.6 5.9-11.7 5.3-18.1-.5-6-4.1-11.2-5.4-17-5.5-23.8-18.9-45.7-27-68.7-2.1-5.8-4.1-11.7-6.7-17.4-5-10.8-12-20.6-19-30.3-2.5-3.7-5.3-7.2-8.4-10.4-2.5-2.5-5.3-4.7-7.6-7.4-4.7-5.6-6.9-13.7-12.8-18-.1.3-.2.5-.3.8-4.2-10.7-18.3-17.8-26.5-26.7-4.8-5.4-9.2-11.2-13.1-17.2l-17.8-25.8c-3.1-4.4-6.2-9-7.4-14.3-1.5-6.4-.1-13.2-1.6-19.6-1-3.8-2.8-7.4-5.5-10.4.2 0 .4-.1.5-.2 3.4-.9 7-1.1 10.4-1.9 7.4-1.8 13.7-6.5 21.1-8.3 3.7-1 7.7-1.2 11.1-3 3.4-2 5.1-6 4.3-9.8-2.4-12.5 4.2-25.3 3.1-38-.3-3.5-1.2-7-1.8-10.4-1.4-8.1-1.1-16.4-.6-24.6 2.3-3.7 5-7.1 8.1-10.1 4.5-4.3 9.9-8 13-13.4 2.7-4.8 3.4-10.6 2.7-16.1-.5-4-1.9-8.2-5-10.6s-7.7-2.6-11.5-1.3c-.5.2-1 .4-1.6.6-3.2-1.6-7-1.8-10.3-.6-3.8 1.3-7.1 3.8-10.1 6.4-1.8 1.4-3.4 3.1-4.7 5-1.9 3-2.5 6.7-3.2 10.2-1.6 6.8-3.8 13.4-6.8 19.8-.5 1.1-2 3.1-3.2 5l-2.1-.4c-.9 8.9-8.4 15.5-12.9 23.1-2.2 3.7-3.8 7.8-5.8 11.7-2.3 4.2-4.8 8.3-7.6 12.2-2.7 4-5.4 8-8.1 11.9-3.4 5.2-7.1 10.1-11 14.9-3.7-.3-7.3-.6-11-.6-6.1-.1-12.3.5-18.3 1.6-.4-2.1-.6-4.3-.6-6.4v-.4c0-.5.1-1.1.1-1.8 17-11.4 21.5-34.4 10.2-51.3-3.1-4.6-7.2-8.5-11.9-11.3.2-1.1.3-2.3.4-3.4v-2c0-.3 0-.7-.1-1-.1-.7-.2-1.3-.3-2-.1-.3-.2-.6-.3-1-.2-.6-.5-1.2-.8-1.8 0 0 0-.1-.1-.1-.1-.2-.3-.4-.4-.6s-.1-.2-.2-.2c-.1-.1-.2-.3-.3-.4l-.2-.3c-.1-.1-.2-.2-.3-.4l-.3-.2-.4-.3-.3-.2-.4-.3-.4-.2-.4-.2c-.1-.1-.2-.1-.4-.2l-.4-.2-.4-.2-.4-.2-.4-.2-.4-.2-.5-.2-.3-.1-.5-.2-.3-.1-.6-.2-.3-.1-.6-.2-.2-.1-.6-.2-.2-.1-.7-.2h-.1l-1.1-.2c-4.4-.9-8.8-1.7-13.2-2.3-3.6-.5-7.4-1-10.9-.2-4.9 1.1-9.1 4.4-13.7 6.5-5.5 2.5-11.5 3.1-17.3 4.5-5.8 1.4-11.8 3.7-15.5 8.4-2.8 3.6-3.9 8.3-4.7 12.8-6.9 37.6.5 76.2 1.9 114.5.6 14.9-.1 30.8-8.6 43l24.6-.6c1.2 0 2.4-.1 3.6-.1s2.4-.2 3.6-.3c3.1-.3 6.1-1.2 8.9-2.7 1.3-.7 2.4-1.6 3.5-2.7 3.3-3.4 5.1-8.2 6.8-12.8.6-1.5 1.1-3.1 1.6-4.7.2-.7.4-1.3.6-2l.1-.3.3.1c1 1.9 2.1 3.7 3.3 5.5 4.3 6.3 9.7 11.7 15.1 17.1 10.7 10.7 21.7 21.5 35.1 28.3 4.5 2.3 9.5 4.2 12.9 8 1.7 1.8 3.2 4.2 5.6 4.8 1.5.4 3.1 0 4.6.6 2.1.9 2.9 3.4 3.8 5.5 1 2.1 3.2 4.2 5.2 3.2-.8 3.9.7 8 3.9 10.4 1 .6 1.9 1.3 2.5 2.3.3.9.5 1.8.5 2.7.4 2.6 1.8 4.9 3.8 6.5-2 3.2-.4 7.9-.3 11.9 0 3.4-1.1 6.6-1.9 9.9-2.2 9.7-1 19.8.8 29.5 1 5.4 2.3 10.9 5.8 15.1 1.1 1.3 2.5 2.5 3.7 3.8 2.3 2.6 4.2 5.5 5.6 8.6 3 6.2 5.1 12.8 6.1 19.6.5 3.4 1.5 6.8 2.9 9.9 2.2 4.8.2 10.7 2.1 15.5.9 2.2 2.5 4.1 3.1 6.3.8 3.3-1 6.7-1.5 10-1.1 7.9 4.6 15.3 5.1 23.3.1.5 0 1-.3 1.3-.4.4-1.1.4-1.6.7-1 .5-1.3 1.8-1.6 3s-1.2 2.4-2.3 2c-16.4 8.8-33.4 16.9-49.9 25.7l-7.5 4-40.1 21.4c-1 .5-1.6 1.5-1.6 2.6 0 .5.1 1 .1 1.5-2.8.7-5.5 1.5-7.4 1.9-.8.2-1.6.3-2.4.5.2-.3.3-.6.4-1 0-1-.8-1.9-1.8-2-1-.1-2 0-2.9.4-2.3.6-4.6 1.1-7 1.3-2.8.3-5.7.3-8.4 1s-5.4 2.4-6.5 5c-.6 1.5-.8 3.1-.7 4.7-.1 6.2.7 12.3 2.2 18.3 0 .5.3.9.7 1.2.4.1.8 0 1.1.2.3.2.5.5.6.8 1.7 3.8 2.1 8.1 2.5 12.2.7 6.2 1.5 12.3 2.5 18.5.6 3.6 1.3 7.3 3.7 10.1 2.6 3 6.6 4.3 10.5 4.9 8.2 1.1 16.6-.6 24.7-2.3 1.5-.3 3.1-.7 4.2-1.9.7-.9 1.1-2.1 1-3.3-.2-4.1-3.9-7-7.3-9.3l-4.6-3.2c-.8-.4-1.2-1.4-1-2.3l.3-6.1h-.9c1-4.3 2.6-8.4 5.8-11.3 2.2-2 5-3.4 7.3-5.2 2.9 2.2 6.4 3.5 10.1 3.7 6-8.1 14.5-13.6 22.9-19 6.9-4.3 14-8.3 21.2-11.9 5.9-2.9 11.9-5.7 18-8.2 8.6-3.6 17.4-6.8 26.1-10 5.9-2.1 11.8-4.2 17.1-7.3 14-8.1 23.9-24.2 22-40.4-2.4-20.4 2.7-41.7 2.4-62.2-.1-6-.3-12-2.1-17.8.4.3.8.6 1.2 1 3.6 3.4 4.5 8.8 8 12.7 2.7 3 6.8 5 8.5 8.7 1.2 2.8 1.1 6.7 3.7 8.3.7.5 1.6.7 2.4 1.1.9.6 1.6 1.4 2.2 2.4 2.8 4 5.6 8.2 5.9 13 .1 1.9 0 4.1 1.4 5.4.4.4.9.6 1.1 1.1.4 1-.7 2.1-.9 3.2-.3 1.5 1.2 2.7 2.2 4 1.6 2.2 1.6 5.2 0 7.4-8.2 10.7-9.7 25-16.9 36.4-2.5 3.9-5.2 7.7-7.6 11.6-7.4 12.2-11.1 26.3-14.7 40.1 1.5 2.7 3.6 5 6.1 6.9-1.4 4.7-3.7 9-6.9 12.7-.8.9-1.6 1.8-2.3 2.8-.6-.7-1.4-1.3-2.2-1.7-1.3 5.7-2 11.6-2 17.5 0 3.9.5 8.3 3.7 10.5 1.3.8 2.6 1.4 4.1 1.7l6.9 2c1.2.5 2.5.6 3.8.4.8-.2 1.5-.7 2.4-.9.9-.1 1.8 0 2.7.3l5.9 1.7c2 .5 4 1.2 5.9 2.1 1.7.8 3.2 1.9 4.9 2.8 2.8 1.4 5.6 2.6 8.6 3.5l10.2 3.5c2.8 1.1 5.8 1.9 8.9 2.3 2.1.2 4.2 0 6.3.4 1.6.3 3.1.8 4.7 1 2.6.1 5.2-.7 7.4-2.2.8-.5 1.6-1.1 2.1-1.9 1.5-2.3.2-5.4-1.2-7.8-2.7-4.4-6.1-8.5-10.6-11-1.8-1-3.8-1.7-5.6-2.7-5.3-2.6-9.3-6.9-14.4-9.9-1.3-.9-3.1-.8-4.3.3-4.2-2.7-8.7-5.4-11-9.8-1-2.1-1.7-4.4-2-6.8 2.4.6 4.7 1 7.1 1.4 3.7-14.8 7.9-30.2 15.6-43.8zM293.1 224c-.2 1.1-.4 2.2-.7 3.4-2 9.4-4.9 19.9-11.4 26.9-2.2 2-4.7 3.7-7.4 4.9l-.7.4c4.7-12.7 12.2-24.3 20.2-35.6z"/><g id="brazo-interior"><path fill="#FBBEBE" d="M302.8 168.3c.7-3.5 1.3-7.1 3.2-10.2 1.3-1.9 2.9-3.6 4.7-5 3.1-2.6 6.3-5.1 10.1-6.3s8.3-1.1 11.5 1.3 4.5 6.6 5 10.6c.7 5.5 0 11.2-2.7 16-3.1 5.4-8.5 9-13 13.3-3.3 3.1-6.1 6.7-8.5 10.6-1.1 2-2.4 3.9-3.9 5.6-1.5 1.7-3.8 2.7-6.1 2.5-1.9-.3-3.5-1.6-5-2.9-1.9-1.6-6.8-4.5-7-7.1-.1-2.1 3.8-6.8 4.7-8.8 3.1-6.2 5.4-12.8 7-19.6z"/><path fill="var(--main, #5fceb3)" d="M197.8 268.3c8-2.1 16.3-3.1 24.6-3 13.8.2 28.1 3.5 41.2-.7 3.4-1.2 6.7-2.6 9.9-4.3 2.6-1.3 5.4-2.7 7.4-4.8 6.5-6.9 9.4-17.4 11.4-26.7s2.6-18.9 3.1-28.4c3.4 1.6 7 3.2 10.8 2.8s7.5-3.2 7.5-7c-.6 8.8-1 17.8.5 26.5.6 3.5 1.5 6.9 1.8 10.4 1.1 12.6-5.5 25.3-3.1 37.7.8 3.8-.9 7.8-4.3 9.8-3.4 1.8-7.4 2.1-11.1 3-7.3 1.9-13.7 6.5-21.1 8.3-3.4.8-7 1-10.4 1.9-4.9 1.3-9.3 4.1-14.2 4.9-3.7.7-7.5.2-11.3.5-3.3.3-6.5 1.1-9.7 1.2-8 .2-15.6-4.3-20.9-10.3s-8.8-14.6-12.1-21.8z"/><path opacity=".1" d="M302.8 168.3c.7-3.5 1.3-7.1 3.2-10.2 1.3-1.9 2.9-3.6 4.7-5 3.1-2.6 6.3-5.1 10.1-6.3s8.3-1.1 11.5 1.3 4.5 6.6 5 10.6c.7 5.5 0 11.2-2.7 16-3.1 5.4-8.5 9-13 13.3-3.3 3.1-6.1 6.7-8.5 10.6-1.1 2-2.4 3.9-3.9 5.6-1.5 1.7-3.8 2.7-6.1 2.5-1.9-.3-3.5-1.6-5-2.9-1.9-1.6-6.8-4.5-7-7.1-.1-2.1 3.8-6.8 4.7-8.8 3.1-6.2 5.4-12.8 7-19.6z"/><path opacity=".1" d="M197.8 268.3c8-2.1 16.3-3.1 24.6-3 13.8.2 28.1 3.5 41.2-.7 3.4-1.2 6.7-2.6 9.9-4.3 2.6-1.3 5.4-2.7 7.4-4.8 6.5-6.9 9.4-17.4 11.4-26.7s2.6-18.9 3.1-28.4c3.4 1.6 7 3.2 10.8 2.8s7.5-3.2 7.5-7c-.6 8.8-1 17.8.5 26.5.6 3.5 1.5 6.9 1.8 10.4 1.1 12.6-5.5 25.3-3.1 37.7.8 3.8-.9 7.8-4.3 9.8-3.4 1.8-7.4 2.1-11.1 3-7.3 1.9-13.7 6.5-21.1 8.3-3.4.8-7 1-10.4 1.9-4.9 1.3-9.3 4.1-14.2 4.9-3.7.7-7.5.2-11.3.5-3.3.3-6.5 1.1-9.7 1.2-8 .2-15.6-4.3-20.9-10.3s-8.8-14.6-12.1-21.8z"/></g><g id="rueda-2" fill="#3F3D56"><path d="M557.4 280.5c38 0 68.8 30.8 68.8 68.8s-30.8 68.8-68.8 68.8-68.8-30.8-68.8-68.8c0-37.9 30.8-68.8 68.8-68.8m0-17c-47.4 0-85.8 38.4-85.8 85.8s38.4 85.8 85.8 85.8 85.8-38.4 85.8-85.8c0-47.3-38.4-85.7-85.8-85.8z"/><path d="M544.7 243.5h20.1v21.2h-20.1z"/><path transform="rotate(-149.004 603.85290212 266.33128118)" d="M593.8 255.7h20.1v21.2h-20.1z"/><path transform="rotate(-119 639.17667128 300.68479479)" d="M629.1 290.1h20.1v21.2h-20.1z"/><path transform="rotate(-58 639.68297908 397.31609316)" d="M629.6 386.7h20.1v21.2h-20.1z"/><path transform="rotate(-61 475.63454596 300.68250409)" d="M465.6 290.1h20.1v21.2h-20.1z"/><path transform="scale(-1) rotate(58 716.77243879 -857.26906926)" d="M465.1 386.7h20.1v21.2h-20.1z"/><path transform="rotate(-30.996 510.98369144 266.32072065)" d="M500.9 255.7H521v21.2h-20.1z"/><path d="M544.7 434.1h20.1v21.2h-20.1z"/><path transform="rotate(149.004 603.87217789 432.42600238)" d="M593.8 421.9h20.1v21.2h-20.1z"/><path transform="rotate(30.996 510.95864221 432.50350659)" d="M500.9 421.9H521v21.2h-20.1z"/><path d="M449.4 340.9h24.4v18h-24.4zM641.1 340.9h24.4v18h-24.4z"/></g><g id="rueda-3" fill="#3F3D56"><path d="M717.3 156.6c38 0 68.8 30.8 68.8 68.8s-30.8 68.8-68.8 68.8-68.8-30.8-68.8-68.8c0-37.9 30.8-68.8 68.8-68.8m0-17c-47.4 0-85.8 38.4-85.8 85.8s38.4 85.8 85.8 85.8 85.8-38.4 85.8-85.8c0-47.3-38.4-85.7-85.8-85.8z"/><path d="M704.6 119.6h20.1v21.2h-20.1z"/><path transform="rotate(-149.004 763.78061094 142.41970998)" d="M753.7 131.8h20.1V153h-20.1z"/><path transform="rotate(-119 799.1040666 176.77100171)" d="M789 166.2h20.1v21.2H789z"/><path transform="rotate(-58 799.60881638 273.40026827)" d="M789.5 262.8h20.1V284h-20.1z"/><path transform="rotate(-61 635.55196531 176.78581355)" d="M625.5 166.2h20.1v21.2h-20.1z"/><path transform="matrix(-.5299 -.848 .848 -.5299 739.7803 956.8374)" d="M625 262.8h20.1V284H625z"/><path transform="rotate(-30.996 670.91254962 142.39031473)" d="M660.8 131.8h20.1V153h-20.1z"/><path d="M704.6 310.2h20.1v21.2h-20.1z"/><path transform="rotate(149.004 763.78735978 308.51711732)" d="M753.7 297.9h20.1v21.2h-20.1z"/><path transform="rotate(30.996 670.89047516 308.58609737)" d="M660.8 297.9h20.1v21.2h-20.1z"/><path d="M609.3 217h24.4v18h-24.4zM801 217h24.4v18H801z"/></g><g id="rueda-1" fill="#3F3D56"><path d="M397.4 151.3h2.4c38 1.3 67.7 33.1 66.5 71.1-1.3 37.1-31.7 66.5-68.8 66.5h-2.4c-38-1.3-67.7-33.1-66.5-71.1 1.3-37.1 31.7-66.5 68.8-66.5m0-17c-47.4 0-85.8 38.4-85.9 85.8 0 46.3 36.7 84.2 82.9 85.8h3c47.4 0 85.8-38.4 85.8-85.8 0-46.3-36.7-84.2-82.9-85.8-.9.1-1.9 0-2.9 0z"/><path transform="matrix(-.9994 -.03473 .03473 -.9994 791.6853 263.4336)" d="M388.1 114.3h20.1v21.2h-20.1z"/><path transform="matrix(-.8388 -.5445 .5445 -.8388 745.9625 498.4632)" d="M436.7 128.2h20.1v21.2h-20.1z"/><path transform="matrix(-.4541 -.8909 .8909 -.4541 543.9423 681.9548)" d="M470.8 163.8h20.1V185h-20.1z"/><path transform="matrix(.559 -.8291 .8291 .559 -13.8287 515.7873)" d="M468 260.3h20.1v21.2H468z"/><path transform="matrix(.5149 -.8573 .8573 .5149 9.4145 353.9428)" d="M307.4 158.1h20.1v21.2h-20.1z"/><path transform="rotate(-119.888 312.1669117 266.81578293)" d="M302.1 256.2h20.2v21.3h-20.2z"/><path transform="rotate(-29.014 353.89206665 135.53743168)" d="M343.9 124.9H364v21.2h-20.1z"/><path transform="matrix(-.9994 -.03473 .03473 -.9994 771.8511 644.1003)" d="M381.5 304.8h20.1V326h-20.1z"/><path transform="rotate(150.986 441.0419088 304.83575661)" d="M431 294.2h20.1v21.2H431z"/><path transform="rotate(32.99 348.16993157 301.57148132)" d="M338.1 291h20.1v21.2h-20.1z"/><path transform="matrix(-.9994 -.03473 .03473 -.9994 595.6187 445.1176)" d="M289.5 208.4h24.4v18h-24.4z"/><path transform="matrix(.9994 .03473 -.03473 .9994 8.0764 -16.9935)" d="M481.1 215h24.4v18h-24.4z"/></g><path fill="#FBBEBE" d="M175.8 659.1c-2.5.3-4.9 1.1-7.1 2.2-3 1.8-4.9 5.1-6.2 8.3-3.3 8.2-4 17.2-4.1 26-.1 7.1.1 14.4 2.7 21 .7 2.1 1.9 4 3.5 5.5 1.4 1.1 3.1 1.9 4.8 2.3 3.8 1 8.2 1 11.3-1.4 3.5-2.7 4.3-7.5 5.1-11.8 1-5.8 2.4-12 6.7-16.1 3.2-3 7.8-4.5 10.2-8.2 2.8-4.4 1.3-10.2-.5-15.1-1.5-4.3-3.8-12.9-8.3-15.1s-13.5 1.6-18.1 2.4zM340.2 680.1c-1.3 4.8-3.7 9.2-7 12.9-2 2.3-4.5 5-3.4 7.9.4 1 1.1 1.8 1.9 2.5 14.7 14.3 35.2 21.3 55.5 23.9.3.1.7.1 1 0 .6-.3.7-1 .8-1.7.3-2.1.3-4.3 0-6.4-1-5-5.4-8.5-9.6-11.2s-8.9-5.4-11.3-9.9c-3-5.6-1.7-12.8-5.2-18-2.9-4.2-8.2-6-13.2-6.8-1.8-.3-5.5-2.2-7-1.3-1.6.8-1.9 6.3-2.5 8.1z"/><path fill="#3F3D56" d="M173.8 658.6c0-1-.8-1.9-1.8-2-1-.1-2 0-2.9.4-2.3.6-4.6 1.1-7 1.3-2.8.3-5.7.3-8.4 1s-5.4 2.4-6.5 5c-.5 1.5-.8 3.1-.7 4.7-.1 6.1.7 12.3 2.2 18.2.1.5.3.9.7 1.2.4.1.8 0 1.1.2.3.2.5.5.6.8 1.7 3.8 2.1 8 2.5 12.2.7 6.1 1.5 12.2 2.5 18.3.6 3.5 1.3 7.3 3.7 10 2.6 3 6.6 4.3 10.5 4.8 8.3 1.1 16.6-.6 24.8-2.3 1.6-.2 3-.8 4.2-1.9.7-.9 1.1-2.1 1-3.3-.2-4.1-3.9-7-7.3-9.2l-4.7-3.2c-.3-.2-.6-.4-.8-.7-.2-.5-.3-1-.2-1.5l.3-6c-6.3.1-12.1 3.7-15 9.3-.6 1.3-1.3 2.8-2.6 3.3-1.7.6-3.5-.8-4.1-2.5-.4-1.7-.3-3.6.1-5.3 2.7-14.7 2.1-29.8 3.8-44.6.1-1.7.6-3.3 1.5-4.7.8-1.2 2.3-2.1 2.5-3.5zM378 715.5c.7 1.1 1.8 2 2.4 3.2s.6 2.9-.5 3.6c-.7.3-1.4.4-2.2.2-14.7-1.8-28.5-8.1-39.5-17.9-1.8-1.6-3.5-3.3-4.8-5.3-1.3-2-2.4-4.3-4.6-5.2-1.3 5.7-2 11.5-2 17.4 0 3.8.5 8.2 3.7 10.5 1.3.8 2.6 1.3 4.1 1.7l6.9 1.9c1.2.5 2.5.6 3.8.4.8-.2 1.5-.7 2.4-.9.9-.1 1.8 0 2.7.3l5.9 1.7c2 .5 4 1.2 5.9 2 1.7.8 3.3 1.8 4.9 2.7 2.8 1.4 5.6 2.6 8.6 3.5L386 739c2.9 1.1 5.8 1.9 8.9 2.3 2.1.2 4.2 0 6.3.4 1.6.3 3.1.8 4.7 1 2.6.1 5.2-.7 7.4-2.2.8-.5 1.6-1.1 2.1-1.9 1.5-2.3.2-5.4-1.3-7.8-2.7-4.3-6.1-8.4-10.6-10.9-1.8-1-3.8-1.7-5.6-2.7-5.3-2.6-9.4-6.9-14.4-9.8-4.7-2.7-7.7 4.4-5.5 8.1z"/><path fill="#FBBEBE" d="M231.4 295.2c-5.5 3.8-11.8 6.2-18.5 7.2-3.5.4-7 .6-10.5.6-14.6 0-29.1-1.2-43.5-3.6 5.7-6.3 11.5-13 13.7-21.3 1.1-4.4 1.3-8.9.6-13.3-.9-5.7-2.2-11.3-4.1-16.8 6.1.3 12.3.2 18.4-.5 3.5-.4 12-3.5 15-1.1 2.8 2.2.7 10.1.6 13.8v.4c.2 5.5 1.3 11 3.5 16.1 4.6 9.7 14 17.8 24.8 18.5z"/><path opacity=".1" d="M203.3 260.1c-8.9 5.8-19.8 7.5-30 4.6-.9-5.7-2.2-11.3-4.1-16.8 6.1.3 12.3.2 18.4-.5 3.5-.4 12-3.5 15-1.1 2.9 2.3.8 10.1.7 13.8z"/><circle fill="#FBBEBE" cx="183.3" cy="227.7" r="36.6"/><path fill="var(--main, #5fceb3)" d="M338.6 412.9c0 6-3.1 11.6-8.2 14.7-2.8 1.5-5.9 2.5-9 3.1-16.7 4-33.9 7.3-51.1 6.3-3.7-.2-7.5-.6-10.8-2.3s-6.2-4.7-6.7-8.4c0-.9-.2-1.8-.5-2.7-.7-.9-1.5-1.7-2.5-2.3-3.2-2.4-4.7-6.4-3.9-10.3-2.1.9-4.3-1.2-5.2-3.2-1-2.1-1.8-4.6-3.9-5.4-1.4-.6-3.1-.2-4.6-.6-2.4-.6-3.9-3-5.6-4.8-3.5-3.7-8.4-5.6-12.9-7.9-13.5-6.8-24.5-17.5-35.2-28.1-5.4-5.3-10.9-10.7-15.1-17-1.2-1.8-2.3-3.6-3.3-5.5-3.3-6.2-6.1-12.7-8.4-19.3-1.4-3.5-2.7-7.3-2.2-11 0-.3.1-.7.2-1 .7-2.4 1.8-4.7 3.3-6.7 3.7-5.5 8.6-10.7 15-12.3s12.8.4 19.3 1.7c2.2.5 4.3.8 6.5 1 6.9.5 13.7-1.4 20.4-3.2l7.3-2c3.6-1 5.5-5.4 9.1-6.2 1.6-.2 3.3-.2 4.9.2 7.5 1.4 15 3.2 21.6 7 1.5.8 2.9 1.8 4.2 2.9 4.7 3.7 8.4 8.6 9.7 14.4 1.5 6.3.1 13.1 1.6 19.4 1.2 5.2 4.4 9.8 7.5 14.2l17.9 25.5c4 6 8.4 11.7 13.1 17.1 9.4 10.7 27.2 18.6 27.5 32.7z"/><path fill="#3F3D56" d="M419.5 592.3c-4.6 8.5-9.6 16.8-13.7 25.5-2.4 5.1-4.5 10.4-7.1 15.3-2.9 5.4-6.5 10.5-9.5 15.8-7.6 13.5-11.9 28.8-15.8 43.8-11-1.6-21.6-5.4-31.2-11-.6-.4-1.3-.8-1.9-1.2-2.6-1.8-4.7-4.2-6.3-6.9 3.6-13.7 7.4-27.7 14.8-39.8 2.4-4 5.2-7.7 7.6-11.5 7.2-11.3 8.7-25.6 16.9-36.1 1.6-2.2 1.6-5.2 0-7.4-1-1.2-2.5-2.4-2.2-3.9.2-1.1 1.4-2.1.9-3.2-.2-.5-.7-.8-1.1-1.1-1.4-1.3-1.2-3.5-1.3-5.4-.3-4.8-3.2-9-6-12.9-.6-.9-1.3-1.7-2.2-2.4-.7-.5-1.6-.7-2.4-1.1-2.6-1.6-2.4-5.5-3.7-8.3-1.6-3.7-5.8-5.6-8.5-8.7-3.5-3.8-4.3-9.2-8-12.6-.4-.4-.8-.7-1.2-1 1.8 5.7 2 11.7 2.1 17.6.4 20.4-4.8 41.5-2.4 61.8 1.9 16.1-8 32.1-22 40.1-5.4 3.1-11.3 5.1-17.2 7.2-8.8 3.1-17.5 6.3-26.2 9.9-6.1 2.5-12.1 5.2-18 8.2-7.3 3.5-14.4 7.5-21.3 11.8-8.5 5.4-16.9 10.8-22.9 18.9-5.8-.2-11.1-3.7-14.8-8.2s-6-10-8.1-15.4c-1.9-4.7-3.7-9.5-3.9-14.5.1-1.1.7-2.1 1.7-2.5l40.2-21.3 7.5-4c16.5-8.7 33.5-16.8 49.9-25.5 1.1.3 2-.9 2.3-2s.6-2.5 1.6-2.9c.5-.2 1.2-.2 1.6-.7.3-.4.4-.9.3-1.3-.5-8-6.3-15.3-5.1-23.2.5-3.4 2.2-6.7 1.5-10-.5-2.3-2.2-4.1-3.1-6.3-2-4.8 0-10.7-2.2-15.4-1.4-3.1-2.4-6.4-2.9-9.8-1-6.8-3.1-13.4-6.1-19.5-1.5-3.1-3.4-6-5.6-8.5-1.2-1.3-2.6-2.5-3.7-3.8-3.5-4.1-4.8-9.7-5.8-15-1.8-9.7-3-19.7-.8-29.3.8-3.3 1.9-6.5 1.9-9.9 0-4.4-2-9.6 1.1-12.8 1.3-1.1 2.8-1.9 4.5-2.3 7.1-2.1 14.5-3.1 21.8-4l33.6-4.4c3.8-.5 7.8-1 11.2-2.9 4.5-2.5 7.6-7.2 9.4-12 5.9 4.3 8.1 12.3 12.8 17.9 2.3 2.7 5.1 4.9 7.6 7.4 3.1 3.2 5.9 6.7 8.4 10.4 7 9.6 14 19.3 19 30.1 2.6 5.6 4.6 11.4 6.7 17.2 8.2 22.9 21.5 44.6 27.1 68.2 1.4 5.8 4.9 11 5.4 16.9.7 6.2-2.2 12.3-5.2 17.9z"/><path opacity=".1" d="M243.8 402.3c-.8 1.5-1.2 3.2-1.2 5 .8-3.7 5.8-5.8 6.2-9.4.1-1.7-.2-1.6-1.2-.7-1.7 1.3-2.4 3.7-3.8 5.1zM259.3 413.6c-1.1.9-1.9 2.1-2.3 3.4-.9 1.9-1 4-.5 6 .8-.4 1-1.3 1.2-2.1.4-1.2.9-2.4 1.6-3.5.6-1 3.4-3.2 3.4-4.3-.1-1.6-2.7-.1-3.4.5z"/><g id="brazo-exterior"><path fill="#FBBEBE" d="M290.8 168.3c.7-3.5 1.3-7.1 3.2-10.2 1.3-1.9 2.9-3.6 4.7-5 3.1-2.6 6.3-5.1 10.1-6.3s8.3-1.1 11.5 1.3 4.5 6.6 5 10.6c.7 5.5 0 11.2-2.7 16-3.1 5.4-8.5 9-13 13.3-3.3 3.1-6.1 6.7-8.5 10.6-1.1 2-2.4 3.9-3.9 5.6-1.5 1.7-3.8 2.7-6.1 2.5-1.9-.3-3.5-1.6-5-2.9-1.9-1.6-6.8-4.5-7-7.1-.1-2.1 3.8-6.8 4.7-8.8 3.2-6.2 5.5-12.8 7-19.6z"/><path opacity=".1" d="M261.1 289.7c-2.4 2-4.9 3.8-7.7 5.1-7.2 3.7-15.3 5.6-22.6 9.2-3.6 1.8-7.1 3.9-10.5 6.1l-21.7 13.8c-1.7 1-3.4 2.2-4.8 3.6-2.6 2.8-2.6 7.7-5 10.7s-6.5 4.7-10.5 4.9c-4 0-8-.7-11.7-2-2.3-.7-4.5-1.5-6.7-2.4-2.3-1-4.4-2.2-6.4-3.7-3.9-2.9-7-7.2-7.6-12-.3-3.3.2-6.6 1.3-9.8.6-2 1.4-4 2.3-5.9.5-1.1 1.1-2.1 1.8-3.1 5-7.1 13.8-10.4 22.3-12 4.5-.9 9-1.4 13.5-2.2 2.2.5 4.3.8 6.5 1 6.9.5 13.7-1.4 20.4-3.2l7.3-2c3.6-1 5.5-5.4 9.1-6.2 1.6-.2 3.3-.2 4.9.2 7.5 1.4 15 3.2 21.6 7 1.4.9 2.8 1.8 4.2 2.9z"/><path fill="var(--main, #5fceb3)" d="M278.8 192.6c-.9 8.9-8.4 15.4-13 23-2.2 3.7-3.8 7.8-5.8 11.6-2.3 4.2-4.8 8.2-7.6 12.1l-8.1 11.8c-4.8 6.9-9.6 13.9-15.7 19.8-10.6 1.8-19.6 9.7-29.7 13.6-8.1 3.1-16.9 3.5-25.4 5.1s-17.3 5-22.2 12c-1.9 2.8-3.3 5.8-4.2 9-1.1 3.1-1.6 6.5-1.3 9.8.6 4.8 3.7 9.1 7.6 12 3.9 2.9 8.5 4.7 13.1 6.1 3.8 1.3 7.7 2 11.7 2 4-.2 8.1-1.7 10.5-4.9s2.4-7.9 5-10.6c1.4-1.4 3-2.6 4.8-3.6l21.7-13.8c3.4-2.2 6.9-4.2 10.5-6.1 7.3-3.6 15.3-5.5 22.6-9.2 7.2-3.7 14-9.7 15.5-17.7 4.4-24.6 21.4-45.3 36-65.6-.5-.1-.3-1.2-.5-1.6-1.9-4.8-6-8.5-10.7-10.7s-9.8-3.1-14.8-4.1z"/></g><path fill="#3F3D56" d="M202 192.7c.3-2.7-.3-5.4-1.5-7.7-2.4-4-7.5-5.4-12-6.4-4.4-.9-8.8-1.7-13.2-2.3-3.6-.5-7.4-1-11-.2-5 1.1-9.1 4.4-13.7 6.5-5.5 2.4-11.5 3.1-17.4 4.4-5.8 1.4-11.8 3.6-15.5 8.4-2.8 3.6-3.9 8.2-4.7 12.7-6.9 37.4.5 75.7 1.9 113.7.6 14.8-.1 30.6-8.6 42.8l24.6-.7c6.3-.2 13.1-.5 18-4.4 4.4-3.4 6.4-8.9 8.3-14.1 1.5-4.1 3-8.3 3.1-12.7.4-8.9-4.7-17.7-3-26.5 1.2-6.6 6-11.9 11.1-16.2 5.1-4.3 10.8-8 14.9-13.3 7.4-9.3 8.8-22.1 7.9-33.9-.5-7-1.8-14.1-1.2-21.1.5-5.3 2.1-10.7 5.6-14.8 4.1-4.6 6.1-7.6 6.4-14.2z"/><path opacity=".1" d="M200.5 185c-2.4-3.9-7.3-5.4-11.8-6.3 2.4.9 4.4 2.5 5.8 4.6 1.3 2.4 1.8 5.1 1.5 7.7-.3 6.6-2.4 9.5-6.3 14.2-3.5 4.1-5.1 9.5-5.6 14.8-.6 7 .6 14.1 1.2 21.1.9 11.9-.5 24.6-7.9 33.9-4.1 5.2-9.8 9-14.9 13.3-5.1 4.3-9.9 9.6-11.1 16.2-1.6 8.8 3.4 17.6 3 26.5-.2 4.4-1.7 8.5-3.1 12.7-1.9 5.2-3.9 10.7-8.3 14.1-5 3.9-11.7 4.2-18 4.4l-17.4.5c-.4.6-.8 1.3-1.2 1.9l24.6-.6c6.3-.2 13.1-.5 18-4.4 4.4-3.4 6.4-8.9 8.3-14.1 1.5-4.1 3-8.3 3.1-12.7.4-8.9-4.7-17.7-3-26.5 1.2-6.6 6-11.9 11.1-16.2 5.1-4.3 10.8-8 14.9-13.3 7.4-9.3 8.8-22.1 7.9-33.9-.5-7-1.8-14.1-1.2-21.1.5-5.3 2.1-10.7 5.6-14.8 3.9-4.7 6-7.6 6.3-14.2.3-2.7-.2-5.4-1.5-7.8zM385.4 570.4l-45.2 110.2c-2.6-1.8-4.7-4.2-6.3-6.9 3.6-13.7 7.4-27.7 14.8-39.8 2.4-4 5.2-7.7 7.6-11.5 7.2-11.3 8.7-25.6 16.9-36.1 1.6-2.2 1.6-5.2 0-7.4-1-1.2-2.5-2.4-2.2-3.9.2-1.1 1.4-2.1.9-3.2-.2-.5-.7-.8-1.1-1.1-1.4-1.3-1.2-3.5-1.3-5.4-.3-4.8-3.2-9-6-12.9-.6-.9-1.3-1.7-2.2-2.4-.7-.5-1.6-.7-2.4-1.1-2.6-1.6-2.4-5.5-3.7-8.3-1.6-3.7-5.8-5.6-8.5-8.7-3.5-3.8-4.3-9.2-8-12.6l-.3-.8 3.5-21.3 43.5 73.2z"/></svg>