<svg xmlns="http://www.w3.org/2000/svg" viewBox="0 0 1144 652.5" class="svg-src"><style>@keyframes bright{20%,to{transform: scale(500) rotate(90deg);opacity:0}}@keyframes vibration{to{transform: rotate(5deg)}}#brillo{animation:bright 5s ease infinite;transform-origin:40.25% 35.5%}#brazo-chica-1,#brazo-chico-1{animation:vibration 1s ease infinite alternate}#brazo-chica-2,#brazo-chico-2{animation:vibration 1s ease infinite alternate 1s}#brazo-chica-1{transform-origin:20% 50%}#brazo-chica-2{transform-origin:30% 50%}#brazo-chico-1{transform-origin:63% 40%}#brazo-chico-2{transform-origin:75% 40%}</style><path opacity=".1" fill="var(--main, #5fceb3)" d="M687.7 470.3c22.1-1.3 49.5-16.2 70.8-22.9 25.2-7.8 50.6-15.4 76-22.6 88.5-25.2 178-46.7 268.5-64.4 8.4-1.7 16.9-3.3 25.4-4.9-13.2-28.5-33.6-53-59.3-71.2.7-6.2 1-12.5 1-18.8 0-99.1-79.2-179.5-177-179.5-30.1 0-59.7 7.7-85.9 22.6-69.2-45.5-159.5-73-258.3-73-140.4 0-263.7 55.6-333.5 139.4l328.3 55.5 201.3 34c-229.5 6.9-459.8 13.7-688.6-2.4C-6 322.3-16.9 418.3 30.2 491c0 3.6.2 7.2.4 10.7 5.8 1.7 11.5 3.3 16.5 4.3 81.1 17.1 162.7 31.5 244.8 43-60.5 37.3-134.2 42.6-204 58.4 33.8 27.9 79.7 45 130.3 45h753.1c81.5 0 147.6-56.8 147.6-126.8 12.2-20.2 20.4-42.6 24-65.9-150.8 14.6-303.6 2-455.2 10.6z"/><path opacity=".1" fill="var(--main, #5fceb3)" d="M1144 429.9c.2-58.6-28.2-113.6-76-147.4.7-6.2 1-12.5 1-18.8 0-99.1-79.3-179.5-177-179.5-30.1 0-59.7 7.7-85.9 22.5-69.2-45.5-159.5-73.1-258.3-73.1-160.7 0-299.1 72.9-360.5 177.6-3.4-.2-6.8-.3-10.3-.3C79.2 211 0 291.3 0 390.5c-.1 35 10 69.3 29.1 98.7 0 89.2 84.2 161.5 188 161.5h753.1c81.5 0 147.6-56.8 147.6-126.8 17.2-28.4 26.3-60.9 26.2-94z"/><path fill="#BE6F72" d="M793.3 212.6c-1.2 1-2.6 1.8-4.2 2.2l-7.1 2.5c-3.8 1.4-7.9 2.8-11.9 2.3-2.3-.3-12-1.7-13.5-3.5-2.2-2.7 5.6-6.8 8.3-9.1.6-.4 1.2-.9 1.7-1.5 1-1.2.9-2.9.7-4.5-.5-3.9-.7-7.8-.5-11.8.1-.9.2-1.9.4-2.8 1-4.6 5.3-2.9 8.7-1.7 4.1 1.3 8 3 11.8 5.1 1.1.6 2.1 1.4 2.9 2.5 1.5 2.2.9 5.2.7 8-.2 2.2-.2 4.3 1.2 5.9.7.6 1.3 1.3 1.9 2 .5 1.6.2 3.3-1.1 4.4z"/><path fill="#3F3D56" d="M830.8 454.7c-1.5 5.8-6 10.3-8.4 15.8-3.5 8.2-1.9 18.3-6.9 25.8-1.6 2.3-3.6 4.3-5.8 6-1.2 1-2.6 1.9-4 2.7-1.5.8-3.2 1-4.9.6-2.1-.7-3.4-3-3.6-5.2-.1-.7-.1-1.4 0-2.2.2-1.5.5-3 1-4.4 1.2-4 2.4-8.1 3.6-12.2.7-2.2 1.2-4.5 1.4-6.8.1-2.5-1.5-5.8-.8-8.2.3-1.1 1.5-2 2-2.9.8-1.3 1.3-2.7 1.7-4.1.8-2.8 1.4-5.8 3.1-8.1 1.1-1.4 2.4-2.6 3.9-3.7 1.1-.9 2.3-1.7 3.7-2.1 1.3-.2 2.7-.2 4 .2 1.7.4 3.4.8 5 1.4h.1c2 .7 4.1 1.8 4.8 3.8.5 1.3.5 2.5.1 3.6zM937.2 331.8c-.1 1.5-.2 3.3-1.5 4.2-1 .7-2.3 1-3.5.8h-.2c-3.6 0-7.2-.2-10.6.9-2.6.9-4.9 2.4-7.6 2.7-3.7.4-7.2-1.6-10.4-3.4-3.1-1.7-6.2-3.2-9.5-4.5-2.1-.9-6.5-1.4-7.5-3.8l-.9-3.3-.6-1.5c-.6-1-1-2.1-1.1-3.3 0-1.2.4-2.3 1.1-3.2 1.6-2 4-3.2 6.5-3.4 2.5-.2 5.1-.1 7.5.4l24.6 3.5c1.9.3 3.8.5 5.7 1 1.8.3 3.5 1 4.9 2.1 3.1 2.7 3.3 7 3.1 10.8z"/><path fill="#65617D" d="M915.6 338.2c-3 6.3-.8 13.8-1.4 20.8-.5 3.9-1.3 7.8-2.7 11.5-1.2 3.7-2.3 7.5-3.8 11.1-1.2 3-2.7 6-3.9 9.1-1.8 4.9-3 10.4-6.7 14-1.7 8.2-3.9 17.1-10.6 22.1-5.8 4.3-14 4.5-20.8 1.9s-12.4-7.6-17.3-13-9.3-11.3-14.5-16.3c-3-2.8-6.2-5.4-9.6-7.8-3.4-2.5-6.9-4.8-10.5-6.9-2.2-1.5-4.6-2.6-7.2-3.1-2.1-.4-4.3 0-6.2 1.2-.4.3-.8.6-1.1 1-.9 1.2-1.6 2.6-2 4.1-4.2 10.9-15.5 16.6-24.5 24l-8.2 6.8c-1.1.9-2.4 2.3-1.8 3.6.4.7 1 1.2 1.7 1.5 4.8 2.4 10.4 3.3 14.3 6.9 1.4 1.3 2.8 3.1 4.8 3.2 1-.1 2-.3 3-.7 3.1-.8 6.3-.2 8.8 1.8.7.7 1.5 1.2 2.4 1.7.7.2 1.5.2 2.3.1 2.1-.2 4.4-.3 6.3.6s3.5 3.2 5.7 3.3c1.1.1 2.4-.3 3.4-.2.6 0 1.1.3 1.4.8.2.5.4 1.1.5 1.7.4 1.4 1.8 2.3 2.7 3.4 1.4 1.8 1.6 4.2 1.4 6.5-.5 7-3.6 13.6-8.8 18.4-1.5 1.5-3.3 2.5-5.4 3-2.1.4-4.3-.5-5.3-2.4-.2-.8-.6-1.5-1-2.2-1.6-1.8-5.2.1-6.7-1.8-.9-1.2-.3-3.1-1.1-4.3s-3-1-4.6-1.1c-1.9-.1-3.7-1-5.5-1.5-3-.8-6.1-.5-9.2-.7-2.6-.2-5.1-.6-7.6-1.2l-12.7-2.6c-8.1-1.7-16.2-3.3-23.9-6.3-3-1.1-5.9-2.5-8-4.9-1.7-2.1-2.8-4.6-3.1-7.3-1.8-10.7 7.8-19.8 9-30.5.4-3.9 2-7.6 3.5-11.3l8.1-19.5c.4-1.2 1-2.4 1.7-3.5 1.2-1.4 2.4-2.7 3.9-3.8 3.8-3.4 6.5-7.9 7.8-12.8.1-.6.3-1.1.7-1.5.4-.3.7-.5 1.2-.8 1.5-1 2.1-2.8 1.5-4.5 1.3-.1 2.3-1.1 2.4-2.4-.1-.5 0-1.1.1-1.6.2-.5.8-.8 1.2-1.2.6-.8.4-1.8.3-2.7-.1-.6-.1-1.2 0-1.8.2-2.1 1.2-4.1 2.7-5.6 2.4-2.4 5.8-1.7 9.1-2.3 3.3-.7 6.5-1.7 9.6-3.1 8.7-3.4 17.8-5.5 27.1-6.3 9.3-.7 18.7.8 27.4 4.4 1.3.5 2.4 1.2 3.5 2 .8.6 1.4 1.3 1.8 2.2.4 1.1.8 2.1 1.4 3.1 1.1 1.5 3.1 1.9 4.3 3.3s1.3 3.7 2.2 5.4c1.4 2.4 4.6 3.6 5.6 6.2.3.8.3 1.8.6 2.6.5 2.2 2.2 3.9 3.6 5.6 5.2 6.3 8.6 13.9 9.7 22 .3-5.1 3.7-9.6 8-12.4 1.2-.8 2.5-1.6 2.7-2.9.3-1.7-1.4-3.2-1.3-5 .1-.9.5-1.7 1-2.3 1.9-2.8 4-5.4 6.3-7.9 1.2-1.4 2.6-3 2.1-4.8-.4-1.3-1.8-2.1-2.5-3.3-.9-1.4-.9-3.2.1-4.6.7-1 1.8-1.6 2.2-2.8.4-1.3-.5-2.8-.2-4.1.4-1.1 1.1-2 2.1-2.7 1.3-1.2 2.8-2.2 4.5-2.9 2.6-1 5.6-.6 8.4-.2 4.7.6 9.9 1.6 12.6 5.6 1.4 2.5 2.3 6.3 1 8.9z"/><path opacity=".1" d="M937.2 331.8c-.1 1.5-.2 3.3-1.5 4.2-1 .7-2.3 1-3.5.8h-.2c.4-2.1 2.9-3.3 3.4-5.4.2-1.3-.2-2.6-1.1-3.6-2.1-2.9-5.6-4.5-9-5.7-9.7-3.3-20-4.1-30.1-2.2-2.7.4-5.4 1.3-7.9 2.4-.8.5-1.6 1.1-2.4 1.7-.6-1-1-2.1-1.1-3.3 0-1.2.4-2.3 1.1-3.2 1.6-2 4-3.2 6.5-3.4 2.5-.2 5.1-.1 7.5.4l24.6 3.5c1.9.3 3.8.5 5.7 1 1.8.3 3.5 1 4.9 2.1 3.1 2.6 3.3 6.9 3.1 10.7zM830.8 454.7c-1.5 5.8-6 10.3-8.4 15.8-3.5 8.2-1.9 18.3-6.9 25.8-1.6 2.3-3.6 4.3-5.8 6-1.2 1-2.6 1.9-4 2.7-1.5.8-3.2 1-4.9.6-2.1-.7-3.4-3-3.6-5.2-.1-.7-.1-1.4 0-2.2l.1.2c.9 2.1 2.3 4.3 4.5 4.7 1.7.1 3.4-.5 4.6-1.6 3.3-2.7 5.2-6.6 7-10.4 1.4-2.7 2.6-5.6 3.4-8.6.4-1.7.6-3.4 1-5.1 1.9-8.3 8.4-15 9.8-23.4.1-.6.1-1.2.1-1.8-.2-.8-.5-1.5-.9-2.2-.3-.8-.6-1.6-.8-2.4 2 .7 4.1 1.8 4.8 3.8.5 1.1.4 2.2 0 3.3zM815.7 440.4c-.9 2.4-2.5 4.5-4.5 6.2-2.8 2.2-6.2 3.6-9.7 4.2-1.6.4-3.4.4-5-.1-2.2-.8-3.8-2.8-6.1-3.5-1.6-.4-3.4 0-5-.3-3-.4-5.2-2.7-7.6-4.5-7.3-5.5-16.9-7.2-24.2-12.7-.3-.2-.6-.5-.8-.8-.1-.4-.2-.7-.2-1.1 0-3.3.8-6.6 2.2-9.6 1.2-2.1 2.5-4.1 4.1-5.9 6.5-8 13.1-16.1 20.9-22.8 3.3-2.8 6.9-5.5 11-6.8 2.3-.7 6.8-1.4 9.6-.2-.4.3-.8.6-1.1 1-.9 1.2-1.6 2.6-2 4.1-4.2 10.9-15.5 16.6-24.5 24l-8.2 6.8c-1.1.9-2.4 2.3-1.8 3.6.4.7 1 1.2 1.7 1.5 4.8 2.4 10.4 3.3 14.3 6.9 1.4 1.3 2.8 3.1 4.8 3.2 1-.1 2-.3 3-.7 3.1-.8 6.3-.2 8.8 1.8.7.7 1.5 1.2 2.4 1.7.7.2 1.5.2 2.3.1 2.1-.2 4.4-.3 6.3.6s3.5 3.2 5.7 3.3c1.3.2 2.6-.1 3.6 0z"/><path fill="#3F3D56" d="M723.8 304.7c-1.9 1.2-3.9 2.6-4.7 4.7-.6 1.7-.3 3.7-1.1 5.4s-2.5 2.9-2.9 4.6c-.3 1.3.3 2.7 0 4-.2.7-.4 1.4-.5 2.1-.1 1.5 1.2 2.7 2.4 3.5 5.4 3.5 12.1 4.3 18.2 2 2.7-1 5.1-2.6 7.6-3.9 2.5-1.4 5.4-2.1 8.2-2 1.7.2 3.2.8 4.9 1 1.7.3 3.4-.2 4.6-1.4.5-.7.9-1.5 1-2.4 1.4-5.5.8-11.3-.6-16.8s-3.3-10.8-4.7-16.3c-1-4.1-1.8-8.2-3.4-12.1s-4.5-7.4-8.4-8.9c-.3-.2-.7-.2-1-.1-.3.1-.5.3-.7.5-3.1 3.3-5.5 7.2-6.9 11.5-1.6 4.8-2 9.9-3.4 14.7-.6 2-1.4 4.7-3 6.2s-3.8 2.5-5.6 3.7z"/><path opacity=".1" d="M761.5 322.4c-.2.9-.5 1.7-1 2.4-1.2 1.2-2.9 1.7-4.6 1.4-1.6-.2-3.2-.8-4.9-1-2.9-.1-5.7.6-8.2 2-2.6 1.3-5 2.9-7.7 3.9-3.9 1.5-8.1 1.7-12.1.7-2.1-.5-4.2-1.4-6-2.6-1.3-.8-2.5-2-2.4-3.5.1-.7.3-1.4.5-2.1.3-1.3-.3-2.7 0-4 .4-1.8 2.1-3 2.9-4.7s.5-3.6 1.1-5.4c.8-2.1 2.8-3.5 4.7-4.7s4.2-2.2 5.7-3.7c.2-.2.4-.5.5-.7 1.1-1.7 1.9-3.6 2.4-5.5 1.5-4.8 1.9-9.9 3.4-14.7 1.4-4.3 3.8-8.2 6.9-11.5.2-.2.4-.4.6-.5.3-.1.7 0 1 .1 3.9 1.5 6.7 5.1 8.4 8.9s2.4 8 3.4 12.1c1.4 5.5 3.4 10.8 4.7 16.3s2.1 11.3.7 16.8zM791.2 200.4c-9.7 3.1-20.2-1.6-24.4-11 .1-.9.2-1.9.4-2.8 1-4.6 5.3-2.9 8.7-1.7 4.1 1.3 8 3 11.8 5.1 1.1.6 2.1 1.4 2.9 2.5 1.4 2.2.9 5.1.6 7.9z"/><circle fill="#BE6F72" cx="785.2" cy="180.3" r="20"/><path opacity=".1" d="M839.5 329.8c0 1.7-2.2 2.2-3.9 2.1-6-.4-11.9-2-17.8-1.5-7.5.7-14.4 4.8-21.9 5.2-2.9.1-5.8-.3-8.7.2-3.7.7-7 2.9-10.8 3.3-3.3.3-6.5-1-9.8-.8-2.3.1-4.5.8-6.5 1.9.2-2.1 1.2-4.1 2.7-5.6 2.4-2.4 5.8-1.7 9.1-2.3 3.3-.7 6.5-1.7 9.6-3.1 8.7-3.4 17.8-5.5 27.1-6.3 9.3-.7 18.7.7 27.4 4.3 1.3.5 2.4 1.2 3.5 2-.1.2 0 .4 0 .6z"/><path fill="#E3E8F4" d="M775.9 216.9l-8.1-3-3.4-1.3c-1.4-.6-2.9-1-4.4-1.2-3.9-.3-7.6 2.3-9.7 5.6s-2.9 7.3-3.5 11.2c-.9 5.3-1.7 10.6-2.3 15.9-.7 4.8-1 9.7-1 14.5.2 12.4 2.8 24.6 5.7 36.6 1.4 5.3 2.5 10.8 3.2 16.2.2 2.3.3 4.5.6 6.8.3 2.5.7 5.1 1.1 7.6l2.4 14.4c3-2.1 6.4-4 10.1-4.1 3.3-.1 6.5 1.1 9.8.8 3.8-.3 7.1-2.6 10.8-3.2 2.9-.5 5.8-.1 8.7-.2 7.5-.4 14.4-4.5 21.9-5.2 6-.5 11.9 1.1 17.8 1.5 1.7.1 3.9-.4 3.9-2.1 0-1.2-1.2-1.9-2.2-2.5-4.8-2.9-9.3-6.1-13.5-9.7-3.9-3.1-7.9-6.3-10.7-10.5-6.5-10.1-4.3-23.9-9.9-34.6-4.5-8.7 0-20.1 0-29.9 0-4.9 0-9.8-1.2-14.6-.7-2.7-1.6-5.3-2.7-7.8l-3.9-9.9c-.1-.3-.2-.5-.5-.8-.3-.2-.6-.3-.9-.3-2.3-.1-4.6.6-6.5 2.1-1.8 1.5-3 3.6-4.8 5.2-1.8 1.9-4.3 3.4-6.8 2.5z"/><path fill="#3F3D56" d="M789 211.2c.6-2.7 1.3-5.6 3.2-7.7s5.2-3.3 7.5-1.7c2.7 1.7 2.8 5.8 5.1 8 2 1.9 5 2.1 7.7 2.3 4.9.4 9.7 1.6 14.3 3.4.9.3 1.7.8 2.4 1.4 1.2 1.4 1 3.6 1.6 5.4.8 2.3 3.2 3.7 4.1 6 1 2.5 0 5.3-.8 7.9-1.5 4.6-2.5 9.5-3.9 14.1s-3.6 9.3-7 12.8c-1.5 1.6-3.8 3-5.8 2.1l-.8 5.5c-.2 1.2-.2 2.4 0 3.5.2 1.2 1.1 2.2 2.3 2.5.2.9 1.1 1.3 1.8 1.7 2.3 1.6 2.9 4.7 1.3 6.9v.1c-.6.9-1.6 1.5-1.9 2.5-.5 1.5.6 3 1.9 3.8s2.8 1.2 4.2 1.9c2.7 1.6 4.2 4.7 5.2 7.7.7 2.3 1.3 4.8 3 6.4.7.6 1.5 1.1 2.1 1.8 1.1 1.3 1.7 2.9 1.8 4.6.3 2.1-.2 4.2-1.3 6-2 2.9-5.7 3.7-9 5-5.3 2.2-9.7 6.1-14.4 9.4-1.9 1.5-4.2 2.6-6.5 3.1-3.2.4-6.4-1-9.7-1.1-2 0-3.9.3-5.8.8l-6 1.3c.3-4.6-2.2-9.3-3.7-13.7-2.7-8.3-3.2-17.3-2.6-26s2.4-17.4 4.2-25.9c1.2-6 1.1-12.3 3-18.1 1.8-5.6 4.3-11 5.2-16.8 1.5-9.6-4.8-17.6-2.7-26.9z"/><path fill="#3F3D56" d="M834.5 229.7c.6 1 .9 2.1 1.2 3.2.5 1.8 1.3 3.4 2.5 4.8 1 .9 1.9 1.9 2.7 3 .9 1.7.6 3.9 1 5.8.5 2.1 2 3.9 2.2 6 0 .6.1 1.2.2 1.8.7 2.4 4.2 3 5 5.4.5 1.6-.4 3.3-.2 4.9.1.5.2 1 .1 1.6-.2.6-.6 1.1-1.1 1.5-3.3 3.2-5.6 7.2-6.6 11.7-1 4.4-1.5 9-1.5 13.5l-3.9-5.2c-.4-.6-.9-1.2-1.6-1.6-.5-.3-1.1-.5-1.6-.8-1.5-.8-2.1-2.6-2.6-4.2-1.6-4.4-4-8.5-7-12.1-1.6-1.9-3.4-3.8-3.8-6.2-.1-1.1 0-2.2.2-3.3 1-6.5 2.1-13.3 5.3-19.1 1.5-2.7 3.4-5.2 4.8-7.9.8-1.8 2.1-6.6 4.7-2.8zM785.3 151.4c1.8-3.3 5.3-5.2 9.1-4.9 3.8.7 6.8 3.4 7.9 7.1.5 1.5.7 3.1 1.5 4.4 1.2 1.9 3.5 2.5 5.3 3.9 2.1 1.9 3.3 4.6 3.4 7.4.1 2.9-.4 5.7-1.3 8.4-.4 1.1-.7 2.3-1 3.5-.2 1.2-.2 2.3-.4 3.5-.4 3-2.1 5.8-4.6 7.6-.4.3-.8.4-1.2.5-.8-.1-1.3-1-1.5-1.8-1.6-4.6-1.2-10.2-4.1-13.9-1.3-1.5-2.9-2.7-4.7-3.5-.7-.5-1.6-.8-2.4-.9-1.3.1-2.5.5-3.5 1.3-2.1 1.4-4.5 2.5-6.9 3.1-2.5.6-5.1 0-7.2-1.5-1.4-1.1-2.4-2.9-3.9-3.7s-3.1-.8-4.6-1.5c-3.5-1.5-5.1-5.5-3.6-9 .2-.5.5-1 .9-1.5 1-1.2 2.5-1.9 3.4-3.2 1.2-1.7 1-4.1 1.6-6.1.7-2.6 2.6-4.8 5.1-5.8 2.5-.8 5.2-.3 7.1 1.5 1 .9 1.8 2.1 2.8 3 2 1.9 4.8 2.6 7.4 2"/><path opacity=".1" d="M801.7 298.6c-1.2 1.1-1.6 2.7-1.1 4.2.2.5 10.5-1.5 11.6-1.7 2.7-.4 7.5-.2 9.3-2.7 3.3-4.4-6.8-3.4-8.7-3.3-3.4.4-8.4.8-11.1 3.5z"/><g id="brazo-chico-1"><path fill="#BE6F72" d="M695.4 140.6c1-4.4 1.2-9 2.4-13.4.8-2.9 1.9-5.6 3.1-8.4l4.4-10.3c.4-1.2 1.1-2.3 2.1-3.1 1-.6 2.2-1 3.4-.9 4.3-.2 8.8 1.2 11.8 4.4s3.9 8.3 1.5 11.9c-2.8 4.4-8.9 5.2-12.6 8.9-2.3 2.4-3.5 5.6-4.2 8.9-1.8 8.4-1.2 17.1-1.8 25.7-.2 2.7-.7 5.7-3 7.1-1.4.7-2.9 1-4.5.9l-6.6.1c-1.1 0-5.1.7-5.8-.1-1.3-1.5 1.6-8.7 2.2-10.3 1.2-3.6 2.6-7 4-10.6 1.4-3.2 3.6-7.4 3.6-10.8z"/><path fill="#3F3D56" d="M735.8 236c0 .8-.2 1.7-.6 2.4-.8.9-2 1.3-3.2 1-1.1-.3-2.2-.8-3.2-1.5-2.8-1.8-5.6-3.5-8.4-5.3-1.6-.9-3.1-2-4.5-3.1-2.2-1.9-4.2-3.9-5.9-6.2-4.9-6-9.2-12.5-14.6-18-1.5-1.5-3-2.9-4.4-4.5-1.9-2.3-3.7-4.7-5.3-7.2-1.6-2.3-3.2-4.9-2.9-7.6.2-1.6.9-3 1.1-4.5s-.4-3.4-1.9-3.9c-.2 0-.4-.1-.5-.1-.3 0-.6-.1-.9-.2-1.4-.6-1.2-2.7-.2-3.9s2.5-1.8 3.4-3c.4-.7.9-1.4 1.4-2.1.7-.6 1.5-1 2.3-1.2 5.8-1.7 11.9-1.9 17.8-.7 1 .2 2.1.6 2.4 1.6.1.5.1 1 0 1.4-.4 2-.7 4-.8 6 0 .4 0 .8.1 1.3.5 4.2 3.2 7.8 5.9 11.1 3.2 3.9 6.4 7.9 9.7 11.8 1.8 2.3 3.7 4.4 5.8 6.2 2 1.7 4.6 3 6.2 5.1 1.3 1.7.9 4.1 1 6.1.6 6.4.6 12.7.2 19z"/><path opacity=".1" d="M707.9 169.6c-.4 2-.7 4-.8 6-3 .6-6.1-.4-9-1.4l-8.3-2.8c-1-.7-2.4-.4-3.2.6-1.3 1.4-3.2 4-5 5.5-.3 0-.6-.1-.9-.2-1.4-.6-1.2-2.7-.2-3.9s2.5-1.8 3.4-3c.4-.7.9-1.4 1.4-2.1.7-.6 1.5-1 2.3-1.2 5.8-1.7 11.9-1.9 17.8-.7 1 .2 2.1.6 2.4 1.6.2.6.2 1.1.1 1.6z"/></g><path opacity=".1" d="M783.5 359.4c1.4.5 3 1.2 3.5 2.6l-11.6-2.9-6-1.5c-1.1-.3-4.9-.6-5.6-1.4-1-1.2 2.5-.4 3.2-.3 1.9.3 3.9.6 5.8.9 3.7.6 7.2 1.7 10.7 2.6zM788 369.7c-1-.7-3.9-.6-5.1-.9-1.8-.4-3.6-1-5.3-1.5-3.6-1.2-7.2-2.5-10.8-3.4-.7-.1-3-.2-2.9-1s2.3-1.2 2.9-1.2c3.3-.2 7.3 1.3 10.4 2.4 3.8 1.3 7.4 3.2 10.8 5.6zM780.7 350.3c-3.7-1-7-3.3-10.8-3.7-1 0-2-.3-2.8-.8-.4-.4-.8-1-.9-1.6 2.5-.1 5.5.9 7.8 2 1.3.5 2.5 1.2 3.6 1.9.9.4 2.2 1.9 3.1 2.2z"/><g id="brazo-chico-2"><path fill="#BE6F72" d="M862.8 277.7c1-1 1.9-2 2.7-3.1.8-1.4 1.5-2.9 2-4.5l5.8-16.5c.9-2.6 1.8-5.2 3-7.7 1.2-2.7 2.6-5.4 3.9-8 3.4-6.9 6-14.2 7.8-21.8.3-1 .4-2.1.3-3.2-.3-1.7-1.6-3.1-2.8-4.3-1.3-1.4-2.7-2.5-4.3-3.5-1.6-1-3.5-1.3-5.3-.9-2.6.8-4.2 3.4-4.8 6s-.4 5.3-.6 8c-.4 3.8-1.7 7.5-2 11.4-.2 2.2 0 4.5-.3 6.7-.5 2.9-1.5 5.7-3 8.3-3.2 6.1-7.6 11.5-12.9 15.9-1.4 1.1-2.8 2.3-3.9 3.7-.9 1.4-1.6 3-1.9 4.7-.7 2.5-.4 5.2.8 7.6 1.6 2.8 4.8 4 7.8 4.6 4 .8 5-.5 7.7-3.4z"/><path fill="#3F3D56" d="M850.6 260.7c-1.3 8.6 3.9 16.8 12.3 19.3-.5 2.4-2.9 3.7-4.7 5.4-2.4 2.4-3.7 5.9-6.6 7.7-3.2 2-7.3 1.2-11 .4-.3 0-.6-.2-.9-.5-.1-.1-.1-.3-.2-.4-1.2-4.4-2-9.2-.8-13.6 1-3.8 3.4-7 5.3-10.3s2.3-6.9 6.6-8z"/></g><path fill="#3F3D56" d="M761.2 203.4c-3.9.3-7.6 1.4-11 3.4-2.2 1.3-4.5 3-7.1 2.7-1.5-.2-3-1-4.5-.6-.8.3-1.6.8-2.3 1.4-.7.6-1.7.7-2.5.4l-1 13.8c-.4 5.3-.8 10.6.5 15.8.7 2.6 2.1 5 2.2 7.7s-.1 5.4.1 8.1c.2 2.5.7 4.9.9 7.4.3 4.7-.9 9.4-2 13.9-1.7 6.7-2.7 13.6-6 19.7-.9 1.7-2 3.4-2 5.3 0 .2 0 .5.1.7-1 .5-1.9 1.1-2.8 1.6-1.9 1.2-3.9 2.6-4.7 4.7-.6 1.7-.3 3.7-1.1 5.4s-2.5 2.9-2.9 4.7c-.3 1.3.2 2.7 0 4-.2.7-.4 1.4-.5 2.1-.1 1.5 1.2 2.7 2.4 3.5 1.8 1.2 3.9 2.1 6 2.6l6-23.7c5.4-10.1 10-20.6 13.5-31.5 1-3.6 2.3-7 3.9-10.4 1.1-1.9 2.1-3.9 3-5.9.9-2.5 1-5.2 1.4-7.9.5-3.1 1.3-6.2 2.3-9.1 1.1-3.2 2.3-6.4 2.5-9.8.3-4.8-1.4-9.9.4-14.4.8-1.7 1.8-3.2 3-4.6 2.6-3.2 4.9-6.5 7.5-9.6-1.1-1.4-3.3-1.5-5.3-1.4z"/><g opacity=".1"><path d="M789.4 148.1l-1.2.1-.1.1c.4-.1.8-.1 1.3-.2zM812.3 168.8c-.2 2-.6 3.9-1.3 5.8-.4 1.1-.7 2.3-1 3.5-.2 1.2-.2 2.3-.4 3.5-.4 3-2.1 5.8-4.6 7.6-.4.3-.8.4-1.2.5-.8-.1-1.3-1-1.5-1.8-1.6-4.6-1.2-10.2-4.1-13.9-1.3-1.5-2.9-2.7-4.7-3.5-.7-.5-1.6-.8-2.4-.9-1.3.1-2.5.5-3.5 1.3-2.1 1.4-4.5 2.5-6.9 3.1-2.5.6-5.1 0-7.2-1.5-1.4-1.1-2.4-2.9-3.9-3.7s-3.1-.8-4.6-1.5c-1.9-.8-3.3-2.5-3.9-4.5 0-.1-.1-.3-.1-.4-.2 1.1-.2 2.3.1 3.4.6 2 2 3.6 3.9 4.5 1.5.6 3.2.6 4.6 1.5s2.5 2.6 3.9 3.7c2 1.6 4.7 2.1 7.2 1.5 2.5-.6 4.8-1.6 6.9-3.1 1-.8 2.2-1.2 3.5-1.3.9.1 1.7.4 2.4.9 1.8.9 3.4 2.1 4.7 3.6 2.9 3.7 2.5 9.3 4.1 13.9.3.8.8 1.7 1.5 1.8.5 0 .9-.2 1.3-.5 2.5-1.8 4.2-4.5 4.6-7.6.2-1.2.2-2.3.4-3.5.3-1.2.6-2.4 1-3.5 1-2.7 1.4-5.5 1.3-8.4-.1-.2-.1-.3-.1-.5z"/></g><path fill="var(--main, #5fceb3)" d="M749 249.1l-.7 9.1c-.1 1.2-2.5 30.8-20 65.3-15 29.6-44.2 68.1-99.3 89.8-4.3 1.7-8.8 3.3-13.4 4.8l-5.2-16.2c13-4.1 25.4-9.5 37.2-16.3 28.1-16.2 49.9-39.4 65.2-69.2 8.1-15.9 13.8-32.8 17.1-50.3h-62.7v-17H749z"/><path opacity=".1" fill="#FFF" d="M622.3 413.3c55.1-21.7 84.3-60.2 99.3-89.8 17.5-34.5 19.9-64 20-65.3l.7-9.1h7l-.7 9.1c-.1 1.2-2.5 30.8-20 65.3-15 29.6-44.2 68.1-99.3 89.8-4.3 1.7-8.8 3.3-13.4 4.8l-.7-2.1c2.5-1 4.8-1.8 7.1-2.7z"/><path fill="var(--main, #5fceb3)" d="M512 401.8l-5.2 16.2c-4.6-1.5-9.1-3.1-13.4-4.8-55.1-21.7-84.3-60.2-99.3-89.8-17.5-34.5-19.9-64-20-65.3l-.7-9.1h81.7v17h-62.7c3.3 17.5 9.1 34.4 17.1 50.3 15.2 29.8 37.1 52.9 65.1 69.1 12 6.9 24.4 12.3 37.4 16.4z"/><path opacity=".1" fill="#FFF" d="M500.2 413.3c-55.1-21.7-84.3-60.2-99.3-89.8-17.5-34.5-19.9-64-20-65.3l-.7-9.1h-7l.7 9.1c.1 1.2 2.5 30.8 20 65.3 15 29.6 44.2 68.1 99.3 89.8 4.3 1.7 8.8 3.3 13.4 4.8l.7-2.1c-2.4-1-4.8-1.8-7.1-2.7z"/><path fill="var(--main, #5fceb3)" d="M655.6 558.4v91.7H466.9v-91.7l6-8c61.1-21.7 73.5-78.3 76-100.7.4-3.1.6-6.2.6-9.3h23.3c.1 3.1.3 6.2.6 9.3 2.5 22.4 14.9 79 76 100.7l6.2 8z"/><path opacity=".1" d="M466.9 558.4h188.7v11.5H466.9z"/><path opacity=".1" fill="#FFF" d="M482.9 550.4c61.1-21.7 73.5-78.3 76-100.7.4-3.1.6-6.2.6-9.3h-10c-.1 3.1-.3 6.2-.6 9.3-2.5 22.4-14.9 79-76 100.7l-6 8v91.7h10v-91.7l6-8z"/><path opacity=".1" d="M438.3 249.1h16.9v17h-15.4c-.6-5.6-1.1-11.3-1.5-17zM512 401.8l-5.2 16.2c-4.6-1.5-9.1-3.1-13.4-4.8-7.1-8.6-13.3-17.9-18.7-27.7 11.9 6.8 24.3 12.2 37.3 16.3zM610.5 401.8c13-4.1 25.4-9.5 37.2-16.3-5.3 9.8-11.6 19.1-18.7 27.7-4.3 1.7-8.8 3.3-13.4 4.8l-5.1-16.2zM684.2 249.1c-.4 5.7-.9 11.4-1.5 17h-15.4v-17h16.9zM573.5 449.7c-8.1 1.6-16.5 1.6-24.6 0 .4-3.1.6-6.2.6-9.3h23.3c.2 3.1.4 6.2.7 9.3z"/><path fill="var(--main, #5fceb3)" d="M440.3 220.9c.4 126.1 54.4 228 121 228s120.6-101.9 121-228h-242z"/><path opacity=".1" fill="#FFF" d="M461.8 220.9h-21.5c.4 126.1 54.4 228 121 228 3.6 0 7.2-.3 10.8-.9-61.6-10.3-109.9-107.9-110.3-227.1z"/><path fill="#3F3D56" d="M497.1 593.5h128.3v33H497.1z"/><path opacity=".1" fill="#FFF" d="M503.1 598h122.3v-4.5H497.1v33h6z"/><path fill="#fff" d="M363.4 390l-12.1 31.6h3l-11.4 9.1 20.5 2.5z"/><path opacity=".1" d="M363.4 390l-12.1 31.6-3-.8-5.4 9.9 20.5 2.5z"/><path fill="#fff" d="M344.4 410.2h19l7-57.3h-26z"/><path opacity=".1" d="M344.4 410.2h19l7-57.3h-26z"/><path fill="#FBBEBE" d="M307.4 366.5l4.1-.7 9.4-1.6s28.3-6.4 34.1-6.9c3.5-.5 7-1.5 10.2-2.9 1.5-.7 2.5-1.2 2.5-1.2l-10.2-18.6-15.8-11.7s-10-2.1-14.2-8c-1.9-2.5-2.4-5.9-1.3-8.9 2.6-8-15.4 7.6-15.4 7.6s.2 3.8 0 8.5c0 .9-.1 1.9-.2 2.9 0 .7-.1 1.3-.2 2-.4 4.8-1.3 9.6-3.1 12.6-4.3 7.2.1 26.9.1 26.9z"/><path opacity=".1" d="M310.8 322.6h.4c.7 0 1.3-1.5 2-1.6 5.6-.5 10.8-1.7 14.3-5.7-1.9-2.5-2.4-5.9-1.3-8.9 2.6-8-15.4 7.6-15.4 7.6s.2 3.8 0 8.6z"/><path fill="#FBBEBE" d="M288.9 299.9c0 12.1 9.8 21.9 21.9 21.9.7 0 1.4 0 2.1-.1 12-1.2 20.9-11.9 19.7-24s-11.9-20.9-24-19.7c-11.2 1.2-19.7 10.6-19.7 21.9z"/><path fill="#3F3D56" d="M282.2 266.7c-.7 1.9-.5 3.9-.8 5.9-1.1 7.1-8.3 11.4-14.8 14.4s-13.9 6.5-16 13.4c-2.3 7.4 2.7 14.9 6.2 21.9 6.7 13.6 7.7 30.9-1 43.3-7.7 11-21.2 16.2-33.9 20.8 6.1 4.8 13.7 7.3 21.5 7.1-2.9 8.5-13.3 11.3-22.1 12.8 4.6 4.5 11.3 6.1 17.6 7.1 4.6.7 9.4 1.2 14 .3s9-3.4 11.4-7.5c2-3.5 2.7-8.2 6.3-10 1.6-.6 3.4-.9 5.1-.8l15 .2c4.7 0 10.2-.4 12.6-4.3.9-1.7 1.4-3.6 1.4-5.5.6-9.8-1.2-20.2 2.8-29.2 1.2-2.7-6.6-7-5.8-9.9 2.8-9.9 3.5-17.6 3.5-27.9 0-8 5.2-14.8 9.4-21.5s7.8-15.2 4.5-22.4c-3.9-8.2-32.5-19.8-36.9-8.2z"/><path fill="#FBBEBE" d="M302.1 632.8l3.8 2.5.6.4.1.1 4.5 3 10.6 1.8 9.3-.6s2.7-5.6-1.5-5.5c-1.3-.1-2.7-.4-3.8-1.1l-.6-.3c-.6-.3-1.2-.7-1.8-1.1-1.2-.8-2.4-1.7-3.4-2.4-1.4-1.1-2.3-1.9-2.3-1.9l-15.5 5.1z"/><path opacity=".1" d="M306 635.3l.6.4.1.1 4.5 3 10.6 1.8 9.3-.6s2.7-5.6-1.5-5.5c-1.3-.1-2.7-.4-3.8-1.1.7.6 1.4 1.2 1.4 1.7.2 1.4-6.9 4-6.9 4l-9.9-2.6s-1.7-.5-4-1.1l-.2-.1h-.2z"/><path fill="#3F3D56" d="M289 637.8s8.1 1.8 13.6 1.3 14.9 4.2 14.9 4.2 3.2 1.5 13 2.1 9.8-4.3 9.8-4.3c-1.1-6.8-16.6-9-17.1-9.1.2.1 1 .5 1.8 1.1 1.1.7 2.3 1.7 2.4 2.4.2 1.4-6.9 4-6.9 4l-9.9-2.6s-1.7-.5-4-1.1h-.2c-3.4-.9-6.9-1.7-10.4-2.1-4.3-.5-6.5 3.2-6.9 4-.1-.1-.1 0-.1.1z"/><path fill="#FBBEBE" d="M160.5 458l4.3 3.3s1.3-.1 3.1-.1h.6c2.7-.1 6.4-.2 9.6-.2 2-.1 4.1 0 6.1.3 2.2.8 6-12.4 6-12.4l-4.3-1-1.4-.3-1-.2-3.5-.8-10.7 1.2-7.5 4.8-1.3 5.4z"/><path opacity=".1" d="M160.5 458l4.3 3.3s1.3-.1 3.1-.1c-.9-.3-1.6-1-2-1.8-2.8-7.8 11.1-11.1 11.1-11.1l6.5-.3 1.3-.1h1l-1.4-.3-1-.2-3.5-.8-10.7 1.2-7.5 4.8-1.2 5.4z"/><path fill="#3F3D56" d="M152 461.5c2.6 2.4 19.8 0 20.5-.1-1.3.1-2.6.1-3.9-.3-1.3-.2-2.4-1-3-2.2-2.8-7.8 11.1-11.1 11.1-11.1l6.5-.3 1.2-.1 15.7-.7.8-4.3s-5.1.5-13.1 1.1c-4.5.4-10 .8-15.9 1.2-16.6 1.1-20.5 11.8-20.5 11.8s-2.1 2.5.6 5z"/><path id="brazo-chica-2" fill="#FBBEBE" d="M344.5 273.8c.1.2.2.5.4.7l3.8 5.6 9.9 1 .1-3.9 1.7-59.3s6.9-39.8-6.1-37.5-4.8 37.5-4.8 37.5-1.5 17.8-2.5 23.2c-1.1 5.1-5.6 26.2-2.5 32.7z"/><path fill="#FBBEBE" d="M322.1 421l2.8 4.8 6.3 10.8s11.5 4.2 14.4 1c1.6-1.8 3.4-7.9 4.6-13 1-4.2 1.7-7.7 1.7-7.7l-29.8 4.1z"/><path opacity=".1" d="M322.1 421l2.8 4.8.5-.5c3.2-4.1 17.3-.9 24.8-.6 1-4.2 1.7-7.7 1.7-7.7l-29.8 4zM178.2 460.9c2-.1 4.1 0 6.1.3 2.2.8 6-12.4 6-12.4l-5.8-1.4 15.7-.7.8-4.3s-5.1.5-13.1 1.1c-1.7 1-3.1 2.2-4.4 3.7l-.2.3c-3.4 4.2-4.7 9.5-5.1 13.4zM302.1 632.8l4.4 2.9c6.6-1.2 12.6-3.1 13.3-6v-.1c-1.4-1.1-2.3-1.9-2.3-1.9l-15.4 5.1zM289.1 637.6c5.8-.3 11.6-.9 17.3-1.9-3.4-.9-6.9-1.7-10.4-2.2-4.3-.4-6.5 3.3-6.9 4.1z"/><path fill="#3F3D56" d="M178.6 466c0 3.2 8.8 5.2 8.8 5.2l26.8 23.8s16.8 7.5 27.5 18.3 20.1 1.5 20.1 1.5c11.3-2.8 44-42.3 44-42.3s.8 45.1 2.3 48.4-.5 12.4-1.4 16.2c-.6 3.2-.8 6.4-.6 9.7 0 0-12.2 46.8-11.2 50.8s-6.6 23.2-6.6 23.2v15.9s30-1.2 31.6-7.9-7.5-9.7-7.5-9.7v-1.7c6-3.1 7.1-24.1 7.1-24.1s8.9-26 10.2-30.3 0-10.8 0-10.8l.9-5.6s1.9-3.8 1.9-4.6c.2-1.9 1-3.8 2.2-5.3 1.4-1.7-1.5-5.6-1.5-5.6l2.5-6.6v-7.3l6-26.4s6.2-30.7 4.1-40.8 2.5-15.2 2.5-15.2c-10.2 5.4-15.4-6.6-17.1-11.7-.4-1.3-.6-2.2-.6-2.2s-14-5.2-27.1-3.9c-2.7.2-5.3.8-7.8 1.7-14.5 5.2-16.8 26.9-16.8 26.9L266 465.3c-6.6 17.5-16.6 19.2-16.6 19.2s-23.3-15.7-24-16.4-9.6-4.6-9.6-4.6c-1-1.8-2.7-3.3-4.6-4.2-3.1-1.3-3.3-6-3.3-6-.4-11.1-6.9-12-6.9-12-22.5-1.8-22.4 21.5-22.4 24.7z"/><path fill="#fff" d="M308.4 361h13.8v42.7h-13.8z"/><path opacity=".1" d="M308.4 361h13.8v42.7h-13.8zM344.4 273.7c.1.3.2.6.4.8l3.8 5.6 9.9 1 .1-3.9c-3-.3-10.1-1.2-14.2-3.5z"/><path fill="#fff" d="M344.8 274.4s.5 22.4-5.1 25.5-7.8 19-7.8 19 17 11.2 20.8 16.1 12.5 16.6 10.7 19.4 4.3 15.5 4.3 15.5-11.2 22.9-8.7 31.6 2.8 31.6 2.8 31.6h4.9s-1.5-18.9-1.5-26.5 5.1-34.9 5.1-34.9 2.3-26.8 0-27.5-15.8-11.5-16.8-16.3 7.1-50 7.1-50-10.4-.4-15.8-3.5z"/><path opacity=".1" d="M308.1 357c.5 3.1 1.6 6.1 3.3 8.7l9.4-1.6s28.3-6.4 34.1-6.9c3.5-.5 7-1.5 10.2-2.9-2.2-7.9-6.6-15.1-12.6-20.8l-3.6-3.3c-5.3-4.9-11.4-8.8-18.1-11.6.4.4 30.1 25.7 23.6 30.7s-24-7.1-24-7.1l-19.9-17.1-.7-.6-1.1 1.8c.6.2 1.2.5 1.7.8 6.8 3.7 11.8 10 14 17.4 4.1 13.8-16.3 12.5-16.3 12.5z"/><path fill="#444053" d="M302 420.7s18.9 10.5 23.4 4.6c1-1.3 3.1-1.8 5.7-2-.4-1.3-.6-2.2-.6-2.2s-14-5.2-27.1-3.9c-.9 2.2-1.4 3.5-1.4 3.5z"/><path fill="#E8E8F0" d="M310.7 324.5l20.6 17.7s17.4 12.1 24 7.1-23.6-30.7-23.6-30.7c6.7 2.7 12.8 6.7 18.1 11.5l3.6 3.3c9.4 8.8 11.6 8.8 11.9 21.6.1 3.2-1 7.7-1.8 8.5-3.1 3-5.2 24.8-4.7 27.3s-5.7 24.6-3.7 30.7-25-3.1-29.6 2.8S302 420 302 420s10.5-26.8 13-28.5 5.6-15.5 0-21.9-6.1-12.5-6.1-12.5 20.4 1.3 16.3-12.5c-2.3-8.1-8.1-14.7-15.7-18.2l1.2-1.9z"/><path opacity=".1" d="M338.2 369.6s-7.9 14.9-18.1 18.8c-.3.1-.6.2-1 .3-10.7 3.3 19.9-14.4 19.1-19.1z"/><path id="brazo-chica-1" fill="#FBBEBE" d="M227.6 237.7s3.8 9.7 6.9 13 25.7 36.5 25.7 36.5l1.9 4 1.6 3.4 14.5-1.5 1-5.9-.6-.7c-1.5-1.8-5.4-6.5-8.1-8.5-3.3-2.5-9.9-11-9.9-11s-20.6-21.4-22.2-27.3-22.2-41-26.8-34.9 16 32.9 16 32.9z"/><g opacity=".1"><path d="M269.7 395.4c-1.7-.2-3.5.1-5.1.7-3.6 1.8-4.3 6.5-6.3 10-2.3 4.1-6.8 6.6-11.4 7.5-.9.2-1.8.3-2.8.4 2.9.3 5.9.2 8.8-.4 4.6-.9 9-3.4 11.4-7.5 2-3.5 2.7-8.2 6.3-10 .9-.4 2-.7 3-.7h-3.9zM305.3 318.7c0-8 5.2-14.8 9.4-21.5s7.8-15.2 4.5-22.4c-2.9-6.1-20.2-14.4-30.3-12.8 9.8 1.3 21.9 7.7 24.3 12.8 3.4 7.2-.2 15.7-4.5 22.4s-9.5 13.6-9.4 21.5c0 10.3-.7 18-3.5 27.9-.8 2.9 7 7.2 5.8 9.9-4.1 9-2.2 19.4-2.8 29.2 0 1.9-.5 3.8-1.4 5.5-2 3.3-6.1 4.1-10.1 4.3h3.5c4.7 0 10.2-.4 12.6-4.3.9-1.7 1.4-3.6 1.4-5.5.6-9.8-1.2-20.2 2.8-29.2 1.2-2.7-6.6-7-5.8-9.9 2.8-9.9 3.5-17.7 3.5-27.9z"/></g><path opacity=".1" d="M262.1 291.2l1.6 3.4 14.5-1.5 1-5.9-.6-.7c-1.4.8-13 6.4-16.5 4.7z"/><path opacity=".1" d="M315.8 329.5s-3.6-5.6-5.6-4.1-2.8-4.6-4-3.6-4.6 3.9-6-.1c-1.1-3.2-13.2-23.1-18.1-31.2-1.3-2.1-2-3.4-2-3.4s-13.8 6.9-17.1 4.6v4.8l2.8.3 15 28s4.7 7.5 4.4 10.1 6 14.1 7.1 14.9 12 13.5 12 13.5 5.6 27.5.8 35.2-13.2 13.2-13.2 13.2-2.5 7.4-2.2 8.2-2.9 4.1-1.4 5.1 3.6 8.2 3.6 8.2 7.1-11.5 11-13.2 8.8-25.2 8.8-25.2 1.4-13.8 1.5-22.7-.5-42.6 2.6-42.6z"/><path fill="#fff" d="M315 329.5s-3.6-5.6-5.6-4.1-2.8-4.6-4-3.6-4.6 3.9-6-.1c-1.1-3.2-13.2-23.1-18.1-31.2l-2-3.4s-13.8 6.9-17.1 4.6v4.8l2.8.3 15 28s4.7 7.5 4.4 10.1 6 14.1 7.1 14.9 12 13.5 12 13.5 5.6 27.5.8 35.2c-2.6 3.8-5.7 7.3-9.2 10.2-3 2.5-5.1 5.8-6 9.6-.2.5-.2 1.1-.2 1.6.4.8-2.9 4.1-1.4 5.1s3.6 8.2 3.6 8.2 7.1-11.5 11-13.2 8.8-25.2 8.8-25.2 1.4-13.8 1.5-22.7-.4-42.6 2.6-42.6z"/><path opacity=".1" d="M280.1 445.5s10.7 2 15 5.1-16.3-4.8-16.3-4.8l1.3-.3zM305.8 472.6s11.2 9.3 9.2 17.7-7.2 29.6-7.2 29.6l-2-47.3zM208.1 454.7s-15.7 1.7-14.7 3.8 14.7-1.9 14.7-1.9v-1.9zM329 532.1s1 1.3-4.8 0-1.5-5.2-1.5-5.2l6.3 5.2zM327 549.7s-8 1.3-12.3 0 12.3 0 12.3 0zM310.5 618.5s-1.4-1.5-8.4 1.3-9.8 2.9-11.9 2 20.3-3.3 20.3-3.3zM318.3 452.5l-9.9 13.8c0 .1 5.3-12 9.9-13.8zM299 325.4s-.4 4.6-6.8 6.4-7.6 3.2-7.6 3.2M282.3 292.1s-8.5 6-17.3 4.7M288.8 420.6s2.5 1.5 8.4-5.2M350.4 348.7c.2-1.2-.6-2.4-1.4-3.4l-1.7-2c-.3-.4-.7-.8-1.1-1.1-1-.8-2.3-1-3.3-1.7"/><path opacity=".1" fill="var(--main, #5fceb3)" d="M887.3.1S803.1-5 813 54c0 0-2 10.4 7.5 15.2 0 0 .2-4.4 8.6-2.9 3 .5 6.1.6 9.2.4 4.1-.3 8.1-1.9 11.2-4.6 0 0 23.7-9.8 32.9-48.5 0 0 6.8-8.4 6.5-10.6l-14.2 6.1s4.9 10.2 1 18.8c0 0-.5-18.4-3.2-18-.5.1-7.4 3.6-7.4 3.6s8.3 17.9 2 30.8c0 0 2.4-22-4.7-29.5l-10 5.8s9.8 18.4 3.1 33.5c0 0 1.7-23.1-5.2-32.1l-9.1 7.1s9.2 18.2 3.6 30.7c0 0-.7-26.9-5.5-28.9 0 0-7.9 7-9.1 9.9 0 0 6.3 13.2 2.4 20.2 0 0-2.4-17.9-4.3-18 0 0-7.9 11.9-8.7 20 0 0 .3-12.1 6.8-21.1 0 0-7.6 1.3-12.1 6.3 0 0 1.2-8.4 14-9.1 0 0 6.5-9 8.3-9.6 0 0-12.7-1.1-20.5 2.4 0 0 6.8-7.9 22.8-4.3l9-7.3s-16.8-2.3-23.9.2c0 0 8.2-7 26.3-1.9l9.7-5.8s-14.3-3.1-22.8-2c0 0 9-4.9 25.7.4l7-3.1S859.4 6 856.4 5.7s-3.2-1.2-3.2-1.2c6.6-1.1 13.5-.3 19.7 2.2-.1-.2 14.6-5.7 14.4-6.6zM783.5 15.1s-38-2.3-33.5 24.4c0 0-.9 4.7 3.4 6.9 0 0 .1-2 3.9-1.3 1.4.2 2.8.3 4.1.2 1.9-.1 3.6-.9 5-2.1 0 0 10.7-4.4 14.9-21.9 0 0 3.1-3.8 3-4.8l-6.4 2.7s2.2 4.6.5 8.5c0 0-.2-8.3-1.4-8.1-.2 0-3.3 1.6-3.3 1.6s3.8 8.1.9 13.9c0 0 1.1-9.9-2.1-13.4l-4.5 2.6s4.4 8.3 1.4 15.1c0 0 .8-10.4-2.4-14.5l-4.1 3.2s4.1 8.2 1.6 13.9c0 0-.3-12.1-2.5-13.1 0 0-3.6 3.2-4.1 4.5 0 0 2.8 6 1.1 9.1 0 0-1.1-8.1-2-8.1 0 0-3.6 5.4-3.9 9 .2-3.4 1.2-6.7 3.1-9.6-2.1.4-4 1.4-5.5 2.8 0 0 .6-3.8 6.3-4.1 0 0 3-4.1 3.7-4.3 0 0-5.8-.5-9.2 1.1 0 0 3.1-3.6 10.3-2l4-3.3s-7.6-1-10.8.1c0 0 3.7-3.2 11.9-.9l4.4-2.6s-6.5-1.4-10.3-.9c0 0 4.1-2.2 11.6.2l3.2-1.4s-4.7-.9-6.1-1.1-1.5-.5-1.5-.5c3-.5 6.1-.2 8.9 1-.3.1 6.5-2.4 6.4-2.8z"/><ellipse fill="var(--main, #5fceb3)" cx="916.2" cy="644" rx="40.2" ry="6.8"/><path fill="var(--main, #5fceb3)" d="M932.8 632.8c1.8-1.5 3.2-3.5 3.8-5.8.5-2.3-.5-5-2.7-5.9-2.5-.9-5.1.8-7.1 2.5s-4.3 3.7-6.9 3.3c2.7-2.5 4-6.2 3.2-9.8-.1-.7-.4-1.4-.9-2-1.4-1.5-3.8-.8-5.5.3-5.2 3.7-6.7 10.7-6.7 17.1-.5-2.3-.1-4.7-.1-7s-.7-5-2.7-6.2c-1.2-.7-2.6-1-4-.9-2.3-.1-4.9.2-6.5 1.9-2 2.1-1.5 5.7.2 8s4.3 3.8 6.8 5.4c1.9 1.2 3.6 2.7 4.8 4.6.1.3.3.5.4.8h14.7c3.5-1.7 6.5-3.8 9.2-6.3z"/><path id="brillo" fill="#FFF" d="M460 227.8l2.6 2.3 3.4-.8-1.4 3.2 1.8 2.9-3.5-.3-2.2 2.6-.7-3.4-3.2-1.3 2.9-1.7z"/></svg>