<svg xmlns="http://www.w3.org/2000/svg" viewBox="0 100 64 64"><path d="M7.007 112.226c.238-.359.386-.697.621-.955 3.449-3.78 7.373-6.867 12.185-8.807 3.085-1.244 6.244-1.947 9.532-2.306 5.334-.581 10.402.473 15.269 2.492 3.041 1.262 5.784 3.069 8.288 5.282 2.83 2.5 5.106 5.39 7.005 8.615a8.79 8.79 0 0 1 .524 1.055c.382.911.852 1.623 1.92 1.968 1.292.418 1.858 1.824 1.467 3.051-.352 1.107-1.627 1.822-2.935 1.646-1.117-.15-2.02-1.255-1.929-2.575.144-2.072-1.061-3.637-2.022-5.208-1.99-3.255-4.548-6.058-7.705-8.254a42.62 42.62 0 0 0-3.346-2.096c-.861-.487-1.16-.279-1.165.708l-.031 6.467a2.51 2.51 0 0 1-.617 1.49c-1.164 1.27-2.399 2.479-3.647 3.668-.586.558-.552 1.025-.167 1.696.663 1.156 1.466 1.702 2.903 1.628 2.724-.141 5.46-.015 8.19-.057.842-.013 1.15.251 1.117 1.109-.057 1.471.009 2.947-.026 4.419-.016.678.179.966.908.954l6.683-.044c.304-.007.743-.321.872-.606.464-1.019 1.455-.533 2.15-.854.204.449.549.886.586 1.348.141 1.747.276 3.503.244 5.253-.111 6.027-2.032 11.504-5.365 16.472-1.209 1.802-2.557 3.562-4.099 5.08-2.503 2.463-5.364 4.497-8.563 6.015-3.826 1.815-7.831 2.823-12.074 3.064-5.862.334-11.369-.852-16.563-3.514-3.736-1.915-6.967-4.536-9.659-7.733-2.376-2.821-4.16-6.039-5.526-9.484-.252-.636-.765-1.191-1.236-1.713-.865-.957-.982-2.403-.198-3.32.936-1.095 2.325-1.293 3.444-.491.919.658 1.32 1.991.774 3.002-.497.919-.432 1.751.015 2.633.21.414.351.861.539 1.287.811 1.837 1.011 1.842 2.508.483 1.749-1.587 3.601-3.061 5.331-4.667.439-.408.804-1.121.829-1.71.095-2.26.073-4.527.02-6.789-.021-.869.197-1.208 1.128-1.173 1.83.069 3.665-.007 5.497.033.729.016 1.046-.183 1.009-.965-.055-1.147-.037-2.3-.01-3.449.014-.607-.224-.829-.824-.813-1.113.03-2.229-.022-3.341.019-.668.024-.884-.232-.862-.879.037-1.077-.027-2.157.016-3.233.031-.785-.245-1.078-1.055-1.069-3.234.035-6.468.036-9.702-.002-.74-.009-1.094.263-1.339.932-1.367 3.736-2.115 7.569-1.96 11.563.016.405.003 1.071-.211 1.175-.583.284-1.278.362-1.938.441-.091.011-.328-.429-.343-.669a31.11 31.11 0 0 1 2.725-14.945c1.074-2.378 2.295-4.682 4.158-6.667m30.461 48.748c.523-.111 1.054-.194 1.569-.336 4.469-1.232 8.55-3.172 12.057-6.295.891-.794.741-1.141.01-1.776l-5.626-4.994c-2.09-1.911-1.465-2.32-3.966.32-.364.384-.975.701-1.494.737-1.43.1-2.872.052-4.309.029-.895-.014-1.238.372-1.114 1.261.16 1.146-.003 1.322-1.157 1.324l-8.839.001c-2.904-.001-2.885-.002-2.942-2.88-.01-.5-.105-1.133-.416-1.468-1.467-1.578-3-3.097-4.57-4.573-.239-.225-.955-.309-1.179-.126-2.382 1.95-4.711 3.966-7.051 5.967-.504.431-.485.85-.08 1.393 1.881 2.525 4.084 4.732 6.653 6.532 6.731 4.717 14.192 6.241 22.454 4.882m-8.834-22.455l4.85-.015c.861-.026 1.14.311 1.112 1.14-.046 1.364-.013 2.73-.013 4.095.001 2.121-.001 2.133 2.023 2.402.601.08 1.232.169 1.818.07.606-.102 1.304-.285 1.737-.68 1.458-1.33 2.833-2.755 4.198-4.182.269-.281.49-.732.503-1.113.056-1.579.011-3.161.031-4.741.008-.634-.229-.921-.886-.9-.897.03-1.796.01-2.694.004-1.79-.012-1.579.179-1.584-1.639l-.022-7.652c-.008-.507-.169-1.063-.423-1.503-.535-.928-1.124-1.838-1.802-2.664-.294-.359-.854-.678-1.307-.697-1.865-.078-3.736.005-5.602-.053-.844-.026-1.06.301-1.012 1.072.053.859.015 1.724.013 2.586-.003 1.481-.061 1.539-1.49 1.534-.862-.003-1.728.042-2.586-.019-.876-.063-1.122.313-1.103 1.134.042 1.831-.004 3.664.021 5.496.011.821-.3 1.151-1.151 1.129-1.867-.048-3.736.008-5.604-.026-.755-.014-1.029.281-1.003 1.016.037 1.041-.05 2.089.04 3.123.042.485.267 1.041.593 1.398 1.257 1.378 2.585 2.692 3.896 4.02.078.079.241.074.49.143 0-1.166.044-2.24-.014-3.308-.048-.874.233-1.217 1.152-1.188 1.866.059 3.736.017 5.819.017m-1.512-25.669c.395 0 .794.037 1.184-.009 1.003-.117 1.355.31 1.284 1.297-.069.964.008 1.938-.025 2.906-.023.678.219.945.926.98 6.374.315 6.374.324 10.828-4.241.1-.103.246-.187.295-.309.245-.609.635-1.22.661-1.844.084-2.006-.012-4.02.047-6.028.027-.932-.339-1.392-1.208-1.588-1.252-.282-2.481-.7-3.745-.884-1.869-.272-3.765-.57-5.642-.524-2.057.05-4.101.516-6.158.724-.875.088-1.18.474-1.168 1.309l.009 5.706c.002 2.507.002 2.507 2.713 2.504m31.296 31.943c2.111-4.135 3.032-8.529 2.893-13.161-.019-.625-.229-.913-.888-.907l-7.22.002c-.545-.003-.791.189-.772.753.025.718-.032 1.439.015 2.154.05.773-.289 1.006-1.017.98-1.112-.041-2.227.011-3.34-.019-.602-.016-.833.209-.82.815.028 1.364-.081 2.738.035 4.093.121 1.407-.272 2.531-1.347 3.41-.792.647-.705 1.17.044 1.814l7.266 6.379c.443.394.787.466 1.136-.074l4.016-6.238m-39.962-38.881c-.296.129-.609.227-.884.391-3.262 1.946-6.096 4.411-8.565 7.278-.877 1.019-1.531 2.233-2.26 3.375-.406.637-.375 1.068.563 1.062l8.4.002c.685.005.984-.234.964-.938-.031-1.076.017-2.154-.016-3.23-.023-.747.286-1.031 1.024-1.007 1.076.036 2.154-.003 3.23.014.549.009.905-.138.902-.771l-.008-6.677c-.003-.691-.313-.902-.968-.586-.738.356-1.494.672-2.383 1.087m8.529 12.66l-.005-2.368c-.003-.637-.232-.977-.964-.962-1.927.039-3.856.027-5.783.001-.67-.009-.996.205-.989.92l-.001 6.136c-.006.656.279.887.909.881l5.814-.003c.736.006 1.035-.34 1.025-1.053l-.006-3.552m15.574 5.751c-.14.263-.397.525-.401.79l-.014 6.035c.002.676.347.939 1.022.931l5.82.002c.705.012.95-.254.94-.946l.003-5.928c.013-.7-.217-.95-.925-.937l-6.445.052m-18.15 22.896c0 1.629 0 1.627 1.659 1.625l4.849.012c.762.019 1.114-.195 1.095-1.027a149.89 149.89 0 0 1-.005-5.926c.013-.764-.293-1.003-1.023-.991-1.831.032-3.665.044-5.495-.005-.872-.024-1.118.324-1.095 1.146.047 1.651.015 3.304.015 5.166z"/></svg>