<svg xmlns="http://www.w3.org/2000/svg" viewBox="0 0 512 512">
<style>
  #logo, #logo *, ellipse {
    transform-box: fill-box;
    transform-origin: center;
    animation-duration: 5s;
    animation-fill-mode: both;
    /*
    animation-timing-function: linear;
    */
  }

  /* ROTATE ALL LOGO */
  @keyframes rotate-logo {
    0%, 35% {
      transform: translate(-96.5px, 0) rotate(-90deg) scale(.71);
    }
    60% {
      transform: translate(0, -100px) scale(.71);
    }
    75%, 100% {
      transform: none;
    }
  }
  #logo {
    transform-box: view-box;
    animation-name: rotate-logo;
  }


  /* WORD SEA */
  @keyframes word-sea {
    0% {
      opacity: 0;
      transform: translate(374.5px, 87.5px) rotate(90deg) scale(1.675);
    }
    20%, 60% {
      opacity: 1;
      transform: translate(374.5px, -12.5px) rotate(90deg) scale(1.675);
    }
    75%, 100% {
      transform: none;
    }
  }
  #word-sea {
    transform-origin: left;
    animation-name: word-sea;
  }

  /* WORD COMO */
  @keyframes word-como {
    0% {
      opacity: 0;
      transform: translate(89px, 87.5px) rotate(90deg) scale(1.675);
    }
    15%, 60% {
      opacity: 1;
      transform: translate(89px, -12.5px) rotate(90deg) scale(1.675);
    }
    75%, 100% {
      transform: none;
    }
  }
  #word-como {
    transform-origin: left;
    animation-name: word-como;
  }

  /* WORD SEO */
  @keyframes word-seo {
    0% {
      opacity: 0;
      transform: translate(-265.5px, 87.5px) rotate(90deg) scale(1.675);
    }
    20%, 60% {
      opacity: 1;
      transform: translate(-265.5px, -12.5px) rotate(90deg) scale(1.675);
    }
    75%, 100% {
      transform: none;
    }
  }
  #word-seo {
    transform-origin: left;
    animation-name: word-seo;
  }


  /* INITIALS */
  @keyframes initials-opacity {
    17%, 40% {
      opacity: 1;
    }
    0%, 16%, 45%, 100% {
      opacity: 0;
    }
  }
  @keyframes initials-stroke-width {
    0%, 15% {
      stroke-width: 28;
    }
    30%, 100% {
      stroke-width: 10;
    }
  }

  /* INITIAL S1 */
  @keyframes initial-s1 {
    0% {
      transform: translate(360px, 112.2px) rotate(90deg) scale(1.685);
    }
    17% {
      transform: translate(360px, 12.2px) rotate(90deg) scale(1.685);
    }
    32%, 100% {
      transform: translate(302px, -167.5px) rotate(90deg) scale(4.375);
    }
  }
  #initial-s1 {
    animation-name: initial-s1, initials-opacity, initials-stroke-width;
  }

  /* INITIAL C */
  @keyframes initial-c {
    0% {
      transform: translate(70.19px, 118.8px) rotate(90deg) scale(1.685);
    }
    15% {
      transform: translate(70.19px, 18.8px) rotate(90deg) scale(1.685);
    }
    30%, 100% {
      transform: translate(70px, -271px) rotate(90deg) scale(4);
    }
  }
  #initial-c {
    animation-name: initial-c, initials-opacity, initials-stroke-width;
  }

  /* INITIAL S2 */
  @keyframes initial-s2 {
    0% {
      transform: translate(-280px, 112.2px) rotate(90deg) scale(1.685);
    }
    17% {
      transform: translate(-280px, 12.2px) rotate(90deg) scale(1.685);
    }
    32%, 100% {
      transform: translate(-220.5px, -167.5px) rotate(90deg) scale(4.375, -4.375);
    }
  }
  #initial-s2 {
    animation-name: initial-s2, initials-opacity, initials-stroke-width;
  }


  /* FLOAT */
  @keyframes float {
    0%,
    100% {
      transform: translatey(0);
    }
    50% {
      transform: translatey(-40px);
    }
  }
  @keyframes float-extend {
    0%,
    100% {
      transform: none;
    }
    35% {
      transform: scaleY(1.05);
    }
    75% {
      transform: scaleY(0.9);
    }
  }

  /* ICON */
  @keyframes icon {
    0%, 35% {
      opacity: 0;
    }
    40%, 100% {
      opacity: 1;
    }
  }
  #icon {
    animation:
      icon 5s both,
      6s ease-in-out 5s infinite both float-extend;
  }
  /*
  #text {
    animation: 6s ease-in-out 5s infinite both float-extend;
  }
  */
  #float {
    animation: 6s ease-in-out 5s infinite both float;
  }

  /* SHADOW */
  @keyframes shadow-float-pre {
    0% {
      transform: scale(0);
    }
    100% {
      transform: scale(1);
    }
  }
  @keyframes shadow-float {
    0%,
    100% {
      opacity: 1;
    }
    50% {
      opacity: 0.25;
    }
  }
  #logo-shadow {
    animation: 0.7s 3s both shadow-float-pre, 6s ease-in-out 5s infinite both shadow-float;
  }
</style>
  <g class="svg-src" opacity="0">
    <g id="logo-wrap">
      <g id="logo" stroke-linejoin="round" stroke-width="28">
        <g id="float">
          <path id="icon" stroke-width="46" d="M437.3,310a8.8,8.8,0,0,1-7.8,4,11.2,11.2,0,0,1-5.3-1.3l-19.7-13a13.6,13.6,0,0,1-5.5-8.3,7.1,7.1,0,0,1,1.1-5.6l1.2-1.8c3.3-4.9,13.4-20.1,13.4-32.3,0-7.3-4.7-12.2-9.1-12.2s-12.1,3.1-21.1,25.3c-5.2,13.2-21.2,53.5-61.2,53.5-27.6,0-56.2-23.8-56.2-63.6,0-34.1,20.8-60.6,21-60.9,6.3-7.2,10.2-18.1,10.2-28.4,0-23-18.6-41.2-42.4-41.5s-42.2,18.5-42.2,41.5c0,10.3,3.9,21.2,10.1,28.4.3.3,21.1,26.8,21.1,60.9,0,39.8-28.6,63.6-56.2,63.6-40,0-56-40.3-61.3-53.6-8.9-22.1-15.4-25.2-21-25.2s-9.1,4.9-9.1,12.2c0,12.2,10.1,27.4,13.4,32.3l1.2,1.8a8,8,0,0,1,1.1,5.6,13.3,13.3,0,0,1-5.6,8.3L88,312.6a11.5,11.5,0,0,1-5.5,1.4,8.8,8.8,0,0,1-7.8-4C67.3,299.9,55,279.3,55,253.7c0-40.9,27.3-62.2,54.2-62.2,32.3,0,50.2,28,59.5,51.5,8.4,21.2,16.6,23.6,22,23.6s11.4-5.6,11.4-13.6c0-6.1-2-13.2-5.9-21.2l-9.6-15.4c-11.8-15.2-17.3-31.8-17.3-52.4,0-47.9,38.8-86.9,86.5-86.9h.4c47.7,0,86.5,39,86.5,86.9,0,20.6-5.5,37.2-17.3,52.4l-9.7,15.5c-3.8,7.9-5.8,15-5.8,21.1,0,8,4.7,13.6,11.4,13.6s13.6-2.4,22-23.6c9.3-23.5,27.2-51.5,59.5-51.5,26.9,0,54.1,21.3,54.1,62.2C456.9,279.3,444.7,299.9,437.3,310Z"/>
          <g id="text">
            <g id="word-sea">
              <path id="letter-s1" d="M62.9,416.9c-4.7-1.9-5.4-3.3-5.4-4.3s1.1-1.7,2.3-1.7,4.1,1,7.1,3l.3.2a1.9,1.9,0,0,0,1.2.4A3.1,3.1,0,0,0,71,413l2.9-4.4a2.7,2.7,0,0,0-.6-3.5,22.3,22.3,0,0,0-13-4.5c-9.5,0-14.5,6.3-14.5,12.6s4.3,10.7,11.9,13.8c1.3.5,5.1,2,5.1,4.5s-1.1,2.2-2.7,2.2-3.7-.5-7.2-2.8a2.7,2.7,0,0,0-3.9.6l-2.7,4.8a2.2,2.2,0,0,0,.5,3.1c1.1,1.1,5.4,4.8,13.7,4.8s14.7-6.7,14.7-13.1C75.2,422.8,68.2,419,62.9,416.9Z"/>
              <path id="letter-e1" d="M105.9,401.1H82.3a2.3,2.3,0,0,0-2.3,2.4v37.7a2.3,2.3,0,0,0,2.3,2.4h23.6a2.4,2.4,0,0,0,2.4-2.4V435a2.3,2.3,0,0,0-2.4-2.3H91.4v-5.2h11.8a2.3,2.3,0,0,0,2.3-2.4v-6.2a2.4,2.4,0,0,0-2.3-2.3H91.4v-4.5h14.5a2.4,2.4,0,0,0,2.4-2.4v-6.2A2.4,2.4,0,0,0,105.9,401.1Z"/>
              <path id="letter-a" d="M135.9,401.9a2.3,2.3,0,0,0-2.1-1.3h-.5a2.5,2.5,0,0,0-2.2,1.3l-17.8,38.4a2.2,2.2,0,0,0,.1,2.2,2.3,2.3,0,0,0,2,1.1h6.3a3.4,3.4,0,0,0,3.2-2.2l1.7-3.7h13.9l1.7,3.7a3.2,3.2,0,0,0,3.1,2.2h6.4a2.3,2.3,0,0,0,2-1.1,2.4,2.4,0,0,0,.1-2.2Zm2.4,27c-.1.2-.2.3-.4.3h-8.7a.5.5,0,0,1-.5-.3.4.4,0,0,1,0-.5L133,419a.6.6,0,0,1,1,0l4.4,9.4A.7.7,0,0,1,138.3,428.9Z"/>
            </g>
            <g id="word-como">
              <path id="letter-c" d="M189.2,411.7a10.5,10.5,0,0,1,6.8,2.6,2.5,2.5,0,0,0,3.3-.1l4.4-4.6a2.2,2.2,0,0,0,.7-1.7,2.1,2.1,0,0,0-.8-1.7,20.4,20.4,0,0,0-14.7-5.6,21.8,21.8,0,0,0,0,43.6,21.1,21.1,0,0,0,14.8-5.9h0a2.6,2.6,0,0,0,.7-1.7,2.5,2.5,0,0,0-.6-1.7l-4.5-4.7a2.4,2.4,0,0,0-3.2-.1,10.8,10.8,0,0,1-6.8,2.4,10,10,0,0,1-10-10.3C179.3,416.3,183.7,411.7,189.2,411.7Z"/>
              <g id="letter-o1">
                <path d="M227.7,400.6a21.9,21.9,0,0,0-21.8,21.8,21.6,21.6,0,0,0,21.8,21.8,21.8,21.8,0,1,0,0-43.6Zm0,32.7a10.9,10.9,0,0,1-10.9-10.9,11.1,11.1,0,0,1,10.9-11,11,11,0,0,1,0,21.9Z"/>
                <circle cx="227.3" cy="422.5" r=".2"/>
              </g>
              <path id="letter-m" d="M292.4,402.6a2.4,2.4,0,0,0-2.3-2h-.9a2.4,2.4,0,0,0-2.1,1.2l-12.2,22.6-12.1-22.6a2.5,2.5,0,0,0-2.1-1.2h-1a2.3,2.3,0,0,0-2.2,2L251,440.9a2.5,2.5,0,0,0,.5,1.9,2.6,2.6,0,0,0,1.9.8h6.7a2.3,2.3,0,0,0,2.3-2l2-13.9,7.9,15.1a2.6,2.6,0,0,0,2.1,1.4h1a2.4,2.4,0,0,0,2.1-1.4l7.9-15.1,2,13.9a2.4,2.4,0,0,0,2.3,2h6.8a2.3,2.3,0,0,0,2.3-2.7Z"/>
              <use id="letter-o2" href="#letter-o1" x="94.4"/>
            </g>
            <g id="word-seo">
              <use id="letter-s2" href="#letter-s1" x="311.15"/>
              <use id="letter-e2" href="#letter-e1" x="311"/>
              <use id="letter-o3" href="#letter-o1" x="216.7"/>
            </g>
          </g>
        </g>
        <g id="initials">
          <use id="initial-s1" href="#letter-s1"/>
          <use id="initial-c" href="#letter-c"/>
          <use id="initial-s2" href="#letter-s2"/>
        </g>
      </g>
    </g>
  </g>
  <mask id="mask">
    <rect x="0" y="0" width="200%" height="200%" fill="white"/>
    <use href="#logo-wrap"/>
  </mask>
  <use id="stroke-logo" href="#logo" mask="url(#mask)" stroke="var(--text, #fff)"/>
  <radialGradient id="gradient-shadow">
    <stop stop-color="black" offset="0%" stop-opacity=".2" />
    <stop offset="100%" stop-opacity="0" />
  </radialGradient>
  <ellipse id="logo-shadow" cx="256" cy="502" rx="256" ry="10" fill="url(#gradient-shadow)" />
</svg>