<svg xmlns="http://www.w3.org/2000/svg" viewBox="0 0 512 512"><style>:root{--logo-white:var(--link,#5fceb3);--logo-main:#fff}@keyframes fill-white{0%{fill:transparent}100%{stroke:var(--logo-white)}}@keyframes fill-main{0%{fill:transparent}100%{stroke:var(--logo-main)}}@keyframes stroke-main{0%{stroke:transparent}100%{stroke:var(--logo-main)}}@keyframes stroke-draw{0%{stroke:var(--logo-main);stroke-width:2}100%{stroke:transparent;stroke-width:0}}@keyframes logo-main-fill{100%{fill:var(--logo-white)}}@keyframes logo-text-main-stroke{0%{stroke-dashoffset:19em}}@keyframes logo-text-after-stroke{0%{stroke-dashoffset:13em}}@keyframes logo-scs{0%{transform:none}25%{transform:translateY(-100px)}95%{opacity:1}100%{opacity:0}}@keyframes icon-float{0%,100%{transform:translatey(0)}50%{transform:translatey(-40px)}}@keyframes icon-float-extend{0%,100%{transform:none}35%{transform:scaleY(1.05)}75%{transform:scaleY(.9)}}@keyframes shadow-float-pre{0%{transform:scale(0)}100%{transform:scale(1)}}@keyframes shadow-float{0%,100%{opacity:1}50%{opacity:.25}}#logo-text-before{stroke-dasharray:19em;animation:1s cubic-bezier(.47,0,.745,.715) both logo-text-main-stroke,.7s cubic-bezier(.47,0,.745,.715) .7s both stroke-draw,.7s cubic-bezier(.47,0,.745,.715) .7s both fill-main}#text-to-icon-s1{transform:translate(106.24px,-163.125px) rotate(90deg) scale(4.325,-4.325);transform-origin:30.72px 398.025px}#text-to-icon-c{transform:translate(80.179px,-272.31px) rotate(90deg) scale(3.95);transform-origin:172.8px 398.025px}#text-to-icon-s2{transform:translate(-14.08px,-169.65px) rotate(90deg) scale(4.325);transform-origin:389.12px 398.025px}#text-to-icon-c,#text-to-icon-s1,#text-to-icon-s2{animation:2s 1.5s both logo-scs,.7s .9s both stroke-draw,.7s .9s both fill-white}#logo-icon-main{fill:var(--logo-main);animation:.7s 3s both fill-white,.7s 3.2s both logo-main-fill}#logo-text-after{stroke-dasharray:13em;animation:1s 2.5s both logo-text-after-stroke,.7s 3.2s both stroke-draw,.7s 3.2s both fill-white}#logo-text-main{fill:var(--logo-main);animation:.7s 3.2s both logo-main-fill}#logo-icon{transform-origin:center 162.55px;animation:6s ease-in-out 4s infinite both icon-float}#logo-icon-back{animation:.7s 3.2s both stroke-main}#logo-icon-extend{animation:6s ease-in-out 4s infinite both icon-float-extend}#logo-text-back{animation:.7s 3.2s both fill-main}#logo-text{animation:6s ease-in-out 4s infinite both icon-float}#logo-shadow{transform-origin:256px 502px;animation:.7s 3.2s both shadow-float-pre,6s ease-in-out 4s infinite both shadow-float}</style><defs><path id="logo-base" d="M256.3,27a96.1,96.1,0,0,1,96.1,96.1v.5c0,23.6-6.4,41.8-19.3,58.4l-11.5,18.2c-3.7,7.8-7.5,17.4-7.5,26.8s7.5,20.3,17.7,20.3,21.9-10.4,29.7-30.2c10.2-25.5,29.7-57.3,65.1-57.3,29.2,0,58.6,22.7,58.6,68,0,30.5-15.8,54.1-22.2,62.9a5.4,5.4,0,0,1-5.4,2.7,8.2,8.2,0,0,1-4-.8l-22.7-15c-3.3-2.1-5.9-7.5-3.8-9.9s17.7-24.4,17.7-42.3c0-10.5-7-18.5-15-18.5s-19,8.8-28.4,32.1-27.3,59.5-67.2,59.5c-30.3,0-60.8-26.3-60.8-69.4,0-37.7,22.8-67.4,23.3-68a56.6,56.6,0,0,0,12.9-35.9c0-30-24.1-52.2-53.6-52.7a52.3,52.3,0,0,0-53.6,52.7,56.6,56.6,0,0,0,12.9,35.9c.5.6,23.3,30.3,23.3,68,0,43.1-30.5,69.4-60.8,69.4-40.2,0-58.1-36.4-67.2-59.5s-17.7-32.1-28.4-32.1-15,8-15,18.5c0,17.9,16.1,39.6,17.7,42.3s-.8,7.8-4,9.9l-22.5,15a8.2,8.2,0,0,1-4,.8,5.4,5.4,0,0,1-5.4-2.7c-6.7-8.8-22.2-32.4-22.2-62.9,0-45.3,29.4-68,58.6-68,35.4,0,54.9,31.8,65.1,57.3,7.8,19.8,17.1,30.2,29.7,30.2s17.4-8.5,17.4-20.3a64.1,64.1,0,0,0-7.2-26.8L178.9,182c-12.9-16.6-19.3-34.8-19.3-58.4A96.1,96.1,0,0,1,255.2,27h1.1"/><path id="logo-s" d="M29.2,372.7a24.3,24.3,0,0,1,14.4,5.1c.9.2.6,1.6.3,2.1L40.4,385a2.1,2.1,0,0,1-1.6,1.1h-.5c-.8-.6-5.6-4.3-9.6-4.3s-4.3,1.6-4.3,3.5,1.8,4.5,7.2,6.6,13.7,6.2,13.7,15.6-5.9,13.9-15.8,13.9a21.9,21.9,0,0,1-15.3-5.1c-.8-.8-1.1-1.1-.5-2.1l3.2-5.7,1.3-.5h1.1c.2,0,5.1,3.8,9.6,3.8a4,4,0,0,0,4.5-3.5,1.3,1.3,0,0,0,.1-.6c0-2.9-2.4-5-7-6.9s-13.1-6.7-13.1-14.7,5.3-13.4,15.8-13.4"/><path id="logo-e" d="M83,373.2a1.3,1.3,0,0,1,1.4,1.3V382a1.4,1.4,0,0,1-1.4,1.1H64.3v8.6H79.8a1.4,1.4,0,0,1,1.1,1.3v7.2a1.4,1.4,0,0,1-1.1,1.4H64.3v9.1H83a1.3,1.3,0,0,1,1.4,1.3v7.5a1.4,1.4,0,0,1-1.4,1.4H54.9a1.3,1.3,0,0,1-1.3-1.4v-45a1.3,1.3,0,0,1,1.3-1.3H83"/><path id="logo-a" d="M132.8,419l-21.1-45.8-1.4-.5h-.5l-1.3.5L87.3,419a1.4,1.4,0,0,0,1.1,1.9h7.5a2.6,2.6,0,0,0,2.4-1.9l2.4-5.4h18.5l2.6,5.4c.6,1.3,1.1,1.9,2.2,1.9h7.7A1.4,1.4,0,0,0,132.8,419ZM105,404.5l5.1-11.2h0l5,11.2Z"/><path id="logo-c" d="M172.2,372.7a22.7,22.7,0,0,1,16.6,6.1,1.4,1.4,0,0,1,0,1.9l-5.4,5.6h-1.6a13.7,13.7,0,1,0-16.9,21.5,14.1,14.1,0,0,0,7.8,2.9,14.3,14.3,0,0,0,9.1-3.5h.8l.8.5,5.4,5.7c.5.2.5,1.3,0,1.8a23.5,23.5,0,0,1-16.6,6.5,24.4,24.4,0,1,1,0-48.8h0"/><path id="logo-o" d="M217.7,372.7A24.4,24.4,0,1,0,242.1,397a24,24,0,0,0-23.9-24.3Zm0,38a13.7,13.7,0,1,1,13.4-13.9v.2A13.7,13.7,0,0,1,217.7,410.7Z"/><path id="logo-m" d="M292.2,372.7c.5,0,1.3.2,1.3,1l7.8,45.6a1.7,1.7,0,0,1-1.4,1.6h-8c-.6,0-1.4-.6-1.4-1.1l-2.9-21.2h-.3l-11.2,22a1.5,1.5,0,0,1-1.4.8h-1a1.6,1.6,0,0,1-1.4-.8l-11.2-22h-.3l-2.9,21.2a1.5,1.5,0,0,1-1.4,1.1h-8a1.6,1.6,0,0,1-1.3-1.6l7.7-45.6c0-.8.8-1,1.4-1h1l1.1.5,15.8,29.5h0L290,373.2l1.1-.5h1.1"/><radialGradient id="gradient-shadow" ><stop stop-color="black" offset="0%" stop-opacity=".2" /><stop offset="100%" stop-opacity="0" /></radialGradient></defs><ellipse id="logo-shadow" cx="256" cy="502" rx="256" ry="10" fill="url(#gradient-shadow)"/><g transform="translate(0,40)"><g id="logo-icon"><g id="logo-icon-extend"><use id="logo-icon-back" href="#logo-base" fill="none" stroke="var(--logo-main)" stroke-width="55px"></use><use id="logo-icon-main" href="#logo-base" fill="var(--logo-white)"></use></g></g><g id="logo-text"><path id="logo-text-back" fill="var(--logo-main)" d="M474.2,359.3a35.5,35.5,0,0,0-20,5.9,16,16,0,0,0-11.3-5.4H414.8a14.8,14.8,0,0,0-9.4,3.5,34.2,34.2,0,0,0-16.6-4,29.1,29.1,0,0,0-27,16.3,37.7,37.7,0,0,0-52.5-9.6l-3.5,2.6a14.1,14.1,0,0,0-13.6-9.3h-1.1a14.7,14.7,0,0,0-12.9,7.7l-4,7.3-4-7.3a14.7,14.7,0,0,0-12.9-7.7h-1a14.1,14.1,0,0,0-13.7,9.3,38.1,38.1,0,0,0-47.7-1.8,34.5,34.5,0,0,0-22.7-7.5,37.7,37.7,0,0,0-37.5,32.4l-11-24.1h-.3a14.5,14.5,0,0,0-13.1-8.1h-.5a14.7,14.7,0,0,0-13.1,8.1h-.3v.5a14.8,14.8,0,0,0-13.1-8.3H54.9a15.6,15.6,0,0,0-9.4,3.5,33.1,33.1,0,0,0-16.3-4c-19,0-29.2,13.6-29.2,26.8a26,26,0,0,0,5.4,15.8h0l-3.3,5.8a14.4,14.4,0,0,0,2.5,18,34.5,34.5,0,0,0,24.9,9.1,29.6,29.6,0,0,0,15.8-4.3,15.2,15.2,0,0,0,9.6,3.8h41a16.4,16.4,0,0,0,13.4-7.3h1.6a15.5,15.5,0,0,0,13.1,7.3h7.7a14.9,14.9,0,0,0,12.4-7l1.6-3.5a36.6,36.6,0,0,0,26.5,11,37.7,37.7,0,0,0,22.7-7.5,38.1,38.1,0,0,0,42.6,1.9,14.5,14.5,0,0,0,11,5.1h8a15.4,15.4,0,0,0,8.1-2.5,14.8,14.8,0,0,0,9.1,3h1a14,14,0,0,0,9.1-3.2,14.8,14.8,0,0,0,8.1,2.7h8a14.4,14.4,0,0,0,11-5.1,39.5,39.5,0,0,0,19.8,5.6,38.2,38.2,0,0,0,30-14.7,16.4,16.4,0,0,0,3.8,5.6,34.7,34.7,0,0,0,24.6,9.1,30.6,30.6,0,0,0,16.1-4.3,15.2,15.2,0,0,0,9.6,3.8h28.1a14.7,14.7,0,0,0,11-5.4,37.7,37.7,0,1,0,40.5-63.7,36.9,36.9,0,0,0-20.2-5.9Z"/><g id="logo-text-main" fill="var(--logo-white)"><g id="logo-text-before"><use id="text-to-icon-s1" href="#logo-s"></use><use href="#logo-e"></use><use href="#logo-a"></use><use id="text-to-icon-c" href="#logo-c"></use><use href="#logo-o"></use><use href="#logo-m"></use><use href="#logo-o" x="113.25"></use><use id="text-to-icon-s2" href="#logo-s" x="360"></use><use href="#logo-e" x="360"></use><use href="#logo-o" x="256.25"></use></g><g id="logo-text-after"><use id="logo-text-after-s1" href="#logo-s"></use><use id="logo-text-after-c" href="#logo-c"></use><use id="logo-text-after-s2" href="#logo-s" x="360"></use></g></g></g></g></svg>