<svg xmlns="http://www.w3.org/2000/svg" xmlns:xlink="http://www.w3.org/1999/xlink" viewBox="0 0 512 512"><defs><linearGradient id="a" x1="384.02" y1="34.26" x2="127.98" y2="477.74" gradientUnits="userSpaceOnUse"><stop offset="0.5" stop-color="#5fceb3"/><stop offset="0.5" stop-color="#fca326"/></linearGradient></defs><circle cx="256" cy="256" r="256" fill="url(#a)"/><g fill="#fff"><path d="M113.5,113.4a52.9,52.9,0,0,0-16.2,38.2,52,52,0,0,0,7.4,27,89.6,89.6,0,0,0-10.5-.7,78.1,78.1,0,0,0-55.3,22.7A77.2,77.2,0,0,0,16,255.8v.4a77.2,77.2,0,0,0,22.9,55.2A78,78,0,0,0,94.2,334a89.8,89.8,0,0,0,10.5-.6,52,52,0,0,0-7.4,27,52.9,52.9,0,0,0,16.2,38.2c7.8,7.6,21.9,16.6,44.5,16.6s38.7-9.1,49.2-16.8a22.6,22.6,0,0,0,10-19.1,23.6,23.6,0,0,0-3.1-11.8l-.6-1.1-9.2-13.8a25.9,25.9,0,0,0-4.9-5.6l1.5-1.3c12.6-11.2,19.3-25.7,19.3-41.8,0-19.5-11-37.8-28.4-47.9,17.4-10.1,28.4-28.4,28.4-47.9,0-16.1-6.7-30.6-19.3-41.8l-1.5-1.3a25.9,25.9,0,0,0,4.9-5.6l9.2-13.8.6-1.1a23.7,23.7,0,0,0,3.1-11.9,22.7,22.7,0,0,0-9.9-19c-10.6-7.7-27.8-16.8-49.3-16.8S121.3,105.8,113.5,113.4ZM122.2,256a96.4,96.4,0,0,0-17.5,10.4,15.8,15.8,0,0,1-9.5,3.3c-7.3,0-13-5.9-13.2-13.6s5.9-13.8,13.2-13.8a15.2,15.2,0,0,1,9.5,3.3A92.1,92.1,0,0,0,122.2,256ZM198,127.1a6.2,6.2,0,0,1,2.8,5.5,7.6,7.6,0,0,1-.9,3.8l-9.3,14a9.4,9.4,0,0,1-5.8,3.9,5,5,0,0,1-4-.8l-1.3-.8c-3.5-2.3-14.3-9.5-23-9.5-5.1,0-8.6,3.3-8.6,6.5s2.2,8.5,17.9,14.9c9.4,3.7,38,15.1,38,43.5,0,19.7-16.8,40-45.1,40-24.3,0-43.1-14.8-43.3-15a32.5,32.5,0,0,0-20.2-7.2c-16.3,0-29.3,13.3-29.6,30.1s13.3,30.1,29.6,30.1a32.5,32.5,0,0,0,20.2-7.2c.2-.2,19-15,43.3-15,28.3,0,45.1,20.3,45.1,40,0,28.4-28.6,39.7-38,43.5-15.7,6.4-17.9,10.9-17.9,14.9s3.5,6.5,8.6,6.5c8.7,0,19.5-7.2,23-9.5l1.3-.8a5,5,0,0,1,4-.8,9,9,0,0,1,5.8,3.9l9.2,13.8a7.8,7.8,0,0,1,1,3.9,6.2,6.2,0,0,1-2.8,5.6c-7.2,5.3-21.9,14-40,14-29.1,0-44.3-19.4-44.3-38.5,0-23,19.9-35.7,36.6-42.3,15.1-6,16.8-11.8,16.8-15.7s-4-8.1-9.7-8.1-9.3,1.4-15,4.2l-11,6.8c-10.8,8.4-22.6,12.4-37.2,12.4a61.7,61.7,0,0,1-61.8-61.5v-.4a61.7,61.7,0,0,1,61.8-61.5c14.6,0,26.4,3.9,37.2,12.4l11,6.8q8.5,4.2,15,4.2c5.7,0,9.7-3.4,9.7-8.1s-1.7-9.7-16.8-15.7c-16.7-6.6-36.6-19.3-36.6-42.3,0-19.1,15.2-38.5,44.3-38.5C176.1,113.1,190.8,121.8,198,127.1Z"/><path d="M453.5,243a13.2,13.2,0,0,0-12.9,13.1A13,13,0,1,0,453.5,243Z"/><path d="M453.5,213.5a42.3,42.3,0,0,0-23.3,7,19.2,19.2,0,0,0-14.9-7h-1a19.5,19.5,0,0,0-17,10.1,19.7,19.7,0,0,0-17-10.1h-1.1a19.2,19.2,0,0,0-14.9,7,42.7,42.7,0,0,0-23.4-7,41.9,41.9,0,0,0-22.9,6.8,41.1,41.1,0,0,0-23.3-6.8,42.5,42.5,0,1,0,0,85,41.3,41.3,0,0,0,23.1-6.9,42.7,42.7,0,0,0,23.1,6.9A43.7,43.7,0,0,0,360,294a19.6,19.6,0,0,0,11.6,3.8h8a19.7,19.7,0,0,0,7.9-1.7,18.2,18.2,0,0,0,9.1,2.4h1.3a18.2,18.2,0,0,0,9.1-2.4,19.7,19.7,0,0,0,7.9,1.7H423a19.6,19.6,0,0,0,11.5-3.8,43.6,43.6,0,0,0,19,4.5,42.5,42.5,0,1,0,0-85ZM295.2,268.1a12.9,12.9,0,0,0,8.1-2.9,2.9,2.9,0,0,1,3.9.2l5.2,5.6a2.8,2.8,0,0,1,.8,2,3.4,3.4,0,0,1-.9,2h0a24.6,24.6,0,0,1-17.6,7,26,26,0,1,1,0-52,24.5,24.5,0,0,1,17.5,6.7,2.8,2.8,0,0,1,.2,4.1l-5.3,5.5a2.8,2.8,0,0,1-3.9.1,11.9,11.9,0,0,0-8.1-3.1c-6.6,0-11.8,5.5-11.8,12.5A12,12,0,0,0,295.2,268.1ZM340.9,282A25.7,25.7,0,0,1,315,256.1,26,26,0,1,1,340.9,282Zm84.2-1.7a2.5,2.5,0,0,1-2.1,1h-8.1a3,3,0,0,1-2.8-2.4l-2.4-16.5-9.3,18a3.2,3.2,0,0,1-2.5,1.6h-1.3a3.2,3.2,0,0,1-2.5-1.6l-9.4-18-2.3,16.5a2.8,2.8,0,0,1-2.8,2.4h-8a2.6,2.6,0,0,1-2.2-1,2.5,2.5,0,0,1-.6-2.2l7.7-45.7a2.7,2.7,0,0,1,2.7-2.4h1.1a3.2,3.2,0,0,1,2.5,1.5l14.5,27,14.4-27a3,3,0,0,1,2.6-1.5h1a2.9,2.9,0,0,1,2.8,2.4l7.6,45.7A2.3,2.3,0,0,1,425.1,280.3Zm28.4,1.7a25.7,25.7,0,0,1-25.9-25.9A26,26,0,1,1,453.5,282Z"/><path d="M340.9,243A13.2,13.2,0,0,0,328,256.1,13,13,0,1,0,340.9,243Z"/><path d="M373.9,135.2a.7.7,0,0,0-.6-.3.6.6,0,0,0-.6.3l-5.2,11.2a.6.6,0,0,0,.1.7.5.5,0,0,0,.5.3h10.3a.6.6,0,0,0,.6-.3.9.9,0,0,0,0-.7Z"/><path d="M412.4,153.7l-21.3-45.8-.3-.5a19.3,19.3,0,0,0-17.2-10.6h-.7a19.5,19.5,0,0,0-16.5,9.3,19.1,19.1,0,0,0-16-8.7H312.2a20.3,20.3,0,0,0-10,2.8,40,40,0,0,0-16.3-3.4c-21.9,0-33.7,16.2-33.7,31.5a30.4,30.4,0,0,0,4.6,16.1l-1.9,3.3a18.8,18.8,0,0,0,3.2,23.4c3.2,3.2,12.3,10.6,28.1,10.6a36.1,36.1,0,0,0,15.9-3.6,18.4,18.4,0,0,0,10.1,2.9h28.2a21,21,0,0,0,5.6-.8,21.2,21.2,0,0,0,5.7.8h7.4a20.8,20.8,0,0,0,14.1-5.5,20.1,20.1,0,0,0,14.1,5.5h7.6a19.1,19.1,0,0,0,17.5-27.3ZM286.2,165.2c-9.9,0-15-4.3-16.4-5.7a2.7,2.7,0,0,1-.6-3.7l3.2-5.6a3.2,3.2,0,0,1,4.7-.8c4.2,2.8,7,3.3,8.6,3.3s3.2-1,3.2-2.5c0-3.1-4.6-4.9-6.1-5.5-9.1-3.6-14.1-9.4-14.1-16.4s5.9-15.1,17.2-15.1c6.7,0,12.1,3,15.5,5.4,1.6,1.1,1.3,3.3.8,4.2l-3.5,5.3a3.9,3.9,0,0,1-3.1,1.7,2.3,2.3,0,0,1-1.4-.4l-.4-.3c-3.6-2.4-6.3-3.5-8.4-3.5s-2.8.9-2.8,1.9.8,2.9,6.5,5.2,14.7,7,14.7,16.9C303.8,157.3,297.2,165.2,286.2,165.2Zm57-41.1a2.9,2.9,0,0,1-2.8,2.9H323.1v5.3H337a2.9,2.9,0,0,1,2.9,2.9v7.4a2.9,2.9,0,0,1-2.9,2.8H323.1v6.1h17.3a2.9,2.9,0,0,1,2.8,2.8v7.4a2.8,2.8,0,0,1-2.8,2.8H312.2a2.8,2.8,0,0,1-2.8-2.8v-45a2.9,2.9,0,0,1,2.8-2.8h28.2a2.9,2.9,0,0,1,2.8,2.8Zm54.1,39.2a2.7,2.7,0,0,1-2.4,1.2h-7.6a3.7,3.7,0,0,1-3.7-2.5l-2.1-4.5H365l-2,4.5a4,4,0,0,1-3.9,2.5h-7.4a2.7,2.7,0,0,1-2.4-1.2,2.9,2.9,0,0,1-.2-2.7l21.3-45.8a3,3,0,0,1,2.5-1.6h.7a3,3,0,0,1,2.5,1.6l21.3,45.8A2.9,2.9,0,0,1,397.3,163.3Z"/><path d="M373,359.8a13.2,13.2,0,0,0-13,13,13,13,0,1,0,13-13Z"/><path d="M373,330.3a42,42,0,0,0-20.3,5.2,19.4,19.4,0,0,0-12.4-4.5H312.1a18.7,18.7,0,0,0-9.9,2.8,40,40,0,0,0-16.3-3.5c-21.9,0-33.7,16.2-33.7,31.5a30.2,30.2,0,0,0,4.6,16.1l-1.9,3.3c-4.5,7.9-3.3,16.9,3.2,23.5,3.2,3.2,12.3,10.5,28.1,10.5a35.9,35.9,0,0,0,15.8-3.5,19.5,19.5,0,0,0,10.1,2.9h28.2a19.4,19.4,0,0,0,12.4-4.5,41.9,41.9,0,0,0,20.3,5.1,42.5,42.5,0,0,0,0-84.9Zm-86.8,68.5c-9.9,0-15-4.4-16.4-5.7s-1.6-1.9-.6-3.7l3.2-5.7a3.3,3.3,0,0,1,4.7-.8c4.2,2.8,7,3.4,8.6,3.4s3.2-1.1,3.2-2.6-4.6-4.8-6.1-5.4c-9.1-3.6-14.1-9.5-14.1-16.5s5.9-15,17.2-15a26.4,26.4,0,0,1,15.5,5.4c1.6,1,1.3,3.2.8,4.2l-3.5,5.2a4,4,0,0,1-3.1,1.8,2.4,2.4,0,0,1-1.4-.5l-.4-.2c-3.6-2.4-6.3-3.6-8.4-3.6s-2.8.9-2.8,2,.8,2.9,6.5,5.2,14.7,6.9,14.7,16.9C303.8,390.8,297.2,398.8,286.2,398.8Zm56.9-41.1a2.9,2.9,0,0,1-2.8,2.8H323v5.4h14a2.9,2.9,0,0,1,2.8,2.8v7.4a2.8,2.8,0,0,1-2.8,2.8H323V385h17.3a2.9,2.9,0,0,1,2.8,2.9v7.4a2.9,2.9,0,0,1-2.8,2.8H312.1a2.9,2.9,0,0,1-2.8-2.8v-45a2.8,2.8,0,0,1,2.8-2.8h28.2a2.8,2.8,0,0,1,2.8,2.8ZM373,398.8a25.7,25.7,0,0,1-26-26,26,26,0,1,1,26,26Z"/></g></svg>