<svg xmlns="http://www.w3.org/2000/svg" viewBox="0 0 512 512"><path transform-origin="center" d="M24.7,256c0,58.5,3.2,116.9,9.6,128C47.1,406.2,230.4,512,256,512S464.9,406.2,477.7,384s12.8-233.8,0-256S281.6,0,256,0,47.1,105.8,34.3,128c-6.4,11.1-9.6,69.5-9.6,128Zm129.9,0A101.4,101.4,0,1,1,256,357.4,101.4,101.4,0,0,1,154.6,256Z" fill="#B06C0D"><animateTransform attributeName="transform" type="rotate" from="0" to="360" begin="2s" dur="20s" repeatCount="indefinite"/></path><path id="bolt" d="M156.1,299.7h67.3l-12.7,47A101.1,101.1,0,0,0,256,357.4a103.8,103.8,0,0,0,23.2-2.7L357,246.9a100.3,100.3,0,0,0-9.3-34.1h-61L308.5,71A13.4,13.4,0,0,0,284,61.7l-139,217a13.9,13.9,0,0,0-.5,13.8A12.9,12.9,0,0,0,156.1,299.7Z" fill="#FCA326"/></svg>