<svg xmlns="http://www.w3.org/2000/svg" viewBox="0 0 2048 512"><defs><linearGradient id="a" x1="2258.15" y1="-145.29" x2="690.86" y2="759.58" gradientTransform="matrix(1, 0, 0, -1, 0, 512)" gradientUnits="userSpaceOnUse"><stop offset="0.625" stop-color="#5fceb3"/><stop offset="0.625" stop-color="#fca326"/></linearGradient></defs><g fill="url(#a)"><path d="M660.9,203.9a128.5,128.5,0,0,0-67.5,18.5,230.6,230.6,0,0,0,1.5-26.3C595.5,88.4,508.6.6,400.8,0h-2A193.7,193.7,0,0,0,260.3,57.5c-36.6,36.9-56.7,86.1-56.7,138.6a230.6,230.6,0,0,0,1.5,26.3,128.5,128.5,0,0,0-67.5-18.5,133.1,133.1,0,0,0-96,40.5C22.6,264,0,299.2,0,355.9,0,410,23,453,42.1,479.4a57.4,57.4,0,0,0,47.9,25,62.1,62.1,0,0,0,29.8-7.7l2.7-1.7L157,472.2a64.3,64.3,0,0,0,14-12.5l3.3,3.8c28.1,31.7,64.4,48.5,104.9,48.5,48.9,0,94.7-27.6,120-71.4,25.4,43.8,71.2,71.4,120,71.4,40.6,0,76.9-16.8,105-48.5l3.3-3.8a66.2,66.2,0,0,0,13.9,12.5L676,495l2.7,1.7a61,61,0,0,0,29.8,7.7c19.5,0,37.4-9.4,47.7-24.8,19.3-26.6,42.3-69.7,42.3-123.7,0-56.7-22.7-91.9-41.7-111.5A132.9,132.9,0,0,0,660.9,203.9ZM373.1,222.4c-4.8-5.6-8.2-15.4-8.2-23.9,0-18.3,14.8-32.5,34.2-33a33.1,33.1,0,0,1,34.4,31.7h0v1.2c0,8.5-3.3,18.3-8.1,23.9-.2.2-13.6,16.5-26.2,43.8C386.7,239.2,373.3,222.6,373.1,222.4ZM722.4,456.2c-2.8,4.5-7.8,7.1-13.9,7.1A18.6,18.6,0,0,1,699,461l-35.1-23.2a23.1,23.1,0,0,1-9.8-14.7,13.1,13.1,0,0,1,2-10c.4-.7,1.1-1.8,2.1-3.2,5.9-8.8,23.9-35.8,23.9-57.6,0-13-8.4-21.7-16.3-21.7-10,0-21.5,5.5-37.5,45-9.3,23.5-37.9,95.3-109.1,95.3-49.2,0-100.1-42.3-100.1-113.2,0-60.8,37-108.1,37.4-108.5,11.2-13,18.1-32.4,18.1-50.7,0-40.9-33.1-73.5-75.5-74a73.8,73.8,0,0,0-75.3,72.3h0v1.7c0,18.3,7,37.7,18.1,50.7.4.4,37.5,47.7,37.5,108.5,0,70.9-50.9,113.2-100.2,113.2-71.2,0-99.7-71.8-109.1-95.4-16-39.4-27.4-44.9-37.5-44.9-7.8,0-16.2,8.7-16.2,21.7,0,21.8,18,48.8,23.9,57.6l2,3.2a12.6,12.6,0,0,1,2,10,23.1,23.1,0,0,1-9.8,14.7l-34.7,23a19.9,19.9,0,0,1-9.8,2.5c-6.1,0-11.2-2.6-14-7.1-13.1-18-34.9-54.7-34.9-100.3,0-72.8,48.5-111,96.5-111,57.6,0,89.4,50,106,91.8,15,37.8,29.6,42.2,39.3,42.2,11.9,0,20.3-10,20.3-24.3,0-10.8-3.5-23.5-10.5-37.7l-17.1-27.5c-21.1-27.1-31-56.7-31-93.3,0-85.5,69.2-155,154.2-155h.8c85.1,0,154.2,69.5,154.2,155,0,36.6-9.8,66.2-30.9,93.2L505.7,317c-6.9,14.1-10.4,26.8-10.4,37.6,0,14.3,8.3,24.3,20.3,24.3,9.7,0,24.3-4.4,39.3-42.2,16.5-41.8,48.4-91.8,106-91.8,47.9,0,96.5,38.2,96.5,111C757.4,401.5,735.6,438.2,722.4,456.2Z"/><g transform="translate(0,60.462005)"><path d="M1378.8,166.6c-15.6,0-28.8,13.4-28.8,29.1a28.9,28.9,0,1,0,28.8-29.1Z"/><path d="M1130.5,186.6a1.2,1.2,0,0,0-1.3-.7,1.3,1.3,0,0,0-1.4.7l-11.5,24.9a1.4,1.4,0,0,0,.2,1.4,1.2,1.2,0,0,0,1.1.7h23.1a1.4,1.4,0,0,0,1.2-.7,1.2,1.2,0,0,0,0-1.4Z"/><path d="M1629.2,166.6c-15.5,0-28.7,13.4-28.7,29.1a28.9,28.9,0,0,0,57.7,0A29.2,29.2,0,0,0,1629.2,166.6Z"/><path d="M1953.5,101.1a93.5,93.5,0,0,0-45.1,11.6,42.6,42.6,0,0,0-27.5-10.1h-62.6a42.1,42.1,0,0,0-22.1,6.1,90,90,0,0,0-36.2-7.6c-28.7,0-49.7,12.6-62,29.9a93.9,93.9,0,0,0-120.6-14.3,42.5,42.5,0,0,0-33.1-15.6h-2.4a43.5,43.5,0,0,0-37.8,22.5,43.5,43.5,0,0,0-37.8-22.5h-2.4a42.3,42.3,0,0,0-33.2,15.7,93.7,93.7,0,0,0-103-.6c-15.1-10.2-32.1-15.1-51.6-15.1a94.7,94.7,0,0,0-89.3,63.4l-18-38.6-.6-1.2a42.8,42.8,0,0,0-38.3-23.6h-1.5a43,43,0,0,0-36.7,20.7,42.7,42.7,0,0,0-35.7-19.2H993.4a43.5,43.5,0,0,0-22.2,6.2,89,89,0,0,0-36.3-7.7c-48.7,0-75,36.1-75,70.1A65.6,65.6,0,0,0,870.1,207l-4.2,7.3c-10.1,17.6-7.3,37.6,7.2,52.2,7,7.1,27.2,23.5,62.4,23.5a80.1,80.1,0,0,0,35.3-8.1,41,41,0,0,0,22.6,6.5H1056a43.3,43.3,0,0,0,12.4-1.8,38.4,38.4,0,0,0,12.6,1.8h16.7a44.6,44.6,0,0,0,31.4-12.4,44,44,0,0,0,31.3,12.4h16.9a42.3,42.3,0,0,0,36.1-19.7,8.6,8.6,0,0,0,1-1.6,94.6,94.6,0,0,0,61.7,22.9,93.5,93.5,0,0,0,51.3-15.3,94,94,0,0,0,93.7,5.2,42.9,42.9,0,0,0,25.8,8.5h17.9a41.9,41.9,0,0,0,17.4-3.7,42.4,42.4,0,0,0,20.6,5.3h2.6a42,42,0,0,0,20.5-5.3,42.3,42.3,0,0,0,17.5,3.7h17.9a41.8,41.8,0,0,0,25.7-8.5,94.1,94.1,0,0,0,108.1-16.8c1,1.1,2,2.3,3.1,3.4,7,7.1,27.2,23.5,62.4,23.5a80.9,80.9,0,0,0,35.2-8,41.5,41.5,0,0,0,22.5,6.4h62.6a41.9,41.9,0,0,0,27.5-9.9,94.5,94.5,0,0,0,45.1,11.5c52.1,0,94.5-42.3,94.5-94.3A94.7,94.7,0,0,0,1953.5,101.1ZM935.5,253.3c-22.1,0-33.5-9.7-36.4-12.6s-3.6-4.2-1.3-8.4l7.1-12.5c2-3.2,6.6-4.3,10.5-1.7,9.2,6.1,15.4,7.5,19,7.5s7-2.3,7-5.7c0-6.8-10.1-10.9-13.3-12.2-20.3-8-31.5-21-31.5-36.5s13.1-33.5,38.3-33.5c14.7,0,26.8,6.5,34.4,12.1,3.6,2.3,2.9,7.1,1.7,9.3l-7.7,11.7a8.5,8.5,0,0,1-6.8,3.8,5.6,5.6,0,0,1-3.3-1l-.8-.5c-7.9-5.3-14.1-7.9-18.7-7.9s-6.1,2-6.1,4.3,1.7,6.5,14.3,11.6,32.7,15.5,32.7,37.5C974.6,235.7,960,253.3,935.5,253.3Zm126.7-91.4a6.4,6.4,0,0,1-6.2,6.3h-38.5v12h31.1a6.5,6.5,0,0,1,6.3,6.2v16.5a6.3,6.3,0,0,1-6.3,6.3h-31.1v13.6H1056a6.4,6.4,0,0,1,6.2,6.3v16.5a6.2,6.2,0,0,1-6.2,6.2H993.4a6.4,6.4,0,0,1-6.3-6.2V145.5a6.3,6.3,0,0,1,6.3-6.3H1056a6.4,6.4,0,0,1,6.2,6.3ZM1182.6,249a6.3,6.3,0,0,1-5.3,2.8h-16.9c-4.6,0-6.7-2.3-8.3-5.7l-4.6-10h-36.7l-4.5,10a9,9,0,0,1-8.6,5.7h-16.6a6,6,0,0,1-6.3-5.7h0a6.6,6.6,0,0,1,.6-3.1l47.4-101.7a6.2,6.2,0,0,1,5.6-3.6h1.5a6.2,6.2,0,0,1,5.6,3.6L1182.9,243A6.4,6.4,0,0,1,1182.6,249Zm134.5-15.6a5.9,5.9,0,0,1-1.9,4.3,54.9,54.9,0,0,1-39.1,15.6,57.8,57.8,0,1,1,0-115.6h0c15.3,0,27.6,4.8,38.9,14.9a6.2,6.2,0,0,1,2.1,4.6,5.9,5.9,0,0,1-1.8,4.5L1303.5,174a6.2,6.2,0,0,1-8.6,0,27.9,27.9,0,0,0-18.1-6.7c-14.7,0-26.2,12.2-26.2,27.7s11.6,27.4,26.4,27.4a28.2,28.2,0,0,0,18-6.5c2.5-2.1,6.8-1.8,8.7.5l11.7,12.5A5.8,5.8,0,0,1,1317.1,233.4Zm61.9,19.9h-.2c-32.3,0-57.6-25.3-57.6-57.6a57.7,57.7,0,1,1,57.8,57.6Zm187.1-3.7a6.2,6.2,0,0,1-4.8,2.2h-17.9a6.5,6.5,0,0,1-6.3-5.4l-5.3-36.7L1511,249.8a6.5,6.5,0,0,1-5.6,3.5h-2.6a6.5,6.5,0,0,1-5.6-3.5l-20.9-40.1-5.3,36.7a6.3,6.3,0,0,1-6.2,5.4H1447a6.3,6.3,0,0,1-6.4-6,5.7,5.7,0,0,1,.1-1.3l17.1-101.4a6.2,6.2,0,0,1,6.1-5.4h2.4a6.6,6.6,0,0,1,5.5,3.4l32.3,60,32.2-60a6.8,6.8,0,0,1,5.6-3.4h2.4a6.3,6.3,0,0,1,6.1,5.4l17.1,101.4a6.3,6.3,0,0,1-1.4,5.1Zm63.3,3.7h-.2c-32.3,0-57.6-25.3-57.6-57.6a57.6,57.6,0,0,1,57.2-58h.4a57.8,57.8,0,0,1,.2,115.6Zm131.2,0c-22.1,0-33.4-9.7-36.5-12.6s-3.6-4.2-1.2-8.3l7.1-12.6c2-3.2,6.6-4.3,10.4-1.7,9.3,6.1,15.5,7.5,19.2,7.5s7-2.3,7-5.7c0-6.8-10.1-10.9-13.5-12.2-20.3-8-31.4-21-31.4-36.5s13.1-33.5,38.3-33.5c14.8,0,26.9,6.5,34.4,12.1,3.6,2.3,2.9,7.1,1.8,9.2l-7.9,11.8a8.4,8.4,0,0,1-6.7,3.8,5.3,5.3,0,0,1-3.2-1l-.9-.5c-7.9-5.3-14-7.9-18.8-7.9-3.3,0-6.1,2-6.1,4.3s1.7,6.5,14.4,11.6,32.6,15.5,32.6,37.5C1799.6,235.7,1785,253.3,1760.6,253.3Zm126.5-91.4a6.4,6.4,0,0,1-6.2,6.3h-38.5v12h31.1a6.5,6.5,0,0,1,6.3,6.2v16.5a6.5,6.5,0,0,1-6.3,6.3h-31.1v13.6h38.5a6.4,6.4,0,0,1,6.2,6.3v16.5a6.2,6.2,0,0,1-6.2,6.2h-62.6a6.4,6.4,0,0,1-6.3-6.2V145.5a6.3,6.3,0,0,1,6.3-6.3h62.6a6.4,6.4,0,0,1,6.2,6.3Zm66.8,91.4h-.4c-32.3,0-57.6-25.3-57.6-57.6a57.8,57.8,0,1,1,58,57.6Z"/><path d="M1953.5,166.6c-15.5,0-28.7,13.4-28.7,29.1a28.9,28.9,0,0,0,57.7,0A29.2,29.2,0,0,0,1953.5,166.6Z"/></g></g></svg>