<svg xmlns="http://www.w3.org/2000/svg" width="1024" height="165" viewBox="0 0 1024 165"><g fill="#53552b"><path d="m624.37 116.98 8.4-2.11V24.96l-8.4-2.11v-2.08h18.26c8.42 0 12.64 4.22 12.64 12.63v81.47l8.4 2.11v2.11h-39.3zm47.76 0 8.4-2.11v-61.8l-8.4-2.1v-2.12h18.26c8.42 0 12.63 4.22 12.63 12.64v53.38l8.41 2.11v2.11h-39.3Zm18.26-76.57a9.55 9.55 0 0 1-9.86-9.82c0-2.82.95-5.14 2.82-7a9.55 9.55 0 0 1 7.04-2.82c2.79 0 5.13.94 7 2.82a9.43 9.43 0 0 1 2.82 7 9.55 9.55 0 0 1-9.82 9.82zm29.5 76.57 8.4-2.11v-61.8l-8.4-2.1v-2.12h12.63c5.52 0 9.87 1.78 13.06 5.32a18.66 18.66 0 0 1 3.1 5.2c1.4-2.6 2.9-4.7 4.49-6.3 4.22-4.22 9.04-6.33 14.47-6.33 5.42 0 10.19 1.2 14.31 3.6a24.99 24.99 0 0 1 9.59 9.74c1.37-2.71 2.87-4.9 4.5-6.57 4.3-4.5 9.12-6.77 14.46-6.77 4.95 0 9.41 1.04 13.38 3.1a22.98 22.98 0 0 1 9.27 8.44 21.63 21.63 0 0 1 3.32 11.65v44.94l8.45 2.11v2.11h-18.26c-8.45 0-12.68-4.2-12.68-12.63V69.93c0-6.1-.93-10.65-2.81-13.69-1.86-3.05-3.95-4.57-6.3-4.57-2.72 0-5.47 1.88-8.29 5.63a42.41 42.41 0 0 0-2.97 5.6v51.97l8.45 2.11v2.11H762.7V117l8.45-2.12V69.93c0-6.1-.94-10.65-2.82-13.69-1.87-3.05-3.99-4.57-6.33-4.57-2.72 0-5.48 1.88-8.3 5.63a39 39 0 0 0-2.93 5.6v51.97l8.41 2.11v2.11h-39.3zM890.56 121.2c-11.63 0-20.74-3.29-27.34-9.89-6.6-6.62-9.89-15.73-9.89-27.34 0-11.6 3.3-20.7 9.9-27.3 6.59-6.61 15.7-9.93 27.33-9.93 11.6 0 20.7 3.32 27.3 9.94 6.6 6.6 9.9 15.7 9.9 27.3 0 11.6-3.3 20.71-9.9 27.33-6.6 6.6-15.7 9.9-27.3 9.9zm0-2.81c3.73 0 6.89-2.62 9.47-7.86 2.58-5.24 3.87-14.09 3.87-26.55s-1.3-21.32-3.87-26.56c-2.58-5.24-5.74-7.86-9.47-7.86-3.75 0-6.92 2.62-9.5 7.86s-3.87 14.1-3.87 26.55c0 12.47 1.29 21.32 3.87 26.56 2.58 5.24 5.75 7.86 9.5 7.86zm0 0"/><path d="M896.15 45.15s2.02-19.94 25.43-29.58l.04-.02-.04.02c-.77.33-16.14 7.2-22.34 30.23C937.6 52.43 937.55 0 937.55 0c-56.13 9.93-41.4 45.15-41.4 45.15" class="logo-hoja"/><path d="m939.01 116.98 8.41-2.11v-61.8l-8.4-2.1v-2.12h12.63c5.52 0 9.87 1.78 13.06 5.32a18.66 18.66 0 0 1 3.09 5.2 26.23 26.23 0 0 1 4.65-6.3c4.2-4.22 9.44-6.33 15.73-6.33a29.7 29.7 0 0 1 14.11 3.33 25.5 25.5 0 0 1 9.74 8.64 20.03 20.03 0 0 1 3.52 11.22v44.94l8.45 2.11v2.11h-18.27c-8.42 0-12.63-4.2-12.63-12.63V69.93c0-5.88-1.05-10.4-3.16-13.53-2.12-3.15-4.58-4.73-7.4-4.73-3.55 0-6.72 1.88-9.54 5.63a22.41 22.41 0 0 0-3.09 5.6v51.97l8.4 2.11v2.11h-39.3zM37.94 121.2c-12 0-21.32-3.29-27.97-9.89C3.32 104.69 0 95.58 0 83.97c0-11.6 3.33-20.7 9.97-27.3 6.65-6.61 15.97-9.93 27.97-9.93 8.6 0 15.07 1.5 19.43 4.5 4.35 3 6.53 6.65 6.53 10.95 0 3.19-.96 5.74-2.89 7.66-1.9 1.94-4.45 2.9-7.63 2.9-1.33 0-2.64-.1-3.94-.31l-1.69-.4V50.97l-1.95-.7c-1.41-.48-3.11-.71-5.09-.71-5.32 0-9.46 2.53-12.43 7.59-2.96 5.06-4.42 14-4.42 26.83 0 12.46 1.46 21.2 4.42 26.2 2.97 5 7.11 7.5 12.43 7.5 3.65 0 7.04-.85 10.17-2.57a20.47 20.47 0 0 0 7.47-6.89 16.25 16.25 0 0 0 2.74-8.8h3.52c0 3.76-1.12 7.32-3.36 10.68a24.07 24.07 0 0 1-9.43 8.1c-4.02 2-8.64 3-13.88 3zm73.74 0c-11.64 0-20.75-3.29-27.34-9.89-6.6-6.62-9.9-15.73-9.9-27.34 0-11.6 3.3-20.7 9.9-27.3 6.6-6.61 15.7-9.93 27.34-9.93 11.6 0 20.7 3.31 27.3 9.93 6.59 6.6 9.9 15.7 9.9 27.3 0 11.6-3.31 20.72-9.9 27.34-6.6 6.6-15.7 9.9-27.3 9.9zm0-2.81c3.73 0 6.88-2.62 9.46-7.86 2.59-5.24 3.88-14.1 3.88-26.56 0-12.45-1.3-21.31-3.88-26.55-2.58-5.24-5.73-7.87-9.46-7.87-3.75 0-6.92 2.63-9.5 7.87s-3.87 14.1-3.87 26.55c0 12.47 1.29 21.32 3.87 26.56 2.58 5.24 5.75 7.86 9.5 7.86zm48.45-1.4 8.41-2.12v-61.8l-8.4-2.1v-2.12h12.62c5.53 0 9.88 1.78 13.07 5.32a18.7 18.7 0 0 1 3.09 5.2 26.14 26.14 0 0 1 4.65-6.3c4.2-4.22 9.44-6.33 15.72-6.33 5.24 0 9.95 1.12 14.12 3.33a25.5 25.5 0 0 1 9.74 8.64 20.04 20.04 0 0 1 3.52 11.22v44.94l8.45 2.11v2.11h-18.27c-8.42 0-12.63-4.2-12.63-12.63V69.93c0-5.88-1.05-10.4-3.17-13.53-2.1-3.15-4.57-4.73-7.39-4.73-3.55 0-6.73 1.88-9.54 5.63a22.36 22.36 0 0 0-3.09 5.6v51.97l8.4 2.11v2.11h-39.3zm132.74 0 8.41-2.12v-61.8l-8.4-2.1v-2.12h12.63c5.52 0 9.87 1.78 13.06 5.32a18.66 18.66 0 0 1 3.09 5.2c1.4-2.6 2.9-4.7 4.5-6.3 4.22-4.22 9.04-6.33 14.47-6.33 5.41 0 10.19 1.2 14.31 3.6a24.99 24.99 0 0 1 9.58 9.74c1.38-2.71 2.88-4.9 4.5-6.57 4.3-4.5 9.12-6.77 14.47-6.77 4.95 0 9.4 1.04 13.38 3.1a22.98 22.98 0 0 1 9.26 8.44 21.63 21.63 0 0 1 3.33 11.65v44.94l8.45 2.11v2.11h-18.27c-8.45 0-12.67-4.2-12.67-12.63V69.93c0-6.1-.94-10.65-2.82-13.69-1.85-3.05-3.94-4.57-6.3-4.57-2.71 0-5.47 1.88-8.28 5.63a42.41 42.41 0 0 0-2.97 5.6v51.97l8.44 2.11v2.11H335.7v-2.11l8.45-2.11V69.93c0-6.1-.94-10.65-2.82-13.69-1.88-3.05-3.99-4.57-6.34-4.57-2.71 0-5.47 1.88-8.29 5.63a39 39 0 0 0-2.93 5.6v51.97l8.4 2.11v2.11h-39.3zm160.82 4.21c-8.35 0-14.76-1.77-19.24-5.31-4.49-3.57-6.73-8.12-6.73-13.65 0-3.65.8-7.26 2.4-10.84a20.6 20.6 0 0 1 2.5-4.61c3.85-.94 8.02-1.78 12.5-2.54a242.88 242.88 0 0 1 26.84-3.1v-4.22c0-10.37-1.27-17.53-3.8-21.47-2.53-3.93-6.41-5.9-11.65-5.9a16 16 0 0 0-5.05.7l-2 .7v21.08l-1.79.4a27.9 27.9 0 0 1-3.8.3c-3.18 0-5.73-.95-7.66-2.89-1.93-1.92-2.9-4.47-2.9-7.66 0-4.3 2.18-7.95 6.54-10.95 4.35-3 10.84-4.5 19.48-4.5 7.29 0 13.59 1.3 18.89 3.87 5.29 2.58 9.31 6.14 12.08 10.68 2.76 4.54 4.15 9.76 4.15 15.64v37.94l8.4 2.11v2.11h-12.63c-5.61 0-9.96-1.73-13.06-5.2a14.96 14.96 0 0 1-3.09-5.32 31.06 31.06 0 0 1-4.65 6.3c-4.2 4.22-9.45 6.33-15.73 6.33zm5.64-4.92c3.46 0 6.59-1.88 9.38-5.63a33.83 33.83 0 0 0 3.25-5.6V84.68c-4.3 0-8.43.23-12.36.7-2.9.37-4.87.6-5.9.7a26.3 26.3 0 0 0-1.41 4.23 41.04 41.04 0 0 0-1.41 10.52c0 5.24.79 9.13 2.38 11.65 1.59 2.54 3.61 3.8 6.06 3.8zm0-74.47 5.59-21.04h18.26l-18.97 21.04zm84.98 79.4a31.84 31.84 0 0 1-15.6-3.8 23.66 23.66 0 0 1-5.48-3.95 17.58 17.58 0 0 1-4.93 4.77c-.84.58-1.78 1.1-2.82 1.57H512V95.9h5.6a39.45 39.45 0 0 0 5.35 10.95c4.95 7.23 11.13 10.84 18.54 10.84 3.93 0 6.9-.95 8.92-2.86 2-1.93 3.01-4.71 3.01-8.37 0-3.1-1.39-5.69-4.14-7.78-2.77-2.11-7.1-4.71-12.99-7.82a135.33 135.33 0 0 1-12.32-6.81 29.02 29.02 0 0 1-7.98-7.59 17.95 17.95 0 0 1-3.28-10.75c0-5.6 2.4-10.17 7.23-13.69 4.82-3.52 12.24-5.28 22.26-5.28 4.94 0 9.54 1.32 13.76 3.95a32.78 32.78 0 0 1 5.32 3.8 21.56 21.56 0 0 1 4.93-4.78 30.48 30.48 0 0 1 2.82-1.56h3.51v23.9h-5.63a50.75 50.75 0 0 0-5.2-10.84c-4.67-7.3-10.24-10.95-16.7-10.95-2.53 0-4.69.94-6.5 2.82a9.78 9.78 0 0 0-2.65 7c0 3.58 1.5 6.56 4.5 8.95 2.99 2.38 7.55 5.12 13.65 8.22a134.9 134.9 0 0 1 11.85 6.68 29.37 29.37 0 0 1 7.58 7.08 15.81 15.81 0 0 1 3.17 9.82c0 13.59-10.77 20.37-32.3 20.37zm0 0"/></g></svg>