<svg xmlns="http://www.w3.org/2000/svg" width="661.12" height="130.44" viewBox="0 0 661.12 130.44"><path fill="#6cc72b" d="M407.95 98.7a1.57 1.57 0 0 1-.48-1.16V5.71c0-.45.16-.84.48-1.16a1.57 1.57 0 0 1 1.16-.48H425c.45 0 .84.16 1.15.48a1.57 1.57 0 0 1 .48 1.16v91.84a1.57 1.57 0 0 1-.48 1.16c-.32.32-.7.48-1.15.48h-15.9a1.57 1.57 0 0 1-1.15-.48zm37.16-4.42c-5.43-3.99-9.15-9.42-11.14-16.3a48.22 48.22 0 0 1-1.9-13.86c0-5.34.63-10.14 1.9-14.4 2.08-6.7 5.84-11.95 11.27-15.76 5.43-3.8 11.95-5.71 19.56-5.71s13.77 1.88 19.02 5.64 8.97 8.99 11.14 15.69c1.45 4.53 2.17 9.28 2.17 14.27s-.63 9.46-1.9 13.72c-2 7.06-5.68 12.61-11.07 16.64s-11.9 6.05-19.5 6.05-14.12-1.99-19.55-5.98zm27.17-13.18a15.07 15.07 0 0 0 4.48-7.47c.72-2.9 1.09-6.07 1.09-9.51 0-3.8-.36-7.02-1.1-9.65-1-3.08-2.53-5.48-4.61-7.2s-4.62-2.58-7.61-2.58-5.64.86-7.67 2.58c-2.04 1.72-3.51 4.12-4.41 7.2-.73 2.17-1.1 5.39-1.1 9.65s.33 7.25.96 9.51c.9 3.17 2.42 5.66 4.55 7.47s4.73 2.72 7.8 2.72 5.53-.9 7.62-2.72zm73.56-51.28a1.57 1.57 0 0 1 1.16-.48h15.89c.45 0 .84.16 1.16.48a1.57 1.57 0 0 1 .48 1.16v61.95c0 11.86-3.42 20.33-10.26 25.4s-15.65 7.61-26.42 7.61c-3.17 0-6.7-.23-10.6-.68-.91-.09-1.36-.68-1.36-1.77l.54-13.99c0-1.18.63-1.68 1.9-1.49 3.26.54 6.25.82 8.97.82 5.8 0 10.26-1.27 13.38-3.8 3.13-2.54 4.69-6.61 4.69-12.23 0-.27-.1-.43-.27-.48-.18-.04-.36.02-.54.2-3.44 3.71-8.47 5.57-15.08 5.57-5.9 0-11.3-1.43-16.23-4.28-4.94-2.85-8.45-7.45-10.53-13.79-1.36-4.16-2.04-9.55-2.04-16.17 0-7.06.8-12.82 2.45-17.25 1.9-5.52 5.12-9.96 9.65-13.31s9.78-5.03 15.76-5.03c6.97 0 12.32 2.08 16.03 6.25.18.18.36.25.54.2.18-.04.27-.2.27-.48v-3.26c0-.45.16-.84.48-1.16zm-.48 33.89c0-2.81-.1-4.98-.27-6.52s-.5-2.99-.95-4.35c-.81-2.45-2.17-4.41-4.08-5.91s-4.26-2.24-7.06-2.24-5.03.75-6.93 2.24-3.31 3.46-4.21 5.91c-1.27 2.72-1.9 6.38-1.9 11 0 5.07.54 8.69 1.63 10.87a11.72 11.72 0 0 0 11.55 8.15c2.8 0 5.3-.75 7.2-2.24s3.2-3.42 3.94-5.77c.72-2.72 1.09-6.43 1.09-11.14zM572.47 98.7a1.57 1.57 0 0 1-.48-1.16v-66.7c0-.45.16-.84.48-1.16a1.57 1.57 0 0 1 1.16-.48h15.89c.45 0 .84.16 1.15.48a1.57 1.57 0 0 1 .48 1.16v66.7a1.57 1.57 0 0 1-.48 1.16c-.32.32-.7.48-1.15.48h-15.9a1.57 1.57 0 0 1-1.15-.48zm38.72-3.87a29.6 29.6 0 0 1-11.34-14.94c-1.54-4.53-2.31-9.87-2.31-16.03s.77-11.32 2.3-15.76c2.18-6.16 5.94-11 11.28-14.54 5.34-3.53 11.64-5.3 18.88-5.3s13.6 1.81 19.09 5.43 9.12 8.2 10.94 13.72c.72 2.17 1.09 3.8 1.09 4.89v.27c0 .82-.45 1.31-1.36 1.49l-15.62 2.31h-.27c-.82 0-1.36-.45-1.63-1.36l-.41-2.17c-.64-2.35-2.04-4.3-4.21-5.84s-4.75-2.31-7.74-2.31-5.35.73-7.34 2.17a11.49 11.49 0 0 0-4.21 5.98c-1 2.72-1.5 6.43-1.5 11.14s.46 8.42 1.37 11.14a11.99 11.99 0 0 0 4.28 6.38c2.04 1.54 4.5 2.31 7.4 2.31s5.28-.75 7.4-2.24 3.6-3.55 4.42-6.18c.09-.18.14-.45.14-.82.09-.09.13-.22.13-.41.09-1.09.72-1.54 1.9-1.36l15.62 2.45c.9.18 1.36.68 1.36 1.49 0 .73-.27 2.08-.82 4.08-1.9 6.07-5.6 10.82-11.07 14.26s-11.8 5.16-18.95 5.16-13.52-1.81-18.81-5.43zM63.08.01A63.08 63.08 0 0 0 0 63.09a63.08 63.08 0 0 0 26.85 51.47L75.84 1.32A63.08 63.08 0 0 0 63.08.01zm46.55 20.52L63.95 126.11a63.08 63.08 0 0 0 62.21-63.02 63.08 63.08 0 0 0-16.53-42.56z"/><path fill="#d257b1" d="M172.2 96.12a29.72 29.72 0 0 1-12.35-11.62c-2.9-4.98-4.35-10.73-4.35-17.25V35.87c0-6.52 1.45-12.27 4.35-17.25s7.02-8.83 12.36-11.55 11.55-4.08 18.6-4.08 13.12 1.29 18.42 3.87 9.42 6.25 12.36 11S226 28.12 226 34.37c0 .82-.54 1.31-1.63 1.5l-15.9.95h-.26c-.91 0-1.36-.5-1.36-1.49 0-4.8-1.47-8.65-4.42-11.55-2.94-2.9-6.82-4.35-11.62-4.35s-8.81 1.45-11.75 4.35-4.42 6.75-4.42 11.55v32.74c0 4.71 1.47 8.51 4.42 11.41 2.94 2.9 6.86 4.35 11.75 4.35s8.67-1.45 11.62-4.35c2.94-2.9 4.42-6.7 4.42-11.41 0-1 .54-1.49 1.63-1.49l15.89.68c.45 0 .84.14 1.16.41s.48.59.48.95c0 6.25-1.47 11.77-4.42 16.57-2.94 4.8-7.06 8.51-12.36 11.14s-11.43 3.94-18.41 3.94-13.27-1.38-18.61-4.14zM274.5 30.3c.72.36 1 1.04.82 2.04l-2.85 15.49c-.1 1.09-.73 1.41-1.9.95a15.11 15.11 0 0 0-4.75-.68c-.73 0-1.72.09-3 .27-3.25.27-6.01 1.47-8.28 3.6s-3.4 4.96-3.4 8.49v37.09c0 .45-.16.84-.48 1.15s-.7.48-1.16.48h-15.9c-.44 0-.83-.16-1.14-.48-.32-.32-.48-.7-.48-1.15V30.98c0-.45.16-.84.48-1.15s.7-.48 1.15-.48h15.89c.45 0 .84.16 1.16.48s.48.7.48 1.15v5.16c0 .27.09.45.27.54s.32.05.4-.14c3.72-5.43 8.7-8.15 14.95-8.15 3.26 0 5.84.63 7.74 1.9zm63.3 38.31c-.08 1.09-.67 1.63-1.76 1.63h-41.98c-.54 0-.73.23-.54.68.27 1.81.77 3.62 1.49 5.43 2.35 5.07 7.15 7.61 14.4 7.61 5.79-.09 10.37-2.45 13.72-7.06.36-.54.77-.82 1.22-.82.27 0 .59.18.95.54l9.78 9.65c.45.45.68.86.68 1.22 0 .18-.18.54-.54 1.09-3 3.71-6.84 6.59-11.55 8.63s-9.87 3.06-15.5 3.06c-7.78 0-14.37-1.77-19.76-5.3s-9.26-8.47-11.62-14.81c-1.9-4.53-2.85-10.46-2.85-17.8 0-4.98.68-9.37 2.04-13.18 2.08-6.43 5.73-11.55 10.94-15.35s11.39-5.71 18.54-5.71c9.05 0 16.32 2.63 21.8 7.88s8.8 12.27 9.99 21.06c.54 3.44.72 7.29.54 11.55zm-43.46-15.89a32.33 32.33 0 0 0-.95 4.35c0 .45.22.68.68.68h23.5c.54 0 .72-.23.54-.68l-.68-3.8a11.77 11.77 0 0 0-4.28-6.32 12.43 12.43 0 0 0-7.54-2.24c-5.71 0-9.46 2.67-11.28 8.02zm91.42-21.4c4.62 2.04 8.22 4.82 10.8 8.36a19.56 19.56 0 0 1 3.87 11.82v46.05c0 .45-.16.84-.48 1.15s-.7.48-1.15.48h-15.9a1.57 1.57 0 0 1-1.15-.48c-.32-.32-.48-.7-.48-1.15v-4.48c0-.27-.1-.45-.27-.54s-.36 0-.54.27c-3.8 4.98-9.92 7.47-18.34 7.47-7.06 0-12.77-1.72-17.12-5.16s-6.52-8.51-6.52-15.22 2.45-12.38 7.34-16.23 11.86-5.77 20.92-5.77h13.86c.45 0 .68-.23.68-.68v-2.99c0-2.99-.91-5.32-2.72-7-1.81-1.67-4.53-2.51-8.15-2.51-2.81 0-5.14.5-7 1.49a6.97 6.97 0 0 0-3.6 4.21c-.27 1-.86 1.45-1.77 1.36L341.6 49.6c-1.1-.18-1.58-.59-1.5-1.22.37-3.8 1.89-7.25 4.56-10.33s6.2-5.48 10.6-7.2A40.14 40.14 0 0 1 370 28.27c5.89 0 11.14 1.02 15.76 3.06zm-8.56 51.56a9.66 9.66 0 0 0 4.08-8.01v-4.89c0-.45-.23-.68-.68-.68h-9.78c-4.08 0-7.27.77-9.58 2.31s-3.46 3.71-3.46 6.52c0 2.45.86 4.37 2.58 5.77 1.72 1.41 4.03 2.11 6.93 2.11 3.89 0 7.2-1.04 9.92-3.12zM92.65 7.38 42.77 122.67a63.08 63.08 0 0 0 17.65 3.3l46.73-108a63.08 63.08 0 0 0-14.5-10.6z"/><path fill="#2a3e4a" d="M574.1 18.41c-2.04-2.04-3.06-4.6-3.06-7.68s1-5.75 2.99-7.74S578.6 0 581.77 0s5.75 1 7.74 2.99 2.99 4.57 2.99 7.74-1.02 5.64-3.06 7.68-4.6 3.06-7.68 3.06-5.64-1.02-7.67-3.06zM239.51 109.7c-.42 0-.77.14-1.04.41s-.4.62-.4 1.05.13.76.4 1.04.62.4 1.04.4.77-.13 1.04-.4.4-.62.4-1.04-.13-.77-.4-1.05-.62-.4-1.04-.4zm147 0c-.43 0-.78.14-1.05.41s-.4.62-.4 1.05.13.76.4 1.04.62.4 1.05.4.76-.13 1.04-.4.4-.62.4-1.04-.13-.77-.4-1.05-.62-.4-1.04-.4zm60.17 0c-.42 0-.77.14-1.04.41s-.4.62-.4 1.05.13.76.4 1.04.62.4 1.04.4.77-.13 1.04-.4.41-.62.41-1.04-.13-.77-.4-1.05-.63-.4-1.05-.4zm22.6 0c-.43 0-.77.14-1.04.41s-.41.62-.41 1.05.14.76.4 1.04.62.4 1.05.4.77-.13 1.04-.4.4-.62.4-1.04-.13-.77-.4-1.05-.62-.4-1.04-.4zm-300.63.4c-.14 0-.23.05-.27.17l-4.96 15.42c-.05.17.01.25.18.25h1.83c.14 0 .23-.06.27-.18l.82-2.65c.01-.04.04-.07.09-.07h6.36c.05 0 .08.02.1.07l.8 2.65c.05.12.14.18.28.18H176c.14 0 .2-.05.2-.16l-.02-.09-5-15.42c-.05-.12-.14-.18-.27-.18zm105.73 0c-.16 0-.23.07-.23.22v5.05c0 .03-.02.05-.05.07-.01.01-.03 0-.06-.03a3.25 3.25 0 0 0-1.2-.86 3.39 3.39 0 0 0-1.45-.31c-1.13 0-2.06.28-2.79.83s-1.24 1.34-1.56 2.34a9.22 9.22 0 0 0-.36 2.74c0 1.13.14 2.1.43 2.9.33.97.85 1.74 1.56 2.28.73.53 1.63.8 2.72.8a3.44 3.44 0 0 0 1.47-.32 3.55 3.55 0 0 0 1.18-.89c.03-.03.05-.03.07-.02.03.01.04.04.04.07v.74c0 .16.08.23.23.23h1.72c.15 0 .23-.07.23-.23v-15.4c0-.14-.08-.22-.23-.22zm29.09 0c-.15 0-.23.07-.23.22v15.4c0 .14.08.22.23.22h1.72c.15 0 .23-.07.23-.23v-11.54c0-.05.01-.08.04-.1s.05 0 .07.05l3.26 4.9c.08.08.17.13.27.13h.86a.3.3 0 0 0 .27-.14l3.24-4.93c.01-.05.04-.06.07-.05s.04.05.04.1v11.58c0 .16.08.23.23.23h1.72c.15 0 .23-.07.23-.23v-15.4c0-.14-.08-.22-.23-.22h-1.72a.34.34 0 0 0-.27.14l-3.94 5.93c-.02.02-.04.02-.07.02s-.05 0-.07-.02l-3.96-5.93a.3.3 0 0 0-.27-.14zm43.73 0c-.15 0-.22.07-.22.22v15.4c0 .14.07.22.22.22h1.72c.15 0 .23-.07.23-.23v-3.66a.43.43 0 0 1 .05-.11l2.12-2.36c.05-.06.09-.05.12.02l2.69 6.16c.05.12.13.18.25.18h1.81c.14 0 .2-.06.2-.18l-.02-.1-3.46-7.46c-.02-.03-.01-.08.02-.14l2.92-3.37c.06-.08.08-.14.05-.18-.02-.06-.07-.1-.16-.1h-2.02c-.12 0-.2.04-.27.12l-4.19 4.55c-.01.03-.03.04-.06.02s-.05-.04-.05-.07v-8.71c0-.15-.07-.23-.23-.23zm82.41 0c-.15 0-.23.07-.23.22v15.4c0 .14.08.22.23.22h5.48c1.57 0 2.82-.4 3.76-1.22a4.2 4.2 0 0 0 1.4-3.3v-6.8c0-1.37-.46-2.47-1.4-3.28a5.46 5.46 0 0 0-3.76-1.25zm71.2 0c-.15 0-.22.07-.22.22v15.4c0 .14.07.22.22.22h1.73c.15 0 .22-.07.22-.23v-15.4c0-.14-.07-.22-.22-.22zm-125.17 1.33c-.15 0-.23.07-.23.22v2.68c0 .06-.03.09-.09.09h-1.38c-.15 0-.23.07-.23.22v1.34c0 .15.08.23.23.23h1.38c.06 0 .1.03.1.09v6.77c0 1.11.28 1.89.85 2.3.59.42 1.46.62 2.6.62l1.05-.05c.15 0 .22-.07.22-.22v-1.4c0-.16-.07-.23-.22-.23h-.66c-.6 0-1.05-.14-1.34-.41-.28-.29-.43-.75-.43-1.38v-6c0-.06.03-.1.1-.1h2.44c.15 0 .23-.07.23-.22v-1.34c0-.15-.08-.22-.23-.22h-2.44c-.06 0-.1-.03-.1-.1v-2.66c0-.16-.07-.23-.22-.23zm101.42 0c-.15 0-.22.07-.22.22v2.68c0 .06-.03.09-.1.09h-1.37c-.15 0-.23.07-.23.22v1.34c0 .15.08.23.23.23h1.38c.06 0 .09.03.09.09v6.77c0 1.11.29 1.89.86 2.3.59.42 1.45.62 2.6.62l1.04-.05c.15 0 .23-.07.23-.22v-1.4c0-.16-.08-.23-.23-.23h-.65c-.6 0-1.05-.14-1.34-.41-.29-.29-.43-.75-.43-1.38v-6c0-.06.03-.1.1-.1h2.44c.15 0 .22-.07.22-.22v-1.34c0-.15-.07-.22-.22-.22H479c-.06 0-.09-.03-.09-.1v-2.66c0-.16-.07-.23-.23-.23zm-45.4.54h3.52c.9 0 1.6.27 2.1.82.54.52.8 1.24.8 2.15v6.16c-.01.9-.29 1.63-.82 2.17-.5.53-1.2.79-2.08.79h-3.53c-.06 0-.1-.03-.1-.09v-11.9c0-.07.04-.1.1-.1zm-261.88.8c.03 0 .05 0 .07.04l2.62 8.4c.02.03.01.06-.02.09l-.07.02h-5.2a.2.2 0 0 1-.1-.02.1.1 0 0 1 0-.1l2.63-8.4c.02-.02.04-.04.07-.04zm14.67 1.47a4.2 4.2 0 0 0-4.12 3 9.61 9.61 0 0 0-.34 2.9c0 1.18.1 2.1.3 2.77.3 1 .83 1.75 1.62 2.26.8.51 1.7.77 2.67.77 1.22 0 2.15-.37 2.79-1.1.03-.04.05-.04.06-.03.03.01.05.04.05.07v.4c0 1.14-.29 1.94-.86 2.4-.58.49-1.5.73-2.78.73a13.83 13.83 0 0 1-.93-.02c-.08-.02-.14 0-.18.04s-.07.1-.07.16l-.07 1.56c0 .15.08.24.23.25l1.13.05c1.74 0 3.12-.4 4.14-1.18 1.04-.79 1.57-2.1 1.57-3.92v-10.7c0-.16-.08-.23-.23-.23h-1.72c-.15 0-.23.07-.23.22v.7c0 .03-.01.06-.04.07-.02 0-.04-.01-.07-.04a3.81 3.81 0 0 0-2.92-1.13zm15.03 0c-1.16 0-2.15.3-2.97.9s-1.36 1.43-1.63 2.47a9.6 9.6 0 0 0-.25 2.51c0 1.27.19 2.35.55 3.24.37.9.94 1.58 1.7 2.06s1.68.73 2.78.73c.98 0 1.86-.2 2.63-.6.78-.39 1.38-.92 1.8-1.6.07-.1.04-.2-.06-.3l-1.29-.86c-.12-.1-.22-.08-.3.07a2.9 2.9 0 0 1-2.57 1.38c-.77 0-1.42-.16-1.93-.5-.5-.34-.83-.82-1-1.42-.09-.27-.13-.67-.13-1.18 0-.06.03-.09.09-.09h7.22c.15 0 .23-.07.23-.23.01-.77 0-1.46-.07-2.08a5.45 5.45 0 0 0-1.38-3.35c-.76-.77-1.9-1.15-3.42-1.15zm29.16 0c-1.13 0-2.11.28-2.94.86a4.32 4.32 0 0 0-1.68 2.3c-.22.79-.34 1.7-.34 2.74 0 1.14.12 2.05.34 2.74a4.43 4.43 0 0 0 1.68 2.38c.81.58 1.8.86 2.94.86 1.13 0 2.12-.28 2.97-.84s1.4-1.3 1.65-2.22c.08-.2.11-.36.11-.5v-.08c0-.1-.06-.16-.18-.19l-1.7-.27a.19.19 0 0 0-.24.14v.09c-.02.01-.03.04-.03.07a2.2 2.2 0 0 1-.9 1.4c-.47.35-1.04.52-1.7.52-.65 0-1.2-.17-1.65-.52a2.54 2.54 0 0 1-.89-1.43 9.04 9.04 0 0 1-.2-2.12c0-.9.07-1.61.2-2.16.14-.57.43-1.03.89-1.38s1-.52 1.65-.52c.66 0 1.23.18 1.7.52s.76.78.88 1.3l.07.36c.04.13.12.2.23.2h.04l1.7-.25c.13-.03.2-.1.2-.23-.03-.25-.09-.5-.18-.74-.26-.88-.8-1.6-1.65-2.18s-1.84-.86-2.97-.86zm21.8 0c-1.25 0-2.29.28-3.12.86a3.05 3.05 0 0 0-1.43 2.17c-.01.1.06.15.2.18l1.84.25c.14.02.23-.05.27-.2.1-.43.33-.76.73-1 .4-.26.93-.38 1.56-.38.79 0 1.37.18 1.74.56a2 2 0 0 1 .6 1.54v.61c0 .06-.04.1-.1.1h-2.53c-1.48 0-2.64.33-3.47 1.01a3.37 3.37 0 0 0-1.22 2.76c0 1.15.36 2.01 1.09 2.58a4.5 4.5 0 0 0 2.78.84c.7 0 1.32-.1 1.88-.31a4.03 4.03 0 0 0 1.45-.96c.07-.04.11-.03.11.05v.81c0 .16.08.23.23.23h1.72c.15 0 .23-.07.23-.23v-7.65c0-.74-.2-1.4-.57-1.97a3.5 3.5 0 0 0-1.58-1.35 5.41 5.41 0 0 0-2.4-.5zm35.87 0c-1.17 0-2.16.3-2.97.9s-1.36 1.43-1.63 2.47a9.59 9.59 0 0 0-.25 2.51c0 1.27.18 2.35.55 3.24.37.9.94 1.58 1.7 2.06s1.68.73 2.78.73c.98 0 1.85-.2 2.62-.6.79-.39 1.4-.92 1.82-1.6.06-.1.03-.2-.07-.3l-1.3-.86c-.11-.1-.21-.08-.29.07a2.9 2.9 0 0 1-2.58 1.38c-.77 0-1.4-.16-1.92-.5-.5-.34-.83-.82-1-1.42a3.9 3.9 0 0 1-.13-1.18c0-.06.03-.09.09-.09h7.22c.15 0 .23-.07.23-.23.01-.77-.01-1.46-.07-2.08a5.45 5.45 0 0 0-1.38-3.35c-.76-.77-1.9-1.15-3.42-1.15zm39.32 0c-1.25 0-2.3.28-3.12.86a3.05 3.05 0 0 0-1.43 2.17c-.01.1.05.15.2.18l1.84.25c.13.02.22-.05.27-.2.1-.43.33-.76.72-1 .41-.26.93-.38 1.57-.38.78 0 1.36.18 1.74.56a2 2 0 0 1 .59 1.54v.61c0 .06-.03.1-.09.1h-2.54c-1.48 0-2.63.33-3.46 1.01a3.37 3.37 0 0 0-1.22 2.76c0 1.15.36 2.01 1.08 2.58a4.5 4.5 0 0 0 2.79.84c.7 0 1.32-.1 1.88-.31a4.03 4.03 0 0 0 1.45-.96c.07-.04.1-.03.1.05v.81c0 .16.09.23.24.23h1.72c.15 0 .22-.07.22-.23v-7.65c0-.74-.18-1.4-.56-1.97a3.51 3.51 0 0 0-1.59-1.35 5.4 5.4 0 0 0-2.4-.5zm39.16 0c-1.16 0-2.15.3-2.96.9s-1.36 1.43-1.63 2.47a9.6 9.6 0 0 0-.25 2.51c0 1.27.18 2.35.54 3.24.38.9.94 1.58 1.7 2.06s1.68.73 2.78.73c.98 0 1.86-.2 2.63-.6.78-.39 1.39-.92 1.81-1.6.06-.1.04-.2-.07-.3l-1.29-.86c-.12-.1-.22-.08-.3.07a2.9 2.9 0 0 1-2.57 1.38c-.77 0-1.41-.16-1.93-.5-.5-.34-.83-.82-1-1.42-.08-.27-.13-.67-.13-1.18 0-.06.03-.09.1-.09h7.21c.16 0 .23-.07.23-.23.02-.77 0-1.46-.07-2.08a5.45 5.45 0 0 0-1.38-3.35c-.75-.77-1.9-1.15-3.42-1.15zm47.03 0a4.2 4.2 0 0 0-4.12 3 9.61 9.61 0 0 0-.34 2.9c0 1.18.1 2.1.29 2.77.3 1 .85 1.75 1.63 2.26.8.51 1.7.77 2.67.77 1.23 0 2.15-.37 2.79-1.1.03-.04.05-.04.06-.03.03.01.05.04.05.07v.4c0 1.14-.29 1.94-.86 2.4-.57.49-1.5.73-2.79.73-.4 0-.71 0-.92-.02-.08-.02-.14 0-.19.04s-.06.1-.06.16l-.07 1.56c0 .15.08.24.23.25l1.13.05c1.73 0 3.11-.4 4.14-1.18 1.04-.79 1.56-2.1 1.56-3.92v-10.7c0-.16-.07-.23-.22-.23h-1.72c-.16 0-.23.07-.23.22v.7c0 .03-.02.06-.05.07l-.06-.04a3.81 3.81 0 0 0-2.92-1.13zm45.64 0a4.2 4.2 0 0 0-4.12 3 9.61 9.61 0 0 0-.34 2.9c0 1.18.1 2.1.3 2.77.3 1 .84 1.75 1.62 2.26.8.51 1.7.77 2.67.77 1.23 0 2.15-.37 2.79-1.1.03-.04.05-.04.07-.03.03.01.04.04.04.07v.4c0 1.14-.28 1.94-.86 2.4-.57.49-1.5.73-2.78.73-.41 0-.72 0-.93-.02-.08-.02-.14 0-.18.04s-.07.1-.07.16l-.07 1.56c0 .15.08.24.23.25l1.13.05c1.74 0 3.12-.4 4.14-1.18 1.04-.79 1.57-2.1 1.57-3.92v-10.7c0-.16-.08-.23-.23-.23h-1.72c-.15 0-.23.07-.23.22v.7c0 .03-.01.06-.04.07-.02 0-.04-.01-.07-.04a3.81 3.81 0 0 0-2.92-1.13zm33.37 0c-1.25 0-2.3.28-3.13.86a3.05 3.05 0 0 0-1.42 2.17c-.02.1.05.15.2.18l1.84.25c.13.02.22-.05.27-.2.09-.43.33-.76.72-1 .41-.26.93-.38 1.56-.38.79 0 1.37.18 1.75.56a2 2 0 0 1 .59 1.54v.61c0 .06-.03.1-.1.1h-2.53c-1.48 0-2.63.33-3.46 1.01a3.37 3.37 0 0 0-1.23 2.76c0 1.15.37 2.01 1.1 2.58.73.56 1.66.84 2.78.84.69 0 1.32-.1 1.87-.31a4.03 4.03 0 0 0 1.45-.96c.08-.04.12-.03.12.05v.81c0 .16.07.23.22.23h1.72c.16 0 .23-.07.23-.23v-7.65c0-.74-.19-1.4-.56-1.97a3.5 3.5 0 0 0-1.59-1.35 5.41 5.41 0 0 0-2.4-.5zm-276.16.02c-1.26 0-2.22.42-2.87 1.25-.02.03-.04.03-.07.02l-.02-.07v-.81c0-.16-.08-.23-.23-.23h-1.72c-.15 0-.23.07-.23.23v11.07c0 .15.08.22.23.22h1.72c.15 0 .23-.07.23-.22v-7.07a2.36 2.36 0 0 1 2.42-2.51c.73 0 1.3.23 1.74.7s.66 1.08.66 1.83v7.05c0 .15.08.22.23.22h1.72c.15 0 .22-.07.22-.22v-7.48c0-1.22-.36-2.18-1.08-2.9a3.98 3.98 0 0 0-2.94-1.08zm183.7 0c-1.27 0-2.23.42-2.88 1.25-.01.03-.03.03-.06.02-.02-.02-.03-.04-.03-.07v-.81c0-.16-.07-.23-.22-.23h-1.73c-.15 0-.22.07-.22.23v11.07c0 .15.07.22.22.22h1.73c.15 0 .22-.07.22-.22v-7.07c0-.74.23-1.34.68-1.8s1.04-.71 1.75-.71c.72 0 1.3.23 1.74.7s.65 1.08.65 1.83v7.05c0 .15.08.22.23.22h1.72c.15 0 .23-.07.23-.22v-7.48c0-1.22-.36-2.18-1.09-2.9a3.98 3.98 0 0 0-2.94-1.08zm-57.93.04c-1.18 0-2.1.53-2.79 1.59-.01.03-.03.05-.06.05-.02-.02-.03-.05-.03-.1v-1.2c0-.15-.07-.22-.22-.22h-1.72c-.16 0-.23.07-.23.22v11.07c0 .16.07.23.23.23h1.72c.15 0 .22-.07.22-.23v-6.6c0-.74.23-1.34.68-1.8a2.56 2.56 0 0 1 1.77-.74l.32-.02c.34 0 .64.05.9.15.17.05.26 0 .27-.13l.36-1.7c.03-.14 0-.23-.1-.27-.4-.2-.84-.3-1.32-.3zm-101.84.12c-.15 0-.22.07-.22.22v11.05c0 .15.07.23.22.23h1.72c.15 0 .23-.08.23-.23v-11.05c0-.15-.08-.22-.23-.22zm147 0c-.15 0-.23.07-.23.22v11.05c0 .15.08.23.23.23h1.72c.15 0 .23-.08.23-.23v-11.05c0-.15-.08-.22-.23-.22zm60.18 0c-.15 0-.23.07-.23.22v11.05c0 .15.08.23.23.23h1.72c.15 0 .22-.08.22-.23v-11.05c0-.15-.07-.22-.22-.22zm22.6 0c-.16 0-.24.07-.24.22v11.05c0 .15.08.23.23.23h1.72c.15 0 .23-.08.23-.23v-11.05c0-.15-.08-.22-.23-.22zm-283.46 1.7c.64 0 1.16.18 1.59.54.42.35.7.8.81 1.36a13.35 13.35 0 0 1 .16 2.1l-.05 1.36c-.01.27-.04.53-.09.77a2.45 2.45 0 0 1-.81 1.38c-.4.35-.94.52-1.6.52a2.6 2.6 0 0 1-1.64-.52 2.64 2.64 0 0 1-.88-1.38 6.62 6.62 0 0 1-.23-2.13c0-.95.08-1.65.25-2.1.18-.56.48-1.01.9-1.36.43-.36.96-.54 1.6-.54zm14.56 0c.66 0 1.22.18 1.65.54.46.35.76.81.9 1.4.07.24.11.61.14 1.11a.08.08 0 0 1-.09.1h-5.18c-.06 0-.1-.04-.1-.1.04-.51.1-.94.21-1.27.15-.54.44-.97.86-1.29.42-.33.96-.5 1.6-.5zm72.13 0c.85 0 1.49.38 1.93 1.15.37.66.56 1.63.56 2.9s-.17 2.22-.52 2.85a2.16 2.16 0 0 1-1.99 1.22c-1 0-1.71-.41-2.15-1.24a5.98 5.98 0 0 1-.57-2.81c0-1.24.25-2.23.73-2.99a2.2 2.2 0 0 1 2.01-1.08zm14.7 0c.66 0 1.21.18 1.65.54.45.35.75.81.9 1.4.06.24.11.61.14 1.11 0 .06-.03.1-.09.1h-5.18c-.06 0-.1-.04-.1-.1.03-.51.1-.94.2-1.27a2.34 2.34 0 0 1 .87-1.29c.42-.33.96-.5 1.6-.5zm78.48 0c.67 0 1.22.18 1.65.54.46.35.76.81.9 1.4.07.24.12.61.15 1.11 0 .06-.03.1-.1.1h-5.18c-.06 0-.09-.04-.09-.1.03-.51.1-.94.2-1.27a2.34 2.34 0 0 1 .86-1.29c.42-.33.96-.5 1.61-.5zm47.5 0c.64 0 1.16.18 1.59.54a2.34 2.34 0 0 1 .81 1.36 13.17 13.17 0 0 1 .16 2.1l-.05 1.36a6.02 6.02 0 0 1-.09.77 2.45 2.45 0 0 1-.81 1.38c-.4.35-.94.52-1.6.52a2.6 2.6 0 0 1-1.64-.52 2.64 2.64 0 0 1-.88-1.38 6.62 6.62 0 0 1-.23-2.13c0-.95.09-1.65.25-2.1.18-.56.48-1.01.9-1.36.43-.36.96-.54 1.6-.54zm45.64 0c.64 0 1.17.18 1.59.54a2.34 2.34 0 0 1 .81 1.36c.06.24.1.5.12.77.03.25.04.7.04 1.33l-.04 1.36a6.02 6.02 0 0 1-.1.77 2.45 2.45 0 0 1-.8 1.38c-.42.35-.95.52-1.62.52a2.6 2.6 0 0 1-1.63-.52 2.64 2.64 0 0 1-.88-1.38 6.62 6.62 0 0 1-.23-2.13c0-.95.09-1.65.25-2.1.18-.56.49-1.01.9-1.36.43-.36.96-.54 1.6-.54zm-207.33 4.5h2.13c.06 0 .1.03.1.1v1.33c0 .65-.3 1.18-.89 1.6s-1.28.64-2.08.64a2.7 2.7 0 0 1-1.59-.43c-.39-.29-.59-.71-.59-1.27a1.64 1.64 0 0 1 .8-1.45 3.83 3.83 0 0 1 2.12-.52zm75.2 0h2.12c.06 0 .09.03.09.1v1.33c0 .65-.3 1.18-.88 1.6s-1.29.64-2.09.64a2.7 2.7 0 0 1-1.58-.43c-.4-.29-.59-.71-.59-1.27a1.64 1.64 0 0 1 .8-1.45 3.83 3.83 0 0 1 2.12-.52zm165.19 0h2.13c.06 0 .09.03.09.1v1.33c0 .65-.3 1.18-.89 1.6s-1.28.64-2.08.64a2.7 2.7 0 0 1-1.58-.43c-.4-.29-.6-.71-.6-1.27a1.64 1.64 0 0 1 .8-1.45 3.82 3.82 0 0 1 2.13-.52zM79.34 2.16 29.82 116.62a63.08 63.08 0 0 0 10.1 4.99L89.93 6a63.08 63.08 0 0 0-10.6-3.85z"/></svg>