<svg xmlns="http://www.w3.org/2000/svg" width="661.12" height="126.11" viewBox="0 0 661.12 126.11"><path fill="#6cc72b" d="M407.95 98.7a1.57 1.57 0 0 1-.48-1.16V5.71c0-.45.16-.84.48-1.16a1.57 1.57 0 0 1 1.16-.48H425c.45 0 .84.16 1.15.48a1.57 1.57 0 0 1 .48 1.16v91.84a1.57 1.57 0 0 1-.48 1.16c-.32.32-.7.48-1.15.48h-15.9a1.57 1.57 0 0 1-1.15-.48zm37.16-4.42c-5.43-3.99-9.15-9.42-11.14-16.3a48.22 48.22 0 0 1-1.9-13.86c0-5.34.63-10.14 1.9-14.4 2.08-6.7 5.84-11.95 11.27-15.76 5.43-3.8 11.95-5.71 19.56-5.71s13.77 1.88 19.02 5.64 8.97 8.99 11.14 15.69c1.45 4.53 2.17 9.28 2.17 14.27s-.63 9.46-1.9 13.72c-2 7.06-5.68 12.61-11.07 16.64s-11.9 6.05-19.5 6.05-14.12-1.99-19.55-5.98zm27.17-13.18a15.07 15.07 0 0 0 4.48-7.47c.72-2.9 1.09-6.07 1.09-9.51 0-3.8-.36-7.02-1.1-9.65-1-3.08-2.53-5.48-4.61-7.2s-4.62-2.58-7.61-2.58-5.64.86-7.67 2.58c-2.04 1.72-3.51 4.12-4.41 7.2-.73 2.17-1.1 5.39-1.1 9.65s.33 7.25.96 9.51c.9 3.17 2.42 5.66 4.55 7.47s4.73 2.72 7.8 2.72 5.53-.9 7.62-2.72zm73.56-51.28a1.57 1.57 0 0 1 1.16-.48h15.89c.45 0 .84.16 1.16.48a1.57 1.57 0 0 1 .48 1.16v61.95c0 11.86-3.42 20.33-10.26 25.4s-15.65 7.61-26.42 7.61c-3.17 0-6.7-.23-10.6-.68-.91-.09-1.36-.68-1.36-1.77l.54-13.99c0-1.18.63-1.68 1.9-1.49 3.26.54 6.25.82 8.97.82 5.8 0 10.26-1.27 13.38-3.8 3.13-2.54 4.69-6.61 4.69-12.23 0-.27-.1-.43-.27-.48-.18-.04-.36.02-.54.2-3.44 3.71-8.47 5.57-15.08 5.57-5.9 0-11.3-1.43-16.23-4.28-4.94-2.85-8.45-7.45-10.53-13.79-1.36-4.16-2.04-9.55-2.04-16.17 0-7.06.8-12.82 2.45-17.25 1.9-5.52 5.12-9.96 9.65-13.31s9.78-5.03 15.76-5.03c6.97 0 12.32 2.08 16.03 6.25.18.18.36.25.54.2.18-.04.27-.2.27-.48v-3.26c0-.45.16-.84.48-1.16zm-.48 33.89c0-2.81-.1-4.98-.27-6.52s-.5-2.99-.95-4.35c-.81-2.45-2.17-4.41-4.08-5.91s-4.26-2.24-7.06-2.24-5.03.75-6.93 2.24-3.31 3.46-4.21 5.91c-1.27 2.72-1.9 6.38-1.9 11 0 5.07.54 8.69 1.63 10.87a11.72 11.72 0 0 0 11.55 8.15c2.8 0 5.3-.75 7.2-2.24s3.2-3.42 3.94-5.77c.72-2.72 1.09-6.43 1.09-11.14zM572.47 98.7a1.57 1.57 0 0 1-.48-1.16v-66.7c0-.45.16-.84.48-1.16a1.57 1.57 0 0 1 1.16-.48h15.89c.45 0 .84.16 1.15.48a1.57 1.57 0 0 1 .48 1.16v66.7a1.57 1.57 0 0 1-.48 1.16c-.32.32-.7.48-1.15.48h-15.9a1.57 1.57 0 0 1-1.15-.48zm38.72-3.87a29.6 29.6 0 0 1-11.34-14.94c-1.54-4.53-2.31-9.87-2.31-16.03s.77-11.32 2.3-15.76c2.18-6.16 5.94-11 11.28-14.54 5.34-3.53 11.64-5.3 18.88-5.3s13.6 1.81 19.09 5.43 9.12 8.2 10.94 13.72c.72 2.17 1.09 3.8 1.09 4.89v.27c0 .82-.45 1.31-1.36 1.49l-15.62 2.31h-.27c-.82 0-1.36-.45-1.63-1.36l-.41-2.17c-.64-2.35-2.04-4.3-4.21-5.84s-4.75-2.31-7.74-2.31-5.35.73-7.34 2.17a11.49 11.49 0 0 0-4.21 5.98c-1 2.72-1.5 6.43-1.5 11.14s.46 8.42 1.37 11.14a11.99 11.99 0 0 0 4.28 6.38c2.04 1.54 4.5 2.31 7.4 2.31s5.28-.75 7.4-2.24 3.6-3.55 4.42-6.18c.09-.18.14-.45.14-.82.09-.09.13-.22.13-.41.09-1.09.72-1.54 1.9-1.36l15.62 2.45c.9.18 1.36.68 1.36 1.49 0 .73-.27 2.08-.82 4.08-1.9 6.07-5.6 10.82-11.07 14.26s-11.8 5.16-18.95 5.16-13.52-1.81-18.81-5.43zM63.08.01A63.08 63.08 0 0 0 0 63.09a63.08 63.08 0 0 0 26.85 51.47L75.84 1.32A63.08 63.08 0 0 0 63.08.01zm46.55 20.52L63.95 126.11a63.08 63.08 0 0 0 62.21-63.02 63.08 63.08 0 0 0-16.53-42.56z"/><path fill="#d257b1" d="M172.2 96.12a29.72 29.72 0 0 1-12.35-11.62c-2.9-4.98-4.35-10.73-4.35-17.25V35.87c0-6.52 1.45-12.27 4.35-17.25s7.02-8.83 12.36-11.55 11.55-4.08 18.6-4.08 13.12 1.29 18.42 3.87 9.42 6.25 12.36 11S226 28.12 226 34.37c0 .82-.54 1.31-1.63 1.5l-15.9.95h-.26c-.91 0-1.36-.5-1.36-1.49 0-4.8-1.47-8.65-4.42-11.55-2.94-2.9-6.82-4.35-11.62-4.35s-8.81 1.45-11.75 4.35-4.42 6.75-4.42 11.55v32.74c0 4.71 1.47 8.51 4.42 11.41 2.94 2.9 6.86 4.35 11.75 4.35s8.67-1.45 11.62-4.35c2.94-2.9 4.42-6.7 4.42-11.41 0-1 .54-1.49 1.63-1.49l15.89.68c.45 0 .84.14 1.16.41s.48.59.48.95c0 6.25-1.47 11.77-4.42 16.57-2.94 4.8-7.06 8.51-12.36 11.14s-11.43 3.94-18.41 3.94-13.27-1.38-18.61-4.14zM274.5 30.3c.72.36 1 1.04.82 2.04l-2.85 15.49c-.1 1.09-.73 1.41-1.9.95a15.11 15.11 0 0 0-4.75-.68c-.73 0-1.72.09-3 .27-3.25.27-6.01 1.47-8.28 3.6s-3.4 4.96-3.4 8.49v37.09c0 .45-.16.84-.48 1.15s-.7.48-1.16.48h-15.9c-.44 0-.83-.16-1.14-.48-.32-.32-.48-.7-.48-1.15V30.98c0-.45.16-.84.48-1.15s.7-.48 1.15-.48h15.89c.45 0 .84.16 1.16.48s.48.7.48 1.15v5.16c0 .27.09.45.27.54s.32.05.4-.14c3.72-5.43 8.7-8.15 14.95-8.15 3.26 0 5.84.63 7.74 1.9zm63.3 38.31c-.08 1.09-.67 1.63-1.76 1.63h-41.98c-.54 0-.73.23-.54.68.27 1.81.77 3.62 1.49 5.43 2.35 5.07 7.15 7.61 14.4 7.61 5.79-.09 10.37-2.45 13.72-7.06.36-.54.77-.82 1.22-.82.27 0 .59.18.95.54l9.78 9.65c.45.45.68.86.68 1.22 0 .18-.18.54-.54 1.09-3 3.71-6.84 6.59-11.55 8.63s-9.87 3.06-15.5 3.06c-7.78 0-14.37-1.77-19.76-5.3s-9.26-8.47-11.62-14.81c-1.9-4.53-2.85-10.46-2.85-17.8 0-4.98.68-9.37 2.04-13.18 2.08-6.43 5.73-11.55 10.94-15.35s11.39-5.71 18.54-5.71c9.05 0 16.32 2.63 21.8 7.88s8.8 12.27 9.99 21.06c.54 3.44.72 7.29.54 11.55zm-43.46-15.89a32.33 32.33 0 0 0-.95 4.35c0 .45.22.68.68.68h23.5c.54 0 .72-.23.54-.68l-.68-3.8a11.77 11.77 0 0 0-4.28-6.32 12.43 12.43 0 0 0-7.54-2.24c-5.71 0-9.46 2.67-11.28 8.02zm91.42-21.4c4.62 2.04 8.22 4.82 10.8 8.36a19.56 19.56 0 0 1 3.87 11.82v46.05c0 .45-.16.84-.48 1.15s-.7.48-1.15.48h-15.9a1.57 1.57 0 0 1-1.15-.48c-.32-.32-.48-.7-.48-1.15v-4.48c0-.27-.1-.45-.27-.54s-.36 0-.54.27c-3.8 4.98-9.92 7.47-18.34 7.47-7.06 0-12.77-1.72-17.12-5.16s-6.52-8.51-6.52-15.22 2.45-12.38 7.34-16.23 11.86-5.77 20.92-5.77h13.86c.45 0 .68-.23.68-.68v-2.99c0-2.99-.91-5.32-2.72-7-1.81-1.67-4.53-2.51-8.15-2.51-2.81 0-5.14.5-7 1.49a6.97 6.97 0 0 0-3.6 4.21c-.27 1-.86 1.45-1.77 1.36L341.6 49.6c-1.1-.18-1.58-.59-1.5-1.22.37-3.8 1.89-7.25 4.56-10.33s6.2-5.48 10.6-7.2A40.14 40.14 0 0 1 370 28.27c5.89 0 11.14 1.02 15.76 3.06zm-8.56 51.56a9.66 9.66 0 0 0 4.08-8.01v-4.89c0-.45-.23-.68-.68-.68h-9.78c-4.08 0-7.27.77-9.58 2.31s-3.46 3.71-3.46 6.52c0 2.45.86 4.37 2.58 5.77 1.72 1.41 4.03 2.11 6.93 2.11 3.89 0 7.2-1.04 9.92-3.12zM92.65 7.38 42.77 122.67a63.08 63.08 0 0 0 17.65 3.3l46.73-108a63.08 63.08 0 0 0-14.5-10.6z"/><path fill="#2a3e4a" d="M574.1 18.41c-2.04-2.04-3.06-4.6-3.06-7.68s1-5.75 2.99-7.74S578.6 0 581.77 0s5.75 1 7.74 2.99 2.99 4.57 2.99 7.74-1.02 5.64-3.06 7.68-4.6 3.06-7.68 3.06-5.64-1.02-7.67-3.06zM79.34 2.16 29.82 116.62a63.08 63.08 0 0 0 10.1 4.99L89.93 6a63.08 63.08 0 0 0-10.6-3.85z"/></svg>