<svg xmlns="http://www.w3.org/2000/svg" viewBox="0 0 99.7 21.7"><path fill="#ABC4D1" d="M3.9 13.5c0-2.8 1.6-4.7 4-4.7l.7.1 1.1-3.4c-.6-.2-1.3-.3-2.1-.3C3.1 5.2 0 8.6 0 13.5c0 3.5 1.8 6.4 4.6 7.6l1.2-3.6c-1.2-.8-1.9-2.2-1.9-4"/><path fill="#60848C" d="M11.7 6.5 10.6 10c.8.8 1.2 2 1.2 3.5 0 2.2-1.2 4.6-3.9 4.6l-1.2 3.6 1 .1c1.5 0 2.9-.5 4.1-1.3v1.3h3.8V0h-1.7l-2.2 6.5z"/><g fill="#262626" opacity=".77"><path d="M24.6 5.2c-4.4 0-7.7 3.6-7.7 8.3 0 4.8 3.3 8.2 8.1 8.2 4.2 0 6.1-2.7 6.6-3.5l.4-.7-2.7-2-.5.7a4.4 4.4 0 0 1-3.7 1.9c-2.3 0-3.8-1.3-4.2-3.4h11.2l.1-.8v-.7c0-4.8-3.1-8-7.6-8M21 11.5a3.8 3.8 0 0 1 3.6-2.8c1.5 0 3.1.7 3.6 2.8H21zM33.4 0h3.8v21.4h-3.8zM46.2 5.2c-4.4 0-7.7 3.6-7.7 8.3 0 4.8 3.3 8.2 8.1 8.2 4.2 0 6.1-2.7 6.6-3.5l.4-.7-2.7-2-.5.7a4.4 4.4 0 0 1-3.7 1.9c-2.3 0-3.8-1.3-4.2-3.4h11.2l.1-.8v-.7c0-4.8-3-8-7.6-8m-3.5 6.3a3.8 3.8 0 0 1 3.6-2.8c1.5 0 3.1.7 3.6 2.8h-7.2zM62.4 5.5h-3c0-1.5.6-1.9 1.6-1.9h.6l1 .1V.2l-.7-.1-1-.1c-3.3 0-5.2 2-5.3 5.4H54V9h1.6v12.3h3.9V9h3V5.5zM69.1 5.2c-2.6 0-4.7 1.1-5.7 1.7l-.7.4 1.7 3 .7-.4a7.8 7.8 0 0 1 3.7-1.1c1 0 2.6.3 2.6 2.3v.2c-.8-.3-1.7-.6-2.9-.6-3.6 0-6.3 2.3-6.3 5.5s2.6 5.6 6.2 5.6c1.4 0 2.5-.4 3.3-.8l.1.5h3.4V11.2c.1-3.8-2.1-6-6.1-6m-.2 13.1c-1.6 0-2.7-.9-2.7-2.1 0-1.2 1.1-2.1 2.7-2.1 1.3 0 2.7.5 2.7 2.1 0 1.2-1.1 2.1-2.7 2.1M84.5 5.2a6 6 0 0 0-3.4 1.1v-.8h-3.8v15.9h3.8v-9.5c0-1.9 1.1-3.1 2.8-3.1 1.5 0 2.5 1.1 2.5 2.8v9.8h3.8v-9.7c.1-4-2.1-6.5-5.7-6.5M98.8 17.9h-.5c-1.1 0-1.8 0-1.8-2.4V9h3.1V5.5h-3.1v-3h-3.8v3H91V9h1.7v6.7c0 5.1 3.1 5.9 4.9 5.9l1.4-.1.7-.1v-3.6l-.9.1z"/></g></svg>